G04 #@! TF.GenerationSoftware,KiCad,Pcbnew,(5.1.10-1-10_14)*
G04 #@! TF.CreationDate,2021-09-27T01:33:29+08:00*
G04 #@! TF.ProjectId,SMP top plate v.2 ,534d5020-746f-4702-9070-6c6174652076,rev?*
G04 #@! TF.SameCoordinates,Original*
G04 #@! TF.FileFunction,Legend,Top*
G04 #@! TF.FilePolarity,Positive*
%FSLAX46Y46*%
G04 Gerber Fmt 4.6, Leading zero omitted, Abs format (unit mm)*
G04 Created by KiCad (PCBNEW (5.1.10-1-10_14)) date 2021-09-27 01:33:29*
%MOMM*%
%LPD*%
G01*
G04 APERTURE LIST*
%ADD10C,0.400000*%
%ADD11C,0.200000*%
%ADD12C,0.100000*%
%ADD13C,0.010000*%
%ADD14C,1.000000*%
%ADD15C,6.400000*%
%ADD16C,3.600000*%
G04 APERTURE END LIST*
D10*
X97212536Y-104903301D02*
X98355393Y-104903301D01*
X97783964Y-106903301D02*
X97783964Y-104903301D01*
X99022060Y-106903301D02*
X99022060Y-104903301D01*
X99879202Y-106903301D02*
X99879202Y-105855682D01*
X99783964Y-105665206D01*
X99593488Y-105569968D01*
X99307774Y-105569968D01*
X99117298Y-105665206D01*
X99022060Y-105760444D01*
X101593488Y-106808063D02*
X101403012Y-106903301D01*
X101022060Y-106903301D01*
X100831583Y-106808063D01*
X100736345Y-106617587D01*
X100736345Y-105855682D01*
X100831583Y-105665206D01*
X101022060Y-105569968D01*
X101403012Y-105569968D01*
X101593488Y-105665206D01*
X101688726Y-105855682D01*
X101688726Y-106046159D01*
X100736345Y-106236635D01*
X97498250Y-110303301D02*
X97498250Y-108303301D01*
X98164917Y-109731873D01*
X98831583Y-108303301D01*
X98831583Y-110303301D01*
X100641107Y-110303301D02*
X100641107Y-109255682D01*
X100545869Y-109065206D01*
X100355393Y-108969968D01*
X99974440Y-108969968D01*
X99783964Y-109065206D01*
X100641107Y-110208063D02*
X100450631Y-110303301D01*
X99974440Y-110303301D01*
X99783964Y-110208063D01*
X99688726Y-110017587D01*
X99688726Y-109827111D01*
X99783964Y-109636635D01*
X99974440Y-109541397D01*
X100450631Y-109541397D01*
X100641107Y-109446159D01*
X102450631Y-110208063D02*
X102260155Y-110303301D01*
X101879202Y-110303301D01*
X101688726Y-110208063D01*
X101593488Y-110112825D01*
X101498250Y-109922349D01*
X101498250Y-109350920D01*
X101593488Y-109160444D01*
X101688726Y-109065206D01*
X101879202Y-108969968D01*
X102260155Y-108969968D01*
X102450631Y-109065206D01*
X103307774Y-110303301D02*
X103307774Y-108969968D01*
X103307774Y-109350920D02*
X103403012Y-109160444D01*
X103498250Y-109065206D01*
X103688726Y-108969968D01*
X103879202Y-108969968D01*
X104831583Y-110303301D02*
X104641107Y-110208063D01*
X104545869Y-110112825D01*
X104450631Y-109922349D01*
X104450631Y-109350920D01*
X104545869Y-109160444D01*
X104641107Y-109065206D01*
X104831583Y-108969968D01*
X105117298Y-108969968D01*
X105307774Y-109065206D01*
X105403012Y-109160444D01*
X105498250Y-109350920D01*
X105498250Y-109922349D01*
X105403012Y-110112825D01*
X105307774Y-110208063D01*
X105117298Y-110303301D01*
X104831583Y-110303301D01*
X106355393Y-108969968D02*
X106355393Y-110969968D01*
X106355393Y-109065206D02*
X106545869Y-108969968D01*
X106926821Y-108969968D01*
X107117298Y-109065206D01*
X107212536Y-109160444D01*
X107307774Y-109350920D01*
X107307774Y-109922349D01*
X107212536Y-110112825D01*
X107117298Y-110208063D01*
X106926821Y-110303301D01*
X106545869Y-110303301D01*
X106355393Y-110208063D01*
X109022060Y-110303301D02*
X109022060Y-109255682D01*
X108926821Y-109065206D01*
X108736345Y-108969968D01*
X108355393Y-108969968D01*
X108164917Y-109065206D01*
X109022060Y-110208063D02*
X108831583Y-110303301D01*
X108355393Y-110303301D01*
X108164917Y-110208063D01*
X108069679Y-110017587D01*
X108069679Y-109827111D01*
X108164917Y-109636635D01*
X108355393Y-109541397D01*
X108831583Y-109541397D01*
X109022060Y-109446159D01*
X110831583Y-110303301D02*
X110831583Y-108303301D01*
X110831583Y-110208063D02*
X110641107Y-110303301D01*
X110260155Y-110303301D01*
X110069679Y-110208063D01*
X109974440Y-110112825D01*
X109879202Y-109922349D01*
X109879202Y-109350920D01*
X109974440Y-109160444D01*
X110069679Y-109065206D01*
X110260155Y-108969968D01*
X110641107Y-108969968D01*
X110831583Y-109065206D01*
D11*
X111962294Y-110372457D02*
X111962294Y-109572457D01*
X111962294Y-109801028D02*
X112019437Y-109686742D01*
X112076580Y-109629600D01*
X112190865Y-109572457D01*
X112305151Y-109572457D01*
X113162294Y-110315314D02*
X113048008Y-110372457D01*
X112819437Y-110372457D01*
X112705151Y-110315314D01*
X112648008Y-110201028D01*
X112648008Y-109743885D01*
X112705151Y-109629600D01*
X112819437Y-109572457D01*
X113048008Y-109572457D01*
X113162294Y-109629600D01*
X113219437Y-109743885D01*
X113219437Y-109858171D01*
X112648008Y-109972457D01*
X113619437Y-109572457D02*
X113905151Y-110372457D01*
X114190865Y-109572457D01*
X114648008Y-110258171D02*
X114705151Y-110315314D01*
X114648008Y-110372457D01*
X114590865Y-110315314D01*
X114648008Y-110258171D01*
X114648008Y-110372457D01*
X115733722Y-109572457D02*
X115733722Y-110372457D01*
X115448008Y-109115314D02*
X115162294Y-109972457D01*
X115905151Y-109972457D01*
D12*
G36*
X110135795Y-127226695D02*
G01*
X110135795Y-128636395D01*
X109947200Y-128636395D01*
X109931960Y-128512570D01*
X109876715Y-128576388D01*
X109810040Y-128623060D01*
X109733840Y-128651635D01*
X109650020Y-128661160D01*
X109534662Y-128645497D01*
X109440047Y-128598507D01*
X109366175Y-128520190D01*
X109313258Y-128414568D01*
X109281508Y-128285663D01*
X109270925Y-128133475D01*
X109283069Y-127987743D01*
X109319503Y-127859155D01*
X109378319Y-127752237D01*
X109457615Y-127671512D01*
X109555246Y-127620792D01*
X109669070Y-127603885D01*
X109809564Y-127631507D01*
X109833853Y-127795814D01*
X109724315Y-127767715D01*
X109626922Y-127790337D01*
X109555723Y-127858202D01*
X109512146Y-127972264D01*
X109497620Y-128133475D01*
X109510717Y-128293495D01*
X109550008Y-128407795D01*
X109615492Y-128476375D01*
X109707170Y-128499235D01*
X109823851Y-128463040D01*
X109922435Y-128354455D01*
X109922435Y-127880110D01*
X109833853Y-127795814D01*
X109809564Y-127631507D01*
X109922435Y-127714375D01*
X109922435Y-127201930D01*
X110135795Y-127226695D01*
G37*
G36*
X102687245Y-127754380D02*
G01*
X102753206Y-127689134D01*
X102829167Y-127641985D01*
X102912273Y-127613410D01*
X102999665Y-127603885D01*
X103121585Y-127623173D01*
X103209215Y-127681037D01*
X103262079Y-127775097D01*
X103279700Y-127902970D01*
X103279700Y-128636395D01*
X103066340Y-128636395D01*
X103066340Y-127935355D01*
X103032050Y-127806767D01*
X102921560Y-127767715D01*
X102792972Y-127810577D01*
X102687245Y-127916305D01*
X102687245Y-128636395D01*
X102473885Y-128636395D01*
X102473885Y-127228600D01*
X102687245Y-127205740D01*
X102687245Y-127754380D01*
G37*
G36*
X102224330Y-127889635D02*
G01*
X102224330Y-128636395D01*
X102035735Y-128636395D01*
X102035735Y-127918210D01*
X102023352Y-127802005D01*
X101969060Y-127769620D01*
X101891907Y-127794861D01*
X101820470Y-127870585D01*
X101820470Y-128636395D01*
X101647115Y-128636395D01*
X101647115Y-127918210D01*
X101634732Y-127802005D01*
X101580440Y-127769620D01*
X101503287Y-127794861D01*
X101431850Y-127870585D01*
X101431850Y-128636395D01*
X101241350Y-128636395D01*
X101241350Y-127630555D01*
X101401370Y-127630555D01*
X101416610Y-127739140D01*
X101513765Y-127638175D01*
X101631875Y-127603885D01*
X101741412Y-127635794D01*
X101803325Y-127731520D01*
X101902385Y-127637222D01*
X102024305Y-127603885D01*
X102107649Y-127620077D01*
X102170990Y-127668655D01*
X102210995Y-127756285D01*
X102224330Y-127889635D01*
G37*
G36*
X112673255Y-128636395D02*
G01*
X113035205Y-128106805D01*
X112713260Y-127630555D01*
X112959005Y-127630555D01*
X113164745Y-127984885D01*
X113370485Y-127630555D01*
X113604800Y-127630555D01*
X113290475Y-128097280D01*
X113652425Y-128636395D01*
X113402870Y-128636395D01*
X113155220Y-128224915D01*
X112909475Y-128636395D01*
X112673255Y-128636395D01*
G37*
G36*
X101033705Y-128516380D02*
G01*
X100746050Y-128375410D01*
X100746050Y-128152525D01*
X100627940Y-128152525D01*
X100502686Y-128164669D01*
X100416485Y-128201103D01*
X100366479Y-128260396D01*
X100349810Y-128341120D01*
X100392672Y-128463040D01*
X100519355Y-128504950D01*
X100647942Y-128470660D01*
X100746050Y-128375410D01*
X101033705Y-128516380D01*
X100984175Y-128661160D01*
X100853206Y-128616869D01*
X100776530Y-128522095D01*
X100714379Y-128582341D01*
X100638417Y-128625918D01*
X100551502Y-128652349D01*
X100456490Y-128661160D01*
X100319806Y-128639729D01*
X100214555Y-128575435D01*
X100147404Y-128475899D01*
X100125020Y-128348740D01*
X100156214Y-128208723D01*
X100249797Y-128104900D01*
X100344518Y-128057275D01*
X100462311Y-128028700D01*
X100603175Y-128019175D01*
X100746050Y-128019175D01*
X100746050Y-127954405D01*
X100731762Y-127872014D01*
X100688900Y-127815340D01*
X100618891Y-127782479D01*
X100523165Y-127771525D01*
X100399340Y-127784860D01*
X100256465Y-127822960D01*
X100203125Y-127672465D01*
X100322717Y-127634365D01*
X100440192Y-127611505D01*
X100555550Y-127603885D01*
X100677893Y-127613622D01*
X100778223Y-127642832D01*
X100856540Y-127691515D01*
X100932264Y-127797719D01*
X100957505Y-127941070D01*
X100957505Y-128390650D01*
X100974650Y-128475423D01*
X101033705Y-128516380D01*
G37*
G36*
X104068370Y-128495425D02*
G01*
X104202672Y-128473518D01*
X104333165Y-128407795D01*
X104424605Y-128537335D01*
X104347929Y-128589723D01*
X104258870Y-128628775D01*
X104161239Y-128653064D01*
X104058845Y-128661160D01*
X103916605Y-128645179D01*
X103797225Y-128597237D01*
X103700705Y-128517333D01*
X103629797Y-128410758D01*
X103587252Y-128282806D01*
X103573070Y-128133475D01*
X103586881Y-127990362D01*
X103628315Y-127862012D01*
X103695943Y-127754142D01*
X103788335Y-127672465D01*
X103901682Y-127621030D01*
X104032175Y-127603885D01*
X104156317Y-127618807D01*
X104262045Y-127663575D01*
X104349357Y-127738187D01*
X104414445Y-127838835D01*
X104453497Y-127961708D01*
X104466515Y-128106805D01*
X104460800Y-128202055D01*
X103792145Y-128057275D01*
X104258870Y-128057275D01*
X104241725Y-127931069D01*
X104197910Y-127838200D01*
X104128377Y-127781050D01*
X104034080Y-127762000D01*
X103940735Y-127780574D01*
X103866440Y-127836295D01*
X103815481Y-127928688D01*
X103792145Y-128057275D01*
X104460800Y-128202055D01*
X103794050Y-128202055D01*
X103820006Y-128330404D01*
X103878822Y-128422082D01*
X103963833Y-128477089D01*
X104068370Y-128495425D01*
G37*
G36*
X112069370Y-128495425D02*
G01*
X112203673Y-128473518D01*
X112334165Y-128407795D01*
X112425605Y-128537335D01*
X112348929Y-128589723D01*
X112259870Y-128628775D01*
X112162239Y-128653064D01*
X112059845Y-128661160D01*
X111917605Y-128645179D01*
X111798225Y-128597237D01*
X111701705Y-128517333D01*
X111630797Y-128410758D01*
X111588252Y-128282806D01*
X111574070Y-128133475D01*
X111587881Y-127990362D01*
X111629315Y-127862012D01*
X111696943Y-127754142D01*
X111789335Y-127672465D01*
X111902683Y-127621030D01*
X112033175Y-127603885D01*
X112157318Y-127618807D01*
X112263045Y-127663575D01*
X112350358Y-127738187D01*
X112415445Y-127838835D01*
X112454498Y-127961708D01*
X112467515Y-128106805D01*
X112461800Y-128202055D01*
X111793145Y-128057275D01*
X112259870Y-128057275D01*
X112242725Y-127931069D01*
X112198910Y-127838200D01*
X112129378Y-127781050D01*
X112035080Y-127762000D01*
X111941735Y-127780574D01*
X111867440Y-127836295D01*
X111816481Y-127928688D01*
X111793145Y-128057275D01*
X112461800Y-128202055D01*
X111795050Y-128202055D01*
X111821006Y-128330404D01*
X111879823Y-128422082D01*
X111964833Y-128477089D01*
X112069370Y-128495425D01*
G37*
G36*
X99627815Y-128363980D02*
G01*
X99610670Y-128292543D01*
X99542090Y-128241108D01*
X99477796Y-128216581D01*
X99387785Y-128190625D01*
X99242767Y-128142762D01*
X99139182Y-128082993D01*
X99077032Y-128002744D01*
X99056315Y-127893445D01*
X99083461Y-127775097D01*
X99164900Y-127682942D01*
X99245757Y-127639022D01*
X99343547Y-127612669D01*
X99458270Y-127603885D01*
X99599875Y-127616797D01*
X99727510Y-127655532D01*
X99841175Y-127720090D01*
X99749735Y-127855345D01*
X99610670Y-127788194D01*
X99463985Y-127765810D01*
X99321110Y-127793432D01*
X99273485Y-127876300D01*
X99295392Y-127939165D01*
X99370640Y-127985838D01*
X99436839Y-128009412D01*
X99528755Y-128036320D01*
X99671868Y-128087279D01*
X99773547Y-128148715D01*
X99834269Y-128232059D01*
X99854510Y-128348740D01*
X99822601Y-128484233D01*
X99726875Y-128582103D01*
X99635012Y-128626023D01*
X99529602Y-128652376D01*
X99410645Y-128661160D01*
X99253800Y-128645497D01*
X99116005Y-128598507D01*
X98997260Y-128520190D01*
X99109655Y-128390650D01*
X99176092Y-128435179D01*
X99249672Y-128469708D01*
X99328492Y-128491853D01*
X99410645Y-128499235D01*
X99500894Y-128490186D01*
X99569712Y-128463040D01*
X99627815Y-128363980D01*
G37*
G36*
X107628815Y-128363980D02*
G01*
X107611670Y-128292543D01*
X107543090Y-128241108D01*
X107478796Y-128216581D01*
X107388785Y-128190625D01*
X107243767Y-128142762D01*
X107140183Y-128082993D01*
X107078032Y-128002744D01*
X107057315Y-127893445D01*
X107084461Y-127775097D01*
X107165900Y-127682942D01*
X107246757Y-127639022D01*
X107344547Y-127612669D01*
X107459270Y-127603885D01*
X107600875Y-127616797D01*
X107728510Y-127655532D01*
X107842175Y-127720090D01*
X107750735Y-127855345D01*
X107611670Y-127788194D01*
X107464985Y-127765810D01*
X107322110Y-127793432D01*
X107274485Y-127876300D01*
X107296393Y-127939165D01*
X107371640Y-127985838D01*
X107437839Y-128009412D01*
X107529755Y-128036320D01*
X107672868Y-128087279D01*
X107774547Y-128148715D01*
X107835269Y-128232059D01*
X107855510Y-128348740D01*
X107823601Y-128484233D01*
X107727875Y-128582103D01*
X107636012Y-128626023D01*
X107530602Y-128652376D01*
X107411645Y-128661160D01*
X107254800Y-128645497D01*
X107117005Y-128598507D01*
X106998260Y-128520190D01*
X107110655Y-128390650D01*
X107177092Y-128435179D01*
X107250673Y-128469708D01*
X107329492Y-128491853D01*
X107411645Y-128499235D01*
X107501894Y-128490186D01*
X107570713Y-128463040D01*
X107628815Y-128363980D01*
G37*
G36*
X105493310Y-128400175D02*
G01*
X105590465Y-128537335D01*
X105517122Y-128588532D01*
X105430445Y-128627823D01*
X105335671Y-128652826D01*
X105238040Y-128661160D01*
X105095588Y-128645391D01*
X104975573Y-128598083D01*
X104877995Y-128519238D01*
X104806028Y-128413933D01*
X104762848Y-128287251D01*
X104748455Y-128139190D01*
X104763219Y-127993219D01*
X104807510Y-127863917D01*
X104879662Y-127755809D01*
X104978007Y-127673417D01*
X105099689Y-127621268D01*
X105241850Y-127603885D01*
X105369485Y-127617432D01*
X105485690Y-127658072D01*
X105590465Y-127725805D01*
X105491405Y-127859155D01*
X105369009Y-127796290D01*
X105245660Y-127775335D01*
X105133265Y-127797957D01*
X105047540Y-127865822D01*
X104993247Y-127979408D01*
X104975150Y-128139190D01*
X104993247Y-128294448D01*
X105047540Y-128402080D01*
X105133265Y-128464945D01*
X105245660Y-128485900D01*
X105367580Y-128464469D01*
X105493310Y-128400175D01*
G37*
G36*
X111339755Y-127630555D02*
G01*
X111303560Y-128002030D01*
X111151160Y-128002030D01*
X111151160Y-127796290D01*
X111053291Y-127818197D01*
X110969233Y-127880110D01*
X110899938Y-127978694D01*
X110846360Y-128110615D01*
X110846360Y-128483995D01*
X111048290Y-128483995D01*
X111048290Y-128636395D01*
X110484410Y-128636395D01*
X110484410Y-128483995D01*
X110633000Y-128483995D01*
X110633000Y-127782955D01*
X110484410Y-127782955D01*
X110484410Y-127630555D01*
X110794925Y-127630555D01*
X110833025Y-127862965D01*
X110898509Y-127749856D01*
X110976853Y-127669607D01*
X111071864Y-127621744D01*
X111187355Y-127605790D01*
X111339755Y-127630555D01*
G37*
G36*
X108737525Y-128480185D02*
G01*
X109011845Y-128480185D01*
X109011845Y-128636395D01*
X108225080Y-128636395D01*
X108225080Y-128480185D01*
X108524165Y-128480185D01*
X108524165Y-127786765D01*
X108234605Y-127786765D01*
X108234605Y-127630555D01*
X108737525Y-127630555D01*
X108737525Y-128480185D01*
G37*
G36*
X98353370Y-127963930D02*
G01*
X98429570Y-128023938D01*
X98492435Y-128042035D01*
X98589590Y-128002030D01*
X98673410Y-127885825D01*
X98808665Y-127950595D01*
X98744609Y-128061085D01*
X98674362Y-128144905D01*
X98590781Y-128197769D01*
X98486720Y-128215390D01*
X98370515Y-128186815D01*
X98260025Y-128104900D01*
X98182872Y-128044893D01*
X98115245Y-128024890D01*
X98018090Y-128064895D01*
X97934270Y-128181100D01*
X97799015Y-128116330D01*
X97863071Y-128007031D01*
X97933317Y-127922973D01*
X98016899Y-127869394D01*
X98120960Y-127851535D01*
X98240975Y-127880110D01*
X98353370Y-127963930D01*
G37*
G36*
X105960035Y-127952500D02*
G01*
X106649645Y-127952500D01*
X106649645Y-128127760D01*
X105960035Y-128127760D01*
X105960035Y-127952500D01*
G37*
G36*
X108729905Y-127272415D02*
G01*
X108690853Y-127367665D01*
X108590840Y-127405765D01*
X108489875Y-127367665D01*
X108451775Y-127272415D01*
X108490828Y-127175260D01*
X108590840Y-127137160D01*
X108690853Y-127176212D01*
X108729905Y-127272415D01*
G37*
G36*
X100507925Y-111935101D02*
G01*
X100475381Y-112014476D01*
X100392037Y-112046226D01*
X100307900Y-112014476D01*
X100276150Y-111935101D01*
X100308694Y-111854139D01*
X100392037Y-111822389D01*
X100475381Y-111854932D01*
X100507925Y-111935101D01*
G37*
G36*
X100514275Y-112941576D02*
G01*
X100742875Y-112941576D01*
X100742875Y-113071751D01*
X100087237Y-113071751D01*
X100087237Y-112941576D01*
X100336475Y-112941576D01*
X100336475Y-112363726D01*
X100095175Y-112363726D01*
X100095175Y-112233551D01*
X100514275Y-112233551D01*
X100514275Y-112941576D01*
G37*
G36*
X101962075Y-112233551D02*
G01*
X102116062Y-112233551D01*
X102128762Y-112343089D01*
X102185714Y-112286931D01*
X102251794Y-112245457D01*
X102324223Y-112219859D01*
X102400225Y-112211326D01*
X102501825Y-112227598D01*
X102574850Y-112276414D01*
X102618903Y-112354995D01*
X102633588Y-112460564D01*
X102633588Y-113071751D01*
X102455788Y-113071751D01*
X102455788Y-112549464D01*
X102447056Y-112429607D01*
X102412925Y-112367695D01*
X102336725Y-112347851D01*
X102227981Y-112382776D01*
X102139875Y-112470089D01*
X102139875Y-113071751D01*
X101962075Y-113071751D01*
X101962075Y-112233551D01*
G37*
G36*
X99590350Y-112844739D02*
G01*
X99576062Y-112785208D01*
X99518912Y-112742345D01*
X99465334Y-112721906D01*
X99390325Y-112700276D01*
X99269477Y-112660390D01*
X99183156Y-112610582D01*
X99131364Y-112543709D01*
X99114100Y-112452626D01*
X99136722Y-112354003D01*
X99204587Y-112277207D01*
X99271968Y-112240607D01*
X99353460Y-112218646D01*
X99449062Y-112211326D01*
X99567067Y-112222086D01*
X99673429Y-112254365D01*
X99768150Y-112308164D01*
X99691950Y-112420876D01*
X99576062Y-112364917D01*
X99453825Y-112346264D01*
X99334762Y-112369282D01*
X99295075Y-112438339D01*
X99313331Y-112490726D01*
X99376037Y-112529620D01*
X99431203Y-112549265D01*
X99507800Y-112571689D01*
X99627061Y-112614154D01*
X99711794Y-112665351D01*
X99762395Y-112734804D01*
X99779262Y-112832039D01*
X99752672Y-112944950D01*
X99672900Y-113026508D01*
X99596347Y-113063108D01*
X99508506Y-113085069D01*
X99409375Y-113092389D01*
X99278671Y-113079336D01*
X99163842Y-113040178D01*
X99064887Y-112974914D01*
X99158550Y-112866964D01*
X99213914Y-112904072D01*
X99275231Y-112932845D01*
X99340914Y-112951300D01*
X99409375Y-112957451D01*
X99484583Y-112949911D01*
X99541931Y-112927289D01*
X99590350Y-112844739D01*
G37*
G36*
X103290813Y-112954276D02*
G01*
X103402731Y-112936020D01*
X103511475Y-112881251D01*
X103587675Y-112989201D01*
X103523778Y-113032858D01*
X103449563Y-113065401D01*
X103368203Y-113085642D01*
X103282875Y-113092389D01*
X103164342Y-113079071D01*
X103064858Y-113039119D01*
X102984425Y-112972533D01*
X102925335Y-112883721D01*
X102889881Y-112777094D01*
X102878063Y-112652651D01*
X102889572Y-112533390D01*
X102924100Y-112426432D01*
X102980456Y-112336540D01*
X103057450Y-112268476D01*
X103151906Y-112225614D01*
X103260650Y-112211326D01*
X103364102Y-112223762D01*
X103452208Y-112261068D01*
X103524969Y-112323245D01*
X103579208Y-112407118D01*
X103611752Y-112509512D01*
X103622600Y-112630426D01*
X103617838Y-112709801D01*
X103060625Y-112589151D01*
X103449563Y-112589151D01*
X103435275Y-112483979D01*
X103398763Y-112406589D01*
X103340819Y-112358964D01*
X103262238Y-112343089D01*
X103184450Y-112358567D01*
X103122538Y-112405001D01*
X103080072Y-112481995D01*
X103060625Y-112589151D01*
X103617838Y-112709801D01*
X103062213Y-112709801D01*
X103083842Y-112816759D01*
X103132856Y-112893158D01*
X103203698Y-112938997D01*
X103290813Y-112954276D01*
G37*
G36*
X98528312Y-112954276D02*
G01*
X98640231Y-112936020D01*
X98748975Y-112881251D01*
X98825175Y-112989201D01*
X98761278Y-113032858D01*
X98687062Y-113065401D01*
X98605703Y-113085642D01*
X98520375Y-113092389D01*
X98401842Y-113079071D01*
X98302358Y-113039119D01*
X98221925Y-112972533D01*
X98162835Y-112883721D01*
X98127381Y-112777094D01*
X98115562Y-112652651D01*
X98127072Y-112533390D01*
X98161600Y-112426432D01*
X98217956Y-112336540D01*
X98294950Y-112268476D01*
X98389406Y-112225614D01*
X98498150Y-112211326D01*
X98601602Y-112223762D01*
X98689708Y-112261068D01*
X98762469Y-112323245D01*
X98816708Y-112407118D01*
X98849252Y-112509512D01*
X98860100Y-112630426D01*
X98855337Y-112709801D01*
X98298125Y-112589151D01*
X98687062Y-112589151D01*
X98672775Y-112483979D01*
X98636262Y-112406589D01*
X98578319Y-112358964D01*
X98499737Y-112343089D01*
X98421950Y-112358567D01*
X98360037Y-112405001D01*
X98317572Y-112481995D01*
X98298125Y-112589151D01*
X98855337Y-112709801D01*
X98299713Y-112709801D01*
X98321342Y-112816759D01*
X98370356Y-112893158D01*
X98441198Y-112938997D01*
X98528312Y-112954276D01*
G37*
G36*
X97439287Y-113071751D02*
G01*
X97355150Y-112932051D01*
X97458337Y-112932051D01*
X97549045Y-112920542D01*
X97623261Y-112886014D01*
X97680984Y-112828467D01*
X97722215Y-112747901D01*
X97746954Y-112644317D01*
X97755200Y-112517714D01*
X97746116Y-112378014D01*
X97718864Y-112272180D01*
X97673444Y-112200214D01*
X97578392Y-112138301D01*
X97456750Y-112117664D01*
X97355150Y-112117664D01*
X97355150Y-112932051D01*
X97439287Y-113071751D01*
X97171000Y-113071751D01*
X97171000Y-111976376D01*
X97421825Y-111976376D01*
X97535034Y-111983570D01*
X97636534Y-112005150D01*
X97726327Y-112041116D01*
X97804412Y-112091470D01*
X97867615Y-112161270D01*
X97912759Y-112255578D01*
X97939846Y-112374392D01*
X97948875Y-112517714D01*
X97939846Y-112661432D01*
X97912759Y-112781437D01*
X97867615Y-112877729D01*
X97804412Y-112950308D01*
X97727419Y-113003439D01*
X97640900Y-113041390D01*
X97544856Y-113064161D01*
X97439287Y-113071751D01*
G37*
G36*
X106180063Y-112211326D02*
G01*
X106260231Y-112420876D01*
X106206058Y-112366108D01*
X106130850Y-112347851D01*
X106030044Y-112381189D01*
X105949875Y-112468501D01*
X105949875Y-112860614D01*
X106022900Y-112933242D01*
X106114975Y-112957451D01*
X106196136Y-112938600D01*
X106255469Y-112882045D01*
X106291783Y-112786993D01*
X106303888Y-112652651D01*
X106292973Y-112515332D01*
X106260231Y-112420876D01*
X106180063Y-112211326D01*
X106277606Y-112224203D01*
X106356451Y-112262832D01*
X106416600Y-112327214D01*
X106458933Y-112414703D01*
X106484333Y-112522653D01*
X106492800Y-112651064D01*
X106483010Y-112774007D01*
X106453642Y-112880369D01*
X106404694Y-112970151D01*
X106338107Y-113038061D01*
X106255822Y-113078807D01*
X106157838Y-113092389D01*
X106071407Y-113080923D01*
X105998382Y-113046528D01*
X105938763Y-112989201D01*
X105929238Y-113071751D01*
X105772075Y-113071751D01*
X105772075Y-111897001D01*
X105949875Y-111876364D01*
X105949875Y-112333564D01*
X105996905Y-112281573D01*
X106052269Y-112243076D01*
X106113983Y-112219264D01*
X106180063Y-112211326D01*
G37*
G36*
X104537000Y-111897001D02*
G01*
X104537000Y-113071751D01*
X104379838Y-113071751D01*
X104367138Y-112968564D01*
X104321100Y-113021745D01*
X104265538Y-113060639D01*
X104202038Y-113084451D01*
X104132188Y-113092389D01*
X104036056Y-113079336D01*
X103957210Y-113040178D01*
X103895650Y-112974914D01*
X103851553Y-112886896D01*
X103825094Y-112779475D01*
X103816275Y-112652651D01*
X103826395Y-112531207D01*
X103856756Y-112424051D01*
X103905770Y-112334953D01*
X103971850Y-112267682D01*
X104053209Y-112225415D01*
X104148063Y-112211326D01*
X104265141Y-112234345D01*
X104285381Y-112371267D01*
X104194100Y-112347851D01*
X104112939Y-112366703D01*
X104053606Y-112423257D01*
X104017292Y-112518309D01*
X104005188Y-112652651D01*
X104016102Y-112786001D01*
X104048844Y-112881251D01*
X104103414Y-112938401D01*
X104179813Y-112957451D01*
X104277047Y-112927289D01*
X104359200Y-112836801D01*
X104359200Y-112441514D01*
X104285381Y-112371267D01*
X104265141Y-112234345D01*
X104359200Y-112303401D01*
X104359200Y-111876364D01*
X104537000Y-111897001D01*
G37*
G36*
X107169075Y-113074926D02*
G01*
X107130181Y-113169206D01*
X107081233Y-113248846D01*
X107022231Y-113313845D01*
X106950176Y-113363498D01*
X106862070Y-113397101D01*
X106757913Y-113414651D01*
X106735688Y-113281301D01*
X106810300Y-113265228D01*
X106869038Y-113242408D01*
X106950000Y-113176526D01*
X107003975Y-113071751D01*
X106943650Y-113071751D01*
X106661075Y-112233551D01*
X106849988Y-112233551D01*
X107061125Y-112947926D01*
X107275438Y-112233551D01*
X107458000Y-112233551D01*
X107169075Y-113074926D01*
G37*
G36*
X101762050Y-112274826D02*
G01*
X101658069Y-112296257D01*
X101594370Y-112300425D01*
X101519162Y-112301814D01*
X101585837Y-112341104D01*
X101475594Y-112410646D01*
X101421090Y-112354025D01*
X101330250Y-112335151D01*
X101256431Y-112346859D01*
X101203250Y-112381982D01*
X101171103Y-112436950D01*
X101160387Y-112508189D01*
X101171302Y-112580618D01*
X101204044Y-112635983D01*
X101257820Y-112671106D01*
X101331837Y-112682814D01*
X101401687Y-112671304D01*
X101452487Y-112636776D01*
X101483444Y-112580817D01*
X101493762Y-112505014D01*
X101475594Y-112410646D01*
X101585837Y-112341104D01*
X101633462Y-112389126D01*
X101662037Y-112447070D01*
X101671562Y-112516126D01*
X101661442Y-112593914D01*
X101631081Y-112662176D01*
X101582067Y-112718929D01*
X101515987Y-112762189D01*
X101434628Y-112789573D01*
X101339775Y-112798701D01*
X101225475Y-112784414D01*
X101198487Y-112815370D01*
X101188962Y-112854264D01*
X101214759Y-112901889D01*
X101292150Y-112917764D01*
X101438200Y-112917764D01*
X101522337Y-112925304D01*
X101596950Y-112947926D01*
X101659061Y-112983843D01*
X101705694Y-113031270D01*
X101734864Y-113087825D01*
X101744587Y-113151126D01*
X101717600Y-113262450D01*
X101636637Y-113345595D01*
X101554087Y-113383960D01*
X101450371Y-113406978D01*
X101325487Y-113414651D01*
X101199083Y-113407309D01*
X101102444Y-113385283D01*
X101032594Y-113349167D01*
X100986556Y-113299558D01*
X100960958Y-113235065D01*
X100952425Y-113154301D01*
X101111175Y-113154301D01*
X101129431Y-113229708D01*
X101193725Y-113270983D01*
X101250081Y-113281103D01*
X101327075Y-113284476D01*
X101436216Y-113276737D01*
X101509637Y-113253520D01*
X101565200Y-113162239D01*
X101521544Y-113083658D01*
X101403275Y-113055876D01*
X101258812Y-113055876D01*
X101159792Y-113044367D01*
X101088156Y-113009839D01*
X101044698Y-112957848D01*
X101030212Y-112893951D01*
X101054025Y-112811401D01*
X101122287Y-112743139D01*
X101057795Y-112699284D01*
X101013544Y-112647095D01*
X100987945Y-112584190D01*
X100979412Y-112508189D01*
X100990525Y-112425837D01*
X101023862Y-112353407D01*
X101077044Y-112293479D01*
X101147687Y-112248632D01*
X101232619Y-112220653D01*
X101328662Y-112211326D01*
X101451098Y-112207357D01*
X101545356Y-112192276D01*
X101628105Y-112165686D01*
X101716012Y-112127189D01*
X101762050Y-112274826D01*
G37*
D13*
G36*
X107987838Y-123390237D02*
G01*
X108012254Y-123485487D01*
X108074611Y-123648195D01*
X108171897Y-123787142D01*
X108303492Y-123901556D01*
X108385865Y-123951414D01*
X108539740Y-124011326D01*
X108704230Y-124036133D01*
X108868082Y-124025018D01*
X108979117Y-123994401D01*
X109122165Y-123919570D01*
X109249163Y-123812839D01*
X109352373Y-123682808D01*
X109424061Y-123538079D01*
X109441633Y-123480195D01*
X109466708Y-123379654D01*
X111626970Y-123379654D01*
X111614584Y-123554279D01*
X111570039Y-123886511D01*
X111484904Y-124210016D01*
X111360516Y-124521937D01*
X111198208Y-124819419D01*
X110999317Y-125099605D01*
X110775363Y-125349501D01*
X110511017Y-125586012D01*
X110229344Y-125783953D01*
X109929640Y-125943687D01*
X109611201Y-126065578D01*
X109273322Y-126149988D01*
X109197099Y-126163435D01*
X109153264Y-126169519D01*
X109099170Y-126174797D01*
X109031840Y-126179321D01*
X108948300Y-126183144D01*
X108845572Y-126186317D01*
X108720683Y-126188893D01*
X108570656Y-126190924D01*
X108392516Y-126192463D01*
X108183287Y-126193560D01*
X107939994Y-126194270D01*
X107659660Y-126194643D01*
X107413807Y-126194735D01*
X105821016Y-126194820D01*
X105821016Y-123379269D01*
X107987838Y-123390237D01*
G37*
X107987838Y-123390237D02*
X108012254Y-123485487D01*
X108074611Y-123648195D01*
X108171897Y-123787142D01*
X108303492Y-123901556D01*
X108385865Y-123951414D01*
X108539740Y-124011326D01*
X108704230Y-124036133D01*
X108868082Y-124025018D01*
X108979117Y-123994401D01*
X109122165Y-123919570D01*
X109249163Y-123812839D01*
X109352373Y-123682808D01*
X109424061Y-123538079D01*
X109441633Y-123480195D01*
X109466708Y-123379654D01*
X111626970Y-123379654D01*
X111614584Y-123554279D01*
X111570039Y-123886511D01*
X111484904Y-124210016D01*
X111360516Y-124521937D01*
X111198208Y-124819419D01*
X110999317Y-125099605D01*
X110775363Y-125349501D01*
X110511017Y-125586012D01*
X110229344Y-125783953D01*
X109929640Y-125943687D01*
X109611201Y-126065578D01*
X109273322Y-126149988D01*
X109197099Y-126163435D01*
X109153264Y-126169519D01*
X109099170Y-126174797D01*
X109031840Y-126179321D01*
X108948300Y-126183144D01*
X108845572Y-126186317D01*
X108720683Y-126188893D01*
X108570656Y-126190924D01*
X108392516Y-126192463D01*
X108183287Y-126193560D01*
X107939994Y-126194270D01*
X107659660Y-126194643D01*
X107413807Y-126194735D01*
X105821016Y-126194820D01*
X105821016Y-123379269D01*
X107987838Y-123390237D01*
G36*
X104814606Y-123476132D02*
G01*
X104734513Y-123531284D01*
X104658749Y-123587941D01*
X104602103Y-123634978D01*
X104596528Y-123640174D01*
X104454013Y-123800049D01*
X104327929Y-123988695D01*
X104225606Y-124193537D01*
X104156032Y-124395654D01*
X104135372Y-124506866D01*
X104123002Y-124642941D01*
X104119128Y-124788964D01*
X104123951Y-124930020D01*
X104137675Y-125051194D01*
X104146531Y-125094154D01*
X104221898Y-125319380D01*
X104331138Y-125533256D01*
X104469292Y-125729230D01*
X104631402Y-125900752D01*
X104812510Y-126041271D01*
X104904671Y-126095751D01*
X104966543Y-126129688D01*
X105000943Y-126152338D01*
X105005208Y-126164512D01*
X104976678Y-126167026D01*
X104912691Y-126160692D01*
X104810585Y-126146323D01*
X104762682Y-126139144D01*
X104301666Y-126048823D01*
X103844127Y-125918605D01*
X103395408Y-125750840D01*
X102960852Y-125547880D01*
X102545802Y-125312073D01*
X102155600Y-125045772D01*
X101996139Y-124921952D01*
X101845186Y-124793362D01*
X101680070Y-124641271D01*
X101511586Y-124476372D01*
X101350529Y-124309361D01*
X101207694Y-124150929D01*
X101155086Y-124088737D01*
X101076897Y-123991190D01*
X100992267Y-123880764D01*
X100906952Y-123765464D01*
X100826705Y-123653295D01*
X100757281Y-123552262D01*
X100704432Y-123470370D01*
X100679627Y-123427279D01*
X100654859Y-123379654D01*
X104961780Y-123379654D01*
X104814606Y-123476132D01*
G37*
X104814606Y-123476132D02*
X104734513Y-123531284D01*
X104658749Y-123587941D01*
X104602103Y-123634978D01*
X104596528Y-123640174D01*
X104454013Y-123800049D01*
X104327929Y-123988695D01*
X104225606Y-124193537D01*
X104156032Y-124395654D01*
X104135372Y-124506866D01*
X104123002Y-124642941D01*
X104119128Y-124788964D01*
X104123951Y-124930020D01*
X104137675Y-125051194D01*
X104146531Y-125094154D01*
X104221898Y-125319380D01*
X104331138Y-125533256D01*
X104469292Y-125729230D01*
X104631402Y-125900752D01*
X104812510Y-126041271D01*
X104904671Y-126095751D01*
X104966543Y-126129688D01*
X105000943Y-126152338D01*
X105005208Y-126164512D01*
X104976678Y-126167026D01*
X104912691Y-126160692D01*
X104810585Y-126146323D01*
X104762682Y-126139144D01*
X104301666Y-126048823D01*
X103844127Y-125918605D01*
X103395408Y-125750840D01*
X102960852Y-125547880D01*
X102545802Y-125312073D01*
X102155600Y-125045772D01*
X101996139Y-124921952D01*
X101845186Y-124793362D01*
X101680070Y-124641271D01*
X101511586Y-124476372D01*
X101350529Y-124309361D01*
X101207694Y-124150929D01*
X101155086Y-124088737D01*
X101076897Y-123991190D01*
X100992267Y-123880764D01*
X100906952Y-123765464D01*
X100826705Y-123653295D01*
X100757281Y-123552262D01*
X100704432Y-123470370D01*
X100679627Y-123427279D01*
X100654859Y-123379654D01*
X104961780Y-123379654D01*
X104814606Y-123476132D01*
G36*
X105651682Y-124766070D02*
G01*
X105651632Y-125042640D01*
X105651430Y-125279872D01*
X105650994Y-125480762D01*
X105650244Y-125648305D01*
X105649101Y-125785497D01*
X105647484Y-125895333D01*
X105645313Y-125980810D01*
X105642508Y-126044921D01*
X105638989Y-126090664D01*
X105634675Y-126121034D01*
X105629487Y-126139026D01*
X105623343Y-126147635D01*
X105616165Y-126149858D01*
X105614641Y-126149803D01*
X105574279Y-126145667D01*
X105508268Y-126137751D01*
X105450599Y-126130348D01*
X105222048Y-126080308D01*
X105012846Y-125995512D01*
X104825030Y-125879832D01*
X104660636Y-125737143D01*
X104521699Y-125571319D01*
X104410255Y-125386234D01*
X104328341Y-125185760D01*
X104277992Y-124973773D01*
X104261244Y-124754147D01*
X104280134Y-124530754D01*
X104336696Y-124307470D01*
X104405434Y-124141654D01*
X104500979Y-123982544D01*
X104626217Y-123828094D01*
X104770952Y-123688628D01*
X104924986Y-123574467D01*
X105016682Y-123522875D01*
X105182734Y-123453365D01*
X105350368Y-123405061D01*
X105505907Y-123381620D01*
X105551141Y-123379966D01*
X105651682Y-123379654D01*
X105651682Y-124766070D01*
G37*
X105651682Y-124766070D02*
X105651632Y-125042640D01*
X105651430Y-125279872D01*
X105650994Y-125480762D01*
X105650244Y-125648305D01*
X105649101Y-125785497D01*
X105647484Y-125895333D01*
X105645313Y-125980810D01*
X105642508Y-126044921D01*
X105638989Y-126090664D01*
X105634675Y-126121034D01*
X105629487Y-126139026D01*
X105623343Y-126147635D01*
X105616165Y-126149858D01*
X105614641Y-126149803D01*
X105574279Y-126145667D01*
X105508268Y-126137751D01*
X105450599Y-126130348D01*
X105222048Y-126080308D01*
X105012846Y-125995512D01*
X104825030Y-125879832D01*
X104660636Y-125737143D01*
X104521699Y-125571319D01*
X104410255Y-125386234D01*
X104328341Y-125185760D01*
X104277992Y-124973773D01*
X104261244Y-124754147D01*
X104280134Y-124530754D01*
X104336696Y-124307470D01*
X104405434Y-124141654D01*
X104500979Y-123982544D01*
X104626217Y-123828094D01*
X104770952Y-123688628D01*
X104924986Y-123574467D01*
X105016682Y-123522875D01*
X105182734Y-123453365D01*
X105350368Y-123405061D01*
X105505907Y-123381620D01*
X105551141Y-123379966D01*
X105651682Y-123379654D01*
X105651682Y-124766070D01*
G36*
X108861870Y-123380780D02*
G01*
X108963169Y-123384281D01*
X109027302Y-123390336D01*
X109056823Y-123399126D01*
X109059516Y-123403613D01*
X109042793Y-123456069D01*
X108999635Y-123516849D01*
X108940558Y-123573622D01*
X108882701Y-123610985D01*
X108767090Y-123647915D01*
X108649779Y-123644823D01*
X108625599Y-123639625D01*
X108564910Y-123611851D01*
X108499785Y-123562349D01*
X108440664Y-123501771D01*
X108397989Y-123440768D01*
X108382182Y-123391288D01*
X108402168Y-123387360D01*
X108457401Y-123383998D01*
X108540798Y-123381446D01*
X108645274Y-123379947D01*
X108720849Y-123379654D01*
X108861870Y-123380780D01*
G37*
X108861870Y-123380780D02*
X108963169Y-123384281D01*
X109027302Y-123390336D01*
X109056823Y-123399126D01*
X109059516Y-123403613D01*
X109042793Y-123456069D01*
X108999635Y-123516849D01*
X108940558Y-123573622D01*
X108882701Y-123610985D01*
X108767090Y-123647915D01*
X108649779Y-123644823D01*
X108625599Y-123639625D01*
X108564910Y-123611851D01*
X108499785Y-123562349D01*
X108440664Y-123501771D01*
X108397989Y-123440768D01*
X108382182Y-123391288D01*
X108402168Y-123387360D01*
X108457401Y-123383998D01*
X108540798Y-123381446D01*
X108645274Y-123379947D01*
X108720849Y-123379654D01*
X108861870Y-123380780D01*
G36*
X105630516Y-123231487D02*
G01*
X100557475Y-123231487D01*
X100439124Y-122993362D01*
X100238841Y-122546946D01*
X100077779Y-122093418D01*
X99956669Y-121635544D01*
X99876244Y-121176091D01*
X99837240Y-120717945D01*
X99824471Y-120395154D01*
X105630516Y-120395154D01*
X105630516Y-123231487D01*
G37*
X105630516Y-123231487D02*
X100557475Y-123231487D01*
X100439124Y-122993362D01*
X100238841Y-122546946D01*
X100077779Y-122093418D01*
X99956669Y-121635544D01*
X99876244Y-121176091D01*
X99837240Y-120717945D01*
X99824471Y-120395154D01*
X105630516Y-120395154D01*
X105630516Y-123231487D01*
G36*
X107466724Y-120400708D02*
G01*
X107769788Y-120402152D01*
X108033656Y-120403513D01*
X108261464Y-120404885D01*
X108456350Y-120406363D01*
X108621450Y-120408038D01*
X108759901Y-120410006D01*
X108874839Y-120412359D01*
X108969402Y-120415190D01*
X109046726Y-120418595D01*
X109109947Y-120422665D01*
X109162204Y-120427495D01*
X109206632Y-120433178D01*
X109246368Y-120439807D01*
X109284549Y-120447477D01*
X109323394Y-120456073D01*
X109669346Y-120554764D01*
X109994264Y-120689080D01*
X110296256Y-120857542D01*
X110573434Y-121058674D01*
X110823907Y-121290996D01*
X111045785Y-121553031D01*
X111237177Y-121843302D01*
X111336318Y-122029838D01*
X111417753Y-122216696D01*
X111489322Y-122419497D01*
X111548137Y-122627198D01*
X111591312Y-122828755D01*
X111615962Y-123013124D01*
X111620682Y-123117843D01*
X111620682Y-123231487D01*
X109466393Y-123231487D01*
X109451669Y-123152112D01*
X109420274Y-123051994D01*
X109365692Y-122941677D01*
X109297528Y-122837737D01*
X109225384Y-122756752D01*
X109219751Y-122751780D01*
X109070096Y-122647749D01*
X108910648Y-122583735D01*
X108744956Y-122560280D01*
X108576569Y-122577925D01*
X108423322Y-122630461D01*
X108286012Y-122714409D01*
X108167150Y-122827415D01*
X108074084Y-122960497D01*
X108014164Y-123104676D01*
X108005216Y-123141442D01*
X107988709Y-123220904D01*
X106904862Y-123226387D01*
X105821016Y-123231871D01*
X105821016Y-120393001D01*
X107466724Y-120400708D01*
G37*
X107466724Y-120400708D02*
X107769788Y-120402152D01*
X108033656Y-120403513D01*
X108261464Y-120404885D01*
X108456350Y-120406363D01*
X108621450Y-120408038D01*
X108759901Y-120410006D01*
X108874839Y-120412359D01*
X108969402Y-120415190D01*
X109046726Y-120418595D01*
X109109947Y-120422665D01*
X109162204Y-120427495D01*
X109206632Y-120433178D01*
X109246368Y-120439807D01*
X109284549Y-120447477D01*
X109323394Y-120456073D01*
X109669346Y-120554764D01*
X109994264Y-120689080D01*
X110296256Y-120857542D01*
X110573434Y-121058674D01*
X110823907Y-121290996D01*
X111045785Y-121553031D01*
X111237177Y-121843302D01*
X111336318Y-122029838D01*
X111417753Y-122216696D01*
X111489322Y-122419497D01*
X111548137Y-122627198D01*
X111591312Y-122828755D01*
X111615962Y-123013124D01*
X111620682Y-123117843D01*
X111620682Y-123231487D01*
X109466393Y-123231487D01*
X109451669Y-123152112D01*
X109420274Y-123051994D01*
X109365692Y-122941677D01*
X109297528Y-122837737D01*
X109225384Y-122756752D01*
X109219751Y-122751780D01*
X109070096Y-122647749D01*
X108910648Y-122583735D01*
X108744956Y-122560280D01*
X108576569Y-122577925D01*
X108423322Y-122630461D01*
X108286012Y-122714409D01*
X108167150Y-122827415D01*
X108074084Y-122960497D01*
X108014164Y-123104676D01*
X108005216Y-123141442D01*
X107988709Y-123220904D01*
X106904862Y-123226387D01*
X105821016Y-123231871D01*
X105821016Y-120393001D01*
X107466724Y-120400708D01*
G36*
X108846791Y-122972642D02*
G01*
X108941661Y-123023784D01*
X109005505Y-123090588D01*
X109041405Y-123139782D01*
X109060406Y-123175955D01*
X109058452Y-123201105D01*
X109031482Y-123217233D01*
X108975439Y-123226336D01*
X108886263Y-123230413D01*
X108759898Y-123231463D01*
X108719422Y-123231487D01*
X108379329Y-123231487D01*
X108394116Y-123183862D01*
X108445862Y-123083624D01*
X108527806Y-123010090D01*
X108634707Y-122966805D01*
X108730391Y-122956320D01*
X108846791Y-122972642D01*
G37*
X108846791Y-122972642D02*
X108941661Y-123023784D01*
X109005505Y-123090588D01*
X109041405Y-123139782D01*
X109060406Y-123175955D01*
X109058452Y-123201105D01*
X109031482Y-123217233D01*
X108975439Y-123226336D01*
X108886263Y-123230413D01*
X108759898Y-123231463D01*
X108719422Y-123231487D01*
X108379329Y-123231487D01*
X108394116Y-123183862D01*
X108445862Y-123083624D01*
X108527806Y-123010090D01*
X108634707Y-122966805D01*
X108730391Y-122956320D01*
X108846791Y-122972642D01*
G36*
X102646016Y-115039987D02*
G01*
X102595871Y-115039987D01*
X102552761Y-115043499D01*
X102480888Y-115052871D01*
X102393132Y-115066355D01*
X102357746Y-115072289D01*
X102059542Y-115143424D01*
X101782705Y-115248788D01*
X101528551Y-115385327D01*
X101298393Y-115549988D01*
X101093546Y-115739717D01*
X100915323Y-115951461D01*
X100765041Y-116182166D01*
X100644013Y-116428779D01*
X100553552Y-116688246D01*
X100494975Y-116957514D01*
X100469595Y-117233529D01*
X100478726Y-117513238D01*
X100523682Y-117793587D01*
X100605779Y-118071522D01*
X100726331Y-118343991D01*
X100855509Y-118562259D01*
X100942373Y-118678338D01*
X101053429Y-118805396D01*
X101178024Y-118932761D01*
X101305503Y-119049760D01*
X101425209Y-119145720D01*
X101467084Y-119174872D01*
X101684273Y-119300729D01*
X101917865Y-119404844D01*
X102156475Y-119483100D01*
X102388719Y-119531381D01*
X102481974Y-119541758D01*
X102646016Y-119554761D01*
X102646016Y-120204654D01*
X102577224Y-120201976D01*
X102520485Y-120197870D01*
X102440018Y-120189783D01*
X102360266Y-120180335D01*
X102019419Y-120116074D01*
X101694034Y-120013863D01*
X101386532Y-119876023D01*
X101099332Y-119704879D01*
X100834855Y-119502753D01*
X100595523Y-119271969D01*
X100383755Y-119014851D01*
X100201973Y-118733722D01*
X100052597Y-118430904D01*
X99938048Y-118108722D01*
X99863131Y-117783589D01*
X99845356Y-117640041D01*
X99835003Y-117469065D01*
X99832085Y-117284915D01*
X99836614Y-117101843D01*
X99848605Y-116934104D01*
X99862234Y-116828570D01*
X99938530Y-116486365D01*
X100052228Y-116163752D01*
X100203691Y-115860028D01*
X100393281Y-115574489D01*
X100621362Y-115306430D01*
X100676168Y-115250306D01*
X100937077Y-115017573D01*
X101218022Y-114820142D01*
X101516147Y-114659350D01*
X101828594Y-114536531D01*
X102152510Y-114453019D01*
X102471391Y-114411085D01*
X102646016Y-114398699D01*
X102646016Y-115039987D01*
G37*
X102646016Y-115039987D02*
X102595871Y-115039987D01*
X102552761Y-115043499D01*
X102480888Y-115052871D01*
X102393132Y-115066355D01*
X102357746Y-115072289D01*
X102059542Y-115143424D01*
X101782705Y-115248788D01*
X101528551Y-115385327D01*
X101298393Y-115549988D01*
X101093546Y-115739717D01*
X100915323Y-115951461D01*
X100765041Y-116182166D01*
X100644013Y-116428779D01*
X100553552Y-116688246D01*
X100494975Y-116957514D01*
X100469595Y-117233529D01*
X100478726Y-117513238D01*
X100523682Y-117793587D01*
X100605779Y-118071522D01*
X100726331Y-118343991D01*
X100855509Y-118562259D01*
X100942373Y-118678338D01*
X101053429Y-118805396D01*
X101178024Y-118932761D01*
X101305503Y-119049760D01*
X101425209Y-119145720D01*
X101467084Y-119174872D01*
X101684273Y-119300729D01*
X101917865Y-119404844D01*
X102156475Y-119483100D01*
X102388719Y-119531381D01*
X102481974Y-119541758D01*
X102646016Y-119554761D01*
X102646016Y-120204654D01*
X102577224Y-120201976D01*
X102520485Y-120197870D01*
X102440018Y-120189783D01*
X102360266Y-120180335D01*
X102019419Y-120116074D01*
X101694034Y-120013863D01*
X101386532Y-119876023D01*
X101099332Y-119704879D01*
X100834855Y-119502753D01*
X100595523Y-119271969D01*
X100383755Y-119014851D01*
X100201973Y-118733722D01*
X100052597Y-118430904D01*
X99938048Y-118108722D01*
X99863131Y-117783589D01*
X99845356Y-117640041D01*
X99835003Y-117469065D01*
X99832085Y-117284915D01*
X99836614Y-117101843D01*
X99848605Y-116934104D01*
X99862234Y-116828570D01*
X99938530Y-116486365D01*
X100052228Y-116163752D01*
X100203691Y-115860028D01*
X100393281Y-115574489D01*
X100621362Y-115306430D01*
X100676168Y-115250306D01*
X100937077Y-115017573D01*
X101218022Y-114820142D01*
X101516147Y-114659350D01*
X101828594Y-114536531D01*
X102152510Y-114453019D01*
X102471391Y-114411085D01*
X102646016Y-114398699D01*
X102646016Y-115039987D01*
G36*
X105630516Y-120204654D02*
G01*
X102794182Y-120204654D01*
X102794182Y-119554775D01*
X102968807Y-119542183D01*
X103220846Y-119504405D01*
X103476259Y-119429157D01*
X103727761Y-119319936D01*
X103968068Y-119180243D01*
X104189894Y-119013577D01*
X104319976Y-118893186D01*
X104520796Y-118662313D01*
X104686438Y-118411840D01*
X104816225Y-118145536D01*
X104909482Y-117867173D01*
X104965535Y-117580521D01*
X104983709Y-117289351D01*
X104963329Y-116997434D01*
X104903720Y-116708540D01*
X104804207Y-116426439D01*
X104773631Y-116358722D01*
X104690104Y-116193014D01*
X104605658Y-116052389D01*
X104510299Y-115922385D01*
X104394031Y-115788540D01*
X104340062Y-115731344D01*
X104114317Y-115525941D01*
X103865081Y-115353853D01*
X103596503Y-115217110D01*
X103312734Y-115117742D01*
X103017922Y-115057778D01*
X102946173Y-115049494D01*
X102794182Y-115034517D01*
X102794182Y-114404987D01*
X105630516Y-114404987D01*
X105630516Y-120204654D01*
G37*
X105630516Y-120204654D02*
X102794182Y-120204654D01*
X102794182Y-119554775D01*
X102968807Y-119542183D01*
X103220846Y-119504405D01*
X103476259Y-119429157D01*
X103727761Y-119319936D01*
X103968068Y-119180243D01*
X104189894Y-119013577D01*
X104319976Y-118893186D01*
X104520796Y-118662313D01*
X104686438Y-118411840D01*
X104816225Y-118145536D01*
X104909482Y-117867173D01*
X104965535Y-117580521D01*
X104983709Y-117289351D01*
X104963329Y-116997434D01*
X104903720Y-116708540D01*
X104804207Y-116426439D01*
X104773631Y-116358722D01*
X104690104Y-116193014D01*
X104605658Y-116052389D01*
X104510299Y-115922385D01*
X104394031Y-115788540D01*
X104340062Y-115731344D01*
X104114317Y-115525941D01*
X103865081Y-115353853D01*
X103596503Y-115217110D01*
X103312734Y-115117742D01*
X103017922Y-115057778D01*
X102946173Y-115049494D01*
X102794182Y-115034517D01*
X102794182Y-114404987D01*
X105630516Y-114404987D01*
X105630516Y-120204654D01*
G36*
X106143807Y-114411378D02*
G01*
X106591150Y-114449545D01*
X107040675Y-114527634D01*
X107487680Y-114643797D01*
X107927463Y-114796187D01*
X108355321Y-114982957D01*
X108766552Y-115202258D01*
X109156452Y-115452243D01*
X109520319Y-115731064D01*
X109535766Y-115744057D01*
X109667676Y-115860683D01*
X109812825Y-115997905D01*
X109962716Y-116146992D01*
X110108855Y-116299212D01*
X110242747Y-116445834D01*
X110355896Y-116578127D01*
X110395321Y-116627487D01*
X110675509Y-117020432D01*
X110921960Y-117433932D01*
X111133351Y-117864440D01*
X111308358Y-118308411D01*
X111445657Y-118762298D01*
X111543925Y-119222557D01*
X111601837Y-119685642D01*
X111614316Y-119892445D01*
X111626832Y-120204654D01*
X105821016Y-120204654D01*
X105821016Y-118787565D01*
X106672686Y-118787565D01*
X106704536Y-118941952D01*
X106706318Y-118947174D01*
X106776960Y-119089995D01*
X106879379Y-119205803D01*
X107010302Y-119291324D01*
X107078495Y-119319351D01*
X107205560Y-119351202D01*
X107324338Y-119351811D01*
X107450427Y-119322373D01*
X107581888Y-119259628D01*
X107692066Y-119167221D01*
X107777646Y-119052282D01*
X107835314Y-118921940D01*
X107861754Y-118783327D01*
X107861320Y-118775834D01*
X109591283Y-118775834D01*
X109616105Y-118924219D01*
X109668289Y-119045327D01*
X109761581Y-119170706D01*
X109878447Y-119264639D01*
X110012402Y-119325139D01*
X110156963Y-119350224D01*
X110305646Y-119337907D01*
X110451968Y-119286206D01*
X110453209Y-119285579D01*
X110572605Y-119203897D01*
X110675664Y-119092056D01*
X110725601Y-119013743D01*
X110750068Y-118939820D01*
X110762966Y-118839812D01*
X110764403Y-118728324D01*
X110754488Y-118619963D01*
X110733329Y-118529333D01*
X110721801Y-118501439D01*
X110636270Y-118372135D01*
X110527114Y-118273606D01*
X110400725Y-118206776D01*
X110263496Y-118172568D01*
X110121818Y-118171905D01*
X109982084Y-118205712D01*
X109850687Y-118274913D01*
X109751304Y-118361204D01*
X109659642Y-118488074D01*
X109606048Y-118628368D01*
X109591283Y-118775834D01*
X107861320Y-118775834D01*
X107853652Y-118643572D01*
X107818136Y-118531411D01*
X107735953Y-118395473D01*
X107630230Y-118290018D01*
X107507009Y-118216041D01*
X107372330Y-118174536D01*
X107232237Y-118166497D01*
X107092770Y-118192920D01*
X106959971Y-118254799D01*
X106839882Y-118353128D01*
X106826019Y-118368084D01*
X106733811Y-118498777D01*
X106682573Y-118639222D01*
X106672686Y-118787565D01*
X105821016Y-118787565D01*
X105821016Y-115783352D01*
X106677144Y-115783352D01*
X106681796Y-115931490D01*
X106696535Y-115996236D01*
X106758930Y-116142288D01*
X106850345Y-116261983D01*
X106965158Y-116352448D01*
X107097748Y-116410814D01*
X107242494Y-116434212D01*
X107393776Y-116419769D01*
X107477199Y-116394856D01*
X107605013Y-116326226D01*
X107710648Y-116228438D01*
X107790887Y-116108935D01*
X107842511Y-115975160D01*
X107862303Y-115834556D01*
X107847045Y-115694568D01*
X107817215Y-115608329D01*
X107749103Y-115497379D01*
X107654332Y-115394995D01*
X107547415Y-115316259D01*
X107524230Y-115303868D01*
X107444724Y-115278263D01*
X107341672Y-115263859D01*
X107229679Y-115260764D01*
X107123351Y-115269087D01*
X107037294Y-115288935D01*
X107011926Y-115300068D01*
X106880800Y-115392188D01*
X106779435Y-115507545D01*
X106710621Y-115639985D01*
X106677144Y-115783352D01*
X105821016Y-115783352D01*
X105821016Y-114398609D01*
X106143807Y-114411378D01*
G37*
X106143807Y-114411378D02*
X106591150Y-114449545D01*
X107040675Y-114527634D01*
X107487680Y-114643797D01*
X107927463Y-114796187D01*
X108355321Y-114982957D01*
X108766552Y-115202258D01*
X109156452Y-115452243D01*
X109520319Y-115731064D01*
X109535766Y-115744057D01*
X109667676Y-115860683D01*
X109812825Y-115997905D01*
X109962716Y-116146992D01*
X110108855Y-116299212D01*
X110242747Y-116445834D01*
X110355896Y-116578127D01*
X110395321Y-116627487D01*
X110675509Y-117020432D01*
X110921960Y-117433932D01*
X111133351Y-117864440D01*
X111308358Y-118308411D01*
X111445657Y-118762298D01*
X111543925Y-119222557D01*
X111601837Y-119685642D01*
X111614316Y-119892445D01*
X111626832Y-120204654D01*
X105821016Y-120204654D01*
X105821016Y-118787565D01*
X106672686Y-118787565D01*
X106704536Y-118941952D01*
X106706318Y-118947174D01*
X106776960Y-119089995D01*
X106879379Y-119205803D01*
X107010302Y-119291324D01*
X107078495Y-119319351D01*
X107205560Y-119351202D01*
X107324338Y-119351811D01*
X107450427Y-119322373D01*
X107581888Y-119259628D01*
X107692066Y-119167221D01*
X107777646Y-119052282D01*
X107835314Y-118921940D01*
X107861754Y-118783327D01*
X107861320Y-118775834D01*
X109591283Y-118775834D01*
X109616105Y-118924219D01*
X109668289Y-119045327D01*
X109761581Y-119170706D01*
X109878447Y-119264639D01*
X110012402Y-119325139D01*
X110156963Y-119350224D01*
X110305646Y-119337907D01*
X110451968Y-119286206D01*
X110453209Y-119285579D01*
X110572605Y-119203897D01*
X110675664Y-119092056D01*
X110725601Y-119013743D01*
X110750068Y-118939820D01*
X110762966Y-118839812D01*
X110764403Y-118728324D01*
X110754488Y-118619963D01*
X110733329Y-118529333D01*
X110721801Y-118501439D01*
X110636270Y-118372135D01*
X110527114Y-118273606D01*
X110400725Y-118206776D01*
X110263496Y-118172568D01*
X110121818Y-118171905D01*
X109982084Y-118205712D01*
X109850687Y-118274913D01*
X109751304Y-118361204D01*
X109659642Y-118488074D01*
X109606048Y-118628368D01*
X109591283Y-118775834D01*
X107861320Y-118775834D01*
X107853652Y-118643572D01*
X107818136Y-118531411D01*
X107735953Y-118395473D01*
X107630230Y-118290018D01*
X107507009Y-118216041D01*
X107372330Y-118174536D01*
X107232237Y-118166497D01*
X107092770Y-118192920D01*
X106959971Y-118254799D01*
X106839882Y-118353128D01*
X106826019Y-118368084D01*
X106733811Y-118498777D01*
X106682573Y-118639222D01*
X106672686Y-118787565D01*
X105821016Y-118787565D01*
X105821016Y-115783352D01*
X106677144Y-115783352D01*
X106681796Y-115931490D01*
X106696535Y-115996236D01*
X106758930Y-116142288D01*
X106850345Y-116261983D01*
X106965158Y-116352448D01*
X107097748Y-116410814D01*
X107242494Y-116434212D01*
X107393776Y-116419769D01*
X107477199Y-116394856D01*
X107605013Y-116326226D01*
X107710648Y-116228438D01*
X107790887Y-116108935D01*
X107842511Y-115975160D01*
X107862303Y-115834556D01*
X107847045Y-115694568D01*
X107817215Y-115608329D01*
X107749103Y-115497379D01*
X107654332Y-115394995D01*
X107547415Y-115316259D01*
X107524230Y-115303868D01*
X107444724Y-115278263D01*
X107341672Y-115263859D01*
X107229679Y-115260764D01*
X107123351Y-115269087D01*
X107037294Y-115288935D01*
X107011926Y-115300068D01*
X106880800Y-115392188D01*
X106779435Y-115507545D01*
X106710621Y-115639985D01*
X106677144Y-115783352D01*
X105821016Y-115783352D01*
X105821016Y-114398609D01*
X106143807Y-114411378D01*
G36*
X102646016Y-115873147D02*
G01*
X102645795Y-116065075D01*
X102645014Y-116218719D01*
X102643491Y-116338131D01*
X102641043Y-116427357D01*
X102637490Y-116490448D01*
X102632650Y-116531453D01*
X102626342Y-116554420D01*
X102618384Y-116563399D01*
X102615060Y-116563987D01*
X102579647Y-116571061D01*
X102519301Y-116589413D01*
X102461601Y-116609760D01*
X102340755Y-116673405D01*
X102224319Y-116767722D01*
X102123366Y-116881575D01*
X102048966Y-117003829D01*
X102033570Y-117040237D01*
X102007545Y-117119797D01*
X101994585Y-117193709D01*
X101992219Y-117280756D01*
X101994386Y-117338046D01*
X102001990Y-117435202D01*
X102016581Y-117509023D01*
X102043299Y-117578468D01*
X102077598Y-117644963D01*
X102179226Y-117789796D01*
X102306987Y-117904027D01*
X102456321Y-117983848D01*
X102502902Y-117999983D01*
X102635432Y-118040661D01*
X102641013Y-118731074D01*
X102641880Y-118897056D01*
X102641756Y-119048537D01*
X102640718Y-119180581D01*
X102638842Y-119288255D01*
X102636204Y-119366622D01*
X102632879Y-119410748D01*
X102630430Y-119418741D01*
X102602685Y-119415055D01*
X102545092Y-119407971D01*
X102469852Y-119398989D01*
X102466099Y-119398546D01*
X102294214Y-119368278D01*
X102108082Y-119318684D01*
X101927427Y-119255695D01*
X101793246Y-119196222D01*
X101529620Y-119040958D01*
X101295949Y-118856043D01*
X101093229Y-118642699D01*
X100922451Y-118402151D01*
X100784610Y-118135622D01*
X100680700Y-117844335D01*
X100672933Y-117816534D01*
X100646380Y-117682693D01*
X100629736Y-117520214D01*
X100623000Y-117341614D01*
X100626174Y-117159413D01*
X100639257Y-116986129D01*
X100662251Y-116834281D01*
X100672895Y-116787508D01*
X100716586Y-116645251D01*
X100777163Y-116488499D01*
X100847957Y-116332263D01*
X100922299Y-116191551D01*
X100975316Y-116106772D01*
X101054322Y-116004307D01*
X101156844Y-115889146D01*
X101271636Y-115772752D01*
X101387452Y-115666591D01*
X101482042Y-115590177D01*
X101690341Y-115457803D01*
X101925481Y-115346732D01*
X102175403Y-115261571D01*
X102428043Y-115206930D01*
X102513724Y-115195987D01*
X102646016Y-115182307D01*
X102646016Y-115873147D01*
G37*
X102646016Y-115873147D02*
X102645795Y-116065075D01*
X102645014Y-116218719D01*
X102643491Y-116338131D01*
X102641043Y-116427357D01*
X102637490Y-116490448D01*
X102632650Y-116531453D01*
X102626342Y-116554420D01*
X102618384Y-116563399D01*
X102615060Y-116563987D01*
X102579647Y-116571061D01*
X102519301Y-116589413D01*
X102461601Y-116609760D01*
X102340755Y-116673405D01*
X102224319Y-116767722D01*
X102123366Y-116881575D01*
X102048966Y-117003829D01*
X102033570Y-117040237D01*
X102007545Y-117119797D01*
X101994585Y-117193709D01*
X101992219Y-117280756D01*
X101994386Y-117338046D01*
X102001990Y-117435202D01*
X102016581Y-117509023D01*
X102043299Y-117578468D01*
X102077598Y-117644963D01*
X102179226Y-117789796D01*
X102306987Y-117904027D01*
X102456321Y-117983848D01*
X102502902Y-117999983D01*
X102635432Y-118040661D01*
X102641013Y-118731074D01*
X102641880Y-118897056D01*
X102641756Y-119048537D01*
X102640718Y-119180581D01*
X102638842Y-119288255D01*
X102636204Y-119366622D01*
X102632879Y-119410748D01*
X102630430Y-119418741D01*
X102602685Y-119415055D01*
X102545092Y-119407971D01*
X102469852Y-119398989D01*
X102466099Y-119398546D01*
X102294214Y-119368278D01*
X102108082Y-119318684D01*
X101927427Y-119255695D01*
X101793246Y-119196222D01*
X101529620Y-119040958D01*
X101295949Y-118856043D01*
X101093229Y-118642699D01*
X100922451Y-118402151D01*
X100784610Y-118135622D01*
X100680700Y-117844335D01*
X100672933Y-117816534D01*
X100646380Y-117682693D01*
X100629736Y-117520214D01*
X100623000Y-117341614D01*
X100626174Y-117159413D01*
X100639257Y-116986129D01*
X100662251Y-116834281D01*
X100672895Y-116787508D01*
X100716586Y-116645251D01*
X100777163Y-116488499D01*
X100847957Y-116332263D01*
X100922299Y-116191551D01*
X100975316Y-116106772D01*
X101054322Y-116004307D01*
X101156844Y-115889146D01*
X101271636Y-115772752D01*
X101387452Y-115666591D01*
X101482042Y-115590177D01*
X101690341Y-115457803D01*
X101925481Y-115346732D01*
X102175403Y-115261571D01*
X102428043Y-115206930D01*
X102513724Y-115195987D01*
X102646016Y-115182307D01*
X102646016Y-115873147D01*
G36*
X102944993Y-115197544D02*
G01*
X103230364Y-115246359D01*
X103503068Y-115333663D01*
X103759735Y-115456648D01*
X103996997Y-115612503D01*
X104211484Y-115798419D01*
X104399829Y-116011586D01*
X104558663Y-116249195D01*
X104684616Y-116508436D01*
X104752513Y-116705049D01*
X104816019Y-116997420D01*
X104838364Y-117289708D01*
X104820488Y-117578400D01*
X104763328Y-117859984D01*
X104667824Y-118130948D01*
X104534913Y-118387779D01*
X104365534Y-118626964D01*
X104187543Y-118819598D01*
X103979435Y-118995515D01*
X103752927Y-119143763D01*
X103514890Y-119260986D01*
X103272192Y-119343829D01*
X103031703Y-119388938D01*
X103019161Y-119390211D01*
X102941211Y-119398600D01*
X102874224Y-119407244D01*
X102841517Y-119412615D01*
X102793602Y-119422439D01*
X102804766Y-118036953D01*
X102884227Y-118020449D01*
X103032494Y-117969045D01*
X103170298Y-117881791D01*
X103289956Y-117765079D01*
X103383786Y-117625300D01*
X103400901Y-117590570D01*
X103447900Y-117440924D01*
X103460472Y-117278270D01*
X103438418Y-117114516D01*
X103410441Y-117025669D01*
X103339040Y-116894117D01*
X103236132Y-116774531D01*
X103111347Y-116674996D01*
X102974314Y-116603598D01*
X102872388Y-116573947D01*
X102794182Y-116559276D01*
X102794182Y-115182684D01*
X102944993Y-115197544D01*
G37*
X102944993Y-115197544D02*
X103230364Y-115246359D01*
X103503068Y-115333663D01*
X103759735Y-115456648D01*
X103996997Y-115612503D01*
X104211484Y-115798419D01*
X104399829Y-116011586D01*
X104558663Y-116249195D01*
X104684616Y-116508436D01*
X104752513Y-116705049D01*
X104816019Y-116997420D01*
X104838364Y-117289708D01*
X104820488Y-117578400D01*
X104763328Y-117859984D01*
X104667824Y-118130948D01*
X104534913Y-118387779D01*
X104365534Y-118626964D01*
X104187543Y-118819598D01*
X103979435Y-118995515D01*
X103752927Y-119143763D01*
X103514890Y-119260986D01*
X103272192Y-119343829D01*
X103031703Y-119388938D01*
X103019161Y-119390211D01*
X102941211Y-119398600D01*
X102874224Y-119407244D01*
X102841517Y-119412615D01*
X102793602Y-119422439D01*
X102804766Y-118036953D01*
X102884227Y-118020449D01*
X103032494Y-117969045D01*
X103170298Y-117881791D01*
X103289956Y-117765079D01*
X103383786Y-117625300D01*
X103400901Y-117590570D01*
X103447900Y-117440924D01*
X103460472Y-117278270D01*
X103438418Y-117114516D01*
X103410441Y-117025669D01*
X103339040Y-116894117D01*
X103236132Y-116774531D01*
X103111347Y-116674996D01*
X102974314Y-116603598D01*
X102872388Y-116573947D01*
X102794182Y-116559276D01*
X102794182Y-115182684D01*
X102944993Y-115197544D01*
G36*
X102632032Y-116982078D02*
G01*
X102639199Y-117031556D01*
X102643736Y-117117142D01*
X102645825Y-117241390D01*
X102646016Y-117304820D01*
X102645079Y-117419160D01*
X102642490Y-117517002D01*
X102638581Y-117591264D01*
X102633684Y-117634864D01*
X102630141Y-117643408D01*
X102603081Y-117633257D01*
X102557124Y-117608403D01*
X102548407Y-117603169D01*
X102457307Y-117525044D01*
X102399140Y-117426369D01*
X102376394Y-117315436D01*
X102391554Y-117200536D01*
X102412025Y-117148460D01*
X102456275Y-117080584D01*
X102514832Y-117020796D01*
X102575897Y-116979340D01*
X102622056Y-116966154D01*
X102632032Y-116982078D01*
G37*
X102632032Y-116982078D02*
X102639199Y-117031556D01*
X102643736Y-117117142D01*
X102645825Y-117241390D01*
X102646016Y-117304820D01*
X102645079Y-117419160D01*
X102642490Y-117517002D01*
X102638581Y-117591264D01*
X102633684Y-117634864D01*
X102630141Y-117643408D01*
X102603081Y-117633257D01*
X102557124Y-117608403D01*
X102548407Y-117603169D01*
X102457307Y-117525044D01*
X102399140Y-117426369D01*
X102376394Y-117315436D01*
X102391554Y-117200536D01*
X102412025Y-117148460D01*
X102456275Y-117080584D01*
X102514832Y-117020796D01*
X102575897Y-116979340D01*
X102622056Y-116966154D01*
X102632032Y-116982078D01*
G36*
X102875056Y-116977381D02*
G01*
X102920584Y-117009173D01*
X102935081Y-117020164D01*
X103015898Y-117102800D01*
X103059327Y-117201708D01*
X103069349Y-117295278D01*
X103051682Y-117417779D01*
X103001045Y-117519343D01*
X102920983Y-117594730D01*
X102841807Y-117631553D01*
X102794182Y-117646340D01*
X102794182Y-117306247D01*
X102794763Y-117169284D01*
X102797838Y-117070593D01*
X102805406Y-117006115D01*
X102819466Y-116971793D01*
X102842016Y-116963568D01*
X102875056Y-116977381D01*
G37*
X102875056Y-116977381D02*
X102920584Y-117009173D01*
X102935081Y-117020164D01*
X103015898Y-117102800D01*
X103059327Y-117201708D01*
X103069349Y-117295278D01*
X103051682Y-117417779D01*
X103001045Y-117519343D01*
X102920983Y-117594730D01*
X102841807Y-117631553D01*
X102794182Y-117646340D01*
X102794182Y-117306247D01*
X102794763Y-117169284D01*
X102797838Y-117070593D01*
X102805406Y-117006115D01*
X102819466Y-116971793D01*
X102842016Y-116963568D01*
X102875056Y-116977381D01*
%LPC*%
D14*
X177551080Y-71074280D02*
X119250460Y-71074280D01*
X177550460Y-71074280D02*
X177550460Y-129367280D01*
X177551080Y-129372360D02*
X119249500Y-129368320D01*
X90158820Y-131414520D02*
X90158820Y-69032120D01*
X92919800Y-66255900D02*
X181737000Y-66255900D01*
X184533799Y-131414520D02*
X184533799Y-69032120D01*
X92917260Y-134190740D02*
X181737000Y-134162779D01*
X119249500Y-71074280D02*
X119249500Y-129368320D01*
D15*
X181787255Y-131465320D03*
D16*
X181787255Y-131465320D03*
D15*
X92858819Y-131490720D03*
D16*
X92858819Y-131490720D03*
D15*
X181833800Y-68955920D03*
D16*
X181833800Y-68955920D03*
D15*
X92869000Y-68955920D03*
D16*
X92869000Y-68955920D03*
M02*
