M48
; DRILL file {KiCad (5.1.10-1-10_14)} date Monday, September 27, 2021 at 01:36:10 AM
; FORMAT={-:-/ absolute / metric / decimal}
; #@! TF.CreationDate,2021-09-27T01:36:10+08:00
; #@! TF.GenerationSoftware,Kicad,Pcbnew,(5.1.10-1-10_14)
; #@! TF.FileFunction,Plated,1,2,PTH
FMAT,2
METRIC
T1C0.400
T2C0.800
T3C1.092
T4C3.200
%
G90
G05
T1
X153.467Y-75.565
X153.518Y-94.59
X153.543Y-113.716
X172.695Y-75.667
X172.695Y-94.793
X172.695Y-113.716
X191.618Y-75.565
X191.668Y-94.666
X191.719Y-113.741
T2
X116.351Y-111.204
X116.623Y-105.285
X116.623Y-124.321
X119.943Y-114.796
X120.216Y-101.693
X120.216Y-120.729
X122.805Y-111.204
X122.973Y-105.285
X122.973Y-124.321
X126.397Y-114.796
X126.566Y-101.693
X126.566Y-120.729
X129.135Y-111.204
X129.323Y-105.285
X129.323Y-124.321
X132.727Y-114.796
X132.916Y-101.693
X132.916Y-120.729
T3
X116.815Y-67.818
X116.815Y-72.898
X116.815Y-77.978
X116.815Y-83.058
X116.815Y-88.138
X116.815Y-93.218
X117.272Y-70.358
X117.272Y-75.438
X117.272Y-80.518
X117.272Y-85.598
X117.272Y-90.678
X117.272Y-95.758
X119.583Y-95.987
X122.123Y-95.529
X124.663Y-95.987
X127.203Y-95.529
X129.743Y-95.987
X132.055Y-70.358
X132.055Y-75.438
X132.055Y-80.518
X132.055Y-85.598
X132.055Y-90.678
X132.055Y-95.758
X132.512Y-67.818
X132.512Y-72.898
X132.512Y-77.978
X132.512Y-83.058
X132.512Y-88.138
X132.512Y-93.218
T4
X108.795Y-66.04
X108.795Y-128.575
X197.713Y-128.549
X197.76Y-66.04
T0
M30
