M48
; DRILL file {KiCad (5.1.10-1-10_14)} date Friday, August 27, 2021 at 11:15:08 AM
; FORMAT={-:-/ absolute / metric / decimal}
; #@! TF.CreationDate,2021-08-27T11:15:08+08:00
; #@! TF.GenerationSoftware,Kicad,Pcbnew,(5.1.10-1-10_14)
FMAT,2
METRIC
T1C0.400
T2C0.600
T3C1.470
T4C3.200
T5C0.650
T6C1.750
T7C3.988
%
G90
G05
T1
X57.015Y-35.352
X58.55Y-36.503
X59.116Y-50.668
X59.116Y-52.372
X59.355Y-35.352
X61.89Y-46.766
X62.575Y-35.352
X63.45Y-36.576
X64.437Y-35.352
X67.216Y-46.606
X67.249Y-69.025
X67.268Y-50.143
X68.158Y-52.38
X68.174Y-53.939
X68.268Y-47.358
X69.482Y-53.162
X69.482Y-54.757
X70.724Y-29.764
X79.985Y-33.965
X89.85Y-29.764
X99.088Y-33.965
X108.92Y-29.764
X118.217Y-33.965
X127.935Y-29.761
X137.137Y-33.965
T3
X75.226Y-42.546
X75.226Y-61.596
X81.576Y-40.006
X81.576Y-59.056
X94.276Y-42.546
X94.276Y-61.596
X100.626Y-40.006
X100.626Y-59.056
X113.326Y-42.546
X113.326Y-61.596
X119.676Y-40.006
X119.676Y-59.056
X132.376Y-42.546
X132.376Y-61.596
X138.726Y-40.006
X138.726Y-59.056
T4
X46.529Y-30.378
X46.529Y-78.791
X150.901Y-30.378
X150.901Y-78.791
T5
X58.084Y-32.018
X63.864Y-32.018
T6
X73.956Y-45.086
X73.956Y-64.136
X84.116Y-45.086
X84.116Y-64.136
X93.006Y-45.086
X93.006Y-64.136
X103.166Y-45.086
X103.166Y-64.136
X112.056Y-45.086
X112.056Y-64.136
X122.216Y-45.086
X122.216Y-64.136
X131.106Y-45.086
X131.106Y-64.136
X141.266Y-45.086
X141.266Y-64.136
T7
X79.036Y-45.086
X79.036Y-64.136
X98.086Y-45.086
X98.086Y-64.136
X117.136Y-45.086
X117.136Y-64.136
X136.186Y-45.086
X136.186Y-64.136
T2
G00X56.654Y-28.668
M15
G01X56.654Y-28.068
M16
G05
G00X56.654Y-33.098
M15
G01X56.654Y-31.998
M16
G05
G00X65.294Y-28.668
M15
G01X65.294Y-28.068
M16
G05
G00X65.294Y-33.098
M15
G01X65.294Y-31.998
M16
G05
T0
M30
