%TF.GenerationSoftware,KiCad,Pcbnew,(5.1.10-1-10_14)*%
%TF.CreationDate,2021-08-26T21:48:09+08:00*%
%TF.ProjectId,SMP top plate v.2 ,534d5020-746f-4702-9070-6c6174652076,rev?*%
%TF.SameCoordinates,Original*%
%TF.FileFunction,Soldermask,Top*%
%TF.FilePolarity,Negative*%
%FSLAX46Y46*%
G04 Gerber Fmt 4.6, Leading zero omitted, Abs format (unit mm)*
G04 Created by KiCad (PCBNEW (5.1.10-1-10_14)) date 2021-08-26 21:48:09*
%MOMM*%
%LPD*%
G01*
G04 APERTURE LIST*
%TA.AperFunction,Profile*%
%ADD10C,0.050000*%
%TD*%
%ADD11C,0.500000*%
%ADD12C,6.400000*%
%ADD13C,3.600000*%
G04 APERTURE END LIST*
D10*
X194200780Y-129593340D02*
G75*
G02*
X193878747Y-129928609I-322021J-12986D01*
G01*
X193878200Y-71188580D02*
G75*
G02*
X194213469Y-71510613I12986J-322021D01*
G01*
X183972200Y-81432400D02*
X107543600Y-81432400D01*
X183972200Y-119735600D02*
X183972200Y-81432400D01*
X107543600Y-119735600D02*
X183972200Y-119735600D01*
X107543600Y-81432400D02*
X107543600Y-119735600D01*
X79839820Y-129931160D02*
G75*
G02*
X79514700Y-129606040I0J325120D01*
G01*
X79517240Y-71513700D02*
G75*
G02*
X79842360Y-71188580I325120J0D01*
G01*
X79839820Y-129931160D02*
X193878200Y-129928620D01*
X194200780Y-129593340D02*
X194213469Y-71510613D01*
X193878200Y-71188580D02*
X79842360Y-71188580D01*
X79517240Y-71513700D02*
X79514700Y-129606040D01*
D11*
X79791560Y-129651760D02*
X79792640Y-71462900D01*
X79791560Y-129651760D02*
X193939000Y-129654300D01*
X79792640Y-71462900D02*
X193929000Y-71462900D01*
X193939000Y-129651760D02*
X193939000Y-71462900D01*
X193939000Y-71462900D02*
X193939000Y-129654300D01*
X107264200Y-120015000D02*
X107264200Y-81153000D01*
X107264200Y-120015000D02*
X184251600Y-120015000D01*
X184251600Y-120015000D02*
X184251600Y-81153000D01*
X184251600Y-81153000D02*
X107264200Y-81153000D01*
D12*
%TO.C,H1*%
X189052200Y-76352400D03*
D13*
X189052200Y-76352400D03*
%TD*%
D12*
%TO.C,H4*%
X84679600Y-124764800D03*
D13*
X84679600Y-124764800D03*
%TD*%
D12*
%TO.C,H3*%
X84679600Y-76352400D03*
D13*
X84679600Y-76352400D03*
%TD*%
D12*
%TO.C,H2*%
X189052200Y-124764800D03*
D13*
X189052200Y-124764800D03*
%TD*%
M02*
