%TF.GenerationSoftware,KiCad,Pcbnew,(5.1.10-1-10_14)*%
%TF.CreationDate,2021-08-26T10:17:17+08:00*%
%TF.ProjectId,SMP v.2,534d5020-762e-4322-9e6b-696361645f70,rev?*%
%TF.SameCoordinates,Original*%
%TF.FileFunction,Copper,L2,Bot*%
%TF.FilePolarity,Positive*%
%FSLAX46Y46*%
G04 Gerber Fmt 4.6, Leading zero omitted, Abs format (unit mm)*
G04 Created by KiCad (PCBNEW (5.1.10-1-10_14)) date 2021-08-26 10:17:17*
%MOMM*%
%LPD*%
G01*
G04 APERTURE LIST*
%TA.AperFunction,Profile*%
%ADD10C,0.050000*%
%TD*%
%TA.AperFunction,NonConductor*%
%ADD11C,0.500000*%
%TD*%
%TA.AperFunction,ComponentPad*%
%ADD12C,2.250000*%
%TD*%
%TA.AperFunction,ComponentPad*%
%ADD13C,6.400000*%
%TD*%
%TA.AperFunction,ComponentPad*%
%ADD14O,1.000000X1.600000*%
%TD*%
%TA.AperFunction,ComponentPad*%
%ADD15O,1.000000X2.100000*%
%TD*%
%TA.AperFunction,ViaPad*%
%ADD16C,0.800000*%
%TD*%
%TA.AperFunction,Conductor*%
%ADD17C,0.254000*%
%TD*%
%TA.AperFunction,Conductor*%
%ADD18C,0.100000*%
%TD*%
%ADD19C,0.350000*%
%ADD20O,0.600000X1.200000*%
%ADD21O,0.600000X1.700000*%
G04 APERTURE END LIST*
D10*
X156052520Y-83629500D02*
G75*
G02*
X155727400Y-83954620I-325120J0D01*
G01*
X155727400Y-25214580D02*
G75*
G02*
X156052520Y-25539700I0J-325120D01*
G01*
X41366440Y-25539700D02*
G75*
G02*
X41691560Y-25214580I325120J0D01*
G01*
X41689020Y-83957160D02*
G75*
G02*
X41363900Y-83632040I0J325120D01*
G01*
D11*
X155778200Y-25488900D02*
X155778200Y-83677760D01*
X41640760Y-83677760D02*
X155778200Y-83677760D01*
X41641840Y-25488900D02*
X155778200Y-25488900D01*
X41641840Y-25488900D02*
X41640760Y-83677760D01*
D10*
X41366440Y-25539700D02*
X41363900Y-83632040D01*
X155727400Y-25214580D02*
X41691560Y-25214580D01*
X156052520Y-83629500D02*
X156052520Y-25539700D01*
X41689020Y-83957160D02*
X155727400Y-83954620D01*
D12*
%TO.P,MX8,1*%
%TO.N,COL3*%
X132375900Y-61596300D03*
%TO.P,MX8,2*%
%TO.N,Net-(D4-Pad2)*%
X138725900Y-59056300D03*
%TD*%
D13*
%TO.P,H4,1*%
%TO.N,Net-(H4-Pad1)*%
X46528800Y-78790800D03*
%TD*%
%TO.P,H3,1*%
%TO.N,Net-(H3-Pad1)*%
X46528800Y-30378400D03*
%TD*%
%TO.P,H2,1*%
%TO.N,Net-(H2-Pad1)*%
X150901400Y-78790800D03*
%TD*%
%TO.P,H1,1*%
%TO.N,Net-(H1-Pad1)*%
X150901400Y-30378400D03*
%TD*%
D14*
%TO.P,J1,S1*%
%TO.N,GND*%
X56592400Y-28439400D03*
X65232400Y-28439400D03*
D15*
X65232400Y-32619400D03*
X56592400Y-32619400D03*
%TD*%
D12*
%TO.P,MX7,1*%
%TO.N,COL2*%
X113325900Y-61596300D03*
%TO.P,MX7,2*%
%TO.N,Net-(D8-Pad2)*%
X119675900Y-59056300D03*
%TD*%
%TO.P,MX6,1*%
%TO.N,COL1*%
X94275900Y-61596300D03*
%TO.P,MX6,2*%
%TO.N,Net-(D7-Pad2)*%
X100625900Y-59056300D03*
%TD*%
%TO.P,MX5,1*%
%TO.N,COL0*%
X75225900Y-61596300D03*
%TO.P,MX5,2*%
%TO.N,Net-(D3-Pad2)*%
X81575900Y-59056300D03*
%TD*%
%TO.P,MX4,1*%
%TO.N,COL3*%
X132375900Y-42546300D03*
%TO.P,MX4,2*%
%TO.N,Net-(D2-Pad2)*%
X138725900Y-40006300D03*
%TD*%
%TO.P,MX3,1*%
%TO.N,COL2*%
X113325900Y-42546300D03*
%TO.P,MX3,2*%
%TO.N,Net-(D6-Pad2)*%
X119675900Y-40006300D03*
%TD*%
%TO.P,MX2,1*%
%TO.N,COL1*%
X94275900Y-42546300D03*
%TO.P,MX2,2*%
%TO.N,Net-(D5-Pad2)*%
X100625900Y-40006300D03*
%TD*%
%TO.P,MX1,1*%
%TO.N,COL0*%
X75225900Y-42546300D03*
%TO.P,MX1,2*%
%TO.N,Net-(D1-Pad2)*%
X81575900Y-40006300D03*
%TD*%
D16*
%TO.N,ROW0*%
X137137140Y-33964880D03*
X68552620Y-33959800D03*
X79984600Y-33964880D03*
X99087940Y-33964880D03*
X118216680Y-33964880D03*
%TO.N,ROW1*%
X108920280Y-29763720D03*
X127934720Y-29761180D03*
X89849960Y-29763720D03*
X67703700Y-29758640D03*
X70723760Y-29763720D03*
%TO.N,COL0*%
X68910200Y-54762400D03*
%TO.N,COL1*%
X67884040Y-53959760D03*
%TO.N,COL2*%
X68910200Y-53152040D03*
%TO.N,COL3*%
X67871340Y-52420900D03*
%TO.N,Net-(F1-Pad2)*%
X63406022Y-35745420D03*
X58433503Y-35745417D03*
%TO.N,D-*%
X59969400Y-41656004D03*
X61658499Y-39766241D03*
%TO.N,Net-(R1-Pad2)*%
X56040020Y-61127640D03*
X67804378Y-49955800D03*
%TD*%
D17*
%TO.N,ROW0*%
X68557700Y-33964880D02*
X68552620Y-33959800D01*
X79984600Y-33964880D02*
X68557700Y-33964880D01*
X99087940Y-33964880D02*
X79984600Y-33964880D01*
X118216680Y-33964880D02*
X99087940Y-33964880D01*
X137137140Y-33964880D02*
X118216680Y-33964880D01*
%TO.N,ROW1*%
X108920280Y-29763720D02*
X127932180Y-29763720D01*
X127932180Y-29763720D02*
X127934720Y-29761180D01*
X89849960Y-29763720D02*
X108920280Y-29763720D01*
X68927980Y-29758640D02*
X67703700Y-29758640D01*
X67708780Y-29763720D02*
X67703700Y-29758640D01*
X70723760Y-29763720D02*
X67708780Y-29763720D01*
X89849960Y-29763720D02*
X70723760Y-29763720D01*
%TO.N,COL0*%
X75225900Y-61078100D02*
X75225900Y-61596300D01*
X68910200Y-54762400D02*
X75225900Y-61078100D01*
%TO.N,COL1*%
X86639360Y-53959760D02*
X94275900Y-61596300D01*
X67884040Y-53959760D02*
X86639360Y-53959760D01*
%TO.N,COL2*%
X104881640Y-53152040D02*
X113325900Y-61596300D01*
X68889880Y-53152040D02*
X104881640Y-53152040D01*
%TO.N,COL3*%
X132375900Y-61596300D02*
X123200500Y-52420900D01*
X123200500Y-52420900D02*
X67871340Y-52420900D01*
%TO.N,Net-(F1-Pad2)*%
X63406022Y-35745420D02*
X58483500Y-35745420D01*
X58483500Y-35745420D02*
X58483503Y-35745417D01*
%TO.N,D-*%
X59969400Y-41656004D02*
X61658499Y-39966905D01*
X61658499Y-39966905D02*
X61658499Y-39766241D01*
%TO.N,Net-(R1-Pad2)*%
X67216020Y-49951640D02*
X56040020Y-61127640D01*
X67800218Y-49951640D02*
X67804378Y-49955800D01*
X67216020Y-49951640D02*
X67800218Y-49951640D01*
%TD*%
%TO.N,GND*%
X154893201Y-82792760D02*
X42525776Y-82792760D01*
X42525857Y-78413085D01*
X42693800Y-78413085D01*
X42693800Y-79168515D01*
X42841177Y-79909428D01*
X43130267Y-80607354D01*
X43549961Y-81235470D01*
X44084130Y-81769639D01*
X44712246Y-82189333D01*
X45410172Y-82478423D01*
X46151085Y-82625800D01*
X46906515Y-82625800D01*
X47647428Y-82478423D01*
X48345354Y-82189333D01*
X48973470Y-81769639D01*
X49507639Y-81235470D01*
X49927333Y-80607354D01*
X50216423Y-79909428D01*
X50363800Y-79168515D01*
X50363800Y-78413085D01*
X147066400Y-78413085D01*
X147066400Y-79168515D01*
X147213777Y-79909428D01*
X147502867Y-80607354D01*
X147922561Y-81235470D01*
X148456730Y-81769639D01*
X149084846Y-82189333D01*
X149782772Y-82478423D01*
X150523685Y-82625800D01*
X151279115Y-82625800D01*
X152020028Y-82478423D01*
X152717954Y-82189333D01*
X153346070Y-81769639D01*
X153880239Y-81235470D01*
X154299933Y-80607354D01*
X154589023Y-79909428D01*
X154736400Y-79168515D01*
X154736400Y-78413085D01*
X154589023Y-77672172D01*
X154299933Y-76974246D01*
X153880239Y-76346130D01*
X153346070Y-75811961D01*
X152717954Y-75392267D01*
X152020028Y-75103177D01*
X151279115Y-74955800D01*
X150523685Y-74955800D01*
X149782772Y-75103177D01*
X149084846Y-75392267D01*
X148456730Y-75811961D01*
X147922561Y-76346130D01*
X147502867Y-76974246D01*
X147213777Y-77672172D01*
X147066400Y-78413085D01*
X50363800Y-78413085D01*
X50216423Y-77672172D01*
X49927333Y-76974246D01*
X49507639Y-76346130D01*
X48973470Y-75811961D01*
X48345354Y-75392267D01*
X47647428Y-75103177D01*
X46906515Y-74955800D01*
X46151085Y-74955800D01*
X45410172Y-75103177D01*
X44712246Y-75392267D01*
X44084130Y-75811961D01*
X43549961Y-76346130D01*
X43130267Y-76974246D01*
X42841177Y-77672172D01*
X42693800Y-78413085D01*
X42525857Y-78413085D01*
X42526179Y-61025701D01*
X55005020Y-61025701D01*
X55005020Y-61229579D01*
X55044794Y-61429538D01*
X55122815Y-61617896D01*
X55236083Y-61787414D01*
X55380246Y-61931577D01*
X55549764Y-62044845D01*
X55738122Y-62122866D01*
X55938081Y-62162640D01*
X56141959Y-62162640D01*
X56341918Y-62122866D01*
X56530276Y-62044845D01*
X56699794Y-61931577D01*
X56843957Y-61787414D01*
X56957225Y-61617896D01*
X57035246Y-61429538D01*
X57075020Y-61229579D01*
X57075020Y-61170270D01*
X65926329Y-52318961D01*
X66836340Y-52318961D01*
X66836340Y-52522839D01*
X66876114Y-52722798D01*
X66954135Y-52911156D01*
X67067403Y-53080674D01*
X67183409Y-53196680D01*
X67080103Y-53299986D01*
X66966835Y-53469504D01*
X66888814Y-53657862D01*
X66849040Y-53857821D01*
X66849040Y-54061699D01*
X66888814Y-54261658D01*
X66966835Y-54450016D01*
X67080103Y-54619534D01*
X67224266Y-54763697D01*
X67393784Y-54876965D01*
X67582142Y-54954986D01*
X67782101Y-54994760D01*
X67901142Y-54994760D01*
X67914974Y-55064298D01*
X67992995Y-55252656D01*
X68106263Y-55422174D01*
X68250426Y-55566337D01*
X68419944Y-55679605D01*
X68608302Y-55757626D01*
X68808261Y-55797400D01*
X68867570Y-55797400D01*
X73732934Y-60662764D01*
X73666208Y-60762627D01*
X73533536Y-61082927D01*
X73465900Y-61422955D01*
X73465900Y-61769645D01*
X73533536Y-62109673D01*
X73666208Y-62429973D01*
X73798538Y-62628019D01*
X73515449Y-62684329D01*
X73240647Y-62798156D01*
X72993331Y-62963407D01*
X72783007Y-63173731D01*
X72617756Y-63421047D01*
X72503929Y-63695849D01*
X72445900Y-63987578D01*
X72445900Y-64285022D01*
X72503929Y-64576751D01*
X72617756Y-64851553D01*
X72783007Y-65098869D01*
X72993331Y-65309193D01*
X73240647Y-65474444D01*
X73515449Y-65588271D01*
X73807178Y-65646300D01*
X74104622Y-65646300D01*
X74396351Y-65588271D01*
X74671153Y-65474444D01*
X74918469Y-65309193D01*
X75128793Y-65098869D01*
X75294044Y-64851553D01*
X75407871Y-64576751D01*
X75465900Y-64285022D01*
X75465900Y-63987578D01*
X75443980Y-63877376D01*
X76407000Y-63877376D01*
X76407000Y-64395224D01*
X76508027Y-64903122D01*
X76706199Y-65381551D01*
X76993900Y-65812126D01*
X77360074Y-66178300D01*
X77790649Y-66466001D01*
X78269078Y-66664173D01*
X78776976Y-66765200D01*
X79294824Y-66765200D01*
X79802722Y-66664173D01*
X80281151Y-66466001D01*
X80711726Y-66178300D01*
X81077900Y-65812126D01*
X81365601Y-65381551D01*
X81563773Y-64903122D01*
X81664800Y-64395224D01*
X81664800Y-63987578D01*
X82605900Y-63987578D01*
X82605900Y-64285022D01*
X82663929Y-64576751D01*
X82777756Y-64851553D01*
X82943007Y-65098869D01*
X83153331Y-65309193D01*
X83400647Y-65474444D01*
X83675449Y-65588271D01*
X83967178Y-65646300D01*
X84264622Y-65646300D01*
X84556351Y-65588271D01*
X84831153Y-65474444D01*
X85078469Y-65309193D01*
X85288793Y-65098869D01*
X85454044Y-64851553D01*
X85567871Y-64576751D01*
X85625900Y-64285022D01*
X85625900Y-63987578D01*
X85567871Y-63695849D01*
X85454044Y-63421047D01*
X85288793Y-63173731D01*
X85078469Y-62963407D01*
X84831153Y-62798156D01*
X84556351Y-62684329D01*
X84264622Y-62626300D01*
X83967178Y-62626300D01*
X83675449Y-62684329D01*
X83400647Y-62798156D01*
X83153331Y-62963407D01*
X82943007Y-63173731D01*
X82777756Y-63421047D01*
X82663929Y-63695849D01*
X82605900Y-63987578D01*
X81664800Y-63987578D01*
X81664800Y-63877376D01*
X81563773Y-63369478D01*
X81365601Y-62891049D01*
X81077900Y-62460474D01*
X80711726Y-62094300D01*
X80281151Y-61806599D01*
X79802722Y-61608427D01*
X79294824Y-61507400D01*
X78776976Y-61507400D01*
X78269078Y-61608427D01*
X77790649Y-61806599D01*
X77360074Y-62094300D01*
X76993900Y-62460474D01*
X76706199Y-62891049D01*
X76508027Y-63369478D01*
X76407000Y-63877376D01*
X75443980Y-63877376D01*
X75407871Y-63695849D01*
X75294044Y-63421047D01*
X75250782Y-63356300D01*
X75399245Y-63356300D01*
X75739273Y-63288664D01*
X76059573Y-63155992D01*
X76347835Y-62963381D01*
X76592981Y-62718235D01*
X76785592Y-62429973D01*
X76918264Y-62109673D01*
X76985900Y-61769645D01*
X76985900Y-61422955D01*
X76918264Y-61082927D01*
X76785592Y-60762627D01*
X76592981Y-60474365D01*
X76347835Y-60229219D01*
X76059573Y-60036608D01*
X75739273Y-59903936D01*
X75399245Y-59836300D01*
X75061730Y-59836300D01*
X74108385Y-58882955D01*
X79815900Y-58882955D01*
X79815900Y-59229645D01*
X79883536Y-59569673D01*
X80016208Y-59889973D01*
X80208819Y-60178235D01*
X80453965Y-60423381D01*
X80742227Y-60615992D01*
X81062527Y-60748664D01*
X81402555Y-60816300D01*
X81749245Y-60816300D01*
X82089273Y-60748664D01*
X82409573Y-60615992D01*
X82697835Y-60423381D01*
X82942981Y-60178235D01*
X83135592Y-59889973D01*
X83268264Y-59569673D01*
X83335900Y-59229645D01*
X83335900Y-58882955D01*
X83268264Y-58542927D01*
X83135592Y-58222627D01*
X82942981Y-57934365D01*
X82697835Y-57689219D01*
X82409573Y-57496608D01*
X82089273Y-57363936D01*
X81749245Y-57296300D01*
X81402555Y-57296300D01*
X81062527Y-57363936D01*
X80742227Y-57496608D01*
X80453965Y-57689219D01*
X80208819Y-57934365D01*
X80016208Y-58222627D01*
X79883536Y-58542927D01*
X79815900Y-58882955D01*
X74108385Y-58882955D01*
X69947190Y-54721760D01*
X86323730Y-54721760D01*
X92613224Y-61011254D01*
X92583536Y-61082927D01*
X92515900Y-61422955D01*
X92515900Y-61769645D01*
X92583536Y-62109673D01*
X92716208Y-62429973D01*
X92848538Y-62628019D01*
X92565449Y-62684329D01*
X92290647Y-62798156D01*
X92043331Y-62963407D01*
X91833007Y-63173731D01*
X91667756Y-63421047D01*
X91553929Y-63695849D01*
X91495900Y-63987578D01*
X91495900Y-64285022D01*
X91553929Y-64576751D01*
X91667756Y-64851553D01*
X91833007Y-65098869D01*
X92043331Y-65309193D01*
X92290647Y-65474444D01*
X92565449Y-65588271D01*
X92857178Y-65646300D01*
X93154622Y-65646300D01*
X93446351Y-65588271D01*
X93721153Y-65474444D01*
X93968469Y-65309193D01*
X94178793Y-65098869D01*
X94344044Y-64851553D01*
X94457871Y-64576751D01*
X94515900Y-64285022D01*
X94515900Y-63987578D01*
X94493980Y-63877376D01*
X95457000Y-63877376D01*
X95457000Y-64395224D01*
X95558027Y-64903122D01*
X95756199Y-65381551D01*
X96043900Y-65812126D01*
X96410074Y-66178300D01*
X96840649Y-66466001D01*
X97319078Y-66664173D01*
X97826976Y-66765200D01*
X98344824Y-66765200D01*
X98852722Y-66664173D01*
X99331151Y-66466001D01*
X99761726Y-66178300D01*
X100127900Y-65812126D01*
X100415601Y-65381551D01*
X100613773Y-64903122D01*
X100714800Y-64395224D01*
X100714800Y-63987578D01*
X101655900Y-63987578D01*
X101655900Y-64285022D01*
X101713929Y-64576751D01*
X101827756Y-64851553D01*
X101993007Y-65098869D01*
X102203331Y-65309193D01*
X102450647Y-65474444D01*
X102725449Y-65588271D01*
X103017178Y-65646300D01*
X103314622Y-65646300D01*
X103606351Y-65588271D01*
X103881153Y-65474444D01*
X104128469Y-65309193D01*
X104338793Y-65098869D01*
X104504044Y-64851553D01*
X104617871Y-64576751D01*
X104675900Y-64285022D01*
X104675900Y-63987578D01*
X104617871Y-63695849D01*
X104504044Y-63421047D01*
X104338793Y-63173731D01*
X104128469Y-62963407D01*
X103881153Y-62798156D01*
X103606351Y-62684329D01*
X103314622Y-62626300D01*
X103017178Y-62626300D01*
X102725449Y-62684329D01*
X102450647Y-62798156D01*
X102203331Y-62963407D01*
X101993007Y-63173731D01*
X101827756Y-63421047D01*
X101713929Y-63695849D01*
X101655900Y-63987578D01*
X100714800Y-63987578D01*
X100714800Y-63877376D01*
X100613773Y-63369478D01*
X100415601Y-62891049D01*
X100127900Y-62460474D01*
X99761726Y-62094300D01*
X99331151Y-61806599D01*
X98852722Y-61608427D01*
X98344824Y-61507400D01*
X97826976Y-61507400D01*
X97319078Y-61608427D01*
X96840649Y-61806599D01*
X96410074Y-62094300D01*
X96043900Y-62460474D01*
X95756199Y-62891049D01*
X95558027Y-63369478D01*
X95457000Y-63877376D01*
X94493980Y-63877376D01*
X94457871Y-63695849D01*
X94344044Y-63421047D01*
X94300782Y-63356300D01*
X94449245Y-63356300D01*
X94789273Y-63288664D01*
X95109573Y-63155992D01*
X95397835Y-62963381D01*
X95642981Y-62718235D01*
X95835592Y-62429973D01*
X95968264Y-62109673D01*
X96035900Y-61769645D01*
X96035900Y-61422955D01*
X95968264Y-61082927D01*
X95835592Y-60762627D01*
X95642981Y-60474365D01*
X95397835Y-60229219D01*
X95109573Y-60036608D01*
X94789273Y-59903936D01*
X94449245Y-59836300D01*
X94102555Y-59836300D01*
X93762527Y-59903936D01*
X93690854Y-59933624D01*
X92640185Y-58882955D01*
X98865900Y-58882955D01*
X98865900Y-59229645D01*
X98933536Y-59569673D01*
X99066208Y-59889973D01*
X99258819Y-60178235D01*
X99503965Y-60423381D01*
X99792227Y-60615992D01*
X100112527Y-60748664D01*
X100452555Y-60816300D01*
X100799245Y-60816300D01*
X101139273Y-60748664D01*
X101459573Y-60615992D01*
X101747835Y-60423381D01*
X101992981Y-60178235D01*
X102185592Y-59889973D01*
X102318264Y-59569673D01*
X102385900Y-59229645D01*
X102385900Y-58882955D01*
X102318264Y-58542927D01*
X102185592Y-58222627D01*
X101992981Y-57934365D01*
X101747835Y-57689219D01*
X101459573Y-57496608D01*
X101139273Y-57363936D01*
X100799245Y-57296300D01*
X100452555Y-57296300D01*
X100112527Y-57363936D01*
X99792227Y-57496608D01*
X99503965Y-57689219D01*
X99258819Y-57934365D01*
X99066208Y-58222627D01*
X98933536Y-58542927D01*
X98865900Y-58882955D01*
X92640185Y-58882955D01*
X87671270Y-53914040D01*
X104566010Y-53914040D01*
X111663224Y-61011254D01*
X111633536Y-61082927D01*
X111565900Y-61422955D01*
X111565900Y-61769645D01*
X111633536Y-62109673D01*
X111766208Y-62429973D01*
X111898538Y-62628019D01*
X111615449Y-62684329D01*
X111340647Y-62798156D01*
X111093331Y-62963407D01*
X110883007Y-63173731D01*
X110717756Y-63421047D01*
X110603929Y-63695849D01*
X110545900Y-63987578D01*
X110545900Y-64285022D01*
X110603929Y-64576751D01*
X110717756Y-64851553D01*
X110883007Y-65098869D01*
X111093331Y-65309193D01*
X111340647Y-65474444D01*
X111615449Y-65588271D01*
X111907178Y-65646300D01*
X112204622Y-65646300D01*
X112496351Y-65588271D01*
X112771153Y-65474444D01*
X113018469Y-65309193D01*
X113228793Y-65098869D01*
X113394044Y-64851553D01*
X113507871Y-64576751D01*
X113565900Y-64285022D01*
X113565900Y-63987578D01*
X113543980Y-63877376D01*
X114507000Y-63877376D01*
X114507000Y-64395224D01*
X114608027Y-64903122D01*
X114806199Y-65381551D01*
X115093900Y-65812126D01*
X115460074Y-66178300D01*
X115890649Y-66466001D01*
X116369078Y-66664173D01*
X116876976Y-66765200D01*
X117394824Y-66765200D01*
X117902722Y-66664173D01*
X118381151Y-66466001D01*
X118811726Y-66178300D01*
X119177900Y-65812126D01*
X119465601Y-65381551D01*
X119663773Y-64903122D01*
X119764800Y-64395224D01*
X119764800Y-63987578D01*
X120705900Y-63987578D01*
X120705900Y-64285022D01*
X120763929Y-64576751D01*
X120877756Y-64851553D01*
X121043007Y-65098869D01*
X121253331Y-65309193D01*
X121500647Y-65474444D01*
X121775449Y-65588271D01*
X122067178Y-65646300D01*
X122364622Y-65646300D01*
X122656351Y-65588271D01*
X122931153Y-65474444D01*
X123178469Y-65309193D01*
X123388793Y-65098869D01*
X123554044Y-64851553D01*
X123667871Y-64576751D01*
X123725900Y-64285022D01*
X123725900Y-63987578D01*
X123667871Y-63695849D01*
X123554044Y-63421047D01*
X123388793Y-63173731D01*
X123178469Y-62963407D01*
X122931153Y-62798156D01*
X122656351Y-62684329D01*
X122364622Y-62626300D01*
X122067178Y-62626300D01*
X121775449Y-62684329D01*
X121500647Y-62798156D01*
X121253331Y-62963407D01*
X121043007Y-63173731D01*
X120877756Y-63421047D01*
X120763929Y-63695849D01*
X120705900Y-63987578D01*
X119764800Y-63987578D01*
X119764800Y-63877376D01*
X119663773Y-63369478D01*
X119465601Y-62891049D01*
X119177900Y-62460474D01*
X118811726Y-62094300D01*
X118381151Y-61806599D01*
X117902722Y-61608427D01*
X117394824Y-61507400D01*
X116876976Y-61507400D01*
X116369078Y-61608427D01*
X115890649Y-61806599D01*
X115460074Y-62094300D01*
X115093900Y-62460474D01*
X114806199Y-62891049D01*
X114608027Y-63369478D01*
X114507000Y-63877376D01*
X113543980Y-63877376D01*
X113507871Y-63695849D01*
X113394044Y-63421047D01*
X113350782Y-63356300D01*
X113499245Y-63356300D01*
X113839273Y-63288664D01*
X114159573Y-63155992D01*
X114447835Y-62963381D01*
X114692981Y-62718235D01*
X114885592Y-62429973D01*
X115018264Y-62109673D01*
X115085900Y-61769645D01*
X115085900Y-61422955D01*
X115018264Y-61082927D01*
X114885592Y-60762627D01*
X114692981Y-60474365D01*
X114447835Y-60229219D01*
X114159573Y-60036608D01*
X113839273Y-59903936D01*
X113499245Y-59836300D01*
X113152555Y-59836300D01*
X112812527Y-59903936D01*
X112740854Y-59933624D01*
X111690185Y-58882955D01*
X117915900Y-58882955D01*
X117915900Y-59229645D01*
X117983536Y-59569673D01*
X118116208Y-59889973D01*
X118308819Y-60178235D01*
X118553965Y-60423381D01*
X118842227Y-60615992D01*
X119162527Y-60748664D01*
X119502555Y-60816300D01*
X119849245Y-60816300D01*
X120189273Y-60748664D01*
X120509573Y-60615992D01*
X120797835Y-60423381D01*
X121042981Y-60178235D01*
X121235592Y-59889973D01*
X121368264Y-59569673D01*
X121435900Y-59229645D01*
X121435900Y-58882955D01*
X121368264Y-58542927D01*
X121235592Y-58222627D01*
X121042981Y-57934365D01*
X120797835Y-57689219D01*
X120509573Y-57496608D01*
X120189273Y-57363936D01*
X119849245Y-57296300D01*
X119502555Y-57296300D01*
X119162527Y-57363936D01*
X118842227Y-57496608D01*
X118553965Y-57689219D01*
X118308819Y-57934365D01*
X118116208Y-58222627D01*
X117983536Y-58542927D01*
X117915900Y-58882955D01*
X111690185Y-58882955D01*
X105990130Y-53182900D01*
X122884870Y-53182900D01*
X130713224Y-61011254D01*
X130683536Y-61082927D01*
X130615900Y-61422955D01*
X130615900Y-61769645D01*
X130683536Y-62109673D01*
X130816208Y-62429973D01*
X130948538Y-62628019D01*
X130665449Y-62684329D01*
X130390647Y-62798156D01*
X130143331Y-62963407D01*
X129933007Y-63173731D01*
X129767756Y-63421047D01*
X129653929Y-63695849D01*
X129595900Y-63987578D01*
X129595900Y-64285022D01*
X129653929Y-64576751D01*
X129767756Y-64851553D01*
X129933007Y-65098869D01*
X130143331Y-65309193D01*
X130390647Y-65474444D01*
X130665449Y-65588271D01*
X130957178Y-65646300D01*
X131254622Y-65646300D01*
X131546351Y-65588271D01*
X131821153Y-65474444D01*
X132068469Y-65309193D01*
X132278793Y-65098869D01*
X132444044Y-64851553D01*
X132557871Y-64576751D01*
X132615900Y-64285022D01*
X132615900Y-63987578D01*
X132593980Y-63877376D01*
X133557000Y-63877376D01*
X133557000Y-64395224D01*
X133658027Y-64903122D01*
X133856199Y-65381551D01*
X134143900Y-65812126D01*
X134510074Y-66178300D01*
X134940649Y-66466001D01*
X135419078Y-66664173D01*
X135926976Y-66765200D01*
X136444824Y-66765200D01*
X136952722Y-66664173D01*
X137431151Y-66466001D01*
X137861726Y-66178300D01*
X138227900Y-65812126D01*
X138515601Y-65381551D01*
X138713773Y-64903122D01*
X138814800Y-64395224D01*
X138814800Y-63987578D01*
X139755900Y-63987578D01*
X139755900Y-64285022D01*
X139813929Y-64576751D01*
X139927756Y-64851553D01*
X140093007Y-65098869D01*
X140303331Y-65309193D01*
X140550647Y-65474444D01*
X140825449Y-65588271D01*
X141117178Y-65646300D01*
X141414622Y-65646300D01*
X141706351Y-65588271D01*
X141981153Y-65474444D01*
X142228469Y-65309193D01*
X142438793Y-65098869D01*
X142604044Y-64851553D01*
X142717871Y-64576751D01*
X142775900Y-64285022D01*
X142775900Y-63987578D01*
X142717871Y-63695849D01*
X142604044Y-63421047D01*
X142438793Y-63173731D01*
X142228469Y-62963407D01*
X141981153Y-62798156D01*
X141706351Y-62684329D01*
X141414622Y-62626300D01*
X141117178Y-62626300D01*
X140825449Y-62684329D01*
X140550647Y-62798156D01*
X140303331Y-62963407D01*
X140093007Y-63173731D01*
X139927756Y-63421047D01*
X139813929Y-63695849D01*
X139755900Y-63987578D01*
X138814800Y-63987578D01*
X138814800Y-63877376D01*
X138713773Y-63369478D01*
X138515601Y-62891049D01*
X138227900Y-62460474D01*
X137861726Y-62094300D01*
X137431151Y-61806599D01*
X136952722Y-61608427D01*
X136444824Y-61507400D01*
X135926976Y-61507400D01*
X135419078Y-61608427D01*
X134940649Y-61806599D01*
X134510074Y-62094300D01*
X134143900Y-62460474D01*
X133856199Y-62891049D01*
X133658027Y-63369478D01*
X133557000Y-63877376D01*
X132593980Y-63877376D01*
X132557871Y-63695849D01*
X132444044Y-63421047D01*
X132400782Y-63356300D01*
X132549245Y-63356300D01*
X132889273Y-63288664D01*
X133209573Y-63155992D01*
X133497835Y-62963381D01*
X133742981Y-62718235D01*
X133935592Y-62429973D01*
X134068264Y-62109673D01*
X134135900Y-61769645D01*
X134135900Y-61422955D01*
X134068264Y-61082927D01*
X133935592Y-60762627D01*
X133742981Y-60474365D01*
X133497835Y-60229219D01*
X133209573Y-60036608D01*
X132889273Y-59903936D01*
X132549245Y-59836300D01*
X132202555Y-59836300D01*
X131862527Y-59903936D01*
X131790854Y-59933624D01*
X130740185Y-58882955D01*
X136965900Y-58882955D01*
X136965900Y-59229645D01*
X137033536Y-59569673D01*
X137166208Y-59889973D01*
X137358819Y-60178235D01*
X137603965Y-60423381D01*
X137892227Y-60615992D01*
X138212527Y-60748664D01*
X138552555Y-60816300D01*
X138899245Y-60816300D01*
X139239273Y-60748664D01*
X139559573Y-60615992D01*
X139847835Y-60423381D01*
X140092981Y-60178235D01*
X140285592Y-59889973D01*
X140418264Y-59569673D01*
X140485900Y-59229645D01*
X140485900Y-58882955D01*
X140418264Y-58542927D01*
X140285592Y-58222627D01*
X140092981Y-57934365D01*
X139847835Y-57689219D01*
X139559573Y-57496608D01*
X139239273Y-57363936D01*
X138899245Y-57296300D01*
X138552555Y-57296300D01*
X138212527Y-57363936D01*
X137892227Y-57496608D01*
X137603965Y-57689219D01*
X137358819Y-57934365D01*
X137166208Y-58222627D01*
X137033536Y-58542927D01*
X136965900Y-58882955D01*
X130740185Y-58882955D01*
X123765784Y-51908554D01*
X123741922Y-51879478D01*
X123625892Y-51784255D01*
X123493515Y-51713498D01*
X123349878Y-51669926D01*
X123237926Y-51658900D01*
X123237923Y-51658900D01*
X123200500Y-51655214D01*
X123163077Y-51658900D01*
X68573051Y-51658900D01*
X68531114Y-51616963D01*
X68361596Y-51503695D01*
X68173238Y-51425674D01*
X67973279Y-51385900D01*
X67769401Y-51385900D01*
X67569442Y-51425674D01*
X67381084Y-51503695D01*
X67211566Y-51616963D01*
X67067403Y-51761126D01*
X66954135Y-51930644D01*
X66876114Y-52119002D01*
X66836340Y-52318961D01*
X65926329Y-52318961D01*
X67355250Y-50890041D01*
X67502480Y-50951026D01*
X67702439Y-50990800D01*
X67906317Y-50990800D01*
X68106276Y-50951026D01*
X68294634Y-50873005D01*
X68464152Y-50759737D01*
X68608315Y-50615574D01*
X68721583Y-50446056D01*
X68799604Y-50257698D01*
X68839378Y-50057739D01*
X68839378Y-49853861D01*
X68799604Y-49653902D01*
X68721583Y-49465544D01*
X68608315Y-49296026D01*
X68464152Y-49151863D01*
X68294634Y-49038595D01*
X68106276Y-48960574D01*
X67906317Y-48920800D01*
X67702439Y-48920800D01*
X67502480Y-48960574D01*
X67314122Y-49038595D01*
X67144604Y-49151863D01*
X67098987Y-49197480D01*
X67066642Y-49200666D01*
X66923005Y-49244238D01*
X66861384Y-49277175D01*
X66790627Y-49314995D01*
X66707924Y-49382868D01*
X66674598Y-49410218D01*
X66650741Y-49439288D01*
X55997390Y-60092640D01*
X55938081Y-60092640D01*
X55738122Y-60132414D01*
X55549764Y-60210435D01*
X55380246Y-60323703D01*
X55236083Y-60467866D01*
X55122815Y-60637384D01*
X55044794Y-60825742D01*
X55005020Y-61025701D01*
X42526179Y-61025701D01*
X42526477Y-44937578D01*
X72445900Y-44937578D01*
X72445900Y-45235022D01*
X72503929Y-45526751D01*
X72617756Y-45801553D01*
X72783007Y-46048869D01*
X72993331Y-46259193D01*
X73240647Y-46424444D01*
X73515449Y-46538271D01*
X73807178Y-46596300D01*
X74104622Y-46596300D01*
X74396351Y-46538271D01*
X74671153Y-46424444D01*
X74918469Y-46259193D01*
X75128793Y-46048869D01*
X75294044Y-45801553D01*
X75407871Y-45526751D01*
X75465900Y-45235022D01*
X75465900Y-44937578D01*
X75443980Y-44827376D01*
X76407000Y-44827376D01*
X76407000Y-45345224D01*
X76508027Y-45853122D01*
X76706199Y-46331551D01*
X76993900Y-46762126D01*
X77360074Y-47128300D01*
X77790649Y-47416001D01*
X78269078Y-47614173D01*
X78776976Y-47715200D01*
X79294824Y-47715200D01*
X79802722Y-47614173D01*
X80281151Y-47416001D01*
X80711726Y-47128300D01*
X81077900Y-46762126D01*
X81365601Y-46331551D01*
X81563773Y-45853122D01*
X81664800Y-45345224D01*
X81664800Y-44937578D01*
X82605900Y-44937578D01*
X82605900Y-45235022D01*
X82663929Y-45526751D01*
X82777756Y-45801553D01*
X82943007Y-46048869D01*
X83153331Y-46259193D01*
X83400647Y-46424444D01*
X83675449Y-46538271D01*
X83967178Y-46596300D01*
X84264622Y-46596300D01*
X84556351Y-46538271D01*
X84831153Y-46424444D01*
X85078469Y-46259193D01*
X85288793Y-46048869D01*
X85454044Y-45801553D01*
X85567871Y-45526751D01*
X85625900Y-45235022D01*
X85625900Y-44937578D01*
X91495900Y-44937578D01*
X91495900Y-45235022D01*
X91553929Y-45526751D01*
X91667756Y-45801553D01*
X91833007Y-46048869D01*
X92043331Y-46259193D01*
X92290647Y-46424444D01*
X92565449Y-46538271D01*
X92857178Y-46596300D01*
X93154622Y-46596300D01*
X93446351Y-46538271D01*
X93721153Y-46424444D01*
X93968469Y-46259193D01*
X94178793Y-46048869D01*
X94344044Y-45801553D01*
X94457871Y-45526751D01*
X94515900Y-45235022D01*
X94515900Y-44937578D01*
X94493980Y-44827376D01*
X95457000Y-44827376D01*
X95457000Y-45345224D01*
X95558027Y-45853122D01*
X95756199Y-46331551D01*
X96043900Y-46762126D01*
X96410074Y-47128300D01*
X96840649Y-47416001D01*
X97319078Y-47614173D01*
X97826976Y-47715200D01*
X98344824Y-47715200D01*
X98852722Y-47614173D01*
X99331151Y-47416001D01*
X99761726Y-47128300D01*
X100127900Y-46762126D01*
X100415601Y-46331551D01*
X100613773Y-45853122D01*
X100714800Y-45345224D01*
X100714800Y-44937578D01*
X101655900Y-44937578D01*
X101655900Y-45235022D01*
X101713929Y-45526751D01*
X101827756Y-45801553D01*
X101993007Y-46048869D01*
X102203331Y-46259193D01*
X102450647Y-46424444D01*
X102725449Y-46538271D01*
X103017178Y-46596300D01*
X103314622Y-46596300D01*
X103606351Y-46538271D01*
X103881153Y-46424444D01*
X104128469Y-46259193D01*
X104338793Y-46048869D01*
X104504044Y-45801553D01*
X104617871Y-45526751D01*
X104675900Y-45235022D01*
X104675900Y-44937578D01*
X110545900Y-44937578D01*
X110545900Y-45235022D01*
X110603929Y-45526751D01*
X110717756Y-45801553D01*
X110883007Y-46048869D01*
X111093331Y-46259193D01*
X111340647Y-46424444D01*
X111615449Y-46538271D01*
X111907178Y-46596300D01*
X112204622Y-46596300D01*
X112496351Y-46538271D01*
X112771153Y-46424444D01*
X113018469Y-46259193D01*
X113228793Y-46048869D01*
X113394044Y-45801553D01*
X113507871Y-45526751D01*
X113565900Y-45235022D01*
X113565900Y-44937578D01*
X113543980Y-44827376D01*
X114507000Y-44827376D01*
X114507000Y-45345224D01*
X114608027Y-45853122D01*
X114806199Y-46331551D01*
X115093900Y-46762126D01*
X115460074Y-47128300D01*
X115890649Y-47416001D01*
X116369078Y-47614173D01*
X116876976Y-47715200D01*
X117394824Y-47715200D01*
X117902722Y-47614173D01*
X118381151Y-47416001D01*
X118811726Y-47128300D01*
X119177900Y-46762126D01*
X119465601Y-46331551D01*
X119663773Y-45853122D01*
X119764800Y-45345224D01*
X119764800Y-44937578D01*
X120705900Y-44937578D01*
X120705900Y-45235022D01*
X120763929Y-45526751D01*
X120877756Y-45801553D01*
X121043007Y-46048869D01*
X121253331Y-46259193D01*
X121500647Y-46424444D01*
X121775449Y-46538271D01*
X122067178Y-46596300D01*
X122364622Y-46596300D01*
X122656351Y-46538271D01*
X122931153Y-46424444D01*
X123178469Y-46259193D01*
X123388793Y-46048869D01*
X123554044Y-45801553D01*
X123667871Y-45526751D01*
X123725900Y-45235022D01*
X123725900Y-44937578D01*
X129595900Y-44937578D01*
X129595900Y-45235022D01*
X129653929Y-45526751D01*
X129767756Y-45801553D01*
X129933007Y-46048869D01*
X130143331Y-46259193D01*
X130390647Y-46424444D01*
X130665449Y-46538271D01*
X130957178Y-46596300D01*
X131254622Y-46596300D01*
X131546351Y-46538271D01*
X131821153Y-46424444D01*
X132068469Y-46259193D01*
X132278793Y-46048869D01*
X132444044Y-45801553D01*
X132557871Y-45526751D01*
X132615900Y-45235022D01*
X132615900Y-44937578D01*
X132593980Y-44827376D01*
X133557000Y-44827376D01*
X133557000Y-45345224D01*
X133658027Y-45853122D01*
X133856199Y-46331551D01*
X134143900Y-46762126D01*
X134510074Y-47128300D01*
X134940649Y-47416001D01*
X135419078Y-47614173D01*
X135926976Y-47715200D01*
X136444824Y-47715200D01*
X136952722Y-47614173D01*
X137431151Y-47416001D01*
X137861726Y-47128300D01*
X138227900Y-46762126D01*
X138515601Y-46331551D01*
X138713773Y-45853122D01*
X138814800Y-45345224D01*
X138814800Y-44937578D01*
X139755900Y-44937578D01*
X139755900Y-45235022D01*
X139813929Y-45526751D01*
X139927756Y-45801553D01*
X140093007Y-46048869D01*
X140303331Y-46259193D01*
X140550647Y-46424444D01*
X140825449Y-46538271D01*
X141117178Y-46596300D01*
X141414622Y-46596300D01*
X141706351Y-46538271D01*
X141981153Y-46424444D01*
X142228469Y-46259193D01*
X142438793Y-46048869D01*
X142604044Y-45801553D01*
X142717871Y-45526751D01*
X142775900Y-45235022D01*
X142775900Y-44937578D01*
X142717871Y-44645849D01*
X142604044Y-44371047D01*
X142438793Y-44123731D01*
X142228469Y-43913407D01*
X141981153Y-43748156D01*
X141706351Y-43634329D01*
X141414622Y-43576300D01*
X141117178Y-43576300D01*
X140825449Y-43634329D01*
X140550647Y-43748156D01*
X140303331Y-43913407D01*
X140093007Y-44123731D01*
X139927756Y-44371047D01*
X139813929Y-44645849D01*
X139755900Y-44937578D01*
X138814800Y-44937578D01*
X138814800Y-44827376D01*
X138713773Y-44319478D01*
X138515601Y-43841049D01*
X138227900Y-43410474D01*
X137861726Y-43044300D01*
X137431151Y-42756599D01*
X136952722Y-42558427D01*
X136444824Y-42457400D01*
X135926976Y-42457400D01*
X135419078Y-42558427D01*
X134940649Y-42756599D01*
X134510074Y-43044300D01*
X134143900Y-43410474D01*
X133856199Y-43841049D01*
X133658027Y-44319478D01*
X133557000Y-44827376D01*
X132593980Y-44827376D01*
X132557871Y-44645849D01*
X132444044Y-44371047D01*
X132400782Y-44306300D01*
X132549245Y-44306300D01*
X132889273Y-44238664D01*
X133209573Y-44105992D01*
X133497835Y-43913381D01*
X133742981Y-43668235D01*
X133935592Y-43379973D01*
X134068264Y-43059673D01*
X134135900Y-42719645D01*
X134135900Y-42372955D01*
X134068264Y-42032927D01*
X133935592Y-41712627D01*
X133742981Y-41424365D01*
X133497835Y-41179219D01*
X133209573Y-40986608D01*
X132889273Y-40853936D01*
X132549245Y-40786300D01*
X132202555Y-40786300D01*
X131862527Y-40853936D01*
X131542227Y-40986608D01*
X131253965Y-41179219D01*
X131008819Y-41424365D01*
X130816208Y-41712627D01*
X130683536Y-42032927D01*
X130615900Y-42372955D01*
X130615900Y-42719645D01*
X130683536Y-43059673D01*
X130816208Y-43379973D01*
X130948538Y-43578019D01*
X130665449Y-43634329D01*
X130390647Y-43748156D01*
X130143331Y-43913407D01*
X129933007Y-44123731D01*
X129767756Y-44371047D01*
X129653929Y-44645849D01*
X129595900Y-44937578D01*
X123725900Y-44937578D01*
X123667871Y-44645849D01*
X123554044Y-44371047D01*
X123388793Y-44123731D01*
X123178469Y-43913407D01*
X122931153Y-43748156D01*
X122656351Y-43634329D01*
X122364622Y-43576300D01*
X122067178Y-43576300D01*
X121775449Y-43634329D01*
X121500647Y-43748156D01*
X121253331Y-43913407D01*
X121043007Y-44123731D01*
X120877756Y-44371047D01*
X120763929Y-44645849D01*
X120705900Y-44937578D01*
X119764800Y-44937578D01*
X119764800Y-44827376D01*
X119663773Y-44319478D01*
X119465601Y-43841049D01*
X119177900Y-43410474D01*
X118811726Y-43044300D01*
X118381151Y-42756599D01*
X117902722Y-42558427D01*
X117394824Y-42457400D01*
X116876976Y-42457400D01*
X116369078Y-42558427D01*
X115890649Y-42756599D01*
X115460074Y-43044300D01*
X115093900Y-43410474D01*
X114806199Y-43841049D01*
X114608027Y-44319478D01*
X114507000Y-44827376D01*
X113543980Y-44827376D01*
X113507871Y-44645849D01*
X113394044Y-44371047D01*
X113350782Y-44306300D01*
X113499245Y-44306300D01*
X113839273Y-44238664D01*
X114159573Y-44105992D01*
X114447835Y-43913381D01*
X114692981Y-43668235D01*
X114885592Y-43379973D01*
X115018264Y-43059673D01*
X115085900Y-42719645D01*
X115085900Y-42372955D01*
X115018264Y-42032927D01*
X114885592Y-41712627D01*
X114692981Y-41424365D01*
X114447835Y-41179219D01*
X114159573Y-40986608D01*
X113839273Y-40853936D01*
X113499245Y-40786300D01*
X113152555Y-40786300D01*
X112812527Y-40853936D01*
X112492227Y-40986608D01*
X112203965Y-41179219D01*
X111958819Y-41424365D01*
X111766208Y-41712627D01*
X111633536Y-42032927D01*
X111565900Y-42372955D01*
X111565900Y-42719645D01*
X111633536Y-43059673D01*
X111766208Y-43379973D01*
X111898538Y-43578019D01*
X111615449Y-43634329D01*
X111340647Y-43748156D01*
X111093331Y-43913407D01*
X110883007Y-44123731D01*
X110717756Y-44371047D01*
X110603929Y-44645849D01*
X110545900Y-44937578D01*
X104675900Y-44937578D01*
X104617871Y-44645849D01*
X104504044Y-44371047D01*
X104338793Y-44123731D01*
X104128469Y-43913407D01*
X103881153Y-43748156D01*
X103606351Y-43634329D01*
X103314622Y-43576300D01*
X103017178Y-43576300D01*
X102725449Y-43634329D01*
X102450647Y-43748156D01*
X102203331Y-43913407D01*
X101993007Y-44123731D01*
X101827756Y-44371047D01*
X101713929Y-44645849D01*
X101655900Y-44937578D01*
X100714800Y-44937578D01*
X100714800Y-44827376D01*
X100613773Y-44319478D01*
X100415601Y-43841049D01*
X100127900Y-43410474D01*
X99761726Y-43044300D01*
X99331151Y-42756599D01*
X98852722Y-42558427D01*
X98344824Y-42457400D01*
X97826976Y-42457400D01*
X97319078Y-42558427D01*
X96840649Y-42756599D01*
X96410074Y-43044300D01*
X96043900Y-43410474D01*
X95756199Y-43841049D01*
X95558027Y-44319478D01*
X95457000Y-44827376D01*
X94493980Y-44827376D01*
X94457871Y-44645849D01*
X94344044Y-44371047D01*
X94300782Y-44306300D01*
X94449245Y-44306300D01*
X94789273Y-44238664D01*
X95109573Y-44105992D01*
X95397835Y-43913381D01*
X95642981Y-43668235D01*
X95835592Y-43379973D01*
X95968264Y-43059673D01*
X96035900Y-42719645D01*
X96035900Y-42372955D01*
X95968264Y-42032927D01*
X95835592Y-41712627D01*
X95642981Y-41424365D01*
X95397835Y-41179219D01*
X95109573Y-40986608D01*
X94789273Y-40853936D01*
X94449245Y-40786300D01*
X94102555Y-40786300D01*
X93762527Y-40853936D01*
X93442227Y-40986608D01*
X93153965Y-41179219D01*
X92908819Y-41424365D01*
X92716208Y-41712627D01*
X92583536Y-42032927D01*
X92515900Y-42372955D01*
X92515900Y-42719645D01*
X92583536Y-43059673D01*
X92716208Y-43379973D01*
X92848538Y-43578019D01*
X92565449Y-43634329D01*
X92290647Y-43748156D01*
X92043331Y-43913407D01*
X91833007Y-44123731D01*
X91667756Y-44371047D01*
X91553929Y-44645849D01*
X91495900Y-44937578D01*
X85625900Y-44937578D01*
X85567871Y-44645849D01*
X85454044Y-44371047D01*
X85288793Y-44123731D01*
X85078469Y-43913407D01*
X84831153Y-43748156D01*
X84556351Y-43634329D01*
X84264622Y-43576300D01*
X83967178Y-43576300D01*
X83675449Y-43634329D01*
X83400647Y-43748156D01*
X83153331Y-43913407D01*
X82943007Y-44123731D01*
X82777756Y-44371047D01*
X82663929Y-44645849D01*
X82605900Y-44937578D01*
X81664800Y-44937578D01*
X81664800Y-44827376D01*
X81563773Y-44319478D01*
X81365601Y-43841049D01*
X81077900Y-43410474D01*
X80711726Y-43044300D01*
X80281151Y-42756599D01*
X79802722Y-42558427D01*
X79294824Y-42457400D01*
X78776976Y-42457400D01*
X78269078Y-42558427D01*
X77790649Y-42756599D01*
X77360074Y-43044300D01*
X76993900Y-43410474D01*
X76706199Y-43841049D01*
X76508027Y-44319478D01*
X76407000Y-44827376D01*
X75443980Y-44827376D01*
X75407871Y-44645849D01*
X75294044Y-44371047D01*
X75250782Y-44306300D01*
X75399245Y-44306300D01*
X75739273Y-44238664D01*
X76059573Y-44105992D01*
X76347835Y-43913381D01*
X76592981Y-43668235D01*
X76785592Y-43379973D01*
X76918264Y-43059673D01*
X76985900Y-42719645D01*
X76985900Y-42372955D01*
X76918264Y-42032927D01*
X76785592Y-41712627D01*
X76592981Y-41424365D01*
X76347835Y-41179219D01*
X76059573Y-40986608D01*
X75739273Y-40853936D01*
X75399245Y-40786300D01*
X75052555Y-40786300D01*
X74712527Y-40853936D01*
X74392227Y-40986608D01*
X74103965Y-41179219D01*
X73858819Y-41424365D01*
X73666208Y-41712627D01*
X73533536Y-42032927D01*
X73465900Y-42372955D01*
X73465900Y-42719645D01*
X73533536Y-43059673D01*
X73666208Y-43379973D01*
X73798538Y-43578019D01*
X73515449Y-43634329D01*
X73240647Y-43748156D01*
X72993331Y-43913407D01*
X72783007Y-44123731D01*
X72617756Y-44371047D01*
X72503929Y-44645849D01*
X72445900Y-44937578D01*
X42526477Y-44937578D01*
X42526540Y-41554065D01*
X58934400Y-41554065D01*
X58934400Y-41757943D01*
X58974174Y-41957902D01*
X59052195Y-42146260D01*
X59165463Y-42315778D01*
X59309626Y-42459941D01*
X59479144Y-42573209D01*
X59667502Y-42651230D01*
X59867461Y-42691004D01*
X60071339Y-42691004D01*
X60271298Y-42651230D01*
X60459656Y-42573209D01*
X60629174Y-42459941D01*
X60773337Y-42315778D01*
X60886605Y-42146260D01*
X60964626Y-41957902D01*
X61004400Y-41757943D01*
X61004400Y-41698634D01*
X61936892Y-40766142D01*
X61960397Y-40761467D01*
X62148755Y-40683446D01*
X62318273Y-40570178D01*
X62462436Y-40426015D01*
X62575704Y-40256497D01*
X62653725Y-40068139D01*
X62693499Y-39868180D01*
X62693499Y-39832955D01*
X79815900Y-39832955D01*
X79815900Y-40179645D01*
X79883536Y-40519673D01*
X80016208Y-40839973D01*
X80208819Y-41128235D01*
X80453965Y-41373381D01*
X80742227Y-41565992D01*
X81062527Y-41698664D01*
X81402555Y-41766300D01*
X81749245Y-41766300D01*
X82089273Y-41698664D01*
X82409573Y-41565992D01*
X82697835Y-41373381D01*
X82942981Y-41128235D01*
X83135592Y-40839973D01*
X83268264Y-40519673D01*
X83335900Y-40179645D01*
X83335900Y-39832955D01*
X98865900Y-39832955D01*
X98865900Y-40179645D01*
X98933536Y-40519673D01*
X99066208Y-40839973D01*
X99258819Y-41128235D01*
X99503965Y-41373381D01*
X99792227Y-41565992D01*
X100112527Y-41698664D01*
X100452555Y-41766300D01*
X100799245Y-41766300D01*
X101139273Y-41698664D01*
X101459573Y-41565992D01*
X101747835Y-41373381D01*
X101992981Y-41128235D01*
X102185592Y-40839973D01*
X102318264Y-40519673D01*
X102385900Y-40179645D01*
X102385900Y-39832955D01*
X117915900Y-39832955D01*
X117915900Y-40179645D01*
X117983536Y-40519673D01*
X118116208Y-40839973D01*
X118308819Y-41128235D01*
X118553965Y-41373381D01*
X118842227Y-41565992D01*
X119162527Y-41698664D01*
X119502555Y-41766300D01*
X119849245Y-41766300D01*
X120189273Y-41698664D01*
X120509573Y-41565992D01*
X120797835Y-41373381D01*
X121042981Y-41128235D01*
X121235592Y-40839973D01*
X121368264Y-40519673D01*
X121435900Y-40179645D01*
X121435900Y-39832955D01*
X136965900Y-39832955D01*
X136965900Y-40179645D01*
X137033536Y-40519673D01*
X137166208Y-40839973D01*
X137358819Y-41128235D01*
X137603965Y-41373381D01*
X137892227Y-41565992D01*
X138212527Y-41698664D01*
X138552555Y-41766300D01*
X138899245Y-41766300D01*
X139239273Y-41698664D01*
X139559573Y-41565992D01*
X139847835Y-41373381D01*
X140092981Y-41128235D01*
X140285592Y-40839973D01*
X140418264Y-40519673D01*
X140485900Y-40179645D01*
X140485900Y-39832955D01*
X140418264Y-39492927D01*
X140285592Y-39172627D01*
X140092981Y-38884365D01*
X139847835Y-38639219D01*
X139559573Y-38446608D01*
X139239273Y-38313936D01*
X138899245Y-38246300D01*
X138552555Y-38246300D01*
X138212527Y-38313936D01*
X137892227Y-38446608D01*
X137603965Y-38639219D01*
X137358819Y-38884365D01*
X137166208Y-39172627D01*
X137033536Y-39492927D01*
X136965900Y-39832955D01*
X121435900Y-39832955D01*
X121368264Y-39492927D01*
X121235592Y-39172627D01*
X121042981Y-38884365D01*
X120797835Y-38639219D01*
X120509573Y-38446608D01*
X120189273Y-38313936D01*
X119849245Y-38246300D01*
X119502555Y-38246300D01*
X119162527Y-38313936D01*
X118842227Y-38446608D01*
X118553965Y-38639219D01*
X118308819Y-38884365D01*
X118116208Y-39172627D01*
X117983536Y-39492927D01*
X117915900Y-39832955D01*
X102385900Y-39832955D01*
X102318264Y-39492927D01*
X102185592Y-39172627D01*
X101992981Y-38884365D01*
X101747835Y-38639219D01*
X101459573Y-38446608D01*
X101139273Y-38313936D01*
X100799245Y-38246300D01*
X100452555Y-38246300D01*
X100112527Y-38313936D01*
X99792227Y-38446608D01*
X99503965Y-38639219D01*
X99258819Y-38884365D01*
X99066208Y-39172627D01*
X98933536Y-39492927D01*
X98865900Y-39832955D01*
X83335900Y-39832955D01*
X83268264Y-39492927D01*
X83135592Y-39172627D01*
X82942981Y-38884365D01*
X82697835Y-38639219D01*
X82409573Y-38446608D01*
X82089273Y-38313936D01*
X81749245Y-38246300D01*
X81402555Y-38246300D01*
X81062527Y-38313936D01*
X80742227Y-38446608D01*
X80453965Y-38639219D01*
X80208819Y-38884365D01*
X80016208Y-39172627D01*
X79883536Y-39492927D01*
X79815900Y-39832955D01*
X62693499Y-39832955D01*
X62693499Y-39664302D01*
X62653725Y-39464343D01*
X62575704Y-39275985D01*
X62462436Y-39106467D01*
X62318273Y-38962304D01*
X62148755Y-38849036D01*
X61960397Y-38771015D01*
X61760438Y-38731241D01*
X61556560Y-38731241D01*
X61356601Y-38771015D01*
X61168243Y-38849036D01*
X60998725Y-38962304D01*
X60854562Y-39106467D01*
X60741294Y-39275985D01*
X60663273Y-39464343D01*
X60623499Y-39664302D01*
X60623499Y-39868180D01*
X60632806Y-39914968D01*
X59926770Y-40621004D01*
X59867461Y-40621004D01*
X59667502Y-40660778D01*
X59479144Y-40738799D01*
X59309626Y-40852067D01*
X59165463Y-40996230D01*
X59052195Y-41165748D01*
X58974174Y-41354106D01*
X58934400Y-41554065D01*
X42526540Y-41554065D01*
X42526650Y-35643478D01*
X57398503Y-35643478D01*
X57398503Y-35847356D01*
X57438277Y-36047315D01*
X57516298Y-36235673D01*
X57629566Y-36405191D01*
X57773729Y-36549354D01*
X57943247Y-36662622D01*
X58131605Y-36740643D01*
X58331564Y-36780417D01*
X58535442Y-36780417D01*
X58735401Y-36740643D01*
X58923759Y-36662622D01*
X59093277Y-36549354D01*
X59135211Y-36507420D01*
X62704311Y-36507420D01*
X62746248Y-36549357D01*
X62915766Y-36662625D01*
X63104124Y-36740646D01*
X63304083Y-36780420D01*
X63507961Y-36780420D01*
X63707920Y-36740646D01*
X63896278Y-36662625D01*
X64065796Y-36549357D01*
X64209959Y-36405194D01*
X64323227Y-36235676D01*
X64401248Y-36047318D01*
X64441022Y-35847359D01*
X64441022Y-35643481D01*
X64401248Y-35443522D01*
X64323227Y-35255164D01*
X64209959Y-35085646D01*
X64065796Y-34941483D01*
X63896278Y-34828215D01*
X63707920Y-34750194D01*
X63507961Y-34710420D01*
X63304083Y-34710420D01*
X63104124Y-34750194D01*
X62915766Y-34828215D01*
X62746248Y-34941483D01*
X62704311Y-34983420D01*
X59135217Y-34983420D01*
X59093277Y-34941480D01*
X58923759Y-34828212D01*
X58735401Y-34750191D01*
X58535442Y-34710417D01*
X58331564Y-34710417D01*
X58131605Y-34750191D01*
X57943247Y-34828212D01*
X57773729Y-34941480D01*
X57629566Y-35085643D01*
X57516298Y-35255161D01*
X57438277Y-35443519D01*
X57398503Y-35643478D01*
X42526650Y-35643478D01*
X42526755Y-30000685D01*
X42693800Y-30000685D01*
X42693800Y-30756115D01*
X42841177Y-31497028D01*
X43130267Y-32194954D01*
X43549961Y-32823070D01*
X44084130Y-33357239D01*
X44712246Y-33776933D01*
X45410172Y-34066023D01*
X46151085Y-34213400D01*
X46906515Y-34213400D01*
X47647428Y-34066023D01*
X48345354Y-33776933D01*
X48973470Y-33357239D01*
X49507639Y-32823070D01*
X49558868Y-32746400D01*
X55457400Y-32746400D01*
X55457400Y-33296400D01*
X55503985Y-33515387D01*
X55592397Y-33721078D01*
X55719239Y-33905569D01*
X55879636Y-34061769D01*
X56067424Y-34183676D01*
X56290526Y-34263519D01*
X56465400Y-34137354D01*
X56465400Y-32746400D01*
X55457400Y-32746400D01*
X49558868Y-32746400D01*
X49927333Y-32194954D01*
X50031944Y-31942400D01*
X55457400Y-31942400D01*
X55457400Y-32492400D01*
X56465400Y-32492400D01*
X56465400Y-31101446D01*
X56719400Y-31101446D01*
X56719400Y-32492400D01*
X56739400Y-32492400D01*
X56739400Y-32746400D01*
X56719400Y-32746400D01*
X56719400Y-34137354D01*
X56894274Y-34263519D01*
X57117376Y-34183676D01*
X57305164Y-34061769D01*
X57465561Y-33905569D01*
X57592403Y-33721078D01*
X57680815Y-33515387D01*
X57727400Y-33296400D01*
X57727400Y-33006304D01*
X57742378Y-33012508D01*
X57927848Y-33049400D01*
X58116952Y-33049400D01*
X58302422Y-33012508D01*
X58477131Y-32940141D01*
X58634364Y-32835081D01*
X58768081Y-32701364D01*
X58873141Y-32544131D01*
X58945508Y-32369422D01*
X58982400Y-32183952D01*
X58982400Y-31994848D01*
X62842400Y-31994848D01*
X62842400Y-32183952D01*
X62879292Y-32369422D01*
X62951659Y-32544131D01*
X63056719Y-32701364D01*
X63190436Y-32835081D01*
X63347669Y-32940141D01*
X63522378Y-33012508D01*
X63707848Y-33049400D01*
X63896952Y-33049400D01*
X64082422Y-33012508D01*
X64097400Y-33006304D01*
X64097400Y-33296400D01*
X64143985Y-33515387D01*
X64232397Y-33721078D01*
X64359239Y-33905569D01*
X64519636Y-34061769D01*
X64707424Y-34183676D01*
X64930526Y-34263519D01*
X65105400Y-34137354D01*
X65105400Y-32746400D01*
X65359400Y-32746400D01*
X65359400Y-34137354D01*
X65534274Y-34263519D01*
X65757376Y-34183676D01*
X65945164Y-34061769D01*
X66105561Y-33905569D01*
X66138361Y-33857861D01*
X67517620Y-33857861D01*
X67517620Y-34061739D01*
X67557394Y-34261698D01*
X67635415Y-34450056D01*
X67748683Y-34619574D01*
X67892846Y-34763737D01*
X68062364Y-34877005D01*
X68250722Y-34955026D01*
X68450681Y-34994800D01*
X68654559Y-34994800D01*
X68854518Y-34955026D01*
X69042876Y-34877005D01*
X69212394Y-34763737D01*
X69249251Y-34726880D01*
X79282889Y-34726880D01*
X79324826Y-34768817D01*
X79494344Y-34882085D01*
X79682702Y-34960106D01*
X79882661Y-34999880D01*
X80086539Y-34999880D01*
X80286498Y-34960106D01*
X80474856Y-34882085D01*
X80644374Y-34768817D01*
X80686311Y-34726880D01*
X98386229Y-34726880D01*
X98428166Y-34768817D01*
X98597684Y-34882085D01*
X98786042Y-34960106D01*
X98986001Y-34999880D01*
X99189879Y-34999880D01*
X99389838Y-34960106D01*
X99578196Y-34882085D01*
X99747714Y-34768817D01*
X99789651Y-34726880D01*
X117514969Y-34726880D01*
X117556906Y-34768817D01*
X117726424Y-34882085D01*
X117914782Y-34960106D01*
X118114741Y-34999880D01*
X118318619Y-34999880D01*
X118518578Y-34960106D01*
X118706936Y-34882085D01*
X118876454Y-34768817D01*
X118918391Y-34726880D01*
X136435429Y-34726880D01*
X136477366Y-34768817D01*
X136646884Y-34882085D01*
X136835242Y-34960106D01*
X137035201Y-34999880D01*
X137239079Y-34999880D01*
X137439038Y-34960106D01*
X137627396Y-34882085D01*
X137796914Y-34768817D01*
X137941077Y-34624654D01*
X138054345Y-34455136D01*
X138132366Y-34266778D01*
X138172140Y-34066819D01*
X138172140Y-33862941D01*
X138132366Y-33662982D01*
X138054345Y-33474624D01*
X137941077Y-33305106D01*
X137796914Y-33160943D01*
X137627396Y-33047675D01*
X137439038Y-32969654D01*
X137239079Y-32929880D01*
X137035201Y-32929880D01*
X136835242Y-32969654D01*
X136646884Y-33047675D01*
X136477366Y-33160943D01*
X136435429Y-33202880D01*
X118918391Y-33202880D01*
X118876454Y-33160943D01*
X118706936Y-33047675D01*
X118518578Y-32969654D01*
X118318619Y-32929880D01*
X118114741Y-32929880D01*
X117914782Y-32969654D01*
X117726424Y-33047675D01*
X117556906Y-33160943D01*
X117514969Y-33202880D01*
X99789651Y-33202880D01*
X99747714Y-33160943D01*
X99578196Y-33047675D01*
X99389838Y-32969654D01*
X99189879Y-32929880D01*
X98986001Y-32929880D01*
X98786042Y-32969654D01*
X98597684Y-33047675D01*
X98428166Y-33160943D01*
X98386229Y-33202880D01*
X80686311Y-33202880D01*
X80644374Y-33160943D01*
X80474856Y-33047675D01*
X80286498Y-32969654D01*
X80086539Y-32929880D01*
X79882661Y-32929880D01*
X79682702Y-32969654D01*
X79494344Y-33047675D01*
X79324826Y-33160943D01*
X79282889Y-33202880D01*
X69259411Y-33202880D01*
X69212394Y-33155863D01*
X69042876Y-33042595D01*
X68854518Y-32964574D01*
X68654559Y-32924800D01*
X68450681Y-32924800D01*
X68250722Y-32964574D01*
X68062364Y-33042595D01*
X67892846Y-33155863D01*
X67748683Y-33300026D01*
X67635415Y-33469544D01*
X67557394Y-33657902D01*
X67517620Y-33857861D01*
X66138361Y-33857861D01*
X66232403Y-33721078D01*
X66320815Y-33515387D01*
X66367400Y-33296400D01*
X66367400Y-32746400D01*
X65359400Y-32746400D01*
X65105400Y-32746400D01*
X65085400Y-32746400D01*
X65085400Y-32492400D01*
X65105400Y-32492400D01*
X65105400Y-31101446D01*
X65359400Y-31101446D01*
X65359400Y-32492400D01*
X66367400Y-32492400D01*
X66367400Y-31942400D01*
X66320815Y-31723413D01*
X66232403Y-31517722D01*
X66105561Y-31333231D01*
X65945164Y-31177031D01*
X65757376Y-31055124D01*
X65534274Y-30975281D01*
X65359400Y-31101446D01*
X65105400Y-31101446D01*
X64930526Y-30975281D01*
X64707424Y-31055124D01*
X64519636Y-31177031D01*
X64375284Y-31317606D01*
X64257131Y-31238659D01*
X64082422Y-31166292D01*
X63896952Y-31129400D01*
X63707848Y-31129400D01*
X63522378Y-31166292D01*
X63347669Y-31238659D01*
X63190436Y-31343719D01*
X63056719Y-31477436D01*
X62951659Y-31634669D01*
X62879292Y-31809378D01*
X62842400Y-31994848D01*
X58982400Y-31994848D01*
X58945508Y-31809378D01*
X58873141Y-31634669D01*
X58768081Y-31477436D01*
X58634364Y-31343719D01*
X58477131Y-31238659D01*
X58302422Y-31166292D01*
X58116952Y-31129400D01*
X57927848Y-31129400D01*
X57742378Y-31166292D01*
X57567669Y-31238659D01*
X57449516Y-31317606D01*
X57305164Y-31177031D01*
X57117376Y-31055124D01*
X56894274Y-30975281D01*
X56719400Y-31101446D01*
X56465400Y-31101446D01*
X56290526Y-30975281D01*
X56067424Y-31055124D01*
X55879636Y-31177031D01*
X55719239Y-31333231D01*
X55592397Y-31517722D01*
X55503985Y-31723413D01*
X55457400Y-31942400D01*
X50031944Y-31942400D01*
X50216423Y-31497028D01*
X50363800Y-30756115D01*
X50363800Y-30000685D01*
X50216423Y-29259772D01*
X49929220Y-28566400D01*
X55457400Y-28566400D01*
X55457400Y-28866400D01*
X55503985Y-29085387D01*
X55592397Y-29291078D01*
X55719239Y-29475569D01*
X55879636Y-29631769D01*
X56067424Y-29753676D01*
X56290526Y-29833519D01*
X56465400Y-29707354D01*
X56465400Y-28566400D01*
X56719400Y-28566400D01*
X56719400Y-29707354D01*
X56894274Y-29833519D01*
X57117376Y-29753676D01*
X57305164Y-29631769D01*
X57465561Y-29475569D01*
X57592403Y-29291078D01*
X57680815Y-29085387D01*
X57727400Y-28866400D01*
X57727400Y-28566400D01*
X64097400Y-28566400D01*
X64097400Y-28866400D01*
X64143985Y-29085387D01*
X64232397Y-29291078D01*
X64359239Y-29475569D01*
X64519636Y-29631769D01*
X64707424Y-29753676D01*
X64930526Y-29833519D01*
X65105400Y-29707354D01*
X65105400Y-28566400D01*
X65359400Y-28566400D01*
X65359400Y-29707354D01*
X65534274Y-29833519D01*
X65757376Y-29753676D01*
X65906758Y-29656701D01*
X66668700Y-29656701D01*
X66668700Y-29860579D01*
X66708474Y-30060538D01*
X66786495Y-30248896D01*
X66899763Y-30418414D01*
X67043926Y-30562577D01*
X67213444Y-30675845D01*
X67401802Y-30753866D01*
X67601761Y-30793640D01*
X67805639Y-30793640D01*
X68005598Y-30753866D01*
X68193956Y-30675845D01*
X68363474Y-30562577D01*
X68400331Y-30525720D01*
X70022049Y-30525720D01*
X70063986Y-30567657D01*
X70233504Y-30680925D01*
X70421862Y-30758946D01*
X70621821Y-30798720D01*
X70825699Y-30798720D01*
X71025658Y-30758946D01*
X71214016Y-30680925D01*
X71383534Y-30567657D01*
X71425471Y-30525720D01*
X89148249Y-30525720D01*
X89190186Y-30567657D01*
X89359704Y-30680925D01*
X89548062Y-30758946D01*
X89748021Y-30798720D01*
X89951899Y-30798720D01*
X90151858Y-30758946D01*
X90340216Y-30680925D01*
X90509734Y-30567657D01*
X90551671Y-30525720D01*
X108218569Y-30525720D01*
X108260506Y-30567657D01*
X108430024Y-30680925D01*
X108618382Y-30758946D01*
X108818341Y-30798720D01*
X109022219Y-30798720D01*
X109222178Y-30758946D01*
X109410536Y-30680925D01*
X109580054Y-30567657D01*
X109621991Y-30525720D01*
X127235549Y-30525720D01*
X127274946Y-30565117D01*
X127444464Y-30678385D01*
X127632822Y-30756406D01*
X127832781Y-30796180D01*
X128036659Y-30796180D01*
X128236618Y-30756406D01*
X128424976Y-30678385D01*
X128594494Y-30565117D01*
X128738657Y-30420954D01*
X128851925Y-30251436D01*
X128929946Y-30063078D01*
X128942356Y-30000685D01*
X147066400Y-30000685D01*
X147066400Y-30756115D01*
X147213777Y-31497028D01*
X147502867Y-32194954D01*
X147922561Y-32823070D01*
X148456730Y-33357239D01*
X149084846Y-33776933D01*
X149782772Y-34066023D01*
X150523685Y-34213400D01*
X151279115Y-34213400D01*
X152020028Y-34066023D01*
X152717954Y-33776933D01*
X153346070Y-33357239D01*
X153880239Y-32823070D01*
X154299933Y-32194954D01*
X154589023Y-31497028D01*
X154736400Y-30756115D01*
X154736400Y-30000685D01*
X154589023Y-29259772D01*
X154299933Y-28561846D01*
X153880239Y-27933730D01*
X153346070Y-27399561D01*
X152717954Y-26979867D01*
X152020028Y-26690777D01*
X151279115Y-26543400D01*
X150523685Y-26543400D01*
X149782772Y-26690777D01*
X149084846Y-26979867D01*
X148456730Y-27399561D01*
X147922561Y-27933730D01*
X147502867Y-28561846D01*
X147213777Y-29259772D01*
X147066400Y-30000685D01*
X128942356Y-30000685D01*
X128969720Y-29863119D01*
X128969720Y-29659241D01*
X128929946Y-29459282D01*
X128851925Y-29270924D01*
X128738657Y-29101406D01*
X128594494Y-28957243D01*
X128424976Y-28843975D01*
X128236618Y-28765954D01*
X128036659Y-28726180D01*
X127832781Y-28726180D01*
X127632822Y-28765954D01*
X127444464Y-28843975D01*
X127274946Y-28957243D01*
X127230469Y-29001720D01*
X109621991Y-29001720D01*
X109580054Y-28959783D01*
X109410536Y-28846515D01*
X109222178Y-28768494D01*
X109022219Y-28728720D01*
X108818341Y-28728720D01*
X108618382Y-28768494D01*
X108430024Y-28846515D01*
X108260506Y-28959783D01*
X108218569Y-29001720D01*
X90551671Y-29001720D01*
X90509734Y-28959783D01*
X90340216Y-28846515D01*
X90151858Y-28768494D01*
X89951899Y-28728720D01*
X89748021Y-28728720D01*
X89548062Y-28768494D01*
X89359704Y-28846515D01*
X89190186Y-28959783D01*
X89148249Y-29001720D01*
X71425471Y-29001720D01*
X71383534Y-28959783D01*
X71214016Y-28846515D01*
X71025658Y-28768494D01*
X70825699Y-28728720D01*
X70621821Y-28728720D01*
X70421862Y-28768494D01*
X70233504Y-28846515D01*
X70063986Y-28959783D01*
X70022049Y-29001720D01*
X69016986Y-29001720D01*
X68965406Y-28996640D01*
X68405411Y-28996640D01*
X68363474Y-28954703D01*
X68193956Y-28841435D01*
X68005598Y-28763414D01*
X67805639Y-28723640D01*
X67601761Y-28723640D01*
X67401802Y-28763414D01*
X67213444Y-28841435D01*
X67043926Y-28954703D01*
X66899763Y-29098866D01*
X66786495Y-29268384D01*
X66708474Y-29456742D01*
X66668700Y-29656701D01*
X65906758Y-29656701D01*
X65945164Y-29631769D01*
X66105561Y-29475569D01*
X66232403Y-29291078D01*
X66320815Y-29085387D01*
X66367400Y-28866400D01*
X66367400Y-28566400D01*
X65359400Y-28566400D01*
X65105400Y-28566400D01*
X64097400Y-28566400D01*
X57727400Y-28566400D01*
X56719400Y-28566400D01*
X56465400Y-28566400D01*
X55457400Y-28566400D01*
X49929220Y-28566400D01*
X49927333Y-28561846D01*
X49560205Y-28012400D01*
X55457400Y-28012400D01*
X55457400Y-28312400D01*
X56465400Y-28312400D01*
X56465400Y-27171446D01*
X56719400Y-27171446D01*
X56719400Y-28312400D01*
X57727400Y-28312400D01*
X57727400Y-28012400D01*
X64097400Y-28012400D01*
X64097400Y-28312400D01*
X65105400Y-28312400D01*
X65105400Y-27171446D01*
X65359400Y-27171446D01*
X65359400Y-28312400D01*
X66367400Y-28312400D01*
X66367400Y-28012400D01*
X66320815Y-27793413D01*
X66232403Y-27587722D01*
X66105561Y-27403231D01*
X65945164Y-27247031D01*
X65757376Y-27125124D01*
X65534274Y-27045281D01*
X65359400Y-27171446D01*
X65105400Y-27171446D01*
X64930526Y-27045281D01*
X64707424Y-27125124D01*
X64519636Y-27247031D01*
X64359239Y-27403231D01*
X64232397Y-27587722D01*
X64143985Y-27793413D01*
X64097400Y-28012400D01*
X57727400Y-28012400D01*
X57680815Y-27793413D01*
X57592403Y-27587722D01*
X57465561Y-27403231D01*
X57305164Y-27247031D01*
X57117376Y-27125124D01*
X56894274Y-27045281D01*
X56719400Y-27171446D01*
X56465400Y-27171446D01*
X56290526Y-27045281D01*
X56067424Y-27125124D01*
X55879636Y-27247031D01*
X55719239Y-27403231D01*
X55592397Y-27587722D01*
X55503985Y-27793413D01*
X55457400Y-28012400D01*
X49560205Y-28012400D01*
X49507639Y-27933730D01*
X48973470Y-27399561D01*
X48345354Y-26979867D01*
X47647428Y-26690777D01*
X46906515Y-26543400D01*
X46151085Y-26543400D01*
X45410172Y-26690777D01*
X44712246Y-26979867D01*
X44084130Y-27399561D01*
X43549961Y-27933730D01*
X43130267Y-28561846D01*
X42841177Y-29259772D01*
X42693800Y-30000685D01*
X42526755Y-30000685D01*
X42526823Y-26373900D01*
X154893200Y-26373900D01*
X154893201Y-82792760D01*
%TA.AperFunction,Conductor*%
D18*
G36*
X154893201Y-82792760D02*
G01*
X42525776Y-82792760D01*
X42525857Y-78413085D01*
X42693800Y-78413085D01*
X42693800Y-79168515D01*
X42841177Y-79909428D01*
X43130267Y-80607354D01*
X43549961Y-81235470D01*
X44084130Y-81769639D01*
X44712246Y-82189333D01*
X45410172Y-82478423D01*
X46151085Y-82625800D01*
X46906515Y-82625800D01*
X47647428Y-82478423D01*
X48345354Y-82189333D01*
X48973470Y-81769639D01*
X49507639Y-81235470D01*
X49927333Y-80607354D01*
X50216423Y-79909428D01*
X50363800Y-79168515D01*
X50363800Y-78413085D01*
X147066400Y-78413085D01*
X147066400Y-79168515D01*
X147213777Y-79909428D01*
X147502867Y-80607354D01*
X147922561Y-81235470D01*
X148456730Y-81769639D01*
X149084846Y-82189333D01*
X149782772Y-82478423D01*
X150523685Y-82625800D01*
X151279115Y-82625800D01*
X152020028Y-82478423D01*
X152717954Y-82189333D01*
X153346070Y-81769639D01*
X153880239Y-81235470D01*
X154299933Y-80607354D01*
X154589023Y-79909428D01*
X154736400Y-79168515D01*
X154736400Y-78413085D01*
X154589023Y-77672172D01*
X154299933Y-76974246D01*
X153880239Y-76346130D01*
X153346070Y-75811961D01*
X152717954Y-75392267D01*
X152020028Y-75103177D01*
X151279115Y-74955800D01*
X150523685Y-74955800D01*
X149782772Y-75103177D01*
X149084846Y-75392267D01*
X148456730Y-75811961D01*
X147922561Y-76346130D01*
X147502867Y-76974246D01*
X147213777Y-77672172D01*
X147066400Y-78413085D01*
X50363800Y-78413085D01*
X50216423Y-77672172D01*
X49927333Y-76974246D01*
X49507639Y-76346130D01*
X48973470Y-75811961D01*
X48345354Y-75392267D01*
X47647428Y-75103177D01*
X46906515Y-74955800D01*
X46151085Y-74955800D01*
X45410172Y-75103177D01*
X44712246Y-75392267D01*
X44084130Y-75811961D01*
X43549961Y-76346130D01*
X43130267Y-76974246D01*
X42841177Y-77672172D01*
X42693800Y-78413085D01*
X42525857Y-78413085D01*
X42526179Y-61025701D01*
X55005020Y-61025701D01*
X55005020Y-61229579D01*
X55044794Y-61429538D01*
X55122815Y-61617896D01*
X55236083Y-61787414D01*
X55380246Y-61931577D01*
X55549764Y-62044845D01*
X55738122Y-62122866D01*
X55938081Y-62162640D01*
X56141959Y-62162640D01*
X56341918Y-62122866D01*
X56530276Y-62044845D01*
X56699794Y-61931577D01*
X56843957Y-61787414D01*
X56957225Y-61617896D01*
X57035246Y-61429538D01*
X57075020Y-61229579D01*
X57075020Y-61170270D01*
X65926329Y-52318961D01*
X66836340Y-52318961D01*
X66836340Y-52522839D01*
X66876114Y-52722798D01*
X66954135Y-52911156D01*
X67067403Y-53080674D01*
X67183409Y-53196680D01*
X67080103Y-53299986D01*
X66966835Y-53469504D01*
X66888814Y-53657862D01*
X66849040Y-53857821D01*
X66849040Y-54061699D01*
X66888814Y-54261658D01*
X66966835Y-54450016D01*
X67080103Y-54619534D01*
X67224266Y-54763697D01*
X67393784Y-54876965D01*
X67582142Y-54954986D01*
X67782101Y-54994760D01*
X67901142Y-54994760D01*
X67914974Y-55064298D01*
X67992995Y-55252656D01*
X68106263Y-55422174D01*
X68250426Y-55566337D01*
X68419944Y-55679605D01*
X68608302Y-55757626D01*
X68808261Y-55797400D01*
X68867570Y-55797400D01*
X73732934Y-60662764D01*
X73666208Y-60762627D01*
X73533536Y-61082927D01*
X73465900Y-61422955D01*
X73465900Y-61769645D01*
X73533536Y-62109673D01*
X73666208Y-62429973D01*
X73798538Y-62628019D01*
X73515449Y-62684329D01*
X73240647Y-62798156D01*
X72993331Y-62963407D01*
X72783007Y-63173731D01*
X72617756Y-63421047D01*
X72503929Y-63695849D01*
X72445900Y-63987578D01*
X72445900Y-64285022D01*
X72503929Y-64576751D01*
X72617756Y-64851553D01*
X72783007Y-65098869D01*
X72993331Y-65309193D01*
X73240647Y-65474444D01*
X73515449Y-65588271D01*
X73807178Y-65646300D01*
X74104622Y-65646300D01*
X74396351Y-65588271D01*
X74671153Y-65474444D01*
X74918469Y-65309193D01*
X75128793Y-65098869D01*
X75294044Y-64851553D01*
X75407871Y-64576751D01*
X75465900Y-64285022D01*
X75465900Y-63987578D01*
X75443980Y-63877376D01*
X76407000Y-63877376D01*
X76407000Y-64395224D01*
X76508027Y-64903122D01*
X76706199Y-65381551D01*
X76993900Y-65812126D01*
X77360074Y-66178300D01*
X77790649Y-66466001D01*
X78269078Y-66664173D01*
X78776976Y-66765200D01*
X79294824Y-66765200D01*
X79802722Y-66664173D01*
X80281151Y-66466001D01*
X80711726Y-66178300D01*
X81077900Y-65812126D01*
X81365601Y-65381551D01*
X81563773Y-64903122D01*
X81664800Y-64395224D01*
X81664800Y-63987578D01*
X82605900Y-63987578D01*
X82605900Y-64285022D01*
X82663929Y-64576751D01*
X82777756Y-64851553D01*
X82943007Y-65098869D01*
X83153331Y-65309193D01*
X83400647Y-65474444D01*
X83675449Y-65588271D01*
X83967178Y-65646300D01*
X84264622Y-65646300D01*
X84556351Y-65588271D01*
X84831153Y-65474444D01*
X85078469Y-65309193D01*
X85288793Y-65098869D01*
X85454044Y-64851553D01*
X85567871Y-64576751D01*
X85625900Y-64285022D01*
X85625900Y-63987578D01*
X85567871Y-63695849D01*
X85454044Y-63421047D01*
X85288793Y-63173731D01*
X85078469Y-62963407D01*
X84831153Y-62798156D01*
X84556351Y-62684329D01*
X84264622Y-62626300D01*
X83967178Y-62626300D01*
X83675449Y-62684329D01*
X83400647Y-62798156D01*
X83153331Y-62963407D01*
X82943007Y-63173731D01*
X82777756Y-63421047D01*
X82663929Y-63695849D01*
X82605900Y-63987578D01*
X81664800Y-63987578D01*
X81664800Y-63877376D01*
X81563773Y-63369478D01*
X81365601Y-62891049D01*
X81077900Y-62460474D01*
X80711726Y-62094300D01*
X80281151Y-61806599D01*
X79802722Y-61608427D01*
X79294824Y-61507400D01*
X78776976Y-61507400D01*
X78269078Y-61608427D01*
X77790649Y-61806599D01*
X77360074Y-62094300D01*
X76993900Y-62460474D01*
X76706199Y-62891049D01*
X76508027Y-63369478D01*
X76407000Y-63877376D01*
X75443980Y-63877376D01*
X75407871Y-63695849D01*
X75294044Y-63421047D01*
X75250782Y-63356300D01*
X75399245Y-63356300D01*
X75739273Y-63288664D01*
X76059573Y-63155992D01*
X76347835Y-62963381D01*
X76592981Y-62718235D01*
X76785592Y-62429973D01*
X76918264Y-62109673D01*
X76985900Y-61769645D01*
X76985900Y-61422955D01*
X76918264Y-61082927D01*
X76785592Y-60762627D01*
X76592981Y-60474365D01*
X76347835Y-60229219D01*
X76059573Y-60036608D01*
X75739273Y-59903936D01*
X75399245Y-59836300D01*
X75061730Y-59836300D01*
X74108385Y-58882955D01*
X79815900Y-58882955D01*
X79815900Y-59229645D01*
X79883536Y-59569673D01*
X80016208Y-59889973D01*
X80208819Y-60178235D01*
X80453965Y-60423381D01*
X80742227Y-60615992D01*
X81062527Y-60748664D01*
X81402555Y-60816300D01*
X81749245Y-60816300D01*
X82089273Y-60748664D01*
X82409573Y-60615992D01*
X82697835Y-60423381D01*
X82942981Y-60178235D01*
X83135592Y-59889973D01*
X83268264Y-59569673D01*
X83335900Y-59229645D01*
X83335900Y-58882955D01*
X83268264Y-58542927D01*
X83135592Y-58222627D01*
X82942981Y-57934365D01*
X82697835Y-57689219D01*
X82409573Y-57496608D01*
X82089273Y-57363936D01*
X81749245Y-57296300D01*
X81402555Y-57296300D01*
X81062527Y-57363936D01*
X80742227Y-57496608D01*
X80453965Y-57689219D01*
X80208819Y-57934365D01*
X80016208Y-58222627D01*
X79883536Y-58542927D01*
X79815900Y-58882955D01*
X74108385Y-58882955D01*
X69947190Y-54721760D01*
X86323730Y-54721760D01*
X92613224Y-61011254D01*
X92583536Y-61082927D01*
X92515900Y-61422955D01*
X92515900Y-61769645D01*
X92583536Y-62109673D01*
X92716208Y-62429973D01*
X92848538Y-62628019D01*
X92565449Y-62684329D01*
X92290647Y-62798156D01*
X92043331Y-62963407D01*
X91833007Y-63173731D01*
X91667756Y-63421047D01*
X91553929Y-63695849D01*
X91495900Y-63987578D01*
X91495900Y-64285022D01*
X91553929Y-64576751D01*
X91667756Y-64851553D01*
X91833007Y-65098869D01*
X92043331Y-65309193D01*
X92290647Y-65474444D01*
X92565449Y-65588271D01*
X92857178Y-65646300D01*
X93154622Y-65646300D01*
X93446351Y-65588271D01*
X93721153Y-65474444D01*
X93968469Y-65309193D01*
X94178793Y-65098869D01*
X94344044Y-64851553D01*
X94457871Y-64576751D01*
X94515900Y-64285022D01*
X94515900Y-63987578D01*
X94493980Y-63877376D01*
X95457000Y-63877376D01*
X95457000Y-64395224D01*
X95558027Y-64903122D01*
X95756199Y-65381551D01*
X96043900Y-65812126D01*
X96410074Y-66178300D01*
X96840649Y-66466001D01*
X97319078Y-66664173D01*
X97826976Y-66765200D01*
X98344824Y-66765200D01*
X98852722Y-66664173D01*
X99331151Y-66466001D01*
X99761726Y-66178300D01*
X100127900Y-65812126D01*
X100415601Y-65381551D01*
X100613773Y-64903122D01*
X100714800Y-64395224D01*
X100714800Y-63987578D01*
X101655900Y-63987578D01*
X101655900Y-64285022D01*
X101713929Y-64576751D01*
X101827756Y-64851553D01*
X101993007Y-65098869D01*
X102203331Y-65309193D01*
X102450647Y-65474444D01*
X102725449Y-65588271D01*
X103017178Y-65646300D01*
X103314622Y-65646300D01*
X103606351Y-65588271D01*
X103881153Y-65474444D01*
X104128469Y-65309193D01*
X104338793Y-65098869D01*
X104504044Y-64851553D01*
X104617871Y-64576751D01*
X104675900Y-64285022D01*
X104675900Y-63987578D01*
X104617871Y-63695849D01*
X104504044Y-63421047D01*
X104338793Y-63173731D01*
X104128469Y-62963407D01*
X103881153Y-62798156D01*
X103606351Y-62684329D01*
X103314622Y-62626300D01*
X103017178Y-62626300D01*
X102725449Y-62684329D01*
X102450647Y-62798156D01*
X102203331Y-62963407D01*
X101993007Y-63173731D01*
X101827756Y-63421047D01*
X101713929Y-63695849D01*
X101655900Y-63987578D01*
X100714800Y-63987578D01*
X100714800Y-63877376D01*
X100613773Y-63369478D01*
X100415601Y-62891049D01*
X100127900Y-62460474D01*
X99761726Y-62094300D01*
X99331151Y-61806599D01*
X98852722Y-61608427D01*
X98344824Y-61507400D01*
X97826976Y-61507400D01*
X97319078Y-61608427D01*
X96840649Y-61806599D01*
X96410074Y-62094300D01*
X96043900Y-62460474D01*
X95756199Y-62891049D01*
X95558027Y-63369478D01*
X95457000Y-63877376D01*
X94493980Y-63877376D01*
X94457871Y-63695849D01*
X94344044Y-63421047D01*
X94300782Y-63356300D01*
X94449245Y-63356300D01*
X94789273Y-63288664D01*
X95109573Y-63155992D01*
X95397835Y-62963381D01*
X95642981Y-62718235D01*
X95835592Y-62429973D01*
X95968264Y-62109673D01*
X96035900Y-61769645D01*
X96035900Y-61422955D01*
X95968264Y-61082927D01*
X95835592Y-60762627D01*
X95642981Y-60474365D01*
X95397835Y-60229219D01*
X95109573Y-60036608D01*
X94789273Y-59903936D01*
X94449245Y-59836300D01*
X94102555Y-59836300D01*
X93762527Y-59903936D01*
X93690854Y-59933624D01*
X92640185Y-58882955D01*
X98865900Y-58882955D01*
X98865900Y-59229645D01*
X98933536Y-59569673D01*
X99066208Y-59889973D01*
X99258819Y-60178235D01*
X99503965Y-60423381D01*
X99792227Y-60615992D01*
X100112527Y-60748664D01*
X100452555Y-60816300D01*
X100799245Y-60816300D01*
X101139273Y-60748664D01*
X101459573Y-60615992D01*
X101747835Y-60423381D01*
X101992981Y-60178235D01*
X102185592Y-59889973D01*
X102318264Y-59569673D01*
X102385900Y-59229645D01*
X102385900Y-58882955D01*
X102318264Y-58542927D01*
X102185592Y-58222627D01*
X101992981Y-57934365D01*
X101747835Y-57689219D01*
X101459573Y-57496608D01*
X101139273Y-57363936D01*
X100799245Y-57296300D01*
X100452555Y-57296300D01*
X100112527Y-57363936D01*
X99792227Y-57496608D01*
X99503965Y-57689219D01*
X99258819Y-57934365D01*
X99066208Y-58222627D01*
X98933536Y-58542927D01*
X98865900Y-58882955D01*
X92640185Y-58882955D01*
X87671270Y-53914040D01*
X104566010Y-53914040D01*
X111663224Y-61011254D01*
X111633536Y-61082927D01*
X111565900Y-61422955D01*
X111565900Y-61769645D01*
X111633536Y-62109673D01*
X111766208Y-62429973D01*
X111898538Y-62628019D01*
X111615449Y-62684329D01*
X111340647Y-62798156D01*
X111093331Y-62963407D01*
X110883007Y-63173731D01*
X110717756Y-63421047D01*
X110603929Y-63695849D01*
X110545900Y-63987578D01*
X110545900Y-64285022D01*
X110603929Y-64576751D01*
X110717756Y-64851553D01*
X110883007Y-65098869D01*
X111093331Y-65309193D01*
X111340647Y-65474444D01*
X111615449Y-65588271D01*
X111907178Y-65646300D01*
X112204622Y-65646300D01*
X112496351Y-65588271D01*
X112771153Y-65474444D01*
X113018469Y-65309193D01*
X113228793Y-65098869D01*
X113394044Y-64851553D01*
X113507871Y-64576751D01*
X113565900Y-64285022D01*
X113565900Y-63987578D01*
X113543980Y-63877376D01*
X114507000Y-63877376D01*
X114507000Y-64395224D01*
X114608027Y-64903122D01*
X114806199Y-65381551D01*
X115093900Y-65812126D01*
X115460074Y-66178300D01*
X115890649Y-66466001D01*
X116369078Y-66664173D01*
X116876976Y-66765200D01*
X117394824Y-66765200D01*
X117902722Y-66664173D01*
X118381151Y-66466001D01*
X118811726Y-66178300D01*
X119177900Y-65812126D01*
X119465601Y-65381551D01*
X119663773Y-64903122D01*
X119764800Y-64395224D01*
X119764800Y-63987578D01*
X120705900Y-63987578D01*
X120705900Y-64285022D01*
X120763929Y-64576751D01*
X120877756Y-64851553D01*
X121043007Y-65098869D01*
X121253331Y-65309193D01*
X121500647Y-65474444D01*
X121775449Y-65588271D01*
X122067178Y-65646300D01*
X122364622Y-65646300D01*
X122656351Y-65588271D01*
X122931153Y-65474444D01*
X123178469Y-65309193D01*
X123388793Y-65098869D01*
X123554044Y-64851553D01*
X123667871Y-64576751D01*
X123725900Y-64285022D01*
X123725900Y-63987578D01*
X123667871Y-63695849D01*
X123554044Y-63421047D01*
X123388793Y-63173731D01*
X123178469Y-62963407D01*
X122931153Y-62798156D01*
X122656351Y-62684329D01*
X122364622Y-62626300D01*
X122067178Y-62626300D01*
X121775449Y-62684329D01*
X121500647Y-62798156D01*
X121253331Y-62963407D01*
X121043007Y-63173731D01*
X120877756Y-63421047D01*
X120763929Y-63695849D01*
X120705900Y-63987578D01*
X119764800Y-63987578D01*
X119764800Y-63877376D01*
X119663773Y-63369478D01*
X119465601Y-62891049D01*
X119177900Y-62460474D01*
X118811726Y-62094300D01*
X118381151Y-61806599D01*
X117902722Y-61608427D01*
X117394824Y-61507400D01*
X116876976Y-61507400D01*
X116369078Y-61608427D01*
X115890649Y-61806599D01*
X115460074Y-62094300D01*
X115093900Y-62460474D01*
X114806199Y-62891049D01*
X114608027Y-63369478D01*
X114507000Y-63877376D01*
X113543980Y-63877376D01*
X113507871Y-63695849D01*
X113394044Y-63421047D01*
X113350782Y-63356300D01*
X113499245Y-63356300D01*
X113839273Y-63288664D01*
X114159573Y-63155992D01*
X114447835Y-62963381D01*
X114692981Y-62718235D01*
X114885592Y-62429973D01*
X115018264Y-62109673D01*
X115085900Y-61769645D01*
X115085900Y-61422955D01*
X115018264Y-61082927D01*
X114885592Y-60762627D01*
X114692981Y-60474365D01*
X114447835Y-60229219D01*
X114159573Y-60036608D01*
X113839273Y-59903936D01*
X113499245Y-59836300D01*
X113152555Y-59836300D01*
X112812527Y-59903936D01*
X112740854Y-59933624D01*
X111690185Y-58882955D01*
X117915900Y-58882955D01*
X117915900Y-59229645D01*
X117983536Y-59569673D01*
X118116208Y-59889973D01*
X118308819Y-60178235D01*
X118553965Y-60423381D01*
X118842227Y-60615992D01*
X119162527Y-60748664D01*
X119502555Y-60816300D01*
X119849245Y-60816300D01*
X120189273Y-60748664D01*
X120509573Y-60615992D01*
X120797835Y-60423381D01*
X121042981Y-60178235D01*
X121235592Y-59889973D01*
X121368264Y-59569673D01*
X121435900Y-59229645D01*
X121435900Y-58882955D01*
X121368264Y-58542927D01*
X121235592Y-58222627D01*
X121042981Y-57934365D01*
X120797835Y-57689219D01*
X120509573Y-57496608D01*
X120189273Y-57363936D01*
X119849245Y-57296300D01*
X119502555Y-57296300D01*
X119162527Y-57363936D01*
X118842227Y-57496608D01*
X118553965Y-57689219D01*
X118308819Y-57934365D01*
X118116208Y-58222627D01*
X117983536Y-58542927D01*
X117915900Y-58882955D01*
X111690185Y-58882955D01*
X105990130Y-53182900D01*
X122884870Y-53182900D01*
X130713224Y-61011254D01*
X130683536Y-61082927D01*
X130615900Y-61422955D01*
X130615900Y-61769645D01*
X130683536Y-62109673D01*
X130816208Y-62429973D01*
X130948538Y-62628019D01*
X130665449Y-62684329D01*
X130390647Y-62798156D01*
X130143331Y-62963407D01*
X129933007Y-63173731D01*
X129767756Y-63421047D01*
X129653929Y-63695849D01*
X129595900Y-63987578D01*
X129595900Y-64285022D01*
X129653929Y-64576751D01*
X129767756Y-64851553D01*
X129933007Y-65098869D01*
X130143331Y-65309193D01*
X130390647Y-65474444D01*
X130665449Y-65588271D01*
X130957178Y-65646300D01*
X131254622Y-65646300D01*
X131546351Y-65588271D01*
X131821153Y-65474444D01*
X132068469Y-65309193D01*
X132278793Y-65098869D01*
X132444044Y-64851553D01*
X132557871Y-64576751D01*
X132615900Y-64285022D01*
X132615900Y-63987578D01*
X132593980Y-63877376D01*
X133557000Y-63877376D01*
X133557000Y-64395224D01*
X133658027Y-64903122D01*
X133856199Y-65381551D01*
X134143900Y-65812126D01*
X134510074Y-66178300D01*
X134940649Y-66466001D01*
X135419078Y-66664173D01*
X135926976Y-66765200D01*
X136444824Y-66765200D01*
X136952722Y-66664173D01*
X137431151Y-66466001D01*
X137861726Y-66178300D01*
X138227900Y-65812126D01*
X138515601Y-65381551D01*
X138713773Y-64903122D01*
X138814800Y-64395224D01*
X138814800Y-63987578D01*
X139755900Y-63987578D01*
X139755900Y-64285022D01*
X139813929Y-64576751D01*
X139927756Y-64851553D01*
X140093007Y-65098869D01*
X140303331Y-65309193D01*
X140550647Y-65474444D01*
X140825449Y-65588271D01*
X141117178Y-65646300D01*
X141414622Y-65646300D01*
X141706351Y-65588271D01*
X141981153Y-65474444D01*
X142228469Y-65309193D01*
X142438793Y-65098869D01*
X142604044Y-64851553D01*
X142717871Y-64576751D01*
X142775900Y-64285022D01*
X142775900Y-63987578D01*
X142717871Y-63695849D01*
X142604044Y-63421047D01*
X142438793Y-63173731D01*
X142228469Y-62963407D01*
X141981153Y-62798156D01*
X141706351Y-62684329D01*
X141414622Y-62626300D01*
X141117178Y-62626300D01*
X140825449Y-62684329D01*
X140550647Y-62798156D01*
X140303331Y-62963407D01*
X140093007Y-63173731D01*
X139927756Y-63421047D01*
X139813929Y-63695849D01*
X139755900Y-63987578D01*
X138814800Y-63987578D01*
X138814800Y-63877376D01*
X138713773Y-63369478D01*
X138515601Y-62891049D01*
X138227900Y-62460474D01*
X137861726Y-62094300D01*
X137431151Y-61806599D01*
X136952722Y-61608427D01*
X136444824Y-61507400D01*
X135926976Y-61507400D01*
X135419078Y-61608427D01*
X134940649Y-61806599D01*
X134510074Y-62094300D01*
X134143900Y-62460474D01*
X133856199Y-62891049D01*
X133658027Y-63369478D01*
X133557000Y-63877376D01*
X132593980Y-63877376D01*
X132557871Y-63695849D01*
X132444044Y-63421047D01*
X132400782Y-63356300D01*
X132549245Y-63356300D01*
X132889273Y-63288664D01*
X133209573Y-63155992D01*
X133497835Y-62963381D01*
X133742981Y-62718235D01*
X133935592Y-62429973D01*
X134068264Y-62109673D01*
X134135900Y-61769645D01*
X134135900Y-61422955D01*
X134068264Y-61082927D01*
X133935592Y-60762627D01*
X133742981Y-60474365D01*
X133497835Y-60229219D01*
X133209573Y-60036608D01*
X132889273Y-59903936D01*
X132549245Y-59836300D01*
X132202555Y-59836300D01*
X131862527Y-59903936D01*
X131790854Y-59933624D01*
X130740185Y-58882955D01*
X136965900Y-58882955D01*
X136965900Y-59229645D01*
X137033536Y-59569673D01*
X137166208Y-59889973D01*
X137358819Y-60178235D01*
X137603965Y-60423381D01*
X137892227Y-60615992D01*
X138212527Y-60748664D01*
X138552555Y-60816300D01*
X138899245Y-60816300D01*
X139239273Y-60748664D01*
X139559573Y-60615992D01*
X139847835Y-60423381D01*
X140092981Y-60178235D01*
X140285592Y-59889973D01*
X140418264Y-59569673D01*
X140485900Y-59229645D01*
X140485900Y-58882955D01*
X140418264Y-58542927D01*
X140285592Y-58222627D01*
X140092981Y-57934365D01*
X139847835Y-57689219D01*
X139559573Y-57496608D01*
X139239273Y-57363936D01*
X138899245Y-57296300D01*
X138552555Y-57296300D01*
X138212527Y-57363936D01*
X137892227Y-57496608D01*
X137603965Y-57689219D01*
X137358819Y-57934365D01*
X137166208Y-58222627D01*
X137033536Y-58542927D01*
X136965900Y-58882955D01*
X130740185Y-58882955D01*
X123765784Y-51908554D01*
X123741922Y-51879478D01*
X123625892Y-51784255D01*
X123493515Y-51713498D01*
X123349878Y-51669926D01*
X123237926Y-51658900D01*
X123237923Y-51658900D01*
X123200500Y-51655214D01*
X123163077Y-51658900D01*
X68573051Y-51658900D01*
X68531114Y-51616963D01*
X68361596Y-51503695D01*
X68173238Y-51425674D01*
X67973279Y-51385900D01*
X67769401Y-51385900D01*
X67569442Y-51425674D01*
X67381084Y-51503695D01*
X67211566Y-51616963D01*
X67067403Y-51761126D01*
X66954135Y-51930644D01*
X66876114Y-52119002D01*
X66836340Y-52318961D01*
X65926329Y-52318961D01*
X67355250Y-50890041D01*
X67502480Y-50951026D01*
X67702439Y-50990800D01*
X67906317Y-50990800D01*
X68106276Y-50951026D01*
X68294634Y-50873005D01*
X68464152Y-50759737D01*
X68608315Y-50615574D01*
X68721583Y-50446056D01*
X68799604Y-50257698D01*
X68839378Y-50057739D01*
X68839378Y-49853861D01*
X68799604Y-49653902D01*
X68721583Y-49465544D01*
X68608315Y-49296026D01*
X68464152Y-49151863D01*
X68294634Y-49038595D01*
X68106276Y-48960574D01*
X67906317Y-48920800D01*
X67702439Y-48920800D01*
X67502480Y-48960574D01*
X67314122Y-49038595D01*
X67144604Y-49151863D01*
X67098987Y-49197480D01*
X67066642Y-49200666D01*
X66923005Y-49244238D01*
X66861384Y-49277175D01*
X66790627Y-49314995D01*
X66707924Y-49382868D01*
X66674598Y-49410218D01*
X66650741Y-49439288D01*
X55997390Y-60092640D01*
X55938081Y-60092640D01*
X55738122Y-60132414D01*
X55549764Y-60210435D01*
X55380246Y-60323703D01*
X55236083Y-60467866D01*
X55122815Y-60637384D01*
X55044794Y-60825742D01*
X55005020Y-61025701D01*
X42526179Y-61025701D01*
X42526477Y-44937578D01*
X72445900Y-44937578D01*
X72445900Y-45235022D01*
X72503929Y-45526751D01*
X72617756Y-45801553D01*
X72783007Y-46048869D01*
X72993331Y-46259193D01*
X73240647Y-46424444D01*
X73515449Y-46538271D01*
X73807178Y-46596300D01*
X74104622Y-46596300D01*
X74396351Y-46538271D01*
X74671153Y-46424444D01*
X74918469Y-46259193D01*
X75128793Y-46048869D01*
X75294044Y-45801553D01*
X75407871Y-45526751D01*
X75465900Y-45235022D01*
X75465900Y-44937578D01*
X75443980Y-44827376D01*
X76407000Y-44827376D01*
X76407000Y-45345224D01*
X76508027Y-45853122D01*
X76706199Y-46331551D01*
X76993900Y-46762126D01*
X77360074Y-47128300D01*
X77790649Y-47416001D01*
X78269078Y-47614173D01*
X78776976Y-47715200D01*
X79294824Y-47715200D01*
X79802722Y-47614173D01*
X80281151Y-47416001D01*
X80711726Y-47128300D01*
X81077900Y-46762126D01*
X81365601Y-46331551D01*
X81563773Y-45853122D01*
X81664800Y-45345224D01*
X81664800Y-44937578D01*
X82605900Y-44937578D01*
X82605900Y-45235022D01*
X82663929Y-45526751D01*
X82777756Y-45801553D01*
X82943007Y-46048869D01*
X83153331Y-46259193D01*
X83400647Y-46424444D01*
X83675449Y-46538271D01*
X83967178Y-46596300D01*
X84264622Y-46596300D01*
X84556351Y-46538271D01*
X84831153Y-46424444D01*
X85078469Y-46259193D01*
X85288793Y-46048869D01*
X85454044Y-45801553D01*
X85567871Y-45526751D01*
X85625900Y-45235022D01*
X85625900Y-44937578D01*
X91495900Y-44937578D01*
X91495900Y-45235022D01*
X91553929Y-45526751D01*
X91667756Y-45801553D01*
X91833007Y-46048869D01*
X92043331Y-46259193D01*
X92290647Y-46424444D01*
X92565449Y-46538271D01*
X92857178Y-46596300D01*
X93154622Y-46596300D01*
X93446351Y-46538271D01*
X93721153Y-46424444D01*
X93968469Y-46259193D01*
X94178793Y-46048869D01*
X94344044Y-45801553D01*
X94457871Y-45526751D01*
X94515900Y-45235022D01*
X94515900Y-44937578D01*
X94493980Y-44827376D01*
X95457000Y-44827376D01*
X95457000Y-45345224D01*
X95558027Y-45853122D01*
X95756199Y-46331551D01*
X96043900Y-46762126D01*
X96410074Y-47128300D01*
X96840649Y-47416001D01*
X97319078Y-47614173D01*
X97826976Y-47715200D01*
X98344824Y-47715200D01*
X98852722Y-47614173D01*
X99331151Y-47416001D01*
X99761726Y-47128300D01*
X100127900Y-46762126D01*
X100415601Y-46331551D01*
X100613773Y-45853122D01*
X100714800Y-45345224D01*
X100714800Y-44937578D01*
X101655900Y-44937578D01*
X101655900Y-45235022D01*
X101713929Y-45526751D01*
X101827756Y-45801553D01*
X101993007Y-46048869D01*
X102203331Y-46259193D01*
X102450647Y-46424444D01*
X102725449Y-46538271D01*
X103017178Y-46596300D01*
X103314622Y-46596300D01*
X103606351Y-46538271D01*
X103881153Y-46424444D01*
X104128469Y-46259193D01*
X104338793Y-46048869D01*
X104504044Y-45801553D01*
X104617871Y-45526751D01*
X104675900Y-45235022D01*
X104675900Y-44937578D01*
X110545900Y-44937578D01*
X110545900Y-45235022D01*
X110603929Y-45526751D01*
X110717756Y-45801553D01*
X110883007Y-46048869D01*
X111093331Y-46259193D01*
X111340647Y-46424444D01*
X111615449Y-46538271D01*
X111907178Y-46596300D01*
X112204622Y-46596300D01*
X112496351Y-46538271D01*
X112771153Y-46424444D01*
X113018469Y-46259193D01*
X113228793Y-46048869D01*
X113394044Y-45801553D01*
X113507871Y-45526751D01*
X113565900Y-45235022D01*
X113565900Y-44937578D01*
X113543980Y-44827376D01*
X114507000Y-44827376D01*
X114507000Y-45345224D01*
X114608027Y-45853122D01*
X114806199Y-46331551D01*
X115093900Y-46762126D01*
X115460074Y-47128300D01*
X115890649Y-47416001D01*
X116369078Y-47614173D01*
X116876976Y-47715200D01*
X117394824Y-47715200D01*
X117902722Y-47614173D01*
X118381151Y-47416001D01*
X118811726Y-47128300D01*
X119177900Y-46762126D01*
X119465601Y-46331551D01*
X119663773Y-45853122D01*
X119764800Y-45345224D01*
X119764800Y-44937578D01*
X120705900Y-44937578D01*
X120705900Y-45235022D01*
X120763929Y-45526751D01*
X120877756Y-45801553D01*
X121043007Y-46048869D01*
X121253331Y-46259193D01*
X121500647Y-46424444D01*
X121775449Y-46538271D01*
X122067178Y-46596300D01*
X122364622Y-46596300D01*
X122656351Y-46538271D01*
X122931153Y-46424444D01*
X123178469Y-46259193D01*
X123388793Y-46048869D01*
X123554044Y-45801553D01*
X123667871Y-45526751D01*
X123725900Y-45235022D01*
X123725900Y-44937578D01*
X129595900Y-44937578D01*
X129595900Y-45235022D01*
X129653929Y-45526751D01*
X129767756Y-45801553D01*
X129933007Y-46048869D01*
X130143331Y-46259193D01*
X130390647Y-46424444D01*
X130665449Y-46538271D01*
X130957178Y-46596300D01*
X131254622Y-46596300D01*
X131546351Y-46538271D01*
X131821153Y-46424444D01*
X132068469Y-46259193D01*
X132278793Y-46048869D01*
X132444044Y-45801553D01*
X132557871Y-45526751D01*
X132615900Y-45235022D01*
X132615900Y-44937578D01*
X132593980Y-44827376D01*
X133557000Y-44827376D01*
X133557000Y-45345224D01*
X133658027Y-45853122D01*
X133856199Y-46331551D01*
X134143900Y-46762126D01*
X134510074Y-47128300D01*
X134940649Y-47416001D01*
X135419078Y-47614173D01*
X135926976Y-47715200D01*
X136444824Y-47715200D01*
X136952722Y-47614173D01*
X137431151Y-47416001D01*
X137861726Y-47128300D01*
X138227900Y-46762126D01*
X138515601Y-46331551D01*
X138713773Y-45853122D01*
X138814800Y-45345224D01*
X138814800Y-44937578D01*
X139755900Y-44937578D01*
X139755900Y-45235022D01*
X139813929Y-45526751D01*
X139927756Y-45801553D01*
X140093007Y-46048869D01*
X140303331Y-46259193D01*
X140550647Y-46424444D01*
X140825449Y-46538271D01*
X141117178Y-46596300D01*
X141414622Y-46596300D01*
X141706351Y-46538271D01*
X141981153Y-46424444D01*
X142228469Y-46259193D01*
X142438793Y-46048869D01*
X142604044Y-45801553D01*
X142717871Y-45526751D01*
X142775900Y-45235022D01*
X142775900Y-44937578D01*
X142717871Y-44645849D01*
X142604044Y-44371047D01*
X142438793Y-44123731D01*
X142228469Y-43913407D01*
X141981153Y-43748156D01*
X141706351Y-43634329D01*
X141414622Y-43576300D01*
X141117178Y-43576300D01*
X140825449Y-43634329D01*
X140550647Y-43748156D01*
X140303331Y-43913407D01*
X140093007Y-44123731D01*
X139927756Y-44371047D01*
X139813929Y-44645849D01*
X139755900Y-44937578D01*
X138814800Y-44937578D01*
X138814800Y-44827376D01*
X138713773Y-44319478D01*
X138515601Y-43841049D01*
X138227900Y-43410474D01*
X137861726Y-43044300D01*
X137431151Y-42756599D01*
X136952722Y-42558427D01*
X136444824Y-42457400D01*
X135926976Y-42457400D01*
X135419078Y-42558427D01*
X134940649Y-42756599D01*
X134510074Y-43044300D01*
X134143900Y-43410474D01*
X133856199Y-43841049D01*
X133658027Y-44319478D01*
X133557000Y-44827376D01*
X132593980Y-44827376D01*
X132557871Y-44645849D01*
X132444044Y-44371047D01*
X132400782Y-44306300D01*
X132549245Y-44306300D01*
X132889273Y-44238664D01*
X133209573Y-44105992D01*
X133497835Y-43913381D01*
X133742981Y-43668235D01*
X133935592Y-43379973D01*
X134068264Y-43059673D01*
X134135900Y-42719645D01*
X134135900Y-42372955D01*
X134068264Y-42032927D01*
X133935592Y-41712627D01*
X133742981Y-41424365D01*
X133497835Y-41179219D01*
X133209573Y-40986608D01*
X132889273Y-40853936D01*
X132549245Y-40786300D01*
X132202555Y-40786300D01*
X131862527Y-40853936D01*
X131542227Y-40986608D01*
X131253965Y-41179219D01*
X131008819Y-41424365D01*
X130816208Y-41712627D01*
X130683536Y-42032927D01*
X130615900Y-42372955D01*
X130615900Y-42719645D01*
X130683536Y-43059673D01*
X130816208Y-43379973D01*
X130948538Y-43578019D01*
X130665449Y-43634329D01*
X130390647Y-43748156D01*
X130143331Y-43913407D01*
X129933007Y-44123731D01*
X129767756Y-44371047D01*
X129653929Y-44645849D01*
X129595900Y-44937578D01*
X123725900Y-44937578D01*
X123667871Y-44645849D01*
X123554044Y-44371047D01*
X123388793Y-44123731D01*
X123178469Y-43913407D01*
X122931153Y-43748156D01*
X122656351Y-43634329D01*
X122364622Y-43576300D01*
X122067178Y-43576300D01*
X121775449Y-43634329D01*
X121500647Y-43748156D01*
X121253331Y-43913407D01*
X121043007Y-44123731D01*
X120877756Y-44371047D01*
X120763929Y-44645849D01*
X120705900Y-44937578D01*
X119764800Y-44937578D01*
X119764800Y-44827376D01*
X119663773Y-44319478D01*
X119465601Y-43841049D01*
X119177900Y-43410474D01*
X118811726Y-43044300D01*
X118381151Y-42756599D01*
X117902722Y-42558427D01*
X117394824Y-42457400D01*
X116876976Y-42457400D01*
X116369078Y-42558427D01*
X115890649Y-42756599D01*
X115460074Y-43044300D01*
X115093900Y-43410474D01*
X114806199Y-43841049D01*
X114608027Y-44319478D01*
X114507000Y-44827376D01*
X113543980Y-44827376D01*
X113507871Y-44645849D01*
X113394044Y-44371047D01*
X113350782Y-44306300D01*
X113499245Y-44306300D01*
X113839273Y-44238664D01*
X114159573Y-44105992D01*
X114447835Y-43913381D01*
X114692981Y-43668235D01*
X114885592Y-43379973D01*
X115018264Y-43059673D01*
X115085900Y-42719645D01*
X115085900Y-42372955D01*
X115018264Y-42032927D01*
X114885592Y-41712627D01*
X114692981Y-41424365D01*
X114447835Y-41179219D01*
X114159573Y-40986608D01*
X113839273Y-40853936D01*
X113499245Y-40786300D01*
X113152555Y-40786300D01*
X112812527Y-40853936D01*
X112492227Y-40986608D01*
X112203965Y-41179219D01*
X111958819Y-41424365D01*
X111766208Y-41712627D01*
X111633536Y-42032927D01*
X111565900Y-42372955D01*
X111565900Y-42719645D01*
X111633536Y-43059673D01*
X111766208Y-43379973D01*
X111898538Y-43578019D01*
X111615449Y-43634329D01*
X111340647Y-43748156D01*
X111093331Y-43913407D01*
X110883007Y-44123731D01*
X110717756Y-44371047D01*
X110603929Y-44645849D01*
X110545900Y-44937578D01*
X104675900Y-44937578D01*
X104617871Y-44645849D01*
X104504044Y-44371047D01*
X104338793Y-44123731D01*
X104128469Y-43913407D01*
X103881153Y-43748156D01*
X103606351Y-43634329D01*
X103314622Y-43576300D01*
X103017178Y-43576300D01*
X102725449Y-43634329D01*
X102450647Y-43748156D01*
X102203331Y-43913407D01*
X101993007Y-44123731D01*
X101827756Y-44371047D01*
X101713929Y-44645849D01*
X101655900Y-44937578D01*
X100714800Y-44937578D01*
X100714800Y-44827376D01*
X100613773Y-44319478D01*
X100415601Y-43841049D01*
X100127900Y-43410474D01*
X99761726Y-43044300D01*
X99331151Y-42756599D01*
X98852722Y-42558427D01*
X98344824Y-42457400D01*
X97826976Y-42457400D01*
X97319078Y-42558427D01*
X96840649Y-42756599D01*
X96410074Y-43044300D01*
X96043900Y-43410474D01*
X95756199Y-43841049D01*
X95558027Y-44319478D01*
X95457000Y-44827376D01*
X94493980Y-44827376D01*
X94457871Y-44645849D01*
X94344044Y-44371047D01*
X94300782Y-44306300D01*
X94449245Y-44306300D01*
X94789273Y-44238664D01*
X95109573Y-44105992D01*
X95397835Y-43913381D01*
X95642981Y-43668235D01*
X95835592Y-43379973D01*
X95968264Y-43059673D01*
X96035900Y-42719645D01*
X96035900Y-42372955D01*
X95968264Y-42032927D01*
X95835592Y-41712627D01*
X95642981Y-41424365D01*
X95397835Y-41179219D01*
X95109573Y-40986608D01*
X94789273Y-40853936D01*
X94449245Y-40786300D01*
X94102555Y-40786300D01*
X93762527Y-40853936D01*
X93442227Y-40986608D01*
X93153965Y-41179219D01*
X92908819Y-41424365D01*
X92716208Y-41712627D01*
X92583536Y-42032927D01*
X92515900Y-42372955D01*
X92515900Y-42719645D01*
X92583536Y-43059673D01*
X92716208Y-43379973D01*
X92848538Y-43578019D01*
X92565449Y-43634329D01*
X92290647Y-43748156D01*
X92043331Y-43913407D01*
X91833007Y-44123731D01*
X91667756Y-44371047D01*
X91553929Y-44645849D01*
X91495900Y-44937578D01*
X85625900Y-44937578D01*
X85567871Y-44645849D01*
X85454044Y-44371047D01*
X85288793Y-44123731D01*
X85078469Y-43913407D01*
X84831153Y-43748156D01*
X84556351Y-43634329D01*
X84264622Y-43576300D01*
X83967178Y-43576300D01*
X83675449Y-43634329D01*
X83400647Y-43748156D01*
X83153331Y-43913407D01*
X82943007Y-44123731D01*
X82777756Y-44371047D01*
X82663929Y-44645849D01*
X82605900Y-44937578D01*
X81664800Y-44937578D01*
X81664800Y-44827376D01*
X81563773Y-44319478D01*
X81365601Y-43841049D01*
X81077900Y-43410474D01*
X80711726Y-43044300D01*
X80281151Y-42756599D01*
X79802722Y-42558427D01*
X79294824Y-42457400D01*
X78776976Y-42457400D01*
X78269078Y-42558427D01*
X77790649Y-42756599D01*
X77360074Y-43044300D01*
X76993900Y-43410474D01*
X76706199Y-43841049D01*
X76508027Y-44319478D01*
X76407000Y-44827376D01*
X75443980Y-44827376D01*
X75407871Y-44645849D01*
X75294044Y-44371047D01*
X75250782Y-44306300D01*
X75399245Y-44306300D01*
X75739273Y-44238664D01*
X76059573Y-44105992D01*
X76347835Y-43913381D01*
X76592981Y-43668235D01*
X76785592Y-43379973D01*
X76918264Y-43059673D01*
X76985900Y-42719645D01*
X76985900Y-42372955D01*
X76918264Y-42032927D01*
X76785592Y-41712627D01*
X76592981Y-41424365D01*
X76347835Y-41179219D01*
X76059573Y-40986608D01*
X75739273Y-40853936D01*
X75399245Y-40786300D01*
X75052555Y-40786300D01*
X74712527Y-40853936D01*
X74392227Y-40986608D01*
X74103965Y-41179219D01*
X73858819Y-41424365D01*
X73666208Y-41712627D01*
X73533536Y-42032927D01*
X73465900Y-42372955D01*
X73465900Y-42719645D01*
X73533536Y-43059673D01*
X73666208Y-43379973D01*
X73798538Y-43578019D01*
X73515449Y-43634329D01*
X73240647Y-43748156D01*
X72993331Y-43913407D01*
X72783007Y-44123731D01*
X72617756Y-44371047D01*
X72503929Y-44645849D01*
X72445900Y-44937578D01*
X42526477Y-44937578D01*
X42526540Y-41554065D01*
X58934400Y-41554065D01*
X58934400Y-41757943D01*
X58974174Y-41957902D01*
X59052195Y-42146260D01*
X59165463Y-42315778D01*
X59309626Y-42459941D01*
X59479144Y-42573209D01*
X59667502Y-42651230D01*
X59867461Y-42691004D01*
X60071339Y-42691004D01*
X60271298Y-42651230D01*
X60459656Y-42573209D01*
X60629174Y-42459941D01*
X60773337Y-42315778D01*
X60886605Y-42146260D01*
X60964626Y-41957902D01*
X61004400Y-41757943D01*
X61004400Y-41698634D01*
X61936892Y-40766142D01*
X61960397Y-40761467D01*
X62148755Y-40683446D01*
X62318273Y-40570178D01*
X62462436Y-40426015D01*
X62575704Y-40256497D01*
X62653725Y-40068139D01*
X62693499Y-39868180D01*
X62693499Y-39832955D01*
X79815900Y-39832955D01*
X79815900Y-40179645D01*
X79883536Y-40519673D01*
X80016208Y-40839973D01*
X80208819Y-41128235D01*
X80453965Y-41373381D01*
X80742227Y-41565992D01*
X81062527Y-41698664D01*
X81402555Y-41766300D01*
X81749245Y-41766300D01*
X82089273Y-41698664D01*
X82409573Y-41565992D01*
X82697835Y-41373381D01*
X82942981Y-41128235D01*
X83135592Y-40839973D01*
X83268264Y-40519673D01*
X83335900Y-40179645D01*
X83335900Y-39832955D01*
X98865900Y-39832955D01*
X98865900Y-40179645D01*
X98933536Y-40519673D01*
X99066208Y-40839973D01*
X99258819Y-41128235D01*
X99503965Y-41373381D01*
X99792227Y-41565992D01*
X100112527Y-41698664D01*
X100452555Y-41766300D01*
X100799245Y-41766300D01*
X101139273Y-41698664D01*
X101459573Y-41565992D01*
X101747835Y-41373381D01*
X101992981Y-41128235D01*
X102185592Y-40839973D01*
X102318264Y-40519673D01*
X102385900Y-40179645D01*
X102385900Y-39832955D01*
X117915900Y-39832955D01*
X117915900Y-40179645D01*
X117983536Y-40519673D01*
X118116208Y-40839973D01*
X118308819Y-41128235D01*
X118553965Y-41373381D01*
X118842227Y-41565992D01*
X119162527Y-41698664D01*
X119502555Y-41766300D01*
X119849245Y-41766300D01*
X120189273Y-41698664D01*
X120509573Y-41565992D01*
X120797835Y-41373381D01*
X121042981Y-41128235D01*
X121235592Y-40839973D01*
X121368264Y-40519673D01*
X121435900Y-40179645D01*
X121435900Y-39832955D01*
X136965900Y-39832955D01*
X136965900Y-40179645D01*
X137033536Y-40519673D01*
X137166208Y-40839973D01*
X137358819Y-41128235D01*
X137603965Y-41373381D01*
X137892227Y-41565992D01*
X138212527Y-41698664D01*
X138552555Y-41766300D01*
X138899245Y-41766300D01*
X139239273Y-41698664D01*
X139559573Y-41565992D01*
X139847835Y-41373381D01*
X140092981Y-41128235D01*
X140285592Y-40839973D01*
X140418264Y-40519673D01*
X140485900Y-40179645D01*
X140485900Y-39832955D01*
X140418264Y-39492927D01*
X140285592Y-39172627D01*
X140092981Y-38884365D01*
X139847835Y-38639219D01*
X139559573Y-38446608D01*
X139239273Y-38313936D01*
X138899245Y-38246300D01*
X138552555Y-38246300D01*
X138212527Y-38313936D01*
X137892227Y-38446608D01*
X137603965Y-38639219D01*
X137358819Y-38884365D01*
X137166208Y-39172627D01*
X137033536Y-39492927D01*
X136965900Y-39832955D01*
X121435900Y-39832955D01*
X121368264Y-39492927D01*
X121235592Y-39172627D01*
X121042981Y-38884365D01*
X120797835Y-38639219D01*
X120509573Y-38446608D01*
X120189273Y-38313936D01*
X119849245Y-38246300D01*
X119502555Y-38246300D01*
X119162527Y-38313936D01*
X118842227Y-38446608D01*
X118553965Y-38639219D01*
X118308819Y-38884365D01*
X118116208Y-39172627D01*
X117983536Y-39492927D01*
X117915900Y-39832955D01*
X102385900Y-39832955D01*
X102318264Y-39492927D01*
X102185592Y-39172627D01*
X101992981Y-38884365D01*
X101747835Y-38639219D01*
X101459573Y-38446608D01*
X101139273Y-38313936D01*
X100799245Y-38246300D01*
X100452555Y-38246300D01*
X100112527Y-38313936D01*
X99792227Y-38446608D01*
X99503965Y-38639219D01*
X99258819Y-38884365D01*
X99066208Y-39172627D01*
X98933536Y-39492927D01*
X98865900Y-39832955D01*
X83335900Y-39832955D01*
X83268264Y-39492927D01*
X83135592Y-39172627D01*
X82942981Y-38884365D01*
X82697835Y-38639219D01*
X82409573Y-38446608D01*
X82089273Y-38313936D01*
X81749245Y-38246300D01*
X81402555Y-38246300D01*
X81062527Y-38313936D01*
X80742227Y-38446608D01*
X80453965Y-38639219D01*
X80208819Y-38884365D01*
X80016208Y-39172627D01*
X79883536Y-39492927D01*
X79815900Y-39832955D01*
X62693499Y-39832955D01*
X62693499Y-39664302D01*
X62653725Y-39464343D01*
X62575704Y-39275985D01*
X62462436Y-39106467D01*
X62318273Y-38962304D01*
X62148755Y-38849036D01*
X61960397Y-38771015D01*
X61760438Y-38731241D01*
X61556560Y-38731241D01*
X61356601Y-38771015D01*
X61168243Y-38849036D01*
X60998725Y-38962304D01*
X60854562Y-39106467D01*
X60741294Y-39275985D01*
X60663273Y-39464343D01*
X60623499Y-39664302D01*
X60623499Y-39868180D01*
X60632806Y-39914968D01*
X59926770Y-40621004D01*
X59867461Y-40621004D01*
X59667502Y-40660778D01*
X59479144Y-40738799D01*
X59309626Y-40852067D01*
X59165463Y-40996230D01*
X59052195Y-41165748D01*
X58974174Y-41354106D01*
X58934400Y-41554065D01*
X42526540Y-41554065D01*
X42526650Y-35643478D01*
X57398503Y-35643478D01*
X57398503Y-35847356D01*
X57438277Y-36047315D01*
X57516298Y-36235673D01*
X57629566Y-36405191D01*
X57773729Y-36549354D01*
X57943247Y-36662622D01*
X58131605Y-36740643D01*
X58331564Y-36780417D01*
X58535442Y-36780417D01*
X58735401Y-36740643D01*
X58923759Y-36662622D01*
X59093277Y-36549354D01*
X59135211Y-36507420D01*
X62704311Y-36507420D01*
X62746248Y-36549357D01*
X62915766Y-36662625D01*
X63104124Y-36740646D01*
X63304083Y-36780420D01*
X63507961Y-36780420D01*
X63707920Y-36740646D01*
X63896278Y-36662625D01*
X64065796Y-36549357D01*
X64209959Y-36405194D01*
X64323227Y-36235676D01*
X64401248Y-36047318D01*
X64441022Y-35847359D01*
X64441022Y-35643481D01*
X64401248Y-35443522D01*
X64323227Y-35255164D01*
X64209959Y-35085646D01*
X64065796Y-34941483D01*
X63896278Y-34828215D01*
X63707920Y-34750194D01*
X63507961Y-34710420D01*
X63304083Y-34710420D01*
X63104124Y-34750194D01*
X62915766Y-34828215D01*
X62746248Y-34941483D01*
X62704311Y-34983420D01*
X59135217Y-34983420D01*
X59093277Y-34941480D01*
X58923759Y-34828212D01*
X58735401Y-34750191D01*
X58535442Y-34710417D01*
X58331564Y-34710417D01*
X58131605Y-34750191D01*
X57943247Y-34828212D01*
X57773729Y-34941480D01*
X57629566Y-35085643D01*
X57516298Y-35255161D01*
X57438277Y-35443519D01*
X57398503Y-35643478D01*
X42526650Y-35643478D01*
X42526755Y-30000685D01*
X42693800Y-30000685D01*
X42693800Y-30756115D01*
X42841177Y-31497028D01*
X43130267Y-32194954D01*
X43549961Y-32823070D01*
X44084130Y-33357239D01*
X44712246Y-33776933D01*
X45410172Y-34066023D01*
X46151085Y-34213400D01*
X46906515Y-34213400D01*
X47647428Y-34066023D01*
X48345354Y-33776933D01*
X48973470Y-33357239D01*
X49507639Y-32823070D01*
X49558868Y-32746400D01*
X55457400Y-32746400D01*
X55457400Y-33296400D01*
X55503985Y-33515387D01*
X55592397Y-33721078D01*
X55719239Y-33905569D01*
X55879636Y-34061769D01*
X56067424Y-34183676D01*
X56290526Y-34263519D01*
X56465400Y-34137354D01*
X56465400Y-32746400D01*
X55457400Y-32746400D01*
X49558868Y-32746400D01*
X49927333Y-32194954D01*
X50031944Y-31942400D01*
X55457400Y-31942400D01*
X55457400Y-32492400D01*
X56465400Y-32492400D01*
X56465400Y-31101446D01*
X56719400Y-31101446D01*
X56719400Y-32492400D01*
X56739400Y-32492400D01*
X56739400Y-32746400D01*
X56719400Y-32746400D01*
X56719400Y-34137354D01*
X56894274Y-34263519D01*
X57117376Y-34183676D01*
X57305164Y-34061769D01*
X57465561Y-33905569D01*
X57592403Y-33721078D01*
X57680815Y-33515387D01*
X57727400Y-33296400D01*
X57727400Y-33006304D01*
X57742378Y-33012508D01*
X57927848Y-33049400D01*
X58116952Y-33049400D01*
X58302422Y-33012508D01*
X58477131Y-32940141D01*
X58634364Y-32835081D01*
X58768081Y-32701364D01*
X58873141Y-32544131D01*
X58945508Y-32369422D01*
X58982400Y-32183952D01*
X58982400Y-31994848D01*
X62842400Y-31994848D01*
X62842400Y-32183952D01*
X62879292Y-32369422D01*
X62951659Y-32544131D01*
X63056719Y-32701364D01*
X63190436Y-32835081D01*
X63347669Y-32940141D01*
X63522378Y-33012508D01*
X63707848Y-33049400D01*
X63896952Y-33049400D01*
X64082422Y-33012508D01*
X64097400Y-33006304D01*
X64097400Y-33296400D01*
X64143985Y-33515387D01*
X64232397Y-33721078D01*
X64359239Y-33905569D01*
X64519636Y-34061769D01*
X64707424Y-34183676D01*
X64930526Y-34263519D01*
X65105400Y-34137354D01*
X65105400Y-32746400D01*
X65359400Y-32746400D01*
X65359400Y-34137354D01*
X65534274Y-34263519D01*
X65757376Y-34183676D01*
X65945164Y-34061769D01*
X66105561Y-33905569D01*
X66138361Y-33857861D01*
X67517620Y-33857861D01*
X67517620Y-34061739D01*
X67557394Y-34261698D01*
X67635415Y-34450056D01*
X67748683Y-34619574D01*
X67892846Y-34763737D01*
X68062364Y-34877005D01*
X68250722Y-34955026D01*
X68450681Y-34994800D01*
X68654559Y-34994800D01*
X68854518Y-34955026D01*
X69042876Y-34877005D01*
X69212394Y-34763737D01*
X69249251Y-34726880D01*
X79282889Y-34726880D01*
X79324826Y-34768817D01*
X79494344Y-34882085D01*
X79682702Y-34960106D01*
X79882661Y-34999880D01*
X80086539Y-34999880D01*
X80286498Y-34960106D01*
X80474856Y-34882085D01*
X80644374Y-34768817D01*
X80686311Y-34726880D01*
X98386229Y-34726880D01*
X98428166Y-34768817D01*
X98597684Y-34882085D01*
X98786042Y-34960106D01*
X98986001Y-34999880D01*
X99189879Y-34999880D01*
X99389838Y-34960106D01*
X99578196Y-34882085D01*
X99747714Y-34768817D01*
X99789651Y-34726880D01*
X117514969Y-34726880D01*
X117556906Y-34768817D01*
X117726424Y-34882085D01*
X117914782Y-34960106D01*
X118114741Y-34999880D01*
X118318619Y-34999880D01*
X118518578Y-34960106D01*
X118706936Y-34882085D01*
X118876454Y-34768817D01*
X118918391Y-34726880D01*
X136435429Y-34726880D01*
X136477366Y-34768817D01*
X136646884Y-34882085D01*
X136835242Y-34960106D01*
X137035201Y-34999880D01*
X137239079Y-34999880D01*
X137439038Y-34960106D01*
X137627396Y-34882085D01*
X137796914Y-34768817D01*
X137941077Y-34624654D01*
X138054345Y-34455136D01*
X138132366Y-34266778D01*
X138172140Y-34066819D01*
X138172140Y-33862941D01*
X138132366Y-33662982D01*
X138054345Y-33474624D01*
X137941077Y-33305106D01*
X137796914Y-33160943D01*
X137627396Y-33047675D01*
X137439038Y-32969654D01*
X137239079Y-32929880D01*
X137035201Y-32929880D01*
X136835242Y-32969654D01*
X136646884Y-33047675D01*
X136477366Y-33160943D01*
X136435429Y-33202880D01*
X118918391Y-33202880D01*
X118876454Y-33160943D01*
X118706936Y-33047675D01*
X118518578Y-32969654D01*
X118318619Y-32929880D01*
X118114741Y-32929880D01*
X117914782Y-32969654D01*
X117726424Y-33047675D01*
X117556906Y-33160943D01*
X117514969Y-33202880D01*
X99789651Y-33202880D01*
X99747714Y-33160943D01*
X99578196Y-33047675D01*
X99389838Y-32969654D01*
X99189879Y-32929880D01*
X98986001Y-32929880D01*
X98786042Y-32969654D01*
X98597684Y-33047675D01*
X98428166Y-33160943D01*
X98386229Y-33202880D01*
X80686311Y-33202880D01*
X80644374Y-33160943D01*
X80474856Y-33047675D01*
X80286498Y-32969654D01*
X80086539Y-32929880D01*
X79882661Y-32929880D01*
X79682702Y-32969654D01*
X79494344Y-33047675D01*
X79324826Y-33160943D01*
X79282889Y-33202880D01*
X69259411Y-33202880D01*
X69212394Y-33155863D01*
X69042876Y-33042595D01*
X68854518Y-32964574D01*
X68654559Y-32924800D01*
X68450681Y-32924800D01*
X68250722Y-32964574D01*
X68062364Y-33042595D01*
X67892846Y-33155863D01*
X67748683Y-33300026D01*
X67635415Y-33469544D01*
X67557394Y-33657902D01*
X67517620Y-33857861D01*
X66138361Y-33857861D01*
X66232403Y-33721078D01*
X66320815Y-33515387D01*
X66367400Y-33296400D01*
X66367400Y-32746400D01*
X65359400Y-32746400D01*
X65105400Y-32746400D01*
X65085400Y-32746400D01*
X65085400Y-32492400D01*
X65105400Y-32492400D01*
X65105400Y-31101446D01*
X65359400Y-31101446D01*
X65359400Y-32492400D01*
X66367400Y-32492400D01*
X66367400Y-31942400D01*
X66320815Y-31723413D01*
X66232403Y-31517722D01*
X66105561Y-31333231D01*
X65945164Y-31177031D01*
X65757376Y-31055124D01*
X65534274Y-30975281D01*
X65359400Y-31101446D01*
X65105400Y-31101446D01*
X64930526Y-30975281D01*
X64707424Y-31055124D01*
X64519636Y-31177031D01*
X64375284Y-31317606D01*
X64257131Y-31238659D01*
X64082422Y-31166292D01*
X63896952Y-31129400D01*
X63707848Y-31129400D01*
X63522378Y-31166292D01*
X63347669Y-31238659D01*
X63190436Y-31343719D01*
X63056719Y-31477436D01*
X62951659Y-31634669D01*
X62879292Y-31809378D01*
X62842400Y-31994848D01*
X58982400Y-31994848D01*
X58945508Y-31809378D01*
X58873141Y-31634669D01*
X58768081Y-31477436D01*
X58634364Y-31343719D01*
X58477131Y-31238659D01*
X58302422Y-31166292D01*
X58116952Y-31129400D01*
X57927848Y-31129400D01*
X57742378Y-31166292D01*
X57567669Y-31238659D01*
X57449516Y-31317606D01*
X57305164Y-31177031D01*
X57117376Y-31055124D01*
X56894274Y-30975281D01*
X56719400Y-31101446D01*
X56465400Y-31101446D01*
X56290526Y-30975281D01*
X56067424Y-31055124D01*
X55879636Y-31177031D01*
X55719239Y-31333231D01*
X55592397Y-31517722D01*
X55503985Y-31723413D01*
X55457400Y-31942400D01*
X50031944Y-31942400D01*
X50216423Y-31497028D01*
X50363800Y-30756115D01*
X50363800Y-30000685D01*
X50216423Y-29259772D01*
X49929220Y-28566400D01*
X55457400Y-28566400D01*
X55457400Y-28866400D01*
X55503985Y-29085387D01*
X55592397Y-29291078D01*
X55719239Y-29475569D01*
X55879636Y-29631769D01*
X56067424Y-29753676D01*
X56290526Y-29833519D01*
X56465400Y-29707354D01*
X56465400Y-28566400D01*
X56719400Y-28566400D01*
X56719400Y-29707354D01*
X56894274Y-29833519D01*
X57117376Y-29753676D01*
X57305164Y-29631769D01*
X57465561Y-29475569D01*
X57592403Y-29291078D01*
X57680815Y-29085387D01*
X57727400Y-28866400D01*
X57727400Y-28566400D01*
X64097400Y-28566400D01*
X64097400Y-28866400D01*
X64143985Y-29085387D01*
X64232397Y-29291078D01*
X64359239Y-29475569D01*
X64519636Y-29631769D01*
X64707424Y-29753676D01*
X64930526Y-29833519D01*
X65105400Y-29707354D01*
X65105400Y-28566400D01*
X65359400Y-28566400D01*
X65359400Y-29707354D01*
X65534274Y-29833519D01*
X65757376Y-29753676D01*
X65906758Y-29656701D01*
X66668700Y-29656701D01*
X66668700Y-29860579D01*
X66708474Y-30060538D01*
X66786495Y-30248896D01*
X66899763Y-30418414D01*
X67043926Y-30562577D01*
X67213444Y-30675845D01*
X67401802Y-30753866D01*
X67601761Y-30793640D01*
X67805639Y-30793640D01*
X68005598Y-30753866D01*
X68193956Y-30675845D01*
X68363474Y-30562577D01*
X68400331Y-30525720D01*
X70022049Y-30525720D01*
X70063986Y-30567657D01*
X70233504Y-30680925D01*
X70421862Y-30758946D01*
X70621821Y-30798720D01*
X70825699Y-30798720D01*
X71025658Y-30758946D01*
X71214016Y-30680925D01*
X71383534Y-30567657D01*
X71425471Y-30525720D01*
X89148249Y-30525720D01*
X89190186Y-30567657D01*
X89359704Y-30680925D01*
X89548062Y-30758946D01*
X89748021Y-30798720D01*
X89951899Y-30798720D01*
X90151858Y-30758946D01*
X90340216Y-30680925D01*
X90509734Y-30567657D01*
X90551671Y-30525720D01*
X108218569Y-30525720D01*
X108260506Y-30567657D01*
X108430024Y-30680925D01*
X108618382Y-30758946D01*
X108818341Y-30798720D01*
X109022219Y-30798720D01*
X109222178Y-30758946D01*
X109410536Y-30680925D01*
X109580054Y-30567657D01*
X109621991Y-30525720D01*
X127235549Y-30525720D01*
X127274946Y-30565117D01*
X127444464Y-30678385D01*
X127632822Y-30756406D01*
X127832781Y-30796180D01*
X128036659Y-30796180D01*
X128236618Y-30756406D01*
X128424976Y-30678385D01*
X128594494Y-30565117D01*
X128738657Y-30420954D01*
X128851925Y-30251436D01*
X128929946Y-30063078D01*
X128942356Y-30000685D01*
X147066400Y-30000685D01*
X147066400Y-30756115D01*
X147213777Y-31497028D01*
X147502867Y-32194954D01*
X147922561Y-32823070D01*
X148456730Y-33357239D01*
X149084846Y-33776933D01*
X149782772Y-34066023D01*
X150523685Y-34213400D01*
X151279115Y-34213400D01*
X152020028Y-34066023D01*
X152717954Y-33776933D01*
X153346070Y-33357239D01*
X153880239Y-32823070D01*
X154299933Y-32194954D01*
X154589023Y-31497028D01*
X154736400Y-30756115D01*
X154736400Y-30000685D01*
X154589023Y-29259772D01*
X154299933Y-28561846D01*
X153880239Y-27933730D01*
X153346070Y-27399561D01*
X152717954Y-26979867D01*
X152020028Y-26690777D01*
X151279115Y-26543400D01*
X150523685Y-26543400D01*
X149782772Y-26690777D01*
X149084846Y-26979867D01*
X148456730Y-27399561D01*
X147922561Y-27933730D01*
X147502867Y-28561846D01*
X147213777Y-29259772D01*
X147066400Y-30000685D01*
X128942356Y-30000685D01*
X128969720Y-29863119D01*
X128969720Y-29659241D01*
X128929946Y-29459282D01*
X128851925Y-29270924D01*
X128738657Y-29101406D01*
X128594494Y-28957243D01*
X128424976Y-28843975D01*
X128236618Y-28765954D01*
X128036659Y-28726180D01*
X127832781Y-28726180D01*
X127632822Y-28765954D01*
X127444464Y-28843975D01*
X127274946Y-28957243D01*
X127230469Y-29001720D01*
X109621991Y-29001720D01*
X109580054Y-28959783D01*
X109410536Y-28846515D01*
X109222178Y-28768494D01*
X109022219Y-28728720D01*
X108818341Y-28728720D01*
X108618382Y-28768494D01*
X108430024Y-28846515D01*
X108260506Y-28959783D01*
X108218569Y-29001720D01*
X90551671Y-29001720D01*
X90509734Y-28959783D01*
X90340216Y-28846515D01*
X90151858Y-28768494D01*
X89951899Y-28728720D01*
X89748021Y-28728720D01*
X89548062Y-28768494D01*
X89359704Y-28846515D01*
X89190186Y-28959783D01*
X89148249Y-29001720D01*
X71425471Y-29001720D01*
X71383534Y-28959783D01*
X71214016Y-28846515D01*
X71025658Y-28768494D01*
X70825699Y-28728720D01*
X70621821Y-28728720D01*
X70421862Y-28768494D01*
X70233504Y-28846515D01*
X70063986Y-28959783D01*
X70022049Y-29001720D01*
X69016986Y-29001720D01*
X68965406Y-28996640D01*
X68405411Y-28996640D01*
X68363474Y-28954703D01*
X68193956Y-28841435D01*
X68005598Y-28763414D01*
X67805639Y-28723640D01*
X67601761Y-28723640D01*
X67401802Y-28763414D01*
X67213444Y-28841435D01*
X67043926Y-28954703D01*
X66899763Y-29098866D01*
X66786495Y-29268384D01*
X66708474Y-29456742D01*
X66668700Y-29656701D01*
X65906758Y-29656701D01*
X65945164Y-29631769D01*
X66105561Y-29475569D01*
X66232403Y-29291078D01*
X66320815Y-29085387D01*
X66367400Y-28866400D01*
X66367400Y-28566400D01*
X65359400Y-28566400D01*
X65105400Y-28566400D01*
X64097400Y-28566400D01*
X57727400Y-28566400D01*
X56719400Y-28566400D01*
X56465400Y-28566400D01*
X55457400Y-28566400D01*
X49929220Y-28566400D01*
X49927333Y-28561846D01*
X49560205Y-28012400D01*
X55457400Y-28012400D01*
X55457400Y-28312400D01*
X56465400Y-28312400D01*
X56465400Y-27171446D01*
X56719400Y-27171446D01*
X56719400Y-28312400D01*
X57727400Y-28312400D01*
X57727400Y-28012400D01*
X64097400Y-28012400D01*
X64097400Y-28312400D01*
X65105400Y-28312400D01*
X65105400Y-27171446D01*
X65359400Y-27171446D01*
X65359400Y-28312400D01*
X66367400Y-28312400D01*
X66367400Y-28012400D01*
X66320815Y-27793413D01*
X66232403Y-27587722D01*
X66105561Y-27403231D01*
X65945164Y-27247031D01*
X65757376Y-27125124D01*
X65534274Y-27045281D01*
X65359400Y-27171446D01*
X65105400Y-27171446D01*
X64930526Y-27045281D01*
X64707424Y-27125124D01*
X64519636Y-27247031D01*
X64359239Y-27403231D01*
X64232397Y-27587722D01*
X64143985Y-27793413D01*
X64097400Y-28012400D01*
X57727400Y-28012400D01*
X57680815Y-27793413D01*
X57592403Y-27587722D01*
X57465561Y-27403231D01*
X57305164Y-27247031D01*
X57117376Y-27125124D01*
X56894274Y-27045281D01*
X56719400Y-27171446D01*
X56465400Y-27171446D01*
X56290526Y-27045281D01*
X56067424Y-27125124D01*
X55879636Y-27247031D01*
X55719239Y-27403231D01*
X55592397Y-27587722D01*
X55503985Y-27793413D01*
X55457400Y-28012400D01*
X49560205Y-28012400D01*
X49507639Y-27933730D01*
X48973470Y-27399561D01*
X48345354Y-26979867D01*
X47647428Y-26690777D01*
X46906515Y-26543400D01*
X46151085Y-26543400D01*
X45410172Y-26690777D01*
X44712246Y-26979867D01*
X44084130Y-27399561D01*
X43549961Y-27933730D01*
X43130267Y-28561846D01*
X42841177Y-29259772D01*
X42693800Y-30000685D01*
X42526755Y-30000685D01*
X42526823Y-26373900D01*
X154893200Y-26373900D01*
X154893201Y-82792760D01*
G37*
%TD.AperFunction*%
%TD*%
D19*
X137137140Y-33964880D03*
X68552620Y-33959800D03*
X79984600Y-33964880D03*
X99087940Y-33964880D03*
X118216680Y-33964880D03*
X108920280Y-29763720D03*
X127934720Y-29761180D03*
X89849960Y-29763720D03*
X67703700Y-29758640D03*
X70723760Y-29763720D03*
X68910200Y-54762400D03*
X67884040Y-53959760D03*
X68910200Y-53152040D03*
X67871340Y-52420900D03*
X63406022Y-35745420D03*
X58433503Y-35745417D03*
X59969400Y-41656004D03*
X61658499Y-39766241D03*
X56040020Y-61127640D03*
X67804378Y-49955800D03*
X141265900Y-64136300D03*
X131105900Y-64136300D03*
X132375900Y-61596300D03*
X136185900Y-64136300D03*
X138725900Y-59056300D03*
X46528800Y-78790800D03*
X46528800Y-30378400D03*
X150901400Y-78790800D03*
X150901400Y-30378400D03*
D20*
X56592400Y-28439400D03*
D19*
X58022400Y-32089400D03*
D20*
X65232400Y-28439400D03*
D19*
X63802400Y-32089400D03*
D21*
X65232400Y-32619400D03*
X56592400Y-32619400D03*
D19*
X122215900Y-64136300D03*
X112055900Y-64136300D03*
X113325900Y-61596300D03*
X117135900Y-64136300D03*
X119675900Y-59056300D03*
X103165900Y-64136300D03*
X93005900Y-64136300D03*
X94275900Y-61596300D03*
X98085900Y-64136300D03*
X100625900Y-59056300D03*
X84115900Y-64136300D03*
X73955900Y-64136300D03*
X75225900Y-61596300D03*
X79035900Y-64136300D03*
X81575900Y-59056300D03*
X141265900Y-45086300D03*
X131105900Y-45086300D03*
X132375900Y-42546300D03*
X136185900Y-45086300D03*
X138725900Y-40006300D03*
X122215900Y-45086300D03*
X112055900Y-45086300D03*
X113325900Y-42546300D03*
X117135900Y-45086300D03*
X119675900Y-40006300D03*
X103165900Y-45086300D03*
X93005900Y-45086300D03*
X94275900Y-42546300D03*
X98085900Y-45086300D03*
X100625900Y-40006300D03*
X84115900Y-45086300D03*
X73955900Y-45086300D03*
X75225900Y-42546300D03*
X79035900Y-45086300D03*
X81575900Y-40006300D03*
M02*
