%TF.GenerationSoftware,KiCad,Pcbnew,(5.1.10-1-10_14)*%
%TF.CreationDate,2021-08-26T10:17:17+08:00*%
%TF.ProjectId,SMP v.2,534d5020-762e-4322-9e6b-696361645f70,rev?*%
%TF.SameCoordinates,Original*%
%TF.FileFunction,Copper,L1,Top*%
%TF.FilePolarity,Positive*%
%FSLAX46Y46*%
G04 Gerber Fmt 4.6, Leading zero omitted, Abs format (unit mm)*
G04 Created by KiCad (PCBNEW (5.1.10-1-10_14)) date 2021-08-26 10:17:17*
%MOMM*%
%LPD*%
G01*
G04 APERTURE LIST*
%TA.AperFunction,Profile*%
%ADD10C,0.050000*%
%TD*%
%TA.AperFunction,NonConductor*%
%ADD11C,0.300000*%
%TD*%
%TA.AperFunction,NonConductor*%
%ADD12C,0.500000*%
%TD*%
%TA.AperFunction,SMDPad,CuDef*%
%ADD13R,0.550000X1.600000*%
%TD*%
%TA.AperFunction,SMDPad,CuDef*%
%ADD14R,1.600000X0.550000*%
%TD*%
%TA.AperFunction,SMDPad,CuDef*%
%ADD15R,0.900000X1.200000*%
%TD*%
%TA.AperFunction,ComponentPad*%
%ADD16C,2.250000*%
%TD*%
%TA.AperFunction,ComponentPad*%
%ADD17C,6.400000*%
%TD*%
%TA.AperFunction,SMDPad,CuDef*%
%ADD18R,1.900000X0.400000*%
%TD*%
%TA.AperFunction,SMDPad,CuDef*%
%ADD19R,1.800000X1.100000*%
%TD*%
%TA.AperFunction,ComponentPad*%
%ADD20O,1.000000X1.600000*%
%TD*%
%TA.AperFunction,ComponentPad*%
%ADD21O,1.000000X2.100000*%
%TD*%
%TA.AperFunction,SMDPad,CuDef*%
%ADD22R,0.300000X1.450000*%
%TD*%
%TA.AperFunction,SMDPad,CuDef*%
%ADD23R,0.600000X1.450000*%
%TD*%
%TA.AperFunction,ViaPad*%
%ADD24C,0.800000*%
%TD*%
%TA.AperFunction,Conductor*%
%ADD25C,0.254000*%
%TD*%
%TA.AperFunction,Conductor*%
%ADD26C,0.381000*%
%TD*%
%TA.AperFunction,Conductor*%
%ADD27C,0.100000*%
%TD*%
%ADD28C,0.350000*%
%ADD29O,0.600000X1.200000*%
%ADD30O,0.600000X1.700000*%
G04 APERTURE END LIST*
D10*
X156052520Y-83629500D02*
G75*
G02*
X155727400Y-83954620I-325120J0D01*
G01*
X155727400Y-25214580D02*
G75*
G02*
X156052520Y-25539700I0J-325120D01*
G01*
X41366440Y-25539700D02*
G75*
G02*
X41691560Y-25214580I325120J0D01*
G01*
X41689020Y-83957160D02*
G75*
G02*
X41363900Y-83632040I0J325120D01*
G01*
D11*
X52008151Y-74828482D02*
X52222437Y-74899911D01*
X52579580Y-74899911D01*
X52722437Y-74828482D01*
X52793865Y-74757054D01*
X52865294Y-74614197D01*
X52865294Y-74471340D01*
X52793865Y-74328482D01*
X52722437Y-74257054D01*
X52579580Y-74185625D01*
X52293865Y-74114197D01*
X52151008Y-74042768D01*
X52079580Y-73971340D01*
X52008151Y-73828482D01*
X52008151Y-73685625D01*
X52079580Y-73542768D01*
X52151008Y-73471340D01*
X52293865Y-73399911D01*
X52651008Y-73399911D01*
X52865294Y-73471340D01*
X53508151Y-74899911D02*
X53508151Y-73399911D01*
X54008151Y-74471340D01*
X54508151Y-73399911D01*
X54508151Y-74899911D01*
X55222437Y-74899911D02*
X55222437Y-73399911D01*
X55793865Y-73399911D01*
X55936722Y-73471340D01*
X56008151Y-73542768D01*
X56079580Y-73685625D01*
X56079580Y-73899911D01*
X56008151Y-74042768D01*
X55936722Y-74114197D01*
X55793865Y-74185625D01*
X55222437Y-74185625D01*
X57651008Y-73399911D02*
X58151008Y-74899911D01*
X58651008Y-73399911D01*
X59151008Y-74757054D02*
X59222437Y-74828482D01*
X59151008Y-74899911D01*
X59079580Y-74828482D01*
X59151008Y-74757054D01*
X59151008Y-74899911D01*
X59793865Y-73542768D02*
X59865294Y-73471340D01*
X60008151Y-73399911D01*
X60365294Y-73399911D01*
X60508151Y-73471340D01*
X60579580Y-73542768D01*
X60651008Y-73685625D01*
X60651008Y-73828482D01*
X60579580Y-74042768D01*
X59722437Y-74899911D01*
X60651008Y-74899911D01*
D12*
X41640760Y-83677760D02*
X155778200Y-83677760D01*
X41641840Y-25488900D02*
X155778200Y-25488900D01*
X155778200Y-83677760D02*
X155778200Y-25488900D01*
X41640760Y-83677760D02*
X41641840Y-25488900D01*
D10*
X41366440Y-25539700D02*
X41363900Y-83632040D01*
X155727400Y-25214580D02*
X41691560Y-25214580D01*
X156052520Y-83629500D02*
X156052520Y-25539700D01*
X41689020Y-83957160D02*
X155727400Y-83954620D01*
D13*
%TO.P,U1,32*%
%TO.N,+5V*%
X58922000Y-48505800D03*
%TO.P,U1,31*%
X59722000Y-48505800D03*
%TO.P,U1,30*%
%TO.N,Net-(R3-Pad1)*%
X60522000Y-48505800D03*
%TO.P,U1,29*%
%TO.N,Net-(R2-Pad1)*%
X61322000Y-48505800D03*
%TO.P,U1,28*%
%TO.N,GND*%
X62122000Y-48505800D03*
%TO.P,U1,27*%
%TO.N,Net-(C1-Pad1)*%
X62922000Y-48505800D03*
%TO.P,U1,26*%
%TO.N,ROW1*%
X63722000Y-48505800D03*
%TO.P,U1,25*%
%TO.N,ROW0*%
X64522000Y-48505800D03*
D14*
%TO.P,U1,24*%
%TO.N,Net-(R1-Pad2)*%
X65972000Y-49955800D03*
%TO.P,U1,23*%
%TO.N,Net-(U1-Pad23)*%
X65972000Y-50755800D03*
%TO.P,U1,22*%
%TO.N,Net-(U1-Pad22)*%
X65972000Y-51555800D03*
%TO.P,U1,21*%
%TO.N,COL3*%
X65972000Y-52355800D03*
%TO.P,U1,20*%
%TO.N,COL2*%
X65972000Y-53155800D03*
%TO.P,U1,19*%
%TO.N,COL1*%
X65972000Y-53955800D03*
%TO.P,U1,18*%
%TO.N,COL0*%
X65972000Y-54755800D03*
%TO.P,U1,17*%
%TO.N,Net-(U1-Pad17)*%
X65972000Y-55555800D03*
D13*
%TO.P,U1,16*%
%TO.N,Net-(U1-Pad16)*%
X64522000Y-57005800D03*
%TO.P,U1,15*%
%TO.N,Net-(U1-Pad15)*%
X63722000Y-57005800D03*
%TO.P,U1,14*%
%TO.N,Net-(U1-Pad14)*%
X62922000Y-57005800D03*
%TO.P,U1,13*%
%TO.N,Net-(R6-Pad2)*%
X62122000Y-57005800D03*
%TO.P,U1,12*%
%TO.N,Net-(U1-Pad12)*%
X61322000Y-57005800D03*
%TO.P,U1,11*%
%TO.N,Net-(U1-Pad11)*%
X60522000Y-57005800D03*
%TO.P,U1,10*%
%TO.N,Net-(U1-Pad10)*%
X59722000Y-57005800D03*
%TO.P,U1,9*%
%TO.N,Net-(U1-Pad9)*%
X58922000Y-57005800D03*
D14*
%TO.P,U1,8*%
%TO.N,Net-(U1-Pad8)*%
X57472000Y-55555800D03*
%TO.P,U1,7*%
%TO.N,Net-(U1-Pad7)*%
X57472000Y-54755800D03*
%TO.P,U1,6*%
%TO.N,Net-(U1-Pad6)*%
X57472000Y-53955800D03*
%TO.P,U1,5*%
%TO.N,Net-(U1-Pad5)*%
X57472000Y-53155800D03*
%TO.P,U1,4*%
%TO.N,+5V*%
X57472000Y-52355800D03*
%TO.P,U1,3*%
%TO.N,GND*%
X57472000Y-51555800D03*
%TO.P,U1,2*%
%TO.N,Net-(U1-Pad2)*%
X57472000Y-50755800D03*
%TO.P,U1,1*%
%TO.N,Net-(U1-Pad1)*%
X57472000Y-49955800D03*
%TD*%
D15*
%TO.P,D8,2*%
%TO.N,Net-(D8-Pad2)*%
X123738350Y-31732220D03*
%TO.P,D8,1*%
%TO.N,ROW0*%
X120438350Y-31732220D03*
%TD*%
%TO.P,D7,2*%
%TO.N,Net-(D7-Pad2)*%
X104642346Y-31732220D03*
%TO.P,D7,1*%
%TO.N,ROW0*%
X101342346Y-31732220D03*
%TD*%
%TO.P,D6,2*%
%TO.N,Net-(D6-Pad2)*%
X114190348Y-31732220D03*
%TO.P,D6,1*%
%TO.N,ROW1*%
X110890348Y-31732220D03*
%TD*%
%TO.P,D5,2*%
%TO.N,Net-(D5-Pad2)*%
X95094344Y-31732220D03*
%TO.P,D5,1*%
%TO.N,ROW1*%
X91794344Y-31732220D03*
%TD*%
%TO.P,D4,2*%
%TO.N,Net-(D4-Pad2)*%
X142834360Y-31732220D03*
%TO.P,D4,1*%
%TO.N,ROW0*%
X139534360Y-31732220D03*
%TD*%
%TO.P,D3,2*%
%TO.N,Net-(D3-Pad2)*%
X85546342Y-31732220D03*
%TO.P,D3,1*%
%TO.N,ROW0*%
X82246342Y-31732220D03*
%TD*%
%TO.P,D2,2*%
%TO.N,Net-(D2-Pad2)*%
X133286352Y-31732220D03*
%TO.P,D2,1*%
%TO.N,ROW1*%
X129986352Y-31732220D03*
%TD*%
%TO.P,D1,2*%
%TO.N,Net-(D1-Pad2)*%
X75998340Y-31732220D03*
%TO.P,D1,1*%
%TO.N,ROW1*%
X72698340Y-31732220D03*
%TD*%
D16*
%TO.P,MX8,1*%
%TO.N,COL3*%
X132375900Y-61596300D03*
%TO.P,MX8,2*%
%TO.N,Net-(D4-Pad2)*%
X138725900Y-59056300D03*
%TD*%
D17*
%TO.P,H4,1*%
%TO.N,Net-(H4-Pad1)*%
X46528800Y-78790800D03*
%TD*%
%TO.P,H3,1*%
%TO.N,Net-(H3-Pad1)*%
X46528800Y-30378400D03*
%TD*%
%TO.P,H2,1*%
%TO.N,Net-(H2-Pad1)*%
X150901400Y-78790800D03*
%TD*%
%TO.P,H1,1*%
%TO.N,Net-(H1-Pad1)*%
X150901400Y-30378400D03*
%TD*%
D18*
%TO.P,Y1,3*%
%TO.N,Net-(U1-Pad2)*%
X53416200Y-51619000D03*
%TO.P,Y1,2*%
%TO.N,GNDPWR*%
X53416200Y-50419000D03*
%TO.P,Y1,1*%
%TO.N,Net-(U1-Pad1)*%
X53416200Y-49219000D03*
%TD*%
D19*
%TO.P,SW1,1*%
%TO.N,GND*%
X64720400Y-66747000D03*
%TO.P,SW1,2*%
%TO.N,Net-(R1-Pad2)*%
X58520400Y-63047000D03*
%TO.P,SW1,3*%
%TO.N,N/C*%
X64720400Y-63047000D03*
%TO.P,SW1,4*%
X58520400Y-66747000D03*
%TD*%
%TO.P,R6,2*%
%TO.N,Net-(R6-Pad2)*%
%TA.AperFunction,SMDPad,CuDef*%
G36*
G01*
X61641300Y-59759001D02*
X61641300Y-58858999D01*
G75*
G02*
X61891299Y-58609000I249999J0D01*
G01*
X62416301Y-58609000D01*
G75*
G02*
X62666300Y-58858999I0J-249999D01*
G01*
X62666300Y-59759001D01*
G75*
G02*
X62416301Y-60009000I-249999J0D01*
G01*
X61891299Y-60009000D01*
G75*
G02*
X61641300Y-59759001I0J249999D01*
G01*
G37*
%TD.AperFunction*%
%TO.P,R6,1*%
%TO.N,GND*%
%TA.AperFunction,SMDPad,CuDef*%
G36*
G01*
X59816300Y-59759001D02*
X59816300Y-58858999D01*
G75*
G02*
X60066299Y-58609000I249999J0D01*
G01*
X60591301Y-58609000D01*
G75*
G02*
X60841300Y-58858999I0J-249999D01*
G01*
X60841300Y-59759001D01*
G75*
G02*
X60591301Y-60009000I-249999J0D01*
G01*
X60066299Y-60009000D01*
G75*
G02*
X59816300Y-59759001I0J249999D01*
G01*
G37*
%TD.AperFunction*%
%TD*%
%TO.P,R5,2*%
%TO.N,Net-(J1-PadB5)*%
%TA.AperFunction,SMDPad,CuDef*%
G36*
G01*
X58872541Y-39924400D02*
X57972539Y-39924400D01*
G75*
G02*
X57722540Y-39674401I0J249999D01*
G01*
X57722540Y-39149399D01*
G75*
G02*
X57972539Y-38899400I249999J0D01*
G01*
X58872541Y-38899400D01*
G75*
G02*
X59122540Y-39149399I0J-249999D01*
G01*
X59122540Y-39674401D01*
G75*
G02*
X58872541Y-39924400I-249999J0D01*
G01*
G37*
%TD.AperFunction*%
%TO.P,R5,1*%
%TO.N,GND*%
%TA.AperFunction,SMDPad,CuDef*%
G36*
G01*
X58872541Y-41749400D02*
X57972539Y-41749400D01*
G75*
G02*
X57722540Y-41499401I0J249999D01*
G01*
X57722540Y-40974399D01*
G75*
G02*
X57972539Y-40724400I249999J0D01*
G01*
X58872541Y-40724400D01*
G75*
G02*
X59122540Y-40974399I0J-249999D01*
G01*
X59122540Y-41499401D01*
G75*
G02*
X58872541Y-41749400I-249999J0D01*
G01*
G37*
%TD.AperFunction*%
%TD*%
%TO.P,R4,2*%
%TO.N,Net-(J1-PadA5)*%
%TA.AperFunction,SMDPad,CuDef*%
G36*
G01*
X63629961Y-39924400D02*
X62729959Y-39924400D01*
G75*
G02*
X62479960Y-39674401I0J249999D01*
G01*
X62479960Y-39149399D01*
G75*
G02*
X62729959Y-38899400I249999J0D01*
G01*
X63629961Y-38899400D01*
G75*
G02*
X63879960Y-39149399I0J-249999D01*
G01*
X63879960Y-39674401D01*
G75*
G02*
X63629961Y-39924400I-249999J0D01*
G01*
G37*
%TD.AperFunction*%
%TO.P,R4,1*%
%TO.N,GND*%
%TA.AperFunction,SMDPad,CuDef*%
G36*
G01*
X63629961Y-41749400D02*
X62729959Y-41749400D01*
G75*
G02*
X62479960Y-41499401I0J249999D01*
G01*
X62479960Y-40974399D01*
G75*
G02*
X62729959Y-40724400I249999J0D01*
G01*
X63629961Y-40724400D01*
G75*
G02*
X63879960Y-40974399I0J-249999D01*
G01*
X63879960Y-41499401D01*
G75*
G02*
X63629961Y-41749400I-249999J0D01*
G01*
G37*
%TD.AperFunction*%
%TD*%
%TO.P,R3,2*%
%TO.N,D-*%
%TA.AperFunction,SMDPad,CuDef*%
G36*
G01*
X60419401Y-44124300D02*
X59519399Y-44124300D01*
G75*
G02*
X59269400Y-43874301I0J249999D01*
G01*
X59269400Y-43349299D01*
G75*
G02*
X59519399Y-43099300I249999J0D01*
G01*
X60419401Y-43099300D01*
G75*
G02*
X60669400Y-43349299I0J-249999D01*
G01*
X60669400Y-43874301D01*
G75*
G02*
X60419401Y-44124300I-249999J0D01*
G01*
G37*
%TD.AperFunction*%
%TO.P,R3,1*%
%TO.N,Net-(R3-Pad1)*%
%TA.AperFunction,SMDPad,CuDef*%
G36*
G01*
X60419401Y-45949300D02*
X59519399Y-45949300D01*
G75*
G02*
X59269400Y-45699301I0J249999D01*
G01*
X59269400Y-45174299D01*
G75*
G02*
X59519399Y-44924300I249999J0D01*
G01*
X60419401Y-44924300D01*
G75*
G02*
X60669400Y-45174299I0J-249999D01*
G01*
X60669400Y-45699301D01*
G75*
G02*
X60419401Y-45949300I-249999J0D01*
G01*
G37*
%TD.AperFunction*%
%TD*%
%TO.P,R2,2*%
%TO.N,D+*%
%TA.AperFunction,SMDPad,CuDef*%
G36*
G01*
X62375201Y-44124300D02*
X61475199Y-44124300D01*
G75*
G02*
X61225200Y-43874301I0J249999D01*
G01*
X61225200Y-43349299D01*
G75*
G02*
X61475199Y-43099300I249999J0D01*
G01*
X62375201Y-43099300D01*
G75*
G02*
X62625200Y-43349299I0J-249999D01*
G01*
X62625200Y-43874301D01*
G75*
G02*
X62375201Y-44124300I-249999J0D01*
G01*
G37*
%TD.AperFunction*%
%TO.P,R2,1*%
%TO.N,Net-(R2-Pad1)*%
%TA.AperFunction,SMDPad,CuDef*%
G36*
G01*
X62375201Y-45949300D02*
X61475199Y-45949300D01*
G75*
G02*
X61225200Y-45699301I0J249999D01*
G01*
X61225200Y-45174299D01*
G75*
G02*
X61475199Y-44924300I249999J0D01*
G01*
X62375201Y-44924300D01*
G75*
G02*
X62625200Y-45174299I0J-249999D01*
G01*
X62625200Y-45699301D01*
G75*
G02*
X62375201Y-45949300I-249999J0D01*
G01*
G37*
%TD.AperFunction*%
%TD*%
%TO.P,R1,2*%
%TO.N,Net-(R1-Pad2)*%
%TA.AperFunction,SMDPad,CuDef*%
G36*
G01*
X55552920Y-63444541D02*
X55552920Y-62544539D01*
G75*
G02*
X55802919Y-62294540I249999J0D01*
G01*
X56327921Y-62294540D01*
G75*
G02*
X56577920Y-62544539I0J-249999D01*
G01*
X56577920Y-63444541D01*
G75*
G02*
X56327921Y-63694540I-249999J0D01*
G01*
X55802919Y-63694540D01*
G75*
G02*
X55552920Y-63444541I0J249999D01*
G01*
G37*
%TD.AperFunction*%
%TO.P,R1,1*%
%TO.N,GND*%
%TA.AperFunction,SMDPad,CuDef*%
G36*
G01*
X53727920Y-63444541D02*
X53727920Y-62544539D01*
G75*
G02*
X53977919Y-62294540I249999J0D01*
G01*
X54502921Y-62294540D01*
G75*
G02*
X54752920Y-62544539I0J-249999D01*
G01*
X54752920Y-63444541D01*
G75*
G02*
X54502921Y-63694540I-249999J0D01*
G01*
X53977919Y-63694540D01*
G75*
G02*
X53727920Y-63444541I0J249999D01*
G01*
G37*
%TD.AperFunction*%
%TD*%
D20*
%TO.P,J1,S1*%
%TO.N,GND*%
X56592400Y-28439400D03*
X65232400Y-28439400D03*
D21*
X65232400Y-32619400D03*
X56592400Y-32619400D03*
D22*
%TO.P,J1,A6*%
%TO.N,D+*%
X61162400Y-33534400D03*
%TO.P,J1,B5*%
%TO.N,Net-(J1-PadB5)*%
X59162400Y-33534400D03*
%TO.P,J1,A8*%
%TO.N,Net-(J1-PadA8)*%
X59662400Y-33534400D03*
%TO.P,J1,B6*%
%TO.N,D+*%
X60162400Y-33534400D03*
%TO.P,J1,A7*%
%TO.N,D-*%
X60662400Y-33534400D03*
%TO.P,J1,B7*%
X61662400Y-33534400D03*
%TO.P,J1,A5*%
%TO.N,Net-(J1-PadA5)*%
X62162400Y-33534400D03*
%TO.P,J1,B8*%
%TO.N,Net-(J1-PadB8)*%
X62662400Y-33534400D03*
D23*
%TO.P,J1,A12*%
%TO.N,GND*%
X57662400Y-33534400D03*
%TO.P,J1,B4*%
%TO.N,Net-(F1-Pad2)*%
X58462400Y-33534400D03*
%TO.P,J1,A4*%
X63362400Y-33534400D03*
%TO.P,J1,A1*%
%TO.N,GND*%
X64162400Y-33534400D03*
%TO.P,J1,B12*%
X64162400Y-33534400D03*
%TO.P,J1,B9*%
%TO.N,Net-(F1-Pad2)*%
X63362400Y-33534400D03*
%TO.P,J1,A9*%
X58462400Y-33534400D03*
%TO.P,J1,B1*%
%TO.N,GND*%
X57662400Y-33534400D03*
%TD*%
%TO.P,F1,2*%
%TO.N,Net-(F1-Pad2)*%
%TA.AperFunction,SMDPad,CuDef*%
G36*
G01*
X54154066Y-44743402D02*
X53270182Y-45627286D01*
G75*
G02*
X52916628Y-45627286I-176777J176777D01*
G01*
X52386298Y-45096956D01*
G75*
G02*
X52386298Y-44743402I176777J176777D01*
G01*
X53270182Y-43859518D01*
G75*
G02*
X53623736Y-43859518I176777J-176777D01*
G01*
X54154066Y-44389848D01*
G75*
G02*
X54154066Y-44743402I-176777J-176777D01*
G01*
G37*
%TD.AperFunction*%
%TO.P,F1,1*%
%TO.N,+5V*%
%TA.AperFunction,SMDPad,CuDef*%
G36*
G01*
X56133964Y-46723300D02*
X55250080Y-47607184D01*
G75*
G02*
X54896526Y-47607184I-176777J176777D01*
G01*
X54366196Y-47076854D01*
G75*
G02*
X54366196Y-46723300I176777J176777D01*
G01*
X55250080Y-45839416D01*
G75*
G02*
X55603634Y-45839416I176777J-176777D01*
G01*
X56133964Y-46369746D01*
G75*
G02*
X56133964Y-46723300I-176777J-176777D01*
G01*
G37*
%TD.AperFunction*%
%TD*%
%TO.P,C5,2*%
%TO.N,GND*%
%TA.AperFunction,SMDPad,CuDef*%
G36*
G01*
X54150280Y-53674820D02*
X53200280Y-53674820D01*
G75*
G02*
X52950280Y-53424820I0J250000D01*
G01*
X52950280Y-52924820D01*
G75*
G02*
X53200280Y-52674820I250000J0D01*
G01*
X54150280Y-52674820D01*
G75*
G02*
X54400280Y-52924820I0J-250000D01*
G01*
X54400280Y-53424820D01*
G75*
G02*
X54150280Y-53674820I-250000J0D01*
G01*
G37*
%TD.AperFunction*%
%TO.P,C5,1*%
%TO.N,+5V*%
%TA.AperFunction,SMDPad,CuDef*%
G36*
G01*
X54150280Y-55574820D02*
X53200280Y-55574820D01*
G75*
G02*
X52950280Y-55324820I0J250000D01*
G01*
X52950280Y-54824820D01*
G75*
G02*
X53200280Y-54574820I250000J0D01*
G01*
X54150280Y-54574820D01*
G75*
G02*
X54400280Y-54824820I0J-250000D01*
G01*
X54400280Y-55324820D01*
G75*
G02*
X54150280Y-55574820I-250000J0D01*
G01*
G37*
%TD.AperFunction*%
%TD*%
%TO.P,C4,2*%
%TO.N,GND*%
%TA.AperFunction,SMDPad,CuDef*%
G36*
G01*
X58158400Y-44091400D02*
X57208400Y-44091400D01*
G75*
G02*
X56958400Y-43841400I0J250000D01*
G01*
X56958400Y-43341400D01*
G75*
G02*
X57208400Y-43091400I250000J0D01*
G01*
X58158400Y-43091400D01*
G75*
G02*
X58408400Y-43341400I0J-250000D01*
G01*
X58408400Y-43841400D01*
G75*
G02*
X58158400Y-44091400I-250000J0D01*
G01*
G37*
%TD.AperFunction*%
%TO.P,C4,1*%
%TO.N,+5V*%
%TA.AperFunction,SMDPad,CuDef*%
G36*
G01*
X58158400Y-45991400D02*
X57208400Y-45991400D01*
G75*
G02*
X56958400Y-45741400I0J250000D01*
G01*
X56958400Y-45241400D01*
G75*
G02*
X57208400Y-44991400I250000J0D01*
G01*
X58158400Y-44991400D01*
G75*
G02*
X58408400Y-45241400I0J-250000D01*
G01*
X58408400Y-45741400D01*
G75*
G02*
X58158400Y-45991400I-250000J0D01*
G01*
G37*
%TD.AperFunction*%
%TD*%
%TO.P,C1,2*%
%TO.N,GND*%
%TA.AperFunction,SMDPad,CuDef*%
G36*
G01*
X64762400Y-44091400D02*
X63812400Y-44091400D01*
G75*
G02*
X63562400Y-43841400I0J250000D01*
G01*
X63562400Y-43341400D01*
G75*
G02*
X63812400Y-43091400I250000J0D01*
G01*
X64762400Y-43091400D01*
G75*
G02*
X65012400Y-43341400I0J-250000D01*
G01*
X65012400Y-43841400D01*
G75*
G02*
X64762400Y-44091400I-250000J0D01*
G01*
G37*
%TD.AperFunction*%
%TO.P,C1,1*%
%TO.N,Net-(C1-Pad1)*%
%TA.AperFunction,SMDPad,CuDef*%
G36*
G01*
X64762400Y-45991400D02*
X63812400Y-45991400D01*
G75*
G02*
X63562400Y-45741400I0J250000D01*
G01*
X63562400Y-45241400D01*
G75*
G02*
X63812400Y-44991400I250000J0D01*
G01*
X64762400Y-44991400D01*
G75*
G02*
X65012400Y-45241400I0J-250000D01*
G01*
X65012400Y-45741400D01*
G75*
G02*
X64762400Y-45991400I-250000J0D01*
G01*
G37*
%TD.AperFunction*%
%TD*%
D16*
%TO.P,MX7,1*%
%TO.N,COL2*%
X113325900Y-61596300D03*
%TO.P,MX7,2*%
%TO.N,Net-(D8-Pad2)*%
X119675900Y-59056300D03*
%TD*%
%TO.P,MX6,1*%
%TO.N,COL1*%
X94275900Y-61596300D03*
%TO.P,MX6,2*%
%TO.N,Net-(D7-Pad2)*%
X100625900Y-59056300D03*
%TD*%
%TO.P,MX5,1*%
%TO.N,COL0*%
X75225900Y-61596300D03*
%TO.P,MX5,2*%
%TO.N,Net-(D3-Pad2)*%
X81575900Y-59056300D03*
%TD*%
%TO.P,MX4,1*%
%TO.N,COL3*%
X132375900Y-42546300D03*
%TO.P,MX4,2*%
%TO.N,Net-(D2-Pad2)*%
X138725900Y-40006300D03*
%TD*%
%TO.P,MX3,1*%
%TO.N,COL2*%
X113325900Y-42546300D03*
%TO.P,MX3,2*%
%TO.N,Net-(D6-Pad2)*%
X119675900Y-40006300D03*
%TD*%
%TO.P,MX2,1*%
%TO.N,COL1*%
X94275900Y-42546300D03*
%TO.P,MX2,2*%
%TO.N,Net-(D5-Pad2)*%
X100625900Y-40006300D03*
%TD*%
%TO.P,MX1,1*%
%TO.N,COL0*%
X75225900Y-42546300D03*
%TO.P,MX1,2*%
%TO.N,Net-(D1-Pad2)*%
X81575900Y-40006300D03*
%TD*%
D24*
%TO.N,ROW0*%
X137137140Y-33964880D03*
X68552620Y-33959800D03*
X79984600Y-33964880D03*
X99087940Y-33964880D03*
X118216680Y-33964880D03*
%TO.N,ROW1*%
X108920280Y-29763720D03*
X127934720Y-29761180D03*
X89849960Y-29763720D03*
X67703700Y-29758640D03*
X70723760Y-29763720D03*
%TO.N,COL0*%
X68910200Y-54762400D03*
%TO.N,COL1*%
X67884040Y-53959760D03*
%TO.N,COL2*%
X68910200Y-53152040D03*
%TO.N,COL3*%
X67871340Y-52420900D03*
%TO.N,Net-(F1-Pad2)*%
X63406022Y-35745420D03*
X58433503Y-35745417D03*
%TO.N,D-*%
X59969400Y-41656004D03*
X61658499Y-39766241D03*
%TO.N,Net-(R1-Pad2)*%
X56040020Y-61127640D03*
X67804378Y-49955800D03*
%TD*%
D25*
%TO.N,Net-(D1-Pad2)*%
X75998340Y-34428740D02*
X81575900Y-40006300D01*
X75998340Y-31732220D02*
X75998340Y-34428740D01*
%TO.N,ROW0*%
X139369800Y-31732220D02*
X137137140Y-33964880D01*
X139534360Y-31732220D02*
X139369800Y-31732220D01*
X82217260Y-31732220D02*
X79984600Y-33964880D01*
X82246342Y-31732220D02*
X82217260Y-31732220D01*
X101342346Y-31732220D02*
X101320600Y-31732220D01*
X101320600Y-31732220D02*
X99087940Y-33964880D01*
X120438350Y-31743210D02*
X118216680Y-33964880D01*
X120438350Y-31732220D02*
X120438350Y-31743210D01*
X68557140Y-33964320D02*
X68552620Y-33959800D01*
X68557140Y-45062140D02*
X68557140Y-33964320D01*
X65113480Y-48505800D02*
X68557140Y-45062140D01*
X64522000Y-48505800D02*
X65113480Y-48505800D01*
%TO.N,Net-(D2-Pad2)*%
X133286352Y-34566752D02*
X138725900Y-40006300D01*
X133286352Y-31732220D02*
X133286352Y-34566752D01*
%TO.N,Net-(D3-Pad2)*%
X87431880Y-53200320D02*
X81575900Y-59056300D01*
X87431880Y-33617758D02*
X87431880Y-53200320D01*
X85546342Y-31732220D02*
X87431880Y-33617758D01*
%TO.N,Net-(D4-Pad2)*%
X144498060Y-53284140D02*
X138725900Y-59056300D01*
X144498060Y-33395920D02*
X144498060Y-53284140D01*
X142834360Y-31732220D02*
X144498060Y-33395920D01*
%TO.N,ROW1*%
X110888780Y-31732220D02*
X108920280Y-29763720D01*
X110890348Y-31732220D02*
X110888780Y-31732220D01*
X129986352Y-31732220D02*
X128015312Y-29761180D01*
X128015312Y-29761180D02*
X127934720Y-29761180D01*
X91794344Y-31732220D02*
X91794344Y-31708104D01*
X91794344Y-31708104D02*
X89849960Y-29763720D01*
X72698340Y-31732220D02*
X72692260Y-31732220D01*
X72692260Y-31732220D02*
X70723760Y-29763720D01*
X65603120Y-46890940D02*
X67703700Y-44790360D01*
X64282860Y-46890940D02*
X65603120Y-46890940D01*
X63722000Y-47451800D02*
X64282860Y-46890940D01*
X67703700Y-44790360D02*
X67703700Y-29758640D01*
X63722000Y-48505800D02*
X63722000Y-47451800D01*
%TO.N,COL0*%
X65978600Y-54762400D02*
X65972000Y-54755800D01*
X68910200Y-54762400D02*
X65978600Y-54762400D01*
X75867260Y-60954940D02*
X75225900Y-61596300D01*
X75867260Y-43187660D02*
X75867260Y-60954940D01*
X75225900Y-42546300D02*
X75867260Y-43187660D01*
%TO.N,COL1*%
X66003600Y-53924200D02*
X65972000Y-53955800D01*
X65975960Y-53959760D02*
X65972000Y-53955800D01*
X67884040Y-53959760D02*
X65975960Y-53959760D01*
X94950280Y-60921920D02*
X94275900Y-61596300D01*
X94950280Y-43220680D02*
X94950280Y-60921920D01*
X94275900Y-42546300D02*
X94950280Y-43220680D01*
%TO.N,COL2*%
X65975760Y-53152040D02*
X65972000Y-53155800D01*
X68889880Y-53152040D02*
X65975760Y-53152040D01*
X113898680Y-61023520D02*
X113325900Y-61596300D01*
X113898680Y-43119080D02*
X113898680Y-61023520D01*
X113325900Y-42546300D02*
X113898680Y-43119080D01*
%TO.N,COL3*%
X65972000Y-52355800D02*
X67806240Y-52355800D01*
X67806240Y-52355800D02*
X67871340Y-52420900D01*
X133007100Y-43177500D02*
X133007100Y-60965100D01*
X133007100Y-60965100D02*
X132375900Y-61596300D01*
X132375900Y-42546300D02*
X133007100Y-43177500D01*
%TO.N,Net-(U1-Pad1)*%
X55086400Y-49219000D02*
X53416200Y-49219000D01*
X57472000Y-49955800D02*
X55823200Y-49955800D01*
X55823200Y-49955800D02*
X55086400Y-49219000D01*
D26*
%TO.N,GND*%
X60253000Y-51555800D02*
X57472000Y-51555800D01*
X62122000Y-49686800D02*
X60253000Y-51555800D01*
X62122000Y-48505800D02*
X62122000Y-49686800D01*
X54237048Y-53174820D02*
X53675280Y-53174820D01*
X57472000Y-51555800D02*
X55856068Y-51555800D01*
X55856068Y-51555800D02*
X54237048Y-53174820D01*
X55928128Y-51555800D02*
X57472000Y-51555800D01*
X57507400Y-33534400D02*
X56592400Y-32619400D01*
X57662400Y-33534400D02*
X57507400Y-33534400D01*
X64317400Y-33534400D02*
X65232400Y-32619400D01*
X64162400Y-33534400D02*
X64317400Y-33534400D01*
D25*
%TO.N,Net-(C1-Pad1)*%
X62922000Y-46856800D02*
X62922000Y-48505800D01*
X64287400Y-45491400D02*
X62922000Y-46856800D01*
D26*
%TO.N,+5V*%
X59722000Y-47504600D02*
X59722000Y-48505800D01*
X57708800Y-45491400D02*
X59722000Y-47504600D01*
X57683400Y-45491400D02*
X57708800Y-45491400D01*
X57139500Y-46723300D02*
X58922000Y-48505800D01*
X55250080Y-46723300D02*
X57139500Y-46723300D01*
X57472000Y-52355800D02*
X56394300Y-52355800D01*
X56394300Y-52355800D02*
X53675280Y-55074820D01*
D25*
%TO.N,Net-(F1-Pad2)*%
X63562400Y-35749400D02*
X63558420Y-35745420D01*
X63558420Y-35745420D02*
X63406022Y-35745420D01*
X58653180Y-35745420D02*
X58483500Y-35745420D01*
X58483500Y-35745420D02*
X58483503Y-35745417D01*
X53270182Y-44743402D02*
X53270182Y-40958738D01*
X53270182Y-40958738D02*
X58483503Y-35745417D01*
X63406022Y-33578022D02*
X63362400Y-33534400D01*
X63406022Y-35745420D02*
X63406022Y-33578022D01*
X58483503Y-33555503D02*
X58462400Y-33534400D01*
X58483503Y-35745417D02*
X58483503Y-33555503D01*
%TO.N,Net-(J1-PadA5)*%
X63016120Y-39411900D02*
X63179960Y-39411900D01*
X62162400Y-38558180D02*
X63016120Y-39411900D01*
X62162400Y-33534400D02*
X62162400Y-38558180D01*
%TO.N,D-*%
X59969400Y-41656004D02*
X59969400Y-43611800D01*
X61662400Y-32570798D02*
X61662400Y-33534400D01*
X60750799Y-32482399D02*
X61574001Y-32482399D01*
X60662400Y-32570798D02*
X60750799Y-32482399D01*
X61574001Y-32482399D02*
X61662400Y-32570798D01*
X60662400Y-33534400D02*
X60662400Y-32570798D01*
X61862400Y-39763002D02*
X61661738Y-39763002D01*
X61661738Y-39763002D02*
X61658499Y-39766241D01*
X61662400Y-33534400D02*
X61662400Y-39762340D01*
X61662400Y-39762340D02*
X61658499Y-39766241D01*
%TO.N,D+*%
X62026800Y-43510200D02*
X61925200Y-43611800D01*
X61925200Y-41630600D02*
X61925200Y-43611800D01*
X60162400Y-39867800D02*
X60970160Y-40675560D01*
X60970160Y-40675560D02*
X61925200Y-41630600D01*
X60350400Y-40055800D02*
X60970160Y-40675560D01*
X60265700Y-35410100D02*
X60162400Y-35410100D01*
X61162400Y-33534400D02*
X61162400Y-34513400D01*
X61162400Y-34513400D02*
X60265700Y-35410100D01*
X60162400Y-35410100D02*
X60162400Y-39867800D01*
X60162400Y-33534400D02*
X60162400Y-35410100D01*
%TO.N,Net-(J1-PadB5)*%
X59162400Y-38672040D02*
X58422540Y-39411900D01*
X59162400Y-33534400D02*
X59162400Y-38672040D01*
%TO.N,Net-(R1-Pad2)*%
X58746700Y-63019300D02*
X58774400Y-63047000D01*
X58467940Y-62994540D02*
X58520400Y-63047000D01*
X56065420Y-62994540D02*
X58467940Y-62994540D01*
X56040020Y-61127640D02*
X56040020Y-62969140D01*
X56040020Y-62969140D02*
X56065420Y-62994540D01*
X65972000Y-49955800D02*
X67804378Y-49955800D01*
%TO.N,Net-(R2-Pad1)*%
X61322000Y-46040000D02*
X61322000Y-48505800D01*
X61925200Y-45436800D02*
X61322000Y-46040000D01*
%TO.N,Net-(R3-Pad1)*%
X60522000Y-45989400D02*
X60522000Y-48505800D01*
X59969400Y-45436800D02*
X60522000Y-45989400D01*
%TO.N,Net-(R6-Pad2)*%
X62122000Y-59277200D02*
X62153800Y-59309000D01*
X62122000Y-57005800D02*
X62122000Y-59277200D01*
%TO.N,Net-(D5-Pad2)*%
X95094344Y-34474744D02*
X100625900Y-40006300D01*
X95094344Y-31732220D02*
X95094344Y-34474744D01*
%TO.N,Net-(D6-Pad2)*%
X114190348Y-34520748D02*
X119675900Y-40006300D01*
X114190348Y-31732220D02*
X114190348Y-34520748D01*
%TO.N,Net-(D7-Pad2)*%
X106357420Y-53324780D02*
X100625900Y-59056300D01*
X106357420Y-33447294D02*
X106357420Y-53324780D01*
X104642346Y-31732220D02*
X106357420Y-33447294D01*
%TO.N,Net-(D8-Pad2)*%
X125476000Y-53256200D02*
X119675900Y-59056300D01*
X125476000Y-33469870D02*
X125476000Y-53256200D01*
X123738350Y-31732220D02*
X125476000Y-33469870D01*
%TO.N,Net-(U1-Pad23)*%
X65985720Y-50769520D02*
X65972000Y-50755800D01*
%TO.N,Net-(U1-Pad2)*%
X55061000Y-51619000D02*
X53416200Y-51619000D01*
X55924200Y-50755800D02*
X55061000Y-51619000D01*
X57472000Y-50755800D02*
X55924200Y-50755800D01*
%TO.N,Net-(U1-Pad17)*%
X65972000Y-55555800D02*
X65995200Y-55555800D01*
%TO.N,Net-(U1-Pad22)*%
X65973420Y-51554380D02*
X65972000Y-51555800D01*
%TD*%
%TO.N,GND*%
X154893200Y-82792760D02*
X42525776Y-82792760D01*
X42525857Y-78413085D01*
X42693800Y-78413085D01*
X42693800Y-79168515D01*
X42841177Y-79909428D01*
X43130267Y-80607354D01*
X43549961Y-81235470D01*
X44084130Y-81769639D01*
X44712246Y-82189333D01*
X45410172Y-82478423D01*
X46151085Y-82625800D01*
X46906515Y-82625800D01*
X47647428Y-82478423D01*
X48345354Y-82189333D01*
X48973470Y-81769639D01*
X49507639Y-81235470D01*
X49927333Y-80607354D01*
X50216423Y-79909428D01*
X50363800Y-79168515D01*
X50363800Y-78413085D01*
X147066400Y-78413085D01*
X147066400Y-79168515D01*
X147213777Y-79909428D01*
X147502867Y-80607354D01*
X147922561Y-81235470D01*
X148456730Y-81769639D01*
X149084846Y-82189333D01*
X149782772Y-82478423D01*
X150523685Y-82625800D01*
X151279115Y-82625800D01*
X152020028Y-82478423D01*
X152717954Y-82189333D01*
X153346070Y-81769639D01*
X153880239Y-81235470D01*
X154299933Y-80607354D01*
X154589023Y-79909428D01*
X154736400Y-79168515D01*
X154736400Y-78413085D01*
X154589023Y-77672172D01*
X154299933Y-76974246D01*
X153880239Y-76346130D01*
X153346070Y-75811961D01*
X152717954Y-75392267D01*
X152020028Y-75103177D01*
X151279115Y-74955800D01*
X150523685Y-74955800D01*
X149782772Y-75103177D01*
X149084846Y-75392267D01*
X148456730Y-75811961D01*
X147922561Y-76346130D01*
X147502867Y-76974246D01*
X147213777Y-77672172D01*
X147066400Y-78413085D01*
X50363800Y-78413085D01*
X50216423Y-77672172D01*
X49927333Y-76974246D01*
X49507639Y-76346130D01*
X48973470Y-75811961D01*
X48345354Y-75392267D01*
X47647428Y-75103177D01*
X46906515Y-74955800D01*
X46151085Y-74955800D01*
X45410172Y-75103177D01*
X44712246Y-75392267D01*
X44084130Y-75811961D01*
X43549961Y-76346130D01*
X43130267Y-76974246D01*
X42841177Y-77672172D01*
X42693800Y-78413085D01*
X42525857Y-78413085D01*
X42525967Y-72431340D01*
X50937437Y-72431340D01*
X50937437Y-76251340D01*
X61721723Y-76251340D01*
X61721723Y-72431340D01*
X50937437Y-72431340D01*
X42525967Y-72431340D01*
X42526081Y-66197000D01*
X56982328Y-66197000D01*
X56982328Y-67297000D01*
X56994588Y-67421482D01*
X57030898Y-67541180D01*
X57089863Y-67651494D01*
X57169215Y-67748185D01*
X57265906Y-67827537D01*
X57376220Y-67886502D01*
X57495918Y-67922812D01*
X57620400Y-67935072D01*
X59420400Y-67935072D01*
X59544882Y-67922812D01*
X59664580Y-67886502D01*
X59774894Y-67827537D01*
X59871585Y-67748185D01*
X59950937Y-67651494D01*
X60009902Y-67541180D01*
X60046212Y-67421482D01*
X60058472Y-67297000D01*
X63182328Y-67297000D01*
X63194588Y-67421482D01*
X63230898Y-67541180D01*
X63289863Y-67651494D01*
X63369215Y-67748185D01*
X63465906Y-67827537D01*
X63576220Y-67886502D01*
X63695918Y-67922812D01*
X63820400Y-67935072D01*
X64434650Y-67932000D01*
X64593400Y-67773250D01*
X64593400Y-66874000D01*
X64847400Y-66874000D01*
X64847400Y-67773250D01*
X65006150Y-67932000D01*
X65620400Y-67935072D01*
X65744882Y-67922812D01*
X65864580Y-67886502D01*
X65974894Y-67827537D01*
X66071585Y-67748185D01*
X66150937Y-67651494D01*
X66209902Y-67541180D01*
X66246212Y-67421482D01*
X66258472Y-67297000D01*
X66255400Y-67032750D01*
X66096650Y-66874000D01*
X64847400Y-66874000D01*
X64593400Y-66874000D01*
X63344150Y-66874000D01*
X63185400Y-67032750D01*
X63182328Y-67297000D01*
X60058472Y-67297000D01*
X60058472Y-66197000D01*
X63182328Y-66197000D01*
X63185400Y-66461250D01*
X63344150Y-66620000D01*
X64593400Y-66620000D01*
X64593400Y-65720750D01*
X64847400Y-65720750D01*
X64847400Y-66620000D01*
X66096650Y-66620000D01*
X66255400Y-66461250D01*
X66258472Y-66197000D01*
X66246212Y-66072518D01*
X66209902Y-65952820D01*
X66150937Y-65842506D01*
X66071585Y-65745815D01*
X65974894Y-65666463D01*
X65864580Y-65607498D01*
X65744882Y-65571188D01*
X65620400Y-65558928D01*
X65006150Y-65562000D01*
X64847400Y-65720750D01*
X64593400Y-65720750D01*
X64434650Y-65562000D01*
X63820400Y-65558928D01*
X63695918Y-65571188D01*
X63576220Y-65607498D01*
X63465906Y-65666463D01*
X63369215Y-65745815D01*
X63289863Y-65842506D01*
X63230898Y-65952820D01*
X63194588Y-66072518D01*
X63182328Y-66197000D01*
X60058472Y-66197000D01*
X60046212Y-66072518D01*
X60009902Y-65952820D01*
X59950937Y-65842506D01*
X59871585Y-65745815D01*
X59774894Y-65666463D01*
X59664580Y-65607498D01*
X59544882Y-65571188D01*
X59420400Y-65558928D01*
X57620400Y-65558928D01*
X57495918Y-65571188D01*
X57376220Y-65607498D01*
X57265906Y-65666463D01*
X57169215Y-65745815D01*
X57089863Y-65842506D01*
X57030898Y-65952820D01*
X56994588Y-66072518D01*
X56982328Y-66197000D01*
X42526081Y-66197000D01*
X42526128Y-63694540D01*
X53089848Y-63694540D01*
X53102108Y-63819022D01*
X53138418Y-63938720D01*
X53197383Y-64049034D01*
X53276735Y-64145725D01*
X53373426Y-64225077D01*
X53483740Y-64284042D01*
X53603438Y-64320352D01*
X53727920Y-64332612D01*
X53954670Y-64329540D01*
X54113420Y-64170790D01*
X54113420Y-63121540D01*
X53251670Y-63121540D01*
X53092920Y-63280290D01*
X53089848Y-63694540D01*
X42526128Y-63694540D01*
X42526154Y-62294540D01*
X53089848Y-62294540D01*
X53092920Y-62708790D01*
X53251670Y-62867540D01*
X54113420Y-62867540D01*
X54113420Y-61818290D01*
X54367420Y-61818290D01*
X54367420Y-62867540D01*
X54387420Y-62867540D01*
X54387420Y-63121540D01*
X54367420Y-63121540D01*
X54367420Y-64170790D01*
X54526170Y-64329540D01*
X54752920Y-64332612D01*
X54877402Y-64320352D01*
X54997100Y-64284042D01*
X55107414Y-64225077D01*
X55204105Y-64145725D01*
X55228283Y-64116264D01*
X55309533Y-64182945D01*
X55463069Y-64265012D01*
X55629665Y-64315548D01*
X55802919Y-64332612D01*
X56327921Y-64332612D01*
X56501175Y-64315548D01*
X56667771Y-64265012D01*
X56821307Y-64182945D01*
X56955882Y-64072502D01*
X57066325Y-63937927D01*
X57074468Y-63922693D01*
X57089863Y-63951494D01*
X57169215Y-64048185D01*
X57265906Y-64127537D01*
X57376220Y-64186502D01*
X57495918Y-64222812D01*
X57620400Y-64235072D01*
X59420400Y-64235072D01*
X59544882Y-64222812D01*
X59664580Y-64186502D01*
X59774894Y-64127537D01*
X59871585Y-64048185D01*
X59950937Y-63951494D01*
X60009902Y-63841180D01*
X60046212Y-63721482D01*
X60058472Y-63597000D01*
X60058472Y-62497000D01*
X63182328Y-62497000D01*
X63182328Y-63597000D01*
X63194588Y-63721482D01*
X63230898Y-63841180D01*
X63289863Y-63951494D01*
X63369215Y-64048185D01*
X63465906Y-64127537D01*
X63576220Y-64186502D01*
X63695918Y-64222812D01*
X63820400Y-64235072D01*
X65620400Y-64235072D01*
X65744882Y-64222812D01*
X65864580Y-64186502D01*
X65974894Y-64127537D01*
X66071585Y-64048185D01*
X66150937Y-63951494D01*
X66209902Y-63841180D01*
X66246212Y-63721482D01*
X66258472Y-63597000D01*
X66258472Y-62497000D01*
X66246212Y-62372518D01*
X66209902Y-62252820D01*
X66150937Y-62142506D01*
X66071585Y-62045815D01*
X65974894Y-61966463D01*
X65864580Y-61907498D01*
X65744882Y-61871188D01*
X65620400Y-61858928D01*
X63820400Y-61858928D01*
X63695918Y-61871188D01*
X63576220Y-61907498D01*
X63465906Y-61966463D01*
X63369215Y-62045815D01*
X63289863Y-62142506D01*
X63230898Y-62252820D01*
X63194588Y-62372518D01*
X63182328Y-62497000D01*
X60058472Y-62497000D01*
X60046212Y-62372518D01*
X60009902Y-62252820D01*
X59950937Y-62142506D01*
X59871585Y-62045815D01*
X59774894Y-61966463D01*
X59664580Y-61907498D01*
X59544882Y-61871188D01*
X59420400Y-61858928D01*
X57620400Y-61858928D01*
X57495918Y-61871188D01*
X57376220Y-61907498D01*
X57265906Y-61966463D01*
X57169215Y-62045815D01*
X57105179Y-62123843D01*
X57066325Y-62051153D01*
X56955882Y-61916578D01*
X56823465Y-61807906D01*
X56843957Y-61787414D01*
X56957225Y-61617896D01*
X57035246Y-61429538D01*
X57075020Y-61229579D01*
X57075020Y-61025701D01*
X57035246Y-60825742D01*
X56957225Y-60637384D01*
X56843957Y-60467866D01*
X56699794Y-60323703D01*
X56530276Y-60210435D01*
X56341918Y-60132414D01*
X56141959Y-60092640D01*
X55938081Y-60092640D01*
X55738122Y-60132414D01*
X55549764Y-60210435D01*
X55380246Y-60323703D01*
X55236083Y-60467866D01*
X55122815Y-60637384D01*
X55044794Y-60825742D01*
X55005020Y-61025701D01*
X55005020Y-61229579D01*
X55044794Y-61429538D01*
X55122815Y-61617896D01*
X55236083Y-61787414D01*
X55278020Y-61829351D01*
X55278020Y-61831997D01*
X55228283Y-61872816D01*
X55204105Y-61843355D01*
X55107414Y-61764003D01*
X54997100Y-61705038D01*
X54877402Y-61668728D01*
X54752920Y-61656468D01*
X54526170Y-61659540D01*
X54367420Y-61818290D01*
X54113420Y-61818290D01*
X53954670Y-61659540D01*
X53727920Y-61656468D01*
X53603438Y-61668728D01*
X53483740Y-61705038D01*
X53373426Y-61764003D01*
X53276735Y-61843355D01*
X53197383Y-61940046D01*
X53138418Y-62050360D01*
X53102108Y-62170058D01*
X53089848Y-62294540D01*
X42526154Y-62294540D01*
X42526196Y-60009000D01*
X59178228Y-60009000D01*
X59190488Y-60133482D01*
X59226798Y-60253180D01*
X59285763Y-60363494D01*
X59365115Y-60460185D01*
X59461806Y-60539537D01*
X59572120Y-60598502D01*
X59691818Y-60634812D01*
X59816300Y-60647072D01*
X60043050Y-60644000D01*
X60201800Y-60485250D01*
X60201800Y-59436000D01*
X59340050Y-59436000D01*
X59181300Y-59594750D01*
X59178228Y-60009000D01*
X42526196Y-60009000D01*
X42526477Y-44920179D01*
X51675003Y-44920179D01*
X51692067Y-45093433D01*
X51742603Y-45260029D01*
X51824670Y-45413565D01*
X51935113Y-45548141D01*
X52465443Y-46078471D01*
X52600019Y-46188914D01*
X52753555Y-46270981D01*
X52920151Y-46321517D01*
X53093405Y-46338581D01*
X53266659Y-46321517D01*
X53433255Y-46270981D01*
X53586791Y-46188914D01*
X53721367Y-46078471D01*
X54605251Y-45194587D01*
X54715694Y-45060011D01*
X54797761Y-44906475D01*
X54848297Y-44739879D01*
X54865361Y-44566625D01*
X54848297Y-44393371D01*
X54797761Y-44226775D01*
X54715694Y-44073239D01*
X54605251Y-43938663D01*
X54074921Y-43408333D01*
X54032182Y-43373258D01*
X54032182Y-43091400D01*
X56320328Y-43091400D01*
X56323400Y-43305650D01*
X56482150Y-43464400D01*
X57556400Y-43464400D01*
X57556400Y-42615150D01*
X57397650Y-42456400D01*
X56958400Y-42453328D01*
X56833918Y-42465588D01*
X56714220Y-42501898D01*
X56603906Y-42560863D01*
X56507215Y-42640215D01*
X56427863Y-42736906D01*
X56368898Y-42847220D01*
X56332588Y-42966918D01*
X56320328Y-43091400D01*
X54032182Y-43091400D01*
X54032182Y-41749400D01*
X57084468Y-41749400D01*
X57096728Y-41873882D01*
X57133038Y-41993580D01*
X57192003Y-42103894D01*
X57271355Y-42200585D01*
X57368046Y-42279937D01*
X57478360Y-42338902D01*
X57598058Y-42375212D01*
X57722540Y-42387472D01*
X58136790Y-42384400D01*
X58295540Y-42225650D01*
X58295540Y-41363900D01*
X57246290Y-41363900D01*
X57087540Y-41522650D01*
X57084468Y-41749400D01*
X54032182Y-41749400D01*
X54032182Y-41274368D01*
X58400401Y-36906150D01*
X58400401Y-38261328D01*
X57972539Y-38261328D01*
X57799285Y-38278392D01*
X57632689Y-38328928D01*
X57479153Y-38410995D01*
X57344578Y-38521438D01*
X57234135Y-38656013D01*
X57152068Y-38809549D01*
X57101532Y-38976145D01*
X57084468Y-39149399D01*
X57084468Y-39674401D01*
X57101532Y-39847655D01*
X57152068Y-40014251D01*
X57234135Y-40167787D01*
X57300816Y-40249037D01*
X57271355Y-40273215D01*
X57192003Y-40369906D01*
X57133038Y-40480220D01*
X57096728Y-40599918D01*
X57084468Y-40724400D01*
X57087540Y-40951150D01*
X57246290Y-41109900D01*
X58295540Y-41109900D01*
X58295540Y-41089900D01*
X58549540Y-41089900D01*
X58549540Y-41109900D01*
X58569540Y-41109900D01*
X58569540Y-41363900D01*
X58549540Y-41363900D01*
X58549540Y-42225650D01*
X58708290Y-42384400D01*
X59122540Y-42387472D01*
X59207400Y-42379114D01*
X59207400Y-42520379D01*
X59179549Y-42528828D01*
X59026013Y-42610895D01*
X58912186Y-42704310D01*
X58859585Y-42640215D01*
X58762894Y-42560863D01*
X58652580Y-42501898D01*
X58532882Y-42465588D01*
X58408400Y-42453328D01*
X57969150Y-42456400D01*
X57810400Y-42615150D01*
X57810400Y-43464400D01*
X57830400Y-43464400D01*
X57830400Y-43718400D01*
X57810400Y-43718400D01*
X57810400Y-43738400D01*
X57556400Y-43738400D01*
X57556400Y-43718400D01*
X56482150Y-43718400D01*
X56323400Y-43877150D01*
X56320328Y-44091400D01*
X56332588Y-44215882D01*
X56368898Y-44335580D01*
X56427863Y-44445894D01*
X56507215Y-44542585D01*
X56586994Y-44608058D01*
X56580438Y-44613438D01*
X56469995Y-44748014D01*
X56387928Y-44901550D01*
X56337392Y-45068146D01*
X56320328Y-45241400D01*
X56320328Y-45653740D01*
X56054819Y-45388231D01*
X55920243Y-45277788D01*
X55766707Y-45195721D01*
X55600111Y-45145185D01*
X55426857Y-45128121D01*
X55253603Y-45145185D01*
X55087007Y-45195721D01*
X54933471Y-45277788D01*
X54798895Y-45388231D01*
X53915011Y-46272115D01*
X53804568Y-46406691D01*
X53722501Y-46560227D01*
X53671965Y-46726823D01*
X53654901Y-46900077D01*
X53671965Y-47073331D01*
X53722501Y-47239927D01*
X53804568Y-47393463D01*
X53915011Y-47528039D01*
X54445341Y-48058369D01*
X54579917Y-48168812D01*
X54733453Y-48250879D01*
X54900049Y-48301415D01*
X55073303Y-48318479D01*
X55246557Y-48301415D01*
X55413153Y-48250879D01*
X55566689Y-48168812D01*
X55701265Y-48058369D01*
X56210834Y-47548800D01*
X56797568Y-47548800D01*
X58008928Y-48760162D01*
X58008928Y-49042728D01*
X56672000Y-49042728D01*
X56547518Y-49054988D01*
X56427820Y-49091298D01*
X56317506Y-49150263D01*
X56264456Y-49193800D01*
X56138830Y-49193800D01*
X55651684Y-48706654D01*
X55627822Y-48677578D01*
X55511792Y-48582355D01*
X55379415Y-48511598D01*
X55235778Y-48468026D01*
X55123826Y-48457000D01*
X55123823Y-48457000D01*
X55086400Y-48453314D01*
X55048977Y-48457000D01*
X54661832Y-48457000D01*
X54610380Y-48429498D01*
X54490682Y-48393188D01*
X54366200Y-48380928D01*
X52466200Y-48380928D01*
X52341718Y-48393188D01*
X52222020Y-48429498D01*
X52111706Y-48488463D01*
X52015015Y-48567815D01*
X51935663Y-48664506D01*
X51876698Y-48774820D01*
X51840388Y-48894518D01*
X51828128Y-49019000D01*
X51828128Y-49419000D01*
X51840388Y-49543482D01*
X51876698Y-49663180D01*
X51935663Y-49773494D01*
X51973009Y-49819000D01*
X51935663Y-49864506D01*
X51876698Y-49974820D01*
X51840388Y-50094518D01*
X51828128Y-50219000D01*
X51828128Y-50619000D01*
X51840388Y-50743482D01*
X51876698Y-50863180D01*
X51935663Y-50973494D01*
X51973009Y-51019000D01*
X51935663Y-51064506D01*
X51876698Y-51174820D01*
X51840388Y-51294518D01*
X51828128Y-51419000D01*
X51828128Y-51819000D01*
X51840388Y-51943482D01*
X51876698Y-52063180D01*
X51935663Y-52173494D01*
X52015015Y-52270185D01*
X52111706Y-52349537D01*
X52222020Y-52408502D01*
X52341718Y-52444812D01*
X52356051Y-52446224D01*
X52324468Y-52550338D01*
X52312208Y-52674820D01*
X52315280Y-52889070D01*
X52474030Y-53047820D01*
X53548280Y-53047820D01*
X53548280Y-53027820D01*
X53802280Y-53027820D01*
X53802280Y-53047820D01*
X53822280Y-53047820D01*
X53822280Y-53301820D01*
X53802280Y-53301820D01*
X53802280Y-53321820D01*
X53548280Y-53321820D01*
X53548280Y-53301820D01*
X52474030Y-53301820D01*
X52315280Y-53460570D01*
X52312208Y-53674820D01*
X52324468Y-53799302D01*
X52360778Y-53919000D01*
X52419743Y-54029314D01*
X52499095Y-54126005D01*
X52578874Y-54191478D01*
X52572318Y-54196858D01*
X52461875Y-54331434D01*
X52379808Y-54484970D01*
X52329272Y-54651566D01*
X52312208Y-54824820D01*
X52312208Y-55324820D01*
X52329272Y-55498074D01*
X52379808Y-55664670D01*
X52461875Y-55818206D01*
X52572318Y-55952782D01*
X52706894Y-56063225D01*
X52860430Y-56145292D01*
X53027026Y-56195828D01*
X53200280Y-56212892D01*
X54150280Y-56212892D01*
X54323534Y-56195828D01*
X54490130Y-56145292D01*
X54643666Y-56063225D01*
X54778242Y-55952782D01*
X54888685Y-55818206D01*
X54970752Y-55664670D01*
X55021288Y-55498074D01*
X55038352Y-55324820D01*
X55038352Y-54879180D01*
X56033928Y-53883605D01*
X56033928Y-54230800D01*
X56046188Y-54355282D01*
X56046345Y-54355800D01*
X56046188Y-54356318D01*
X56033928Y-54480800D01*
X56033928Y-55030800D01*
X56046188Y-55155282D01*
X56046345Y-55155800D01*
X56046188Y-55156318D01*
X56033928Y-55280800D01*
X56033928Y-55830800D01*
X56046188Y-55955282D01*
X56082498Y-56074980D01*
X56141463Y-56185294D01*
X56220815Y-56281985D01*
X56317506Y-56361337D01*
X56427820Y-56420302D01*
X56547518Y-56456612D01*
X56672000Y-56468872D01*
X58008928Y-56468872D01*
X58008928Y-57805800D01*
X58021188Y-57930282D01*
X58057498Y-58049980D01*
X58116463Y-58160294D01*
X58195815Y-58256985D01*
X58292506Y-58336337D01*
X58402820Y-58395302D01*
X58522518Y-58431612D01*
X58647000Y-58443872D01*
X59197000Y-58443872D01*
X59202997Y-58443281D01*
X59190488Y-58484518D01*
X59178228Y-58609000D01*
X59181300Y-59023250D01*
X59340050Y-59182000D01*
X60201800Y-59182000D01*
X60201800Y-59162000D01*
X60455800Y-59162000D01*
X60455800Y-59182000D01*
X60475800Y-59182000D01*
X60475800Y-59436000D01*
X60455800Y-59436000D01*
X60455800Y-60485250D01*
X60614550Y-60644000D01*
X60841300Y-60647072D01*
X60965782Y-60634812D01*
X61085480Y-60598502D01*
X61195794Y-60539537D01*
X61292485Y-60460185D01*
X61316663Y-60430724D01*
X61397913Y-60497405D01*
X61551449Y-60579472D01*
X61718045Y-60630008D01*
X61891299Y-60647072D01*
X62416301Y-60647072D01*
X62589555Y-60630008D01*
X62756151Y-60579472D01*
X62909687Y-60497405D01*
X63044262Y-60386962D01*
X63154705Y-60252387D01*
X63236772Y-60098851D01*
X63287308Y-59932255D01*
X63304372Y-59759001D01*
X63304372Y-58858999D01*
X63287308Y-58685745D01*
X63236772Y-58519149D01*
X63196535Y-58443872D01*
X63197000Y-58443872D01*
X63321482Y-58431612D01*
X63322000Y-58431455D01*
X63322518Y-58431612D01*
X63447000Y-58443872D01*
X63997000Y-58443872D01*
X64121482Y-58431612D01*
X64122000Y-58431455D01*
X64122518Y-58431612D01*
X64247000Y-58443872D01*
X64797000Y-58443872D01*
X64921482Y-58431612D01*
X65041180Y-58395302D01*
X65151494Y-58336337D01*
X65248185Y-58256985D01*
X65327537Y-58160294D01*
X65386502Y-58049980D01*
X65422812Y-57930282D01*
X65435072Y-57805800D01*
X65435072Y-56468872D01*
X66772000Y-56468872D01*
X66896482Y-56456612D01*
X67016180Y-56420302D01*
X67126494Y-56361337D01*
X67223185Y-56281985D01*
X67302537Y-56185294D01*
X67361502Y-56074980D01*
X67397812Y-55955282D01*
X67410072Y-55830800D01*
X67410072Y-55524400D01*
X68208489Y-55524400D01*
X68250426Y-55566337D01*
X68419944Y-55679605D01*
X68608302Y-55757626D01*
X68808261Y-55797400D01*
X69012139Y-55797400D01*
X69212098Y-55757626D01*
X69400456Y-55679605D01*
X69569974Y-55566337D01*
X69714137Y-55422174D01*
X69827405Y-55252656D01*
X69905426Y-55064298D01*
X69945200Y-54864339D01*
X69945200Y-54660461D01*
X69905426Y-54460502D01*
X69827405Y-54272144D01*
X69714137Y-54102626D01*
X69569974Y-53958463D01*
X69568114Y-53957220D01*
X69569974Y-53955977D01*
X69714137Y-53811814D01*
X69827405Y-53642296D01*
X69905426Y-53453938D01*
X69945200Y-53253979D01*
X69945200Y-53050101D01*
X69905426Y-52850142D01*
X69827405Y-52661784D01*
X69714137Y-52492266D01*
X69569974Y-52348103D01*
X69400456Y-52234835D01*
X69212098Y-52156814D01*
X69012139Y-52117040D01*
X68865753Y-52117040D01*
X68788545Y-51930644D01*
X68675277Y-51761126D01*
X68531114Y-51616963D01*
X68361596Y-51503695D01*
X68173238Y-51425674D01*
X67973279Y-51385900D01*
X67769401Y-51385900D01*
X67569442Y-51425674D01*
X67410072Y-51491688D01*
X67410072Y-51280800D01*
X67397812Y-51156318D01*
X67397655Y-51155800D01*
X67397812Y-51155282D01*
X67410072Y-51030800D01*
X67410072Y-50912749D01*
X67502480Y-50951026D01*
X67702439Y-50990800D01*
X67906317Y-50990800D01*
X68106276Y-50951026D01*
X68294634Y-50873005D01*
X68464152Y-50759737D01*
X68608315Y-50615574D01*
X68721583Y-50446056D01*
X68799604Y-50257698D01*
X68839378Y-50057739D01*
X68839378Y-49853861D01*
X68799604Y-49653902D01*
X68721583Y-49465544D01*
X68608315Y-49296026D01*
X68464152Y-49151863D01*
X68294634Y-49038595D01*
X68106276Y-48960574D01*
X67906317Y-48920800D01*
X67702439Y-48920800D01*
X67502480Y-48960574D01*
X67314122Y-49038595D01*
X67144604Y-49151863D01*
X67137320Y-49159147D01*
X67126494Y-49150263D01*
X67016180Y-49091298D01*
X66896482Y-49054988D01*
X66772000Y-49042728D01*
X65658590Y-49042728D01*
X65678764Y-49018146D01*
X69069487Y-45627423D01*
X69098562Y-45603562D01*
X69184720Y-45498578D01*
X69193785Y-45487533D01*
X69233321Y-45413565D01*
X69264542Y-45355155D01*
X69308114Y-45211518D01*
X69319140Y-45099566D01*
X69319140Y-45099563D01*
X69322826Y-45062140D01*
X69319140Y-45024717D01*
X69319140Y-44937578D01*
X72445900Y-44937578D01*
X72445900Y-45235022D01*
X72503929Y-45526751D01*
X72617756Y-45801553D01*
X72783007Y-46048869D01*
X72993331Y-46259193D01*
X73240647Y-46424444D01*
X73515449Y-46538271D01*
X73807178Y-46596300D01*
X74104622Y-46596300D01*
X74396351Y-46538271D01*
X74671153Y-46424444D01*
X74918469Y-46259193D01*
X75105260Y-46072402D01*
X75105261Y-59836300D01*
X75052555Y-59836300D01*
X74712527Y-59903936D01*
X74392227Y-60036608D01*
X74103965Y-60229219D01*
X73858819Y-60474365D01*
X73666208Y-60762627D01*
X73533536Y-61082927D01*
X73465900Y-61422955D01*
X73465900Y-61769645D01*
X73533536Y-62109673D01*
X73666208Y-62429973D01*
X73798538Y-62628019D01*
X73515449Y-62684329D01*
X73240647Y-62798156D01*
X72993331Y-62963407D01*
X72783007Y-63173731D01*
X72617756Y-63421047D01*
X72503929Y-63695849D01*
X72445900Y-63987578D01*
X72445900Y-64285022D01*
X72503929Y-64576751D01*
X72617756Y-64851553D01*
X72783007Y-65098869D01*
X72993331Y-65309193D01*
X73240647Y-65474444D01*
X73515449Y-65588271D01*
X73807178Y-65646300D01*
X74104622Y-65646300D01*
X74396351Y-65588271D01*
X74671153Y-65474444D01*
X74918469Y-65309193D01*
X75128793Y-65098869D01*
X75294044Y-64851553D01*
X75407871Y-64576751D01*
X75465900Y-64285022D01*
X75465900Y-63987578D01*
X75443980Y-63877376D01*
X76407000Y-63877376D01*
X76407000Y-64395224D01*
X76508027Y-64903122D01*
X76706199Y-65381551D01*
X76993900Y-65812126D01*
X77360074Y-66178300D01*
X77790649Y-66466001D01*
X78269078Y-66664173D01*
X78776976Y-66765200D01*
X79294824Y-66765200D01*
X79802722Y-66664173D01*
X80281151Y-66466001D01*
X80711726Y-66178300D01*
X81077900Y-65812126D01*
X81365601Y-65381551D01*
X81563773Y-64903122D01*
X81664800Y-64395224D01*
X81664800Y-63987578D01*
X82605900Y-63987578D01*
X82605900Y-64285022D01*
X82663929Y-64576751D01*
X82777756Y-64851553D01*
X82943007Y-65098869D01*
X83153331Y-65309193D01*
X83400647Y-65474444D01*
X83675449Y-65588271D01*
X83967178Y-65646300D01*
X84264622Y-65646300D01*
X84556351Y-65588271D01*
X84831153Y-65474444D01*
X85078469Y-65309193D01*
X85288793Y-65098869D01*
X85454044Y-64851553D01*
X85567871Y-64576751D01*
X85625900Y-64285022D01*
X85625900Y-63987578D01*
X85567871Y-63695849D01*
X85454044Y-63421047D01*
X85288793Y-63173731D01*
X85078469Y-62963407D01*
X84831153Y-62798156D01*
X84556351Y-62684329D01*
X84264622Y-62626300D01*
X83967178Y-62626300D01*
X83675449Y-62684329D01*
X83400647Y-62798156D01*
X83153331Y-62963407D01*
X82943007Y-63173731D01*
X82777756Y-63421047D01*
X82663929Y-63695849D01*
X82605900Y-63987578D01*
X81664800Y-63987578D01*
X81664800Y-63877376D01*
X81563773Y-63369478D01*
X81365601Y-62891049D01*
X81077900Y-62460474D01*
X80711726Y-62094300D01*
X80281151Y-61806599D01*
X79802722Y-61608427D01*
X79294824Y-61507400D01*
X78776976Y-61507400D01*
X78269078Y-61608427D01*
X77790649Y-61806599D01*
X77360074Y-62094300D01*
X76993900Y-62460474D01*
X76706199Y-62891049D01*
X76508027Y-63369478D01*
X76407000Y-63877376D01*
X75443980Y-63877376D01*
X75407871Y-63695849D01*
X75294044Y-63421047D01*
X75250782Y-63356300D01*
X75399245Y-63356300D01*
X75739273Y-63288664D01*
X76059573Y-63155992D01*
X76347835Y-62963381D01*
X76592981Y-62718235D01*
X76785592Y-62429973D01*
X76918264Y-62109673D01*
X76985900Y-61769645D01*
X76985900Y-61422955D01*
X76918264Y-61082927D01*
X76785592Y-60762627D01*
X76629260Y-60528660D01*
X76629260Y-58882955D01*
X79815900Y-58882955D01*
X79815900Y-59229645D01*
X79883536Y-59569673D01*
X80016208Y-59889973D01*
X80208819Y-60178235D01*
X80453965Y-60423381D01*
X80742227Y-60615992D01*
X81062527Y-60748664D01*
X81402555Y-60816300D01*
X81749245Y-60816300D01*
X82089273Y-60748664D01*
X82409573Y-60615992D01*
X82697835Y-60423381D01*
X82942981Y-60178235D01*
X83135592Y-59889973D01*
X83268264Y-59569673D01*
X83335900Y-59229645D01*
X83335900Y-58882955D01*
X83268264Y-58542927D01*
X83238576Y-58471254D01*
X87944232Y-53765599D01*
X87973302Y-53741742D01*
X88068525Y-53625712D01*
X88139282Y-53493335D01*
X88182854Y-53349698D01*
X88193880Y-53237746D01*
X88193880Y-53237744D01*
X88197566Y-53200321D01*
X88193880Y-53162898D01*
X88193880Y-44937578D01*
X91495900Y-44937578D01*
X91495900Y-45235022D01*
X91553929Y-45526751D01*
X91667756Y-45801553D01*
X91833007Y-46048869D01*
X92043331Y-46259193D01*
X92290647Y-46424444D01*
X92565449Y-46538271D01*
X92857178Y-46596300D01*
X93154622Y-46596300D01*
X93446351Y-46538271D01*
X93721153Y-46424444D01*
X93968469Y-46259193D01*
X94178793Y-46048869D01*
X94188280Y-46034670D01*
X94188281Y-59836300D01*
X94102555Y-59836300D01*
X93762527Y-59903936D01*
X93442227Y-60036608D01*
X93153965Y-60229219D01*
X92908819Y-60474365D01*
X92716208Y-60762627D01*
X92583536Y-61082927D01*
X92515900Y-61422955D01*
X92515900Y-61769645D01*
X92583536Y-62109673D01*
X92716208Y-62429973D01*
X92848538Y-62628019D01*
X92565449Y-62684329D01*
X92290647Y-62798156D01*
X92043331Y-62963407D01*
X91833007Y-63173731D01*
X91667756Y-63421047D01*
X91553929Y-63695849D01*
X91495900Y-63987578D01*
X91495900Y-64285022D01*
X91553929Y-64576751D01*
X91667756Y-64851553D01*
X91833007Y-65098869D01*
X92043331Y-65309193D01*
X92290647Y-65474444D01*
X92565449Y-65588271D01*
X92857178Y-65646300D01*
X93154622Y-65646300D01*
X93446351Y-65588271D01*
X93721153Y-65474444D01*
X93968469Y-65309193D01*
X94178793Y-65098869D01*
X94344044Y-64851553D01*
X94457871Y-64576751D01*
X94515900Y-64285022D01*
X94515900Y-63987578D01*
X94493980Y-63877376D01*
X95457000Y-63877376D01*
X95457000Y-64395224D01*
X95558027Y-64903122D01*
X95756199Y-65381551D01*
X96043900Y-65812126D01*
X96410074Y-66178300D01*
X96840649Y-66466001D01*
X97319078Y-66664173D01*
X97826976Y-66765200D01*
X98344824Y-66765200D01*
X98852722Y-66664173D01*
X99331151Y-66466001D01*
X99761726Y-66178300D01*
X100127900Y-65812126D01*
X100415601Y-65381551D01*
X100613773Y-64903122D01*
X100714800Y-64395224D01*
X100714800Y-63987578D01*
X101655900Y-63987578D01*
X101655900Y-64285022D01*
X101713929Y-64576751D01*
X101827756Y-64851553D01*
X101993007Y-65098869D01*
X102203331Y-65309193D01*
X102450647Y-65474444D01*
X102725449Y-65588271D01*
X103017178Y-65646300D01*
X103314622Y-65646300D01*
X103606351Y-65588271D01*
X103881153Y-65474444D01*
X104128469Y-65309193D01*
X104338793Y-65098869D01*
X104504044Y-64851553D01*
X104617871Y-64576751D01*
X104675900Y-64285022D01*
X104675900Y-63987578D01*
X104617871Y-63695849D01*
X104504044Y-63421047D01*
X104338793Y-63173731D01*
X104128469Y-62963407D01*
X103881153Y-62798156D01*
X103606351Y-62684329D01*
X103314622Y-62626300D01*
X103017178Y-62626300D01*
X102725449Y-62684329D01*
X102450647Y-62798156D01*
X102203331Y-62963407D01*
X101993007Y-63173731D01*
X101827756Y-63421047D01*
X101713929Y-63695849D01*
X101655900Y-63987578D01*
X100714800Y-63987578D01*
X100714800Y-63877376D01*
X100613773Y-63369478D01*
X100415601Y-62891049D01*
X100127900Y-62460474D01*
X99761726Y-62094300D01*
X99331151Y-61806599D01*
X98852722Y-61608427D01*
X98344824Y-61507400D01*
X97826976Y-61507400D01*
X97319078Y-61608427D01*
X96840649Y-61806599D01*
X96410074Y-62094300D01*
X96043900Y-62460474D01*
X95756199Y-62891049D01*
X95558027Y-63369478D01*
X95457000Y-63877376D01*
X94493980Y-63877376D01*
X94457871Y-63695849D01*
X94344044Y-63421047D01*
X94300782Y-63356300D01*
X94449245Y-63356300D01*
X94789273Y-63288664D01*
X95109573Y-63155992D01*
X95397835Y-62963381D01*
X95642981Y-62718235D01*
X95835592Y-62429973D01*
X95968264Y-62109673D01*
X96035900Y-61769645D01*
X96035900Y-61422955D01*
X95968264Y-61082927D01*
X95835592Y-60762627D01*
X95712280Y-60578078D01*
X95712280Y-58882955D01*
X98865900Y-58882955D01*
X98865900Y-59229645D01*
X98933536Y-59569673D01*
X99066208Y-59889973D01*
X99258819Y-60178235D01*
X99503965Y-60423381D01*
X99792227Y-60615992D01*
X100112527Y-60748664D01*
X100452555Y-60816300D01*
X100799245Y-60816300D01*
X101139273Y-60748664D01*
X101459573Y-60615992D01*
X101747835Y-60423381D01*
X101992981Y-60178235D01*
X102185592Y-59889973D01*
X102318264Y-59569673D01*
X102385900Y-59229645D01*
X102385900Y-58882955D01*
X102318264Y-58542927D01*
X102288576Y-58471254D01*
X106869772Y-53890059D01*
X106898842Y-53866202D01*
X106994065Y-53750172D01*
X107064822Y-53617795D01*
X107108394Y-53474158D01*
X107119420Y-53362206D01*
X107119420Y-53362204D01*
X107123106Y-53324781D01*
X107119420Y-53287358D01*
X107119420Y-44937578D01*
X110545900Y-44937578D01*
X110545900Y-45235022D01*
X110603929Y-45526751D01*
X110717756Y-45801553D01*
X110883007Y-46048869D01*
X111093331Y-46259193D01*
X111340647Y-46424444D01*
X111615449Y-46538271D01*
X111907178Y-46596300D01*
X112204622Y-46596300D01*
X112496351Y-46538271D01*
X112771153Y-46424444D01*
X113018469Y-46259193D01*
X113136680Y-46140982D01*
X113136681Y-59839458D01*
X112812527Y-59903936D01*
X112492227Y-60036608D01*
X112203965Y-60229219D01*
X111958819Y-60474365D01*
X111766208Y-60762627D01*
X111633536Y-61082927D01*
X111565900Y-61422955D01*
X111565900Y-61769645D01*
X111633536Y-62109673D01*
X111766208Y-62429973D01*
X111898538Y-62628019D01*
X111615449Y-62684329D01*
X111340647Y-62798156D01*
X111093331Y-62963407D01*
X110883007Y-63173731D01*
X110717756Y-63421047D01*
X110603929Y-63695849D01*
X110545900Y-63987578D01*
X110545900Y-64285022D01*
X110603929Y-64576751D01*
X110717756Y-64851553D01*
X110883007Y-65098869D01*
X111093331Y-65309193D01*
X111340647Y-65474444D01*
X111615449Y-65588271D01*
X111907178Y-65646300D01*
X112204622Y-65646300D01*
X112496351Y-65588271D01*
X112771153Y-65474444D01*
X113018469Y-65309193D01*
X113228793Y-65098869D01*
X113394044Y-64851553D01*
X113507871Y-64576751D01*
X113565900Y-64285022D01*
X113565900Y-63987578D01*
X113543980Y-63877376D01*
X114507000Y-63877376D01*
X114507000Y-64395224D01*
X114608027Y-64903122D01*
X114806199Y-65381551D01*
X115093900Y-65812126D01*
X115460074Y-66178300D01*
X115890649Y-66466001D01*
X116369078Y-66664173D01*
X116876976Y-66765200D01*
X117394824Y-66765200D01*
X117902722Y-66664173D01*
X118381151Y-66466001D01*
X118811726Y-66178300D01*
X119177900Y-65812126D01*
X119465601Y-65381551D01*
X119663773Y-64903122D01*
X119764800Y-64395224D01*
X119764800Y-63987578D01*
X120705900Y-63987578D01*
X120705900Y-64285022D01*
X120763929Y-64576751D01*
X120877756Y-64851553D01*
X121043007Y-65098869D01*
X121253331Y-65309193D01*
X121500647Y-65474444D01*
X121775449Y-65588271D01*
X122067178Y-65646300D01*
X122364622Y-65646300D01*
X122656351Y-65588271D01*
X122931153Y-65474444D01*
X123178469Y-65309193D01*
X123388793Y-65098869D01*
X123554044Y-64851553D01*
X123667871Y-64576751D01*
X123725900Y-64285022D01*
X123725900Y-63987578D01*
X123667871Y-63695849D01*
X123554044Y-63421047D01*
X123388793Y-63173731D01*
X123178469Y-62963407D01*
X122931153Y-62798156D01*
X122656351Y-62684329D01*
X122364622Y-62626300D01*
X122067178Y-62626300D01*
X121775449Y-62684329D01*
X121500647Y-62798156D01*
X121253331Y-62963407D01*
X121043007Y-63173731D01*
X120877756Y-63421047D01*
X120763929Y-63695849D01*
X120705900Y-63987578D01*
X119764800Y-63987578D01*
X119764800Y-63877376D01*
X119663773Y-63369478D01*
X119465601Y-62891049D01*
X119177900Y-62460474D01*
X118811726Y-62094300D01*
X118381151Y-61806599D01*
X117902722Y-61608427D01*
X117394824Y-61507400D01*
X116876976Y-61507400D01*
X116369078Y-61608427D01*
X115890649Y-61806599D01*
X115460074Y-62094300D01*
X115093900Y-62460474D01*
X114806199Y-62891049D01*
X114608027Y-63369478D01*
X114507000Y-63877376D01*
X113543980Y-63877376D01*
X113507871Y-63695849D01*
X113394044Y-63421047D01*
X113350782Y-63356300D01*
X113499245Y-63356300D01*
X113839273Y-63288664D01*
X114159573Y-63155992D01*
X114447835Y-62963381D01*
X114692981Y-62718235D01*
X114885592Y-62429973D01*
X115018264Y-62109673D01*
X115085900Y-61769645D01*
X115085900Y-61422955D01*
X115018264Y-61082927D01*
X114885592Y-60762627D01*
X114692981Y-60474365D01*
X114660680Y-60442064D01*
X114660680Y-58882955D01*
X117915900Y-58882955D01*
X117915900Y-59229645D01*
X117983536Y-59569673D01*
X118116208Y-59889973D01*
X118308819Y-60178235D01*
X118553965Y-60423381D01*
X118842227Y-60615992D01*
X119162527Y-60748664D01*
X119502555Y-60816300D01*
X119849245Y-60816300D01*
X120189273Y-60748664D01*
X120509573Y-60615992D01*
X120797835Y-60423381D01*
X121042981Y-60178235D01*
X121235592Y-59889973D01*
X121368264Y-59569673D01*
X121435900Y-59229645D01*
X121435900Y-58882955D01*
X121368264Y-58542927D01*
X121338576Y-58471254D01*
X125988352Y-53821479D01*
X126017422Y-53797622D01*
X126112645Y-53681592D01*
X126183402Y-53549215D01*
X126226974Y-53405578D01*
X126238000Y-53293626D01*
X126238000Y-53293624D01*
X126241686Y-53256201D01*
X126238000Y-53218778D01*
X126238000Y-44937578D01*
X129595900Y-44937578D01*
X129595900Y-45235022D01*
X129653929Y-45526751D01*
X129767756Y-45801553D01*
X129933007Y-46048869D01*
X130143331Y-46259193D01*
X130390647Y-46424444D01*
X130665449Y-46538271D01*
X130957178Y-46596300D01*
X131254622Y-46596300D01*
X131546351Y-46538271D01*
X131821153Y-46424444D01*
X132068469Y-46259193D01*
X132245100Y-46082562D01*
X132245101Y-59836300D01*
X132202555Y-59836300D01*
X131862527Y-59903936D01*
X131542227Y-60036608D01*
X131253965Y-60229219D01*
X131008819Y-60474365D01*
X130816208Y-60762627D01*
X130683536Y-61082927D01*
X130615900Y-61422955D01*
X130615900Y-61769645D01*
X130683536Y-62109673D01*
X130816208Y-62429973D01*
X130948538Y-62628019D01*
X130665449Y-62684329D01*
X130390647Y-62798156D01*
X130143331Y-62963407D01*
X129933007Y-63173731D01*
X129767756Y-63421047D01*
X129653929Y-63695849D01*
X129595900Y-63987578D01*
X129595900Y-64285022D01*
X129653929Y-64576751D01*
X129767756Y-64851553D01*
X129933007Y-65098869D01*
X130143331Y-65309193D01*
X130390647Y-65474444D01*
X130665449Y-65588271D01*
X130957178Y-65646300D01*
X131254622Y-65646300D01*
X131546351Y-65588271D01*
X131821153Y-65474444D01*
X132068469Y-65309193D01*
X132278793Y-65098869D01*
X132444044Y-64851553D01*
X132557871Y-64576751D01*
X132615900Y-64285022D01*
X132615900Y-63987578D01*
X132593980Y-63877376D01*
X133557000Y-63877376D01*
X133557000Y-64395224D01*
X133658027Y-64903122D01*
X133856199Y-65381551D01*
X134143900Y-65812126D01*
X134510074Y-66178300D01*
X134940649Y-66466001D01*
X135419078Y-66664173D01*
X135926976Y-66765200D01*
X136444824Y-66765200D01*
X136952722Y-66664173D01*
X137431151Y-66466001D01*
X137861726Y-66178300D01*
X138227900Y-65812126D01*
X138515601Y-65381551D01*
X138713773Y-64903122D01*
X138814800Y-64395224D01*
X138814800Y-63987578D01*
X139755900Y-63987578D01*
X139755900Y-64285022D01*
X139813929Y-64576751D01*
X139927756Y-64851553D01*
X140093007Y-65098869D01*
X140303331Y-65309193D01*
X140550647Y-65474444D01*
X140825449Y-65588271D01*
X141117178Y-65646300D01*
X141414622Y-65646300D01*
X141706351Y-65588271D01*
X141981153Y-65474444D01*
X142228469Y-65309193D01*
X142438793Y-65098869D01*
X142604044Y-64851553D01*
X142717871Y-64576751D01*
X142775900Y-64285022D01*
X142775900Y-63987578D01*
X142717871Y-63695849D01*
X142604044Y-63421047D01*
X142438793Y-63173731D01*
X142228469Y-62963407D01*
X141981153Y-62798156D01*
X141706351Y-62684329D01*
X141414622Y-62626300D01*
X141117178Y-62626300D01*
X140825449Y-62684329D01*
X140550647Y-62798156D01*
X140303331Y-62963407D01*
X140093007Y-63173731D01*
X139927756Y-63421047D01*
X139813929Y-63695849D01*
X139755900Y-63987578D01*
X138814800Y-63987578D01*
X138814800Y-63877376D01*
X138713773Y-63369478D01*
X138515601Y-62891049D01*
X138227900Y-62460474D01*
X137861726Y-62094300D01*
X137431151Y-61806599D01*
X136952722Y-61608427D01*
X136444824Y-61507400D01*
X135926976Y-61507400D01*
X135419078Y-61608427D01*
X134940649Y-61806599D01*
X134510074Y-62094300D01*
X134143900Y-62460474D01*
X133856199Y-62891049D01*
X133658027Y-63369478D01*
X133557000Y-63877376D01*
X132593980Y-63877376D01*
X132557871Y-63695849D01*
X132444044Y-63421047D01*
X132400782Y-63356300D01*
X132549245Y-63356300D01*
X132889273Y-63288664D01*
X133209573Y-63155992D01*
X133497835Y-62963381D01*
X133742981Y-62718235D01*
X133935592Y-62429973D01*
X134068264Y-62109673D01*
X134135900Y-61769645D01*
X134135900Y-61422955D01*
X134068264Y-61082927D01*
X133935592Y-60762627D01*
X133769100Y-60513455D01*
X133769100Y-58882955D01*
X136965900Y-58882955D01*
X136965900Y-59229645D01*
X137033536Y-59569673D01*
X137166208Y-59889973D01*
X137358819Y-60178235D01*
X137603965Y-60423381D01*
X137892227Y-60615992D01*
X138212527Y-60748664D01*
X138552555Y-60816300D01*
X138899245Y-60816300D01*
X139239273Y-60748664D01*
X139559573Y-60615992D01*
X139847835Y-60423381D01*
X140092981Y-60178235D01*
X140285592Y-59889973D01*
X140418264Y-59569673D01*
X140485900Y-59229645D01*
X140485900Y-58882955D01*
X140418264Y-58542927D01*
X140388576Y-58471254D01*
X145010412Y-53849419D01*
X145039482Y-53825562D01*
X145101353Y-53750172D01*
X145134705Y-53709533D01*
X145203304Y-53581192D01*
X145205462Y-53577155D01*
X145249034Y-53433518D01*
X145260060Y-53321566D01*
X145260060Y-53321563D01*
X145263746Y-53284140D01*
X145260060Y-53246717D01*
X145260060Y-33433342D01*
X145263746Y-33395919D01*
X145257892Y-33336484D01*
X145249034Y-33246542D01*
X145205462Y-33102905D01*
X145134705Y-32970528D01*
X145039482Y-32854498D01*
X145010413Y-32830642D01*
X143922432Y-31742662D01*
X143922432Y-31132220D01*
X143910172Y-31007738D01*
X143873862Y-30888040D01*
X143814897Y-30777726D01*
X143735545Y-30681035D01*
X143638854Y-30601683D01*
X143528540Y-30542718D01*
X143408842Y-30506408D01*
X143284360Y-30494148D01*
X142384360Y-30494148D01*
X142259878Y-30506408D01*
X142140180Y-30542718D01*
X142029866Y-30601683D01*
X141933175Y-30681035D01*
X141853823Y-30777726D01*
X141794858Y-30888040D01*
X141758548Y-31007738D01*
X141746288Y-31132220D01*
X141746288Y-32332220D01*
X141758548Y-32456702D01*
X141794858Y-32576400D01*
X141853823Y-32686714D01*
X141933175Y-32783405D01*
X142029866Y-32862757D01*
X142140180Y-32921722D01*
X142259878Y-32958032D01*
X142384360Y-32970292D01*
X142994802Y-32970292D01*
X143736060Y-33711551D01*
X143736061Y-52968508D01*
X139310946Y-57393624D01*
X139239273Y-57363936D01*
X138899245Y-57296300D01*
X138552555Y-57296300D01*
X138212527Y-57363936D01*
X137892227Y-57496608D01*
X137603965Y-57689219D01*
X137358819Y-57934365D01*
X137166208Y-58222627D01*
X137033536Y-58542927D01*
X136965900Y-58882955D01*
X133769100Y-58882955D01*
X133769100Y-46121276D01*
X133856199Y-46331551D01*
X134143900Y-46762126D01*
X134510074Y-47128300D01*
X134940649Y-47416001D01*
X135419078Y-47614173D01*
X135926976Y-47715200D01*
X136444824Y-47715200D01*
X136952722Y-47614173D01*
X137431151Y-47416001D01*
X137861726Y-47128300D01*
X138227900Y-46762126D01*
X138515601Y-46331551D01*
X138713773Y-45853122D01*
X138814800Y-45345224D01*
X138814800Y-44937578D01*
X139755900Y-44937578D01*
X139755900Y-45235022D01*
X139813929Y-45526751D01*
X139927756Y-45801553D01*
X140093007Y-46048869D01*
X140303331Y-46259193D01*
X140550647Y-46424444D01*
X140825449Y-46538271D01*
X141117178Y-46596300D01*
X141414622Y-46596300D01*
X141706351Y-46538271D01*
X141981153Y-46424444D01*
X142228469Y-46259193D01*
X142438793Y-46048869D01*
X142604044Y-45801553D01*
X142717871Y-45526751D01*
X142775900Y-45235022D01*
X142775900Y-44937578D01*
X142717871Y-44645849D01*
X142604044Y-44371047D01*
X142438793Y-44123731D01*
X142228469Y-43913407D01*
X141981153Y-43748156D01*
X141706351Y-43634329D01*
X141414622Y-43576300D01*
X141117178Y-43576300D01*
X140825449Y-43634329D01*
X140550647Y-43748156D01*
X140303331Y-43913407D01*
X140093007Y-44123731D01*
X139927756Y-44371047D01*
X139813929Y-44645849D01*
X139755900Y-44937578D01*
X138814800Y-44937578D01*
X138814800Y-44827376D01*
X138713773Y-44319478D01*
X138515601Y-43841049D01*
X138227900Y-43410474D01*
X137861726Y-43044300D01*
X137431151Y-42756599D01*
X136952722Y-42558427D01*
X136444824Y-42457400D01*
X135926976Y-42457400D01*
X135419078Y-42558427D01*
X134940649Y-42756599D01*
X134510074Y-43044300D01*
X134143900Y-43410474D01*
X133856199Y-43841049D01*
X133769100Y-44051324D01*
X133769100Y-43629145D01*
X133935592Y-43379973D01*
X134068264Y-43059673D01*
X134135900Y-42719645D01*
X134135900Y-42372955D01*
X134068264Y-42032927D01*
X133935592Y-41712627D01*
X133742981Y-41424365D01*
X133497835Y-41179219D01*
X133209573Y-40986608D01*
X132889273Y-40853936D01*
X132549245Y-40786300D01*
X132202555Y-40786300D01*
X131862527Y-40853936D01*
X131542227Y-40986608D01*
X131253965Y-41179219D01*
X131008819Y-41424365D01*
X130816208Y-41712627D01*
X130683536Y-42032927D01*
X130615900Y-42372955D01*
X130615900Y-42719645D01*
X130683536Y-43059673D01*
X130816208Y-43379973D01*
X130948538Y-43578019D01*
X130665449Y-43634329D01*
X130390647Y-43748156D01*
X130143331Y-43913407D01*
X129933007Y-44123731D01*
X129767756Y-44371047D01*
X129653929Y-44645849D01*
X129595900Y-44937578D01*
X126238000Y-44937578D01*
X126238000Y-33507292D01*
X126241686Y-33469869D01*
X126237060Y-33422898D01*
X126226974Y-33320492D01*
X126183402Y-33176855D01*
X126112645Y-33044478D01*
X126017422Y-32928448D01*
X125988353Y-32904592D01*
X124826422Y-31742662D01*
X124826422Y-31132220D01*
X124814162Y-31007738D01*
X124777852Y-30888040D01*
X124718887Y-30777726D01*
X124639535Y-30681035D01*
X124542844Y-30601683D01*
X124432530Y-30542718D01*
X124312832Y-30506408D01*
X124188350Y-30494148D01*
X123288350Y-30494148D01*
X123163868Y-30506408D01*
X123044170Y-30542718D01*
X122933856Y-30601683D01*
X122837165Y-30681035D01*
X122757813Y-30777726D01*
X122698848Y-30888040D01*
X122662538Y-31007738D01*
X122650278Y-31132220D01*
X122650278Y-32332220D01*
X122662538Y-32456702D01*
X122698848Y-32576400D01*
X122757813Y-32686714D01*
X122837165Y-32783405D01*
X122933856Y-32862757D01*
X123044170Y-32921722D01*
X123163868Y-32958032D01*
X123288350Y-32970292D01*
X123898792Y-32970292D01*
X124714000Y-33785501D01*
X124714001Y-52940568D01*
X120260946Y-57393624D01*
X120189273Y-57363936D01*
X119849245Y-57296300D01*
X119502555Y-57296300D01*
X119162527Y-57363936D01*
X118842227Y-57496608D01*
X118553965Y-57689219D01*
X118308819Y-57934365D01*
X118116208Y-58222627D01*
X117983536Y-58542927D01*
X117915900Y-58882955D01*
X114660680Y-58882955D01*
X114660680Y-45980237D01*
X114806199Y-46331551D01*
X115093900Y-46762126D01*
X115460074Y-47128300D01*
X115890649Y-47416001D01*
X116369078Y-47614173D01*
X116876976Y-47715200D01*
X117394824Y-47715200D01*
X117902722Y-47614173D01*
X118381151Y-47416001D01*
X118811726Y-47128300D01*
X119177900Y-46762126D01*
X119465601Y-46331551D01*
X119663773Y-45853122D01*
X119764800Y-45345224D01*
X119764800Y-44937578D01*
X120705900Y-44937578D01*
X120705900Y-45235022D01*
X120763929Y-45526751D01*
X120877756Y-45801553D01*
X121043007Y-46048869D01*
X121253331Y-46259193D01*
X121500647Y-46424444D01*
X121775449Y-46538271D01*
X122067178Y-46596300D01*
X122364622Y-46596300D01*
X122656351Y-46538271D01*
X122931153Y-46424444D01*
X123178469Y-46259193D01*
X123388793Y-46048869D01*
X123554044Y-45801553D01*
X123667871Y-45526751D01*
X123725900Y-45235022D01*
X123725900Y-44937578D01*
X123667871Y-44645849D01*
X123554044Y-44371047D01*
X123388793Y-44123731D01*
X123178469Y-43913407D01*
X122931153Y-43748156D01*
X122656351Y-43634329D01*
X122364622Y-43576300D01*
X122067178Y-43576300D01*
X121775449Y-43634329D01*
X121500647Y-43748156D01*
X121253331Y-43913407D01*
X121043007Y-44123731D01*
X120877756Y-44371047D01*
X120763929Y-44645849D01*
X120705900Y-44937578D01*
X119764800Y-44937578D01*
X119764800Y-44827376D01*
X119663773Y-44319478D01*
X119465601Y-43841049D01*
X119177900Y-43410474D01*
X118811726Y-43044300D01*
X118381151Y-42756599D01*
X117902722Y-42558427D01*
X117394824Y-42457400D01*
X116876976Y-42457400D01*
X116369078Y-42558427D01*
X115890649Y-42756599D01*
X115460074Y-43044300D01*
X115093900Y-43410474D01*
X114806199Y-43841049D01*
X114660680Y-44192363D01*
X114660680Y-43700536D01*
X114692981Y-43668235D01*
X114885592Y-43379973D01*
X115018264Y-43059673D01*
X115085900Y-42719645D01*
X115085900Y-42372955D01*
X115018264Y-42032927D01*
X114885592Y-41712627D01*
X114692981Y-41424365D01*
X114447835Y-41179219D01*
X114159573Y-40986608D01*
X113839273Y-40853936D01*
X113499245Y-40786300D01*
X113152555Y-40786300D01*
X112812527Y-40853936D01*
X112492227Y-40986608D01*
X112203965Y-41179219D01*
X111958819Y-41424365D01*
X111766208Y-41712627D01*
X111633536Y-42032927D01*
X111565900Y-42372955D01*
X111565900Y-42719645D01*
X111633536Y-43059673D01*
X111766208Y-43379973D01*
X111898538Y-43578019D01*
X111615449Y-43634329D01*
X111340647Y-43748156D01*
X111093331Y-43913407D01*
X110883007Y-44123731D01*
X110717756Y-44371047D01*
X110603929Y-44645849D01*
X110545900Y-44937578D01*
X107119420Y-44937578D01*
X107119420Y-33484717D01*
X107123106Y-33447294D01*
X107114360Y-33358494D01*
X107108394Y-33297916D01*
X107064822Y-33154279D01*
X107006132Y-33044477D01*
X106994065Y-33021901D01*
X106922699Y-32934942D01*
X106898842Y-32905872D01*
X106869773Y-32882016D01*
X105730418Y-31742662D01*
X105730418Y-31132220D01*
X105718158Y-31007738D01*
X105681848Y-30888040D01*
X105622883Y-30777726D01*
X105543531Y-30681035D01*
X105446840Y-30601683D01*
X105336526Y-30542718D01*
X105216828Y-30506408D01*
X105092346Y-30494148D01*
X104192346Y-30494148D01*
X104067864Y-30506408D01*
X103948166Y-30542718D01*
X103837852Y-30601683D01*
X103741161Y-30681035D01*
X103661809Y-30777726D01*
X103602844Y-30888040D01*
X103566534Y-31007738D01*
X103554274Y-31132220D01*
X103554274Y-32332220D01*
X103566534Y-32456702D01*
X103602844Y-32576400D01*
X103661809Y-32686714D01*
X103741161Y-32783405D01*
X103837852Y-32862757D01*
X103948166Y-32921722D01*
X104067864Y-32958032D01*
X104192346Y-32970292D01*
X104802788Y-32970292D01*
X105595420Y-33762925D01*
X105595421Y-53009148D01*
X101210946Y-57393624D01*
X101139273Y-57363936D01*
X100799245Y-57296300D01*
X100452555Y-57296300D01*
X100112527Y-57363936D01*
X99792227Y-57496608D01*
X99503965Y-57689219D01*
X99258819Y-57934365D01*
X99066208Y-58222627D01*
X98933536Y-58542927D01*
X98865900Y-58882955D01*
X95712280Y-58882955D01*
X95712280Y-46225521D01*
X95756199Y-46331551D01*
X96043900Y-46762126D01*
X96410074Y-47128300D01*
X96840649Y-47416001D01*
X97319078Y-47614173D01*
X97826976Y-47715200D01*
X98344824Y-47715200D01*
X98852722Y-47614173D01*
X99331151Y-47416001D01*
X99761726Y-47128300D01*
X100127900Y-46762126D01*
X100415601Y-46331551D01*
X100613773Y-45853122D01*
X100714800Y-45345224D01*
X100714800Y-44937578D01*
X101655900Y-44937578D01*
X101655900Y-45235022D01*
X101713929Y-45526751D01*
X101827756Y-45801553D01*
X101993007Y-46048869D01*
X102203331Y-46259193D01*
X102450647Y-46424444D01*
X102725449Y-46538271D01*
X103017178Y-46596300D01*
X103314622Y-46596300D01*
X103606351Y-46538271D01*
X103881153Y-46424444D01*
X104128469Y-46259193D01*
X104338793Y-46048869D01*
X104504044Y-45801553D01*
X104617871Y-45526751D01*
X104675900Y-45235022D01*
X104675900Y-44937578D01*
X104617871Y-44645849D01*
X104504044Y-44371047D01*
X104338793Y-44123731D01*
X104128469Y-43913407D01*
X103881153Y-43748156D01*
X103606351Y-43634329D01*
X103314622Y-43576300D01*
X103017178Y-43576300D01*
X102725449Y-43634329D01*
X102450647Y-43748156D01*
X102203331Y-43913407D01*
X101993007Y-44123731D01*
X101827756Y-44371047D01*
X101713929Y-44645849D01*
X101655900Y-44937578D01*
X100714800Y-44937578D01*
X100714800Y-44827376D01*
X100613773Y-44319478D01*
X100415601Y-43841049D01*
X100127900Y-43410474D01*
X99761726Y-43044300D01*
X99331151Y-42756599D01*
X98852722Y-42558427D01*
X98344824Y-42457400D01*
X97826976Y-42457400D01*
X97319078Y-42558427D01*
X96840649Y-42756599D01*
X96410074Y-43044300D01*
X96043900Y-43410474D01*
X95756199Y-43841049D01*
X95712280Y-43947079D01*
X95712280Y-43564522D01*
X95835592Y-43379973D01*
X95968264Y-43059673D01*
X96035900Y-42719645D01*
X96035900Y-42372955D01*
X95968264Y-42032927D01*
X95835592Y-41712627D01*
X95642981Y-41424365D01*
X95397835Y-41179219D01*
X95109573Y-40986608D01*
X94789273Y-40853936D01*
X94449245Y-40786300D01*
X94102555Y-40786300D01*
X93762527Y-40853936D01*
X93442227Y-40986608D01*
X93153965Y-41179219D01*
X92908819Y-41424365D01*
X92716208Y-41712627D01*
X92583536Y-42032927D01*
X92515900Y-42372955D01*
X92515900Y-42719645D01*
X92583536Y-43059673D01*
X92716208Y-43379973D01*
X92848538Y-43578019D01*
X92565449Y-43634329D01*
X92290647Y-43748156D01*
X92043331Y-43913407D01*
X91833007Y-44123731D01*
X91667756Y-44371047D01*
X91553929Y-44645849D01*
X91495900Y-44937578D01*
X88193880Y-44937578D01*
X88193880Y-33655180D01*
X88197566Y-33617757D01*
X88193042Y-33571825D01*
X88182854Y-33468380D01*
X88139282Y-33324743D01*
X88068525Y-33192366D01*
X87973302Y-33076336D01*
X87944233Y-33052480D01*
X86634414Y-31742662D01*
X86634414Y-31132220D01*
X86622154Y-31007738D01*
X86585844Y-30888040D01*
X86526879Y-30777726D01*
X86447527Y-30681035D01*
X86350836Y-30601683D01*
X86240522Y-30542718D01*
X86120824Y-30506408D01*
X85996342Y-30494148D01*
X85096342Y-30494148D01*
X84971860Y-30506408D01*
X84852162Y-30542718D01*
X84741848Y-30601683D01*
X84645157Y-30681035D01*
X84565805Y-30777726D01*
X84506840Y-30888040D01*
X84470530Y-31007738D01*
X84458270Y-31132220D01*
X84458270Y-32332220D01*
X84470530Y-32456702D01*
X84506840Y-32576400D01*
X84565805Y-32686714D01*
X84645157Y-32783405D01*
X84741848Y-32862757D01*
X84852162Y-32921722D01*
X84971860Y-32958032D01*
X85096342Y-32970292D01*
X85706784Y-32970292D01*
X86669880Y-33933389D01*
X86669881Y-52884688D01*
X82160946Y-57393624D01*
X82089273Y-57363936D01*
X81749245Y-57296300D01*
X81402555Y-57296300D01*
X81062527Y-57363936D01*
X80742227Y-57496608D01*
X80453965Y-57689219D01*
X80208819Y-57934365D01*
X80016208Y-58222627D01*
X79883536Y-58542927D01*
X79815900Y-58882955D01*
X76629260Y-58882955D01*
X76629260Y-46145804D01*
X76706199Y-46331551D01*
X76993900Y-46762126D01*
X77360074Y-47128300D01*
X77790649Y-47416001D01*
X78269078Y-47614173D01*
X78776976Y-47715200D01*
X79294824Y-47715200D01*
X79802722Y-47614173D01*
X80281151Y-47416001D01*
X80711726Y-47128300D01*
X81077900Y-46762126D01*
X81365601Y-46331551D01*
X81563773Y-45853122D01*
X81664800Y-45345224D01*
X81664800Y-44937578D01*
X82605900Y-44937578D01*
X82605900Y-45235022D01*
X82663929Y-45526751D01*
X82777756Y-45801553D01*
X82943007Y-46048869D01*
X83153331Y-46259193D01*
X83400647Y-46424444D01*
X83675449Y-46538271D01*
X83967178Y-46596300D01*
X84264622Y-46596300D01*
X84556351Y-46538271D01*
X84831153Y-46424444D01*
X85078469Y-46259193D01*
X85288793Y-46048869D01*
X85454044Y-45801553D01*
X85567871Y-45526751D01*
X85625900Y-45235022D01*
X85625900Y-44937578D01*
X85567871Y-44645849D01*
X85454044Y-44371047D01*
X85288793Y-44123731D01*
X85078469Y-43913407D01*
X84831153Y-43748156D01*
X84556351Y-43634329D01*
X84264622Y-43576300D01*
X83967178Y-43576300D01*
X83675449Y-43634329D01*
X83400647Y-43748156D01*
X83153331Y-43913407D01*
X82943007Y-44123731D01*
X82777756Y-44371047D01*
X82663929Y-44645849D01*
X82605900Y-44937578D01*
X81664800Y-44937578D01*
X81664800Y-44827376D01*
X81563773Y-44319478D01*
X81365601Y-43841049D01*
X81077900Y-43410474D01*
X80711726Y-43044300D01*
X80281151Y-42756599D01*
X79802722Y-42558427D01*
X79294824Y-42457400D01*
X78776976Y-42457400D01*
X78269078Y-42558427D01*
X77790649Y-42756599D01*
X77360074Y-43044300D01*
X76993900Y-43410474D01*
X76706199Y-43841049D01*
X76629260Y-44026796D01*
X76629260Y-43613940D01*
X76785592Y-43379973D01*
X76918264Y-43059673D01*
X76985900Y-42719645D01*
X76985900Y-42372955D01*
X76918264Y-42032927D01*
X76785592Y-41712627D01*
X76592981Y-41424365D01*
X76347835Y-41179219D01*
X76059573Y-40986608D01*
X75739273Y-40853936D01*
X75399245Y-40786300D01*
X75052555Y-40786300D01*
X74712527Y-40853936D01*
X74392227Y-40986608D01*
X74103965Y-41179219D01*
X73858819Y-41424365D01*
X73666208Y-41712627D01*
X73533536Y-42032927D01*
X73465900Y-42372955D01*
X73465900Y-42719645D01*
X73533536Y-43059673D01*
X73666208Y-43379973D01*
X73798538Y-43578019D01*
X73515449Y-43634329D01*
X73240647Y-43748156D01*
X72993331Y-43913407D01*
X72783007Y-44123731D01*
X72617756Y-44371047D01*
X72503929Y-44645849D01*
X72445900Y-44937578D01*
X69319140Y-44937578D01*
X69319140Y-34656991D01*
X69356557Y-34619574D01*
X69469825Y-34450056D01*
X69547846Y-34261698D01*
X69587620Y-34061739D01*
X69587620Y-33857861D01*
X69547846Y-33657902D01*
X69469825Y-33469544D01*
X69356557Y-33300026D01*
X69212394Y-33155863D01*
X69042876Y-33042595D01*
X68854518Y-32964574D01*
X68654559Y-32924800D01*
X68465700Y-32924800D01*
X68465700Y-30460351D01*
X68507637Y-30418414D01*
X68620905Y-30248896D01*
X68698926Y-30060538D01*
X68738700Y-29860579D01*
X68738700Y-29661781D01*
X69688760Y-29661781D01*
X69688760Y-29865659D01*
X69728534Y-30065618D01*
X69806555Y-30253976D01*
X69919823Y-30423494D01*
X70063986Y-30567657D01*
X70233504Y-30680925D01*
X70421862Y-30758946D01*
X70621821Y-30798720D01*
X70681130Y-30798720D01*
X71610268Y-31727859D01*
X71610268Y-32332220D01*
X71622528Y-32456702D01*
X71658838Y-32576400D01*
X71717803Y-32686714D01*
X71797155Y-32783405D01*
X71893846Y-32862757D01*
X72004160Y-32921722D01*
X72123858Y-32958032D01*
X72248340Y-32970292D01*
X73148340Y-32970292D01*
X73272822Y-32958032D01*
X73392520Y-32921722D01*
X73502834Y-32862757D01*
X73599525Y-32783405D01*
X73678877Y-32686714D01*
X73737842Y-32576400D01*
X73774152Y-32456702D01*
X73786412Y-32332220D01*
X73786412Y-31132220D01*
X74910268Y-31132220D01*
X74910268Y-32332220D01*
X74922528Y-32456702D01*
X74958838Y-32576400D01*
X75017803Y-32686714D01*
X75097155Y-32783405D01*
X75193846Y-32862757D01*
X75236340Y-32885471D01*
X75236341Y-34391307D01*
X75232654Y-34428740D01*
X75247367Y-34578118D01*
X75290939Y-34721755D01*
X75361695Y-34854132D01*
X75397264Y-34897472D01*
X75456919Y-34970162D01*
X75485989Y-34994019D01*
X79913224Y-39421254D01*
X79883536Y-39492927D01*
X79815900Y-39832955D01*
X79815900Y-40179645D01*
X79883536Y-40519673D01*
X80016208Y-40839973D01*
X80208819Y-41128235D01*
X80453965Y-41373381D01*
X80742227Y-41565992D01*
X81062527Y-41698664D01*
X81402555Y-41766300D01*
X81749245Y-41766300D01*
X82089273Y-41698664D01*
X82409573Y-41565992D01*
X82697835Y-41373381D01*
X82942981Y-41128235D01*
X83135592Y-40839973D01*
X83268264Y-40519673D01*
X83335900Y-40179645D01*
X83335900Y-39832955D01*
X83268264Y-39492927D01*
X83135592Y-39172627D01*
X82942981Y-38884365D01*
X82697835Y-38639219D01*
X82409573Y-38446608D01*
X82089273Y-38313936D01*
X81749245Y-38246300D01*
X81402555Y-38246300D01*
X81062527Y-38313936D01*
X80990854Y-38343624D01*
X76760340Y-34113110D01*
X76760340Y-33862941D01*
X78949600Y-33862941D01*
X78949600Y-34066819D01*
X78989374Y-34266778D01*
X79067395Y-34455136D01*
X79180663Y-34624654D01*
X79324826Y-34768817D01*
X79494344Y-34882085D01*
X79682702Y-34960106D01*
X79882661Y-34999880D01*
X80086539Y-34999880D01*
X80286498Y-34960106D01*
X80474856Y-34882085D01*
X80644374Y-34768817D01*
X80788537Y-34624654D01*
X80901805Y-34455136D01*
X80979826Y-34266778D01*
X81019600Y-34066819D01*
X81019600Y-34007510D01*
X82056819Y-32970292D01*
X82696342Y-32970292D01*
X82820824Y-32958032D01*
X82940522Y-32921722D01*
X83050836Y-32862757D01*
X83147527Y-32783405D01*
X83226879Y-32686714D01*
X83285844Y-32576400D01*
X83322154Y-32456702D01*
X83334414Y-32332220D01*
X83334414Y-31132220D01*
X83322154Y-31007738D01*
X83285844Y-30888040D01*
X83226879Y-30777726D01*
X83147527Y-30681035D01*
X83050836Y-30601683D01*
X82940522Y-30542718D01*
X82820824Y-30506408D01*
X82696342Y-30494148D01*
X81796342Y-30494148D01*
X81671860Y-30506408D01*
X81552162Y-30542718D01*
X81441848Y-30601683D01*
X81345157Y-30681035D01*
X81265805Y-30777726D01*
X81206840Y-30888040D01*
X81170530Y-31007738D01*
X81158270Y-31132220D01*
X81158270Y-31713579D01*
X79941970Y-32929880D01*
X79882661Y-32929880D01*
X79682702Y-32969654D01*
X79494344Y-33047675D01*
X79324826Y-33160943D01*
X79180663Y-33305106D01*
X79067395Y-33474624D01*
X78989374Y-33662982D01*
X78949600Y-33862941D01*
X76760340Y-33862941D01*
X76760340Y-32885471D01*
X76802834Y-32862757D01*
X76899525Y-32783405D01*
X76978877Y-32686714D01*
X77037842Y-32576400D01*
X77074152Y-32456702D01*
X77086412Y-32332220D01*
X77086412Y-31132220D01*
X77074152Y-31007738D01*
X77037842Y-30888040D01*
X76978877Y-30777726D01*
X76899525Y-30681035D01*
X76802834Y-30601683D01*
X76692520Y-30542718D01*
X76572822Y-30506408D01*
X76448340Y-30494148D01*
X75548340Y-30494148D01*
X75423858Y-30506408D01*
X75304160Y-30542718D01*
X75193846Y-30601683D01*
X75097155Y-30681035D01*
X75017803Y-30777726D01*
X74958838Y-30888040D01*
X74922528Y-31007738D01*
X74910268Y-31132220D01*
X73786412Y-31132220D01*
X73774152Y-31007738D01*
X73737842Y-30888040D01*
X73678877Y-30777726D01*
X73599525Y-30681035D01*
X73502834Y-30601683D01*
X73392520Y-30542718D01*
X73272822Y-30506408D01*
X73148340Y-30494148D01*
X72531819Y-30494148D01*
X71758760Y-29721090D01*
X71758760Y-29661781D01*
X88814960Y-29661781D01*
X88814960Y-29865659D01*
X88854734Y-30065618D01*
X88932755Y-30253976D01*
X89046023Y-30423494D01*
X89190186Y-30567657D01*
X89359704Y-30680925D01*
X89548062Y-30758946D01*
X89748021Y-30798720D01*
X89807330Y-30798720D01*
X90706272Y-31697663D01*
X90706272Y-32332220D01*
X90718532Y-32456702D01*
X90754842Y-32576400D01*
X90813807Y-32686714D01*
X90893159Y-32783405D01*
X90989850Y-32862757D01*
X91100164Y-32921722D01*
X91219862Y-32958032D01*
X91344344Y-32970292D01*
X92244344Y-32970292D01*
X92368826Y-32958032D01*
X92488524Y-32921722D01*
X92598838Y-32862757D01*
X92695529Y-32783405D01*
X92774881Y-32686714D01*
X92833846Y-32576400D01*
X92870156Y-32456702D01*
X92882416Y-32332220D01*
X92882416Y-31132220D01*
X94006272Y-31132220D01*
X94006272Y-32332220D01*
X94018532Y-32456702D01*
X94054842Y-32576400D01*
X94113807Y-32686714D01*
X94193159Y-32783405D01*
X94289850Y-32862757D01*
X94332344Y-32885471D01*
X94332345Y-34437311D01*
X94328658Y-34474744D01*
X94343371Y-34624122D01*
X94386943Y-34767759D01*
X94457699Y-34900136D01*
X94523024Y-34979734D01*
X94552923Y-35016166D01*
X94581993Y-35040023D01*
X98963224Y-39421254D01*
X98933536Y-39492927D01*
X98865900Y-39832955D01*
X98865900Y-40179645D01*
X98933536Y-40519673D01*
X99066208Y-40839973D01*
X99258819Y-41128235D01*
X99503965Y-41373381D01*
X99792227Y-41565992D01*
X100112527Y-41698664D01*
X100452555Y-41766300D01*
X100799245Y-41766300D01*
X101139273Y-41698664D01*
X101459573Y-41565992D01*
X101747835Y-41373381D01*
X101992981Y-41128235D01*
X102185592Y-40839973D01*
X102318264Y-40519673D01*
X102385900Y-40179645D01*
X102385900Y-39832955D01*
X102318264Y-39492927D01*
X102185592Y-39172627D01*
X101992981Y-38884365D01*
X101747835Y-38639219D01*
X101459573Y-38446608D01*
X101139273Y-38313936D01*
X100799245Y-38246300D01*
X100452555Y-38246300D01*
X100112527Y-38313936D01*
X100040854Y-38343624D01*
X95856344Y-34159114D01*
X95856344Y-33862941D01*
X98052940Y-33862941D01*
X98052940Y-34066819D01*
X98092714Y-34266778D01*
X98170735Y-34455136D01*
X98284003Y-34624654D01*
X98428166Y-34768817D01*
X98597684Y-34882085D01*
X98786042Y-34960106D01*
X98986001Y-34999880D01*
X99189879Y-34999880D01*
X99389838Y-34960106D01*
X99578196Y-34882085D01*
X99747714Y-34768817D01*
X99891877Y-34624654D01*
X100005145Y-34455136D01*
X100083166Y-34266778D01*
X100122940Y-34066819D01*
X100122940Y-34007510D01*
X101160159Y-32970292D01*
X101792346Y-32970292D01*
X101916828Y-32958032D01*
X102036526Y-32921722D01*
X102146840Y-32862757D01*
X102243531Y-32783405D01*
X102322883Y-32686714D01*
X102381848Y-32576400D01*
X102418158Y-32456702D01*
X102430418Y-32332220D01*
X102430418Y-31132220D01*
X102418158Y-31007738D01*
X102381848Y-30888040D01*
X102322883Y-30777726D01*
X102243531Y-30681035D01*
X102146840Y-30601683D01*
X102036526Y-30542718D01*
X101916828Y-30506408D01*
X101792346Y-30494148D01*
X100892346Y-30494148D01*
X100767864Y-30506408D01*
X100648166Y-30542718D01*
X100537852Y-30601683D01*
X100441161Y-30681035D01*
X100361809Y-30777726D01*
X100302844Y-30888040D01*
X100266534Y-31007738D01*
X100254274Y-31132220D01*
X100254274Y-31720915D01*
X99045310Y-32929880D01*
X98986001Y-32929880D01*
X98786042Y-32969654D01*
X98597684Y-33047675D01*
X98428166Y-33160943D01*
X98284003Y-33305106D01*
X98170735Y-33474624D01*
X98092714Y-33662982D01*
X98052940Y-33862941D01*
X95856344Y-33862941D01*
X95856344Y-32885471D01*
X95898838Y-32862757D01*
X95995529Y-32783405D01*
X96074881Y-32686714D01*
X96133846Y-32576400D01*
X96170156Y-32456702D01*
X96182416Y-32332220D01*
X96182416Y-31132220D01*
X96170156Y-31007738D01*
X96133846Y-30888040D01*
X96074881Y-30777726D01*
X95995529Y-30681035D01*
X95898838Y-30601683D01*
X95788524Y-30542718D01*
X95668826Y-30506408D01*
X95544344Y-30494148D01*
X94644344Y-30494148D01*
X94519862Y-30506408D01*
X94400164Y-30542718D01*
X94289850Y-30601683D01*
X94193159Y-30681035D01*
X94113807Y-30777726D01*
X94054842Y-30888040D01*
X94018532Y-31007738D01*
X94006272Y-31132220D01*
X92882416Y-31132220D01*
X92870156Y-31007738D01*
X92833846Y-30888040D01*
X92774881Y-30777726D01*
X92695529Y-30681035D01*
X92598838Y-30601683D01*
X92488524Y-30542718D01*
X92368826Y-30506408D01*
X92244344Y-30494148D01*
X91658019Y-30494148D01*
X90884960Y-29721090D01*
X90884960Y-29661781D01*
X107885280Y-29661781D01*
X107885280Y-29865659D01*
X107925054Y-30065618D01*
X108003075Y-30253976D01*
X108116343Y-30423494D01*
X108260506Y-30567657D01*
X108430024Y-30680925D01*
X108618382Y-30758946D01*
X108818341Y-30798720D01*
X108877650Y-30798720D01*
X109802276Y-31723347D01*
X109802276Y-32332220D01*
X109814536Y-32456702D01*
X109850846Y-32576400D01*
X109909811Y-32686714D01*
X109989163Y-32783405D01*
X110085854Y-32862757D01*
X110196168Y-32921722D01*
X110315866Y-32958032D01*
X110440348Y-32970292D01*
X111340348Y-32970292D01*
X111464830Y-32958032D01*
X111584528Y-32921722D01*
X111694842Y-32862757D01*
X111791533Y-32783405D01*
X111870885Y-32686714D01*
X111929850Y-32576400D01*
X111966160Y-32456702D01*
X111978420Y-32332220D01*
X111978420Y-31132220D01*
X113102276Y-31132220D01*
X113102276Y-32332220D01*
X113114536Y-32456702D01*
X113150846Y-32576400D01*
X113209811Y-32686714D01*
X113289163Y-32783405D01*
X113385854Y-32862757D01*
X113428348Y-32885471D01*
X113428349Y-34483315D01*
X113424662Y-34520748D01*
X113439375Y-34670126D01*
X113482947Y-34813763D01*
X113553703Y-34946140D01*
X113625069Y-35033099D01*
X113648927Y-35062170D01*
X113677997Y-35086027D01*
X118013224Y-39421254D01*
X117983536Y-39492927D01*
X117915900Y-39832955D01*
X117915900Y-40179645D01*
X117983536Y-40519673D01*
X118116208Y-40839973D01*
X118308819Y-41128235D01*
X118553965Y-41373381D01*
X118842227Y-41565992D01*
X119162527Y-41698664D01*
X119502555Y-41766300D01*
X119849245Y-41766300D01*
X120189273Y-41698664D01*
X120509573Y-41565992D01*
X120797835Y-41373381D01*
X121042981Y-41128235D01*
X121235592Y-40839973D01*
X121368264Y-40519673D01*
X121435900Y-40179645D01*
X121435900Y-39832955D01*
X121368264Y-39492927D01*
X121235592Y-39172627D01*
X121042981Y-38884365D01*
X120797835Y-38639219D01*
X120509573Y-38446608D01*
X120189273Y-38313936D01*
X119849245Y-38246300D01*
X119502555Y-38246300D01*
X119162527Y-38313936D01*
X119090854Y-38343624D01*
X114952348Y-34205118D01*
X114952348Y-33862941D01*
X117181680Y-33862941D01*
X117181680Y-34066819D01*
X117221454Y-34266778D01*
X117299475Y-34455136D01*
X117412743Y-34624654D01*
X117556906Y-34768817D01*
X117726424Y-34882085D01*
X117914782Y-34960106D01*
X118114741Y-34999880D01*
X118318619Y-34999880D01*
X118518578Y-34960106D01*
X118706936Y-34882085D01*
X118876454Y-34768817D01*
X119020617Y-34624654D01*
X119133885Y-34455136D01*
X119211906Y-34266778D01*
X119251680Y-34066819D01*
X119251680Y-34007510D01*
X120288899Y-32970292D01*
X120888350Y-32970292D01*
X121012832Y-32958032D01*
X121132530Y-32921722D01*
X121242844Y-32862757D01*
X121339535Y-32783405D01*
X121418887Y-32686714D01*
X121477852Y-32576400D01*
X121514162Y-32456702D01*
X121526422Y-32332220D01*
X121526422Y-31132220D01*
X121514162Y-31007738D01*
X121477852Y-30888040D01*
X121418887Y-30777726D01*
X121339535Y-30681035D01*
X121242844Y-30601683D01*
X121132530Y-30542718D01*
X121012832Y-30506408D01*
X120888350Y-30494148D01*
X119988350Y-30494148D01*
X119863868Y-30506408D01*
X119744170Y-30542718D01*
X119633856Y-30601683D01*
X119537165Y-30681035D01*
X119457813Y-30777726D01*
X119398848Y-30888040D01*
X119362538Y-31007738D01*
X119350278Y-31132220D01*
X119350278Y-31753651D01*
X118174050Y-32929880D01*
X118114741Y-32929880D01*
X117914782Y-32969654D01*
X117726424Y-33047675D01*
X117556906Y-33160943D01*
X117412743Y-33305106D01*
X117299475Y-33474624D01*
X117221454Y-33662982D01*
X117181680Y-33862941D01*
X114952348Y-33862941D01*
X114952348Y-32885471D01*
X114994842Y-32862757D01*
X115091533Y-32783405D01*
X115170885Y-32686714D01*
X115229850Y-32576400D01*
X115266160Y-32456702D01*
X115278420Y-32332220D01*
X115278420Y-31132220D01*
X115266160Y-31007738D01*
X115229850Y-30888040D01*
X115170885Y-30777726D01*
X115091533Y-30681035D01*
X114994842Y-30601683D01*
X114884528Y-30542718D01*
X114764830Y-30506408D01*
X114640348Y-30494148D01*
X113740348Y-30494148D01*
X113615866Y-30506408D01*
X113496168Y-30542718D01*
X113385854Y-30601683D01*
X113289163Y-30681035D01*
X113209811Y-30777726D01*
X113150846Y-30888040D01*
X113114536Y-31007738D01*
X113102276Y-31132220D01*
X111978420Y-31132220D01*
X111966160Y-31007738D01*
X111929850Y-30888040D01*
X111870885Y-30777726D01*
X111791533Y-30681035D01*
X111694842Y-30601683D01*
X111584528Y-30542718D01*
X111464830Y-30506408D01*
X111340348Y-30494148D01*
X110728339Y-30494148D01*
X109955280Y-29721090D01*
X109955280Y-29661781D01*
X109954775Y-29659241D01*
X126899720Y-29659241D01*
X126899720Y-29863119D01*
X126939494Y-30063078D01*
X127017515Y-30251436D01*
X127130783Y-30420954D01*
X127274946Y-30565117D01*
X127444464Y-30678385D01*
X127632822Y-30756406D01*
X127832781Y-30796180D01*
X127972682Y-30796180D01*
X128898280Y-31721779D01*
X128898280Y-32332220D01*
X128910540Y-32456702D01*
X128946850Y-32576400D01*
X129005815Y-32686714D01*
X129085167Y-32783405D01*
X129181858Y-32862757D01*
X129292172Y-32921722D01*
X129411870Y-32958032D01*
X129536352Y-32970292D01*
X130436352Y-32970292D01*
X130560834Y-32958032D01*
X130680532Y-32921722D01*
X130790846Y-32862757D01*
X130887537Y-32783405D01*
X130966889Y-32686714D01*
X131025854Y-32576400D01*
X131062164Y-32456702D01*
X131074424Y-32332220D01*
X131074424Y-31132220D01*
X132198280Y-31132220D01*
X132198280Y-32332220D01*
X132210540Y-32456702D01*
X132246850Y-32576400D01*
X132305815Y-32686714D01*
X132385167Y-32783405D01*
X132481858Y-32862757D01*
X132524352Y-32885471D01*
X132524353Y-34529319D01*
X132520666Y-34566752D01*
X132535379Y-34716130D01*
X132578951Y-34859767D01*
X132649707Y-34992144D01*
X132709815Y-35065385D01*
X132744931Y-35108174D01*
X132774001Y-35132031D01*
X137063224Y-39421254D01*
X137033536Y-39492927D01*
X136965900Y-39832955D01*
X136965900Y-40179645D01*
X137033536Y-40519673D01*
X137166208Y-40839973D01*
X137358819Y-41128235D01*
X137603965Y-41373381D01*
X137892227Y-41565992D01*
X138212527Y-41698664D01*
X138552555Y-41766300D01*
X138899245Y-41766300D01*
X139239273Y-41698664D01*
X139559573Y-41565992D01*
X139847835Y-41373381D01*
X140092981Y-41128235D01*
X140285592Y-40839973D01*
X140418264Y-40519673D01*
X140485900Y-40179645D01*
X140485900Y-39832955D01*
X140418264Y-39492927D01*
X140285592Y-39172627D01*
X140092981Y-38884365D01*
X139847835Y-38639219D01*
X139559573Y-38446608D01*
X139239273Y-38313936D01*
X138899245Y-38246300D01*
X138552555Y-38246300D01*
X138212527Y-38313936D01*
X138140854Y-38343624D01*
X134048352Y-34251122D01*
X134048352Y-33862941D01*
X136102140Y-33862941D01*
X136102140Y-34066819D01*
X136141914Y-34266778D01*
X136219935Y-34455136D01*
X136333203Y-34624654D01*
X136477366Y-34768817D01*
X136646884Y-34882085D01*
X136835242Y-34960106D01*
X137035201Y-34999880D01*
X137239079Y-34999880D01*
X137439038Y-34960106D01*
X137627396Y-34882085D01*
X137796914Y-34768817D01*
X137941077Y-34624654D01*
X138054345Y-34455136D01*
X138132366Y-34266778D01*
X138172140Y-34066819D01*
X138172140Y-34007510D01*
X139209359Y-32970292D01*
X139984360Y-32970292D01*
X140108842Y-32958032D01*
X140228540Y-32921722D01*
X140338854Y-32862757D01*
X140435545Y-32783405D01*
X140514897Y-32686714D01*
X140573862Y-32576400D01*
X140610172Y-32456702D01*
X140622432Y-32332220D01*
X140622432Y-31132220D01*
X140610172Y-31007738D01*
X140573862Y-30888040D01*
X140514897Y-30777726D01*
X140435545Y-30681035D01*
X140338854Y-30601683D01*
X140228540Y-30542718D01*
X140108842Y-30506408D01*
X139984360Y-30494148D01*
X139084360Y-30494148D01*
X138959878Y-30506408D01*
X138840180Y-30542718D01*
X138729866Y-30601683D01*
X138633175Y-30681035D01*
X138553823Y-30777726D01*
X138494858Y-30888040D01*
X138458548Y-31007738D01*
X138446288Y-31132220D01*
X138446288Y-31578101D01*
X137094510Y-32929880D01*
X137035201Y-32929880D01*
X136835242Y-32969654D01*
X136646884Y-33047675D01*
X136477366Y-33160943D01*
X136333203Y-33305106D01*
X136219935Y-33474624D01*
X136141914Y-33662982D01*
X136102140Y-33862941D01*
X134048352Y-33862941D01*
X134048352Y-32885471D01*
X134090846Y-32862757D01*
X134187537Y-32783405D01*
X134266889Y-32686714D01*
X134325854Y-32576400D01*
X134362164Y-32456702D01*
X134374424Y-32332220D01*
X134374424Y-31132220D01*
X134362164Y-31007738D01*
X134325854Y-30888040D01*
X134266889Y-30777726D01*
X134187537Y-30681035D01*
X134090846Y-30601683D01*
X133980532Y-30542718D01*
X133860834Y-30506408D01*
X133736352Y-30494148D01*
X132836352Y-30494148D01*
X132711870Y-30506408D01*
X132592172Y-30542718D01*
X132481858Y-30601683D01*
X132385167Y-30681035D01*
X132305815Y-30777726D01*
X132246850Y-30888040D01*
X132210540Y-31007738D01*
X132198280Y-31132220D01*
X131074424Y-31132220D01*
X131062164Y-31007738D01*
X131025854Y-30888040D01*
X130966889Y-30777726D01*
X130887537Y-30681035D01*
X130790846Y-30601683D01*
X130680532Y-30542718D01*
X130560834Y-30506408D01*
X130436352Y-30494148D01*
X129825911Y-30494148D01*
X129332448Y-30000685D01*
X147066400Y-30000685D01*
X147066400Y-30756115D01*
X147213777Y-31497028D01*
X147502867Y-32194954D01*
X147922561Y-32823070D01*
X148456730Y-33357239D01*
X149084846Y-33776933D01*
X149782772Y-34066023D01*
X150523685Y-34213400D01*
X151279115Y-34213400D01*
X152020028Y-34066023D01*
X152717954Y-33776933D01*
X153346070Y-33357239D01*
X153880239Y-32823070D01*
X154299933Y-32194954D01*
X154589023Y-31497028D01*
X154736400Y-30756115D01*
X154736400Y-30000685D01*
X154589023Y-29259772D01*
X154299933Y-28561846D01*
X153880239Y-27933730D01*
X153346070Y-27399561D01*
X152717954Y-26979867D01*
X152020028Y-26690777D01*
X151279115Y-26543400D01*
X150523685Y-26543400D01*
X149782772Y-26690777D01*
X149084846Y-26979867D01*
X148456730Y-27399561D01*
X147922561Y-27933730D01*
X147502867Y-28561846D01*
X147213777Y-29259772D01*
X147066400Y-30000685D01*
X129332448Y-30000685D01*
X128964435Y-29632673D01*
X128929946Y-29459282D01*
X128851925Y-29270924D01*
X128738657Y-29101406D01*
X128594494Y-28957243D01*
X128424976Y-28843975D01*
X128236618Y-28765954D01*
X128036659Y-28726180D01*
X127832781Y-28726180D01*
X127632822Y-28765954D01*
X127444464Y-28843975D01*
X127274946Y-28957243D01*
X127130783Y-29101406D01*
X127017515Y-29270924D01*
X126939494Y-29459282D01*
X126899720Y-29659241D01*
X109954775Y-29659241D01*
X109915506Y-29461822D01*
X109837485Y-29273464D01*
X109724217Y-29103946D01*
X109580054Y-28959783D01*
X109410536Y-28846515D01*
X109222178Y-28768494D01*
X109022219Y-28728720D01*
X108818341Y-28728720D01*
X108618382Y-28768494D01*
X108430024Y-28846515D01*
X108260506Y-28959783D01*
X108116343Y-29103946D01*
X108003075Y-29273464D01*
X107925054Y-29461822D01*
X107885280Y-29661781D01*
X90884960Y-29661781D01*
X90845186Y-29461822D01*
X90767165Y-29273464D01*
X90653897Y-29103946D01*
X90509734Y-28959783D01*
X90340216Y-28846515D01*
X90151858Y-28768494D01*
X89951899Y-28728720D01*
X89748021Y-28728720D01*
X89548062Y-28768494D01*
X89359704Y-28846515D01*
X89190186Y-28959783D01*
X89046023Y-29103946D01*
X88932755Y-29273464D01*
X88854734Y-29461822D01*
X88814960Y-29661781D01*
X71758760Y-29661781D01*
X71718986Y-29461822D01*
X71640965Y-29273464D01*
X71527697Y-29103946D01*
X71383534Y-28959783D01*
X71214016Y-28846515D01*
X71025658Y-28768494D01*
X70825699Y-28728720D01*
X70621821Y-28728720D01*
X70421862Y-28768494D01*
X70233504Y-28846515D01*
X70063986Y-28959783D01*
X69919823Y-29103946D01*
X69806555Y-29273464D01*
X69728534Y-29461822D01*
X69688760Y-29661781D01*
X68738700Y-29661781D01*
X68738700Y-29656701D01*
X68698926Y-29456742D01*
X68620905Y-29268384D01*
X68507637Y-29098866D01*
X68363474Y-28954703D01*
X68193956Y-28841435D01*
X68005598Y-28763414D01*
X67805639Y-28723640D01*
X67601761Y-28723640D01*
X67401802Y-28763414D01*
X67213444Y-28841435D01*
X67043926Y-28954703D01*
X66899763Y-29098866D01*
X66786495Y-29268384D01*
X66708474Y-29456742D01*
X66668700Y-29656701D01*
X66668700Y-29860579D01*
X66708474Y-30060538D01*
X66786495Y-30248896D01*
X66899763Y-30418414D01*
X66941701Y-30460352D01*
X66941700Y-44474730D01*
X65647789Y-45768641D01*
X65650472Y-45741400D01*
X65650472Y-45241400D01*
X65633408Y-45068146D01*
X65582872Y-44901550D01*
X65500805Y-44748014D01*
X65390362Y-44613438D01*
X65383806Y-44608058D01*
X65463585Y-44542585D01*
X65542937Y-44445894D01*
X65601902Y-44335580D01*
X65638212Y-44215882D01*
X65650472Y-44091400D01*
X65647400Y-43877150D01*
X65488650Y-43718400D01*
X64414400Y-43718400D01*
X64414400Y-43738400D01*
X64160400Y-43738400D01*
X64160400Y-43718400D01*
X64140400Y-43718400D01*
X64140400Y-43464400D01*
X64160400Y-43464400D01*
X64160400Y-42615150D01*
X64414400Y-42615150D01*
X64414400Y-43464400D01*
X65488650Y-43464400D01*
X65647400Y-43305650D01*
X65650472Y-43091400D01*
X65638212Y-42966918D01*
X65601902Y-42847220D01*
X65542937Y-42736906D01*
X65463585Y-42640215D01*
X65366894Y-42560863D01*
X65256580Y-42501898D01*
X65136882Y-42465588D01*
X65012400Y-42453328D01*
X64573150Y-42456400D01*
X64414400Y-42615150D01*
X64160400Y-42615150D01*
X64001650Y-42456400D01*
X63562400Y-42453328D01*
X63437918Y-42465588D01*
X63318220Y-42501898D01*
X63207906Y-42560863D01*
X63111215Y-42640215D01*
X63031863Y-42736906D01*
X63025582Y-42748657D01*
X63003162Y-42721338D01*
X62868587Y-42610895D01*
X62715051Y-42528828D01*
X62687200Y-42520380D01*
X62687200Y-42385935D01*
X62894210Y-42384400D01*
X63052960Y-42225650D01*
X63052960Y-41363900D01*
X63306960Y-41363900D01*
X63306960Y-42225650D01*
X63465710Y-42384400D01*
X63879960Y-42387472D01*
X64004442Y-42375212D01*
X64124140Y-42338902D01*
X64234454Y-42279937D01*
X64331145Y-42200585D01*
X64410497Y-42103894D01*
X64469462Y-41993580D01*
X64505772Y-41873882D01*
X64518032Y-41749400D01*
X64514960Y-41522650D01*
X64356210Y-41363900D01*
X63306960Y-41363900D01*
X63052960Y-41363900D01*
X63032960Y-41363900D01*
X63032960Y-41109900D01*
X63052960Y-41109900D01*
X63052960Y-41089900D01*
X63306960Y-41089900D01*
X63306960Y-41109900D01*
X64356210Y-41109900D01*
X64514960Y-40951150D01*
X64518032Y-40724400D01*
X64505772Y-40599918D01*
X64469462Y-40480220D01*
X64410497Y-40369906D01*
X64331145Y-40273215D01*
X64301684Y-40249037D01*
X64368365Y-40167787D01*
X64450432Y-40014251D01*
X64500968Y-39847655D01*
X64518032Y-39674401D01*
X64518032Y-39149399D01*
X64500968Y-38976145D01*
X64450432Y-38809549D01*
X64368365Y-38656013D01*
X64257922Y-38521438D01*
X64123347Y-38410995D01*
X63969811Y-38328928D01*
X63803215Y-38278392D01*
X63629961Y-38261328D01*
X62943178Y-38261328D01*
X62924400Y-38242550D01*
X62924400Y-36666201D01*
X63104124Y-36740646D01*
X63304083Y-36780420D01*
X63507961Y-36780420D01*
X63707920Y-36740646D01*
X63896278Y-36662625D01*
X64065796Y-36549357D01*
X64209959Y-36405194D01*
X64323227Y-36235676D01*
X64401248Y-36047318D01*
X64441022Y-35847359D01*
X64441022Y-35643481D01*
X64401248Y-35443522D01*
X64323227Y-35255164D01*
X64209959Y-35085646D01*
X64168022Y-35043709D01*
X64168022Y-34894400D01*
X64289402Y-34894400D01*
X64289402Y-34735652D01*
X64448150Y-34894400D01*
X64462400Y-34897472D01*
X64586882Y-34885212D01*
X64706580Y-34848902D01*
X64816894Y-34789937D01*
X64913585Y-34710585D01*
X64992937Y-34613894D01*
X65051902Y-34503580D01*
X65088212Y-34383882D01*
X65100472Y-34259400D01*
X65099647Y-34141504D01*
X65105400Y-34137354D01*
X65105400Y-32746400D01*
X65359400Y-32746400D01*
X65359400Y-34137354D01*
X65534274Y-34263519D01*
X65757376Y-34183676D01*
X65945164Y-34061769D01*
X66105561Y-33905569D01*
X66232403Y-33721078D01*
X66320815Y-33515387D01*
X66367400Y-33296400D01*
X66367400Y-32746400D01*
X65359400Y-32746400D01*
X65105400Y-32746400D01*
X65094267Y-32746400D01*
X65088212Y-32684918D01*
X65085400Y-32675648D01*
X65085400Y-32492400D01*
X65105400Y-32492400D01*
X65105400Y-31101446D01*
X65359400Y-31101446D01*
X65359400Y-32492400D01*
X66367400Y-32492400D01*
X66367400Y-31942400D01*
X66320815Y-31723413D01*
X66232403Y-31517722D01*
X66105561Y-31333231D01*
X65945164Y-31177031D01*
X65757376Y-31055124D01*
X65534274Y-30975281D01*
X65359400Y-31101446D01*
X65105400Y-31101446D01*
X64930526Y-30975281D01*
X64707424Y-31055124D01*
X64519636Y-31177031D01*
X64375284Y-31317606D01*
X64257131Y-31238659D01*
X64082422Y-31166292D01*
X63896952Y-31129400D01*
X63707848Y-31129400D01*
X63522378Y-31166292D01*
X63347669Y-31238659D01*
X63190436Y-31343719D01*
X63056719Y-31477436D01*
X62951659Y-31634669D01*
X62879292Y-31809378D01*
X62842400Y-31994848D01*
X62842400Y-32174283D01*
X62812400Y-32171328D01*
X62512400Y-32171328D01*
X62412400Y-32181177D01*
X62312928Y-32171380D01*
X62299045Y-32145406D01*
X62203822Y-32029376D01*
X62174747Y-32005515D01*
X62139285Y-31970053D01*
X62115423Y-31940977D01*
X61999393Y-31845754D01*
X61867016Y-31774997D01*
X61723379Y-31731425D01*
X61611427Y-31720399D01*
X61611424Y-31720399D01*
X61574001Y-31716713D01*
X61536578Y-31720399D01*
X60788221Y-31720399D01*
X60750798Y-31716713D01*
X60713375Y-31720399D01*
X60713373Y-31720399D01*
X60601421Y-31731425D01*
X60457784Y-31774997D01*
X60325407Y-31845754D01*
X60209377Y-31940977D01*
X60185515Y-31970053D01*
X60150049Y-32005519D01*
X60120979Y-32029376D01*
X60097122Y-32058446D01*
X60097121Y-32058447D01*
X60025755Y-32145406D01*
X60011872Y-32171380D01*
X59912400Y-32181177D01*
X59812400Y-32171328D01*
X59512400Y-32171328D01*
X59412400Y-32181177D01*
X59312400Y-32171328D01*
X59012400Y-32171328D01*
X58982400Y-32174283D01*
X58982400Y-31994848D01*
X58945508Y-31809378D01*
X58873141Y-31634669D01*
X58768081Y-31477436D01*
X58634364Y-31343719D01*
X58477131Y-31238659D01*
X58302422Y-31166292D01*
X58116952Y-31129400D01*
X57927848Y-31129400D01*
X57742378Y-31166292D01*
X57567669Y-31238659D01*
X57449516Y-31317606D01*
X57305164Y-31177031D01*
X57117376Y-31055124D01*
X56894274Y-30975281D01*
X56719400Y-31101446D01*
X56719400Y-32492400D01*
X56739400Y-32492400D01*
X56739400Y-32675648D01*
X56736588Y-32684918D01*
X56730533Y-32746400D01*
X56719400Y-32746400D01*
X56719400Y-34137354D01*
X56725153Y-34141504D01*
X56724328Y-34259400D01*
X56736588Y-34383882D01*
X56772898Y-34503580D01*
X56831863Y-34613894D01*
X56911215Y-34710585D01*
X57007906Y-34789937D01*
X57118220Y-34848902D01*
X57237918Y-34885212D01*
X57362400Y-34897472D01*
X57376650Y-34894400D01*
X57535400Y-34735650D01*
X57535400Y-34371820D01*
X57536588Y-34383882D01*
X57572898Y-34503580D01*
X57631863Y-34613894D01*
X57711215Y-34710585D01*
X57721503Y-34719029D01*
X57721503Y-34993706D01*
X57629566Y-35085643D01*
X57516298Y-35255161D01*
X57438277Y-35443519D01*
X57398503Y-35643478D01*
X57398503Y-35752786D01*
X52757831Y-40393459D01*
X52728761Y-40417316D01*
X52704904Y-40446386D01*
X52704903Y-40446387D01*
X52633537Y-40533346D01*
X52562781Y-40665723D01*
X52519209Y-40809360D01*
X52504496Y-40958738D01*
X52508183Y-40996171D01*
X52508182Y-43719148D01*
X51935113Y-44292217D01*
X51824670Y-44426793D01*
X51742603Y-44580329D01*
X51692067Y-44746925D01*
X51675003Y-44920179D01*
X42526477Y-44920179D01*
X42526755Y-30000685D01*
X42693800Y-30000685D01*
X42693800Y-30756115D01*
X42841177Y-31497028D01*
X43130267Y-32194954D01*
X43549961Y-32823070D01*
X44084130Y-33357239D01*
X44712246Y-33776933D01*
X45410172Y-34066023D01*
X46151085Y-34213400D01*
X46906515Y-34213400D01*
X47647428Y-34066023D01*
X48345354Y-33776933D01*
X48973470Y-33357239D01*
X49507639Y-32823070D01*
X49558868Y-32746400D01*
X55457400Y-32746400D01*
X55457400Y-33296400D01*
X55503985Y-33515387D01*
X55592397Y-33721078D01*
X55719239Y-33905569D01*
X55879636Y-34061769D01*
X56067424Y-34183676D01*
X56290526Y-34263519D01*
X56465400Y-34137354D01*
X56465400Y-32746400D01*
X55457400Y-32746400D01*
X49558868Y-32746400D01*
X49927333Y-32194954D01*
X50031944Y-31942400D01*
X55457400Y-31942400D01*
X55457400Y-32492400D01*
X56465400Y-32492400D01*
X56465400Y-31101446D01*
X56290526Y-30975281D01*
X56067424Y-31055124D01*
X55879636Y-31177031D01*
X55719239Y-31333231D01*
X55592397Y-31517722D01*
X55503985Y-31723413D01*
X55457400Y-31942400D01*
X50031944Y-31942400D01*
X50216423Y-31497028D01*
X50363800Y-30756115D01*
X50363800Y-30000685D01*
X50216423Y-29259772D01*
X49929220Y-28566400D01*
X55457400Y-28566400D01*
X55457400Y-28866400D01*
X55503985Y-29085387D01*
X55592397Y-29291078D01*
X55719239Y-29475569D01*
X55879636Y-29631769D01*
X56067424Y-29753676D01*
X56290526Y-29833519D01*
X56465400Y-29707354D01*
X56465400Y-28566400D01*
X56719400Y-28566400D01*
X56719400Y-29707354D01*
X56894274Y-29833519D01*
X57117376Y-29753676D01*
X57305164Y-29631769D01*
X57465561Y-29475569D01*
X57592403Y-29291078D01*
X57680815Y-29085387D01*
X57727400Y-28866400D01*
X57727400Y-28566400D01*
X64097400Y-28566400D01*
X64097400Y-28866400D01*
X64143985Y-29085387D01*
X64232397Y-29291078D01*
X64359239Y-29475569D01*
X64519636Y-29631769D01*
X64707424Y-29753676D01*
X64930526Y-29833519D01*
X65105400Y-29707354D01*
X65105400Y-28566400D01*
X65359400Y-28566400D01*
X65359400Y-29707354D01*
X65534274Y-29833519D01*
X65757376Y-29753676D01*
X65945164Y-29631769D01*
X66105561Y-29475569D01*
X66232403Y-29291078D01*
X66320815Y-29085387D01*
X66367400Y-28866400D01*
X66367400Y-28566400D01*
X65359400Y-28566400D01*
X65105400Y-28566400D01*
X64097400Y-28566400D01*
X57727400Y-28566400D01*
X56719400Y-28566400D01*
X56465400Y-28566400D01*
X55457400Y-28566400D01*
X49929220Y-28566400D01*
X49927333Y-28561846D01*
X49560205Y-28012400D01*
X55457400Y-28012400D01*
X55457400Y-28312400D01*
X56465400Y-28312400D01*
X56465400Y-27171446D01*
X56719400Y-27171446D01*
X56719400Y-28312400D01*
X57727400Y-28312400D01*
X57727400Y-28012400D01*
X64097400Y-28012400D01*
X64097400Y-28312400D01*
X65105400Y-28312400D01*
X65105400Y-27171446D01*
X65359400Y-27171446D01*
X65359400Y-28312400D01*
X66367400Y-28312400D01*
X66367400Y-28012400D01*
X66320815Y-27793413D01*
X66232403Y-27587722D01*
X66105561Y-27403231D01*
X65945164Y-27247031D01*
X65757376Y-27125124D01*
X65534274Y-27045281D01*
X65359400Y-27171446D01*
X65105400Y-27171446D01*
X64930526Y-27045281D01*
X64707424Y-27125124D01*
X64519636Y-27247031D01*
X64359239Y-27403231D01*
X64232397Y-27587722D01*
X64143985Y-27793413D01*
X64097400Y-28012400D01*
X57727400Y-28012400D01*
X57680815Y-27793413D01*
X57592403Y-27587722D01*
X57465561Y-27403231D01*
X57305164Y-27247031D01*
X57117376Y-27125124D01*
X56894274Y-27045281D01*
X56719400Y-27171446D01*
X56465400Y-27171446D01*
X56290526Y-27045281D01*
X56067424Y-27125124D01*
X55879636Y-27247031D01*
X55719239Y-27403231D01*
X55592397Y-27587722D01*
X55503985Y-27793413D01*
X55457400Y-28012400D01*
X49560205Y-28012400D01*
X49507639Y-27933730D01*
X48973470Y-27399561D01*
X48345354Y-26979867D01*
X47647428Y-26690777D01*
X46906515Y-26543400D01*
X46151085Y-26543400D01*
X45410172Y-26690777D01*
X44712246Y-26979867D01*
X44084130Y-27399561D01*
X43549961Y-27933730D01*
X43130267Y-28561846D01*
X42841177Y-29259772D01*
X42693800Y-30000685D01*
X42526755Y-30000685D01*
X42526823Y-26373900D01*
X154893201Y-26373900D01*
X154893200Y-82792760D01*
%TA.AperFunction,Conductor*%
D27*
G36*
X154893200Y-82792760D02*
G01*
X42525776Y-82792760D01*
X42525857Y-78413085D01*
X42693800Y-78413085D01*
X42693800Y-79168515D01*
X42841177Y-79909428D01*
X43130267Y-80607354D01*
X43549961Y-81235470D01*
X44084130Y-81769639D01*
X44712246Y-82189333D01*
X45410172Y-82478423D01*
X46151085Y-82625800D01*
X46906515Y-82625800D01*
X47647428Y-82478423D01*
X48345354Y-82189333D01*
X48973470Y-81769639D01*
X49507639Y-81235470D01*
X49927333Y-80607354D01*
X50216423Y-79909428D01*
X50363800Y-79168515D01*
X50363800Y-78413085D01*
X147066400Y-78413085D01*
X147066400Y-79168515D01*
X147213777Y-79909428D01*
X147502867Y-80607354D01*
X147922561Y-81235470D01*
X148456730Y-81769639D01*
X149084846Y-82189333D01*
X149782772Y-82478423D01*
X150523685Y-82625800D01*
X151279115Y-82625800D01*
X152020028Y-82478423D01*
X152717954Y-82189333D01*
X153346070Y-81769639D01*
X153880239Y-81235470D01*
X154299933Y-80607354D01*
X154589023Y-79909428D01*
X154736400Y-79168515D01*
X154736400Y-78413085D01*
X154589023Y-77672172D01*
X154299933Y-76974246D01*
X153880239Y-76346130D01*
X153346070Y-75811961D01*
X152717954Y-75392267D01*
X152020028Y-75103177D01*
X151279115Y-74955800D01*
X150523685Y-74955800D01*
X149782772Y-75103177D01*
X149084846Y-75392267D01*
X148456730Y-75811961D01*
X147922561Y-76346130D01*
X147502867Y-76974246D01*
X147213777Y-77672172D01*
X147066400Y-78413085D01*
X50363800Y-78413085D01*
X50216423Y-77672172D01*
X49927333Y-76974246D01*
X49507639Y-76346130D01*
X48973470Y-75811961D01*
X48345354Y-75392267D01*
X47647428Y-75103177D01*
X46906515Y-74955800D01*
X46151085Y-74955800D01*
X45410172Y-75103177D01*
X44712246Y-75392267D01*
X44084130Y-75811961D01*
X43549961Y-76346130D01*
X43130267Y-76974246D01*
X42841177Y-77672172D01*
X42693800Y-78413085D01*
X42525857Y-78413085D01*
X42525967Y-72431340D01*
X50937437Y-72431340D01*
X50937437Y-76251340D01*
X61721723Y-76251340D01*
X61721723Y-72431340D01*
X50937437Y-72431340D01*
X42525967Y-72431340D01*
X42526081Y-66197000D01*
X56982328Y-66197000D01*
X56982328Y-67297000D01*
X56994588Y-67421482D01*
X57030898Y-67541180D01*
X57089863Y-67651494D01*
X57169215Y-67748185D01*
X57265906Y-67827537D01*
X57376220Y-67886502D01*
X57495918Y-67922812D01*
X57620400Y-67935072D01*
X59420400Y-67935072D01*
X59544882Y-67922812D01*
X59664580Y-67886502D01*
X59774894Y-67827537D01*
X59871585Y-67748185D01*
X59950937Y-67651494D01*
X60009902Y-67541180D01*
X60046212Y-67421482D01*
X60058472Y-67297000D01*
X63182328Y-67297000D01*
X63194588Y-67421482D01*
X63230898Y-67541180D01*
X63289863Y-67651494D01*
X63369215Y-67748185D01*
X63465906Y-67827537D01*
X63576220Y-67886502D01*
X63695918Y-67922812D01*
X63820400Y-67935072D01*
X64434650Y-67932000D01*
X64593400Y-67773250D01*
X64593400Y-66874000D01*
X64847400Y-66874000D01*
X64847400Y-67773250D01*
X65006150Y-67932000D01*
X65620400Y-67935072D01*
X65744882Y-67922812D01*
X65864580Y-67886502D01*
X65974894Y-67827537D01*
X66071585Y-67748185D01*
X66150937Y-67651494D01*
X66209902Y-67541180D01*
X66246212Y-67421482D01*
X66258472Y-67297000D01*
X66255400Y-67032750D01*
X66096650Y-66874000D01*
X64847400Y-66874000D01*
X64593400Y-66874000D01*
X63344150Y-66874000D01*
X63185400Y-67032750D01*
X63182328Y-67297000D01*
X60058472Y-67297000D01*
X60058472Y-66197000D01*
X63182328Y-66197000D01*
X63185400Y-66461250D01*
X63344150Y-66620000D01*
X64593400Y-66620000D01*
X64593400Y-65720750D01*
X64847400Y-65720750D01*
X64847400Y-66620000D01*
X66096650Y-66620000D01*
X66255400Y-66461250D01*
X66258472Y-66197000D01*
X66246212Y-66072518D01*
X66209902Y-65952820D01*
X66150937Y-65842506D01*
X66071585Y-65745815D01*
X65974894Y-65666463D01*
X65864580Y-65607498D01*
X65744882Y-65571188D01*
X65620400Y-65558928D01*
X65006150Y-65562000D01*
X64847400Y-65720750D01*
X64593400Y-65720750D01*
X64434650Y-65562000D01*
X63820400Y-65558928D01*
X63695918Y-65571188D01*
X63576220Y-65607498D01*
X63465906Y-65666463D01*
X63369215Y-65745815D01*
X63289863Y-65842506D01*
X63230898Y-65952820D01*
X63194588Y-66072518D01*
X63182328Y-66197000D01*
X60058472Y-66197000D01*
X60046212Y-66072518D01*
X60009902Y-65952820D01*
X59950937Y-65842506D01*
X59871585Y-65745815D01*
X59774894Y-65666463D01*
X59664580Y-65607498D01*
X59544882Y-65571188D01*
X59420400Y-65558928D01*
X57620400Y-65558928D01*
X57495918Y-65571188D01*
X57376220Y-65607498D01*
X57265906Y-65666463D01*
X57169215Y-65745815D01*
X57089863Y-65842506D01*
X57030898Y-65952820D01*
X56994588Y-66072518D01*
X56982328Y-66197000D01*
X42526081Y-66197000D01*
X42526128Y-63694540D01*
X53089848Y-63694540D01*
X53102108Y-63819022D01*
X53138418Y-63938720D01*
X53197383Y-64049034D01*
X53276735Y-64145725D01*
X53373426Y-64225077D01*
X53483740Y-64284042D01*
X53603438Y-64320352D01*
X53727920Y-64332612D01*
X53954670Y-64329540D01*
X54113420Y-64170790D01*
X54113420Y-63121540D01*
X53251670Y-63121540D01*
X53092920Y-63280290D01*
X53089848Y-63694540D01*
X42526128Y-63694540D01*
X42526154Y-62294540D01*
X53089848Y-62294540D01*
X53092920Y-62708790D01*
X53251670Y-62867540D01*
X54113420Y-62867540D01*
X54113420Y-61818290D01*
X54367420Y-61818290D01*
X54367420Y-62867540D01*
X54387420Y-62867540D01*
X54387420Y-63121540D01*
X54367420Y-63121540D01*
X54367420Y-64170790D01*
X54526170Y-64329540D01*
X54752920Y-64332612D01*
X54877402Y-64320352D01*
X54997100Y-64284042D01*
X55107414Y-64225077D01*
X55204105Y-64145725D01*
X55228283Y-64116264D01*
X55309533Y-64182945D01*
X55463069Y-64265012D01*
X55629665Y-64315548D01*
X55802919Y-64332612D01*
X56327921Y-64332612D01*
X56501175Y-64315548D01*
X56667771Y-64265012D01*
X56821307Y-64182945D01*
X56955882Y-64072502D01*
X57066325Y-63937927D01*
X57074468Y-63922693D01*
X57089863Y-63951494D01*
X57169215Y-64048185D01*
X57265906Y-64127537D01*
X57376220Y-64186502D01*
X57495918Y-64222812D01*
X57620400Y-64235072D01*
X59420400Y-64235072D01*
X59544882Y-64222812D01*
X59664580Y-64186502D01*
X59774894Y-64127537D01*
X59871585Y-64048185D01*
X59950937Y-63951494D01*
X60009902Y-63841180D01*
X60046212Y-63721482D01*
X60058472Y-63597000D01*
X60058472Y-62497000D01*
X63182328Y-62497000D01*
X63182328Y-63597000D01*
X63194588Y-63721482D01*
X63230898Y-63841180D01*
X63289863Y-63951494D01*
X63369215Y-64048185D01*
X63465906Y-64127537D01*
X63576220Y-64186502D01*
X63695918Y-64222812D01*
X63820400Y-64235072D01*
X65620400Y-64235072D01*
X65744882Y-64222812D01*
X65864580Y-64186502D01*
X65974894Y-64127537D01*
X66071585Y-64048185D01*
X66150937Y-63951494D01*
X66209902Y-63841180D01*
X66246212Y-63721482D01*
X66258472Y-63597000D01*
X66258472Y-62497000D01*
X66246212Y-62372518D01*
X66209902Y-62252820D01*
X66150937Y-62142506D01*
X66071585Y-62045815D01*
X65974894Y-61966463D01*
X65864580Y-61907498D01*
X65744882Y-61871188D01*
X65620400Y-61858928D01*
X63820400Y-61858928D01*
X63695918Y-61871188D01*
X63576220Y-61907498D01*
X63465906Y-61966463D01*
X63369215Y-62045815D01*
X63289863Y-62142506D01*
X63230898Y-62252820D01*
X63194588Y-62372518D01*
X63182328Y-62497000D01*
X60058472Y-62497000D01*
X60046212Y-62372518D01*
X60009902Y-62252820D01*
X59950937Y-62142506D01*
X59871585Y-62045815D01*
X59774894Y-61966463D01*
X59664580Y-61907498D01*
X59544882Y-61871188D01*
X59420400Y-61858928D01*
X57620400Y-61858928D01*
X57495918Y-61871188D01*
X57376220Y-61907498D01*
X57265906Y-61966463D01*
X57169215Y-62045815D01*
X57105179Y-62123843D01*
X57066325Y-62051153D01*
X56955882Y-61916578D01*
X56823465Y-61807906D01*
X56843957Y-61787414D01*
X56957225Y-61617896D01*
X57035246Y-61429538D01*
X57075020Y-61229579D01*
X57075020Y-61025701D01*
X57035246Y-60825742D01*
X56957225Y-60637384D01*
X56843957Y-60467866D01*
X56699794Y-60323703D01*
X56530276Y-60210435D01*
X56341918Y-60132414D01*
X56141959Y-60092640D01*
X55938081Y-60092640D01*
X55738122Y-60132414D01*
X55549764Y-60210435D01*
X55380246Y-60323703D01*
X55236083Y-60467866D01*
X55122815Y-60637384D01*
X55044794Y-60825742D01*
X55005020Y-61025701D01*
X55005020Y-61229579D01*
X55044794Y-61429538D01*
X55122815Y-61617896D01*
X55236083Y-61787414D01*
X55278020Y-61829351D01*
X55278020Y-61831997D01*
X55228283Y-61872816D01*
X55204105Y-61843355D01*
X55107414Y-61764003D01*
X54997100Y-61705038D01*
X54877402Y-61668728D01*
X54752920Y-61656468D01*
X54526170Y-61659540D01*
X54367420Y-61818290D01*
X54113420Y-61818290D01*
X53954670Y-61659540D01*
X53727920Y-61656468D01*
X53603438Y-61668728D01*
X53483740Y-61705038D01*
X53373426Y-61764003D01*
X53276735Y-61843355D01*
X53197383Y-61940046D01*
X53138418Y-62050360D01*
X53102108Y-62170058D01*
X53089848Y-62294540D01*
X42526154Y-62294540D01*
X42526196Y-60009000D01*
X59178228Y-60009000D01*
X59190488Y-60133482D01*
X59226798Y-60253180D01*
X59285763Y-60363494D01*
X59365115Y-60460185D01*
X59461806Y-60539537D01*
X59572120Y-60598502D01*
X59691818Y-60634812D01*
X59816300Y-60647072D01*
X60043050Y-60644000D01*
X60201800Y-60485250D01*
X60201800Y-59436000D01*
X59340050Y-59436000D01*
X59181300Y-59594750D01*
X59178228Y-60009000D01*
X42526196Y-60009000D01*
X42526477Y-44920179D01*
X51675003Y-44920179D01*
X51692067Y-45093433D01*
X51742603Y-45260029D01*
X51824670Y-45413565D01*
X51935113Y-45548141D01*
X52465443Y-46078471D01*
X52600019Y-46188914D01*
X52753555Y-46270981D01*
X52920151Y-46321517D01*
X53093405Y-46338581D01*
X53266659Y-46321517D01*
X53433255Y-46270981D01*
X53586791Y-46188914D01*
X53721367Y-46078471D01*
X54605251Y-45194587D01*
X54715694Y-45060011D01*
X54797761Y-44906475D01*
X54848297Y-44739879D01*
X54865361Y-44566625D01*
X54848297Y-44393371D01*
X54797761Y-44226775D01*
X54715694Y-44073239D01*
X54605251Y-43938663D01*
X54074921Y-43408333D01*
X54032182Y-43373258D01*
X54032182Y-43091400D01*
X56320328Y-43091400D01*
X56323400Y-43305650D01*
X56482150Y-43464400D01*
X57556400Y-43464400D01*
X57556400Y-42615150D01*
X57397650Y-42456400D01*
X56958400Y-42453328D01*
X56833918Y-42465588D01*
X56714220Y-42501898D01*
X56603906Y-42560863D01*
X56507215Y-42640215D01*
X56427863Y-42736906D01*
X56368898Y-42847220D01*
X56332588Y-42966918D01*
X56320328Y-43091400D01*
X54032182Y-43091400D01*
X54032182Y-41749400D01*
X57084468Y-41749400D01*
X57096728Y-41873882D01*
X57133038Y-41993580D01*
X57192003Y-42103894D01*
X57271355Y-42200585D01*
X57368046Y-42279937D01*
X57478360Y-42338902D01*
X57598058Y-42375212D01*
X57722540Y-42387472D01*
X58136790Y-42384400D01*
X58295540Y-42225650D01*
X58295540Y-41363900D01*
X57246290Y-41363900D01*
X57087540Y-41522650D01*
X57084468Y-41749400D01*
X54032182Y-41749400D01*
X54032182Y-41274368D01*
X58400401Y-36906150D01*
X58400401Y-38261328D01*
X57972539Y-38261328D01*
X57799285Y-38278392D01*
X57632689Y-38328928D01*
X57479153Y-38410995D01*
X57344578Y-38521438D01*
X57234135Y-38656013D01*
X57152068Y-38809549D01*
X57101532Y-38976145D01*
X57084468Y-39149399D01*
X57084468Y-39674401D01*
X57101532Y-39847655D01*
X57152068Y-40014251D01*
X57234135Y-40167787D01*
X57300816Y-40249037D01*
X57271355Y-40273215D01*
X57192003Y-40369906D01*
X57133038Y-40480220D01*
X57096728Y-40599918D01*
X57084468Y-40724400D01*
X57087540Y-40951150D01*
X57246290Y-41109900D01*
X58295540Y-41109900D01*
X58295540Y-41089900D01*
X58549540Y-41089900D01*
X58549540Y-41109900D01*
X58569540Y-41109900D01*
X58569540Y-41363900D01*
X58549540Y-41363900D01*
X58549540Y-42225650D01*
X58708290Y-42384400D01*
X59122540Y-42387472D01*
X59207400Y-42379114D01*
X59207400Y-42520379D01*
X59179549Y-42528828D01*
X59026013Y-42610895D01*
X58912186Y-42704310D01*
X58859585Y-42640215D01*
X58762894Y-42560863D01*
X58652580Y-42501898D01*
X58532882Y-42465588D01*
X58408400Y-42453328D01*
X57969150Y-42456400D01*
X57810400Y-42615150D01*
X57810400Y-43464400D01*
X57830400Y-43464400D01*
X57830400Y-43718400D01*
X57810400Y-43718400D01*
X57810400Y-43738400D01*
X57556400Y-43738400D01*
X57556400Y-43718400D01*
X56482150Y-43718400D01*
X56323400Y-43877150D01*
X56320328Y-44091400D01*
X56332588Y-44215882D01*
X56368898Y-44335580D01*
X56427863Y-44445894D01*
X56507215Y-44542585D01*
X56586994Y-44608058D01*
X56580438Y-44613438D01*
X56469995Y-44748014D01*
X56387928Y-44901550D01*
X56337392Y-45068146D01*
X56320328Y-45241400D01*
X56320328Y-45653740D01*
X56054819Y-45388231D01*
X55920243Y-45277788D01*
X55766707Y-45195721D01*
X55600111Y-45145185D01*
X55426857Y-45128121D01*
X55253603Y-45145185D01*
X55087007Y-45195721D01*
X54933471Y-45277788D01*
X54798895Y-45388231D01*
X53915011Y-46272115D01*
X53804568Y-46406691D01*
X53722501Y-46560227D01*
X53671965Y-46726823D01*
X53654901Y-46900077D01*
X53671965Y-47073331D01*
X53722501Y-47239927D01*
X53804568Y-47393463D01*
X53915011Y-47528039D01*
X54445341Y-48058369D01*
X54579917Y-48168812D01*
X54733453Y-48250879D01*
X54900049Y-48301415D01*
X55073303Y-48318479D01*
X55246557Y-48301415D01*
X55413153Y-48250879D01*
X55566689Y-48168812D01*
X55701265Y-48058369D01*
X56210834Y-47548800D01*
X56797568Y-47548800D01*
X58008928Y-48760162D01*
X58008928Y-49042728D01*
X56672000Y-49042728D01*
X56547518Y-49054988D01*
X56427820Y-49091298D01*
X56317506Y-49150263D01*
X56264456Y-49193800D01*
X56138830Y-49193800D01*
X55651684Y-48706654D01*
X55627822Y-48677578D01*
X55511792Y-48582355D01*
X55379415Y-48511598D01*
X55235778Y-48468026D01*
X55123826Y-48457000D01*
X55123823Y-48457000D01*
X55086400Y-48453314D01*
X55048977Y-48457000D01*
X54661832Y-48457000D01*
X54610380Y-48429498D01*
X54490682Y-48393188D01*
X54366200Y-48380928D01*
X52466200Y-48380928D01*
X52341718Y-48393188D01*
X52222020Y-48429498D01*
X52111706Y-48488463D01*
X52015015Y-48567815D01*
X51935663Y-48664506D01*
X51876698Y-48774820D01*
X51840388Y-48894518D01*
X51828128Y-49019000D01*
X51828128Y-49419000D01*
X51840388Y-49543482D01*
X51876698Y-49663180D01*
X51935663Y-49773494D01*
X51973009Y-49819000D01*
X51935663Y-49864506D01*
X51876698Y-49974820D01*
X51840388Y-50094518D01*
X51828128Y-50219000D01*
X51828128Y-50619000D01*
X51840388Y-50743482D01*
X51876698Y-50863180D01*
X51935663Y-50973494D01*
X51973009Y-51019000D01*
X51935663Y-51064506D01*
X51876698Y-51174820D01*
X51840388Y-51294518D01*
X51828128Y-51419000D01*
X51828128Y-51819000D01*
X51840388Y-51943482D01*
X51876698Y-52063180D01*
X51935663Y-52173494D01*
X52015015Y-52270185D01*
X52111706Y-52349537D01*
X52222020Y-52408502D01*
X52341718Y-52444812D01*
X52356051Y-52446224D01*
X52324468Y-52550338D01*
X52312208Y-52674820D01*
X52315280Y-52889070D01*
X52474030Y-53047820D01*
X53548280Y-53047820D01*
X53548280Y-53027820D01*
X53802280Y-53027820D01*
X53802280Y-53047820D01*
X53822280Y-53047820D01*
X53822280Y-53301820D01*
X53802280Y-53301820D01*
X53802280Y-53321820D01*
X53548280Y-53321820D01*
X53548280Y-53301820D01*
X52474030Y-53301820D01*
X52315280Y-53460570D01*
X52312208Y-53674820D01*
X52324468Y-53799302D01*
X52360778Y-53919000D01*
X52419743Y-54029314D01*
X52499095Y-54126005D01*
X52578874Y-54191478D01*
X52572318Y-54196858D01*
X52461875Y-54331434D01*
X52379808Y-54484970D01*
X52329272Y-54651566D01*
X52312208Y-54824820D01*
X52312208Y-55324820D01*
X52329272Y-55498074D01*
X52379808Y-55664670D01*
X52461875Y-55818206D01*
X52572318Y-55952782D01*
X52706894Y-56063225D01*
X52860430Y-56145292D01*
X53027026Y-56195828D01*
X53200280Y-56212892D01*
X54150280Y-56212892D01*
X54323534Y-56195828D01*
X54490130Y-56145292D01*
X54643666Y-56063225D01*
X54778242Y-55952782D01*
X54888685Y-55818206D01*
X54970752Y-55664670D01*
X55021288Y-55498074D01*
X55038352Y-55324820D01*
X55038352Y-54879180D01*
X56033928Y-53883605D01*
X56033928Y-54230800D01*
X56046188Y-54355282D01*
X56046345Y-54355800D01*
X56046188Y-54356318D01*
X56033928Y-54480800D01*
X56033928Y-55030800D01*
X56046188Y-55155282D01*
X56046345Y-55155800D01*
X56046188Y-55156318D01*
X56033928Y-55280800D01*
X56033928Y-55830800D01*
X56046188Y-55955282D01*
X56082498Y-56074980D01*
X56141463Y-56185294D01*
X56220815Y-56281985D01*
X56317506Y-56361337D01*
X56427820Y-56420302D01*
X56547518Y-56456612D01*
X56672000Y-56468872D01*
X58008928Y-56468872D01*
X58008928Y-57805800D01*
X58021188Y-57930282D01*
X58057498Y-58049980D01*
X58116463Y-58160294D01*
X58195815Y-58256985D01*
X58292506Y-58336337D01*
X58402820Y-58395302D01*
X58522518Y-58431612D01*
X58647000Y-58443872D01*
X59197000Y-58443872D01*
X59202997Y-58443281D01*
X59190488Y-58484518D01*
X59178228Y-58609000D01*
X59181300Y-59023250D01*
X59340050Y-59182000D01*
X60201800Y-59182000D01*
X60201800Y-59162000D01*
X60455800Y-59162000D01*
X60455800Y-59182000D01*
X60475800Y-59182000D01*
X60475800Y-59436000D01*
X60455800Y-59436000D01*
X60455800Y-60485250D01*
X60614550Y-60644000D01*
X60841300Y-60647072D01*
X60965782Y-60634812D01*
X61085480Y-60598502D01*
X61195794Y-60539537D01*
X61292485Y-60460185D01*
X61316663Y-60430724D01*
X61397913Y-60497405D01*
X61551449Y-60579472D01*
X61718045Y-60630008D01*
X61891299Y-60647072D01*
X62416301Y-60647072D01*
X62589555Y-60630008D01*
X62756151Y-60579472D01*
X62909687Y-60497405D01*
X63044262Y-60386962D01*
X63154705Y-60252387D01*
X63236772Y-60098851D01*
X63287308Y-59932255D01*
X63304372Y-59759001D01*
X63304372Y-58858999D01*
X63287308Y-58685745D01*
X63236772Y-58519149D01*
X63196535Y-58443872D01*
X63197000Y-58443872D01*
X63321482Y-58431612D01*
X63322000Y-58431455D01*
X63322518Y-58431612D01*
X63447000Y-58443872D01*
X63997000Y-58443872D01*
X64121482Y-58431612D01*
X64122000Y-58431455D01*
X64122518Y-58431612D01*
X64247000Y-58443872D01*
X64797000Y-58443872D01*
X64921482Y-58431612D01*
X65041180Y-58395302D01*
X65151494Y-58336337D01*
X65248185Y-58256985D01*
X65327537Y-58160294D01*
X65386502Y-58049980D01*
X65422812Y-57930282D01*
X65435072Y-57805800D01*
X65435072Y-56468872D01*
X66772000Y-56468872D01*
X66896482Y-56456612D01*
X67016180Y-56420302D01*
X67126494Y-56361337D01*
X67223185Y-56281985D01*
X67302537Y-56185294D01*
X67361502Y-56074980D01*
X67397812Y-55955282D01*
X67410072Y-55830800D01*
X67410072Y-55524400D01*
X68208489Y-55524400D01*
X68250426Y-55566337D01*
X68419944Y-55679605D01*
X68608302Y-55757626D01*
X68808261Y-55797400D01*
X69012139Y-55797400D01*
X69212098Y-55757626D01*
X69400456Y-55679605D01*
X69569974Y-55566337D01*
X69714137Y-55422174D01*
X69827405Y-55252656D01*
X69905426Y-55064298D01*
X69945200Y-54864339D01*
X69945200Y-54660461D01*
X69905426Y-54460502D01*
X69827405Y-54272144D01*
X69714137Y-54102626D01*
X69569974Y-53958463D01*
X69568114Y-53957220D01*
X69569974Y-53955977D01*
X69714137Y-53811814D01*
X69827405Y-53642296D01*
X69905426Y-53453938D01*
X69945200Y-53253979D01*
X69945200Y-53050101D01*
X69905426Y-52850142D01*
X69827405Y-52661784D01*
X69714137Y-52492266D01*
X69569974Y-52348103D01*
X69400456Y-52234835D01*
X69212098Y-52156814D01*
X69012139Y-52117040D01*
X68865753Y-52117040D01*
X68788545Y-51930644D01*
X68675277Y-51761126D01*
X68531114Y-51616963D01*
X68361596Y-51503695D01*
X68173238Y-51425674D01*
X67973279Y-51385900D01*
X67769401Y-51385900D01*
X67569442Y-51425674D01*
X67410072Y-51491688D01*
X67410072Y-51280800D01*
X67397812Y-51156318D01*
X67397655Y-51155800D01*
X67397812Y-51155282D01*
X67410072Y-51030800D01*
X67410072Y-50912749D01*
X67502480Y-50951026D01*
X67702439Y-50990800D01*
X67906317Y-50990800D01*
X68106276Y-50951026D01*
X68294634Y-50873005D01*
X68464152Y-50759737D01*
X68608315Y-50615574D01*
X68721583Y-50446056D01*
X68799604Y-50257698D01*
X68839378Y-50057739D01*
X68839378Y-49853861D01*
X68799604Y-49653902D01*
X68721583Y-49465544D01*
X68608315Y-49296026D01*
X68464152Y-49151863D01*
X68294634Y-49038595D01*
X68106276Y-48960574D01*
X67906317Y-48920800D01*
X67702439Y-48920800D01*
X67502480Y-48960574D01*
X67314122Y-49038595D01*
X67144604Y-49151863D01*
X67137320Y-49159147D01*
X67126494Y-49150263D01*
X67016180Y-49091298D01*
X66896482Y-49054988D01*
X66772000Y-49042728D01*
X65658590Y-49042728D01*
X65678764Y-49018146D01*
X69069487Y-45627423D01*
X69098562Y-45603562D01*
X69184720Y-45498578D01*
X69193785Y-45487533D01*
X69233321Y-45413565D01*
X69264542Y-45355155D01*
X69308114Y-45211518D01*
X69319140Y-45099566D01*
X69319140Y-45099563D01*
X69322826Y-45062140D01*
X69319140Y-45024717D01*
X69319140Y-44937578D01*
X72445900Y-44937578D01*
X72445900Y-45235022D01*
X72503929Y-45526751D01*
X72617756Y-45801553D01*
X72783007Y-46048869D01*
X72993331Y-46259193D01*
X73240647Y-46424444D01*
X73515449Y-46538271D01*
X73807178Y-46596300D01*
X74104622Y-46596300D01*
X74396351Y-46538271D01*
X74671153Y-46424444D01*
X74918469Y-46259193D01*
X75105260Y-46072402D01*
X75105261Y-59836300D01*
X75052555Y-59836300D01*
X74712527Y-59903936D01*
X74392227Y-60036608D01*
X74103965Y-60229219D01*
X73858819Y-60474365D01*
X73666208Y-60762627D01*
X73533536Y-61082927D01*
X73465900Y-61422955D01*
X73465900Y-61769645D01*
X73533536Y-62109673D01*
X73666208Y-62429973D01*
X73798538Y-62628019D01*
X73515449Y-62684329D01*
X73240647Y-62798156D01*
X72993331Y-62963407D01*
X72783007Y-63173731D01*
X72617756Y-63421047D01*
X72503929Y-63695849D01*
X72445900Y-63987578D01*
X72445900Y-64285022D01*
X72503929Y-64576751D01*
X72617756Y-64851553D01*
X72783007Y-65098869D01*
X72993331Y-65309193D01*
X73240647Y-65474444D01*
X73515449Y-65588271D01*
X73807178Y-65646300D01*
X74104622Y-65646300D01*
X74396351Y-65588271D01*
X74671153Y-65474444D01*
X74918469Y-65309193D01*
X75128793Y-65098869D01*
X75294044Y-64851553D01*
X75407871Y-64576751D01*
X75465900Y-64285022D01*
X75465900Y-63987578D01*
X75443980Y-63877376D01*
X76407000Y-63877376D01*
X76407000Y-64395224D01*
X76508027Y-64903122D01*
X76706199Y-65381551D01*
X76993900Y-65812126D01*
X77360074Y-66178300D01*
X77790649Y-66466001D01*
X78269078Y-66664173D01*
X78776976Y-66765200D01*
X79294824Y-66765200D01*
X79802722Y-66664173D01*
X80281151Y-66466001D01*
X80711726Y-66178300D01*
X81077900Y-65812126D01*
X81365601Y-65381551D01*
X81563773Y-64903122D01*
X81664800Y-64395224D01*
X81664800Y-63987578D01*
X82605900Y-63987578D01*
X82605900Y-64285022D01*
X82663929Y-64576751D01*
X82777756Y-64851553D01*
X82943007Y-65098869D01*
X83153331Y-65309193D01*
X83400647Y-65474444D01*
X83675449Y-65588271D01*
X83967178Y-65646300D01*
X84264622Y-65646300D01*
X84556351Y-65588271D01*
X84831153Y-65474444D01*
X85078469Y-65309193D01*
X85288793Y-65098869D01*
X85454044Y-64851553D01*
X85567871Y-64576751D01*
X85625900Y-64285022D01*
X85625900Y-63987578D01*
X85567871Y-63695849D01*
X85454044Y-63421047D01*
X85288793Y-63173731D01*
X85078469Y-62963407D01*
X84831153Y-62798156D01*
X84556351Y-62684329D01*
X84264622Y-62626300D01*
X83967178Y-62626300D01*
X83675449Y-62684329D01*
X83400647Y-62798156D01*
X83153331Y-62963407D01*
X82943007Y-63173731D01*
X82777756Y-63421047D01*
X82663929Y-63695849D01*
X82605900Y-63987578D01*
X81664800Y-63987578D01*
X81664800Y-63877376D01*
X81563773Y-63369478D01*
X81365601Y-62891049D01*
X81077900Y-62460474D01*
X80711726Y-62094300D01*
X80281151Y-61806599D01*
X79802722Y-61608427D01*
X79294824Y-61507400D01*
X78776976Y-61507400D01*
X78269078Y-61608427D01*
X77790649Y-61806599D01*
X77360074Y-62094300D01*
X76993900Y-62460474D01*
X76706199Y-62891049D01*
X76508027Y-63369478D01*
X76407000Y-63877376D01*
X75443980Y-63877376D01*
X75407871Y-63695849D01*
X75294044Y-63421047D01*
X75250782Y-63356300D01*
X75399245Y-63356300D01*
X75739273Y-63288664D01*
X76059573Y-63155992D01*
X76347835Y-62963381D01*
X76592981Y-62718235D01*
X76785592Y-62429973D01*
X76918264Y-62109673D01*
X76985900Y-61769645D01*
X76985900Y-61422955D01*
X76918264Y-61082927D01*
X76785592Y-60762627D01*
X76629260Y-60528660D01*
X76629260Y-58882955D01*
X79815900Y-58882955D01*
X79815900Y-59229645D01*
X79883536Y-59569673D01*
X80016208Y-59889973D01*
X80208819Y-60178235D01*
X80453965Y-60423381D01*
X80742227Y-60615992D01*
X81062527Y-60748664D01*
X81402555Y-60816300D01*
X81749245Y-60816300D01*
X82089273Y-60748664D01*
X82409573Y-60615992D01*
X82697835Y-60423381D01*
X82942981Y-60178235D01*
X83135592Y-59889973D01*
X83268264Y-59569673D01*
X83335900Y-59229645D01*
X83335900Y-58882955D01*
X83268264Y-58542927D01*
X83238576Y-58471254D01*
X87944232Y-53765599D01*
X87973302Y-53741742D01*
X88068525Y-53625712D01*
X88139282Y-53493335D01*
X88182854Y-53349698D01*
X88193880Y-53237746D01*
X88193880Y-53237744D01*
X88197566Y-53200321D01*
X88193880Y-53162898D01*
X88193880Y-44937578D01*
X91495900Y-44937578D01*
X91495900Y-45235022D01*
X91553929Y-45526751D01*
X91667756Y-45801553D01*
X91833007Y-46048869D01*
X92043331Y-46259193D01*
X92290647Y-46424444D01*
X92565449Y-46538271D01*
X92857178Y-46596300D01*
X93154622Y-46596300D01*
X93446351Y-46538271D01*
X93721153Y-46424444D01*
X93968469Y-46259193D01*
X94178793Y-46048869D01*
X94188280Y-46034670D01*
X94188281Y-59836300D01*
X94102555Y-59836300D01*
X93762527Y-59903936D01*
X93442227Y-60036608D01*
X93153965Y-60229219D01*
X92908819Y-60474365D01*
X92716208Y-60762627D01*
X92583536Y-61082927D01*
X92515900Y-61422955D01*
X92515900Y-61769645D01*
X92583536Y-62109673D01*
X92716208Y-62429973D01*
X92848538Y-62628019D01*
X92565449Y-62684329D01*
X92290647Y-62798156D01*
X92043331Y-62963407D01*
X91833007Y-63173731D01*
X91667756Y-63421047D01*
X91553929Y-63695849D01*
X91495900Y-63987578D01*
X91495900Y-64285022D01*
X91553929Y-64576751D01*
X91667756Y-64851553D01*
X91833007Y-65098869D01*
X92043331Y-65309193D01*
X92290647Y-65474444D01*
X92565449Y-65588271D01*
X92857178Y-65646300D01*
X93154622Y-65646300D01*
X93446351Y-65588271D01*
X93721153Y-65474444D01*
X93968469Y-65309193D01*
X94178793Y-65098869D01*
X94344044Y-64851553D01*
X94457871Y-64576751D01*
X94515900Y-64285022D01*
X94515900Y-63987578D01*
X94493980Y-63877376D01*
X95457000Y-63877376D01*
X95457000Y-64395224D01*
X95558027Y-64903122D01*
X95756199Y-65381551D01*
X96043900Y-65812126D01*
X96410074Y-66178300D01*
X96840649Y-66466001D01*
X97319078Y-66664173D01*
X97826976Y-66765200D01*
X98344824Y-66765200D01*
X98852722Y-66664173D01*
X99331151Y-66466001D01*
X99761726Y-66178300D01*
X100127900Y-65812126D01*
X100415601Y-65381551D01*
X100613773Y-64903122D01*
X100714800Y-64395224D01*
X100714800Y-63987578D01*
X101655900Y-63987578D01*
X101655900Y-64285022D01*
X101713929Y-64576751D01*
X101827756Y-64851553D01*
X101993007Y-65098869D01*
X102203331Y-65309193D01*
X102450647Y-65474444D01*
X102725449Y-65588271D01*
X103017178Y-65646300D01*
X103314622Y-65646300D01*
X103606351Y-65588271D01*
X103881153Y-65474444D01*
X104128469Y-65309193D01*
X104338793Y-65098869D01*
X104504044Y-64851553D01*
X104617871Y-64576751D01*
X104675900Y-64285022D01*
X104675900Y-63987578D01*
X104617871Y-63695849D01*
X104504044Y-63421047D01*
X104338793Y-63173731D01*
X104128469Y-62963407D01*
X103881153Y-62798156D01*
X103606351Y-62684329D01*
X103314622Y-62626300D01*
X103017178Y-62626300D01*
X102725449Y-62684329D01*
X102450647Y-62798156D01*
X102203331Y-62963407D01*
X101993007Y-63173731D01*
X101827756Y-63421047D01*
X101713929Y-63695849D01*
X101655900Y-63987578D01*
X100714800Y-63987578D01*
X100714800Y-63877376D01*
X100613773Y-63369478D01*
X100415601Y-62891049D01*
X100127900Y-62460474D01*
X99761726Y-62094300D01*
X99331151Y-61806599D01*
X98852722Y-61608427D01*
X98344824Y-61507400D01*
X97826976Y-61507400D01*
X97319078Y-61608427D01*
X96840649Y-61806599D01*
X96410074Y-62094300D01*
X96043900Y-62460474D01*
X95756199Y-62891049D01*
X95558027Y-63369478D01*
X95457000Y-63877376D01*
X94493980Y-63877376D01*
X94457871Y-63695849D01*
X94344044Y-63421047D01*
X94300782Y-63356300D01*
X94449245Y-63356300D01*
X94789273Y-63288664D01*
X95109573Y-63155992D01*
X95397835Y-62963381D01*
X95642981Y-62718235D01*
X95835592Y-62429973D01*
X95968264Y-62109673D01*
X96035900Y-61769645D01*
X96035900Y-61422955D01*
X95968264Y-61082927D01*
X95835592Y-60762627D01*
X95712280Y-60578078D01*
X95712280Y-58882955D01*
X98865900Y-58882955D01*
X98865900Y-59229645D01*
X98933536Y-59569673D01*
X99066208Y-59889973D01*
X99258819Y-60178235D01*
X99503965Y-60423381D01*
X99792227Y-60615992D01*
X100112527Y-60748664D01*
X100452555Y-60816300D01*
X100799245Y-60816300D01*
X101139273Y-60748664D01*
X101459573Y-60615992D01*
X101747835Y-60423381D01*
X101992981Y-60178235D01*
X102185592Y-59889973D01*
X102318264Y-59569673D01*
X102385900Y-59229645D01*
X102385900Y-58882955D01*
X102318264Y-58542927D01*
X102288576Y-58471254D01*
X106869772Y-53890059D01*
X106898842Y-53866202D01*
X106994065Y-53750172D01*
X107064822Y-53617795D01*
X107108394Y-53474158D01*
X107119420Y-53362206D01*
X107119420Y-53362204D01*
X107123106Y-53324781D01*
X107119420Y-53287358D01*
X107119420Y-44937578D01*
X110545900Y-44937578D01*
X110545900Y-45235022D01*
X110603929Y-45526751D01*
X110717756Y-45801553D01*
X110883007Y-46048869D01*
X111093331Y-46259193D01*
X111340647Y-46424444D01*
X111615449Y-46538271D01*
X111907178Y-46596300D01*
X112204622Y-46596300D01*
X112496351Y-46538271D01*
X112771153Y-46424444D01*
X113018469Y-46259193D01*
X113136680Y-46140982D01*
X113136681Y-59839458D01*
X112812527Y-59903936D01*
X112492227Y-60036608D01*
X112203965Y-60229219D01*
X111958819Y-60474365D01*
X111766208Y-60762627D01*
X111633536Y-61082927D01*
X111565900Y-61422955D01*
X111565900Y-61769645D01*
X111633536Y-62109673D01*
X111766208Y-62429973D01*
X111898538Y-62628019D01*
X111615449Y-62684329D01*
X111340647Y-62798156D01*
X111093331Y-62963407D01*
X110883007Y-63173731D01*
X110717756Y-63421047D01*
X110603929Y-63695849D01*
X110545900Y-63987578D01*
X110545900Y-64285022D01*
X110603929Y-64576751D01*
X110717756Y-64851553D01*
X110883007Y-65098869D01*
X111093331Y-65309193D01*
X111340647Y-65474444D01*
X111615449Y-65588271D01*
X111907178Y-65646300D01*
X112204622Y-65646300D01*
X112496351Y-65588271D01*
X112771153Y-65474444D01*
X113018469Y-65309193D01*
X113228793Y-65098869D01*
X113394044Y-64851553D01*
X113507871Y-64576751D01*
X113565900Y-64285022D01*
X113565900Y-63987578D01*
X113543980Y-63877376D01*
X114507000Y-63877376D01*
X114507000Y-64395224D01*
X114608027Y-64903122D01*
X114806199Y-65381551D01*
X115093900Y-65812126D01*
X115460074Y-66178300D01*
X115890649Y-66466001D01*
X116369078Y-66664173D01*
X116876976Y-66765200D01*
X117394824Y-66765200D01*
X117902722Y-66664173D01*
X118381151Y-66466001D01*
X118811726Y-66178300D01*
X119177900Y-65812126D01*
X119465601Y-65381551D01*
X119663773Y-64903122D01*
X119764800Y-64395224D01*
X119764800Y-63987578D01*
X120705900Y-63987578D01*
X120705900Y-64285022D01*
X120763929Y-64576751D01*
X120877756Y-64851553D01*
X121043007Y-65098869D01*
X121253331Y-65309193D01*
X121500647Y-65474444D01*
X121775449Y-65588271D01*
X122067178Y-65646300D01*
X122364622Y-65646300D01*
X122656351Y-65588271D01*
X122931153Y-65474444D01*
X123178469Y-65309193D01*
X123388793Y-65098869D01*
X123554044Y-64851553D01*
X123667871Y-64576751D01*
X123725900Y-64285022D01*
X123725900Y-63987578D01*
X123667871Y-63695849D01*
X123554044Y-63421047D01*
X123388793Y-63173731D01*
X123178469Y-62963407D01*
X122931153Y-62798156D01*
X122656351Y-62684329D01*
X122364622Y-62626300D01*
X122067178Y-62626300D01*
X121775449Y-62684329D01*
X121500647Y-62798156D01*
X121253331Y-62963407D01*
X121043007Y-63173731D01*
X120877756Y-63421047D01*
X120763929Y-63695849D01*
X120705900Y-63987578D01*
X119764800Y-63987578D01*
X119764800Y-63877376D01*
X119663773Y-63369478D01*
X119465601Y-62891049D01*
X119177900Y-62460474D01*
X118811726Y-62094300D01*
X118381151Y-61806599D01*
X117902722Y-61608427D01*
X117394824Y-61507400D01*
X116876976Y-61507400D01*
X116369078Y-61608427D01*
X115890649Y-61806599D01*
X115460074Y-62094300D01*
X115093900Y-62460474D01*
X114806199Y-62891049D01*
X114608027Y-63369478D01*
X114507000Y-63877376D01*
X113543980Y-63877376D01*
X113507871Y-63695849D01*
X113394044Y-63421047D01*
X113350782Y-63356300D01*
X113499245Y-63356300D01*
X113839273Y-63288664D01*
X114159573Y-63155992D01*
X114447835Y-62963381D01*
X114692981Y-62718235D01*
X114885592Y-62429973D01*
X115018264Y-62109673D01*
X115085900Y-61769645D01*
X115085900Y-61422955D01*
X115018264Y-61082927D01*
X114885592Y-60762627D01*
X114692981Y-60474365D01*
X114660680Y-60442064D01*
X114660680Y-58882955D01*
X117915900Y-58882955D01*
X117915900Y-59229645D01*
X117983536Y-59569673D01*
X118116208Y-59889973D01*
X118308819Y-60178235D01*
X118553965Y-60423381D01*
X118842227Y-60615992D01*
X119162527Y-60748664D01*
X119502555Y-60816300D01*
X119849245Y-60816300D01*
X120189273Y-60748664D01*
X120509573Y-60615992D01*
X120797835Y-60423381D01*
X121042981Y-60178235D01*
X121235592Y-59889973D01*
X121368264Y-59569673D01*
X121435900Y-59229645D01*
X121435900Y-58882955D01*
X121368264Y-58542927D01*
X121338576Y-58471254D01*
X125988352Y-53821479D01*
X126017422Y-53797622D01*
X126112645Y-53681592D01*
X126183402Y-53549215D01*
X126226974Y-53405578D01*
X126238000Y-53293626D01*
X126238000Y-53293624D01*
X126241686Y-53256201D01*
X126238000Y-53218778D01*
X126238000Y-44937578D01*
X129595900Y-44937578D01*
X129595900Y-45235022D01*
X129653929Y-45526751D01*
X129767756Y-45801553D01*
X129933007Y-46048869D01*
X130143331Y-46259193D01*
X130390647Y-46424444D01*
X130665449Y-46538271D01*
X130957178Y-46596300D01*
X131254622Y-46596300D01*
X131546351Y-46538271D01*
X131821153Y-46424444D01*
X132068469Y-46259193D01*
X132245100Y-46082562D01*
X132245101Y-59836300D01*
X132202555Y-59836300D01*
X131862527Y-59903936D01*
X131542227Y-60036608D01*
X131253965Y-60229219D01*
X131008819Y-60474365D01*
X130816208Y-60762627D01*
X130683536Y-61082927D01*
X130615900Y-61422955D01*
X130615900Y-61769645D01*
X130683536Y-62109673D01*
X130816208Y-62429973D01*
X130948538Y-62628019D01*
X130665449Y-62684329D01*
X130390647Y-62798156D01*
X130143331Y-62963407D01*
X129933007Y-63173731D01*
X129767756Y-63421047D01*
X129653929Y-63695849D01*
X129595900Y-63987578D01*
X129595900Y-64285022D01*
X129653929Y-64576751D01*
X129767756Y-64851553D01*
X129933007Y-65098869D01*
X130143331Y-65309193D01*
X130390647Y-65474444D01*
X130665449Y-65588271D01*
X130957178Y-65646300D01*
X131254622Y-65646300D01*
X131546351Y-65588271D01*
X131821153Y-65474444D01*
X132068469Y-65309193D01*
X132278793Y-65098869D01*
X132444044Y-64851553D01*
X132557871Y-64576751D01*
X132615900Y-64285022D01*
X132615900Y-63987578D01*
X132593980Y-63877376D01*
X133557000Y-63877376D01*
X133557000Y-64395224D01*
X133658027Y-64903122D01*
X133856199Y-65381551D01*
X134143900Y-65812126D01*
X134510074Y-66178300D01*
X134940649Y-66466001D01*
X135419078Y-66664173D01*
X135926976Y-66765200D01*
X136444824Y-66765200D01*
X136952722Y-66664173D01*
X137431151Y-66466001D01*
X137861726Y-66178300D01*
X138227900Y-65812126D01*
X138515601Y-65381551D01*
X138713773Y-64903122D01*
X138814800Y-64395224D01*
X138814800Y-63987578D01*
X139755900Y-63987578D01*
X139755900Y-64285022D01*
X139813929Y-64576751D01*
X139927756Y-64851553D01*
X140093007Y-65098869D01*
X140303331Y-65309193D01*
X140550647Y-65474444D01*
X140825449Y-65588271D01*
X141117178Y-65646300D01*
X141414622Y-65646300D01*
X141706351Y-65588271D01*
X141981153Y-65474444D01*
X142228469Y-65309193D01*
X142438793Y-65098869D01*
X142604044Y-64851553D01*
X142717871Y-64576751D01*
X142775900Y-64285022D01*
X142775900Y-63987578D01*
X142717871Y-63695849D01*
X142604044Y-63421047D01*
X142438793Y-63173731D01*
X142228469Y-62963407D01*
X141981153Y-62798156D01*
X141706351Y-62684329D01*
X141414622Y-62626300D01*
X141117178Y-62626300D01*
X140825449Y-62684329D01*
X140550647Y-62798156D01*
X140303331Y-62963407D01*
X140093007Y-63173731D01*
X139927756Y-63421047D01*
X139813929Y-63695849D01*
X139755900Y-63987578D01*
X138814800Y-63987578D01*
X138814800Y-63877376D01*
X138713773Y-63369478D01*
X138515601Y-62891049D01*
X138227900Y-62460474D01*
X137861726Y-62094300D01*
X137431151Y-61806599D01*
X136952722Y-61608427D01*
X136444824Y-61507400D01*
X135926976Y-61507400D01*
X135419078Y-61608427D01*
X134940649Y-61806599D01*
X134510074Y-62094300D01*
X134143900Y-62460474D01*
X133856199Y-62891049D01*
X133658027Y-63369478D01*
X133557000Y-63877376D01*
X132593980Y-63877376D01*
X132557871Y-63695849D01*
X132444044Y-63421047D01*
X132400782Y-63356300D01*
X132549245Y-63356300D01*
X132889273Y-63288664D01*
X133209573Y-63155992D01*
X133497835Y-62963381D01*
X133742981Y-62718235D01*
X133935592Y-62429973D01*
X134068264Y-62109673D01*
X134135900Y-61769645D01*
X134135900Y-61422955D01*
X134068264Y-61082927D01*
X133935592Y-60762627D01*
X133769100Y-60513455D01*
X133769100Y-58882955D01*
X136965900Y-58882955D01*
X136965900Y-59229645D01*
X137033536Y-59569673D01*
X137166208Y-59889973D01*
X137358819Y-60178235D01*
X137603965Y-60423381D01*
X137892227Y-60615992D01*
X138212527Y-60748664D01*
X138552555Y-60816300D01*
X138899245Y-60816300D01*
X139239273Y-60748664D01*
X139559573Y-60615992D01*
X139847835Y-60423381D01*
X140092981Y-60178235D01*
X140285592Y-59889973D01*
X140418264Y-59569673D01*
X140485900Y-59229645D01*
X140485900Y-58882955D01*
X140418264Y-58542927D01*
X140388576Y-58471254D01*
X145010412Y-53849419D01*
X145039482Y-53825562D01*
X145101353Y-53750172D01*
X145134705Y-53709533D01*
X145203304Y-53581192D01*
X145205462Y-53577155D01*
X145249034Y-53433518D01*
X145260060Y-53321566D01*
X145260060Y-53321563D01*
X145263746Y-53284140D01*
X145260060Y-53246717D01*
X145260060Y-33433342D01*
X145263746Y-33395919D01*
X145257892Y-33336484D01*
X145249034Y-33246542D01*
X145205462Y-33102905D01*
X145134705Y-32970528D01*
X145039482Y-32854498D01*
X145010413Y-32830642D01*
X143922432Y-31742662D01*
X143922432Y-31132220D01*
X143910172Y-31007738D01*
X143873862Y-30888040D01*
X143814897Y-30777726D01*
X143735545Y-30681035D01*
X143638854Y-30601683D01*
X143528540Y-30542718D01*
X143408842Y-30506408D01*
X143284360Y-30494148D01*
X142384360Y-30494148D01*
X142259878Y-30506408D01*
X142140180Y-30542718D01*
X142029866Y-30601683D01*
X141933175Y-30681035D01*
X141853823Y-30777726D01*
X141794858Y-30888040D01*
X141758548Y-31007738D01*
X141746288Y-31132220D01*
X141746288Y-32332220D01*
X141758548Y-32456702D01*
X141794858Y-32576400D01*
X141853823Y-32686714D01*
X141933175Y-32783405D01*
X142029866Y-32862757D01*
X142140180Y-32921722D01*
X142259878Y-32958032D01*
X142384360Y-32970292D01*
X142994802Y-32970292D01*
X143736060Y-33711551D01*
X143736061Y-52968508D01*
X139310946Y-57393624D01*
X139239273Y-57363936D01*
X138899245Y-57296300D01*
X138552555Y-57296300D01*
X138212527Y-57363936D01*
X137892227Y-57496608D01*
X137603965Y-57689219D01*
X137358819Y-57934365D01*
X137166208Y-58222627D01*
X137033536Y-58542927D01*
X136965900Y-58882955D01*
X133769100Y-58882955D01*
X133769100Y-46121276D01*
X133856199Y-46331551D01*
X134143900Y-46762126D01*
X134510074Y-47128300D01*
X134940649Y-47416001D01*
X135419078Y-47614173D01*
X135926976Y-47715200D01*
X136444824Y-47715200D01*
X136952722Y-47614173D01*
X137431151Y-47416001D01*
X137861726Y-47128300D01*
X138227900Y-46762126D01*
X138515601Y-46331551D01*
X138713773Y-45853122D01*
X138814800Y-45345224D01*
X138814800Y-44937578D01*
X139755900Y-44937578D01*
X139755900Y-45235022D01*
X139813929Y-45526751D01*
X139927756Y-45801553D01*
X140093007Y-46048869D01*
X140303331Y-46259193D01*
X140550647Y-46424444D01*
X140825449Y-46538271D01*
X141117178Y-46596300D01*
X141414622Y-46596300D01*
X141706351Y-46538271D01*
X141981153Y-46424444D01*
X142228469Y-46259193D01*
X142438793Y-46048869D01*
X142604044Y-45801553D01*
X142717871Y-45526751D01*
X142775900Y-45235022D01*
X142775900Y-44937578D01*
X142717871Y-44645849D01*
X142604044Y-44371047D01*
X142438793Y-44123731D01*
X142228469Y-43913407D01*
X141981153Y-43748156D01*
X141706351Y-43634329D01*
X141414622Y-43576300D01*
X141117178Y-43576300D01*
X140825449Y-43634329D01*
X140550647Y-43748156D01*
X140303331Y-43913407D01*
X140093007Y-44123731D01*
X139927756Y-44371047D01*
X139813929Y-44645849D01*
X139755900Y-44937578D01*
X138814800Y-44937578D01*
X138814800Y-44827376D01*
X138713773Y-44319478D01*
X138515601Y-43841049D01*
X138227900Y-43410474D01*
X137861726Y-43044300D01*
X137431151Y-42756599D01*
X136952722Y-42558427D01*
X136444824Y-42457400D01*
X135926976Y-42457400D01*
X135419078Y-42558427D01*
X134940649Y-42756599D01*
X134510074Y-43044300D01*
X134143900Y-43410474D01*
X133856199Y-43841049D01*
X133769100Y-44051324D01*
X133769100Y-43629145D01*
X133935592Y-43379973D01*
X134068264Y-43059673D01*
X134135900Y-42719645D01*
X134135900Y-42372955D01*
X134068264Y-42032927D01*
X133935592Y-41712627D01*
X133742981Y-41424365D01*
X133497835Y-41179219D01*
X133209573Y-40986608D01*
X132889273Y-40853936D01*
X132549245Y-40786300D01*
X132202555Y-40786300D01*
X131862527Y-40853936D01*
X131542227Y-40986608D01*
X131253965Y-41179219D01*
X131008819Y-41424365D01*
X130816208Y-41712627D01*
X130683536Y-42032927D01*
X130615900Y-42372955D01*
X130615900Y-42719645D01*
X130683536Y-43059673D01*
X130816208Y-43379973D01*
X130948538Y-43578019D01*
X130665449Y-43634329D01*
X130390647Y-43748156D01*
X130143331Y-43913407D01*
X129933007Y-44123731D01*
X129767756Y-44371047D01*
X129653929Y-44645849D01*
X129595900Y-44937578D01*
X126238000Y-44937578D01*
X126238000Y-33507292D01*
X126241686Y-33469869D01*
X126237060Y-33422898D01*
X126226974Y-33320492D01*
X126183402Y-33176855D01*
X126112645Y-33044478D01*
X126017422Y-32928448D01*
X125988353Y-32904592D01*
X124826422Y-31742662D01*
X124826422Y-31132220D01*
X124814162Y-31007738D01*
X124777852Y-30888040D01*
X124718887Y-30777726D01*
X124639535Y-30681035D01*
X124542844Y-30601683D01*
X124432530Y-30542718D01*
X124312832Y-30506408D01*
X124188350Y-30494148D01*
X123288350Y-30494148D01*
X123163868Y-30506408D01*
X123044170Y-30542718D01*
X122933856Y-30601683D01*
X122837165Y-30681035D01*
X122757813Y-30777726D01*
X122698848Y-30888040D01*
X122662538Y-31007738D01*
X122650278Y-31132220D01*
X122650278Y-32332220D01*
X122662538Y-32456702D01*
X122698848Y-32576400D01*
X122757813Y-32686714D01*
X122837165Y-32783405D01*
X122933856Y-32862757D01*
X123044170Y-32921722D01*
X123163868Y-32958032D01*
X123288350Y-32970292D01*
X123898792Y-32970292D01*
X124714000Y-33785501D01*
X124714001Y-52940568D01*
X120260946Y-57393624D01*
X120189273Y-57363936D01*
X119849245Y-57296300D01*
X119502555Y-57296300D01*
X119162527Y-57363936D01*
X118842227Y-57496608D01*
X118553965Y-57689219D01*
X118308819Y-57934365D01*
X118116208Y-58222627D01*
X117983536Y-58542927D01*
X117915900Y-58882955D01*
X114660680Y-58882955D01*
X114660680Y-45980237D01*
X114806199Y-46331551D01*
X115093900Y-46762126D01*
X115460074Y-47128300D01*
X115890649Y-47416001D01*
X116369078Y-47614173D01*
X116876976Y-47715200D01*
X117394824Y-47715200D01*
X117902722Y-47614173D01*
X118381151Y-47416001D01*
X118811726Y-47128300D01*
X119177900Y-46762126D01*
X119465601Y-46331551D01*
X119663773Y-45853122D01*
X119764800Y-45345224D01*
X119764800Y-44937578D01*
X120705900Y-44937578D01*
X120705900Y-45235022D01*
X120763929Y-45526751D01*
X120877756Y-45801553D01*
X121043007Y-46048869D01*
X121253331Y-46259193D01*
X121500647Y-46424444D01*
X121775449Y-46538271D01*
X122067178Y-46596300D01*
X122364622Y-46596300D01*
X122656351Y-46538271D01*
X122931153Y-46424444D01*
X123178469Y-46259193D01*
X123388793Y-46048869D01*
X123554044Y-45801553D01*
X123667871Y-45526751D01*
X123725900Y-45235022D01*
X123725900Y-44937578D01*
X123667871Y-44645849D01*
X123554044Y-44371047D01*
X123388793Y-44123731D01*
X123178469Y-43913407D01*
X122931153Y-43748156D01*
X122656351Y-43634329D01*
X122364622Y-43576300D01*
X122067178Y-43576300D01*
X121775449Y-43634329D01*
X121500647Y-43748156D01*
X121253331Y-43913407D01*
X121043007Y-44123731D01*
X120877756Y-44371047D01*
X120763929Y-44645849D01*
X120705900Y-44937578D01*
X119764800Y-44937578D01*
X119764800Y-44827376D01*
X119663773Y-44319478D01*
X119465601Y-43841049D01*
X119177900Y-43410474D01*
X118811726Y-43044300D01*
X118381151Y-42756599D01*
X117902722Y-42558427D01*
X117394824Y-42457400D01*
X116876976Y-42457400D01*
X116369078Y-42558427D01*
X115890649Y-42756599D01*
X115460074Y-43044300D01*
X115093900Y-43410474D01*
X114806199Y-43841049D01*
X114660680Y-44192363D01*
X114660680Y-43700536D01*
X114692981Y-43668235D01*
X114885592Y-43379973D01*
X115018264Y-43059673D01*
X115085900Y-42719645D01*
X115085900Y-42372955D01*
X115018264Y-42032927D01*
X114885592Y-41712627D01*
X114692981Y-41424365D01*
X114447835Y-41179219D01*
X114159573Y-40986608D01*
X113839273Y-40853936D01*
X113499245Y-40786300D01*
X113152555Y-40786300D01*
X112812527Y-40853936D01*
X112492227Y-40986608D01*
X112203965Y-41179219D01*
X111958819Y-41424365D01*
X111766208Y-41712627D01*
X111633536Y-42032927D01*
X111565900Y-42372955D01*
X111565900Y-42719645D01*
X111633536Y-43059673D01*
X111766208Y-43379973D01*
X111898538Y-43578019D01*
X111615449Y-43634329D01*
X111340647Y-43748156D01*
X111093331Y-43913407D01*
X110883007Y-44123731D01*
X110717756Y-44371047D01*
X110603929Y-44645849D01*
X110545900Y-44937578D01*
X107119420Y-44937578D01*
X107119420Y-33484717D01*
X107123106Y-33447294D01*
X107114360Y-33358494D01*
X107108394Y-33297916D01*
X107064822Y-33154279D01*
X107006132Y-33044477D01*
X106994065Y-33021901D01*
X106922699Y-32934942D01*
X106898842Y-32905872D01*
X106869773Y-32882016D01*
X105730418Y-31742662D01*
X105730418Y-31132220D01*
X105718158Y-31007738D01*
X105681848Y-30888040D01*
X105622883Y-30777726D01*
X105543531Y-30681035D01*
X105446840Y-30601683D01*
X105336526Y-30542718D01*
X105216828Y-30506408D01*
X105092346Y-30494148D01*
X104192346Y-30494148D01*
X104067864Y-30506408D01*
X103948166Y-30542718D01*
X103837852Y-30601683D01*
X103741161Y-30681035D01*
X103661809Y-30777726D01*
X103602844Y-30888040D01*
X103566534Y-31007738D01*
X103554274Y-31132220D01*
X103554274Y-32332220D01*
X103566534Y-32456702D01*
X103602844Y-32576400D01*
X103661809Y-32686714D01*
X103741161Y-32783405D01*
X103837852Y-32862757D01*
X103948166Y-32921722D01*
X104067864Y-32958032D01*
X104192346Y-32970292D01*
X104802788Y-32970292D01*
X105595420Y-33762925D01*
X105595421Y-53009148D01*
X101210946Y-57393624D01*
X101139273Y-57363936D01*
X100799245Y-57296300D01*
X100452555Y-57296300D01*
X100112527Y-57363936D01*
X99792227Y-57496608D01*
X99503965Y-57689219D01*
X99258819Y-57934365D01*
X99066208Y-58222627D01*
X98933536Y-58542927D01*
X98865900Y-58882955D01*
X95712280Y-58882955D01*
X95712280Y-46225521D01*
X95756199Y-46331551D01*
X96043900Y-46762126D01*
X96410074Y-47128300D01*
X96840649Y-47416001D01*
X97319078Y-47614173D01*
X97826976Y-47715200D01*
X98344824Y-47715200D01*
X98852722Y-47614173D01*
X99331151Y-47416001D01*
X99761726Y-47128300D01*
X100127900Y-46762126D01*
X100415601Y-46331551D01*
X100613773Y-45853122D01*
X100714800Y-45345224D01*
X100714800Y-44937578D01*
X101655900Y-44937578D01*
X101655900Y-45235022D01*
X101713929Y-45526751D01*
X101827756Y-45801553D01*
X101993007Y-46048869D01*
X102203331Y-46259193D01*
X102450647Y-46424444D01*
X102725449Y-46538271D01*
X103017178Y-46596300D01*
X103314622Y-46596300D01*
X103606351Y-46538271D01*
X103881153Y-46424444D01*
X104128469Y-46259193D01*
X104338793Y-46048869D01*
X104504044Y-45801553D01*
X104617871Y-45526751D01*
X104675900Y-45235022D01*
X104675900Y-44937578D01*
X104617871Y-44645849D01*
X104504044Y-44371047D01*
X104338793Y-44123731D01*
X104128469Y-43913407D01*
X103881153Y-43748156D01*
X103606351Y-43634329D01*
X103314622Y-43576300D01*
X103017178Y-43576300D01*
X102725449Y-43634329D01*
X102450647Y-43748156D01*
X102203331Y-43913407D01*
X101993007Y-44123731D01*
X101827756Y-44371047D01*
X101713929Y-44645849D01*
X101655900Y-44937578D01*
X100714800Y-44937578D01*
X100714800Y-44827376D01*
X100613773Y-44319478D01*
X100415601Y-43841049D01*
X100127900Y-43410474D01*
X99761726Y-43044300D01*
X99331151Y-42756599D01*
X98852722Y-42558427D01*
X98344824Y-42457400D01*
X97826976Y-42457400D01*
X97319078Y-42558427D01*
X96840649Y-42756599D01*
X96410074Y-43044300D01*
X96043900Y-43410474D01*
X95756199Y-43841049D01*
X95712280Y-43947079D01*
X95712280Y-43564522D01*
X95835592Y-43379973D01*
X95968264Y-43059673D01*
X96035900Y-42719645D01*
X96035900Y-42372955D01*
X95968264Y-42032927D01*
X95835592Y-41712627D01*
X95642981Y-41424365D01*
X95397835Y-41179219D01*
X95109573Y-40986608D01*
X94789273Y-40853936D01*
X94449245Y-40786300D01*
X94102555Y-40786300D01*
X93762527Y-40853936D01*
X93442227Y-40986608D01*
X93153965Y-41179219D01*
X92908819Y-41424365D01*
X92716208Y-41712627D01*
X92583536Y-42032927D01*
X92515900Y-42372955D01*
X92515900Y-42719645D01*
X92583536Y-43059673D01*
X92716208Y-43379973D01*
X92848538Y-43578019D01*
X92565449Y-43634329D01*
X92290647Y-43748156D01*
X92043331Y-43913407D01*
X91833007Y-44123731D01*
X91667756Y-44371047D01*
X91553929Y-44645849D01*
X91495900Y-44937578D01*
X88193880Y-44937578D01*
X88193880Y-33655180D01*
X88197566Y-33617757D01*
X88193042Y-33571825D01*
X88182854Y-33468380D01*
X88139282Y-33324743D01*
X88068525Y-33192366D01*
X87973302Y-33076336D01*
X87944233Y-33052480D01*
X86634414Y-31742662D01*
X86634414Y-31132220D01*
X86622154Y-31007738D01*
X86585844Y-30888040D01*
X86526879Y-30777726D01*
X86447527Y-30681035D01*
X86350836Y-30601683D01*
X86240522Y-30542718D01*
X86120824Y-30506408D01*
X85996342Y-30494148D01*
X85096342Y-30494148D01*
X84971860Y-30506408D01*
X84852162Y-30542718D01*
X84741848Y-30601683D01*
X84645157Y-30681035D01*
X84565805Y-30777726D01*
X84506840Y-30888040D01*
X84470530Y-31007738D01*
X84458270Y-31132220D01*
X84458270Y-32332220D01*
X84470530Y-32456702D01*
X84506840Y-32576400D01*
X84565805Y-32686714D01*
X84645157Y-32783405D01*
X84741848Y-32862757D01*
X84852162Y-32921722D01*
X84971860Y-32958032D01*
X85096342Y-32970292D01*
X85706784Y-32970292D01*
X86669880Y-33933389D01*
X86669881Y-52884688D01*
X82160946Y-57393624D01*
X82089273Y-57363936D01*
X81749245Y-57296300D01*
X81402555Y-57296300D01*
X81062527Y-57363936D01*
X80742227Y-57496608D01*
X80453965Y-57689219D01*
X80208819Y-57934365D01*
X80016208Y-58222627D01*
X79883536Y-58542927D01*
X79815900Y-58882955D01*
X76629260Y-58882955D01*
X76629260Y-46145804D01*
X76706199Y-46331551D01*
X76993900Y-46762126D01*
X77360074Y-47128300D01*
X77790649Y-47416001D01*
X78269078Y-47614173D01*
X78776976Y-47715200D01*
X79294824Y-47715200D01*
X79802722Y-47614173D01*
X80281151Y-47416001D01*
X80711726Y-47128300D01*
X81077900Y-46762126D01*
X81365601Y-46331551D01*
X81563773Y-45853122D01*
X81664800Y-45345224D01*
X81664800Y-44937578D01*
X82605900Y-44937578D01*
X82605900Y-45235022D01*
X82663929Y-45526751D01*
X82777756Y-45801553D01*
X82943007Y-46048869D01*
X83153331Y-46259193D01*
X83400647Y-46424444D01*
X83675449Y-46538271D01*
X83967178Y-46596300D01*
X84264622Y-46596300D01*
X84556351Y-46538271D01*
X84831153Y-46424444D01*
X85078469Y-46259193D01*
X85288793Y-46048869D01*
X85454044Y-45801553D01*
X85567871Y-45526751D01*
X85625900Y-45235022D01*
X85625900Y-44937578D01*
X85567871Y-44645849D01*
X85454044Y-44371047D01*
X85288793Y-44123731D01*
X85078469Y-43913407D01*
X84831153Y-43748156D01*
X84556351Y-43634329D01*
X84264622Y-43576300D01*
X83967178Y-43576300D01*
X83675449Y-43634329D01*
X83400647Y-43748156D01*
X83153331Y-43913407D01*
X82943007Y-44123731D01*
X82777756Y-44371047D01*
X82663929Y-44645849D01*
X82605900Y-44937578D01*
X81664800Y-44937578D01*
X81664800Y-44827376D01*
X81563773Y-44319478D01*
X81365601Y-43841049D01*
X81077900Y-43410474D01*
X80711726Y-43044300D01*
X80281151Y-42756599D01*
X79802722Y-42558427D01*
X79294824Y-42457400D01*
X78776976Y-42457400D01*
X78269078Y-42558427D01*
X77790649Y-42756599D01*
X77360074Y-43044300D01*
X76993900Y-43410474D01*
X76706199Y-43841049D01*
X76629260Y-44026796D01*
X76629260Y-43613940D01*
X76785592Y-43379973D01*
X76918264Y-43059673D01*
X76985900Y-42719645D01*
X76985900Y-42372955D01*
X76918264Y-42032927D01*
X76785592Y-41712627D01*
X76592981Y-41424365D01*
X76347835Y-41179219D01*
X76059573Y-40986608D01*
X75739273Y-40853936D01*
X75399245Y-40786300D01*
X75052555Y-40786300D01*
X74712527Y-40853936D01*
X74392227Y-40986608D01*
X74103965Y-41179219D01*
X73858819Y-41424365D01*
X73666208Y-41712627D01*
X73533536Y-42032927D01*
X73465900Y-42372955D01*
X73465900Y-42719645D01*
X73533536Y-43059673D01*
X73666208Y-43379973D01*
X73798538Y-43578019D01*
X73515449Y-43634329D01*
X73240647Y-43748156D01*
X72993331Y-43913407D01*
X72783007Y-44123731D01*
X72617756Y-44371047D01*
X72503929Y-44645849D01*
X72445900Y-44937578D01*
X69319140Y-44937578D01*
X69319140Y-34656991D01*
X69356557Y-34619574D01*
X69469825Y-34450056D01*
X69547846Y-34261698D01*
X69587620Y-34061739D01*
X69587620Y-33857861D01*
X69547846Y-33657902D01*
X69469825Y-33469544D01*
X69356557Y-33300026D01*
X69212394Y-33155863D01*
X69042876Y-33042595D01*
X68854518Y-32964574D01*
X68654559Y-32924800D01*
X68465700Y-32924800D01*
X68465700Y-30460351D01*
X68507637Y-30418414D01*
X68620905Y-30248896D01*
X68698926Y-30060538D01*
X68738700Y-29860579D01*
X68738700Y-29661781D01*
X69688760Y-29661781D01*
X69688760Y-29865659D01*
X69728534Y-30065618D01*
X69806555Y-30253976D01*
X69919823Y-30423494D01*
X70063986Y-30567657D01*
X70233504Y-30680925D01*
X70421862Y-30758946D01*
X70621821Y-30798720D01*
X70681130Y-30798720D01*
X71610268Y-31727859D01*
X71610268Y-32332220D01*
X71622528Y-32456702D01*
X71658838Y-32576400D01*
X71717803Y-32686714D01*
X71797155Y-32783405D01*
X71893846Y-32862757D01*
X72004160Y-32921722D01*
X72123858Y-32958032D01*
X72248340Y-32970292D01*
X73148340Y-32970292D01*
X73272822Y-32958032D01*
X73392520Y-32921722D01*
X73502834Y-32862757D01*
X73599525Y-32783405D01*
X73678877Y-32686714D01*
X73737842Y-32576400D01*
X73774152Y-32456702D01*
X73786412Y-32332220D01*
X73786412Y-31132220D01*
X74910268Y-31132220D01*
X74910268Y-32332220D01*
X74922528Y-32456702D01*
X74958838Y-32576400D01*
X75017803Y-32686714D01*
X75097155Y-32783405D01*
X75193846Y-32862757D01*
X75236340Y-32885471D01*
X75236341Y-34391307D01*
X75232654Y-34428740D01*
X75247367Y-34578118D01*
X75290939Y-34721755D01*
X75361695Y-34854132D01*
X75397264Y-34897472D01*
X75456919Y-34970162D01*
X75485989Y-34994019D01*
X79913224Y-39421254D01*
X79883536Y-39492927D01*
X79815900Y-39832955D01*
X79815900Y-40179645D01*
X79883536Y-40519673D01*
X80016208Y-40839973D01*
X80208819Y-41128235D01*
X80453965Y-41373381D01*
X80742227Y-41565992D01*
X81062527Y-41698664D01*
X81402555Y-41766300D01*
X81749245Y-41766300D01*
X82089273Y-41698664D01*
X82409573Y-41565992D01*
X82697835Y-41373381D01*
X82942981Y-41128235D01*
X83135592Y-40839973D01*
X83268264Y-40519673D01*
X83335900Y-40179645D01*
X83335900Y-39832955D01*
X83268264Y-39492927D01*
X83135592Y-39172627D01*
X82942981Y-38884365D01*
X82697835Y-38639219D01*
X82409573Y-38446608D01*
X82089273Y-38313936D01*
X81749245Y-38246300D01*
X81402555Y-38246300D01*
X81062527Y-38313936D01*
X80990854Y-38343624D01*
X76760340Y-34113110D01*
X76760340Y-33862941D01*
X78949600Y-33862941D01*
X78949600Y-34066819D01*
X78989374Y-34266778D01*
X79067395Y-34455136D01*
X79180663Y-34624654D01*
X79324826Y-34768817D01*
X79494344Y-34882085D01*
X79682702Y-34960106D01*
X79882661Y-34999880D01*
X80086539Y-34999880D01*
X80286498Y-34960106D01*
X80474856Y-34882085D01*
X80644374Y-34768817D01*
X80788537Y-34624654D01*
X80901805Y-34455136D01*
X80979826Y-34266778D01*
X81019600Y-34066819D01*
X81019600Y-34007510D01*
X82056819Y-32970292D01*
X82696342Y-32970292D01*
X82820824Y-32958032D01*
X82940522Y-32921722D01*
X83050836Y-32862757D01*
X83147527Y-32783405D01*
X83226879Y-32686714D01*
X83285844Y-32576400D01*
X83322154Y-32456702D01*
X83334414Y-32332220D01*
X83334414Y-31132220D01*
X83322154Y-31007738D01*
X83285844Y-30888040D01*
X83226879Y-30777726D01*
X83147527Y-30681035D01*
X83050836Y-30601683D01*
X82940522Y-30542718D01*
X82820824Y-30506408D01*
X82696342Y-30494148D01*
X81796342Y-30494148D01*
X81671860Y-30506408D01*
X81552162Y-30542718D01*
X81441848Y-30601683D01*
X81345157Y-30681035D01*
X81265805Y-30777726D01*
X81206840Y-30888040D01*
X81170530Y-31007738D01*
X81158270Y-31132220D01*
X81158270Y-31713579D01*
X79941970Y-32929880D01*
X79882661Y-32929880D01*
X79682702Y-32969654D01*
X79494344Y-33047675D01*
X79324826Y-33160943D01*
X79180663Y-33305106D01*
X79067395Y-33474624D01*
X78989374Y-33662982D01*
X78949600Y-33862941D01*
X76760340Y-33862941D01*
X76760340Y-32885471D01*
X76802834Y-32862757D01*
X76899525Y-32783405D01*
X76978877Y-32686714D01*
X77037842Y-32576400D01*
X77074152Y-32456702D01*
X77086412Y-32332220D01*
X77086412Y-31132220D01*
X77074152Y-31007738D01*
X77037842Y-30888040D01*
X76978877Y-30777726D01*
X76899525Y-30681035D01*
X76802834Y-30601683D01*
X76692520Y-30542718D01*
X76572822Y-30506408D01*
X76448340Y-30494148D01*
X75548340Y-30494148D01*
X75423858Y-30506408D01*
X75304160Y-30542718D01*
X75193846Y-30601683D01*
X75097155Y-30681035D01*
X75017803Y-30777726D01*
X74958838Y-30888040D01*
X74922528Y-31007738D01*
X74910268Y-31132220D01*
X73786412Y-31132220D01*
X73774152Y-31007738D01*
X73737842Y-30888040D01*
X73678877Y-30777726D01*
X73599525Y-30681035D01*
X73502834Y-30601683D01*
X73392520Y-30542718D01*
X73272822Y-30506408D01*
X73148340Y-30494148D01*
X72531819Y-30494148D01*
X71758760Y-29721090D01*
X71758760Y-29661781D01*
X88814960Y-29661781D01*
X88814960Y-29865659D01*
X88854734Y-30065618D01*
X88932755Y-30253976D01*
X89046023Y-30423494D01*
X89190186Y-30567657D01*
X89359704Y-30680925D01*
X89548062Y-30758946D01*
X89748021Y-30798720D01*
X89807330Y-30798720D01*
X90706272Y-31697663D01*
X90706272Y-32332220D01*
X90718532Y-32456702D01*
X90754842Y-32576400D01*
X90813807Y-32686714D01*
X90893159Y-32783405D01*
X90989850Y-32862757D01*
X91100164Y-32921722D01*
X91219862Y-32958032D01*
X91344344Y-32970292D01*
X92244344Y-32970292D01*
X92368826Y-32958032D01*
X92488524Y-32921722D01*
X92598838Y-32862757D01*
X92695529Y-32783405D01*
X92774881Y-32686714D01*
X92833846Y-32576400D01*
X92870156Y-32456702D01*
X92882416Y-32332220D01*
X92882416Y-31132220D01*
X94006272Y-31132220D01*
X94006272Y-32332220D01*
X94018532Y-32456702D01*
X94054842Y-32576400D01*
X94113807Y-32686714D01*
X94193159Y-32783405D01*
X94289850Y-32862757D01*
X94332344Y-32885471D01*
X94332345Y-34437311D01*
X94328658Y-34474744D01*
X94343371Y-34624122D01*
X94386943Y-34767759D01*
X94457699Y-34900136D01*
X94523024Y-34979734D01*
X94552923Y-35016166D01*
X94581993Y-35040023D01*
X98963224Y-39421254D01*
X98933536Y-39492927D01*
X98865900Y-39832955D01*
X98865900Y-40179645D01*
X98933536Y-40519673D01*
X99066208Y-40839973D01*
X99258819Y-41128235D01*
X99503965Y-41373381D01*
X99792227Y-41565992D01*
X100112527Y-41698664D01*
X100452555Y-41766300D01*
X100799245Y-41766300D01*
X101139273Y-41698664D01*
X101459573Y-41565992D01*
X101747835Y-41373381D01*
X101992981Y-41128235D01*
X102185592Y-40839973D01*
X102318264Y-40519673D01*
X102385900Y-40179645D01*
X102385900Y-39832955D01*
X102318264Y-39492927D01*
X102185592Y-39172627D01*
X101992981Y-38884365D01*
X101747835Y-38639219D01*
X101459573Y-38446608D01*
X101139273Y-38313936D01*
X100799245Y-38246300D01*
X100452555Y-38246300D01*
X100112527Y-38313936D01*
X100040854Y-38343624D01*
X95856344Y-34159114D01*
X95856344Y-33862941D01*
X98052940Y-33862941D01*
X98052940Y-34066819D01*
X98092714Y-34266778D01*
X98170735Y-34455136D01*
X98284003Y-34624654D01*
X98428166Y-34768817D01*
X98597684Y-34882085D01*
X98786042Y-34960106D01*
X98986001Y-34999880D01*
X99189879Y-34999880D01*
X99389838Y-34960106D01*
X99578196Y-34882085D01*
X99747714Y-34768817D01*
X99891877Y-34624654D01*
X100005145Y-34455136D01*
X100083166Y-34266778D01*
X100122940Y-34066819D01*
X100122940Y-34007510D01*
X101160159Y-32970292D01*
X101792346Y-32970292D01*
X101916828Y-32958032D01*
X102036526Y-32921722D01*
X102146840Y-32862757D01*
X102243531Y-32783405D01*
X102322883Y-32686714D01*
X102381848Y-32576400D01*
X102418158Y-32456702D01*
X102430418Y-32332220D01*
X102430418Y-31132220D01*
X102418158Y-31007738D01*
X102381848Y-30888040D01*
X102322883Y-30777726D01*
X102243531Y-30681035D01*
X102146840Y-30601683D01*
X102036526Y-30542718D01*
X101916828Y-30506408D01*
X101792346Y-30494148D01*
X100892346Y-30494148D01*
X100767864Y-30506408D01*
X100648166Y-30542718D01*
X100537852Y-30601683D01*
X100441161Y-30681035D01*
X100361809Y-30777726D01*
X100302844Y-30888040D01*
X100266534Y-31007738D01*
X100254274Y-31132220D01*
X100254274Y-31720915D01*
X99045310Y-32929880D01*
X98986001Y-32929880D01*
X98786042Y-32969654D01*
X98597684Y-33047675D01*
X98428166Y-33160943D01*
X98284003Y-33305106D01*
X98170735Y-33474624D01*
X98092714Y-33662982D01*
X98052940Y-33862941D01*
X95856344Y-33862941D01*
X95856344Y-32885471D01*
X95898838Y-32862757D01*
X95995529Y-32783405D01*
X96074881Y-32686714D01*
X96133846Y-32576400D01*
X96170156Y-32456702D01*
X96182416Y-32332220D01*
X96182416Y-31132220D01*
X96170156Y-31007738D01*
X96133846Y-30888040D01*
X96074881Y-30777726D01*
X95995529Y-30681035D01*
X95898838Y-30601683D01*
X95788524Y-30542718D01*
X95668826Y-30506408D01*
X95544344Y-30494148D01*
X94644344Y-30494148D01*
X94519862Y-30506408D01*
X94400164Y-30542718D01*
X94289850Y-30601683D01*
X94193159Y-30681035D01*
X94113807Y-30777726D01*
X94054842Y-30888040D01*
X94018532Y-31007738D01*
X94006272Y-31132220D01*
X92882416Y-31132220D01*
X92870156Y-31007738D01*
X92833846Y-30888040D01*
X92774881Y-30777726D01*
X92695529Y-30681035D01*
X92598838Y-30601683D01*
X92488524Y-30542718D01*
X92368826Y-30506408D01*
X92244344Y-30494148D01*
X91658019Y-30494148D01*
X90884960Y-29721090D01*
X90884960Y-29661781D01*
X107885280Y-29661781D01*
X107885280Y-29865659D01*
X107925054Y-30065618D01*
X108003075Y-30253976D01*
X108116343Y-30423494D01*
X108260506Y-30567657D01*
X108430024Y-30680925D01*
X108618382Y-30758946D01*
X108818341Y-30798720D01*
X108877650Y-30798720D01*
X109802276Y-31723347D01*
X109802276Y-32332220D01*
X109814536Y-32456702D01*
X109850846Y-32576400D01*
X109909811Y-32686714D01*
X109989163Y-32783405D01*
X110085854Y-32862757D01*
X110196168Y-32921722D01*
X110315866Y-32958032D01*
X110440348Y-32970292D01*
X111340348Y-32970292D01*
X111464830Y-32958032D01*
X111584528Y-32921722D01*
X111694842Y-32862757D01*
X111791533Y-32783405D01*
X111870885Y-32686714D01*
X111929850Y-32576400D01*
X111966160Y-32456702D01*
X111978420Y-32332220D01*
X111978420Y-31132220D01*
X113102276Y-31132220D01*
X113102276Y-32332220D01*
X113114536Y-32456702D01*
X113150846Y-32576400D01*
X113209811Y-32686714D01*
X113289163Y-32783405D01*
X113385854Y-32862757D01*
X113428348Y-32885471D01*
X113428349Y-34483315D01*
X113424662Y-34520748D01*
X113439375Y-34670126D01*
X113482947Y-34813763D01*
X113553703Y-34946140D01*
X113625069Y-35033099D01*
X113648927Y-35062170D01*
X113677997Y-35086027D01*
X118013224Y-39421254D01*
X117983536Y-39492927D01*
X117915900Y-39832955D01*
X117915900Y-40179645D01*
X117983536Y-40519673D01*
X118116208Y-40839973D01*
X118308819Y-41128235D01*
X118553965Y-41373381D01*
X118842227Y-41565992D01*
X119162527Y-41698664D01*
X119502555Y-41766300D01*
X119849245Y-41766300D01*
X120189273Y-41698664D01*
X120509573Y-41565992D01*
X120797835Y-41373381D01*
X121042981Y-41128235D01*
X121235592Y-40839973D01*
X121368264Y-40519673D01*
X121435900Y-40179645D01*
X121435900Y-39832955D01*
X121368264Y-39492927D01*
X121235592Y-39172627D01*
X121042981Y-38884365D01*
X120797835Y-38639219D01*
X120509573Y-38446608D01*
X120189273Y-38313936D01*
X119849245Y-38246300D01*
X119502555Y-38246300D01*
X119162527Y-38313936D01*
X119090854Y-38343624D01*
X114952348Y-34205118D01*
X114952348Y-33862941D01*
X117181680Y-33862941D01*
X117181680Y-34066819D01*
X117221454Y-34266778D01*
X117299475Y-34455136D01*
X117412743Y-34624654D01*
X117556906Y-34768817D01*
X117726424Y-34882085D01*
X117914782Y-34960106D01*
X118114741Y-34999880D01*
X118318619Y-34999880D01*
X118518578Y-34960106D01*
X118706936Y-34882085D01*
X118876454Y-34768817D01*
X119020617Y-34624654D01*
X119133885Y-34455136D01*
X119211906Y-34266778D01*
X119251680Y-34066819D01*
X119251680Y-34007510D01*
X120288899Y-32970292D01*
X120888350Y-32970292D01*
X121012832Y-32958032D01*
X121132530Y-32921722D01*
X121242844Y-32862757D01*
X121339535Y-32783405D01*
X121418887Y-32686714D01*
X121477852Y-32576400D01*
X121514162Y-32456702D01*
X121526422Y-32332220D01*
X121526422Y-31132220D01*
X121514162Y-31007738D01*
X121477852Y-30888040D01*
X121418887Y-30777726D01*
X121339535Y-30681035D01*
X121242844Y-30601683D01*
X121132530Y-30542718D01*
X121012832Y-30506408D01*
X120888350Y-30494148D01*
X119988350Y-30494148D01*
X119863868Y-30506408D01*
X119744170Y-30542718D01*
X119633856Y-30601683D01*
X119537165Y-30681035D01*
X119457813Y-30777726D01*
X119398848Y-30888040D01*
X119362538Y-31007738D01*
X119350278Y-31132220D01*
X119350278Y-31753651D01*
X118174050Y-32929880D01*
X118114741Y-32929880D01*
X117914782Y-32969654D01*
X117726424Y-33047675D01*
X117556906Y-33160943D01*
X117412743Y-33305106D01*
X117299475Y-33474624D01*
X117221454Y-33662982D01*
X117181680Y-33862941D01*
X114952348Y-33862941D01*
X114952348Y-32885471D01*
X114994842Y-32862757D01*
X115091533Y-32783405D01*
X115170885Y-32686714D01*
X115229850Y-32576400D01*
X115266160Y-32456702D01*
X115278420Y-32332220D01*
X115278420Y-31132220D01*
X115266160Y-31007738D01*
X115229850Y-30888040D01*
X115170885Y-30777726D01*
X115091533Y-30681035D01*
X114994842Y-30601683D01*
X114884528Y-30542718D01*
X114764830Y-30506408D01*
X114640348Y-30494148D01*
X113740348Y-30494148D01*
X113615866Y-30506408D01*
X113496168Y-30542718D01*
X113385854Y-30601683D01*
X113289163Y-30681035D01*
X113209811Y-30777726D01*
X113150846Y-30888040D01*
X113114536Y-31007738D01*
X113102276Y-31132220D01*
X111978420Y-31132220D01*
X111966160Y-31007738D01*
X111929850Y-30888040D01*
X111870885Y-30777726D01*
X111791533Y-30681035D01*
X111694842Y-30601683D01*
X111584528Y-30542718D01*
X111464830Y-30506408D01*
X111340348Y-30494148D01*
X110728339Y-30494148D01*
X109955280Y-29721090D01*
X109955280Y-29661781D01*
X109954775Y-29659241D01*
X126899720Y-29659241D01*
X126899720Y-29863119D01*
X126939494Y-30063078D01*
X127017515Y-30251436D01*
X127130783Y-30420954D01*
X127274946Y-30565117D01*
X127444464Y-30678385D01*
X127632822Y-30756406D01*
X127832781Y-30796180D01*
X127972682Y-30796180D01*
X128898280Y-31721779D01*
X128898280Y-32332220D01*
X128910540Y-32456702D01*
X128946850Y-32576400D01*
X129005815Y-32686714D01*
X129085167Y-32783405D01*
X129181858Y-32862757D01*
X129292172Y-32921722D01*
X129411870Y-32958032D01*
X129536352Y-32970292D01*
X130436352Y-32970292D01*
X130560834Y-32958032D01*
X130680532Y-32921722D01*
X130790846Y-32862757D01*
X130887537Y-32783405D01*
X130966889Y-32686714D01*
X131025854Y-32576400D01*
X131062164Y-32456702D01*
X131074424Y-32332220D01*
X131074424Y-31132220D01*
X132198280Y-31132220D01*
X132198280Y-32332220D01*
X132210540Y-32456702D01*
X132246850Y-32576400D01*
X132305815Y-32686714D01*
X132385167Y-32783405D01*
X132481858Y-32862757D01*
X132524352Y-32885471D01*
X132524353Y-34529319D01*
X132520666Y-34566752D01*
X132535379Y-34716130D01*
X132578951Y-34859767D01*
X132649707Y-34992144D01*
X132709815Y-35065385D01*
X132744931Y-35108174D01*
X132774001Y-35132031D01*
X137063224Y-39421254D01*
X137033536Y-39492927D01*
X136965900Y-39832955D01*
X136965900Y-40179645D01*
X137033536Y-40519673D01*
X137166208Y-40839973D01*
X137358819Y-41128235D01*
X137603965Y-41373381D01*
X137892227Y-41565992D01*
X138212527Y-41698664D01*
X138552555Y-41766300D01*
X138899245Y-41766300D01*
X139239273Y-41698664D01*
X139559573Y-41565992D01*
X139847835Y-41373381D01*
X140092981Y-41128235D01*
X140285592Y-40839973D01*
X140418264Y-40519673D01*
X140485900Y-40179645D01*
X140485900Y-39832955D01*
X140418264Y-39492927D01*
X140285592Y-39172627D01*
X140092981Y-38884365D01*
X139847835Y-38639219D01*
X139559573Y-38446608D01*
X139239273Y-38313936D01*
X138899245Y-38246300D01*
X138552555Y-38246300D01*
X138212527Y-38313936D01*
X138140854Y-38343624D01*
X134048352Y-34251122D01*
X134048352Y-33862941D01*
X136102140Y-33862941D01*
X136102140Y-34066819D01*
X136141914Y-34266778D01*
X136219935Y-34455136D01*
X136333203Y-34624654D01*
X136477366Y-34768817D01*
X136646884Y-34882085D01*
X136835242Y-34960106D01*
X137035201Y-34999880D01*
X137239079Y-34999880D01*
X137439038Y-34960106D01*
X137627396Y-34882085D01*
X137796914Y-34768817D01*
X137941077Y-34624654D01*
X138054345Y-34455136D01*
X138132366Y-34266778D01*
X138172140Y-34066819D01*
X138172140Y-34007510D01*
X139209359Y-32970292D01*
X139984360Y-32970292D01*
X140108842Y-32958032D01*
X140228540Y-32921722D01*
X140338854Y-32862757D01*
X140435545Y-32783405D01*
X140514897Y-32686714D01*
X140573862Y-32576400D01*
X140610172Y-32456702D01*
X140622432Y-32332220D01*
X140622432Y-31132220D01*
X140610172Y-31007738D01*
X140573862Y-30888040D01*
X140514897Y-30777726D01*
X140435545Y-30681035D01*
X140338854Y-30601683D01*
X140228540Y-30542718D01*
X140108842Y-30506408D01*
X139984360Y-30494148D01*
X139084360Y-30494148D01*
X138959878Y-30506408D01*
X138840180Y-30542718D01*
X138729866Y-30601683D01*
X138633175Y-30681035D01*
X138553823Y-30777726D01*
X138494858Y-30888040D01*
X138458548Y-31007738D01*
X138446288Y-31132220D01*
X138446288Y-31578101D01*
X137094510Y-32929880D01*
X137035201Y-32929880D01*
X136835242Y-32969654D01*
X136646884Y-33047675D01*
X136477366Y-33160943D01*
X136333203Y-33305106D01*
X136219935Y-33474624D01*
X136141914Y-33662982D01*
X136102140Y-33862941D01*
X134048352Y-33862941D01*
X134048352Y-32885471D01*
X134090846Y-32862757D01*
X134187537Y-32783405D01*
X134266889Y-32686714D01*
X134325854Y-32576400D01*
X134362164Y-32456702D01*
X134374424Y-32332220D01*
X134374424Y-31132220D01*
X134362164Y-31007738D01*
X134325854Y-30888040D01*
X134266889Y-30777726D01*
X134187537Y-30681035D01*
X134090846Y-30601683D01*
X133980532Y-30542718D01*
X133860834Y-30506408D01*
X133736352Y-30494148D01*
X132836352Y-30494148D01*
X132711870Y-30506408D01*
X132592172Y-30542718D01*
X132481858Y-30601683D01*
X132385167Y-30681035D01*
X132305815Y-30777726D01*
X132246850Y-30888040D01*
X132210540Y-31007738D01*
X132198280Y-31132220D01*
X131074424Y-31132220D01*
X131062164Y-31007738D01*
X131025854Y-30888040D01*
X130966889Y-30777726D01*
X130887537Y-30681035D01*
X130790846Y-30601683D01*
X130680532Y-30542718D01*
X130560834Y-30506408D01*
X130436352Y-30494148D01*
X129825911Y-30494148D01*
X129332448Y-30000685D01*
X147066400Y-30000685D01*
X147066400Y-30756115D01*
X147213777Y-31497028D01*
X147502867Y-32194954D01*
X147922561Y-32823070D01*
X148456730Y-33357239D01*
X149084846Y-33776933D01*
X149782772Y-34066023D01*
X150523685Y-34213400D01*
X151279115Y-34213400D01*
X152020028Y-34066023D01*
X152717954Y-33776933D01*
X153346070Y-33357239D01*
X153880239Y-32823070D01*
X154299933Y-32194954D01*
X154589023Y-31497028D01*
X154736400Y-30756115D01*
X154736400Y-30000685D01*
X154589023Y-29259772D01*
X154299933Y-28561846D01*
X153880239Y-27933730D01*
X153346070Y-27399561D01*
X152717954Y-26979867D01*
X152020028Y-26690777D01*
X151279115Y-26543400D01*
X150523685Y-26543400D01*
X149782772Y-26690777D01*
X149084846Y-26979867D01*
X148456730Y-27399561D01*
X147922561Y-27933730D01*
X147502867Y-28561846D01*
X147213777Y-29259772D01*
X147066400Y-30000685D01*
X129332448Y-30000685D01*
X128964435Y-29632673D01*
X128929946Y-29459282D01*
X128851925Y-29270924D01*
X128738657Y-29101406D01*
X128594494Y-28957243D01*
X128424976Y-28843975D01*
X128236618Y-28765954D01*
X128036659Y-28726180D01*
X127832781Y-28726180D01*
X127632822Y-28765954D01*
X127444464Y-28843975D01*
X127274946Y-28957243D01*
X127130783Y-29101406D01*
X127017515Y-29270924D01*
X126939494Y-29459282D01*
X126899720Y-29659241D01*
X109954775Y-29659241D01*
X109915506Y-29461822D01*
X109837485Y-29273464D01*
X109724217Y-29103946D01*
X109580054Y-28959783D01*
X109410536Y-28846515D01*
X109222178Y-28768494D01*
X109022219Y-28728720D01*
X108818341Y-28728720D01*
X108618382Y-28768494D01*
X108430024Y-28846515D01*
X108260506Y-28959783D01*
X108116343Y-29103946D01*
X108003075Y-29273464D01*
X107925054Y-29461822D01*
X107885280Y-29661781D01*
X90884960Y-29661781D01*
X90845186Y-29461822D01*
X90767165Y-29273464D01*
X90653897Y-29103946D01*
X90509734Y-28959783D01*
X90340216Y-28846515D01*
X90151858Y-28768494D01*
X89951899Y-28728720D01*
X89748021Y-28728720D01*
X89548062Y-28768494D01*
X89359704Y-28846515D01*
X89190186Y-28959783D01*
X89046023Y-29103946D01*
X88932755Y-29273464D01*
X88854734Y-29461822D01*
X88814960Y-29661781D01*
X71758760Y-29661781D01*
X71718986Y-29461822D01*
X71640965Y-29273464D01*
X71527697Y-29103946D01*
X71383534Y-28959783D01*
X71214016Y-28846515D01*
X71025658Y-28768494D01*
X70825699Y-28728720D01*
X70621821Y-28728720D01*
X70421862Y-28768494D01*
X70233504Y-28846515D01*
X70063986Y-28959783D01*
X69919823Y-29103946D01*
X69806555Y-29273464D01*
X69728534Y-29461822D01*
X69688760Y-29661781D01*
X68738700Y-29661781D01*
X68738700Y-29656701D01*
X68698926Y-29456742D01*
X68620905Y-29268384D01*
X68507637Y-29098866D01*
X68363474Y-28954703D01*
X68193956Y-28841435D01*
X68005598Y-28763414D01*
X67805639Y-28723640D01*
X67601761Y-28723640D01*
X67401802Y-28763414D01*
X67213444Y-28841435D01*
X67043926Y-28954703D01*
X66899763Y-29098866D01*
X66786495Y-29268384D01*
X66708474Y-29456742D01*
X66668700Y-29656701D01*
X66668700Y-29860579D01*
X66708474Y-30060538D01*
X66786495Y-30248896D01*
X66899763Y-30418414D01*
X66941701Y-30460352D01*
X66941700Y-44474730D01*
X65647789Y-45768641D01*
X65650472Y-45741400D01*
X65650472Y-45241400D01*
X65633408Y-45068146D01*
X65582872Y-44901550D01*
X65500805Y-44748014D01*
X65390362Y-44613438D01*
X65383806Y-44608058D01*
X65463585Y-44542585D01*
X65542937Y-44445894D01*
X65601902Y-44335580D01*
X65638212Y-44215882D01*
X65650472Y-44091400D01*
X65647400Y-43877150D01*
X65488650Y-43718400D01*
X64414400Y-43718400D01*
X64414400Y-43738400D01*
X64160400Y-43738400D01*
X64160400Y-43718400D01*
X64140400Y-43718400D01*
X64140400Y-43464400D01*
X64160400Y-43464400D01*
X64160400Y-42615150D01*
X64414400Y-42615150D01*
X64414400Y-43464400D01*
X65488650Y-43464400D01*
X65647400Y-43305650D01*
X65650472Y-43091400D01*
X65638212Y-42966918D01*
X65601902Y-42847220D01*
X65542937Y-42736906D01*
X65463585Y-42640215D01*
X65366894Y-42560863D01*
X65256580Y-42501898D01*
X65136882Y-42465588D01*
X65012400Y-42453328D01*
X64573150Y-42456400D01*
X64414400Y-42615150D01*
X64160400Y-42615150D01*
X64001650Y-42456400D01*
X63562400Y-42453328D01*
X63437918Y-42465588D01*
X63318220Y-42501898D01*
X63207906Y-42560863D01*
X63111215Y-42640215D01*
X63031863Y-42736906D01*
X63025582Y-42748657D01*
X63003162Y-42721338D01*
X62868587Y-42610895D01*
X62715051Y-42528828D01*
X62687200Y-42520380D01*
X62687200Y-42385935D01*
X62894210Y-42384400D01*
X63052960Y-42225650D01*
X63052960Y-41363900D01*
X63306960Y-41363900D01*
X63306960Y-42225650D01*
X63465710Y-42384400D01*
X63879960Y-42387472D01*
X64004442Y-42375212D01*
X64124140Y-42338902D01*
X64234454Y-42279937D01*
X64331145Y-42200585D01*
X64410497Y-42103894D01*
X64469462Y-41993580D01*
X64505772Y-41873882D01*
X64518032Y-41749400D01*
X64514960Y-41522650D01*
X64356210Y-41363900D01*
X63306960Y-41363900D01*
X63052960Y-41363900D01*
X63032960Y-41363900D01*
X63032960Y-41109900D01*
X63052960Y-41109900D01*
X63052960Y-41089900D01*
X63306960Y-41089900D01*
X63306960Y-41109900D01*
X64356210Y-41109900D01*
X64514960Y-40951150D01*
X64518032Y-40724400D01*
X64505772Y-40599918D01*
X64469462Y-40480220D01*
X64410497Y-40369906D01*
X64331145Y-40273215D01*
X64301684Y-40249037D01*
X64368365Y-40167787D01*
X64450432Y-40014251D01*
X64500968Y-39847655D01*
X64518032Y-39674401D01*
X64518032Y-39149399D01*
X64500968Y-38976145D01*
X64450432Y-38809549D01*
X64368365Y-38656013D01*
X64257922Y-38521438D01*
X64123347Y-38410995D01*
X63969811Y-38328928D01*
X63803215Y-38278392D01*
X63629961Y-38261328D01*
X62943178Y-38261328D01*
X62924400Y-38242550D01*
X62924400Y-36666201D01*
X63104124Y-36740646D01*
X63304083Y-36780420D01*
X63507961Y-36780420D01*
X63707920Y-36740646D01*
X63896278Y-36662625D01*
X64065796Y-36549357D01*
X64209959Y-36405194D01*
X64323227Y-36235676D01*
X64401248Y-36047318D01*
X64441022Y-35847359D01*
X64441022Y-35643481D01*
X64401248Y-35443522D01*
X64323227Y-35255164D01*
X64209959Y-35085646D01*
X64168022Y-35043709D01*
X64168022Y-34894400D01*
X64289402Y-34894400D01*
X64289402Y-34735652D01*
X64448150Y-34894400D01*
X64462400Y-34897472D01*
X64586882Y-34885212D01*
X64706580Y-34848902D01*
X64816894Y-34789937D01*
X64913585Y-34710585D01*
X64992937Y-34613894D01*
X65051902Y-34503580D01*
X65088212Y-34383882D01*
X65100472Y-34259400D01*
X65099647Y-34141504D01*
X65105400Y-34137354D01*
X65105400Y-32746400D01*
X65359400Y-32746400D01*
X65359400Y-34137354D01*
X65534274Y-34263519D01*
X65757376Y-34183676D01*
X65945164Y-34061769D01*
X66105561Y-33905569D01*
X66232403Y-33721078D01*
X66320815Y-33515387D01*
X66367400Y-33296400D01*
X66367400Y-32746400D01*
X65359400Y-32746400D01*
X65105400Y-32746400D01*
X65094267Y-32746400D01*
X65088212Y-32684918D01*
X65085400Y-32675648D01*
X65085400Y-32492400D01*
X65105400Y-32492400D01*
X65105400Y-31101446D01*
X65359400Y-31101446D01*
X65359400Y-32492400D01*
X66367400Y-32492400D01*
X66367400Y-31942400D01*
X66320815Y-31723413D01*
X66232403Y-31517722D01*
X66105561Y-31333231D01*
X65945164Y-31177031D01*
X65757376Y-31055124D01*
X65534274Y-30975281D01*
X65359400Y-31101446D01*
X65105400Y-31101446D01*
X64930526Y-30975281D01*
X64707424Y-31055124D01*
X64519636Y-31177031D01*
X64375284Y-31317606D01*
X64257131Y-31238659D01*
X64082422Y-31166292D01*
X63896952Y-31129400D01*
X63707848Y-31129400D01*
X63522378Y-31166292D01*
X63347669Y-31238659D01*
X63190436Y-31343719D01*
X63056719Y-31477436D01*
X62951659Y-31634669D01*
X62879292Y-31809378D01*
X62842400Y-31994848D01*
X62842400Y-32174283D01*
X62812400Y-32171328D01*
X62512400Y-32171328D01*
X62412400Y-32181177D01*
X62312928Y-32171380D01*
X62299045Y-32145406D01*
X62203822Y-32029376D01*
X62174747Y-32005515D01*
X62139285Y-31970053D01*
X62115423Y-31940977D01*
X61999393Y-31845754D01*
X61867016Y-31774997D01*
X61723379Y-31731425D01*
X61611427Y-31720399D01*
X61611424Y-31720399D01*
X61574001Y-31716713D01*
X61536578Y-31720399D01*
X60788221Y-31720399D01*
X60750798Y-31716713D01*
X60713375Y-31720399D01*
X60713373Y-31720399D01*
X60601421Y-31731425D01*
X60457784Y-31774997D01*
X60325407Y-31845754D01*
X60209377Y-31940977D01*
X60185515Y-31970053D01*
X60150049Y-32005519D01*
X60120979Y-32029376D01*
X60097122Y-32058446D01*
X60097121Y-32058447D01*
X60025755Y-32145406D01*
X60011872Y-32171380D01*
X59912400Y-32181177D01*
X59812400Y-32171328D01*
X59512400Y-32171328D01*
X59412400Y-32181177D01*
X59312400Y-32171328D01*
X59012400Y-32171328D01*
X58982400Y-32174283D01*
X58982400Y-31994848D01*
X58945508Y-31809378D01*
X58873141Y-31634669D01*
X58768081Y-31477436D01*
X58634364Y-31343719D01*
X58477131Y-31238659D01*
X58302422Y-31166292D01*
X58116952Y-31129400D01*
X57927848Y-31129400D01*
X57742378Y-31166292D01*
X57567669Y-31238659D01*
X57449516Y-31317606D01*
X57305164Y-31177031D01*
X57117376Y-31055124D01*
X56894274Y-30975281D01*
X56719400Y-31101446D01*
X56719400Y-32492400D01*
X56739400Y-32492400D01*
X56739400Y-32675648D01*
X56736588Y-32684918D01*
X56730533Y-32746400D01*
X56719400Y-32746400D01*
X56719400Y-34137354D01*
X56725153Y-34141504D01*
X56724328Y-34259400D01*
X56736588Y-34383882D01*
X56772898Y-34503580D01*
X56831863Y-34613894D01*
X56911215Y-34710585D01*
X57007906Y-34789937D01*
X57118220Y-34848902D01*
X57237918Y-34885212D01*
X57362400Y-34897472D01*
X57376650Y-34894400D01*
X57535400Y-34735650D01*
X57535400Y-34371820D01*
X57536588Y-34383882D01*
X57572898Y-34503580D01*
X57631863Y-34613894D01*
X57711215Y-34710585D01*
X57721503Y-34719029D01*
X57721503Y-34993706D01*
X57629566Y-35085643D01*
X57516298Y-35255161D01*
X57438277Y-35443519D01*
X57398503Y-35643478D01*
X57398503Y-35752786D01*
X52757831Y-40393459D01*
X52728761Y-40417316D01*
X52704904Y-40446386D01*
X52704903Y-40446387D01*
X52633537Y-40533346D01*
X52562781Y-40665723D01*
X52519209Y-40809360D01*
X52504496Y-40958738D01*
X52508183Y-40996171D01*
X52508182Y-43719148D01*
X51935113Y-44292217D01*
X51824670Y-44426793D01*
X51742603Y-44580329D01*
X51692067Y-44746925D01*
X51675003Y-44920179D01*
X42526477Y-44920179D01*
X42526755Y-30000685D01*
X42693800Y-30000685D01*
X42693800Y-30756115D01*
X42841177Y-31497028D01*
X43130267Y-32194954D01*
X43549961Y-32823070D01*
X44084130Y-33357239D01*
X44712246Y-33776933D01*
X45410172Y-34066023D01*
X46151085Y-34213400D01*
X46906515Y-34213400D01*
X47647428Y-34066023D01*
X48345354Y-33776933D01*
X48973470Y-33357239D01*
X49507639Y-32823070D01*
X49558868Y-32746400D01*
X55457400Y-32746400D01*
X55457400Y-33296400D01*
X55503985Y-33515387D01*
X55592397Y-33721078D01*
X55719239Y-33905569D01*
X55879636Y-34061769D01*
X56067424Y-34183676D01*
X56290526Y-34263519D01*
X56465400Y-34137354D01*
X56465400Y-32746400D01*
X55457400Y-32746400D01*
X49558868Y-32746400D01*
X49927333Y-32194954D01*
X50031944Y-31942400D01*
X55457400Y-31942400D01*
X55457400Y-32492400D01*
X56465400Y-32492400D01*
X56465400Y-31101446D01*
X56290526Y-30975281D01*
X56067424Y-31055124D01*
X55879636Y-31177031D01*
X55719239Y-31333231D01*
X55592397Y-31517722D01*
X55503985Y-31723413D01*
X55457400Y-31942400D01*
X50031944Y-31942400D01*
X50216423Y-31497028D01*
X50363800Y-30756115D01*
X50363800Y-30000685D01*
X50216423Y-29259772D01*
X49929220Y-28566400D01*
X55457400Y-28566400D01*
X55457400Y-28866400D01*
X55503985Y-29085387D01*
X55592397Y-29291078D01*
X55719239Y-29475569D01*
X55879636Y-29631769D01*
X56067424Y-29753676D01*
X56290526Y-29833519D01*
X56465400Y-29707354D01*
X56465400Y-28566400D01*
X56719400Y-28566400D01*
X56719400Y-29707354D01*
X56894274Y-29833519D01*
X57117376Y-29753676D01*
X57305164Y-29631769D01*
X57465561Y-29475569D01*
X57592403Y-29291078D01*
X57680815Y-29085387D01*
X57727400Y-28866400D01*
X57727400Y-28566400D01*
X64097400Y-28566400D01*
X64097400Y-28866400D01*
X64143985Y-29085387D01*
X64232397Y-29291078D01*
X64359239Y-29475569D01*
X64519636Y-29631769D01*
X64707424Y-29753676D01*
X64930526Y-29833519D01*
X65105400Y-29707354D01*
X65105400Y-28566400D01*
X65359400Y-28566400D01*
X65359400Y-29707354D01*
X65534274Y-29833519D01*
X65757376Y-29753676D01*
X65945164Y-29631769D01*
X66105561Y-29475569D01*
X66232403Y-29291078D01*
X66320815Y-29085387D01*
X66367400Y-28866400D01*
X66367400Y-28566400D01*
X65359400Y-28566400D01*
X65105400Y-28566400D01*
X64097400Y-28566400D01*
X57727400Y-28566400D01*
X56719400Y-28566400D01*
X56465400Y-28566400D01*
X55457400Y-28566400D01*
X49929220Y-28566400D01*
X49927333Y-28561846D01*
X49560205Y-28012400D01*
X55457400Y-28012400D01*
X55457400Y-28312400D01*
X56465400Y-28312400D01*
X56465400Y-27171446D01*
X56719400Y-27171446D01*
X56719400Y-28312400D01*
X57727400Y-28312400D01*
X57727400Y-28012400D01*
X64097400Y-28012400D01*
X64097400Y-28312400D01*
X65105400Y-28312400D01*
X65105400Y-27171446D01*
X65359400Y-27171446D01*
X65359400Y-28312400D01*
X66367400Y-28312400D01*
X66367400Y-28012400D01*
X66320815Y-27793413D01*
X66232403Y-27587722D01*
X66105561Y-27403231D01*
X65945164Y-27247031D01*
X65757376Y-27125124D01*
X65534274Y-27045281D01*
X65359400Y-27171446D01*
X65105400Y-27171446D01*
X64930526Y-27045281D01*
X64707424Y-27125124D01*
X64519636Y-27247031D01*
X64359239Y-27403231D01*
X64232397Y-27587722D01*
X64143985Y-27793413D01*
X64097400Y-28012400D01*
X57727400Y-28012400D01*
X57680815Y-27793413D01*
X57592403Y-27587722D01*
X57465561Y-27403231D01*
X57305164Y-27247031D01*
X57117376Y-27125124D01*
X56894274Y-27045281D01*
X56719400Y-27171446D01*
X56465400Y-27171446D01*
X56290526Y-27045281D01*
X56067424Y-27125124D01*
X55879636Y-27247031D01*
X55719239Y-27403231D01*
X55592397Y-27587722D01*
X55503985Y-27793413D01*
X55457400Y-28012400D01*
X49560205Y-28012400D01*
X49507639Y-27933730D01*
X48973470Y-27399561D01*
X48345354Y-26979867D01*
X47647428Y-26690777D01*
X46906515Y-26543400D01*
X46151085Y-26543400D01*
X45410172Y-26690777D01*
X44712246Y-26979867D01*
X44084130Y-27399561D01*
X43549961Y-27933730D01*
X43130267Y-28561846D01*
X42841177Y-29259772D01*
X42693800Y-30000685D01*
X42526755Y-30000685D01*
X42526823Y-26373900D01*
X154893201Y-26373900D01*
X154893200Y-82792760D01*
G37*
%TD.AperFunction*%
D25*
X62195815Y-49756985D02*
X62292506Y-49836337D01*
X62315667Y-49848717D01*
X62407750Y-49940800D01*
X62521380Y-49931267D01*
X62522518Y-49931612D01*
X62647000Y-49943872D01*
X63197000Y-49943872D01*
X63321482Y-49931612D01*
X63322000Y-49931455D01*
X63322518Y-49931612D01*
X63447000Y-49943872D01*
X63997000Y-49943872D01*
X64121482Y-49931612D01*
X64122000Y-49931455D01*
X64122518Y-49931612D01*
X64247000Y-49943872D01*
X64533928Y-49943872D01*
X64533928Y-50230800D01*
X64546188Y-50355282D01*
X64546345Y-50355800D01*
X64546188Y-50356318D01*
X64533928Y-50480800D01*
X64533928Y-51030800D01*
X64546188Y-51155282D01*
X64546345Y-51155800D01*
X64546188Y-51156318D01*
X64533928Y-51280800D01*
X64533928Y-51830800D01*
X64546188Y-51955282D01*
X64546345Y-51955800D01*
X64546188Y-51956318D01*
X64533928Y-52080800D01*
X64533928Y-52630800D01*
X64546188Y-52755282D01*
X64546345Y-52755800D01*
X64546188Y-52756318D01*
X64533928Y-52880800D01*
X64533928Y-53430800D01*
X64546188Y-53555282D01*
X64546345Y-53555800D01*
X64546188Y-53556318D01*
X64533928Y-53680800D01*
X64533928Y-54230800D01*
X64546188Y-54355282D01*
X64546345Y-54355800D01*
X64546188Y-54356318D01*
X64533928Y-54480800D01*
X64533928Y-55030800D01*
X64546188Y-55155282D01*
X64546345Y-55155800D01*
X64546188Y-55156318D01*
X64533928Y-55280800D01*
X64533928Y-55567728D01*
X64247000Y-55567728D01*
X64122518Y-55579988D01*
X64122000Y-55580145D01*
X64121482Y-55579988D01*
X63997000Y-55567728D01*
X63447000Y-55567728D01*
X63322518Y-55579988D01*
X63322000Y-55580145D01*
X63321482Y-55579988D01*
X63197000Y-55567728D01*
X62647000Y-55567728D01*
X62522518Y-55579988D01*
X62522000Y-55580145D01*
X62521482Y-55579988D01*
X62397000Y-55567728D01*
X61847000Y-55567728D01*
X61722518Y-55579988D01*
X61722000Y-55580145D01*
X61721482Y-55579988D01*
X61597000Y-55567728D01*
X61047000Y-55567728D01*
X60922518Y-55579988D01*
X60922000Y-55580145D01*
X60921482Y-55579988D01*
X60797000Y-55567728D01*
X60247000Y-55567728D01*
X60122518Y-55579988D01*
X60122000Y-55580145D01*
X60121482Y-55579988D01*
X59997000Y-55567728D01*
X59447000Y-55567728D01*
X59322518Y-55579988D01*
X59322000Y-55580145D01*
X59321482Y-55579988D01*
X59197000Y-55567728D01*
X58910072Y-55567728D01*
X58910072Y-55280800D01*
X58897812Y-55156318D01*
X58897655Y-55155800D01*
X58897812Y-55155282D01*
X58910072Y-55030800D01*
X58910072Y-54480800D01*
X58897812Y-54356318D01*
X58897655Y-54355800D01*
X58897812Y-54355282D01*
X58910072Y-54230800D01*
X58910072Y-53680800D01*
X58897812Y-53556318D01*
X58897655Y-53555800D01*
X58897812Y-53555282D01*
X58910072Y-53430800D01*
X58910072Y-52880800D01*
X58897812Y-52756318D01*
X58897655Y-52755800D01*
X58897812Y-52755282D01*
X58910072Y-52630800D01*
X58910072Y-52080800D01*
X58897812Y-51956318D01*
X58897467Y-51955180D01*
X58907000Y-51841550D01*
X58814917Y-51749467D01*
X58802537Y-51726306D01*
X58723185Y-51629615D01*
X58633241Y-51555800D01*
X58723185Y-51481985D01*
X58802537Y-51385294D01*
X58814917Y-51362133D01*
X58907000Y-51270050D01*
X58897467Y-51156420D01*
X58897812Y-51155282D01*
X58910072Y-51030800D01*
X58910072Y-50480800D01*
X58897812Y-50356318D01*
X58897655Y-50355800D01*
X58897812Y-50355282D01*
X58910072Y-50230800D01*
X58910072Y-49943872D01*
X59197000Y-49943872D01*
X59321482Y-49931612D01*
X59322000Y-49931455D01*
X59322518Y-49931612D01*
X59447000Y-49943872D01*
X59997000Y-49943872D01*
X60121482Y-49931612D01*
X60122000Y-49931455D01*
X60122518Y-49931612D01*
X60247000Y-49943872D01*
X60797000Y-49943872D01*
X60921482Y-49931612D01*
X60922000Y-49931455D01*
X60922518Y-49931612D01*
X61047000Y-49943872D01*
X61597000Y-49943872D01*
X61721482Y-49931612D01*
X61722620Y-49931267D01*
X61836250Y-49940800D01*
X61928333Y-49848717D01*
X61951494Y-49836337D01*
X62048185Y-49756985D01*
X62122000Y-49667041D01*
X62195815Y-49756985D01*
%TA.AperFunction,Conductor*%
D27*
G36*
X62195815Y-49756985D02*
G01*
X62292506Y-49836337D01*
X62315667Y-49848717D01*
X62407750Y-49940800D01*
X62521380Y-49931267D01*
X62522518Y-49931612D01*
X62647000Y-49943872D01*
X63197000Y-49943872D01*
X63321482Y-49931612D01*
X63322000Y-49931455D01*
X63322518Y-49931612D01*
X63447000Y-49943872D01*
X63997000Y-49943872D01*
X64121482Y-49931612D01*
X64122000Y-49931455D01*
X64122518Y-49931612D01*
X64247000Y-49943872D01*
X64533928Y-49943872D01*
X64533928Y-50230800D01*
X64546188Y-50355282D01*
X64546345Y-50355800D01*
X64546188Y-50356318D01*
X64533928Y-50480800D01*
X64533928Y-51030800D01*
X64546188Y-51155282D01*
X64546345Y-51155800D01*
X64546188Y-51156318D01*
X64533928Y-51280800D01*
X64533928Y-51830800D01*
X64546188Y-51955282D01*
X64546345Y-51955800D01*
X64546188Y-51956318D01*
X64533928Y-52080800D01*
X64533928Y-52630800D01*
X64546188Y-52755282D01*
X64546345Y-52755800D01*
X64546188Y-52756318D01*
X64533928Y-52880800D01*
X64533928Y-53430800D01*
X64546188Y-53555282D01*
X64546345Y-53555800D01*
X64546188Y-53556318D01*
X64533928Y-53680800D01*
X64533928Y-54230800D01*
X64546188Y-54355282D01*
X64546345Y-54355800D01*
X64546188Y-54356318D01*
X64533928Y-54480800D01*
X64533928Y-55030800D01*
X64546188Y-55155282D01*
X64546345Y-55155800D01*
X64546188Y-55156318D01*
X64533928Y-55280800D01*
X64533928Y-55567728D01*
X64247000Y-55567728D01*
X64122518Y-55579988D01*
X64122000Y-55580145D01*
X64121482Y-55579988D01*
X63997000Y-55567728D01*
X63447000Y-55567728D01*
X63322518Y-55579988D01*
X63322000Y-55580145D01*
X63321482Y-55579988D01*
X63197000Y-55567728D01*
X62647000Y-55567728D01*
X62522518Y-55579988D01*
X62522000Y-55580145D01*
X62521482Y-55579988D01*
X62397000Y-55567728D01*
X61847000Y-55567728D01*
X61722518Y-55579988D01*
X61722000Y-55580145D01*
X61721482Y-55579988D01*
X61597000Y-55567728D01*
X61047000Y-55567728D01*
X60922518Y-55579988D01*
X60922000Y-55580145D01*
X60921482Y-55579988D01*
X60797000Y-55567728D01*
X60247000Y-55567728D01*
X60122518Y-55579988D01*
X60122000Y-55580145D01*
X60121482Y-55579988D01*
X59997000Y-55567728D01*
X59447000Y-55567728D01*
X59322518Y-55579988D01*
X59322000Y-55580145D01*
X59321482Y-55579988D01*
X59197000Y-55567728D01*
X58910072Y-55567728D01*
X58910072Y-55280800D01*
X58897812Y-55156318D01*
X58897655Y-55155800D01*
X58897812Y-55155282D01*
X58910072Y-55030800D01*
X58910072Y-54480800D01*
X58897812Y-54356318D01*
X58897655Y-54355800D01*
X58897812Y-54355282D01*
X58910072Y-54230800D01*
X58910072Y-53680800D01*
X58897812Y-53556318D01*
X58897655Y-53555800D01*
X58897812Y-53555282D01*
X58910072Y-53430800D01*
X58910072Y-52880800D01*
X58897812Y-52756318D01*
X58897655Y-52755800D01*
X58897812Y-52755282D01*
X58910072Y-52630800D01*
X58910072Y-52080800D01*
X58897812Y-51956318D01*
X58897467Y-51955180D01*
X58907000Y-51841550D01*
X58814917Y-51749467D01*
X58802537Y-51726306D01*
X58723185Y-51629615D01*
X58633241Y-51555800D01*
X58723185Y-51481985D01*
X58802537Y-51385294D01*
X58814917Y-51362133D01*
X58907000Y-51270050D01*
X58897467Y-51156420D01*
X58897812Y-51155282D01*
X58910072Y-51030800D01*
X58910072Y-50480800D01*
X58897812Y-50356318D01*
X58897655Y-50355800D01*
X58897812Y-50355282D01*
X58910072Y-50230800D01*
X58910072Y-49943872D01*
X59197000Y-49943872D01*
X59321482Y-49931612D01*
X59322000Y-49931455D01*
X59322518Y-49931612D01*
X59447000Y-49943872D01*
X59997000Y-49943872D01*
X60121482Y-49931612D01*
X60122000Y-49931455D01*
X60122518Y-49931612D01*
X60247000Y-49943872D01*
X60797000Y-49943872D01*
X60921482Y-49931612D01*
X60922000Y-49931455D01*
X60922518Y-49931612D01*
X61047000Y-49943872D01*
X61597000Y-49943872D01*
X61721482Y-49931612D01*
X61722620Y-49931267D01*
X61836250Y-49940800D01*
X61928333Y-49848717D01*
X61951494Y-49836337D01*
X62048185Y-49756985D01*
X62122000Y-49667041D01*
X62195815Y-49756985D01*
G37*
%TD.AperFunction*%
%TD*%
D28*
X137137140Y-33964880D03*
X68552620Y-33959800D03*
X79984600Y-33964880D03*
X99087940Y-33964880D03*
X118216680Y-33964880D03*
X108920280Y-29763720D03*
X127934720Y-29761180D03*
X89849960Y-29763720D03*
X67703700Y-29758640D03*
X70723760Y-29763720D03*
X68910200Y-54762400D03*
X67884040Y-53959760D03*
X68910200Y-53152040D03*
X67871340Y-52420900D03*
X63406022Y-35745420D03*
X58433503Y-35745417D03*
X59969400Y-41656004D03*
X61658499Y-39766241D03*
X56040020Y-61127640D03*
X67804378Y-49955800D03*
X141265900Y-64136300D03*
X131105900Y-64136300D03*
X132375900Y-61596300D03*
X136185900Y-64136300D03*
X138725900Y-59056300D03*
X46528800Y-78790800D03*
X46528800Y-30378400D03*
X150901400Y-78790800D03*
X150901400Y-30378400D03*
D29*
X56592400Y-28439400D03*
D28*
X58022400Y-32089400D03*
D29*
X65232400Y-28439400D03*
D28*
X63802400Y-32089400D03*
D30*
X65232400Y-32619400D03*
X56592400Y-32619400D03*
D28*
X122215900Y-64136300D03*
X112055900Y-64136300D03*
X113325900Y-61596300D03*
X117135900Y-64136300D03*
X119675900Y-59056300D03*
X103165900Y-64136300D03*
X93005900Y-64136300D03*
X94275900Y-61596300D03*
X98085900Y-64136300D03*
X100625900Y-59056300D03*
X84115900Y-64136300D03*
X73955900Y-64136300D03*
X75225900Y-61596300D03*
X79035900Y-64136300D03*
X81575900Y-59056300D03*
X141265900Y-45086300D03*
X131105900Y-45086300D03*
X132375900Y-42546300D03*
X136185900Y-45086300D03*
X138725900Y-40006300D03*
X122215900Y-45086300D03*
X112055900Y-45086300D03*
X113325900Y-42546300D03*
X117135900Y-45086300D03*
X119675900Y-40006300D03*
X103165900Y-45086300D03*
X93005900Y-45086300D03*
X94275900Y-42546300D03*
X98085900Y-45086300D03*
X100625900Y-40006300D03*
X84115900Y-45086300D03*
X73955900Y-45086300D03*
X75225900Y-42546300D03*
X79035900Y-45086300D03*
X81575900Y-40006300D03*
M02*
