%TF.GenerationSoftware,KiCad,Pcbnew,(5.1.10-1-10_14)*%
%TF.CreationDate,2021-08-26T10:17:17+08:00*%
%TF.ProjectId,SMP v.2,534d5020-762e-4322-9e6b-696361645f70,rev?*%
%TF.SameCoordinates,Original*%
%TF.FileFunction,Legend,Top*%
%TF.FilePolarity,Positive*%
%FSLAX46Y46*%
G04 Gerber Fmt 4.6, Leading zero omitted, Abs format (unit mm)*
G04 Created by KiCad (PCBNEW (5.1.10-1-10_14)) date 2021-08-26 10:17:17*
%MOMM*%
%LPD*%
G01*
G04 APERTURE LIST*
%TA.AperFunction,Profile*%
%ADD10C,0.050000*%
%TD*%
%ADD11C,0.150000*%
%ADD12C,0.120000*%
%ADD13C,0.300000*%
%ADD14C,0.500000*%
%ADD15R,0.550000X1.600000*%
%ADD16R,1.600000X0.550000*%
%ADD17R,0.900000X1.200000*%
%ADD18C,1.750000*%
%ADD19C,3.987800*%
%ADD20C,6.400000*%
%ADD21R,1.900000X0.400000*%
%ADD22R,1.800000X1.100000*%
%ADD23O,1.000000X1.600000*%
%ADD24C,0.650000*%
%ADD25O,1.000000X2.100000*%
%ADD26R,0.300000X1.450000*%
%ADD27R,0.600000X1.450000*%
G04 APERTURE END LIST*
D10*
X156052520Y-83629500D02*
G75*
G02*
X155727400Y-83954620I-325120J0D01*
G01*
X155727400Y-25214580D02*
G75*
G02*
X156052520Y-25539700I0J-325120D01*
G01*
X41366440Y-25539700D02*
G75*
G02*
X41691560Y-25214580I325120J0D01*
G01*
X41689020Y-83957160D02*
G75*
G02*
X41363900Y-83632040I0J325120D01*
G01*
X41366440Y-25539700D02*
X41363900Y-83632040D01*
X155727400Y-25214580D02*
X41691560Y-25214580D01*
X156052520Y-83629500D02*
X156052520Y-25539700D01*
X41689020Y-83957160D02*
X155727400Y-83954620D01*
D11*
%TO.C,U1*%
X58097000Y-49355800D02*
X56672000Y-49355800D01*
X65347000Y-49130800D02*
X65022000Y-49130800D01*
X65347000Y-56380800D02*
X65022000Y-56380800D01*
X58097000Y-56380800D02*
X58422000Y-56380800D01*
X58097000Y-49130800D02*
X58422000Y-49130800D01*
X58097000Y-56380800D02*
X58097000Y-56055800D01*
X65347000Y-56380800D02*
X65347000Y-56055800D01*
X65347000Y-49130800D02*
X65347000Y-49455800D01*
X58097000Y-49130800D02*
X58097000Y-49355800D01*
D12*
%TO.C,D8*%
X119838350Y-30732220D02*
X119838350Y-32732220D01*
X119838350Y-32732220D02*
X123738350Y-32732220D01*
X119838350Y-30732220D02*
X123738350Y-30732220D01*
%TO.C,D7*%
X100742346Y-30732220D02*
X100742346Y-32732220D01*
X100742346Y-32732220D02*
X104642346Y-32732220D01*
X100742346Y-30732220D02*
X104642346Y-30732220D01*
%TO.C,D6*%
X110290348Y-30732220D02*
X110290348Y-32732220D01*
X110290348Y-32732220D02*
X114190348Y-32732220D01*
X110290348Y-30732220D02*
X114190348Y-30732220D01*
%TO.C,D5*%
X91194344Y-30732220D02*
X91194344Y-32732220D01*
X91194344Y-32732220D02*
X95094344Y-32732220D01*
X91194344Y-30732220D02*
X95094344Y-30732220D01*
%TO.C,D4*%
X138934360Y-30732220D02*
X138934360Y-32732220D01*
X138934360Y-32732220D02*
X142834360Y-32732220D01*
X138934360Y-30732220D02*
X142834360Y-30732220D01*
%TO.C,D3*%
X81646342Y-30732220D02*
X81646342Y-32732220D01*
X81646342Y-32732220D02*
X85546342Y-32732220D01*
X81646342Y-30732220D02*
X85546342Y-30732220D01*
%TO.C,D2*%
X129386352Y-30732220D02*
X129386352Y-32732220D01*
X129386352Y-32732220D02*
X133286352Y-32732220D01*
X129386352Y-30732220D02*
X133286352Y-30732220D01*
%TO.C,D1*%
X72098340Y-30732220D02*
X72098340Y-32732220D01*
X72098340Y-32732220D02*
X75998340Y-32732220D01*
X72098340Y-30732220D02*
X75998340Y-30732220D01*
%TO.C,Y1*%
X52216200Y-52219000D02*
X52216200Y-51419000D01*
X54616200Y-52219000D02*
X52616200Y-52219000D01*
X54616200Y-51419000D02*
X54616200Y-52219000D01*
X54616200Y-48619000D02*
X54616200Y-49619000D01*
X52616200Y-48619000D02*
X54616200Y-48619000D01*
X52216200Y-49619000D02*
X52216200Y-48619000D01*
X52216200Y-49619000D02*
X51816200Y-49619000D01*
X54616200Y-48419000D02*
X52616200Y-48419000D01*
X52616200Y-52219000D02*
X52216200Y-52219000D01*
X52616200Y-48619000D02*
X52216200Y-48619000D01*
X52616200Y-48419000D02*
X52216200Y-48419000D01*
D11*
%TO.C,SW1*%
X59020400Y-62297000D02*
X64220400Y-62297000D01*
X64220400Y-62297000D02*
X64220400Y-67497000D01*
X64220400Y-67497000D02*
X59020400Y-67497000D01*
X59020400Y-67497000D02*
X59020400Y-62297000D01*
X62620400Y-64897000D02*
G75*
G03*
X62620400Y-64897000I-1000000J0D01*
G01*
D12*
%TO.C,R6*%
X61014236Y-58574000D02*
X61468364Y-58574000D01*
X61014236Y-60044000D02*
X61468364Y-60044000D01*
%TO.C,R5*%
X57687540Y-40551464D02*
X57687540Y-40097336D01*
X59157540Y-40551464D02*
X59157540Y-40097336D01*
%TO.C,R4*%
X62444960Y-40551464D02*
X62444960Y-40097336D01*
X63914960Y-40551464D02*
X63914960Y-40097336D01*
%TO.C,R3*%
X59234400Y-44751364D02*
X59234400Y-44297236D01*
X60704400Y-44751364D02*
X60704400Y-44297236D01*
%TO.C,R2*%
X61190200Y-44751364D02*
X61190200Y-44297236D01*
X62660200Y-44751364D02*
X62660200Y-44297236D01*
%TO.C,R1*%
X54925856Y-62259540D02*
X55379984Y-62259540D01*
X54925856Y-63729540D02*
X55379984Y-63729540D01*
%TO.C,J1*%
X65612400Y-25589400D02*
X56212400Y-25589400D01*
X56212400Y-31389400D02*
X56212400Y-29389400D01*
X56212400Y-27489400D02*
X56212400Y-25589400D01*
X65612400Y-31389400D02*
X65612400Y-29389400D01*
X65612400Y-27489400D02*
X65612400Y-25589400D01*
%TO.C,F1*%
X54042387Y-46802542D02*
X53190940Y-45951095D01*
X55329322Y-45515607D02*
X54477875Y-44664160D01*
%TO.C,C5*%
X52940280Y-54386072D02*
X52940280Y-53863568D01*
X54410280Y-54386072D02*
X54410280Y-53863568D01*
%TO.C,C4*%
X56948400Y-44802652D02*
X56948400Y-44280148D01*
X58418400Y-44802652D02*
X58418400Y-44280148D01*
%TO.C,C1*%
X63552400Y-44802652D02*
X63552400Y-44280148D01*
X65022400Y-44802652D02*
X65022400Y-44280148D01*
%TD*%
%TO.C,U1*%
D11*
X60960095Y-46158180D02*
X60960095Y-46967704D01*
X61007714Y-47062942D01*
X61055333Y-47110561D01*
X61150571Y-47158180D01*
X61341047Y-47158180D01*
X61436285Y-47110561D01*
X61483904Y-47062942D01*
X61531523Y-46967704D01*
X61531523Y-46158180D01*
X62531523Y-47158180D02*
X61960095Y-47158180D01*
X62245809Y-47158180D02*
X62245809Y-46158180D01*
X62150571Y-46301038D01*
X62055333Y-46396276D01*
X61960095Y-46443895D01*
%TO.C,D8*%
X121350254Y-30184600D02*
X121350254Y-29184600D01*
X121588350Y-29184600D01*
X121731207Y-29232220D01*
X121826445Y-29327458D01*
X121874064Y-29422696D01*
X121921683Y-29613172D01*
X121921683Y-29756029D01*
X121874064Y-29946505D01*
X121826445Y-30041743D01*
X121731207Y-30136981D01*
X121588350Y-30184600D01*
X121350254Y-30184600D01*
X122493111Y-29613172D02*
X122397873Y-29565553D01*
X122350254Y-29517934D01*
X122302635Y-29422696D01*
X122302635Y-29375077D01*
X122350254Y-29279839D01*
X122397873Y-29232220D01*
X122493111Y-29184600D01*
X122683588Y-29184600D01*
X122778826Y-29232220D01*
X122826445Y-29279839D01*
X122874064Y-29375077D01*
X122874064Y-29422696D01*
X122826445Y-29517934D01*
X122778826Y-29565553D01*
X122683588Y-29613172D01*
X122493111Y-29613172D01*
X122397873Y-29660791D01*
X122350254Y-29708410D01*
X122302635Y-29803648D01*
X122302635Y-29994124D01*
X122350254Y-30089362D01*
X122397873Y-30136981D01*
X122493111Y-30184600D01*
X122683588Y-30184600D01*
X122778826Y-30136981D01*
X122826445Y-30089362D01*
X122874064Y-29994124D01*
X122874064Y-29803648D01*
X122826445Y-29708410D01*
X122778826Y-29660791D01*
X122683588Y-29613172D01*
%TO.C,D7*%
X102254250Y-30184600D02*
X102254250Y-29184600D01*
X102492346Y-29184600D01*
X102635203Y-29232220D01*
X102730441Y-29327458D01*
X102778060Y-29422696D01*
X102825679Y-29613172D01*
X102825679Y-29756029D01*
X102778060Y-29946505D01*
X102730441Y-30041743D01*
X102635203Y-30136981D01*
X102492346Y-30184600D01*
X102254250Y-30184600D01*
X103159012Y-29184600D02*
X103825679Y-29184600D01*
X103397107Y-30184600D01*
%TO.C,D6*%
X111802252Y-30184600D02*
X111802252Y-29184600D01*
X112040348Y-29184600D01*
X112183205Y-29232220D01*
X112278443Y-29327458D01*
X112326062Y-29422696D01*
X112373681Y-29613172D01*
X112373681Y-29756029D01*
X112326062Y-29946505D01*
X112278443Y-30041743D01*
X112183205Y-30136981D01*
X112040348Y-30184600D01*
X111802252Y-30184600D01*
X113230824Y-29184600D02*
X113040348Y-29184600D01*
X112945109Y-29232220D01*
X112897490Y-29279839D01*
X112802252Y-29422696D01*
X112754633Y-29613172D01*
X112754633Y-29994124D01*
X112802252Y-30089362D01*
X112849871Y-30136981D01*
X112945109Y-30184600D01*
X113135586Y-30184600D01*
X113230824Y-30136981D01*
X113278443Y-30089362D01*
X113326062Y-29994124D01*
X113326062Y-29756029D01*
X113278443Y-29660791D01*
X113230824Y-29613172D01*
X113135586Y-29565553D01*
X112945109Y-29565553D01*
X112849871Y-29613172D01*
X112802252Y-29660791D01*
X112754633Y-29756029D01*
%TO.C,D5*%
X92706248Y-30184600D02*
X92706248Y-29184600D01*
X92944344Y-29184600D01*
X93087201Y-29232220D01*
X93182439Y-29327458D01*
X93230058Y-29422696D01*
X93277677Y-29613172D01*
X93277677Y-29756029D01*
X93230058Y-29946505D01*
X93182439Y-30041743D01*
X93087201Y-30136981D01*
X92944344Y-30184600D01*
X92706248Y-30184600D01*
X94182439Y-29184600D02*
X93706248Y-29184600D01*
X93658629Y-29660791D01*
X93706248Y-29613172D01*
X93801486Y-29565553D01*
X94039582Y-29565553D01*
X94134820Y-29613172D01*
X94182439Y-29660791D01*
X94230058Y-29756029D01*
X94230058Y-29994124D01*
X94182439Y-30089362D01*
X94134820Y-30136981D01*
X94039582Y-30184600D01*
X93801486Y-30184600D01*
X93706248Y-30136981D01*
X93658629Y-30089362D01*
%TO.C,D4*%
X140446264Y-30184600D02*
X140446264Y-29184600D01*
X140684360Y-29184600D01*
X140827217Y-29232220D01*
X140922455Y-29327458D01*
X140970074Y-29422696D01*
X141017693Y-29613172D01*
X141017693Y-29756029D01*
X140970074Y-29946505D01*
X140922455Y-30041743D01*
X140827217Y-30136981D01*
X140684360Y-30184600D01*
X140446264Y-30184600D01*
X141874836Y-29517934D02*
X141874836Y-30184600D01*
X141636740Y-29136981D02*
X141398645Y-29851267D01*
X142017693Y-29851267D01*
%TO.C,D3*%
X83158246Y-30184600D02*
X83158246Y-29184600D01*
X83396342Y-29184600D01*
X83539199Y-29232220D01*
X83634437Y-29327458D01*
X83682056Y-29422696D01*
X83729675Y-29613172D01*
X83729675Y-29756029D01*
X83682056Y-29946505D01*
X83634437Y-30041743D01*
X83539199Y-30136981D01*
X83396342Y-30184600D01*
X83158246Y-30184600D01*
X84063008Y-29184600D02*
X84682056Y-29184600D01*
X84348722Y-29565553D01*
X84491580Y-29565553D01*
X84586818Y-29613172D01*
X84634437Y-29660791D01*
X84682056Y-29756029D01*
X84682056Y-29994124D01*
X84634437Y-30089362D01*
X84586818Y-30136981D01*
X84491580Y-30184600D01*
X84205865Y-30184600D01*
X84110627Y-30136981D01*
X84063008Y-30089362D01*
%TO.C,D2*%
X130898256Y-30184600D02*
X130898256Y-29184600D01*
X131136352Y-29184600D01*
X131279209Y-29232220D01*
X131374447Y-29327458D01*
X131422066Y-29422696D01*
X131469685Y-29613172D01*
X131469685Y-29756029D01*
X131422066Y-29946505D01*
X131374447Y-30041743D01*
X131279209Y-30136981D01*
X131136352Y-30184600D01*
X130898256Y-30184600D01*
X131850637Y-29279839D02*
X131898256Y-29232220D01*
X131993494Y-29184600D01*
X132231590Y-29184600D01*
X132326828Y-29232220D01*
X132374447Y-29279839D01*
X132422066Y-29375077D01*
X132422066Y-29470315D01*
X132374447Y-29613172D01*
X131803018Y-30184600D01*
X132422066Y-30184600D01*
%TO.C,D1*%
X73610244Y-30184600D02*
X73610244Y-29184600D01*
X73848340Y-29184600D01*
X73991197Y-29232220D01*
X74086435Y-29327458D01*
X74134054Y-29422696D01*
X74181673Y-29613172D01*
X74181673Y-29756029D01*
X74134054Y-29946505D01*
X74086435Y-30041743D01*
X73991197Y-30136981D01*
X73848340Y-30184600D01*
X73610244Y-30184600D01*
X75134054Y-30184600D02*
X74562625Y-30184600D01*
X74848340Y-30184600D02*
X74848340Y-29184600D01*
X74753101Y-29327458D01*
X74657863Y-29422696D01*
X74562625Y-29470315D01*
%TO.C,H4*%
X45766895Y-75043180D02*
X45766895Y-74043180D01*
X45766895Y-74519371D02*
X46338323Y-74519371D01*
X46338323Y-75043180D02*
X46338323Y-74043180D01*
X47243085Y-74376514D02*
X47243085Y-75043180D01*
X47004990Y-73995561D02*
X46766895Y-74709847D01*
X47385942Y-74709847D01*
%TO.C,H3*%
X45766895Y-26630780D02*
X45766895Y-25630780D01*
X45766895Y-26106971D02*
X46338323Y-26106971D01*
X46338323Y-26630780D02*
X46338323Y-25630780D01*
X46719276Y-25630780D02*
X47338323Y-25630780D01*
X47004990Y-26011733D01*
X47147847Y-26011733D01*
X47243085Y-26059352D01*
X47290704Y-26106971D01*
X47338323Y-26202209D01*
X47338323Y-26440304D01*
X47290704Y-26535542D01*
X47243085Y-26583161D01*
X47147847Y-26630780D01*
X46862133Y-26630780D01*
X46766895Y-26583161D01*
X46719276Y-26535542D01*
%TO.C,H2*%
X150139495Y-75043180D02*
X150139495Y-74043180D01*
X150139495Y-74519371D02*
X150710923Y-74519371D01*
X150710923Y-75043180D02*
X150710923Y-74043180D01*
X151139495Y-74138419D02*
X151187114Y-74090800D01*
X151282352Y-74043180D01*
X151520447Y-74043180D01*
X151615685Y-74090800D01*
X151663304Y-74138419D01*
X151710923Y-74233657D01*
X151710923Y-74328895D01*
X151663304Y-74471752D01*
X151091876Y-75043180D01*
X151710923Y-75043180D01*
%TO.C,H1*%
X150139495Y-26630780D02*
X150139495Y-25630780D01*
X150139495Y-26106971D02*
X150710923Y-26106971D01*
X150710923Y-26630780D02*
X150710923Y-25630780D01*
X151710923Y-26630780D02*
X151139495Y-26630780D01*
X151425209Y-26630780D02*
X151425209Y-25630780D01*
X151329971Y-25773638D01*
X151234733Y-25868876D01*
X151139495Y-25916495D01*
%TO.C,Y1*%
X55392390Y-50895190D02*
X55868580Y-50895190D01*
X54868580Y-51228523D02*
X55392390Y-50895190D01*
X54868580Y-50561857D01*
X55868580Y-49704714D02*
X55868580Y-50276142D01*
X55868580Y-49990428D02*
X54868580Y-49990428D01*
X55011438Y-50085666D01*
X55106676Y-50180904D01*
X55154295Y-50276142D01*
%TO.C,SW1*%
X60287066Y-69365761D02*
X60429923Y-69413380D01*
X60668019Y-69413380D01*
X60763257Y-69365761D01*
X60810876Y-69318142D01*
X60858495Y-69222904D01*
X60858495Y-69127666D01*
X60810876Y-69032428D01*
X60763257Y-68984809D01*
X60668019Y-68937190D01*
X60477542Y-68889571D01*
X60382304Y-68841952D01*
X60334685Y-68794333D01*
X60287066Y-68699095D01*
X60287066Y-68603857D01*
X60334685Y-68508619D01*
X60382304Y-68461000D01*
X60477542Y-68413380D01*
X60715638Y-68413380D01*
X60858495Y-68461000D01*
X61191828Y-68413380D02*
X61429923Y-69413380D01*
X61620400Y-68699095D01*
X61810876Y-69413380D01*
X62048971Y-68413380D01*
X62953733Y-69413380D02*
X62382304Y-69413380D01*
X62668019Y-69413380D02*
X62668019Y-68413380D01*
X62572780Y-68556238D01*
X62477542Y-68651476D01*
X62382304Y-68699095D01*
%TO.C,R6*%
X61074633Y-58111380D02*
X60741300Y-57635190D01*
X60503204Y-58111380D02*
X60503204Y-57111380D01*
X60884157Y-57111380D01*
X60979395Y-57159000D01*
X61027014Y-57206619D01*
X61074633Y-57301857D01*
X61074633Y-57444714D01*
X61027014Y-57539952D01*
X60979395Y-57587571D01*
X60884157Y-57635190D01*
X60503204Y-57635190D01*
X61931776Y-57111380D02*
X61741300Y-57111380D01*
X61646061Y-57159000D01*
X61598442Y-57206619D01*
X61503204Y-57349476D01*
X61455585Y-57539952D01*
X61455585Y-57920904D01*
X61503204Y-58016142D01*
X61550823Y-58063761D01*
X61646061Y-58111380D01*
X61836538Y-58111380D01*
X61931776Y-58063761D01*
X61979395Y-58016142D01*
X62027014Y-57920904D01*
X62027014Y-57682809D01*
X61979395Y-57587571D01*
X61931776Y-57539952D01*
X61836538Y-57492333D01*
X61646061Y-57492333D01*
X61550823Y-57539952D01*
X61503204Y-57587571D01*
X61455585Y-57682809D01*
%TO.C,R5*%
X57224920Y-40491066D02*
X56748730Y-40824400D01*
X57224920Y-41062495D02*
X56224920Y-41062495D01*
X56224920Y-40681542D01*
X56272540Y-40586304D01*
X56320159Y-40538685D01*
X56415397Y-40491066D01*
X56558254Y-40491066D01*
X56653492Y-40538685D01*
X56701111Y-40586304D01*
X56748730Y-40681542D01*
X56748730Y-41062495D01*
X56224920Y-39586304D02*
X56224920Y-40062495D01*
X56701111Y-40110114D01*
X56653492Y-40062495D01*
X56605873Y-39967257D01*
X56605873Y-39729161D01*
X56653492Y-39633923D01*
X56701111Y-39586304D01*
X56796349Y-39538685D01*
X57034444Y-39538685D01*
X57129682Y-39586304D01*
X57177301Y-39633923D01*
X57224920Y-39729161D01*
X57224920Y-39967257D01*
X57177301Y-40062495D01*
X57129682Y-40110114D01*
%TO.C,R4*%
X61982340Y-40491066D02*
X61506150Y-40824400D01*
X61982340Y-41062495D02*
X60982340Y-41062495D01*
X60982340Y-40681542D01*
X61029960Y-40586304D01*
X61077579Y-40538685D01*
X61172817Y-40491066D01*
X61315674Y-40491066D01*
X61410912Y-40538685D01*
X61458531Y-40586304D01*
X61506150Y-40681542D01*
X61506150Y-41062495D01*
X61315674Y-39633923D02*
X61982340Y-39633923D01*
X60934721Y-39872019D02*
X61649007Y-40110114D01*
X61649007Y-39491066D01*
%TO.C,R3*%
X58771780Y-44690966D02*
X58295590Y-45024300D01*
X58771780Y-45262395D02*
X57771780Y-45262395D01*
X57771780Y-44881442D01*
X57819400Y-44786204D01*
X57867019Y-44738585D01*
X57962257Y-44690966D01*
X58105114Y-44690966D01*
X58200352Y-44738585D01*
X58247971Y-44786204D01*
X58295590Y-44881442D01*
X58295590Y-45262395D01*
X57771780Y-44357633D02*
X57771780Y-43738585D01*
X58152733Y-44071919D01*
X58152733Y-43929061D01*
X58200352Y-43833823D01*
X58247971Y-43786204D01*
X58343209Y-43738585D01*
X58581304Y-43738585D01*
X58676542Y-43786204D01*
X58724161Y-43833823D01*
X58771780Y-43929061D01*
X58771780Y-44214776D01*
X58724161Y-44310014D01*
X58676542Y-44357633D01*
%TO.C,R2*%
X60727580Y-44690966D02*
X60251390Y-45024300D01*
X60727580Y-45262395D02*
X59727580Y-45262395D01*
X59727580Y-44881442D01*
X59775200Y-44786204D01*
X59822819Y-44738585D01*
X59918057Y-44690966D01*
X60060914Y-44690966D01*
X60156152Y-44738585D01*
X60203771Y-44786204D01*
X60251390Y-44881442D01*
X60251390Y-45262395D01*
X59822819Y-44310014D02*
X59775200Y-44262395D01*
X59727580Y-44167157D01*
X59727580Y-43929061D01*
X59775200Y-43833823D01*
X59822819Y-43786204D01*
X59918057Y-43738585D01*
X60013295Y-43738585D01*
X60156152Y-43786204D01*
X60727580Y-44357633D01*
X60727580Y-43738585D01*
%TO.C,R1*%
X54986253Y-61796920D02*
X54652920Y-61320730D01*
X54414824Y-61796920D02*
X54414824Y-60796920D01*
X54795777Y-60796920D01*
X54891015Y-60844540D01*
X54938634Y-60892159D01*
X54986253Y-60987397D01*
X54986253Y-61130254D01*
X54938634Y-61225492D01*
X54891015Y-61273111D01*
X54795777Y-61320730D01*
X54414824Y-61320730D01*
X55938634Y-61796920D02*
X55367205Y-61796920D01*
X55652920Y-61796920D02*
X55652920Y-60796920D01*
X55557681Y-60939778D01*
X55462443Y-61035016D01*
X55367205Y-61082635D01*
%TO.C,J1*%
X60579066Y-34586780D02*
X60579066Y-35301066D01*
X60531447Y-35443923D01*
X60436209Y-35539161D01*
X60293352Y-35586780D01*
X60198114Y-35586780D01*
X61579066Y-35586780D02*
X61007638Y-35586780D01*
X61293352Y-35586780D02*
X61293352Y-34586780D01*
X61198114Y-34729638D01*
X61102876Y-34824876D01*
X61007638Y-34872495D01*
%TO.C,F1*%
X52788002Y-46734075D02*
X52552300Y-46498372D01*
X52181910Y-46868762D02*
X52889017Y-46161655D01*
X53225735Y-46498372D01*
X53158391Y-47845242D02*
X52754330Y-47441181D01*
X52956361Y-47643212D02*
X53663467Y-46936105D01*
X53495109Y-46969777D01*
X53360422Y-46969777D01*
X53259406Y-46936105D01*
%TO.C,C5*%
X52352422Y-54291486D02*
X52400041Y-54339105D01*
X52447660Y-54481962D01*
X52447660Y-54577200D01*
X52400041Y-54720058D01*
X52304803Y-54815296D01*
X52209565Y-54862915D01*
X52019089Y-54910534D01*
X51876232Y-54910534D01*
X51685756Y-54862915D01*
X51590518Y-54815296D01*
X51495280Y-54720058D01*
X51447660Y-54577200D01*
X51447660Y-54481962D01*
X51495280Y-54339105D01*
X51542899Y-54291486D01*
X51447660Y-53386724D02*
X51447660Y-53862915D01*
X51923851Y-53910534D01*
X51876232Y-53862915D01*
X51828613Y-53767677D01*
X51828613Y-53529581D01*
X51876232Y-53434343D01*
X51923851Y-53386724D01*
X52019089Y-53339105D01*
X52257184Y-53339105D01*
X52352422Y-53386724D01*
X52400041Y-53434343D01*
X52447660Y-53529581D01*
X52447660Y-53767677D01*
X52400041Y-53862915D01*
X52352422Y-53910534D01*
%TO.C,C4*%
X56360542Y-44708066D02*
X56408161Y-44755685D01*
X56455780Y-44898542D01*
X56455780Y-44993780D01*
X56408161Y-45136638D01*
X56312923Y-45231876D01*
X56217685Y-45279495D01*
X56027209Y-45327114D01*
X55884352Y-45327114D01*
X55693876Y-45279495D01*
X55598638Y-45231876D01*
X55503400Y-45136638D01*
X55455780Y-44993780D01*
X55455780Y-44898542D01*
X55503400Y-44755685D01*
X55551019Y-44708066D01*
X55789114Y-43850923D02*
X56455780Y-43850923D01*
X55408161Y-44089019D02*
X56122447Y-44327114D01*
X56122447Y-43708066D01*
%TO.C,C1*%
X62964542Y-44708066D02*
X63012161Y-44755685D01*
X63059780Y-44898542D01*
X63059780Y-44993780D01*
X63012161Y-45136638D01*
X62916923Y-45231876D01*
X62821685Y-45279495D01*
X62631209Y-45327114D01*
X62488352Y-45327114D01*
X62297876Y-45279495D01*
X62202638Y-45231876D01*
X62107400Y-45136638D01*
X62059780Y-44993780D01*
X62059780Y-44898542D01*
X62107400Y-44755685D01*
X62155019Y-44708066D01*
X63059780Y-43755685D02*
X63059780Y-44327114D01*
X63059780Y-44041400D02*
X62059780Y-44041400D01*
X62202638Y-44136638D01*
X62297876Y-44231876D01*
X62345495Y-44327114D01*
%TD*%
%LPC*%
D13*
X52008151Y-74828482D02*
X52222437Y-74899911D01*
X52579580Y-74899911D01*
X52722437Y-74828482D01*
X52793865Y-74757054D01*
X52865294Y-74614197D01*
X52865294Y-74471340D01*
X52793865Y-74328482D01*
X52722437Y-74257054D01*
X52579580Y-74185625D01*
X52293865Y-74114197D01*
X52151008Y-74042768D01*
X52079580Y-73971340D01*
X52008151Y-73828482D01*
X52008151Y-73685625D01*
X52079580Y-73542768D01*
X52151008Y-73471340D01*
X52293865Y-73399911D01*
X52651008Y-73399911D01*
X52865294Y-73471340D01*
X53508151Y-74899911D02*
X53508151Y-73399911D01*
X54008151Y-74471340D01*
X54508151Y-73399911D01*
X54508151Y-74899911D01*
X55222437Y-74899911D02*
X55222437Y-73399911D01*
X55793865Y-73399911D01*
X55936722Y-73471340D01*
X56008151Y-73542768D01*
X56079580Y-73685625D01*
X56079580Y-73899911D01*
X56008151Y-74042768D01*
X55936722Y-74114197D01*
X55793865Y-74185625D01*
X55222437Y-74185625D01*
X57651008Y-73399911D02*
X58151008Y-74899911D01*
X58651008Y-73399911D01*
X59151008Y-74757054D02*
X59222437Y-74828482D01*
X59151008Y-74899911D01*
X59079580Y-74828482D01*
X59151008Y-74757054D01*
X59151008Y-74899911D01*
X59793865Y-73542768D02*
X59865294Y-73471340D01*
X60008151Y-73399911D01*
X60365294Y-73399911D01*
X60508151Y-73471340D01*
X60579580Y-73542768D01*
X60651008Y-73685625D01*
X60651008Y-73828482D01*
X60579580Y-74042768D01*
X59722437Y-74899911D01*
X60651008Y-74899911D01*
D14*
X155778200Y-83677760D02*
X155778200Y-25488900D01*
X41641840Y-25488900D02*
X155778200Y-25488900D01*
X41640760Y-83677760D02*
X155778200Y-83677760D01*
X41640760Y-83677760D02*
X41641840Y-25488900D01*
D15*
%TO.C,U1*%
X58922000Y-48505800D03*
X59722000Y-48505800D03*
X60522000Y-48505800D03*
X61322000Y-48505800D03*
X62122000Y-48505800D03*
X62922000Y-48505800D03*
X63722000Y-48505800D03*
X64522000Y-48505800D03*
D16*
X65972000Y-49955800D03*
X65972000Y-50755800D03*
X65972000Y-51555800D03*
X65972000Y-52355800D03*
X65972000Y-53155800D03*
X65972000Y-53955800D03*
X65972000Y-54755800D03*
X65972000Y-55555800D03*
D15*
X64522000Y-57005800D03*
X63722000Y-57005800D03*
X62922000Y-57005800D03*
X62122000Y-57005800D03*
X61322000Y-57005800D03*
X60522000Y-57005800D03*
X59722000Y-57005800D03*
X58922000Y-57005800D03*
D16*
X57472000Y-55555800D03*
X57472000Y-54755800D03*
X57472000Y-53955800D03*
X57472000Y-53155800D03*
X57472000Y-52355800D03*
X57472000Y-51555800D03*
X57472000Y-50755800D03*
X57472000Y-49955800D03*
%TD*%
D17*
%TO.C,D8*%
X123738350Y-31732220D03*
X120438350Y-31732220D03*
%TD*%
%TO.C,D7*%
X104642346Y-31732220D03*
X101342346Y-31732220D03*
%TD*%
%TO.C,D6*%
X114190348Y-31732220D03*
X110890348Y-31732220D03*
%TD*%
%TO.C,D5*%
X95094344Y-31732220D03*
X91794344Y-31732220D03*
%TD*%
%TO.C,D4*%
X142834360Y-31732220D03*
X139534360Y-31732220D03*
%TD*%
%TO.C,D3*%
X85546342Y-31732220D03*
X82246342Y-31732220D03*
%TD*%
%TO.C,D2*%
X133286352Y-31732220D03*
X129986352Y-31732220D03*
%TD*%
%TO.C,D1*%
X75998340Y-31732220D03*
X72698340Y-31732220D03*
%TD*%
D18*
%TO.C,MX8*%
X141265900Y-64136300D03*
X131105900Y-64136300D03*
D19*
X136185900Y-64136300D03*
%TD*%
D20*
%TO.C,H4*%
X46528800Y-78790800D03*
%TD*%
%TO.C,H3*%
X46528800Y-30378400D03*
%TD*%
%TO.C,H2*%
X150901400Y-78790800D03*
%TD*%
%TO.C,H1*%
X150901400Y-30378400D03*
%TD*%
D21*
%TO.C,Y1*%
X53416200Y-51619000D03*
X53416200Y-50419000D03*
X53416200Y-49219000D03*
%TD*%
D22*
%TO.C,SW1*%
X64720400Y-66747000D03*
X58520400Y-63047000D03*
X64720400Y-63047000D03*
X58520400Y-66747000D03*
%TD*%
%TO.C,R6*%
G36*
G01*
X61641300Y-59759001D02*
X61641300Y-58858999D01*
G75*
G02*
X61891299Y-58609000I249999J0D01*
G01*
X62416301Y-58609000D01*
G75*
G02*
X62666300Y-58858999I0J-249999D01*
G01*
X62666300Y-59759001D01*
G75*
G02*
X62416301Y-60009000I-249999J0D01*
G01*
X61891299Y-60009000D01*
G75*
G02*
X61641300Y-59759001I0J249999D01*
G01*
G37*
G36*
G01*
X59816300Y-59759001D02*
X59816300Y-58858999D01*
G75*
G02*
X60066299Y-58609000I249999J0D01*
G01*
X60591301Y-58609000D01*
G75*
G02*
X60841300Y-58858999I0J-249999D01*
G01*
X60841300Y-59759001D01*
G75*
G02*
X60591301Y-60009000I-249999J0D01*
G01*
X60066299Y-60009000D01*
G75*
G02*
X59816300Y-59759001I0J249999D01*
G01*
G37*
%TD*%
%TO.C,R5*%
G36*
G01*
X58872541Y-39924400D02*
X57972539Y-39924400D01*
G75*
G02*
X57722540Y-39674401I0J249999D01*
G01*
X57722540Y-39149399D01*
G75*
G02*
X57972539Y-38899400I249999J0D01*
G01*
X58872541Y-38899400D01*
G75*
G02*
X59122540Y-39149399I0J-249999D01*
G01*
X59122540Y-39674401D01*
G75*
G02*
X58872541Y-39924400I-249999J0D01*
G01*
G37*
G36*
G01*
X58872541Y-41749400D02*
X57972539Y-41749400D01*
G75*
G02*
X57722540Y-41499401I0J249999D01*
G01*
X57722540Y-40974399D01*
G75*
G02*
X57972539Y-40724400I249999J0D01*
G01*
X58872541Y-40724400D01*
G75*
G02*
X59122540Y-40974399I0J-249999D01*
G01*
X59122540Y-41499401D01*
G75*
G02*
X58872541Y-41749400I-249999J0D01*
G01*
G37*
%TD*%
%TO.C,R4*%
G36*
G01*
X63629961Y-39924400D02*
X62729959Y-39924400D01*
G75*
G02*
X62479960Y-39674401I0J249999D01*
G01*
X62479960Y-39149399D01*
G75*
G02*
X62729959Y-38899400I249999J0D01*
G01*
X63629961Y-38899400D01*
G75*
G02*
X63879960Y-39149399I0J-249999D01*
G01*
X63879960Y-39674401D01*
G75*
G02*
X63629961Y-39924400I-249999J0D01*
G01*
G37*
G36*
G01*
X63629961Y-41749400D02*
X62729959Y-41749400D01*
G75*
G02*
X62479960Y-41499401I0J249999D01*
G01*
X62479960Y-40974399D01*
G75*
G02*
X62729959Y-40724400I249999J0D01*
G01*
X63629961Y-40724400D01*
G75*
G02*
X63879960Y-40974399I0J-249999D01*
G01*
X63879960Y-41499401D01*
G75*
G02*
X63629961Y-41749400I-249999J0D01*
G01*
G37*
%TD*%
%TO.C,R3*%
G36*
G01*
X60419401Y-44124300D02*
X59519399Y-44124300D01*
G75*
G02*
X59269400Y-43874301I0J249999D01*
G01*
X59269400Y-43349299D01*
G75*
G02*
X59519399Y-43099300I249999J0D01*
G01*
X60419401Y-43099300D01*
G75*
G02*
X60669400Y-43349299I0J-249999D01*
G01*
X60669400Y-43874301D01*
G75*
G02*
X60419401Y-44124300I-249999J0D01*
G01*
G37*
G36*
G01*
X60419401Y-45949300D02*
X59519399Y-45949300D01*
G75*
G02*
X59269400Y-45699301I0J249999D01*
G01*
X59269400Y-45174299D01*
G75*
G02*
X59519399Y-44924300I249999J0D01*
G01*
X60419401Y-44924300D01*
G75*
G02*
X60669400Y-45174299I0J-249999D01*
G01*
X60669400Y-45699301D01*
G75*
G02*
X60419401Y-45949300I-249999J0D01*
G01*
G37*
%TD*%
%TO.C,R2*%
G36*
G01*
X62375201Y-44124300D02*
X61475199Y-44124300D01*
G75*
G02*
X61225200Y-43874301I0J249999D01*
G01*
X61225200Y-43349299D01*
G75*
G02*
X61475199Y-43099300I249999J0D01*
G01*
X62375201Y-43099300D01*
G75*
G02*
X62625200Y-43349299I0J-249999D01*
G01*
X62625200Y-43874301D01*
G75*
G02*
X62375201Y-44124300I-249999J0D01*
G01*
G37*
G36*
G01*
X62375201Y-45949300D02*
X61475199Y-45949300D01*
G75*
G02*
X61225200Y-45699301I0J249999D01*
G01*
X61225200Y-45174299D01*
G75*
G02*
X61475199Y-44924300I249999J0D01*
G01*
X62375201Y-44924300D01*
G75*
G02*
X62625200Y-45174299I0J-249999D01*
G01*
X62625200Y-45699301D01*
G75*
G02*
X62375201Y-45949300I-249999J0D01*
G01*
G37*
%TD*%
%TO.C,R1*%
G36*
G01*
X55552920Y-63444541D02*
X55552920Y-62544539D01*
G75*
G02*
X55802919Y-62294540I249999J0D01*
G01*
X56327921Y-62294540D01*
G75*
G02*
X56577920Y-62544539I0J-249999D01*
G01*
X56577920Y-63444541D01*
G75*
G02*
X56327921Y-63694540I-249999J0D01*
G01*
X55802919Y-63694540D01*
G75*
G02*
X55552920Y-63444541I0J249999D01*
G01*
G37*
G36*
G01*
X53727920Y-63444541D02*
X53727920Y-62544539D01*
G75*
G02*
X53977919Y-62294540I249999J0D01*
G01*
X54502921Y-62294540D01*
G75*
G02*
X54752920Y-62544539I0J-249999D01*
G01*
X54752920Y-63444541D01*
G75*
G02*
X54502921Y-63694540I-249999J0D01*
G01*
X53977919Y-63694540D01*
G75*
G02*
X53727920Y-63444541I0J249999D01*
G01*
G37*
%TD*%
D23*
%TO.C,J1*%
X56592400Y-28439400D03*
D24*
X58022400Y-32089400D03*
D23*
X65232400Y-28439400D03*
D24*
X63802400Y-32089400D03*
D25*
X65232400Y-32619400D03*
X56592400Y-32619400D03*
D26*
X61162400Y-33534400D03*
X59162400Y-33534400D03*
X59662400Y-33534400D03*
X60162400Y-33534400D03*
X60662400Y-33534400D03*
X61662400Y-33534400D03*
X62162400Y-33534400D03*
X62662400Y-33534400D03*
D27*
X57662400Y-33534400D03*
X58462400Y-33534400D03*
X63362400Y-33534400D03*
X64162400Y-33534400D03*
X64162400Y-33534400D03*
X63362400Y-33534400D03*
X58462400Y-33534400D03*
X57662400Y-33534400D03*
%TD*%
%TO.C,F1*%
G36*
G01*
X54154066Y-44743402D02*
X53270182Y-45627286D01*
G75*
G02*
X52916628Y-45627286I-176777J176777D01*
G01*
X52386298Y-45096956D01*
G75*
G02*
X52386298Y-44743402I176777J176777D01*
G01*
X53270182Y-43859518D01*
G75*
G02*
X53623736Y-43859518I176777J-176777D01*
G01*
X54154066Y-44389848D01*
G75*
G02*
X54154066Y-44743402I-176777J-176777D01*
G01*
G37*
G36*
G01*
X56133964Y-46723300D02*
X55250080Y-47607184D01*
G75*
G02*
X54896526Y-47607184I-176777J176777D01*
G01*
X54366196Y-47076854D01*
G75*
G02*
X54366196Y-46723300I176777J176777D01*
G01*
X55250080Y-45839416D01*
G75*
G02*
X55603634Y-45839416I176777J-176777D01*
G01*
X56133964Y-46369746D01*
G75*
G02*
X56133964Y-46723300I-176777J-176777D01*
G01*
G37*
%TD*%
%TO.C,C5*%
G36*
G01*
X54150280Y-53674820D02*
X53200280Y-53674820D01*
G75*
G02*
X52950280Y-53424820I0J250000D01*
G01*
X52950280Y-52924820D01*
G75*
G02*
X53200280Y-52674820I250000J0D01*
G01*
X54150280Y-52674820D01*
G75*
G02*
X54400280Y-52924820I0J-250000D01*
G01*
X54400280Y-53424820D01*
G75*
G02*
X54150280Y-53674820I-250000J0D01*
G01*
G37*
G36*
G01*
X54150280Y-55574820D02*
X53200280Y-55574820D01*
G75*
G02*
X52950280Y-55324820I0J250000D01*
G01*
X52950280Y-54824820D01*
G75*
G02*
X53200280Y-54574820I250000J0D01*
G01*
X54150280Y-54574820D01*
G75*
G02*
X54400280Y-54824820I0J-250000D01*
G01*
X54400280Y-55324820D01*
G75*
G02*
X54150280Y-55574820I-250000J0D01*
G01*
G37*
%TD*%
%TO.C,C4*%
G36*
G01*
X58158400Y-44091400D02*
X57208400Y-44091400D01*
G75*
G02*
X56958400Y-43841400I0J250000D01*
G01*
X56958400Y-43341400D01*
G75*
G02*
X57208400Y-43091400I250000J0D01*
G01*
X58158400Y-43091400D01*
G75*
G02*
X58408400Y-43341400I0J-250000D01*
G01*
X58408400Y-43841400D01*
G75*
G02*
X58158400Y-44091400I-250000J0D01*
G01*
G37*
G36*
G01*
X58158400Y-45991400D02*
X57208400Y-45991400D01*
G75*
G02*
X56958400Y-45741400I0J250000D01*
G01*
X56958400Y-45241400D01*
G75*
G02*
X57208400Y-44991400I250000J0D01*
G01*
X58158400Y-44991400D01*
G75*
G02*
X58408400Y-45241400I0J-250000D01*
G01*
X58408400Y-45741400D01*
G75*
G02*
X58158400Y-45991400I-250000J0D01*
G01*
G37*
%TD*%
%TO.C,C1*%
G36*
G01*
X64762400Y-44091400D02*
X63812400Y-44091400D01*
G75*
G02*
X63562400Y-43841400I0J250000D01*
G01*
X63562400Y-43341400D01*
G75*
G02*
X63812400Y-43091400I250000J0D01*
G01*
X64762400Y-43091400D01*
G75*
G02*
X65012400Y-43341400I0J-250000D01*
G01*
X65012400Y-43841400D01*
G75*
G02*
X64762400Y-44091400I-250000J0D01*
G01*
G37*
G36*
G01*
X64762400Y-45991400D02*
X63812400Y-45991400D01*
G75*
G02*
X63562400Y-45741400I0J250000D01*
G01*
X63562400Y-45241400D01*
G75*
G02*
X63812400Y-44991400I250000J0D01*
G01*
X64762400Y-44991400D01*
G75*
G02*
X65012400Y-45241400I0J-250000D01*
G01*
X65012400Y-45741400D01*
G75*
G02*
X64762400Y-45991400I-250000J0D01*
G01*
G37*
%TD*%
D18*
%TO.C,MX7*%
X122215900Y-64136300D03*
X112055900Y-64136300D03*
D19*
X117135900Y-64136300D03*
%TD*%
D18*
%TO.C,MX6*%
X103165900Y-64136300D03*
X93005900Y-64136300D03*
D19*
X98085900Y-64136300D03*
%TD*%
D18*
%TO.C,MX5*%
X84115900Y-64136300D03*
X73955900Y-64136300D03*
D19*
X79035900Y-64136300D03*
%TD*%
D18*
%TO.C,MX4*%
X141265900Y-45086300D03*
X131105900Y-45086300D03*
D19*
X136185900Y-45086300D03*
%TD*%
D18*
%TO.C,MX3*%
X122215900Y-45086300D03*
X112055900Y-45086300D03*
D19*
X117135900Y-45086300D03*
%TD*%
D18*
%TO.C,MX2*%
X103165900Y-45086300D03*
X93005900Y-45086300D03*
D19*
X98085900Y-45086300D03*
%TD*%
D18*
%TO.C,MX1*%
X84115900Y-45086300D03*
X73955900Y-45086300D03*
D19*
X79035900Y-45086300D03*
%TD*%
M02*
