%TF.GenerationSoftware,KiCad,Pcbnew,(5.1.10-1-10_14)*%
%TF.CreationDate,2021-08-27T11:15:07+08:00*%
%TF.ProjectId,SMP v.2,534d5020-762e-4322-9e6b-696361645f70,rev?*%
%TF.SameCoordinates,Original*%
%TF.FileFunction,Legend,Bot*%
%TF.FilePolarity,Positive*%
%FSLAX46Y46*%
G04 Gerber Fmt 4.6, Leading zero omitted, Abs format (unit mm)*
G04 Created by KiCad (PCBNEW (5.1.10-1-10_14)) date 2021-08-27 11:15:07*
%MOMM*%
%LPD*%
G01*
G04 APERTURE LIST*
%TA.AperFunction,Profile*%
%ADD10C,0.050000*%
%TD*%
%ADD11C,0.500000*%
%ADD12C,0.650000*%
%ADD13O,1.000000X2.100000*%
%ADD14O,1.000000X1.600000*%
%ADD15C,1.750000*%
%ADD16C,2.250000*%
%ADD17C,3.987800*%
%ADD18C,6.400000*%
G04 APERTURE END LIST*
D10*
X156052520Y-83629500D02*
G75*
G02*
X155727400Y-83954620I-325120J0D01*
G01*
X155727400Y-25214580D02*
G75*
G02*
X156052520Y-25539700I0J-325120D01*
G01*
X41366440Y-25539700D02*
G75*
G02*
X41691560Y-25214580I325120J0D01*
G01*
X41689020Y-83957160D02*
G75*
G02*
X41363900Y-83632040I0J325120D01*
G01*
X41366440Y-25539700D02*
X41363900Y-83632040D01*
X155727400Y-25214580D02*
X41691560Y-25214580D01*
X156052520Y-83629500D02*
X156052520Y-25539700D01*
X41689020Y-83957160D02*
X155727400Y-83954620D01*
%LPC*%
D11*
X155778200Y-25488900D02*
X155778200Y-83677760D01*
X41640760Y-83677760D02*
X155778200Y-83677760D01*
X41641840Y-25488900D02*
X41640760Y-83677760D01*
X41641840Y-25488900D02*
X155778200Y-25488900D01*
D12*
%TO.C,USB1*%
X58084180Y-32017560D03*
X63864180Y-32017560D03*
D13*
X65294180Y-32547560D03*
X56654180Y-32547560D03*
D14*
X65294180Y-28367560D03*
X56654180Y-28367560D03*
%TD*%
D15*
%TO.C,MX8*%
X141265900Y-64136300D03*
X131105900Y-64136300D03*
D16*
X132375900Y-61596300D03*
D17*
X136185900Y-64136300D03*
D16*
X138725900Y-59056300D03*
%TD*%
D18*
%TO.C,H4*%
X46528800Y-78790800D03*
%TD*%
%TO.C,H3*%
X46528800Y-30378400D03*
%TD*%
%TO.C,H2*%
X150901400Y-78790800D03*
%TD*%
%TO.C,H1*%
X150901400Y-30378400D03*
%TD*%
D15*
%TO.C,MX7*%
X122215900Y-64136300D03*
X112055900Y-64136300D03*
D16*
X113325900Y-61596300D03*
D17*
X117135900Y-64136300D03*
D16*
X119675900Y-59056300D03*
%TD*%
D15*
%TO.C,MX6*%
X103165900Y-64136300D03*
X93005900Y-64136300D03*
D16*
X94275900Y-61596300D03*
D17*
X98085900Y-64136300D03*
D16*
X100625900Y-59056300D03*
%TD*%
D15*
%TO.C,MX5*%
X84115900Y-64136300D03*
X73955900Y-64136300D03*
D16*
X75225900Y-61596300D03*
D17*
X79035900Y-64136300D03*
D16*
X81575900Y-59056300D03*
%TD*%
D15*
%TO.C,MX4*%
X141265900Y-45086300D03*
X131105900Y-45086300D03*
D16*
X132375900Y-42546300D03*
D17*
X136185900Y-45086300D03*
D16*
X138725900Y-40006300D03*
%TD*%
D15*
%TO.C,MX3*%
X122215900Y-45086300D03*
X112055900Y-45086300D03*
D16*
X113325900Y-42546300D03*
D17*
X117135900Y-45086300D03*
D16*
X119675900Y-40006300D03*
%TD*%
D15*
%TO.C,MX2*%
X103165900Y-45086300D03*
X93005900Y-45086300D03*
D16*
X94275900Y-42546300D03*
D17*
X98085900Y-45086300D03*
D16*
X100625900Y-40006300D03*
%TD*%
D15*
%TO.C,MX1*%
X84115900Y-45086300D03*
X73955900Y-45086300D03*
D16*
X75225900Y-42546300D03*
D17*
X79035900Y-45086300D03*
D16*
X81575900Y-40006300D03*
%TD*%
M02*
