G04 #@! TF.GenerationSoftware,KiCad,Pcbnew,(5.1.10-1-10_14)*
G04 #@! TF.CreationDate,2021-09-20T16:01:33+08:00*
G04 #@! TF.ProjectId,SMP top plate v.2 ,534d5020-746f-4702-9070-6c6174652076,rev?*
G04 #@! TF.SameCoordinates,Original*
G04 #@! TF.FileFunction,Copper,L1,Top*
G04 #@! TF.FilePolarity,Positive*
%FSLAX46Y46*%
G04 Gerber Fmt 4.6, Leading zero omitted, Abs format (unit mm)*
G04 Created by KiCad (PCBNEW (5.1.10-1-10_14)) date 2021-09-20 16:01:33*
%MOMM*%
%LPD*%
G01*
G04 APERTURE LIST*
G04 #@! TA.AperFunction,NonConductor*
%ADD10C,1.000000*%
G04 #@! TD*
G04 #@! TA.AperFunction,ConnectorPad*
%ADD11C,6.400000*%
G04 #@! TD*
G04 #@! TA.AperFunction,ComponentPad*
%ADD12C,3.600000*%
G04 #@! TD*
G04 #@! TA.AperFunction,NonConductor*
%ADD13C,0.254000*%
G04 #@! TD*
G04 #@! TA.AperFunction,NonConductor*
%ADD14C,0.100000*%
G04 #@! TD*
G04 APERTURE END LIST*
D10*
X177551080Y-71074280D02*
X119250460Y-71074280D01*
X177550460Y-71074280D02*
X177550460Y-129367280D01*
X177551080Y-129372360D02*
X119249500Y-129368320D01*
X119249500Y-71074280D02*
X119249500Y-129368320D01*
X94922340Y-134193280D02*
X181737000Y-134165319D01*
X92158820Y-131414520D02*
X92158820Y-69032120D01*
X94919800Y-66255921D02*
X181737000Y-66255921D01*
X184533799Y-131414520D02*
X184533799Y-69032120D01*
D11*
X181787255Y-131465320D03*
D12*
X181787255Y-131465320D03*
D11*
X94858819Y-131490720D03*
D12*
X94858819Y-131490720D03*
D11*
X181833800Y-68955920D03*
D12*
X181833800Y-68955920D03*
D11*
X94869000Y-68955920D03*
D12*
X94869000Y-68955920D03*
D13*
X178146177Y-67837292D02*
X177998800Y-68578205D01*
X177998800Y-69333635D01*
X178146177Y-70074548D01*
X178162592Y-70114178D01*
X177987527Y-70020604D01*
X177773579Y-69955703D01*
X177606832Y-69939280D01*
X177606211Y-69939280D01*
X177550460Y-69933789D01*
X177494708Y-69939280D01*
X119305251Y-69939280D01*
X119249500Y-69933789D01*
X119027001Y-69955703D01*
X118813053Y-70020604D01*
X118615877Y-70125996D01*
X118443051Y-70267831D01*
X118301216Y-70440657D01*
X118195824Y-70637834D01*
X118130923Y-70851782D01*
X118114500Y-71018529D01*
X118114500Y-71028275D01*
X118109969Y-71074280D01*
X118114500Y-71120285D01*
X118114501Y-129312528D01*
X118109010Y-129368241D01*
X118114501Y-129424034D01*
X118114501Y-129424072D01*
X118119625Y-129476093D01*
X118130908Y-129590741D01*
X118130920Y-129590782D01*
X118130924Y-129590819D01*
X118161568Y-129691839D01*
X118195794Y-129804693D01*
X118195814Y-129804730D01*
X118195825Y-129804767D01*
X118247968Y-129902321D01*
X118301173Y-130001877D01*
X118301198Y-130001907D01*
X118301217Y-130001943D01*
X118372516Y-130088821D01*
X118442996Y-130174713D01*
X118443027Y-130174738D01*
X118443052Y-130174769D01*
X118528878Y-130245205D01*
X118615812Y-130316560D01*
X118615848Y-130316579D01*
X118615878Y-130316604D01*
X118715360Y-130369778D01*
X118812980Y-130421965D01*
X118813017Y-130421976D01*
X118813054Y-130421996D01*
X118925830Y-130456206D01*
X119026924Y-130486881D01*
X119026961Y-130486885D01*
X119027002Y-130486897D01*
X119141951Y-130498218D01*
X119193670Y-130503316D01*
X119193708Y-130503316D01*
X119249500Y-130508811D01*
X119305214Y-130503324D01*
X177546275Y-130507359D01*
X177550460Y-130507771D01*
X177554639Y-130507359D01*
X177606753Y-130507363D01*
X177773501Y-130490952D01*
X177987453Y-130426066D01*
X178095309Y-130368426D01*
X177952255Y-131087605D01*
X177952255Y-131843035D01*
X178099632Y-132583948D01*
X178284986Y-133031432D01*
X98360947Y-133057173D01*
X98546442Y-132609348D01*
X98693819Y-131868435D01*
X98693819Y-131113005D01*
X98546442Y-130372092D01*
X98257352Y-129674166D01*
X97837658Y-129046050D01*
X97303489Y-128511881D01*
X96675373Y-128092187D01*
X95977447Y-127803097D01*
X95236534Y-127655720D01*
X94481104Y-127655720D01*
X93740191Y-127803097D01*
X93293820Y-127987990D01*
X93293820Y-72454433D01*
X93750372Y-72643543D01*
X94491285Y-72790920D01*
X95246715Y-72790920D01*
X95987628Y-72643543D01*
X96685554Y-72354453D01*
X97313670Y-71934759D01*
X97847839Y-71400590D01*
X98267533Y-70772474D01*
X98556623Y-70074548D01*
X98704000Y-69333635D01*
X98704000Y-68578205D01*
X98556623Y-67837292D01*
X98371730Y-67390921D01*
X178331070Y-67390921D01*
X178146177Y-67837292D01*
G04 #@! TA.AperFunction,NonConductor*
D14*
G36*
X178146177Y-67837292D02*
G01*
X177998800Y-68578205D01*
X177998800Y-69333635D01*
X178146177Y-70074548D01*
X178162592Y-70114178D01*
X177987527Y-70020604D01*
X177773579Y-69955703D01*
X177606832Y-69939280D01*
X177606211Y-69939280D01*
X177550460Y-69933789D01*
X177494708Y-69939280D01*
X119305251Y-69939280D01*
X119249500Y-69933789D01*
X119027001Y-69955703D01*
X118813053Y-70020604D01*
X118615877Y-70125996D01*
X118443051Y-70267831D01*
X118301216Y-70440657D01*
X118195824Y-70637834D01*
X118130923Y-70851782D01*
X118114500Y-71018529D01*
X118114500Y-71028275D01*
X118109969Y-71074280D01*
X118114500Y-71120285D01*
X118114501Y-129312528D01*
X118109010Y-129368241D01*
X118114501Y-129424034D01*
X118114501Y-129424072D01*
X118119625Y-129476093D01*
X118130908Y-129590741D01*
X118130920Y-129590782D01*
X118130924Y-129590819D01*
X118161568Y-129691839D01*
X118195794Y-129804693D01*
X118195814Y-129804730D01*
X118195825Y-129804767D01*
X118247968Y-129902321D01*
X118301173Y-130001877D01*
X118301198Y-130001907D01*
X118301217Y-130001943D01*
X118372516Y-130088821D01*
X118442996Y-130174713D01*
X118443027Y-130174738D01*
X118443052Y-130174769D01*
X118528878Y-130245205D01*
X118615812Y-130316560D01*
X118615848Y-130316579D01*
X118615878Y-130316604D01*
X118715360Y-130369778D01*
X118812980Y-130421965D01*
X118813017Y-130421976D01*
X118813054Y-130421996D01*
X118925830Y-130456206D01*
X119026924Y-130486881D01*
X119026961Y-130486885D01*
X119027002Y-130486897D01*
X119141951Y-130498218D01*
X119193670Y-130503316D01*
X119193708Y-130503316D01*
X119249500Y-130508811D01*
X119305214Y-130503324D01*
X177546275Y-130507359D01*
X177550460Y-130507771D01*
X177554639Y-130507359D01*
X177606753Y-130507363D01*
X177773501Y-130490952D01*
X177987453Y-130426066D01*
X178095309Y-130368426D01*
X177952255Y-131087605D01*
X177952255Y-131843035D01*
X178099632Y-132583948D01*
X178284986Y-133031432D01*
X98360947Y-133057173D01*
X98546442Y-132609348D01*
X98693819Y-131868435D01*
X98693819Y-131113005D01*
X98546442Y-130372092D01*
X98257352Y-129674166D01*
X97837658Y-129046050D01*
X97303489Y-128511881D01*
X96675373Y-128092187D01*
X95977447Y-127803097D01*
X95236534Y-127655720D01*
X94481104Y-127655720D01*
X93740191Y-127803097D01*
X93293820Y-127987990D01*
X93293820Y-72454433D01*
X93750372Y-72643543D01*
X94491285Y-72790920D01*
X95246715Y-72790920D01*
X95987628Y-72643543D01*
X96685554Y-72354453D01*
X97313670Y-71934759D01*
X97847839Y-71400590D01*
X98267533Y-70772474D01*
X98556623Y-70074548D01*
X98704000Y-69333635D01*
X98704000Y-68578205D01*
X98556623Y-67837292D01*
X98371730Y-67390921D01*
X178331070Y-67390921D01*
X178146177Y-67837292D01*
G37*
G04 #@! TD.AperFunction*
D13*
X178854961Y-71400590D02*
X179389130Y-71934759D01*
X180017246Y-72354453D01*
X180715172Y-72643543D01*
X181456085Y-72790920D01*
X182211515Y-72790920D01*
X182952428Y-72643543D01*
X183398800Y-72458650D01*
X183398799Y-127981869D01*
X182905883Y-127777697D01*
X182164970Y-127630320D01*
X181409540Y-127630320D01*
X180668627Y-127777697D01*
X179970701Y-128066787D01*
X179342585Y-128486481D01*
X178808416Y-129020650D01*
X178685460Y-129204667D01*
X178685460Y-71146914D01*
X178854961Y-71400590D01*
G04 #@! TA.AperFunction,NonConductor*
D14*
G36*
X178854961Y-71400590D02*
G01*
X179389130Y-71934759D01*
X180017246Y-72354453D01*
X180715172Y-72643543D01*
X181456085Y-72790920D01*
X182211515Y-72790920D01*
X182952428Y-72643543D01*
X183398800Y-72458650D01*
X183398799Y-127981869D01*
X182905883Y-127777697D01*
X182164970Y-127630320D01*
X181409540Y-127630320D01*
X180668627Y-127777697D01*
X179970701Y-128066787D01*
X179342585Y-128486481D01*
X178808416Y-129020650D01*
X178685460Y-129204667D01*
X178685460Y-71146914D01*
X178854961Y-71400590D01*
G37*
G04 #@! TD.AperFunction*
M02*
