G04 #@! TF.GenerationSoftware,KiCad,Pcbnew,(5.1.10-1-10_14)*
G04 #@! TF.CreationDate,2021-09-20T16:01:33+08:00*
G04 #@! TF.ProjectId,SMP top plate v.2 ,534d5020-746f-4702-9070-6c6174652076,rev?*
G04 #@! TF.SameCoordinates,Original*
G04 #@! TF.FileFunction,Legend,Top*
G04 #@! TF.FilePolarity,Positive*
%FSLAX46Y46*%
G04 Gerber Fmt 4.6, Leading zero omitted, Abs format (unit mm)*
G04 Created by KiCad (PCBNEW (5.1.10-1-10_14)) date 2021-09-20 16:01:33*
%MOMM*%
%LPD*%
G01*
G04 APERTURE LIST*
%ADD10C,0.400000*%
%ADD11C,0.200000*%
%ADD12C,0.100000*%
%ADD13C,0.010000*%
%ADD14C,1.000000*%
%ADD15C,6.400000*%
%ADD16C,3.600000*%
G04 APERTURE END LIST*
D10*
X98212536Y-104903301D02*
X99355393Y-104903301D01*
X98783964Y-106903301D02*
X98783964Y-104903301D01*
X100022060Y-106903301D02*
X100022060Y-104903301D01*
X100879202Y-106903301D02*
X100879202Y-105855682D01*
X100783964Y-105665206D01*
X100593488Y-105569968D01*
X100307774Y-105569968D01*
X100117298Y-105665206D01*
X100022060Y-105760444D01*
X102593488Y-106808063D02*
X102403012Y-106903301D01*
X102022060Y-106903301D01*
X101831583Y-106808063D01*
X101736345Y-106617587D01*
X101736345Y-105855682D01*
X101831583Y-105665206D01*
X102022060Y-105569968D01*
X102403012Y-105569968D01*
X102593488Y-105665206D01*
X102688726Y-105855682D01*
X102688726Y-106046159D01*
X101736345Y-106236635D01*
X98498250Y-110303301D02*
X98498250Y-108303301D01*
X99164917Y-109731873D01*
X99831583Y-108303301D01*
X99831583Y-110303301D01*
X101641107Y-110303301D02*
X101641107Y-109255682D01*
X101545869Y-109065206D01*
X101355393Y-108969968D01*
X100974440Y-108969968D01*
X100783964Y-109065206D01*
X101641107Y-110208063D02*
X101450631Y-110303301D01*
X100974440Y-110303301D01*
X100783964Y-110208063D01*
X100688726Y-110017587D01*
X100688726Y-109827111D01*
X100783964Y-109636635D01*
X100974440Y-109541397D01*
X101450631Y-109541397D01*
X101641107Y-109446159D01*
X103450631Y-110208063D02*
X103260155Y-110303301D01*
X102879202Y-110303301D01*
X102688726Y-110208063D01*
X102593488Y-110112825D01*
X102498250Y-109922349D01*
X102498250Y-109350920D01*
X102593488Y-109160444D01*
X102688726Y-109065206D01*
X102879202Y-108969968D01*
X103260155Y-108969968D01*
X103450631Y-109065206D01*
X104307774Y-110303301D02*
X104307774Y-108969968D01*
X104307774Y-109350920D02*
X104403012Y-109160444D01*
X104498250Y-109065206D01*
X104688726Y-108969968D01*
X104879202Y-108969968D01*
X105831583Y-110303301D02*
X105641107Y-110208063D01*
X105545869Y-110112825D01*
X105450631Y-109922349D01*
X105450631Y-109350920D01*
X105545869Y-109160444D01*
X105641107Y-109065206D01*
X105831583Y-108969968D01*
X106117298Y-108969968D01*
X106307774Y-109065206D01*
X106403012Y-109160444D01*
X106498250Y-109350920D01*
X106498250Y-109922349D01*
X106403012Y-110112825D01*
X106307774Y-110208063D01*
X106117298Y-110303301D01*
X105831583Y-110303301D01*
X107355393Y-108969968D02*
X107355393Y-110969968D01*
X107355393Y-109065206D02*
X107545869Y-108969968D01*
X107926821Y-108969968D01*
X108117298Y-109065206D01*
X108212536Y-109160444D01*
X108307774Y-109350920D01*
X108307774Y-109922349D01*
X108212536Y-110112825D01*
X108117298Y-110208063D01*
X107926821Y-110303301D01*
X107545869Y-110303301D01*
X107355393Y-110208063D01*
X110022060Y-110303301D02*
X110022060Y-109255682D01*
X109926821Y-109065206D01*
X109736345Y-108969968D01*
X109355393Y-108969968D01*
X109164917Y-109065206D01*
X110022060Y-110208063D02*
X109831583Y-110303301D01*
X109355393Y-110303301D01*
X109164917Y-110208063D01*
X109069679Y-110017587D01*
X109069679Y-109827111D01*
X109164917Y-109636635D01*
X109355393Y-109541397D01*
X109831583Y-109541397D01*
X110022060Y-109446159D01*
X111831583Y-110303301D02*
X111831583Y-108303301D01*
X111831583Y-110208063D02*
X111641107Y-110303301D01*
X111260155Y-110303301D01*
X111069679Y-110208063D01*
X110974440Y-110112825D01*
X110879202Y-109922349D01*
X110879202Y-109350920D01*
X110974440Y-109160444D01*
X111069679Y-109065206D01*
X111260155Y-108969968D01*
X111641107Y-108969968D01*
X111831583Y-109065206D01*
D11*
X112962294Y-110372457D02*
X112962294Y-109572457D01*
X112962294Y-109801028D02*
X113019437Y-109686742D01*
X113076580Y-109629600D01*
X113190865Y-109572457D01*
X113305151Y-109572457D01*
X114162294Y-110315314D02*
X114048008Y-110372457D01*
X113819437Y-110372457D01*
X113705151Y-110315314D01*
X113648008Y-110201028D01*
X113648008Y-109743885D01*
X113705151Y-109629600D01*
X113819437Y-109572457D01*
X114048008Y-109572457D01*
X114162294Y-109629600D01*
X114219437Y-109743885D01*
X114219437Y-109858171D01*
X113648008Y-109972457D01*
X114619437Y-109572457D02*
X114905151Y-110372457D01*
X115190865Y-109572457D01*
X115648008Y-110258171D02*
X115705151Y-110315314D01*
X115648008Y-110372457D01*
X115590865Y-110315314D01*
X115648008Y-110258171D01*
X115648008Y-110372457D01*
X116733722Y-109572457D02*
X116733722Y-110372457D01*
X116448008Y-109115314D02*
X116162294Y-109972457D01*
X116905151Y-109972457D01*
D12*
G36*
X109729905Y-127272415D02*
G01*
X109690853Y-127367665D01*
X109590840Y-127405765D01*
X109489875Y-127367665D01*
X109451775Y-127272415D01*
X109490828Y-127175260D01*
X109590840Y-127137160D01*
X109690853Y-127176212D01*
X109729905Y-127272415D01*
G37*
G36*
X106960035Y-127952500D02*
G01*
X107649645Y-127952500D01*
X107649645Y-128127760D01*
X106960035Y-128127760D01*
X106960035Y-127952500D01*
G37*
G36*
X99353370Y-127963930D02*
G01*
X99429570Y-128023938D01*
X99492435Y-128042035D01*
X99589590Y-128002030D01*
X99673410Y-127885825D01*
X99808665Y-127950595D01*
X99744609Y-128061085D01*
X99674362Y-128144905D01*
X99590781Y-128197769D01*
X99486720Y-128215390D01*
X99370515Y-128186815D01*
X99260025Y-128104900D01*
X99182872Y-128044893D01*
X99115245Y-128024890D01*
X99018090Y-128064895D01*
X98934270Y-128181100D01*
X98799015Y-128116330D01*
X98863071Y-128007031D01*
X98933317Y-127922973D01*
X99016899Y-127869394D01*
X99120960Y-127851535D01*
X99240975Y-127880110D01*
X99353370Y-127963930D01*
G37*
G36*
X109737525Y-128480185D02*
G01*
X110011845Y-128480185D01*
X110011845Y-128636395D01*
X109225080Y-128636395D01*
X109225080Y-128480185D01*
X109524165Y-128480185D01*
X109524165Y-127786765D01*
X109234605Y-127786765D01*
X109234605Y-127630555D01*
X109737525Y-127630555D01*
X109737525Y-128480185D01*
G37*
G36*
X112339755Y-127630555D02*
G01*
X112303560Y-128002030D01*
X112151160Y-128002030D01*
X112151160Y-127796290D01*
X112053291Y-127818197D01*
X111969233Y-127880110D01*
X111899938Y-127978694D01*
X111846360Y-128110615D01*
X111846360Y-128483995D01*
X112048290Y-128483995D01*
X112048290Y-128636395D01*
X111484410Y-128636395D01*
X111484410Y-128483995D01*
X111633000Y-128483995D01*
X111633000Y-127782955D01*
X111484410Y-127782955D01*
X111484410Y-127630555D01*
X111794925Y-127630555D01*
X111833025Y-127862965D01*
X111898509Y-127749856D01*
X111976853Y-127669607D01*
X112071864Y-127621744D01*
X112187355Y-127605790D01*
X112339755Y-127630555D01*
G37*
G36*
X106493310Y-128400175D02*
G01*
X106590465Y-128537335D01*
X106517122Y-128588532D01*
X106430445Y-128627823D01*
X106335671Y-128652826D01*
X106238040Y-128661160D01*
X106095588Y-128645391D01*
X105975573Y-128598083D01*
X105877995Y-128519238D01*
X105806028Y-128413933D01*
X105762848Y-128287251D01*
X105748455Y-128139190D01*
X105763219Y-127993219D01*
X105807510Y-127863917D01*
X105879662Y-127755809D01*
X105978007Y-127673417D01*
X106099689Y-127621268D01*
X106241850Y-127603885D01*
X106369485Y-127617432D01*
X106485690Y-127658072D01*
X106590465Y-127725805D01*
X106491405Y-127859155D01*
X106369009Y-127796290D01*
X106245660Y-127775335D01*
X106133265Y-127797957D01*
X106047540Y-127865822D01*
X105993247Y-127979408D01*
X105975150Y-128139190D01*
X105993247Y-128294448D01*
X106047540Y-128402080D01*
X106133265Y-128464945D01*
X106245660Y-128485900D01*
X106367580Y-128464469D01*
X106493310Y-128400175D01*
G37*
G36*
X108628815Y-128363980D02*
G01*
X108611670Y-128292543D01*
X108543090Y-128241108D01*
X108478796Y-128216581D01*
X108388785Y-128190625D01*
X108243767Y-128142762D01*
X108140183Y-128082993D01*
X108078032Y-128002744D01*
X108057315Y-127893445D01*
X108084461Y-127775097D01*
X108165900Y-127682942D01*
X108246757Y-127639022D01*
X108344547Y-127612669D01*
X108459270Y-127603885D01*
X108600875Y-127616797D01*
X108728510Y-127655532D01*
X108842175Y-127720090D01*
X108750735Y-127855345D01*
X108611670Y-127788194D01*
X108464985Y-127765810D01*
X108322110Y-127793432D01*
X108274485Y-127876300D01*
X108296393Y-127939165D01*
X108371640Y-127985838D01*
X108437839Y-128009412D01*
X108529755Y-128036320D01*
X108672868Y-128087279D01*
X108774547Y-128148715D01*
X108835269Y-128232059D01*
X108855510Y-128348740D01*
X108823601Y-128484233D01*
X108727875Y-128582103D01*
X108636012Y-128626023D01*
X108530602Y-128652376D01*
X108411645Y-128661160D01*
X108254800Y-128645497D01*
X108117005Y-128598507D01*
X107998260Y-128520190D01*
X108110655Y-128390650D01*
X108177092Y-128435179D01*
X108250673Y-128469708D01*
X108329492Y-128491853D01*
X108411645Y-128499235D01*
X108501894Y-128490186D01*
X108570713Y-128463040D01*
X108628815Y-128363980D01*
G37*
G36*
X100627815Y-128363980D02*
G01*
X100610670Y-128292543D01*
X100542090Y-128241108D01*
X100477796Y-128216581D01*
X100387785Y-128190625D01*
X100242767Y-128142762D01*
X100139182Y-128082993D01*
X100077032Y-128002744D01*
X100056315Y-127893445D01*
X100083461Y-127775097D01*
X100164900Y-127682942D01*
X100245757Y-127639022D01*
X100343547Y-127612669D01*
X100458270Y-127603885D01*
X100599875Y-127616797D01*
X100727510Y-127655532D01*
X100841175Y-127720090D01*
X100749735Y-127855345D01*
X100610670Y-127788194D01*
X100463985Y-127765810D01*
X100321110Y-127793432D01*
X100273485Y-127876300D01*
X100295392Y-127939165D01*
X100370640Y-127985838D01*
X100436839Y-128009412D01*
X100528755Y-128036320D01*
X100671868Y-128087279D01*
X100773547Y-128148715D01*
X100834269Y-128232059D01*
X100854510Y-128348740D01*
X100822601Y-128484233D01*
X100726875Y-128582103D01*
X100635012Y-128626023D01*
X100529602Y-128652376D01*
X100410645Y-128661160D01*
X100253800Y-128645497D01*
X100116005Y-128598507D01*
X99997260Y-128520190D01*
X100109655Y-128390650D01*
X100176092Y-128435179D01*
X100249672Y-128469708D01*
X100328492Y-128491853D01*
X100410645Y-128499235D01*
X100500894Y-128490186D01*
X100569712Y-128463040D01*
X100627815Y-128363980D01*
G37*
G36*
X113069370Y-128495425D02*
G01*
X113203673Y-128473518D01*
X113334165Y-128407795D01*
X113425605Y-128537335D01*
X113348929Y-128589723D01*
X113259870Y-128628775D01*
X113162239Y-128653064D01*
X113059845Y-128661160D01*
X112917605Y-128645179D01*
X112798225Y-128597237D01*
X112701705Y-128517333D01*
X112630797Y-128410758D01*
X112588252Y-128282806D01*
X112574070Y-128133475D01*
X112587881Y-127990362D01*
X112629315Y-127862012D01*
X112696943Y-127754142D01*
X112789335Y-127672465D01*
X112902683Y-127621030D01*
X113033175Y-127603885D01*
X113157318Y-127618807D01*
X113263045Y-127663575D01*
X113350358Y-127738187D01*
X113415445Y-127838835D01*
X113454498Y-127961708D01*
X113467515Y-128106805D01*
X113461800Y-128202055D01*
X112793145Y-128057275D01*
X113259870Y-128057275D01*
X113242725Y-127931069D01*
X113198910Y-127838200D01*
X113129378Y-127781050D01*
X113035080Y-127762000D01*
X112941735Y-127780574D01*
X112867440Y-127836295D01*
X112816481Y-127928688D01*
X112793145Y-128057275D01*
X113461800Y-128202055D01*
X112795050Y-128202055D01*
X112821006Y-128330404D01*
X112879823Y-128422082D01*
X112964833Y-128477089D01*
X113069370Y-128495425D01*
G37*
G36*
X105068370Y-128495425D02*
G01*
X105202672Y-128473518D01*
X105333165Y-128407795D01*
X105424605Y-128537335D01*
X105347929Y-128589723D01*
X105258870Y-128628775D01*
X105161239Y-128653064D01*
X105058845Y-128661160D01*
X104916605Y-128645179D01*
X104797225Y-128597237D01*
X104700705Y-128517333D01*
X104629797Y-128410758D01*
X104587252Y-128282806D01*
X104573070Y-128133475D01*
X104586881Y-127990362D01*
X104628315Y-127862012D01*
X104695943Y-127754142D01*
X104788335Y-127672465D01*
X104901682Y-127621030D01*
X105032175Y-127603885D01*
X105156317Y-127618807D01*
X105262045Y-127663575D01*
X105349357Y-127738187D01*
X105414445Y-127838835D01*
X105453497Y-127961708D01*
X105466515Y-128106805D01*
X105460800Y-128202055D01*
X104792145Y-128057275D01*
X105258870Y-128057275D01*
X105241725Y-127931069D01*
X105197910Y-127838200D01*
X105128377Y-127781050D01*
X105034080Y-127762000D01*
X104940735Y-127780574D01*
X104866440Y-127836295D01*
X104815481Y-127928688D01*
X104792145Y-128057275D01*
X105460800Y-128202055D01*
X104794050Y-128202055D01*
X104820006Y-128330404D01*
X104878822Y-128422082D01*
X104963833Y-128477089D01*
X105068370Y-128495425D01*
G37*
G36*
X102033705Y-128516380D02*
G01*
X101746050Y-128375410D01*
X101746050Y-128152525D01*
X101627940Y-128152525D01*
X101502686Y-128164669D01*
X101416485Y-128201103D01*
X101366479Y-128260396D01*
X101349810Y-128341120D01*
X101392672Y-128463040D01*
X101519355Y-128504950D01*
X101647942Y-128470660D01*
X101746050Y-128375410D01*
X102033705Y-128516380D01*
X101984175Y-128661160D01*
X101853206Y-128616869D01*
X101776530Y-128522095D01*
X101714379Y-128582341D01*
X101638417Y-128625918D01*
X101551502Y-128652349D01*
X101456490Y-128661160D01*
X101319806Y-128639729D01*
X101214555Y-128575435D01*
X101147404Y-128475899D01*
X101125020Y-128348740D01*
X101156214Y-128208723D01*
X101249797Y-128104900D01*
X101344518Y-128057275D01*
X101462311Y-128028700D01*
X101603175Y-128019175D01*
X101746050Y-128019175D01*
X101746050Y-127954405D01*
X101731762Y-127872014D01*
X101688900Y-127815340D01*
X101618891Y-127782479D01*
X101523165Y-127771525D01*
X101399340Y-127784860D01*
X101256465Y-127822960D01*
X101203125Y-127672465D01*
X101322717Y-127634365D01*
X101440192Y-127611505D01*
X101555550Y-127603885D01*
X101677893Y-127613622D01*
X101778223Y-127642832D01*
X101856540Y-127691515D01*
X101932264Y-127797719D01*
X101957505Y-127941070D01*
X101957505Y-128390650D01*
X101974650Y-128475423D01*
X102033705Y-128516380D01*
G37*
G36*
X113673255Y-128636395D02*
G01*
X114035205Y-128106805D01*
X113713260Y-127630555D01*
X113959005Y-127630555D01*
X114164745Y-127984885D01*
X114370485Y-127630555D01*
X114604800Y-127630555D01*
X114290475Y-128097280D01*
X114652425Y-128636395D01*
X114402870Y-128636395D01*
X114155220Y-128224915D01*
X113909475Y-128636395D01*
X113673255Y-128636395D01*
G37*
G36*
X103224330Y-127889635D02*
G01*
X103224330Y-128636395D01*
X103035735Y-128636395D01*
X103035735Y-127918210D01*
X103023352Y-127802005D01*
X102969060Y-127769620D01*
X102891907Y-127794861D01*
X102820470Y-127870585D01*
X102820470Y-128636395D01*
X102647115Y-128636395D01*
X102647115Y-127918210D01*
X102634732Y-127802005D01*
X102580440Y-127769620D01*
X102503287Y-127794861D01*
X102431850Y-127870585D01*
X102431850Y-128636395D01*
X102241350Y-128636395D01*
X102241350Y-127630555D01*
X102401370Y-127630555D01*
X102416610Y-127739140D01*
X102513765Y-127638175D01*
X102631875Y-127603885D01*
X102741412Y-127635794D01*
X102803325Y-127731520D01*
X102902385Y-127637222D01*
X103024305Y-127603885D01*
X103107649Y-127620077D01*
X103170990Y-127668655D01*
X103210995Y-127756285D01*
X103224330Y-127889635D01*
G37*
G36*
X103687245Y-127754380D02*
G01*
X103753206Y-127689134D01*
X103829167Y-127641985D01*
X103912273Y-127613410D01*
X103999665Y-127603885D01*
X104121585Y-127623173D01*
X104209215Y-127681037D01*
X104262079Y-127775097D01*
X104279700Y-127902970D01*
X104279700Y-128636395D01*
X104066340Y-128636395D01*
X104066340Y-127935355D01*
X104032050Y-127806767D01*
X103921560Y-127767715D01*
X103792972Y-127810577D01*
X103687245Y-127916305D01*
X103687245Y-128636395D01*
X103473885Y-128636395D01*
X103473885Y-127228600D01*
X103687245Y-127205740D01*
X103687245Y-127754380D01*
G37*
G36*
X111135795Y-127226695D02*
G01*
X111135795Y-128636395D01*
X110947200Y-128636395D01*
X110931960Y-128512570D01*
X110876715Y-128576388D01*
X110810040Y-128623060D01*
X110733840Y-128651635D01*
X110650020Y-128661160D01*
X110534662Y-128645497D01*
X110440047Y-128598507D01*
X110366175Y-128520190D01*
X110313258Y-128414568D01*
X110281508Y-128285663D01*
X110270925Y-128133475D01*
X110283069Y-127987743D01*
X110319503Y-127859155D01*
X110378319Y-127752237D01*
X110457615Y-127671512D01*
X110555246Y-127620792D01*
X110669070Y-127603885D01*
X110809564Y-127631507D01*
X110833853Y-127795814D01*
X110724315Y-127767715D01*
X110626922Y-127790337D01*
X110555723Y-127858202D01*
X110512146Y-127972264D01*
X110497620Y-128133475D01*
X110510717Y-128293495D01*
X110550008Y-128407795D01*
X110615492Y-128476375D01*
X110707170Y-128499235D01*
X110823851Y-128463040D01*
X110922435Y-128354455D01*
X110922435Y-127880110D01*
X110833853Y-127795814D01*
X110809564Y-127631507D01*
X110922435Y-127714375D01*
X110922435Y-127201930D01*
X111135795Y-127226695D01*
G37*
G36*
X102762050Y-112274826D02*
G01*
X102658069Y-112296257D01*
X102594370Y-112300425D01*
X102519162Y-112301814D01*
X102585837Y-112341104D01*
X102475594Y-112410646D01*
X102421090Y-112354025D01*
X102330250Y-112335151D01*
X102256431Y-112346859D01*
X102203250Y-112381982D01*
X102171103Y-112436950D01*
X102160387Y-112508189D01*
X102171302Y-112580618D01*
X102204044Y-112635983D01*
X102257820Y-112671106D01*
X102331837Y-112682814D01*
X102401687Y-112671304D01*
X102452487Y-112636776D01*
X102483444Y-112580817D01*
X102493762Y-112505014D01*
X102475594Y-112410646D01*
X102585837Y-112341104D01*
X102633462Y-112389126D01*
X102662037Y-112447070D01*
X102671562Y-112516126D01*
X102661442Y-112593914D01*
X102631081Y-112662176D01*
X102582067Y-112718929D01*
X102515987Y-112762189D01*
X102434628Y-112789573D01*
X102339775Y-112798701D01*
X102225475Y-112784414D01*
X102198487Y-112815370D01*
X102188962Y-112854264D01*
X102214759Y-112901889D01*
X102292150Y-112917764D01*
X102438200Y-112917764D01*
X102522337Y-112925304D01*
X102596950Y-112947926D01*
X102659061Y-112983843D01*
X102705694Y-113031270D01*
X102734864Y-113087825D01*
X102744587Y-113151126D01*
X102717600Y-113262450D01*
X102636637Y-113345595D01*
X102554087Y-113383960D01*
X102450371Y-113406978D01*
X102325487Y-113414651D01*
X102199083Y-113407309D01*
X102102444Y-113385283D01*
X102032594Y-113349167D01*
X101986556Y-113299558D01*
X101960958Y-113235065D01*
X101952425Y-113154301D01*
X102111175Y-113154301D01*
X102129431Y-113229708D01*
X102193725Y-113270983D01*
X102250081Y-113281103D01*
X102327075Y-113284476D01*
X102436216Y-113276737D01*
X102509637Y-113253520D01*
X102565200Y-113162239D01*
X102521544Y-113083658D01*
X102403275Y-113055876D01*
X102258812Y-113055876D01*
X102159792Y-113044367D01*
X102088156Y-113009839D01*
X102044698Y-112957848D01*
X102030212Y-112893951D01*
X102054025Y-112811401D01*
X102122287Y-112743139D01*
X102057795Y-112699284D01*
X102013544Y-112647095D01*
X101987945Y-112584190D01*
X101979412Y-112508189D01*
X101990525Y-112425837D01*
X102023862Y-112353407D01*
X102077044Y-112293479D01*
X102147687Y-112248632D01*
X102232619Y-112220653D01*
X102328662Y-112211326D01*
X102451098Y-112207357D01*
X102545356Y-112192276D01*
X102628105Y-112165686D01*
X102716012Y-112127189D01*
X102762050Y-112274826D01*
G37*
G36*
X108169075Y-113074926D02*
G01*
X108130181Y-113169206D01*
X108081233Y-113248846D01*
X108022231Y-113313845D01*
X107950176Y-113363498D01*
X107862070Y-113397101D01*
X107757913Y-113414651D01*
X107735688Y-113281301D01*
X107810300Y-113265228D01*
X107869038Y-113242408D01*
X107950000Y-113176526D01*
X108003975Y-113071751D01*
X107943650Y-113071751D01*
X107661075Y-112233551D01*
X107849988Y-112233551D01*
X108061125Y-112947926D01*
X108275438Y-112233551D01*
X108458000Y-112233551D01*
X108169075Y-113074926D01*
G37*
G36*
X105537000Y-111897001D02*
G01*
X105537000Y-113071751D01*
X105379838Y-113071751D01*
X105367138Y-112968564D01*
X105321100Y-113021745D01*
X105265538Y-113060639D01*
X105202038Y-113084451D01*
X105132188Y-113092389D01*
X105036056Y-113079336D01*
X104957210Y-113040178D01*
X104895650Y-112974914D01*
X104851553Y-112886896D01*
X104825094Y-112779475D01*
X104816275Y-112652651D01*
X104826395Y-112531207D01*
X104856756Y-112424051D01*
X104905770Y-112334953D01*
X104971850Y-112267682D01*
X105053209Y-112225415D01*
X105148063Y-112211326D01*
X105265141Y-112234345D01*
X105285381Y-112371267D01*
X105194100Y-112347851D01*
X105112939Y-112366703D01*
X105053606Y-112423257D01*
X105017292Y-112518309D01*
X105005188Y-112652651D01*
X105016102Y-112786001D01*
X105048844Y-112881251D01*
X105103414Y-112938401D01*
X105179813Y-112957451D01*
X105277047Y-112927289D01*
X105359200Y-112836801D01*
X105359200Y-112441514D01*
X105285381Y-112371267D01*
X105265141Y-112234345D01*
X105359200Y-112303401D01*
X105359200Y-111876364D01*
X105537000Y-111897001D01*
G37*
G36*
X107180063Y-112211326D02*
G01*
X107260231Y-112420876D01*
X107206058Y-112366108D01*
X107130850Y-112347851D01*
X107030044Y-112381189D01*
X106949875Y-112468501D01*
X106949875Y-112860614D01*
X107022900Y-112933242D01*
X107114975Y-112957451D01*
X107196136Y-112938600D01*
X107255469Y-112882045D01*
X107291783Y-112786993D01*
X107303888Y-112652651D01*
X107292973Y-112515332D01*
X107260231Y-112420876D01*
X107180063Y-112211326D01*
X107277606Y-112224203D01*
X107356451Y-112262832D01*
X107416600Y-112327214D01*
X107458933Y-112414703D01*
X107484333Y-112522653D01*
X107492800Y-112651064D01*
X107483010Y-112774007D01*
X107453642Y-112880369D01*
X107404694Y-112970151D01*
X107338107Y-113038061D01*
X107255822Y-113078807D01*
X107157838Y-113092389D01*
X107071407Y-113080923D01*
X106998382Y-113046528D01*
X106938763Y-112989201D01*
X106929238Y-113071751D01*
X106772075Y-113071751D01*
X106772075Y-111897001D01*
X106949875Y-111876364D01*
X106949875Y-112333564D01*
X106996905Y-112281573D01*
X107052269Y-112243076D01*
X107113983Y-112219264D01*
X107180063Y-112211326D01*
G37*
G36*
X98439287Y-113071751D02*
G01*
X98355150Y-112932051D01*
X98458337Y-112932051D01*
X98549045Y-112920542D01*
X98623261Y-112886014D01*
X98680984Y-112828467D01*
X98722215Y-112747901D01*
X98746954Y-112644317D01*
X98755200Y-112517714D01*
X98746116Y-112378014D01*
X98718864Y-112272180D01*
X98673444Y-112200214D01*
X98578392Y-112138301D01*
X98456750Y-112117664D01*
X98355150Y-112117664D01*
X98355150Y-112932051D01*
X98439287Y-113071751D01*
X98171000Y-113071751D01*
X98171000Y-111976376D01*
X98421825Y-111976376D01*
X98535034Y-111983570D01*
X98636534Y-112005150D01*
X98726327Y-112041116D01*
X98804412Y-112091470D01*
X98867615Y-112161270D01*
X98912759Y-112255578D01*
X98939846Y-112374392D01*
X98948875Y-112517714D01*
X98939846Y-112661432D01*
X98912759Y-112781437D01*
X98867615Y-112877729D01*
X98804412Y-112950308D01*
X98727419Y-113003439D01*
X98640900Y-113041390D01*
X98544856Y-113064161D01*
X98439287Y-113071751D01*
G37*
G36*
X99528312Y-112954276D02*
G01*
X99640231Y-112936020D01*
X99748975Y-112881251D01*
X99825175Y-112989201D01*
X99761278Y-113032858D01*
X99687062Y-113065401D01*
X99605703Y-113085642D01*
X99520375Y-113092389D01*
X99401842Y-113079071D01*
X99302358Y-113039119D01*
X99221925Y-112972533D01*
X99162835Y-112883721D01*
X99127381Y-112777094D01*
X99115562Y-112652651D01*
X99127072Y-112533390D01*
X99161600Y-112426432D01*
X99217956Y-112336540D01*
X99294950Y-112268476D01*
X99389406Y-112225614D01*
X99498150Y-112211326D01*
X99601602Y-112223762D01*
X99689708Y-112261068D01*
X99762469Y-112323245D01*
X99816708Y-112407118D01*
X99849252Y-112509512D01*
X99860100Y-112630426D01*
X99855337Y-112709801D01*
X99298125Y-112589151D01*
X99687062Y-112589151D01*
X99672775Y-112483979D01*
X99636262Y-112406589D01*
X99578319Y-112358964D01*
X99499737Y-112343089D01*
X99421950Y-112358567D01*
X99360037Y-112405001D01*
X99317572Y-112481995D01*
X99298125Y-112589151D01*
X99855337Y-112709801D01*
X99299713Y-112709801D01*
X99321342Y-112816759D01*
X99370356Y-112893158D01*
X99441198Y-112938997D01*
X99528312Y-112954276D01*
G37*
G36*
X104290813Y-112954276D02*
G01*
X104402731Y-112936020D01*
X104511475Y-112881251D01*
X104587675Y-112989201D01*
X104523778Y-113032858D01*
X104449563Y-113065401D01*
X104368203Y-113085642D01*
X104282875Y-113092389D01*
X104164342Y-113079071D01*
X104064858Y-113039119D01*
X103984425Y-112972533D01*
X103925335Y-112883721D01*
X103889881Y-112777094D01*
X103878063Y-112652651D01*
X103889572Y-112533390D01*
X103924100Y-112426432D01*
X103980456Y-112336540D01*
X104057450Y-112268476D01*
X104151906Y-112225614D01*
X104260650Y-112211326D01*
X104364102Y-112223762D01*
X104452208Y-112261068D01*
X104524969Y-112323245D01*
X104579208Y-112407118D01*
X104611752Y-112509512D01*
X104622600Y-112630426D01*
X104617838Y-112709801D01*
X104060625Y-112589151D01*
X104449563Y-112589151D01*
X104435275Y-112483979D01*
X104398763Y-112406589D01*
X104340819Y-112358964D01*
X104262238Y-112343089D01*
X104184450Y-112358567D01*
X104122538Y-112405001D01*
X104080072Y-112481995D01*
X104060625Y-112589151D01*
X104617838Y-112709801D01*
X104062213Y-112709801D01*
X104083842Y-112816759D01*
X104132856Y-112893158D01*
X104203698Y-112938997D01*
X104290813Y-112954276D01*
G37*
G36*
X100590350Y-112844739D02*
G01*
X100576062Y-112785208D01*
X100518912Y-112742345D01*
X100465334Y-112721906D01*
X100390325Y-112700276D01*
X100269477Y-112660390D01*
X100183156Y-112610582D01*
X100131364Y-112543709D01*
X100114100Y-112452626D01*
X100136722Y-112354003D01*
X100204587Y-112277207D01*
X100271968Y-112240607D01*
X100353460Y-112218646D01*
X100449062Y-112211326D01*
X100567067Y-112222086D01*
X100673429Y-112254365D01*
X100768150Y-112308164D01*
X100691950Y-112420876D01*
X100576062Y-112364917D01*
X100453825Y-112346264D01*
X100334762Y-112369282D01*
X100295075Y-112438339D01*
X100313331Y-112490726D01*
X100376037Y-112529620D01*
X100431203Y-112549265D01*
X100507800Y-112571689D01*
X100627061Y-112614154D01*
X100711794Y-112665351D01*
X100762395Y-112734804D01*
X100779262Y-112832039D01*
X100752672Y-112944950D01*
X100672900Y-113026508D01*
X100596347Y-113063108D01*
X100508506Y-113085069D01*
X100409375Y-113092389D01*
X100278671Y-113079336D01*
X100163842Y-113040178D01*
X100064887Y-112974914D01*
X100158550Y-112866964D01*
X100213914Y-112904072D01*
X100275231Y-112932845D01*
X100340914Y-112951300D01*
X100409375Y-112957451D01*
X100484583Y-112949911D01*
X100541931Y-112927289D01*
X100590350Y-112844739D01*
G37*
G36*
X102962075Y-112233551D02*
G01*
X103116062Y-112233551D01*
X103128762Y-112343089D01*
X103185714Y-112286931D01*
X103251794Y-112245457D01*
X103324223Y-112219859D01*
X103400225Y-112211326D01*
X103501825Y-112227598D01*
X103574850Y-112276414D01*
X103618903Y-112354995D01*
X103633588Y-112460564D01*
X103633588Y-113071751D01*
X103455788Y-113071751D01*
X103455788Y-112549464D01*
X103447056Y-112429607D01*
X103412925Y-112367695D01*
X103336725Y-112347851D01*
X103227981Y-112382776D01*
X103139875Y-112470089D01*
X103139875Y-113071751D01*
X102962075Y-113071751D01*
X102962075Y-112233551D01*
G37*
G36*
X101514275Y-112941576D02*
G01*
X101742875Y-112941576D01*
X101742875Y-113071751D01*
X101087237Y-113071751D01*
X101087237Y-112941576D01*
X101336475Y-112941576D01*
X101336475Y-112363726D01*
X101095175Y-112363726D01*
X101095175Y-112233551D01*
X101514275Y-112233551D01*
X101514275Y-112941576D01*
G37*
G36*
X101507925Y-111935101D02*
G01*
X101475381Y-112014476D01*
X101392037Y-112046226D01*
X101307900Y-112014476D01*
X101276150Y-111935101D01*
X101308694Y-111854139D01*
X101392037Y-111822389D01*
X101475381Y-111854932D01*
X101507925Y-111935101D01*
G37*
D13*
G36*
X103875056Y-116977381D02*
G01*
X103920584Y-117009173D01*
X103935081Y-117020164D01*
X104015898Y-117102800D01*
X104059327Y-117201708D01*
X104069349Y-117295278D01*
X104051682Y-117417779D01*
X104001045Y-117519343D01*
X103920983Y-117594730D01*
X103841807Y-117631553D01*
X103794182Y-117646340D01*
X103794182Y-117306247D01*
X103794763Y-117169284D01*
X103797838Y-117070593D01*
X103805406Y-117006115D01*
X103819466Y-116971793D01*
X103842016Y-116963568D01*
X103875056Y-116977381D01*
G37*
X103875056Y-116977381D02*
X103920584Y-117009173D01*
X103935081Y-117020164D01*
X104015898Y-117102800D01*
X104059327Y-117201708D01*
X104069349Y-117295278D01*
X104051682Y-117417779D01*
X104001045Y-117519343D01*
X103920983Y-117594730D01*
X103841807Y-117631553D01*
X103794182Y-117646340D01*
X103794182Y-117306247D01*
X103794763Y-117169284D01*
X103797838Y-117070593D01*
X103805406Y-117006115D01*
X103819466Y-116971793D01*
X103842016Y-116963568D01*
X103875056Y-116977381D01*
G36*
X103632032Y-116982078D02*
G01*
X103639199Y-117031556D01*
X103643736Y-117117142D01*
X103645825Y-117241390D01*
X103646016Y-117304820D01*
X103645079Y-117419160D01*
X103642490Y-117517002D01*
X103638581Y-117591264D01*
X103633684Y-117634864D01*
X103630141Y-117643408D01*
X103603081Y-117633257D01*
X103557124Y-117608403D01*
X103548407Y-117603169D01*
X103457307Y-117525044D01*
X103399140Y-117426369D01*
X103376394Y-117315436D01*
X103391554Y-117200536D01*
X103412025Y-117148460D01*
X103456275Y-117080584D01*
X103514832Y-117020796D01*
X103575897Y-116979340D01*
X103622056Y-116966154D01*
X103632032Y-116982078D01*
G37*
X103632032Y-116982078D02*
X103639199Y-117031556D01*
X103643736Y-117117142D01*
X103645825Y-117241390D01*
X103646016Y-117304820D01*
X103645079Y-117419160D01*
X103642490Y-117517002D01*
X103638581Y-117591264D01*
X103633684Y-117634864D01*
X103630141Y-117643408D01*
X103603081Y-117633257D01*
X103557124Y-117608403D01*
X103548407Y-117603169D01*
X103457307Y-117525044D01*
X103399140Y-117426369D01*
X103376394Y-117315436D01*
X103391554Y-117200536D01*
X103412025Y-117148460D01*
X103456275Y-117080584D01*
X103514832Y-117020796D01*
X103575897Y-116979340D01*
X103622056Y-116966154D01*
X103632032Y-116982078D01*
G36*
X103944993Y-115197544D02*
G01*
X104230364Y-115246359D01*
X104503068Y-115333663D01*
X104759735Y-115456648D01*
X104996997Y-115612503D01*
X105211484Y-115798419D01*
X105399829Y-116011586D01*
X105558663Y-116249195D01*
X105684616Y-116508436D01*
X105752513Y-116705049D01*
X105816019Y-116997420D01*
X105838364Y-117289708D01*
X105820488Y-117578400D01*
X105763328Y-117859984D01*
X105667824Y-118130948D01*
X105534913Y-118387779D01*
X105365534Y-118626964D01*
X105187543Y-118819598D01*
X104979435Y-118995515D01*
X104752927Y-119143763D01*
X104514890Y-119260986D01*
X104272192Y-119343829D01*
X104031703Y-119388938D01*
X104019161Y-119390211D01*
X103941211Y-119398600D01*
X103874224Y-119407244D01*
X103841517Y-119412615D01*
X103793602Y-119422439D01*
X103804766Y-118036953D01*
X103884227Y-118020449D01*
X104032494Y-117969045D01*
X104170298Y-117881791D01*
X104289956Y-117765079D01*
X104383786Y-117625300D01*
X104400901Y-117590570D01*
X104447900Y-117440924D01*
X104460472Y-117278270D01*
X104438418Y-117114516D01*
X104410441Y-117025669D01*
X104339040Y-116894117D01*
X104236132Y-116774531D01*
X104111347Y-116674996D01*
X103974314Y-116603598D01*
X103872388Y-116573947D01*
X103794182Y-116559276D01*
X103794182Y-115182684D01*
X103944993Y-115197544D01*
G37*
X103944993Y-115197544D02*
X104230364Y-115246359D01*
X104503068Y-115333663D01*
X104759735Y-115456648D01*
X104996997Y-115612503D01*
X105211484Y-115798419D01*
X105399829Y-116011586D01*
X105558663Y-116249195D01*
X105684616Y-116508436D01*
X105752513Y-116705049D01*
X105816019Y-116997420D01*
X105838364Y-117289708D01*
X105820488Y-117578400D01*
X105763328Y-117859984D01*
X105667824Y-118130948D01*
X105534913Y-118387779D01*
X105365534Y-118626964D01*
X105187543Y-118819598D01*
X104979435Y-118995515D01*
X104752927Y-119143763D01*
X104514890Y-119260986D01*
X104272192Y-119343829D01*
X104031703Y-119388938D01*
X104019161Y-119390211D01*
X103941211Y-119398600D01*
X103874224Y-119407244D01*
X103841517Y-119412615D01*
X103793602Y-119422439D01*
X103804766Y-118036953D01*
X103884227Y-118020449D01*
X104032494Y-117969045D01*
X104170298Y-117881791D01*
X104289956Y-117765079D01*
X104383786Y-117625300D01*
X104400901Y-117590570D01*
X104447900Y-117440924D01*
X104460472Y-117278270D01*
X104438418Y-117114516D01*
X104410441Y-117025669D01*
X104339040Y-116894117D01*
X104236132Y-116774531D01*
X104111347Y-116674996D01*
X103974314Y-116603598D01*
X103872388Y-116573947D01*
X103794182Y-116559276D01*
X103794182Y-115182684D01*
X103944993Y-115197544D01*
G36*
X103646016Y-115873147D02*
G01*
X103645795Y-116065075D01*
X103645014Y-116218719D01*
X103643491Y-116338131D01*
X103641043Y-116427357D01*
X103637490Y-116490448D01*
X103632650Y-116531453D01*
X103626342Y-116554420D01*
X103618384Y-116563399D01*
X103615060Y-116563987D01*
X103579647Y-116571061D01*
X103519301Y-116589413D01*
X103461601Y-116609760D01*
X103340755Y-116673405D01*
X103224319Y-116767722D01*
X103123366Y-116881575D01*
X103048966Y-117003829D01*
X103033570Y-117040237D01*
X103007545Y-117119797D01*
X102994585Y-117193709D01*
X102992219Y-117280756D01*
X102994386Y-117338046D01*
X103001990Y-117435202D01*
X103016581Y-117509023D01*
X103043299Y-117578468D01*
X103077598Y-117644963D01*
X103179226Y-117789796D01*
X103306987Y-117904027D01*
X103456321Y-117983848D01*
X103502902Y-117999983D01*
X103635432Y-118040661D01*
X103641013Y-118731074D01*
X103641880Y-118897056D01*
X103641756Y-119048537D01*
X103640718Y-119180581D01*
X103638842Y-119288255D01*
X103636204Y-119366622D01*
X103632879Y-119410748D01*
X103630430Y-119418741D01*
X103602685Y-119415055D01*
X103545092Y-119407971D01*
X103469852Y-119398989D01*
X103466099Y-119398546D01*
X103294214Y-119368278D01*
X103108082Y-119318684D01*
X102927427Y-119255695D01*
X102793246Y-119196222D01*
X102529620Y-119040958D01*
X102295949Y-118856043D01*
X102093229Y-118642699D01*
X101922451Y-118402151D01*
X101784610Y-118135622D01*
X101680700Y-117844335D01*
X101672933Y-117816534D01*
X101646380Y-117682693D01*
X101629736Y-117520214D01*
X101623000Y-117341614D01*
X101626174Y-117159413D01*
X101639257Y-116986129D01*
X101662251Y-116834281D01*
X101672895Y-116787508D01*
X101716586Y-116645251D01*
X101777163Y-116488499D01*
X101847957Y-116332263D01*
X101922299Y-116191551D01*
X101975316Y-116106772D01*
X102054322Y-116004307D01*
X102156844Y-115889146D01*
X102271636Y-115772752D01*
X102387452Y-115666591D01*
X102482042Y-115590177D01*
X102690341Y-115457803D01*
X102925481Y-115346732D01*
X103175403Y-115261571D01*
X103428043Y-115206930D01*
X103513724Y-115195987D01*
X103646016Y-115182307D01*
X103646016Y-115873147D01*
G37*
X103646016Y-115873147D02*
X103645795Y-116065075D01*
X103645014Y-116218719D01*
X103643491Y-116338131D01*
X103641043Y-116427357D01*
X103637490Y-116490448D01*
X103632650Y-116531453D01*
X103626342Y-116554420D01*
X103618384Y-116563399D01*
X103615060Y-116563987D01*
X103579647Y-116571061D01*
X103519301Y-116589413D01*
X103461601Y-116609760D01*
X103340755Y-116673405D01*
X103224319Y-116767722D01*
X103123366Y-116881575D01*
X103048966Y-117003829D01*
X103033570Y-117040237D01*
X103007545Y-117119797D01*
X102994585Y-117193709D01*
X102992219Y-117280756D01*
X102994386Y-117338046D01*
X103001990Y-117435202D01*
X103016581Y-117509023D01*
X103043299Y-117578468D01*
X103077598Y-117644963D01*
X103179226Y-117789796D01*
X103306987Y-117904027D01*
X103456321Y-117983848D01*
X103502902Y-117999983D01*
X103635432Y-118040661D01*
X103641013Y-118731074D01*
X103641880Y-118897056D01*
X103641756Y-119048537D01*
X103640718Y-119180581D01*
X103638842Y-119288255D01*
X103636204Y-119366622D01*
X103632879Y-119410748D01*
X103630430Y-119418741D01*
X103602685Y-119415055D01*
X103545092Y-119407971D01*
X103469852Y-119398989D01*
X103466099Y-119398546D01*
X103294214Y-119368278D01*
X103108082Y-119318684D01*
X102927427Y-119255695D01*
X102793246Y-119196222D01*
X102529620Y-119040958D01*
X102295949Y-118856043D01*
X102093229Y-118642699D01*
X101922451Y-118402151D01*
X101784610Y-118135622D01*
X101680700Y-117844335D01*
X101672933Y-117816534D01*
X101646380Y-117682693D01*
X101629736Y-117520214D01*
X101623000Y-117341614D01*
X101626174Y-117159413D01*
X101639257Y-116986129D01*
X101662251Y-116834281D01*
X101672895Y-116787508D01*
X101716586Y-116645251D01*
X101777163Y-116488499D01*
X101847957Y-116332263D01*
X101922299Y-116191551D01*
X101975316Y-116106772D01*
X102054322Y-116004307D01*
X102156844Y-115889146D01*
X102271636Y-115772752D01*
X102387452Y-115666591D01*
X102482042Y-115590177D01*
X102690341Y-115457803D01*
X102925481Y-115346732D01*
X103175403Y-115261571D01*
X103428043Y-115206930D01*
X103513724Y-115195987D01*
X103646016Y-115182307D01*
X103646016Y-115873147D01*
G36*
X107143807Y-114411378D02*
G01*
X107591150Y-114449545D01*
X108040675Y-114527634D01*
X108487680Y-114643797D01*
X108927463Y-114796187D01*
X109355321Y-114982957D01*
X109766552Y-115202258D01*
X110156452Y-115452243D01*
X110520319Y-115731064D01*
X110535766Y-115744057D01*
X110667676Y-115860683D01*
X110812825Y-115997905D01*
X110962716Y-116146992D01*
X111108855Y-116299212D01*
X111242747Y-116445834D01*
X111355896Y-116578127D01*
X111395321Y-116627487D01*
X111675509Y-117020432D01*
X111921960Y-117433932D01*
X112133351Y-117864440D01*
X112308358Y-118308411D01*
X112445657Y-118762298D01*
X112543925Y-119222557D01*
X112601837Y-119685642D01*
X112614316Y-119892445D01*
X112626832Y-120204654D01*
X106821016Y-120204654D01*
X106821016Y-118787565D01*
X107672686Y-118787565D01*
X107704536Y-118941952D01*
X107706318Y-118947174D01*
X107776960Y-119089995D01*
X107879379Y-119205803D01*
X108010302Y-119291324D01*
X108078495Y-119319351D01*
X108205560Y-119351202D01*
X108324338Y-119351811D01*
X108450427Y-119322373D01*
X108581888Y-119259628D01*
X108692066Y-119167221D01*
X108777646Y-119052282D01*
X108835314Y-118921940D01*
X108861754Y-118783327D01*
X108861320Y-118775834D01*
X110591283Y-118775834D01*
X110616105Y-118924219D01*
X110668289Y-119045327D01*
X110761581Y-119170706D01*
X110878447Y-119264639D01*
X111012402Y-119325139D01*
X111156963Y-119350224D01*
X111305646Y-119337907D01*
X111451968Y-119286206D01*
X111453209Y-119285579D01*
X111572605Y-119203897D01*
X111675664Y-119092056D01*
X111725601Y-119013743D01*
X111750068Y-118939820D01*
X111762966Y-118839812D01*
X111764403Y-118728324D01*
X111754488Y-118619963D01*
X111733329Y-118529333D01*
X111721801Y-118501439D01*
X111636270Y-118372135D01*
X111527114Y-118273606D01*
X111400725Y-118206776D01*
X111263496Y-118172568D01*
X111121818Y-118171905D01*
X110982084Y-118205712D01*
X110850687Y-118274913D01*
X110751304Y-118361204D01*
X110659642Y-118488074D01*
X110606048Y-118628368D01*
X110591283Y-118775834D01*
X108861320Y-118775834D01*
X108853652Y-118643572D01*
X108818136Y-118531411D01*
X108735953Y-118395473D01*
X108630230Y-118290018D01*
X108507009Y-118216041D01*
X108372330Y-118174536D01*
X108232237Y-118166497D01*
X108092770Y-118192920D01*
X107959971Y-118254799D01*
X107839882Y-118353128D01*
X107826019Y-118368084D01*
X107733811Y-118498777D01*
X107682573Y-118639222D01*
X107672686Y-118787565D01*
X106821016Y-118787565D01*
X106821016Y-115783352D01*
X107677144Y-115783352D01*
X107681796Y-115931490D01*
X107696535Y-115996236D01*
X107758930Y-116142288D01*
X107850345Y-116261983D01*
X107965158Y-116352448D01*
X108097748Y-116410814D01*
X108242494Y-116434212D01*
X108393776Y-116419769D01*
X108477199Y-116394856D01*
X108605013Y-116326226D01*
X108710648Y-116228438D01*
X108790887Y-116108935D01*
X108842511Y-115975160D01*
X108862303Y-115834556D01*
X108847045Y-115694568D01*
X108817215Y-115608329D01*
X108749103Y-115497379D01*
X108654332Y-115394995D01*
X108547415Y-115316259D01*
X108524230Y-115303868D01*
X108444724Y-115278263D01*
X108341672Y-115263859D01*
X108229679Y-115260764D01*
X108123351Y-115269087D01*
X108037294Y-115288935D01*
X108011926Y-115300068D01*
X107880800Y-115392188D01*
X107779435Y-115507545D01*
X107710621Y-115639985D01*
X107677144Y-115783352D01*
X106821016Y-115783352D01*
X106821016Y-114398609D01*
X107143807Y-114411378D01*
G37*
X107143807Y-114411378D02*
X107591150Y-114449545D01*
X108040675Y-114527634D01*
X108487680Y-114643797D01*
X108927463Y-114796187D01*
X109355321Y-114982957D01*
X109766552Y-115202258D01*
X110156452Y-115452243D01*
X110520319Y-115731064D01*
X110535766Y-115744057D01*
X110667676Y-115860683D01*
X110812825Y-115997905D01*
X110962716Y-116146992D01*
X111108855Y-116299212D01*
X111242747Y-116445834D01*
X111355896Y-116578127D01*
X111395321Y-116627487D01*
X111675509Y-117020432D01*
X111921960Y-117433932D01*
X112133351Y-117864440D01*
X112308358Y-118308411D01*
X112445657Y-118762298D01*
X112543925Y-119222557D01*
X112601837Y-119685642D01*
X112614316Y-119892445D01*
X112626832Y-120204654D01*
X106821016Y-120204654D01*
X106821016Y-118787565D01*
X107672686Y-118787565D01*
X107704536Y-118941952D01*
X107706318Y-118947174D01*
X107776960Y-119089995D01*
X107879379Y-119205803D01*
X108010302Y-119291324D01*
X108078495Y-119319351D01*
X108205560Y-119351202D01*
X108324338Y-119351811D01*
X108450427Y-119322373D01*
X108581888Y-119259628D01*
X108692066Y-119167221D01*
X108777646Y-119052282D01*
X108835314Y-118921940D01*
X108861754Y-118783327D01*
X108861320Y-118775834D01*
X110591283Y-118775834D01*
X110616105Y-118924219D01*
X110668289Y-119045327D01*
X110761581Y-119170706D01*
X110878447Y-119264639D01*
X111012402Y-119325139D01*
X111156963Y-119350224D01*
X111305646Y-119337907D01*
X111451968Y-119286206D01*
X111453209Y-119285579D01*
X111572605Y-119203897D01*
X111675664Y-119092056D01*
X111725601Y-119013743D01*
X111750068Y-118939820D01*
X111762966Y-118839812D01*
X111764403Y-118728324D01*
X111754488Y-118619963D01*
X111733329Y-118529333D01*
X111721801Y-118501439D01*
X111636270Y-118372135D01*
X111527114Y-118273606D01*
X111400725Y-118206776D01*
X111263496Y-118172568D01*
X111121818Y-118171905D01*
X110982084Y-118205712D01*
X110850687Y-118274913D01*
X110751304Y-118361204D01*
X110659642Y-118488074D01*
X110606048Y-118628368D01*
X110591283Y-118775834D01*
X108861320Y-118775834D01*
X108853652Y-118643572D01*
X108818136Y-118531411D01*
X108735953Y-118395473D01*
X108630230Y-118290018D01*
X108507009Y-118216041D01*
X108372330Y-118174536D01*
X108232237Y-118166497D01*
X108092770Y-118192920D01*
X107959971Y-118254799D01*
X107839882Y-118353128D01*
X107826019Y-118368084D01*
X107733811Y-118498777D01*
X107682573Y-118639222D01*
X107672686Y-118787565D01*
X106821016Y-118787565D01*
X106821016Y-115783352D01*
X107677144Y-115783352D01*
X107681796Y-115931490D01*
X107696535Y-115996236D01*
X107758930Y-116142288D01*
X107850345Y-116261983D01*
X107965158Y-116352448D01*
X108097748Y-116410814D01*
X108242494Y-116434212D01*
X108393776Y-116419769D01*
X108477199Y-116394856D01*
X108605013Y-116326226D01*
X108710648Y-116228438D01*
X108790887Y-116108935D01*
X108842511Y-115975160D01*
X108862303Y-115834556D01*
X108847045Y-115694568D01*
X108817215Y-115608329D01*
X108749103Y-115497379D01*
X108654332Y-115394995D01*
X108547415Y-115316259D01*
X108524230Y-115303868D01*
X108444724Y-115278263D01*
X108341672Y-115263859D01*
X108229679Y-115260764D01*
X108123351Y-115269087D01*
X108037294Y-115288935D01*
X108011926Y-115300068D01*
X107880800Y-115392188D01*
X107779435Y-115507545D01*
X107710621Y-115639985D01*
X107677144Y-115783352D01*
X106821016Y-115783352D01*
X106821016Y-114398609D01*
X107143807Y-114411378D01*
G36*
X106630516Y-120204654D02*
G01*
X103794182Y-120204654D01*
X103794182Y-119554775D01*
X103968807Y-119542183D01*
X104220846Y-119504405D01*
X104476259Y-119429157D01*
X104727761Y-119319936D01*
X104968068Y-119180243D01*
X105189894Y-119013577D01*
X105319976Y-118893186D01*
X105520796Y-118662313D01*
X105686438Y-118411840D01*
X105816225Y-118145536D01*
X105909482Y-117867173D01*
X105965535Y-117580521D01*
X105983709Y-117289351D01*
X105963329Y-116997434D01*
X105903720Y-116708540D01*
X105804207Y-116426439D01*
X105773631Y-116358722D01*
X105690104Y-116193014D01*
X105605658Y-116052389D01*
X105510299Y-115922385D01*
X105394031Y-115788540D01*
X105340062Y-115731344D01*
X105114317Y-115525941D01*
X104865081Y-115353853D01*
X104596503Y-115217110D01*
X104312734Y-115117742D01*
X104017922Y-115057778D01*
X103946173Y-115049494D01*
X103794182Y-115034517D01*
X103794182Y-114404987D01*
X106630516Y-114404987D01*
X106630516Y-120204654D01*
G37*
X106630516Y-120204654D02*
X103794182Y-120204654D01*
X103794182Y-119554775D01*
X103968807Y-119542183D01*
X104220846Y-119504405D01*
X104476259Y-119429157D01*
X104727761Y-119319936D01*
X104968068Y-119180243D01*
X105189894Y-119013577D01*
X105319976Y-118893186D01*
X105520796Y-118662313D01*
X105686438Y-118411840D01*
X105816225Y-118145536D01*
X105909482Y-117867173D01*
X105965535Y-117580521D01*
X105983709Y-117289351D01*
X105963329Y-116997434D01*
X105903720Y-116708540D01*
X105804207Y-116426439D01*
X105773631Y-116358722D01*
X105690104Y-116193014D01*
X105605658Y-116052389D01*
X105510299Y-115922385D01*
X105394031Y-115788540D01*
X105340062Y-115731344D01*
X105114317Y-115525941D01*
X104865081Y-115353853D01*
X104596503Y-115217110D01*
X104312734Y-115117742D01*
X104017922Y-115057778D01*
X103946173Y-115049494D01*
X103794182Y-115034517D01*
X103794182Y-114404987D01*
X106630516Y-114404987D01*
X106630516Y-120204654D01*
G36*
X103646016Y-115039987D02*
G01*
X103595871Y-115039987D01*
X103552761Y-115043499D01*
X103480888Y-115052871D01*
X103393132Y-115066355D01*
X103357746Y-115072289D01*
X103059542Y-115143424D01*
X102782705Y-115248788D01*
X102528551Y-115385327D01*
X102298393Y-115549988D01*
X102093546Y-115739717D01*
X101915323Y-115951461D01*
X101765041Y-116182166D01*
X101644013Y-116428779D01*
X101553552Y-116688246D01*
X101494975Y-116957514D01*
X101469595Y-117233529D01*
X101478726Y-117513238D01*
X101523682Y-117793587D01*
X101605779Y-118071522D01*
X101726331Y-118343991D01*
X101855509Y-118562259D01*
X101942373Y-118678338D01*
X102053429Y-118805396D01*
X102178024Y-118932761D01*
X102305503Y-119049760D01*
X102425209Y-119145720D01*
X102467084Y-119174872D01*
X102684273Y-119300729D01*
X102917865Y-119404844D01*
X103156475Y-119483100D01*
X103388719Y-119531381D01*
X103481974Y-119541758D01*
X103646016Y-119554761D01*
X103646016Y-120204654D01*
X103577224Y-120201976D01*
X103520485Y-120197870D01*
X103440018Y-120189783D01*
X103360266Y-120180335D01*
X103019419Y-120116074D01*
X102694034Y-120013863D01*
X102386532Y-119876023D01*
X102099332Y-119704879D01*
X101834855Y-119502753D01*
X101595523Y-119271969D01*
X101383755Y-119014851D01*
X101201973Y-118733722D01*
X101052597Y-118430904D01*
X100938048Y-118108722D01*
X100863131Y-117783589D01*
X100845356Y-117640041D01*
X100835003Y-117469065D01*
X100832085Y-117284915D01*
X100836614Y-117101843D01*
X100848605Y-116934104D01*
X100862234Y-116828570D01*
X100938530Y-116486365D01*
X101052228Y-116163752D01*
X101203691Y-115860028D01*
X101393281Y-115574489D01*
X101621362Y-115306430D01*
X101676168Y-115250306D01*
X101937077Y-115017573D01*
X102218022Y-114820142D01*
X102516147Y-114659350D01*
X102828594Y-114536531D01*
X103152510Y-114453019D01*
X103471391Y-114411085D01*
X103646016Y-114398699D01*
X103646016Y-115039987D01*
G37*
X103646016Y-115039987D02*
X103595871Y-115039987D01*
X103552761Y-115043499D01*
X103480888Y-115052871D01*
X103393132Y-115066355D01*
X103357746Y-115072289D01*
X103059542Y-115143424D01*
X102782705Y-115248788D01*
X102528551Y-115385327D01*
X102298393Y-115549988D01*
X102093546Y-115739717D01*
X101915323Y-115951461D01*
X101765041Y-116182166D01*
X101644013Y-116428779D01*
X101553552Y-116688246D01*
X101494975Y-116957514D01*
X101469595Y-117233529D01*
X101478726Y-117513238D01*
X101523682Y-117793587D01*
X101605779Y-118071522D01*
X101726331Y-118343991D01*
X101855509Y-118562259D01*
X101942373Y-118678338D01*
X102053429Y-118805396D01*
X102178024Y-118932761D01*
X102305503Y-119049760D01*
X102425209Y-119145720D01*
X102467084Y-119174872D01*
X102684273Y-119300729D01*
X102917865Y-119404844D01*
X103156475Y-119483100D01*
X103388719Y-119531381D01*
X103481974Y-119541758D01*
X103646016Y-119554761D01*
X103646016Y-120204654D01*
X103577224Y-120201976D01*
X103520485Y-120197870D01*
X103440018Y-120189783D01*
X103360266Y-120180335D01*
X103019419Y-120116074D01*
X102694034Y-120013863D01*
X102386532Y-119876023D01*
X102099332Y-119704879D01*
X101834855Y-119502753D01*
X101595523Y-119271969D01*
X101383755Y-119014851D01*
X101201973Y-118733722D01*
X101052597Y-118430904D01*
X100938048Y-118108722D01*
X100863131Y-117783589D01*
X100845356Y-117640041D01*
X100835003Y-117469065D01*
X100832085Y-117284915D01*
X100836614Y-117101843D01*
X100848605Y-116934104D01*
X100862234Y-116828570D01*
X100938530Y-116486365D01*
X101052228Y-116163752D01*
X101203691Y-115860028D01*
X101393281Y-115574489D01*
X101621362Y-115306430D01*
X101676168Y-115250306D01*
X101937077Y-115017573D01*
X102218022Y-114820142D01*
X102516147Y-114659350D01*
X102828594Y-114536531D01*
X103152510Y-114453019D01*
X103471391Y-114411085D01*
X103646016Y-114398699D01*
X103646016Y-115039987D01*
G36*
X109846791Y-122972642D02*
G01*
X109941661Y-123023784D01*
X110005505Y-123090588D01*
X110041405Y-123139782D01*
X110060406Y-123175955D01*
X110058452Y-123201105D01*
X110031482Y-123217233D01*
X109975439Y-123226336D01*
X109886263Y-123230413D01*
X109759898Y-123231463D01*
X109719422Y-123231487D01*
X109379329Y-123231487D01*
X109394116Y-123183862D01*
X109445862Y-123083624D01*
X109527806Y-123010090D01*
X109634707Y-122966805D01*
X109730391Y-122956320D01*
X109846791Y-122972642D01*
G37*
X109846791Y-122972642D02*
X109941661Y-123023784D01*
X110005505Y-123090588D01*
X110041405Y-123139782D01*
X110060406Y-123175955D01*
X110058452Y-123201105D01*
X110031482Y-123217233D01*
X109975439Y-123226336D01*
X109886263Y-123230413D01*
X109759898Y-123231463D01*
X109719422Y-123231487D01*
X109379329Y-123231487D01*
X109394116Y-123183862D01*
X109445862Y-123083624D01*
X109527806Y-123010090D01*
X109634707Y-122966805D01*
X109730391Y-122956320D01*
X109846791Y-122972642D01*
G36*
X108466724Y-120400708D02*
G01*
X108769788Y-120402152D01*
X109033656Y-120403513D01*
X109261464Y-120404885D01*
X109456350Y-120406363D01*
X109621450Y-120408038D01*
X109759901Y-120410006D01*
X109874839Y-120412359D01*
X109969402Y-120415190D01*
X110046726Y-120418595D01*
X110109947Y-120422665D01*
X110162204Y-120427495D01*
X110206632Y-120433178D01*
X110246368Y-120439807D01*
X110284549Y-120447477D01*
X110323394Y-120456073D01*
X110669346Y-120554764D01*
X110994264Y-120689080D01*
X111296256Y-120857542D01*
X111573434Y-121058674D01*
X111823907Y-121290996D01*
X112045785Y-121553031D01*
X112237177Y-121843302D01*
X112336318Y-122029838D01*
X112417753Y-122216696D01*
X112489322Y-122419497D01*
X112548137Y-122627198D01*
X112591312Y-122828755D01*
X112615962Y-123013124D01*
X112620682Y-123117843D01*
X112620682Y-123231487D01*
X110466393Y-123231487D01*
X110451669Y-123152112D01*
X110420274Y-123051994D01*
X110365692Y-122941677D01*
X110297528Y-122837737D01*
X110225384Y-122756752D01*
X110219751Y-122751780D01*
X110070096Y-122647749D01*
X109910648Y-122583735D01*
X109744956Y-122560280D01*
X109576569Y-122577925D01*
X109423322Y-122630461D01*
X109286012Y-122714409D01*
X109167150Y-122827415D01*
X109074084Y-122960497D01*
X109014164Y-123104676D01*
X109005216Y-123141442D01*
X108988709Y-123220904D01*
X107904862Y-123226387D01*
X106821016Y-123231871D01*
X106821016Y-120393001D01*
X108466724Y-120400708D01*
G37*
X108466724Y-120400708D02*
X108769788Y-120402152D01*
X109033656Y-120403513D01*
X109261464Y-120404885D01*
X109456350Y-120406363D01*
X109621450Y-120408038D01*
X109759901Y-120410006D01*
X109874839Y-120412359D01*
X109969402Y-120415190D01*
X110046726Y-120418595D01*
X110109947Y-120422665D01*
X110162204Y-120427495D01*
X110206632Y-120433178D01*
X110246368Y-120439807D01*
X110284549Y-120447477D01*
X110323394Y-120456073D01*
X110669346Y-120554764D01*
X110994264Y-120689080D01*
X111296256Y-120857542D01*
X111573434Y-121058674D01*
X111823907Y-121290996D01*
X112045785Y-121553031D01*
X112237177Y-121843302D01*
X112336318Y-122029838D01*
X112417753Y-122216696D01*
X112489322Y-122419497D01*
X112548137Y-122627198D01*
X112591312Y-122828755D01*
X112615962Y-123013124D01*
X112620682Y-123117843D01*
X112620682Y-123231487D01*
X110466393Y-123231487D01*
X110451669Y-123152112D01*
X110420274Y-123051994D01*
X110365692Y-122941677D01*
X110297528Y-122837737D01*
X110225384Y-122756752D01*
X110219751Y-122751780D01*
X110070096Y-122647749D01*
X109910648Y-122583735D01*
X109744956Y-122560280D01*
X109576569Y-122577925D01*
X109423322Y-122630461D01*
X109286012Y-122714409D01*
X109167150Y-122827415D01*
X109074084Y-122960497D01*
X109014164Y-123104676D01*
X109005216Y-123141442D01*
X108988709Y-123220904D01*
X107904862Y-123226387D01*
X106821016Y-123231871D01*
X106821016Y-120393001D01*
X108466724Y-120400708D01*
G36*
X106630516Y-123231487D02*
G01*
X101557475Y-123231487D01*
X101439124Y-122993362D01*
X101238841Y-122546946D01*
X101077779Y-122093418D01*
X100956669Y-121635544D01*
X100876244Y-121176091D01*
X100837240Y-120717945D01*
X100824471Y-120395154D01*
X106630516Y-120395154D01*
X106630516Y-123231487D01*
G37*
X106630516Y-123231487D02*
X101557475Y-123231487D01*
X101439124Y-122993362D01*
X101238841Y-122546946D01*
X101077779Y-122093418D01*
X100956669Y-121635544D01*
X100876244Y-121176091D01*
X100837240Y-120717945D01*
X100824471Y-120395154D01*
X106630516Y-120395154D01*
X106630516Y-123231487D01*
G36*
X109861870Y-123380780D02*
G01*
X109963169Y-123384281D01*
X110027302Y-123390336D01*
X110056823Y-123399126D01*
X110059516Y-123403613D01*
X110042793Y-123456069D01*
X109999635Y-123516849D01*
X109940558Y-123573622D01*
X109882701Y-123610985D01*
X109767090Y-123647915D01*
X109649779Y-123644823D01*
X109625599Y-123639625D01*
X109564910Y-123611851D01*
X109499785Y-123562349D01*
X109440664Y-123501771D01*
X109397989Y-123440768D01*
X109382182Y-123391288D01*
X109402168Y-123387360D01*
X109457401Y-123383998D01*
X109540798Y-123381446D01*
X109645274Y-123379947D01*
X109720849Y-123379654D01*
X109861870Y-123380780D01*
G37*
X109861870Y-123380780D02*
X109963169Y-123384281D01*
X110027302Y-123390336D01*
X110056823Y-123399126D01*
X110059516Y-123403613D01*
X110042793Y-123456069D01*
X109999635Y-123516849D01*
X109940558Y-123573622D01*
X109882701Y-123610985D01*
X109767090Y-123647915D01*
X109649779Y-123644823D01*
X109625599Y-123639625D01*
X109564910Y-123611851D01*
X109499785Y-123562349D01*
X109440664Y-123501771D01*
X109397989Y-123440768D01*
X109382182Y-123391288D01*
X109402168Y-123387360D01*
X109457401Y-123383998D01*
X109540798Y-123381446D01*
X109645274Y-123379947D01*
X109720849Y-123379654D01*
X109861870Y-123380780D01*
G36*
X106651682Y-124766070D02*
G01*
X106651632Y-125042640D01*
X106651430Y-125279872D01*
X106650994Y-125480762D01*
X106650244Y-125648305D01*
X106649101Y-125785497D01*
X106647484Y-125895333D01*
X106645313Y-125980810D01*
X106642508Y-126044921D01*
X106638989Y-126090664D01*
X106634675Y-126121034D01*
X106629487Y-126139026D01*
X106623343Y-126147635D01*
X106616165Y-126149858D01*
X106614641Y-126149803D01*
X106574279Y-126145667D01*
X106508268Y-126137751D01*
X106450599Y-126130348D01*
X106222048Y-126080308D01*
X106012846Y-125995512D01*
X105825030Y-125879832D01*
X105660636Y-125737143D01*
X105521699Y-125571319D01*
X105410255Y-125386234D01*
X105328341Y-125185760D01*
X105277992Y-124973773D01*
X105261244Y-124754147D01*
X105280134Y-124530754D01*
X105336696Y-124307470D01*
X105405434Y-124141654D01*
X105500979Y-123982544D01*
X105626217Y-123828094D01*
X105770952Y-123688628D01*
X105924986Y-123574467D01*
X106016682Y-123522875D01*
X106182734Y-123453365D01*
X106350368Y-123405061D01*
X106505907Y-123381620D01*
X106551141Y-123379966D01*
X106651682Y-123379654D01*
X106651682Y-124766070D01*
G37*
X106651682Y-124766070D02*
X106651632Y-125042640D01*
X106651430Y-125279872D01*
X106650994Y-125480762D01*
X106650244Y-125648305D01*
X106649101Y-125785497D01*
X106647484Y-125895333D01*
X106645313Y-125980810D01*
X106642508Y-126044921D01*
X106638989Y-126090664D01*
X106634675Y-126121034D01*
X106629487Y-126139026D01*
X106623343Y-126147635D01*
X106616165Y-126149858D01*
X106614641Y-126149803D01*
X106574279Y-126145667D01*
X106508268Y-126137751D01*
X106450599Y-126130348D01*
X106222048Y-126080308D01*
X106012846Y-125995512D01*
X105825030Y-125879832D01*
X105660636Y-125737143D01*
X105521699Y-125571319D01*
X105410255Y-125386234D01*
X105328341Y-125185760D01*
X105277992Y-124973773D01*
X105261244Y-124754147D01*
X105280134Y-124530754D01*
X105336696Y-124307470D01*
X105405434Y-124141654D01*
X105500979Y-123982544D01*
X105626217Y-123828094D01*
X105770952Y-123688628D01*
X105924986Y-123574467D01*
X106016682Y-123522875D01*
X106182734Y-123453365D01*
X106350368Y-123405061D01*
X106505907Y-123381620D01*
X106551141Y-123379966D01*
X106651682Y-123379654D01*
X106651682Y-124766070D01*
G36*
X105814606Y-123476132D02*
G01*
X105734513Y-123531284D01*
X105658749Y-123587941D01*
X105602103Y-123634978D01*
X105596528Y-123640174D01*
X105454013Y-123800049D01*
X105327929Y-123988695D01*
X105225606Y-124193537D01*
X105156032Y-124395654D01*
X105135372Y-124506866D01*
X105123002Y-124642941D01*
X105119128Y-124788964D01*
X105123951Y-124930020D01*
X105137675Y-125051194D01*
X105146531Y-125094154D01*
X105221898Y-125319380D01*
X105331138Y-125533256D01*
X105469292Y-125729230D01*
X105631402Y-125900752D01*
X105812510Y-126041271D01*
X105904671Y-126095751D01*
X105966543Y-126129688D01*
X106000943Y-126152338D01*
X106005208Y-126164512D01*
X105976678Y-126167026D01*
X105912691Y-126160692D01*
X105810585Y-126146323D01*
X105762682Y-126139144D01*
X105301666Y-126048823D01*
X104844127Y-125918605D01*
X104395408Y-125750840D01*
X103960852Y-125547880D01*
X103545802Y-125312073D01*
X103155600Y-125045772D01*
X102996139Y-124921952D01*
X102845186Y-124793362D01*
X102680070Y-124641271D01*
X102511586Y-124476372D01*
X102350529Y-124309361D01*
X102207694Y-124150929D01*
X102155086Y-124088737D01*
X102076897Y-123991190D01*
X101992267Y-123880764D01*
X101906952Y-123765464D01*
X101826705Y-123653295D01*
X101757281Y-123552262D01*
X101704432Y-123470370D01*
X101679627Y-123427279D01*
X101654859Y-123379654D01*
X105961780Y-123379654D01*
X105814606Y-123476132D01*
G37*
X105814606Y-123476132D02*
X105734513Y-123531284D01*
X105658749Y-123587941D01*
X105602103Y-123634978D01*
X105596528Y-123640174D01*
X105454013Y-123800049D01*
X105327929Y-123988695D01*
X105225606Y-124193537D01*
X105156032Y-124395654D01*
X105135372Y-124506866D01*
X105123002Y-124642941D01*
X105119128Y-124788964D01*
X105123951Y-124930020D01*
X105137675Y-125051194D01*
X105146531Y-125094154D01*
X105221898Y-125319380D01*
X105331138Y-125533256D01*
X105469292Y-125729230D01*
X105631402Y-125900752D01*
X105812510Y-126041271D01*
X105904671Y-126095751D01*
X105966543Y-126129688D01*
X106000943Y-126152338D01*
X106005208Y-126164512D01*
X105976678Y-126167026D01*
X105912691Y-126160692D01*
X105810585Y-126146323D01*
X105762682Y-126139144D01*
X105301666Y-126048823D01*
X104844127Y-125918605D01*
X104395408Y-125750840D01*
X103960852Y-125547880D01*
X103545802Y-125312073D01*
X103155600Y-125045772D01*
X102996139Y-124921952D01*
X102845186Y-124793362D01*
X102680070Y-124641271D01*
X102511586Y-124476372D01*
X102350529Y-124309361D01*
X102207694Y-124150929D01*
X102155086Y-124088737D01*
X102076897Y-123991190D01*
X101992267Y-123880764D01*
X101906952Y-123765464D01*
X101826705Y-123653295D01*
X101757281Y-123552262D01*
X101704432Y-123470370D01*
X101679627Y-123427279D01*
X101654859Y-123379654D01*
X105961780Y-123379654D01*
X105814606Y-123476132D01*
G36*
X108987838Y-123390237D02*
G01*
X109012254Y-123485487D01*
X109074611Y-123648195D01*
X109171897Y-123787142D01*
X109303492Y-123901556D01*
X109385865Y-123951414D01*
X109539740Y-124011326D01*
X109704230Y-124036133D01*
X109868082Y-124025018D01*
X109979117Y-123994401D01*
X110122165Y-123919570D01*
X110249163Y-123812839D01*
X110352373Y-123682808D01*
X110424061Y-123538079D01*
X110441633Y-123480195D01*
X110466708Y-123379654D01*
X112626970Y-123379654D01*
X112614584Y-123554279D01*
X112570039Y-123886511D01*
X112484904Y-124210016D01*
X112360516Y-124521937D01*
X112198208Y-124819419D01*
X111999317Y-125099605D01*
X111775363Y-125349501D01*
X111511017Y-125586012D01*
X111229344Y-125783953D01*
X110929640Y-125943687D01*
X110611201Y-126065578D01*
X110273322Y-126149988D01*
X110197099Y-126163435D01*
X110153264Y-126169519D01*
X110099170Y-126174797D01*
X110031840Y-126179321D01*
X109948300Y-126183144D01*
X109845572Y-126186317D01*
X109720683Y-126188893D01*
X109570656Y-126190924D01*
X109392516Y-126192463D01*
X109183287Y-126193560D01*
X108939994Y-126194270D01*
X108659660Y-126194643D01*
X108413807Y-126194735D01*
X106821016Y-126194820D01*
X106821016Y-123379269D01*
X108987838Y-123390237D01*
G37*
X108987838Y-123390237D02*
X109012254Y-123485487D01*
X109074611Y-123648195D01*
X109171897Y-123787142D01*
X109303492Y-123901556D01*
X109385865Y-123951414D01*
X109539740Y-124011326D01*
X109704230Y-124036133D01*
X109868082Y-124025018D01*
X109979117Y-123994401D01*
X110122165Y-123919570D01*
X110249163Y-123812839D01*
X110352373Y-123682808D01*
X110424061Y-123538079D01*
X110441633Y-123480195D01*
X110466708Y-123379654D01*
X112626970Y-123379654D01*
X112614584Y-123554279D01*
X112570039Y-123886511D01*
X112484904Y-124210016D01*
X112360516Y-124521937D01*
X112198208Y-124819419D01*
X111999317Y-125099605D01*
X111775363Y-125349501D01*
X111511017Y-125586012D01*
X111229344Y-125783953D01*
X110929640Y-125943687D01*
X110611201Y-126065578D01*
X110273322Y-126149988D01*
X110197099Y-126163435D01*
X110153264Y-126169519D01*
X110099170Y-126174797D01*
X110031840Y-126179321D01*
X109948300Y-126183144D01*
X109845572Y-126186317D01*
X109720683Y-126188893D01*
X109570656Y-126190924D01*
X109392516Y-126192463D01*
X109183287Y-126193560D01*
X108939994Y-126194270D01*
X108659660Y-126194643D01*
X108413807Y-126194735D01*
X106821016Y-126194820D01*
X106821016Y-123379269D01*
X108987838Y-123390237D01*
%LPC*%
D14*
X177551080Y-71074280D02*
X119250460Y-71074280D01*
X177550460Y-71074280D02*
X177550460Y-129367280D01*
X177551080Y-129372360D02*
X119249500Y-129368320D01*
X92158820Y-131414520D02*
X92158820Y-69032120D01*
X94919800Y-66255900D02*
X181737000Y-66255900D01*
X184533799Y-131414520D02*
X184533799Y-69032120D01*
X94917260Y-134193280D02*
X181737000Y-134165319D01*
X119249500Y-71074280D02*
X119249500Y-129368320D01*
D15*
X181787255Y-131465320D03*
D16*
X181787255Y-131465320D03*
D15*
X94858819Y-131490720D03*
D16*
X94858819Y-131490720D03*
D15*
X181833800Y-68955920D03*
D16*
X181833800Y-68955920D03*
D15*
X94869000Y-68955920D03*
D16*
X94869000Y-68955920D03*
M02*
