%TF.GenerationSoftware,KiCad,Pcbnew,(5.1.10-1-10_14)*%
%TF.CreationDate,2021-08-26T21:48:09+08:00*%
%TF.ProjectId,SMP top plate v.2 ,534d5020-746f-4702-9070-6c6174652076,rev?*%
%TF.SameCoordinates,Original*%
%TF.FileFunction,Copper,L1,Top*%
%TF.FilePolarity,Positive*%
%FSLAX46Y46*%
G04 Gerber Fmt 4.6, Leading zero omitted, Abs format (unit mm)*
G04 Created by KiCad (PCBNEW (5.1.10-1-10_14)) date 2021-08-26 21:48:09*
%MOMM*%
%LPD*%
G01*
G04 APERTURE LIST*
%TA.AperFunction,Profile*%
%ADD10C,0.050000*%
%TD*%
%TA.AperFunction,NonConductor*%
%ADD11C,0.500000*%
%TD*%
%TA.AperFunction,ConnectorPad*%
%ADD12C,6.400000*%
%TD*%
%TA.AperFunction,ComponentPad*%
%ADD13C,3.600000*%
%TD*%
%TA.AperFunction,NonConductor*%
%ADD14C,0.254000*%
%TD*%
%TA.AperFunction,NonConductor*%
%ADD15C,0.100000*%
%TD*%
%ADD16C,0.350000*%
G04 APERTURE END LIST*
D10*
X194200780Y-129593340D02*
G75*
G02*
X193878747Y-129928609I-322021J-12986D01*
G01*
X193878200Y-71188580D02*
G75*
G02*
X194213469Y-71510613I12986J-322021D01*
G01*
X183972200Y-81432400D02*
X107543600Y-81432400D01*
X183972200Y-119735600D02*
X183972200Y-81432400D01*
X107543600Y-119735600D02*
X183972200Y-119735600D01*
X107543600Y-81432400D02*
X107543600Y-119735600D01*
X79839820Y-129931160D02*
G75*
G02*
X79514700Y-129606040I0J325120D01*
G01*
X79517240Y-71513700D02*
G75*
G02*
X79842360Y-71188580I325120J0D01*
G01*
X79839820Y-129931160D02*
X193878200Y-129928620D01*
X194200780Y-129593340D02*
X194213469Y-71510613D01*
X193878200Y-71188580D02*
X79842360Y-71188580D01*
X79517240Y-71513700D02*
X79514700Y-129606040D01*
D11*
X79791560Y-129651760D02*
X79792640Y-71462900D01*
X193939000Y-129651760D02*
X193939000Y-71462900D01*
X79792640Y-71462900D02*
X193929000Y-71462900D01*
X79791560Y-129651760D02*
X193939000Y-129651760D01*
X193939000Y-71462900D02*
X193936460Y-129654300D01*
X184251600Y-81153000D02*
X107264200Y-81153000D01*
X107264200Y-120015000D02*
X107264200Y-81153000D01*
X107264200Y-120015000D02*
X184251600Y-120015000D01*
X184251600Y-120015000D02*
X184251600Y-81153000D01*
D12*
%TO.P,H1,1*%
%TO.N,Net-(H1-Pad1)*%
X189052200Y-76352400D03*
D13*
X189052200Y-76352400D03*
%TD*%
D12*
%TO.P,H4,1*%
%TO.N,Net-(H4-Pad1)*%
X84679600Y-124764800D03*
D13*
X84679600Y-124764800D03*
%TD*%
D12*
%TO.P,H3,1*%
%TO.N,Net-(H3-Pad1)*%
X84679600Y-76352400D03*
D13*
X84679600Y-76352400D03*
%TD*%
D12*
%TO.P,H2,1*%
%TO.N,Net-(H2-Pad1)*%
X189052200Y-124764800D03*
D13*
X189052200Y-124764800D03*
%TD*%
D14*
X193051500Y-128766760D02*
X80676576Y-128766760D01*
X80676657Y-124387085D01*
X80844600Y-124387085D01*
X80844600Y-125142515D01*
X80991977Y-125883428D01*
X81281067Y-126581354D01*
X81700761Y-127209470D01*
X82234930Y-127743639D01*
X82863046Y-128163333D01*
X83560972Y-128452423D01*
X84301885Y-128599800D01*
X85057315Y-128599800D01*
X85798228Y-128452423D01*
X86496154Y-128163333D01*
X87124270Y-127743639D01*
X87658439Y-127209470D01*
X88078133Y-126581354D01*
X88367223Y-125883428D01*
X88514600Y-125142515D01*
X88514600Y-124387085D01*
X185217200Y-124387085D01*
X185217200Y-125142515D01*
X185364577Y-125883428D01*
X185653667Y-126581354D01*
X186073361Y-127209470D01*
X186607530Y-127743639D01*
X187235646Y-128163333D01*
X187933572Y-128452423D01*
X188674485Y-128599800D01*
X189429915Y-128599800D01*
X190170828Y-128452423D01*
X190868754Y-128163333D01*
X191496870Y-127743639D01*
X192031039Y-127209470D01*
X192450733Y-126581354D01*
X192739823Y-125883428D01*
X192887200Y-125142515D01*
X192887200Y-124387085D01*
X192739823Y-123646172D01*
X192450733Y-122948246D01*
X192031039Y-122320130D01*
X191496870Y-121785961D01*
X190868754Y-121366267D01*
X190170828Y-121077177D01*
X189429915Y-120929800D01*
X188674485Y-120929800D01*
X187933572Y-121077177D01*
X187235646Y-121366267D01*
X186607530Y-121785961D01*
X186073361Y-122320130D01*
X185653667Y-122948246D01*
X185364577Y-123646172D01*
X185217200Y-124387085D01*
X88514600Y-124387085D01*
X88367223Y-123646172D01*
X88078133Y-122948246D01*
X87658439Y-122320130D01*
X87124270Y-121785961D01*
X86496154Y-121366267D01*
X85798228Y-121077177D01*
X85057315Y-120929800D01*
X84301885Y-120929800D01*
X83560972Y-121077177D01*
X82863046Y-121366267D01*
X82234930Y-121785961D01*
X81700761Y-122320130D01*
X81281067Y-122948246D01*
X80991977Y-123646172D01*
X80844600Y-124387085D01*
X80676657Y-124387085D01*
X80677458Y-81153000D01*
X106374918Y-81153000D01*
X106379201Y-81196487D01*
X106379200Y-119971523D01*
X106374918Y-120015000D01*
X106392005Y-120188490D01*
X106442611Y-120355313D01*
X106524789Y-120509059D01*
X106635383Y-120643817D01*
X106770141Y-120754411D01*
X106923887Y-120836589D01*
X107090710Y-120887195D01*
X107264200Y-120904282D01*
X107307676Y-120900000D01*
X184208123Y-120900000D01*
X184251600Y-120904282D01*
X184295076Y-120900000D01*
X184295077Y-120900000D01*
X184425090Y-120887195D01*
X184591913Y-120836589D01*
X184745659Y-120754411D01*
X184880417Y-120643817D01*
X184991011Y-120509059D01*
X185073189Y-120355313D01*
X185123795Y-120188490D01*
X185123795Y-120188489D01*
X185136600Y-120058477D01*
X185136600Y-120058476D01*
X185140882Y-120015000D01*
X185136600Y-119971523D01*
X185136600Y-81196477D01*
X185140882Y-81153000D01*
X185132112Y-81063950D01*
X185123795Y-80979510D01*
X185073189Y-80812687D01*
X184991011Y-80658941D01*
X184880417Y-80524183D01*
X184745659Y-80413589D01*
X184591913Y-80331411D01*
X184425090Y-80280805D01*
X184251600Y-80263718D01*
X184208124Y-80268000D01*
X107307677Y-80268000D01*
X107264200Y-80263718D01*
X107220724Y-80268000D01*
X107220723Y-80268000D01*
X107090710Y-80280805D01*
X106923887Y-80331411D01*
X106770141Y-80413589D01*
X106635383Y-80524183D01*
X106524789Y-80658941D01*
X106442611Y-80812687D01*
X106392005Y-80979510D01*
X106374918Y-81153000D01*
X80677458Y-81153000D01*
X80677555Y-75974685D01*
X80844600Y-75974685D01*
X80844600Y-76730115D01*
X80991977Y-77471028D01*
X81281067Y-78168954D01*
X81700761Y-78797070D01*
X82234930Y-79331239D01*
X82863046Y-79750933D01*
X83560972Y-80040023D01*
X84301885Y-80187400D01*
X85057315Y-80187400D01*
X85798228Y-80040023D01*
X86496154Y-79750933D01*
X87124270Y-79331239D01*
X87658439Y-78797070D01*
X88078133Y-78168954D01*
X88367223Y-77471028D01*
X88514600Y-76730115D01*
X88514600Y-75974685D01*
X185217200Y-75974685D01*
X185217200Y-76730115D01*
X185364577Y-77471028D01*
X185653667Y-78168954D01*
X186073361Y-78797070D01*
X186607530Y-79331239D01*
X187235646Y-79750933D01*
X187933572Y-80040023D01*
X188674485Y-80187400D01*
X189429915Y-80187400D01*
X190170828Y-80040023D01*
X190868754Y-79750933D01*
X191496870Y-79331239D01*
X192031039Y-78797070D01*
X192450733Y-78168954D01*
X192739823Y-77471028D01*
X192887200Y-76730115D01*
X192887200Y-75974685D01*
X192739823Y-75233772D01*
X192450733Y-74535846D01*
X192031039Y-73907730D01*
X191496870Y-73373561D01*
X190868754Y-72953867D01*
X190170828Y-72664777D01*
X189429915Y-72517400D01*
X188674485Y-72517400D01*
X187933572Y-72664777D01*
X187235646Y-72953867D01*
X186607530Y-73373561D01*
X186073361Y-73907730D01*
X185653667Y-74535846D01*
X185364577Y-75233772D01*
X185217200Y-75974685D01*
X88514600Y-75974685D01*
X88367223Y-75233772D01*
X88078133Y-74535846D01*
X87658439Y-73907730D01*
X87124270Y-73373561D01*
X86496154Y-72953867D01*
X85798228Y-72664777D01*
X85057315Y-72517400D01*
X84301885Y-72517400D01*
X83560972Y-72664777D01*
X82863046Y-72953867D01*
X82234930Y-73373561D01*
X81700761Y-73907730D01*
X81281067Y-74535846D01*
X80991977Y-75233772D01*
X80844600Y-75974685D01*
X80677555Y-75974685D01*
X80677623Y-72347900D01*
X193053961Y-72347900D01*
X193051500Y-128766760D01*
%TA.AperFunction,NonConductor*%
D15*
G36*
X193051500Y-128766760D02*
G01*
X80676576Y-128766760D01*
X80676657Y-124387085D01*
X80844600Y-124387085D01*
X80844600Y-125142515D01*
X80991977Y-125883428D01*
X81281067Y-126581354D01*
X81700761Y-127209470D01*
X82234930Y-127743639D01*
X82863046Y-128163333D01*
X83560972Y-128452423D01*
X84301885Y-128599800D01*
X85057315Y-128599800D01*
X85798228Y-128452423D01*
X86496154Y-128163333D01*
X87124270Y-127743639D01*
X87658439Y-127209470D01*
X88078133Y-126581354D01*
X88367223Y-125883428D01*
X88514600Y-125142515D01*
X88514600Y-124387085D01*
X185217200Y-124387085D01*
X185217200Y-125142515D01*
X185364577Y-125883428D01*
X185653667Y-126581354D01*
X186073361Y-127209470D01*
X186607530Y-127743639D01*
X187235646Y-128163333D01*
X187933572Y-128452423D01*
X188674485Y-128599800D01*
X189429915Y-128599800D01*
X190170828Y-128452423D01*
X190868754Y-128163333D01*
X191496870Y-127743639D01*
X192031039Y-127209470D01*
X192450733Y-126581354D01*
X192739823Y-125883428D01*
X192887200Y-125142515D01*
X192887200Y-124387085D01*
X192739823Y-123646172D01*
X192450733Y-122948246D01*
X192031039Y-122320130D01*
X191496870Y-121785961D01*
X190868754Y-121366267D01*
X190170828Y-121077177D01*
X189429915Y-120929800D01*
X188674485Y-120929800D01*
X187933572Y-121077177D01*
X187235646Y-121366267D01*
X186607530Y-121785961D01*
X186073361Y-122320130D01*
X185653667Y-122948246D01*
X185364577Y-123646172D01*
X185217200Y-124387085D01*
X88514600Y-124387085D01*
X88367223Y-123646172D01*
X88078133Y-122948246D01*
X87658439Y-122320130D01*
X87124270Y-121785961D01*
X86496154Y-121366267D01*
X85798228Y-121077177D01*
X85057315Y-120929800D01*
X84301885Y-120929800D01*
X83560972Y-121077177D01*
X82863046Y-121366267D01*
X82234930Y-121785961D01*
X81700761Y-122320130D01*
X81281067Y-122948246D01*
X80991977Y-123646172D01*
X80844600Y-124387085D01*
X80676657Y-124387085D01*
X80677458Y-81153000D01*
X106374918Y-81153000D01*
X106379201Y-81196487D01*
X106379200Y-119971523D01*
X106374918Y-120015000D01*
X106392005Y-120188490D01*
X106442611Y-120355313D01*
X106524789Y-120509059D01*
X106635383Y-120643817D01*
X106770141Y-120754411D01*
X106923887Y-120836589D01*
X107090710Y-120887195D01*
X107264200Y-120904282D01*
X107307676Y-120900000D01*
X184208123Y-120900000D01*
X184251600Y-120904282D01*
X184295076Y-120900000D01*
X184295077Y-120900000D01*
X184425090Y-120887195D01*
X184591913Y-120836589D01*
X184745659Y-120754411D01*
X184880417Y-120643817D01*
X184991011Y-120509059D01*
X185073189Y-120355313D01*
X185123795Y-120188490D01*
X185123795Y-120188489D01*
X185136600Y-120058477D01*
X185136600Y-120058476D01*
X185140882Y-120015000D01*
X185136600Y-119971523D01*
X185136600Y-81196477D01*
X185140882Y-81153000D01*
X185132112Y-81063950D01*
X185123795Y-80979510D01*
X185073189Y-80812687D01*
X184991011Y-80658941D01*
X184880417Y-80524183D01*
X184745659Y-80413589D01*
X184591913Y-80331411D01*
X184425090Y-80280805D01*
X184251600Y-80263718D01*
X184208124Y-80268000D01*
X107307677Y-80268000D01*
X107264200Y-80263718D01*
X107220724Y-80268000D01*
X107220723Y-80268000D01*
X107090710Y-80280805D01*
X106923887Y-80331411D01*
X106770141Y-80413589D01*
X106635383Y-80524183D01*
X106524789Y-80658941D01*
X106442611Y-80812687D01*
X106392005Y-80979510D01*
X106374918Y-81153000D01*
X80677458Y-81153000D01*
X80677555Y-75974685D01*
X80844600Y-75974685D01*
X80844600Y-76730115D01*
X80991977Y-77471028D01*
X81281067Y-78168954D01*
X81700761Y-78797070D01*
X82234930Y-79331239D01*
X82863046Y-79750933D01*
X83560972Y-80040023D01*
X84301885Y-80187400D01*
X85057315Y-80187400D01*
X85798228Y-80040023D01*
X86496154Y-79750933D01*
X87124270Y-79331239D01*
X87658439Y-78797070D01*
X88078133Y-78168954D01*
X88367223Y-77471028D01*
X88514600Y-76730115D01*
X88514600Y-75974685D01*
X185217200Y-75974685D01*
X185217200Y-76730115D01*
X185364577Y-77471028D01*
X185653667Y-78168954D01*
X186073361Y-78797070D01*
X186607530Y-79331239D01*
X187235646Y-79750933D01*
X187933572Y-80040023D01*
X188674485Y-80187400D01*
X189429915Y-80187400D01*
X190170828Y-80040023D01*
X190868754Y-79750933D01*
X191496870Y-79331239D01*
X192031039Y-78797070D01*
X192450733Y-78168954D01*
X192739823Y-77471028D01*
X192887200Y-76730115D01*
X192887200Y-75974685D01*
X192739823Y-75233772D01*
X192450733Y-74535846D01*
X192031039Y-73907730D01*
X191496870Y-73373561D01*
X190868754Y-72953867D01*
X190170828Y-72664777D01*
X189429915Y-72517400D01*
X188674485Y-72517400D01*
X187933572Y-72664777D01*
X187235646Y-72953867D01*
X186607530Y-73373561D01*
X186073361Y-73907730D01*
X185653667Y-74535846D01*
X185364577Y-75233772D01*
X185217200Y-75974685D01*
X88514600Y-75974685D01*
X88367223Y-75233772D01*
X88078133Y-74535846D01*
X87658439Y-73907730D01*
X87124270Y-73373561D01*
X86496154Y-72953867D01*
X85798228Y-72664777D01*
X85057315Y-72517400D01*
X84301885Y-72517400D01*
X83560972Y-72664777D01*
X82863046Y-72953867D01*
X82234930Y-73373561D01*
X81700761Y-73907730D01*
X81281067Y-74535846D01*
X80991977Y-75233772D01*
X80844600Y-75974685D01*
X80677555Y-75974685D01*
X80677623Y-72347900D01*
X193053961Y-72347900D01*
X193051500Y-128766760D01*
G37*
%TD.AperFunction*%
D16*
X189052200Y-76352400D03*
X84679600Y-124764800D03*
X84679600Y-76352400D03*
X189052200Y-124764800D03*
M02*
