%TF.GenerationSoftware,KiCad,Pcbnew,(5.1.10-1-10_14)*%
%TF.CreationDate,2021-08-29T23:03:25+08:00*%
%TF.ProjectId,SMP v.2,534d5020-762e-4322-9e6b-696361645f70,rev?*%
%TF.SameCoordinates,Original*%
%TF.FileFunction,Legend,Top*%
%TF.FilePolarity,Positive*%
%FSLAX46Y46*%
G04 Gerber Fmt 4.6, Leading zero omitted, Abs format (unit mm)*
G04 Created by KiCad (PCBNEW (5.1.10-1-10_14)) date 2021-08-29 23:03:25*
%MOMM*%
%LPD*%
G01*
G04 APERTURE LIST*
%TA.AperFunction,Profile*%
%ADD10C,0.050000*%
%TD*%
%ADD11C,0.120000*%
%ADD12C,0.150000*%
%ADD13C,0.500000*%
%ADD14C,0.010000*%
%ADD15R,0.600000X1.450000*%
%ADD16R,0.300000X1.450000*%
%ADD17C,0.650000*%
%ADD18O,1.000000X2.100000*%
%ADD19O,1.000000X1.600000*%
%ADD20R,1.400000X1.000000*%
%ADD21R,1.400000X1.200000*%
%ADD22R,0.550000X1.600000*%
%ADD23R,1.600000X0.550000*%
%ADD24R,0.900000X1.200000*%
%ADD25C,1.750000*%
%ADD26C,3.987800*%
%ADD27C,6.400000*%
%ADD28R,1.900000X0.400000*%
%ADD29R,1.800000X1.100000*%
G04 APERTURE END LIST*
D10*
X156052520Y-83629500D02*
G75*
G02*
X155727400Y-83954620I-325120J0D01*
G01*
X155727400Y-25214580D02*
G75*
G02*
X156052520Y-25539700I0J-325120D01*
G01*
X41366440Y-25539700D02*
G75*
G02*
X41691560Y-25214580I325120J0D01*
G01*
X41689020Y-83957160D02*
G75*
G02*
X41363900Y-83632040I0J325120D01*
G01*
X41366440Y-25539700D02*
X41363900Y-83632040D01*
X155727400Y-25214580D02*
X41691560Y-25214580D01*
X156052520Y-83629500D02*
X156052520Y-25539700D01*
X41689020Y-83957160D02*
X155727400Y-83954620D01*
D11*
%TO.C,R8*%
X54029940Y-39937944D02*
X54029940Y-39483816D01*
X55499940Y-39937944D02*
X55499940Y-39483816D01*
%TO.C,R7*%
X56935700Y-43229784D02*
X56935700Y-42775656D01*
X58405700Y-43229784D02*
X58405700Y-42775656D01*
%TO.C,D9*%
X62174180Y-41452720D02*
X59774180Y-41452720D01*
X59774180Y-44552720D02*
X62724180Y-44552720D01*
%TO.C,C2*%
X56474292Y-48221412D02*
X56474292Y-47698908D01*
X57944292Y-48221412D02*
X57944292Y-47698908D01*
D12*
%TO.C,U1*%
X57349180Y-52630800D02*
X57349180Y-52855800D01*
X64599180Y-52630800D02*
X64599180Y-52955800D01*
X64599180Y-59880800D02*
X64599180Y-59555800D01*
X57349180Y-59880800D02*
X57349180Y-59555800D01*
X57349180Y-52630800D02*
X57674180Y-52630800D01*
X57349180Y-59880800D02*
X57674180Y-59880800D01*
X64599180Y-59880800D02*
X64274180Y-59880800D01*
X64599180Y-52630800D02*
X64274180Y-52630800D01*
X57349180Y-52855800D02*
X55924180Y-52855800D01*
D11*
%TO.C,D8*%
X119838350Y-30732220D02*
X123738350Y-30732220D01*
X119838350Y-32732220D02*
X123738350Y-32732220D01*
X119838350Y-30732220D02*
X119838350Y-32732220D01*
%TO.C,D7*%
X100742346Y-30732220D02*
X104642346Y-30732220D01*
X100742346Y-32732220D02*
X104642346Y-32732220D01*
X100742346Y-30732220D02*
X100742346Y-32732220D01*
%TO.C,D6*%
X110290348Y-30732220D02*
X114190348Y-30732220D01*
X110290348Y-32732220D02*
X114190348Y-32732220D01*
X110290348Y-30732220D02*
X110290348Y-32732220D01*
%TO.C,D5*%
X91194344Y-30732220D02*
X95094344Y-30732220D01*
X91194344Y-32732220D02*
X95094344Y-32732220D01*
X91194344Y-30732220D02*
X91194344Y-32732220D01*
%TO.C,D4*%
X138934360Y-30732220D02*
X142834360Y-30732220D01*
X138934360Y-32732220D02*
X142834360Y-32732220D01*
X138934360Y-30732220D02*
X138934360Y-32732220D01*
%TO.C,D3*%
X81646342Y-30732220D02*
X85546342Y-30732220D01*
X81646342Y-32732220D02*
X85546342Y-32732220D01*
X81646342Y-30732220D02*
X81646342Y-32732220D01*
%TO.C,D2*%
X129386352Y-30732220D02*
X133286352Y-30732220D01*
X129386352Y-32732220D02*
X133286352Y-32732220D01*
X129386352Y-30732220D02*
X129386352Y-32732220D01*
%TO.C,D1*%
X72098340Y-30732220D02*
X75998340Y-30732220D01*
X72098340Y-32732220D02*
X75998340Y-32732220D01*
X72098340Y-30732220D02*
X72098340Y-32732220D01*
%TO.C,Y1*%
X52872740Y-51080920D02*
X52472740Y-51080920D01*
X52872740Y-51280920D02*
X52472740Y-51280920D01*
X52872740Y-54880920D02*
X52472740Y-54880920D01*
X54872740Y-51080920D02*
X52872740Y-51080920D01*
X52472740Y-52280920D02*
X52072740Y-52280920D01*
X52472740Y-52280920D02*
X52472740Y-51280920D01*
X52872740Y-51280920D02*
X54872740Y-51280920D01*
X54872740Y-51280920D02*
X54872740Y-52280920D01*
X54872740Y-54080920D02*
X54872740Y-54880920D01*
X54872740Y-54880920D02*
X52872740Y-54880920D01*
X52472740Y-54880920D02*
X52472740Y-54080920D01*
D12*
%TO.C,SW1*%
X61974180Y-75618220D02*
G75*
G03*
X61974180Y-75618220I-1000000J0D01*
G01*
X58374180Y-78218220D02*
X58374180Y-73018220D01*
X63574180Y-78218220D02*
X58374180Y-78218220D01*
X63574180Y-73018220D02*
X63574180Y-78218220D01*
X58374180Y-73018220D02*
X63574180Y-73018220D01*
D11*
%TO.C,R6*%
X63097080Y-70777984D02*
X63097080Y-70323856D01*
X61627080Y-70777984D02*
X61627080Y-70323856D01*
%TO.C,R5*%
X65070660Y-43229784D02*
X65070660Y-42775656D01*
X63600660Y-43229784D02*
X63600660Y-42775656D01*
%TO.C,R4*%
X67176320Y-39729664D02*
X67176320Y-39275536D01*
X65706320Y-39729664D02*
X65706320Y-39275536D01*
%TO.C,R3*%
X60439624Y-48251364D02*
X60439624Y-47797236D01*
X58969624Y-48251364D02*
X58969624Y-47797236D01*
%TO.C,R2*%
X62904956Y-48251364D02*
X62904956Y-47797236D01*
X61434956Y-48251364D02*
X61434956Y-47797236D01*
%TO.C,R1*%
X58861680Y-70352096D02*
X58861680Y-70806224D01*
X60331680Y-70352096D02*
X60331680Y-70806224D01*
%TO.C,F1*%
X55453960Y-46128904D02*
X55453960Y-44924776D01*
X53633960Y-46128904D02*
X53633960Y-44924776D01*
%TO.C,C5*%
X53550412Y-57194660D02*
X53027908Y-57194660D01*
X53550412Y-58664660D02*
X53027908Y-58664660D01*
%TO.C,C4*%
X67925620Y-45475632D02*
X67925620Y-44953128D01*
X66455620Y-45475632D02*
X66455620Y-44953128D01*
%TO.C,C1*%
X65400288Y-48302652D02*
X65400288Y-47780148D01*
X63930288Y-48302652D02*
X63930288Y-47780148D01*
%TD*%
%TO.C,USB1*%
D12*
X59236084Y-34469940D02*
X59236084Y-35279464D01*
X59283703Y-35374702D01*
X59331322Y-35422321D01*
X59426560Y-35469940D01*
X59617037Y-35469940D01*
X59712275Y-35422321D01*
X59759894Y-35374702D01*
X59807513Y-35279464D01*
X59807513Y-34469940D01*
X60236084Y-35422321D02*
X60378941Y-35469940D01*
X60617037Y-35469940D01*
X60712275Y-35422321D01*
X60759894Y-35374702D01*
X60807513Y-35279464D01*
X60807513Y-35184226D01*
X60759894Y-35088988D01*
X60712275Y-35041369D01*
X60617037Y-34993750D01*
X60426560Y-34946131D01*
X60331322Y-34898512D01*
X60283703Y-34850893D01*
X60236084Y-34755655D01*
X60236084Y-34660417D01*
X60283703Y-34565179D01*
X60331322Y-34517560D01*
X60426560Y-34469940D01*
X60664656Y-34469940D01*
X60807513Y-34517560D01*
X61569418Y-34946131D02*
X61712275Y-34993750D01*
X61759894Y-35041369D01*
X61807513Y-35136607D01*
X61807513Y-35279464D01*
X61759894Y-35374702D01*
X61712275Y-35422321D01*
X61617037Y-35469940D01*
X61236084Y-35469940D01*
X61236084Y-34469940D01*
X61569418Y-34469940D01*
X61664656Y-34517560D01*
X61712275Y-34565179D01*
X61759894Y-34660417D01*
X61759894Y-34755655D01*
X61712275Y-34850893D01*
X61664656Y-34898512D01*
X61569418Y-34946131D01*
X61236084Y-34946131D01*
X62759894Y-35469940D02*
X62188465Y-35469940D01*
X62474180Y-35469940D02*
X62474180Y-34469940D01*
X62378941Y-34612798D01*
X62283703Y-34708036D01*
X62188465Y-34755655D01*
%TO.C,R8*%
X53567320Y-39877546D02*
X53091130Y-40210880D01*
X53567320Y-40448975D02*
X52567320Y-40448975D01*
X52567320Y-40068022D01*
X52614940Y-39972784D01*
X52662559Y-39925165D01*
X52757797Y-39877546D01*
X52900654Y-39877546D01*
X52995892Y-39925165D01*
X53043511Y-39972784D01*
X53091130Y-40068022D01*
X53091130Y-40448975D01*
X52995892Y-39306118D02*
X52948273Y-39401356D01*
X52900654Y-39448975D01*
X52805416Y-39496594D01*
X52757797Y-39496594D01*
X52662559Y-39448975D01*
X52614940Y-39401356D01*
X52567320Y-39306118D01*
X52567320Y-39115641D01*
X52614940Y-39020403D01*
X52662559Y-38972784D01*
X52757797Y-38925165D01*
X52805416Y-38925165D01*
X52900654Y-38972784D01*
X52948273Y-39020403D01*
X52995892Y-39115641D01*
X52995892Y-39306118D01*
X53043511Y-39401356D01*
X53091130Y-39448975D01*
X53186368Y-39496594D01*
X53376844Y-39496594D01*
X53472082Y-39448975D01*
X53519701Y-39401356D01*
X53567320Y-39306118D01*
X53567320Y-39115641D01*
X53519701Y-39020403D01*
X53472082Y-38972784D01*
X53376844Y-38925165D01*
X53186368Y-38925165D01*
X53091130Y-38972784D01*
X53043511Y-39020403D01*
X52995892Y-39115641D01*
%TO.C,R7*%
X54706800Y-43169386D02*
X54230610Y-43502720D01*
X54706800Y-43740815D02*
X53706800Y-43740815D01*
X53706800Y-43359862D01*
X53754420Y-43264624D01*
X53802039Y-43217005D01*
X53897277Y-43169386D01*
X54040134Y-43169386D01*
X54135372Y-43217005D01*
X54182991Y-43264624D01*
X54230610Y-43359862D01*
X54230610Y-43740815D01*
X53706800Y-42836053D02*
X53706800Y-42169386D01*
X54706800Y-42597958D01*
%TO.C,D9*%
X60216084Y-45835100D02*
X60216084Y-44835100D01*
X60454180Y-44835100D01*
X60597037Y-44882720D01*
X60692275Y-44977958D01*
X60739894Y-45073196D01*
X60787513Y-45263672D01*
X60787513Y-45406529D01*
X60739894Y-45597005D01*
X60692275Y-45692243D01*
X60597037Y-45787481D01*
X60454180Y-45835100D01*
X60216084Y-45835100D01*
X61263703Y-45835100D02*
X61454180Y-45835100D01*
X61549418Y-45787481D01*
X61597037Y-45739862D01*
X61692275Y-45597005D01*
X61739894Y-45406529D01*
X61739894Y-45025577D01*
X61692275Y-44930339D01*
X61644656Y-44882720D01*
X61549418Y-44835100D01*
X61358941Y-44835100D01*
X61263703Y-44882720D01*
X61216084Y-44930339D01*
X61168465Y-45025577D01*
X61168465Y-45263672D01*
X61216084Y-45358910D01*
X61263703Y-45406529D01*
X61358941Y-45454148D01*
X61549418Y-45454148D01*
X61644656Y-45406529D01*
X61692275Y-45358910D01*
X61739894Y-45263672D01*
%TO.C,C2*%
X55886434Y-48126826D02*
X55934053Y-48174445D01*
X55981672Y-48317302D01*
X55981672Y-48412540D01*
X55934053Y-48555398D01*
X55838815Y-48650636D01*
X55743577Y-48698255D01*
X55553101Y-48745874D01*
X55410244Y-48745874D01*
X55219768Y-48698255D01*
X55124530Y-48650636D01*
X55029292Y-48555398D01*
X54981672Y-48412540D01*
X54981672Y-48317302D01*
X55029292Y-48174445D01*
X55076911Y-48126826D01*
X55076911Y-47745874D02*
X55029292Y-47698255D01*
X54981672Y-47603017D01*
X54981672Y-47364921D01*
X55029292Y-47269683D01*
X55076911Y-47222064D01*
X55172149Y-47174445D01*
X55267387Y-47174445D01*
X55410244Y-47222064D01*
X55981672Y-47793493D01*
X55981672Y-47174445D01*
%TO.C,U1*%
X60212275Y-49658180D02*
X60212275Y-50467704D01*
X60259894Y-50562942D01*
X60307513Y-50610561D01*
X60402751Y-50658180D01*
X60593227Y-50658180D01*
X60688465Y-50610561D01*
X60736084Y-50562942D01*
X60783703Y-50467704D01*
X60783703Y-49658180D01*
X61783703Y-50658180D02*
X61212275Y-50658180D01*
X61497989Y-50658180D02*
X61497989Y-49658180D01*
X61402751Y-49801038D01*
X61307513Y-49896276D01*
X61212275Y-49943895D01*
%TO.C,D8*%
X121350254Y-30184600D02*
X121350254Y-29184600D01*
X121588350Y-29184600D01*
X121731207Y-29232220D01*
X121826445Y-29327458D01*
X121874064Y-29422696D01*
X121921683Y-29613172D01*
X121921683Y-29756029D01*
X121874064Y-29946505D01*
X121826445Y-30041743D01*
X121731207Y-30136981D01*
X121588350Y-30184600D01*
X121350254Y-30184600D01*
X122493111Y-29613172D02*
X122397873Y-29565553D01*
X122350254Y-29517934D01*
X122302635Y-29422696D01*
X122302635Y-29375077D01*
X122350254Y-29279839D01*
X122397873Y-29232220D01*
X122493111Y-29184600D01*
X122683588Y-29184600D01*
X122778826Y-29232220D01*
X122826445Y-29279839D01*
X122874064Y-29375077D01*
X122874064Y-29422696D01*
X122826445Y-29517934D01*
X122778826Y-29565553D01*
X122683588Y-29613172D01*
X122493111Y-29613172D01*
X122397873Y-29660791D01*
X122350254Y-29708410D01*
X122302635Y-29803648D01*
X122302635Y-29994124D01*
X122350254Y-30089362D01*
X122397873Y-30136981D01*
X122493111Y-30184600D01*
X122683588Y-30184600D01*
X122778826Y-30136981D01*
X122826445Y-30089362D01*
X122874064Y-29994124D01*
X122874064Y-29803648D01*
X122826445Y-29708410D01*
X122778826Y-29660791D01*
X122683588Y-29613172D01*
%TO.C,D7*%
X102254250Y-30184600D02*
X102254250Y-29184600D01*
X102492346Y-29184600D01*
X102635203Y-29232220D01*
X102730441Y-29327458D01*
X102778060Y-29422696D01*
X102825679Y-29613172D01*
X102825679Y-29756029D01*
X102778060Y-29946505D01*
X102730441Y-30041743D01*
X102635203Y-30136981D01*
X102492346Y-30184600D01*
X102254250Y-30184600D01*
X103159012Y-29184600D02*
X103825679Y-29184600D01*
X103397107Y-30184600D01*
%TO.C,D6*%
X111802252Y-30184600D02*
X111802252Y-29184600D01*
X112040348Y-29184600D01*
X112183205Y-29232220D01*
X112278443Y-29327458D01*
X112326062Y-29422696D01*
X112373681Y-29613172D01*
X112373681Y-29756029D01*
X112326062Y-29946505D01*
X112278443Y-30041743D01*
X112183205Y-30136981D01*
X112040348Y-30184600D01*
X111802252Y-30184600D01*
X113230824Y-29184600D02*
X113040348Y-29184600D01*
X112945109Y-29232220D01*
X112897490Y-29279839D01*
X112802252Y-29422696D01*
X112754633Y-29613172D01*
X112754633Y-29994124D01*
X112802252Y-30089362D01*
X112849871Y-30136981D01*
X112945109Y-30184600D01*
X113135586Y-30184600D01*
X113230824Y-30136981D01*
X113278443Y-30089362D01*
X113326062Y-29994124D01*
X113326062Y-29756029D01*
X113278443Y-29660791D01*
X113230824Y-29613172D01*
X113135586Y-29565553D01*
X112945109Y-29565553D01*
X112849871Y-29613172D01*
X112802252Y-29660791D01*
X112754633Y-29756029D01*
%TO.C,D5*%
X92706248Y-30184600D02*
X92706248Y-29184600D01*
X92944344Y-29184600D01*
X93087201Y-29232220D01*
X93182439Y-29327458D01*
X93230058Y-29422696D01*
X93277677Y-29613172D01*
X93277677Y-29756029D01*
X93230058Y-29946505D01*
X93182439Y-30041743D01*
X93087201Y-30136981D01*
X92944344Y-30184600D01*
X92706248Y-30184600D01*
X94182439Y-29184600D02*
X93706248Y-29184600D01*
X93658629Y-29660791D01*
X93706248Y-29613172D01*
X93801486Y-29565553D01*
X94039582Y-29565553D01*
X94134820Y-29613172D01*
X94182439Y-29660791D01*
X94230058Y-29756029D01*
X94230058Y-29994124D01*
X94182439Y-30089362D01*
X94134820Y-30136981D01*
X94039582Y-30184600D01*
X93801486Y-30184600D01*
X93706248Y-30136981D01*
X93658629Y-30089362D01*
%TO.C,D4*%
X140446264Y-30184600D02*
X140446264Y-29184600D01*
X140684360Y-29184600D01*
X140827217Y-29232220D01*
X140922455Y-29327458D01*
X140970074Y-29422696D01*
X141017693Y-29613172D01*
X141017693Y-29756029D01*
X140970074Y-29946505D01*
X140922455Y-30041743D01*
X140827217Y-30136981D01*
X140684360Y-30184600D01*
X140446264Y-30184600D01*
X141874836Y-29517934D02*
X141874836Y-30184600D01*
X141636740Y-29136981D02*
X141398645Y-29851267D01*
X142017693Y-29851267D01*
%TO.C,D3*%
X83158246Y-30184600D02*
X83158246Y-29184600D01*
X83396342Y-29184600D01*
X83539199Y-29232220D01*
X83634437Y-29327458D01*
X83682056Y-29422696D01*
X83729675Y-29613172D01*
X83729675Y-29756029D01*
X83682056Y-29946505D01*
X83634437Y-30041743D01*
X83539199Y-30136981D01*
X83396342Y-30184600D01*
X83158246Y-30184600D01*
X84063008Y-29184600D02*
X84682056Y-29184600D01*
X84348722Y-29565553D01*
X84491580Y-29565553D01*
X84586818Y-29613172D01*
X84634437Y-29660791D01*
X84682056Y-29756029D01*
X84682056Y-29994124D01*
X84634437Y-30089362D01*
X84586818Y-30136981D01*
X84491580Y-30184600D01*
X84205865Y-30184600D01*
X84110627Y-30136981D01*
X84063008Y-30089362D01*
%TO.C,D2*%
X130898256Y-30184600D02*
X130898256Y-29184600D01*
X131136352Y-29184600D01*
X131279209Y-29232220D01*
X131374447Y-29327458D01*
X131422066Y-29422696D01*
X131469685Y-29613172D01*
X131469685Y-29756029D01*
X131422066Y-29946505D01*
X131374447Y-30041743D01*
X131279209Y-30136981D01*
X131136352Y-30184600D01*
X130898256Y-30184600D01*
X131850637Y-29279839D02*
X131898256Y-29232220D01*
X131993494Y-29184600D01*
X132231590Y-29184600D01*
X132326828Y-29232220D01*
X132374447Y-29279839D01*
X132422066Y-29375077D01*
X132422066Y-29470315D01*
X132374447Y-29613172D01*
X131803018Y-30184600D01*
X132422066Y-30184600D01*
%TO.C,D1*%
X73610244Y-30184600D02*
X73610244Y-29184600D01*
X73848340Y-29184600D01*
X73991197Y-29232220D01*
X74086435Y-29327458D01*
X74134054Y-29422696D01*
X74181673Y-29613172D01*
X74181673Y-29756029D01*
X74134054Y-29946505D01*
X74086435Y-30041743D01*
X73991197Y-30136981D01*
X73848340Y-30184600D01*
X73610244Y-30184600D01*
X75134054Y-30184600D02*
X74562625Y-30184600D01*
X74848340Y-30184600D02*
X74848340Y-29184600D01*
X74753101Y-29327458D01*
X74657863Y-29422696D01*
X74562625Y-29470315D01*
%TO.C,Y1*%
X55648930Y-53557110D02*
X56125120Y-53557110D01*
X55125120Y-53890443D02*
X55648930Y-53557110D01*
X55125120Y-53223777D01*
X56125120Y-52366634D02*
X56125120Y-52938062D01*
X56125120Y-52652348D02*
X55125120Y-52652348D01*
X55267978Y-52747586D01*
X55363216Y-52842824D01*
X55410835Y-52938062D01*
%TO.C,SW1*%
X59640846Y-80086981D02*
X59783703Y-80134600D01*
X60021799Y-80134600D01*
X60117037Y-80086981D01*
X60164656Y-80039362D01*
X60212275Y-79944124D01*
X60212275Y-79848886D01*
X60164656Y-79753648D01*
X60117037Y-79706029D01*
X60021799Y-79658410D01*
X59831322Y-79610791D01*
X59736084Y-79563172D01*
X59688465Y-79515553D01*
X59640846Y-79420315D01*
X59640846Y-79325077D01*
X59688465Y-79229839D01*
X59736084Y-79182220D01*
X59831322Y-79134600D01*
X60069418Y-79134600D01*
X60212275Y-79182220D01*
X60545608Y-79134600D02*
X60783703Y-80134600D01*
X60974180Y-79420315D01*
X61164656Y-80134600D01*
X61402751Y-79134600D01*
X62307513Y-80134600D02*
X61736084Y-80134600D01*
X62021799Y-80134600D02*
X62021799Y-79134600D01*
X61926560Y-79277458D01*
X61831322Y-79372696D01*
X61736084Y-79420315D01*
%TO.C,R6*%
X61164460Y-70717586D02*
X60688270Y-71050920D01*
X61164460Y-71289015D02*
X60164460Y-71289015D01*
X60164460Y-70908062D01*
X60212080Y-70812824D01*
X60259699Y-70765205D01*
X60354937Y-70717586D01*
X60497794Y-70717586D01*
X60593032Y-70765205D01*
X60640651Y-70812824D01*
X60688270Y-70908062D01*
X60688270Y-71289015D01*
X60164460Y-69860443D02*
X60164460Y-70050920D01*
X60212080Y-70146158D01*
X60259699Y-70193777D01*
X60402556Y-70289015D01*
X60593032Y-70336634D01*
X60973984Y-70336634D01*
X61069222Y-70289015D01*
X61116841Y-70241396D01*
X61164460Y-70146158D01*
X61164460Y-69955681D01*
X61116841Y-69860443D01*
X61069222Y-69812824D01*
X60973984Y-69765205D01*
X60735889Y-69765205D01*
X60640651Y-69812824D01*
X60593032Y-69860443D01*
X60545413Y-69955681D01*
X60545413Y-70146158D01*
X60593032Y-70241396D01*
X60640651Y-70289015D01*
X60735889Y-70336634D01*
%TO.C,R5*%
X61388060Y-43169386D02*
X60911870Y-43502720D01*
X61388060Y-43740815D02*
X60388060Y-43740815D01*
X60388060Y-43359862D01*
X60435680Y-43264624D01*
X60483299Y-43217005D01*
X60578537Y-43169386D01*
X60721394Y-43169386D01*
X60816632Y-43217005D01*
X60864251Y-43264624D01*
X60911870Y-43359862D01*
X60911870Y-43740815D01*
X60388060Y-42264624D02*
X60388060Y-42740815D01*
X60864251Y-42788434D01*
X60816632Y-42740815D01*
X60769013Y-42645577D01*
X60769013Y-42407481D01*
X60816632Y-42312243D01*
X60864251Y-42264624D01*
X60959489Y-42217005D01*
X61197584Y-42217005D01*
X61292822Y-42264624D01*
X61340441Y-42312243D01*
X61388060Y-42407481D01*
X61388060Y-42645577D01*
X61340441Y-42740815D01*
X61292822Y-42788434D01*
%TO.C,R4*%
X65243700Y-39669266D02*
X64767510Y-40002600D01*
X65243700Y-40240695D02*
X64243700Y-40240695D01*
X64243700Y-39859742D01*
X64291320Y-39764504D01*
X64338939Y-39716885D01*
X64434177Y-39669266D01*
X64577034Y-39669266D01*
X64672272Y-39716885D01*
X64719891Y-39764504D01*
X64767510Y-39859742D01*
X64767510Y-40240695D01*
X64577034Y-38812123D02*
X65243700Y-38812123D01*
X64196081Y-39050219D02*
X64910367Y-39288314D01*
X64910367Y-38669266D01*
%TO.C,R3*%
X58507004Y-48190966D02*
X58030814Y-48524300D01*
X58507004Y-48762395D02*
X57507004Y-48762395D01*
X57507004Y-48381442D01*
X57554624Y-48286204D01*
X57602243Y-48238585D01*
X57697481Y-48190966D01*
X57840338Y-48190966D01*
X57935576Y-48238585D01*
X57983195Y-48286204D01*
X58030814Y-48381442D01*
X58030814Y-48762395D01*
X57507004Y-47857633D02*
X57507004Y-47238585D01*
X57887957Y-47571919D01*
X57887957Y-47429061D01*
X57935576Y-47333823D01*
X57983195Y-47286204D01*
X58078433Y-47238585D01*
X58316528Y-47238585D01*
X58411766Y-47286204D01*
X58459385Y-47333823D01*
X58507004Y-47429061D01*
X58507004Y-47714776D01*
X58459385Y-47810014D01*
X58411766Y-47857633D01*
%TO.C,R2*%
X60972336Y-48190966D02*
X60496146Y-48524300D01*
X60972336Y-48762395D02*
X59972336Y-48762395D01*
X59972336Y-48381442D01*
X60019956Y-48286204D01*
X60067575Y-48238585D01*
X60162813Y-48190966D01*
X60305670Y-48190966D01*
X60400908Y-48238585D01*
X60448527Y-48286204D01*
X60496146Y-48381442D01*
X60496146Y-48762395D01*
X60067575Y-47810014D02*
X60019956Y-47762395D01*
X59972336Y-47667157D01*
X59972336Y-47429061D01*
X60019956Y-47333823D01*
X60067575Y-47286204D01*
X60162813Y-47238585D01*
X60258051Y-47238585D01*
X60400908Y-47286204D01*
X60972336Y-47857633D01*
X60972336Y-47238585D01*
%TO.C,R1*%
X61699060Y-70745826D02*
X61222870Y-71079160D01*
X61699060Y-71317255D02*
X60699060Y-71317255D01*
X60699060Y-70936302D01*
X60746680Y-70841064D01*
X60794299Y-70793445D01*
X60889537Y-70745826D01*
X61032394Y-70745826D01*
X61127632Y-70793445D01*
X61175251Y-70841064D01*
X61222870Y-70936302D01*
X61222870Y-71317255D01*
X61699060Y-69793445D02*
X61699060Y-70364874D01*
X61699060Y-70079160D02*
X60699060Y-70079160D01*
X60841918Y-70174398D01*
X60937156Y-70269636D01*
X60984775Y-70364874D01*
%TO.C,F1*%
X52652531Y-45860173D02*
X52652531Y-46193506D01*
X53176340Y-46193506D02*
X52176340Y-46193506D01*
X52176340Y-45717316D01*
X53176340Y-44812554D02*
X53176340Y-45383982D01*
X53176340Y-45098268D02*
X52176340Y-45098268D01*
X52319198Y-45193506D01*
X52414436Y-45288744D01*
X52462055Y-45383982D01*
%TO.C,C5*%
X53122493Y-59966802D02*
X53074874Y-60014421D01*
X52932017Y-60062040D01*
X52836779Y-60062040D01*
X52693921Y-60014421D01*
X52598683Y-59919183D01*
X52551064Y-59823945D01*
X52503445Y-59633469D01*
X52503445Y-59490612D01*
X52551064Y-59300136D01*
X52598683Y-59204898D01*
X52693921Y-59109660D01*
X52836779Y-59062040D01*
X52932017Y-59062040D01*
X53074874Y-59109660D01*
X53122493Y-59157279D01*
X54027255Y-59062040D02*
X53551064Y-59062040D01*
X53503445Y-59538231D01*
X53551064Y-59490612D01*
X53646302Y-59442993D01*
X53884398Y-59442993D01*
X53979636Y-59490612D01*
X54027255Y-59538231D01*
X54074874Y-59633469D01*
X54074874Y-59871564D01*
X54027255Y-59966802D01*
X53979636Y-60014421D01*
X53884398Y-60062040D01*
X53646302Y-60062040D01*
X53551064Y-60014421D01*
X53503445Y-59966802D01*
%TO.C,C4*%
X65867762Y-45381046D02*
X65915381Y-45428665D01*
X65963000Y-45571522D01*
X65963000Y-45666760D01*
X65915381Y-45809618D01*
X65820143Y-45904856D01*
X65724905Y-45952475D01*
X65534429Y-46000094D01*
X65391572Y-46000094D01*
X65201096Y-45952475D01*
X65105858Y-45904856D01*
X65010620Y-45809618D01*
X64963000Y-45666760D01*
X64963000Y-45571522D01*
X65010620Y-45428665D01*
X65058239Y-45381046D01*
X65296334Y-44523903D02*
X65963000Y-44523903D01*
X64915381Y-44761999D02*
X65629667Y-45000094D01*
X65629667Y-44381046D01*
%TO.C,C1*%
X63342430Y-48208066D02*
X63390049Y-48255685D01*
X63437668Y-48398542D01*
X63437668Y-48493780D01*
X63390049Y-48636638D01*
X63294811Y-48731876D01*
X63199573Y-48779495D01*
X63009097Y-48827114D01*
X62866240Y-48827114D01*
X62675764Y-48779495D01*
X62580526Y-48731876D01*
X62485288Y-48636638D01*
X62437668Y-48493780D01*
X62437668Y-48398542D01*
X62485288Y-48255685D01*
X62532907Y-48208066D01*
X63437668Y-47255685D02*
X63437668Y-47827114D01*
X63437668Y-47541400D02*
X62437668Y-47541400D01*
X62580526Y-47636638D01*
X62675764Y-47731876D01*
X62723383Y-47827114D01*
%TD*%
%LPC*%
D13*
X155778200Y-83677760D02*
X155778200Y-25488900D01*
X41641840Y-25488900D02*
X155778200Y-25488900D01*
X41640760Y-83677760D02*
X155778200Y-83677760D01*
X41640760Y-83677760D02*
X41641840Y-25488900D01*
D14*
%TO.C,Ref\u002A\u002A*%
G36*
X117709199Y-76389292D02*
G01*
X117758396Y-76406059D01*
X117799393Y-76436979D01*
X117828614Y-76479968D01*
X117842484Y-76532945D01*
X117843135Y-76547838D01*
X117833746Y-76601256D01*
X117807961Y-76645904D01*
X117769489Y-76679626D01*
X117722041Y-76700267D01*
X117669326Y-76705671D01*
X117615055Y-76693682D01*
X117602067Y-76687906D01*
X117558250Y-76656451D01*
X117531326Y-76613052D01*
X117520634Y-76556552D01*
X117520383Y-76544887D01*
X117527051Y-76489035D01*
X117548393Y-76446680D01*
X117586410Y-76414364D01*
X117600510Y-76406544D01*
X117655379Y-76388760D01*
X117709199Y-76389292D01*
G37*
X117709199Y-76389292D02*
X117758396Y-76406059D01*
X117799393Y-76436979D01*
X117828614Y-76479968D01*
X117842484Y-76532945D01*
X117843135Y-76547838D01*
X117833746Y-76601256D01*
X117807961Y-76645904D01*
X117769489Y-76679626D01*
X117722041Y-76700267D01*
X117669326Y-76705671D01*
X117615055Y-76693682D01*
X117602067Y-76687906D01*
X117558250Y-76656451D01*
X117531326Y-76613052D01*
X117520634Y-76556552D01*
X117520383Y-76544887D01*
X117527051Y-76489035D01*
X117548393Y-76446680D01*
X117586410Y-76414364D01*
X117600510Y-76406544D01*
X117655379Y-76388760D01*
X117709199Y-76389292D01*
G36*
X137877425Y-77531007D02*
G01*
X136967258Y-77531007D01*
X136967258Y-77319341D01*
X137877425Y-77319341D01*
X137877425Y-77531007D01*
G37*
X137877425Y-77531007D02*
X136967258Y-77531007D01*
X136967258Y-77319341D01*
X137877425Y-77319341D01*
X137877425Y-77531007D01*
G36*
X143112827Y-76932165D02*
G01*
X143155989Y-76937840D01*
X143159540Y-76938560D01*
X143221229Y-76951651D01*
X143216022Y-76995267D01*
X143212766Y-77024695D01*
X143208369Y-77067405D01*
X143203235Y-77119120D01*
X143197771Y-77175560D01*
X143192382Y-77232446D01*
X143187473Y-77285499D01*
X143183448Y-77330442D01*
X143180714Y-77362994D01*
X143179675Y-77378877D01*
X143179675Y-77379032D01*
X143174614Y-77386218D01*
X143157327Y-77390690D01*
X143124654Y-77392925D01*
X143084425Y-77393424D01*
X142989175Y-77393424D01*
X142989175Y-77152257D01*
X142944195Y-77162318D01*
X142882845Y-77182553D01*
X142829305Y-77215226D01*
X142781159Y-77262621D01*
X142735986Y-77327021D01*
X142700238Y-77392568D01*
X142655800Y-77481671D01*
X142652570Y-77707422D01*
X142649341Y-77933174D01*
X142883341Y-77933174D01*
X142883341Y-78123674D01*
X142227175Y-78123674D01*
X142227175Y-77933174D01*
X142396508Y-77933174D01*
X142396508Y-77139424D01*
X142227175Y-77139424D01*
X142227175Y-76948924D01*
X142406890Y-76948924D01*
X142472370Y-76949005D01*
X142519738Y-76949511D01*
X142552048Y-76950834D01*
X142572355Y-76953369D01*
X142583711Y-76957507D01*
X142589172Y-76963641D01*
X142591792Y-76972166D01*
X142591920Y-76972736D01*
X142596471Y-76995727D01*
X142602857Y-77031186D01*
X142610137Y-77073471D01*
X142617372Y-77116942D01*
X142623620Y-77155958D01*
X142627941Y-77184877D01*
X142629407Y-77197632D01*
X142634121Y-77195166D01*
X142646233Y-77178053D01*
X142660013Y-77155299D01*
X142717253Y-77072184D01*
X142782392Y-77008491D01*
X142856230Y-76963704D01*
X142939563Y-76937305D01*
X143008866Y-76929259D01*
X143060263Y-76929087D01*
X143112827Y-76932165D01*
G37*
X143112827Y-76932165D02*
X143155989Y-76937840D01*
X143159540Y-76938560D01*
X143221229Y-76951651D01*
X143216022Y-76995267D01*
X143212766Y-77024695D01*
X143208369Y-77067405D01*
X143203235Y-77119120D01*
X143197771Y-77175560D01*
X143192382Y-77232446D01*
X143187473Y-77285499D01*
X143183448Y-77330442D01*
X143180714Y-77362994D01*
X143179675Y-77378877D01*
X143179675Y-77379032D01*
X143174614Y-77386218D01*
X143157327Y-77390690D01*
X143124654Y-77392925D01*
X143084425Y-77393424D01*
X142989175Y-77393424D01*
X142989175Y-77152257D01*
X142944195Y-77162318D01*
X142882845Y-77182553D01*
X142829305Y-77215226D01*
X142781159Y-77262621D01*
X142735986Y-77327021D01*
X142700238Y-77392568D01*
X142655800Y-77481671D01*
X142652570Y-77707422D01*
X142649341Y-77933174D01*
X142883341Y-77933174D01*
X142883341Y-78123674D01*
X142227175Y-78123674D01*
X142227175Y-77933174D01*
X142396508Y-77933174D01*
X142396508Y-77139424D01*
X142227175Y-77139424D01*
X142227175Y-76948924D01*
X142406890Y-76948924D01*
X142472370Y-76949005D01*
X142519738Y-76949511D01*
X142552048Y-76950834D01*
X142572355Y-76953369D01*
X142583711Y-76957507D01*
X142589172Y-76963641D01*
X142591792Y-76972166D01*
X142591920Y-76972736D01*
X142596471Y-76995727D01*
X142602857Y-77031186D01*
X142610137Y-77073471D01*
X142617372Y-77116942D01*
X142623620Y-77155958D01*
X142627941Y-77184877D01*
X142629407Y-77197632D01*
X142634121Y-77195166D01*
X142646233Y-77178053D01*
X142660013Y-77155299D01*
X142717253Y-77072184D01*
X142782392Y-77008491D01*
X142856230Y-76963704D01*
X142939563Y-76937305D01*
X143008866Y-76929259D01*
X143060263Y-76929087D01*
X143112827Y-76932165D01*
G36*
X139908871Y-77414744D02*
G01*
X139937935Y-77509389D01*
X139965298Y-77597241D01*
X139990324Y-77676344D01*
X140012376Y-77744741D01*
X140030816Y-77800478D01*
X140045008Y-77841599D01*
X140054314Y-77866149D01*
X140057975Y-77872473D01*
X140062459Y-77860987D01*
X140072496Y-77831328D01*
X140087429Y-77785557D01*
X140106599Y-77725735D01*
X140129349Y-77653924D01*
X140155023Y-77572186D01*
X140182963Y-77482583D01*
X140206494Y-77406653D01*
X140347974Y-76948924D01*
X140477949Y-76948924D01*
X140527555Y-76949529D01*
X140568381Y-76951179D01*
X140596395Y-76953627D01*
X140607569Y-76956627D01*
X140607617Y-76956861D01*
X140604113Y-76968018D01*
X140594137Y-76997327D01*
X140578315Y-77043003D01*
X140557273Y-77103257D01*
X140531639Y-77176302D01*
X140502041Y-77260350D01*
X140469104Y-77353616D01*
X140433455Y-77454311D01*
X140402491Y-77541591D01*
X140197674Y-78118382D01*
X140050903Y-78121145D01*
X139904133Y-78123909D01*
X139700107Y-77544354D01*
X139662921Y-77438577D01*
X139627931Y-77338761D01*
X139595756Y-77246689D01*
X139567014Y-77164148D01*
X139542324Y-77092922D01*
X139522307Y-77034797D01*
X139507580Y-76991558D01*
X139498764Y-76964990D01*
X139496378Y-76956861D01*
X139506415Y-76953883D01*
X139533640Y-76951414D01*
X139574075Y-76949688D01*
X139623743Y-76948938D01*
X139631741Y-76948924D01*
X139766807Y-76948924D01*
X139908871Y-77414744D01*
G37*
X139908871Y-77414744D02*
X139937935Y-77509389D01*
X139965298Y-77597241D01*
X139990324Y-77676344D01*
X140012376Y-77744741D01*
X140030816Y-77800478D01*
X140045008Y-77841599D01*
X140054314Y-77866149D01*
X140057975Y-77872473D01*
X140062459Y-77860987D01*
X140072496Y-77831328D01*
X140087429Y-77785557D01*
X140106599Y-77725735D01*
X140129349Y-77653924D01*
X140155023Y-77572186D01*
X140182963Y-77482583D01*
X140206494Y-77406653D01*
X140347974Y-76948924D01*
X140477949Y-76948924D01*
X140527555Y-76949529D01*
X140568381Y-76951179D01*
X140596395Y-76953627D01*
X140607569Y-76956627D01*
X140607617Y-76956861D01*
X140604113Y-76968018D01*
X140594137Y-76997327D01*
X140578315Y-77043003D01*
X140557273Y-77103257D01*
X140531639Y-77176302D01*
X140502041Y-77260350D01*
X140469104Y-77353616D01*
X140433455Y-77454311D01*
X140402491Y-77541591D01*
X140197674Y-78118382D01*
X140050903Y-78121145D01*
X139904133Y-78123909D01*
X139700107Y-77544354D01*
X139662921Y-77438577D01*
X139627931Y-77338761D01*
X139595756Y-77246689D01*
X139567014Y-77164148D01*
X139542324Y-77092922D01*
X139522307Y-77034797D01*
X139507580Y-76991558D01*
X139498764Y-76964990D01*
X139496378Y-76956861D01*
X139506415Y-76953883D01*
X139533640Y-76951414D01*
X139574075Y-76949688D01*
X139623743Y-76948938D01*
X139631741Y-76948924D01*
X139766807Y-76948924D01*
X139908871Y-77414744D01*
G36*
X129881716Y-76933330D02*
G01*
X129934027Y-76934406D01*
X129980767Y-76937116D01*
X130016613Y-76941042D01*
X130035507Y-76945418D01*
X130062299Y-76957225D01*
X130041328Y-77175324D01*
X130020357Y-77393424D01*
X129834091Y-77393424D01*
X129834091Y-77152849D01*
X129794404Y-77160260D01*
X129723368Y-77184206D01*
X129658550Y-77228360D01*
X129599938Y-77292734D01*
X129547519Y-77377339D01*
X129540043Y-77392073D01*
X129500716Y-77471588D01*
X129497497Y-77702381D01*
X129494279Y-77933174D01*
X129728258Y-77933174D01*
X129728258Y-78123674D01*
X129072091Y-78123674D01*
X129072091Y-77933174D01*
X129241425Y-77933174D01*
X129241425Y-77139424D01*
X129072091Y-77139424D01*
X129072091Y-76948924D01*
X129429752Y-76948924D01*
X129442213Y-77020361D01*
X129449825Y-77066510D01*
X129456773Y-77112844D01*
X129460648Y-77142070D01*
X129465474Y-77171343D01*
X129471053Y-77189466D01*
X129473772Y-77192341D01*
X129482516Y-77183760D01*
X129495030Y-77162562D01*
X129497810Y-77156924D01*
X129523929Y-77115411D01*
X129562842Y-77069345D01*
X129608808Y-77024395D01*
X129656084Y-76986230D01*
X129694629Y-76962556D01*
X129722004Y-76949876D01*
X129746275Y-76941466D01*
X129772907Y-76936474D01*
X129807366Y-76934045D01*
X129855118Y-76933326D01*
X129881716Y-76933330D01*
G37*
X129881716Y-76933330D02*
X129934027Y-76934406D01*
X129980767Y-76937116D01*
X130016613Y-76941042D01*
X130035507Y-76945418D01*
X130062299Y-76957225D01*
X130041328Y-77175324D01*
X130020357Y-77393424D01*
X129834091Y-77393424D01*
X129834091Y-77152849D01*
X129794404Y-77160260D01*
X129723368Y-77184206D01*
X129658550Y-77228360D01*
X129599938Y-77292734D01*
X129547519Y-77377339D01*
X129540043Y-77392073D01*
X129500716Y-77471588D01*
X129497497Y-77702381D01*
X129494279Y-77933174D01*
X129728258Y-77933174D01*
X129728258Y-78123674D01*
X129072091Y-78123674D01*
X129072091Y-77933174D01*
X129241425Y-77933174D01*
X129241425Y-77139424D01*
X129072091Y-77139424D01*
X129072091Y-76948924D01*
X129429752Y-76948924D01*
X129442213Y-77020361D01*
X129449825Y-77066510D01*
X129456773Y-77112844D01*
X129460648Y-77142070D01*
X129465474Y-77171343D01*
X129471053Y-77189466D01*
X129473772Y-77192341D01*
X129482516Y-77183760D01*
X129495030Y-77162562D01*
X129497810Y-77156924D01*
X129523929Y-77115411D01*
X129562842Y-77069345D01*
X129608808Y-77024395D01*
X129656084Y-76986230D01*
X129694629Y-76962556D01*
X129722004Y-76949876D01*
X129746275Y-76941466D01*
X129772907Y-76936474D01*
X129807366Y-76934045D01*
X129855118Y-76933326D01*
X129881716Y-76933330D01*
G36*
X125274024Y-76600195D02*
G01*
X125321058Y-76601879D01*
X125351339Y-76604904D01*
X125367063Y-76609450D01*
X125370395Y-76612903D01*
X125373514Y-76625703D01*
X125380553Y-76657070D01*
X125391050Y-76704866D01*
X125404541Y-76766951D01*
X125420563Y-76841185D01*
X125438652Y-76925429D01*
X125458344Y-77017543D01*
X125474715Y-77094400D01*
X125495298Y-77190653D01*
X125514674Y-77280241D01*
X125532381Y-77361103D01*
X125547958Y-77431175D01*
X125560943Y-77488397D01*
X125570873Y-77530704D01*
X125577287Y-77556035D01*
X125579591Y-77562693D01*
X125582776Y-77552688D01*
X125589623Y-77524135D01*
X125599656Y-77479245D01*
X125612400Y-77420228D01*
X125627380Y-77349295D01*
X125644119Y-77268655D01*
X125662143Y-77180520D01*
X125667793Y-77152634D01*
X125686732Y-77059135D01*
X125704970Y-76969425D01*
X125721943Y-76886257D01*
X125737086Y-76812382D01*
X125749835Y-76750554D01*
X125759625Y-76703526D01*
X125765892Y-76674048D01*
X125766537Y-76671111D01*
X125782371Y-76599674D01*
X125940273Y-76599674D01*
X125995362Y-76599890D01*
X126042079Y-76600485D01*
X126076756Y-76601381D01*
X126095725Y-76602496D01*
X126098175Y-76603096D01*
X126098771Y-76613962D01*
X126100495Y-76644245D01*
X126103247Y-76692233D01*
X126106928Y-76756214D01*
X126111441Y-76834473D01*
X126116685Y-76925299D01*
X126122562Y-77026977D01*
X126128974Y-77137795D01*
X126135821Y-77256041D01*
X126140454Y-77335992D01*
X126147558Y-77458976D01*
X126154290Y-77576279D01*
X126160548Y-77686107D01*
X126166234Y-77786665D01*
X126171245Y-77876161D01*
X126175483Y-77952799D01*
X126178847Y-78014786D01*
X126181238Y-78060327D01*
X126182554Y-78087630D01*
X126182787Y-78094570D01*
X126182841Y-78123674D01*
X126061133Y-78123674D01*
X126008940Y-78123511D01*
X125974313Y-78122554D01*
X125953654Y-78120099D01*
X125943362Y-78115439D01*
X125939838Y-78107871D01*
X125939471Y-78099861D01*
X125938987Y-78083726D01*
X125937592Y-78049189D01*
X125935409Y-77998991D01*
X125932562Y-77935871D01*
X125929171Y-77862570D01*
X125925361Y-77781828D01*
X125923235Y-77737382D01*
X125918689Y-77640204D01*
X125914078Y-77536854D01*
X125909626Y-77432737D01*
X125905561Y-77333254D01*
X125902107Y-77243809D01*
X125899490Y-77169805D01*
X125899375Y-77166309D01*
X125891800Y-76933902D01*
X125845968Y-77145142D01*
X125829153Y-77222578D01*
X125809396Y-77313461D01*
X125788270Y-77410560D01*
X125767349Y-77506644D01*
X125748206Y-77594479D01*
X125746397Y-77602776D01*
X125692659Y-77849169D01*
X125575823Y-77846192D01*
X125458987Y-77843216D01*
X125344926Y-77366966D01*
X125230866Y-76890716D01*
X125236805Y-77086507D01*
X125237955Y-77158977D01*
X125237659Y-77248418D01*
X125235998Y-77350692D01*
X125233052Y-77461660D01*
X125228902Y-77577182D01*
X125225960Y-77644954D01*
X125221955Y-77733015D01*
X125218292Y-77816490D01*
X125215088Y-77892473D01*
X125212462Y-77958055D01*
X125210531Y-78010328D01*
X125209412Y-78046386D01*
X125209175Y-78060350D01*
X125209175Y-78113091D01*
X124964303Y-78113091D01*
X124970796Y-78031070D01*
X124972538Y-78006077D01*
X124975259Y-77963141D01*
X124978834Y-77904468D01*
X124983140Y-77832262D01*
X124988050Y-77748728D01*
X124993440Y-77656069D01*
X124999185Y-77556491D01*
X125005161Y-77452199D01*
X125011242Y-77345397D01*
X125017304Y-77238289D01*
X125023221Y-77133081D01*
X125028869Y-77031977D01*
X125034123Y-76937181D01*
X125038857Y-76850899D01*
X125042948Y-76775334D01*
X125046271Y-76712693D01*
X125048700Y-76665178D01*
X125050110Y-76634995D01*
X125050425Y-76625213D01*
X125050425Y-76599674D01*
X125208042Y-76599674D01*
X125274024Y-76600195D01*
G37*
X125274024Y-76600195D02*
X125321058Y-76601879D01*
X125351339Y-76604904D01*
X125367063Y-76609450D01*
X125370395Y-76612903D01*
X125373514Y-76625703D01*
X125380553Y-76657070D01*
X125391050Y-76704866D01*
X125404541Y-76766951D01*
X125420563Y-76841185D01*
X125438652Y-76925429D01*
X125458344Y-77017543D01*
X125474715Y-77094400D01*
X125495298Y-77190653D01*
X125514674Y-77280241D01*
X125532381Y-77361103D01*
X125547958Y-77431175D01*
X125560943Y-77488397D01*
X125570873Y-77530704D01*
X125577287Y-77556035D01*
X125579591Y-77562693D01*
X125582776Y-77552688D01*
X125589623Y-77524135D01*
X125599656Y-77479245D01*
X125612400Y-77420228D01*
X125627380Y-77349295D01*
X125644119Y-77268655D01*
X125662143Y-77180520D01*
X125667793Y-77152634D01*
X125686732Y-77059135D01*
X125704970Y-76969425D01*
X125721943Y-76886257D01*
X125737086Y-76812382D01*
X125749835Y-76750554D01*
X125759625Y-76703526D01*
X125765892Y-76674048D01*
X125766537Y-76671111D01*
X125782371Y-76599674D01*
X125940273Y-76599674D01*
X125995362Y-76599890D01*
X126042079Y-76600485D01*
X126076756Y-76601381D01*
X126095725Y-76602496D01*
X126098175Y-76603096D01*
X126098771Y-76613962D01*
X126100495Y-76644245D01*
X126103247Y-76692233D01*
X126106928Y-76756214D01*
X126111441Y-76834473D01*
X126116685Y-76925299D01*
X126122562Y-77026977D01*
X126128974Y-77137795D01*
X126135821Y-77256041D01*
X126140454Y-77335992D01*
X126147558Y-77458976D01*
X126154290Y-77576279D01*
X126160548Y-77686107D01*
X126166234Y-77786665D01*
X126171245Y-77876161D01*
X126175483Y-77952799D01*
X126178847Y-78014786D01*
X126181238Y-78060327D01*
X126182554Y-78087630D01*
X126182787Y-78094570D01*
X126182841Y-78123674D01*
X126061133Y-78123674D01*
X126008940Y-78123511D01*
X125974313Y-78122554D01*
X125953654Y-78120099D01*
X125943362Y-78115439D01*
X125939838Y-78107871D01*
X125939471Y-78099861D01*
X125938987Y-78083726D01*
X125937592Y-78049189D01*
X125935409Y-77998991D01*
X125932562Y-77935871D01*
X125929171Y-77862570D01*
X125925361Y-77781828D01*
X125923235Y-77737382D01*
X125918689Y-77640204D01*
X125914078Y-77536854D01*
X125909626Y-77432737D01*
X125905561Y-77333254D01*
X125902107Y-77243809D01*
X125899490Y-77169805D01*
X125899375Y-77166309D01*
X125891800Y-76933902D01*
X125845968Y-77145142D01*
X125829153Y-77222578D01*
X125809396Y-77313461D01*
X125788270Y-77410560D01*
X125767349Y-77506644D01*
X125748206Y-77594479D01*
X125746397Y-77602776D01*
X125692659Y-77849169D01*
X125575823Y-77846192D01*
X125458987Y-77843216D01*
X125344926Y-77366966D01*
X125230866Y-76890716D01*
X125236805Y-77086507D01*
X125237955Y-77158977D01*
X125237659Y-77248418D01*
X125235998Y-77350692D01*
X125233052Y-77461660D01*
X125228902Y-77577182D01*
X125225960Y-77644954D01*
X125221955Y-77733015D01*
X125218292Y-77816490D01*
X125215088Y-77892473D01*
X125212462Y-77958055D01*
X125210531Y-78010328D01*
X125209412Y-78046386D01*
X125209175Y-78060350D01*
X125209175Y-78113091D01*
X124964303Y-78113091D01*
X124970796Y-78031070D01*
X124972538Y-78006077D01*
X124975259Y-77963141D01*
X124978834Y-77904468D01*
X124983140Y-77832262D01*
X124988050Y-77748728D01*
X124993440Y-77656069D01*
X124999185Y-77556491D01*
X125005161Y-77452199D01*
X125011242Y-77345397D01*
X125017304Y-77238289D01*
X125023221Y-77133081D01*
X125028869Y-77031977D01*
X125034123Y-76937181D01*
X125038857Y-76850899D01*
X125042948Y-76775334D01*
X125046271Y-76712693D01*
X125048700Y-76665178D01*
X125050110Y-76634995D01*
X125050425Y-76625213D01*
X125050425Y-76599674D01*
X125208042Y-76599674D01*
X125274024Y-76600195D01*
G36*
X118951245Y-76932106D02*
G01*
X119005904Y-76956159D01*
X119049018Y-76997485D01*
X119070283Y-77031678D01*
X119082954Y-77056223D01*
X119133116Y-77009303D01*
X119171986Y-76974868D01*
X119203958Y-76952622D01*
X119236064Y-76938819D01*
X119275337Y-76929713D01*
X119285857Y-76927931D01*
X119359446Y-76924703D01*
X119423535Y-76939987D01*
X119477086Y-76973228D01*
X119519062Y-77023873D01*
X119538471Y-77062902D01*
X119544154Y-77077314D01*
X119548883Y-77091230D01*
X119552744Y-77106652D01*
X119555826Y-77125582D01*
X119558216Y-77150021D01*
X119560003Y-77181970D01*
X119561274Y-77223431D01*
X119562117Y-77276404D01*
X119562620Y-77342892D01*
X119562870Y-77424895D01*
X119562957Y-77524415D01*
X119562966Y-77620966D01*
X119562966Y-78118382D01*
X119455097Y-78121391D01*
X119347229Y-78124401D01*
X119343972Y-77661016D01*
X119343060Y-77542373D01*
X119342000Y-77443133D01*
X119340592Y-77361533D01*
X119338636Y-77295809D01*
X119335932Y-77244199D01*
X119332279Y-77204938D01*
X119327476Y-77176264D01*
X119321324Y-77156412D01*
X119313622Y-77143621D01*
X119304169Y-77136125D01*
X119292766Y-77132163D01*
X119283686Y-77130571D01*
X119246941Y-77133582D01*
X119204073Y-77149104D01*
X119162777Y-77173614D01*
X119134834Y-77198687D01*
X119102591Y-77235410D01*
X119102591Y-78123674D01*
X118891740Y-78123674D01*
X118888686Y-77641272D01*
X118887935Y-77527600D01*
X118887191Y-77433229D01*
X118886365Y-77356294D01*
X118885369Y-77294931D01*
X118884116Y-77247273D01*
X118882515Y-77211456D01*
X118880479Y-77185615D01*
X118877920Y-77167884D01*
X118874748Y-77156398D01*
X118870876Y-77149292D01*
X118866214Y-77144702D01*
X118865089Y-77143855D01*
X118829580Y-77130403D01*
X118787138Y-77135276D01*
X118740104Y-77157774D01*
X118692487Y-77195601D01*
X118658091Y-77228243D01*
X118658091Y-78123674D01*
X118425258Y-78123674D01*
X118425258Y-76948924D01*
X118519795Y-76948924D01*
X118565752Y-76949038D01*
X118595022Y-76951417D01*
X118612068Y-76959114D01*
X118621356Y-76975182D01*
X118627350Y-77002674D01*
X118631070Y-77025024D01*
X118637648Y-77064083D01*
X118680482Y-77017613D01*
X118738019Y-76967393D01*
X118800922Y-76936911D01*
X118871966Y-76924899D01*
X118883794Y-76924610D01*
X118951245Y-76932106D01*
G37*
X118951245Y-76932106D02*
X119005904Y-76956159D01*
X119049018Y-76997485D01*
X119070283Y-77031678D01*
X119082954Y-77056223D01*
X119133116Y-77009303D01*
X119171986Y-76974868D01*
X119203958Y-76952622D01*
X119236064Y-76938819D01*
X119275337Y-76929713D01*
X119285857Y-76927931D01*
X119359446Y-76924703D01*
X119423535Y-76939987D01*
X119477086Y-76973228D01*
X119519062Y-77023873D01*
X119538471Y-77062902D01*
X119544154Y-77077314D01*
X119548883Y-77091230D01*
X119552744Y-77106652D01*
X119555826Y-77125582D01*
X119558216Y-77150021D01*
X119560003Y-77181970D01*
X119561274Y-77223431D01*
X119562117Y-77276404D01*
X119562620Y-77342892D01*
X119562870Y-77424895D01*
X119562957Y-77524415D01*
X119562966Y-77620966D01*
X119562966Y-78118382D01*
X119455097Y-78121391D01*
X119347229Y-78124401D01*
X119343972Y-77661016D01*
X119343060Y-77542373D01*
X119342000Y-77443133D01*
X119340592Y-77361533D01*
X119338636Y-77295809D01*
X119335932Y-77244199D01*
X119332279Y-77204938D01*
X119327476Y-77176264D01*
X119321324Y-77156412D01*
X119313622Y-77143621D01*
X119304169Y-77136125D01*
X119292766Y-77132163D01*
X119283686Y-77130571D01*
X119246941Y-77133582D01*
X119204073Y-77149104D01*
X119162777Y-77173614D01*
X119134834Y-77198687D01*
X119102591Y-77235410D01*
X119102591Y-78123674D01*
X118891740Y-78123674D01*
X118888686Y-77641272D01*
X118887935Y-77527600D01*
X118887191Y-77433229D01*
X118886365Y-77356294D01*
X118885369Y-77294931D01*
X118884116Y-77247273D01*
X118882515Y-77211456D01*
X118880479Y-77185615D01*
X118877920Y-77167884D01*
X118874748Y-77156398D01*
X118870876Y-77149292D01*
X118866214Y-77144702D01*
X118865089Y-77143855D01*
X118829580Y-77130403D01*
X118787138Y-77135276D01*
X118740104Y-77157774D01*
X118692487Y-77195601D01*
X118658091Y-77228243D01*
X118658091Y-78123674D01*
X118425258Y-78123674D01*
X118425258Y-76948924D01*
X118519795Y-76948924D01*
X118565752Y-76949038D01*
X118595022Y-76951417D01*
X118612068Y-76959114D01*
X118621356Y-76975182D01*
X118627350Y-77002674D01*
X118631070Y-77025024D01*
X118637648Y-77064083D01*
X118680482Y-77017613D01*
X118738019Y-76967393D01*
X118800922Y-76936911D01*
X118871966Y-76924899D01*
X118883794Y-76924610D01*
X118951245Y-76932106D01*
G36*
X117853758Y-77933174D02*
G01*
X118171258Y-77933174D01*
X118171258Y-78123674D01*
X117250508Y-78123674D01*
X117250508Y-77933174D01*
X117599758Y-77933174D01*
X117599758Y-77139424D01*
X117271675Y-77139424D01*
X117271675Y-76948924D01*
X117853758Y-76948924D01*
X117853758Y-77933174D01*
G37*
X117853758Y-77933174D02*
X118171258Y-77933174D01*
X118171258Y-78123674D01*
X117250508Y-78123674D01*
X117250508Y-77933174D01*
X117599758Y-77933174D01*
X117599758Y-77139424D01*
X117271675Y-77139424D01*
X117271675Y-76948924D01*
X117853758Y-76948924D01*
X117853758Y-77933174D01*
G36*
X145291866Y-76579105D02*
G01*
X145368026Y-76585769D01*
X145432595Y-76598278D01*
X145440747Y-76600633D01*
X145531031Y-76636568D01*
X145604741Y-76684770D01*
X145663367Y-76746471D01*
X145707723Y-76821441D01*
X145728920Y-76888705D01*
X145736264Y-76964013D01*
X145729687Y-77039349D01*
X145710098Y-77104518D01*
X145679203Y-77155844D01*
X145634125Y-77207392D01*
X145580946Y-77253271D01*
X145525747Y-77287593D01*
X145516734Y-77291795D01*
X145461960Y-77315968D01*
X145498873Y-77321958D01*
X145569142Y-77343280D01*
X145636314Y-77381992D01*
X145695543Y-77434391D01*
X145741984Y-77496771D01*
X145751979Y-77515408D01*
X145764044Y-77542606D01*
X145771677Y-77568906D01*
X145775821Y-77600359D01*
X145777422Y-77643015D01*
X145777547Y-77679174D01*
X145774245Y-77758136D01*
X145763438Y-77822107D01*
X145742974Y-77876576D01*
X145710702Y-77927031D01*
X145664471Y-77978959D01*
X145657142Y-77986283D01*
X145583775Y-78048437D01*
X145504767Y-78094102D01*
X145417056Y-78124401D01*
X145317576Y-78140456D01*
X145227550Y-78143802D01*
X145173499Y-78141861D01*
X145119224Y-78137292D01*
X145073545Y-78130927D01*
X145058920Y-78127888D01*
X144979752Y-78102143D01*
X144899739Y-78064525D01*
X144827231Y-78019339D01*
X144788906Y-77988692D01*
X144731263Y-77936878D01*
X144773031Y-77899569D01*
X144807045Y-77869402D01*
X144842763Y-77838038D01*
X144854170Y-77828107D01*
X144893540Y-77793955D01*
X144932806Y-77832090D01*
X145001512Y-77884321D01*
X145082390Y-77920409D01*
X145172655Y-77939190D01*
X145192498Y-77940823D01*
X145262864Y-77941840D01*
X145319902Y-77934203D01*
X145370196Y-77916438D01*
X145414248Y-77891159D01*
X145466430Y-77844443D01*
X145502260Y-77785214D01*
X145520626Y-77715644D01*
X145522915Y-77678469D01*
X145515987Y-77600831D01*
X145494698Y-77537454D01*
X145458410Y-77487809D01*
X145406488Y-77451370D01*
X145338296Y-77427610D01*
X145253198Y-77416002D01*
X145204462Y-77414591D01*
X145158089Y-77414744D01*
X145128428Y-77412701D01*
X145112491Y-77404711D01*
X145107293Y-77387020D01*
X145109849Y-77355876D01*
X145117170Y-77307525D01*
X145117502Y-77305304D01*
X145129162Y-77226904D01*
X145221964Y-77221612D01*
X145274034Y-77217315D01*
X145312751Y-77210178D01*
X145345905Y-77198345D01*
X145369845Y-77186343D01*
X145422206Y-77147323D01*
X145458427Y-77098490D01*
X145478830Y-77043338D01*
X145483736Y-76985358D01*
X145473468Y-76928045D01*
X145448346Y-76874890D01*
X145408694Y-76829386D01*
X145354832Y-76795028D01*
X145333007Y-76786391D01*
X145255709Y-76770809D01*
X145174178Y-76773709D01*
X145092434Y-76794084D01*
X145014499Y-76830926D01*
X144944392Y-76883226D01*
X144943495Y-76884055D01*
X144913440Y-76911882D01*
X144777734Y-76763716D01*
X144819795Y-76725489D01*
X144868971Y-76688138D01*
X144931196Y-76651575D01*
X144998612Y-76619885D01*
X145063360Y-76597152D01*
X145070327Y-76595284D01*
X145135367Y-76583752D01*
X145211763Y-76578395D01*
X145291866Y-76579105D01*
G37*
X145291866Y-76579105D02*
X145368026Y-76585769D01*
X145432595Y-76598278D01*
X145440747Y-76600633D01*
X145531031Y-76636568D01*
X145604741Y-76684770D01*
X145663367Y-76746471D01*
X145707723Y-76821441D01*
X145728920Y-76888705D01*
X145736264Y-76964013D01*
X145729687Y-77039349D01*
X145710098Y-77104518D01*
X145679203Y-77155844D01*
X145634125Y-77207392D01*
X145580946Y-77253271D01*
X145525747Y-77287593D01*
X145516734Y-77291795D01*
X145461960Y-77315968D01*
X145498873Y-77321958D01*
X145569142Y-77343280D01*
X145636314Y-77381992D01*
X145695543Y-77434391D01*
X145741984Y-77496771D01*
X145751979Y-77515408D01*
X145764044Y-77542606D01*
X145771677Y-77568906D01*
X145775821Y-77600359D01*
X145777422Y-77643015D01*
X145777547Y-77679174D01*
X145774245Y-77758136D01*
X145763438Y-77822107D01*
X145742974Y-77876576D01*
X145710702Y-77927031D01*
X145664471Y-77978959D01*
X145657142Y-77986283D01*
X145583775Y-78048437D01*
X145504767Y-78094102D01*
X145417056Y-78124401D01*
X145317576Y-78140456D01*
X145227550Y-78143802D01*
X145173499Y-78141861D01*
X145119224Y-78137292D01*
X145073545Y-78130927D01*
X145058920Y-78127888D01*
X144979752Y-78102143D01*
X144899739Y-78064525D01*
X144827231Y-78019339D01*
X144788906Y-77988692D01*
X144731263Y-77936878D01*
X144773031Y-77899569D01*
X144807045Y-77869402D01*
X144842763Y-77838038D01*
X144854170Y-77828107D01*
X144893540Y-77793955D01*
X144932806Y-77832090D01*
X145001512Y-77884321D01*
X145082390Y-77920409D01*
X145172655Y-77939190D01*
X145192498Y-77940823D01*
X145262864Y-77941840D01*
X145319902Y-77934203D01*
X145370196Y-77916438D01*
X145414248Y-77891159D01*
X145466430Y-77844443D01*
X145502260Y-77785214D01*
X145520626Y-77715644D01*
X145522915Y-77678469D01*
X145515987Y-77600831D01*
X145494698Y-77537454D01*
X145458410Y-77487809D01*
X145406488Y-77451370D01*
X145338296Y-77427610D01*
X145253198Y-77416002D01*
X145204462Y-77414591D01*
X145158089Y-77414744D01*
X145128428Y-77412701D01*
X145112491Y-77404711D01*
X145107293Y-77387020D01*
X145109849Y-77355876D01*
X145117170Y-77307525D01*
X145117502Y-77305304D01*
X145129162Y-77226904D01*
X145221964Y-77221612D01*
X145274034Y-77217315D01*
X145312751Y-77210178D01*
X145345905Y-77198345D01*
X145369845Y-77186343D01*
X145422206Y-77147323D01*
X145458427Y-77098490D01*
X145478830Y-77043338D01*
X145483736Y-76985358D01*
X145473468Y-76928045D01*
X145448346Y-76874890D01*
X145408694Y-76829386D01*
X145354832Y-76795028D01*
X145333007Y-76786391D01*
X145255709Y-76770809D01*
X145174178Y-76773709D01*
X145092434Y-76794084D01*
X145014499Y-76830926D01*
X144944392Y-76883226D01*
X144943495Y-76884055D01*
X144913440Y-76911882D01*
X144777734Y-76763716D01*
X144819795Y-76725489D01*
X144868971Y-76688138D01*
X144931196Y-76651575D01*
X144998612Y-76619885D01*
X145063360Y-76597152D01*
X145070327Y-76595284D01*
X145135367Y-76583752D01*
X145211763Y-76578395D01*
X145291866Y-76579105D01*
G36*
X141437307Y-76922328D02*
G01*
X141534122Y-76940369D01*
X141599720Y-76964469D01*
X141655679Y-76997684D01*
X141712579Y-77044524D01*
X141763661Y-77098897D01*
X141792106Y-77137819D01*
X141827818Y-77207486D01*
X141856447Y-77290567D01*
X141876485Y-77380059D01*
X141886422Y-77468959D01*
X141884752Y-77550261D01*
X141883365Y-77561675D01*
X141875938Y-77615674D01*
X141115925Y-77615674D01*
X141115925Y-77652318D01*
X141122514Y-77698280D01*
X141140047Y-77751389D01*
X141165170Y-77803187D01*
X141190572Y-77840580D01*
X141220246Y-77870312D01*
X141257173Y-77899312D01*
X141272808Y-77909372D01*
X141296944Y-77922560D01*
X141319103Y-77931035D01*
X141344988Y-77935826D01*
X141380301Y-77937960D01*
X141430743Y-77938465D01*
X141434222Y-77938466D01*
X141484685Y-77938158D01*
X141520940Y-77936192D01*
X141549950Y-77931009D01*
X141578674Y-77921044D01*
X141614072Y-77904738D01*
X141638762Y-77892572D01*
X141679530Y-77871957D01*
X141707345Y-77859533D01*
X141727055Y-77856796D01*
X141743508Y-77865240D01*
X141761554Y-77886362D01*
X141786041Y-77921658D01*
X141800352Y-77942417D01*
X141839967Y-77999285D01*
X141813967Y-78020676D01*
X141777509Y-78044947D01*
X141727170Y-78070943D01*
X141669712Y-78095721D01*
X141611901Y-78116336D01*
X141565413Y-78128844D01*
X141492195Y-78139595D01*
X141412041Y-78143474D01*
X141332800Y-78140582D01*
X141262320Y-78131022D01*
X141235601Y-78124584D01*
X141141677Y-78087033D01*
X141058018Y-78031927D01*
X140986213Y-77961016D01*
X140927852Y-77876053D01*
X140884527Y-77778789D01*
X140867237Y-77718805D01*
X140858078Y-77661808D01*
X140853173Y-77591481D01*
X140852518Y-77515231D01*
X140855829Y-77446341D01*
X141112963Y-77446341D01*
X141637448Y-77446341D01*
X141631746Y-77383461D01*
X141622928Y-77335173D01*
X141606291Y-77281770D01*
X141584812Y-77230916D01*
X141561471Y-77190273D01*
X141551993Y-77178272D01*
X141506335Y-77142605D01*
X141448816Y-77120215D01*
X141385047Y-77112430D01*
X141320637Y-77120578D01*
X141314934Y-77122158D01*
X141253875Y-77150521D01*
X141201327Y-77196006D01*
X141159583Y-77255501D01*
X141130936Y-77325895D01*
X141118974Y-77388101D01*
X141112963Y-77446341D01*
X140855829Y-77446341D01*
X140856112Y-77440463D01*
X140863953Y-77374582D01*
X140867337Y-77356686D01*
X140898366Y-77253920D01*
X140944983Y-77161006D01*
X141005404Y-77080395D01*
X141077843Y-77014537D01*
X141147675Y-76971918D01*
X141239045Y-76938185D01*
X141337268Y-76921627D01*
X141437307Y-76922328D01*
G37*
X141437307Y-76922328D02*
X141534122Y-76940369D01*
X141599720Y-76964469D01*
X141655679Y-76997684D01*
X141712579Y-77044524D01*
X141763661Y-77098897D01*
X141792106Y-77137819D01*
X141827818Y-77207486D01*
X141856447Y-77290567D01*
X141876485Y-77380059D01*
X141886422Y-77468959D01*
X141884752Y-77550261D01*
X141883365Y-77561675D01*
X141875938Y-77615674D01*
X141115925Y-77615674D01*
X141115925Y-77652318D01*
X141122514Y-77698280D01*
X141140047Y-77751389D01*
X141165170Y-77803187D01*
X141190572Y-77840580D01*
X141220246Y-77870312D01*
X141257173Y-77899312D01*
X141272808Y-77909372D01*
X141296944Y-77922560D01*
X141319103Y-77931035D01*
X141344988Y-77935826D01*
X141380301Y-77937960D01*
X141430743Y-77938465D01*
X141434222Y-77938466D01*
X141484685Y-77938158D01*
X141520940Y-77936192D01*
X141549950Y-77931009D01*
X141578674Y-77921044D01*
X141614072Y-77904738D01*
X141638762Y-77892572D01*
X141679530Y-77871957D01*
X141707345Y-77859533D01*
X141727055Y-77856796D01*
X141743508Y-77865240D01*
X141761554Y-77886362D01*
X141786041Y-77921658D01*
X141800352Y-77942417D01*
X141839967Y-77999285D01*
X141813967Y-78020676D01*
X141777509Y-78044947D01*
X141727170Y-78070943D01*
X141669712Y-78095721D01*
X141611901Y-78116336D01*
X141565413Y-78128844D01*
X141492195Y-78139595D01*
X141412041Y-78143474D01*
X141332800Y-78140582D01*
X141262320Y-78131022D01*
X141235601Y-78124584D01*
X141141677Y-78087033D01*
X141058018Y-78031927D01*
X140986213Y-77961016D01*
X140927852Y-77876053D01*
X140884527Y-77778789D01*
X140867237Y-77718805D01*
X140858078Y-77661808D01*
X140853173Y-77591481D01*
X140852518Y-77515231D01*
X140855829Y-77446341D01*
X141112963Y-77446341D01*
X141637448Y-77446341D01*
X141631746Y-77383461D01*
X141622928Y-77335173D01*
X141606291Y-77281770D01*
X141584812Y-77230916D01*
X141561471Y-77190273D01*
X141551993Y-77178272D01*
X141506335Y-77142605D01*
X141448816Y-77120215D01*
X141385047Y-77112430D01*
X141320637Y-77120578D01*
X141314934Y-77122158D01*
X141253875Y-77150521D01*
X141201327Y-77196006D01*
X141159583Y-77255501D01*
X141130936Y-77325895D01*
X141118974Y-77388101D01*
X141112963Y-77446341D01*
X140855829Y-77446341D01*
X140856112Y-77440463D01*
X140863953Y-77374582D01*
X140867337Y-77356686D01*
X140898366Y-77253920D01*
X140944983Y-77161006D01*
X141005404Y-77080395D01*
X141077843Y-77014537D01*
X141147675Y-76971918D01*
X141239045Y-76938185D01*
X141337268Y-76921627D01*
X141437307Y-76922328D01*
G36*
X135054320Y-76465902D02*
G01*
X135096052Y-76470676D01*
X135146054Y-76475977D01*
X135181320Y-76479479D01*
X135252758Y-76486297D01*
X135252758Y-78123674D01*
X135142867Y-78123674D01*
X135090490Y-78123281D01*
X135055679Y-78120397D01*
X135034831Y-78112459D01*
X135024345Y-78096908D01*
X135020620Y-78071182D01*
X135020069Y-78036361D01*
X135018731Y-78010832D01*
X135015594Y-77997318D01*
X135014645Y-77996674D01*
X135004803Y-78003445D01*
X134984854Y-78020944D01*
X134966064Y-78038697D01*
X134930989Y-78067651D01*
X134888231Y-78096124D01*
X134862997Y-78109960D01*
X134831175Y-78124128D01*
X134801360Y-78133159D01*
X134766738Y-78138358D01*
X134720495Y-78141029D01*
X134697266Y-78141680D01*
X134649063Y-78141900D01*
X134606332Y-78140460D01*
X134575162Y-78137644D01*
X134564841Y-78135513D01*
X134484835Y-78099382D01*
X134416583Y-78046873D01*
X134359716Y-77977486D01*
X134313864Y-77890724D01*
X134278658Y-77786090D01*
X134266120Y-77732702D01*
X134251993Y-77628386D01*
X134250570Y-77527243D01*
X134522588Y-77527243D01*
X134527638Y-77642976D01*
X134542668Y-77740272D01*
X134567784Y-77819416D01*
X134603092Y-77880693D01*
X134648698Y-77924389D01*
X134675966Y-77940001D01*
X134715037Y-77949701D01*
X134764779Y-77950239D01*
X134817112Y-77942276D01*
X134863961Y-77926475D01*
X134868589Y-77924207D01*
X134899880Y-77903600D01*
X134934539Y-77873980D01*
X134955136Y-77852751D01*
X134998758Y-77803194D01*
X134998758Y-77237137D01*
X134957361Y-77199737D01*
X134920598Y-77168729D01*
X134889087Y-77149169D01*
X134854100Y-77136616D01*
X134817640Y-77128613D01*
X134749421Y-77124843D01*
X134688814Y-77140140D01*
X134636514Y-77173563D01*
X134593216Y-77224173D01*
X134559614Y-77291033D01*
X134536404Y-77373202D01*
X134524280Y-77469742D01*
X134522588Y-77527243D01*
X134250570Y-77527243D01*
X134250434Y-77517631D01*
X134260752Y-77405913D01*
X134282258Y-77298709D01*
X134314260Y-77201496D01*
X134340034Y-77146860D01*
X134361656Y-77114529D01*
X134393210Y-77076097D01*
X134428434Y-77039100D01*
X134433921Y-77033883D01*
X134494528Y-76984330D01*
X134554942Y-76951477D01*
X134621261Y-76932973D01*
X134699582Y-76926469D01*
X134712779Y-76926383D01*
X134798169Y-76932353D01*
X134870221Y-76951047D01*
X134933608Y-76984066D01*
X134974945Y-77016223D01*
X134998758Y-77037280D01*
X134998758Y-76459142D01*
X135054320Y-76465902D01*
G37*
X135054320Y-76465902D02*
X135096052Y-76470676D01*
X135146054Y-76475977D01*
X135181320Y-76479479D01*
X135252758Y-76486297D01*
X135252758Y-78123674D01*
X135142867Y-78123674D01*
X135090490Y-78123281D01*
X135055679Y-78120397D01*
X135034831Y-78112459D01*
X135024345Y-78096908D01*
X135020620Y-78071182D01*
X135020069Y-78036361D01*
X135018731Y-78010832D01*
X135015594Y-77997318D01*
X135014645Y-77996674D01*
X135004803Y-78003445D01*
X134984854Y-78020944D01*
X134966064Y-78038697D01*
X134930989Y-78067651D01*
X134888231Y-78096124D01*
X134862997Y-78109960D01*
X134831175Y-78124128D01*
X134801360Y-78133159D01*
X134766738Y-78138358D01*
X134720495Y-78141029D01*
X134697266Y-78141680D01*
X134649063Y-78141900D01*
X134606332Y-78140460D01*
X134575162Y-78137644D01*
X134564841Y-78135513D01*
X134484835Y-78099382D01*
X134416583Y-78046873D01*
X134359716Y-77977486D01*
X134313864Y-77890724D01*
X134278658Y-77786090D01*
X134266120Y-77732702D01*
X134251993Y-77628386D01*
X134250570Y-77527243D01*
X134522588Y-77527243D01*
X134527638Y-77642976D01*
X134542668Y-77740272D01*
X134567784Y-77819416D01*
X134603092Y-77880693D01*
X134648698Y-77924389D01*
X134675966Y-77940001D01*
X134715037Y-77949701D01*
X134764779Y-77950239D01*
X134817112Y-77942276D01*
X134863961Y-77926475D01*
X134868589Y-77924207D01*
X134899880Y-77903600D01*
X134934539Y-77873980D01*
X134955136Y-77852751D01*
X134998758Y-77803194D01*
X134998758Y-77237137D01*
X134957361Y-77199737D01*
X134920598Y-77168729D01*
X134889087Y-77149169D01*
X134854100Y-77136616D01*
X134817640Y-77128613D01*
X134749421Y-77124843D01*
X134688814Y-77140140D01*
X134636514Y-77173563D01*
X134593216Y-77224173D01*
X134559614Y-77291033D01*
X134536404Y-77373202D01*
X134524280Y-77469742D01*
X134522588Y-77527243D01*
X134250570Y-77527243D01*
X134250434Y-77517631D01*
X134260752Y-77405913D01*
X134282258Y-77298709D01*
X134314260Y-77201496D01*
X134340034Y-77146860D01*
X134361656Y-77114529D01*
X134393210Y-77076097D01*
X134428434Y-77039100D01*
X134433921Y-77033883D01*
X134494528Y-76984330D01*
X134554942Y-76951477D01*
X134621261Y-76932973D01*
X134699582Y-76926469D01*
X134712779Y-76926383D01*
X134798169Y-76932353D01*
X134870221Y-76951047D01*
X134933608Y-76984066D01*
X134974945Y-77016223D01*
X134998758Y-77037280D01*
X134998758Y-76459142D01*
X135054320Y-76465902D01*
G36*
X133497811Y-76925392D02*
G01*
X133542872Y-76927634D01*
X133578989Y-76932628D01*
X133612250Y-76941070D01*
X133631324Y-76947362D01*
X133712787Y-76981846D01*
X133776771Y-77023341D01*
X133826524Y-77074568D01*
X133865295Y-77138245D01*
X133869199Y-77146495D01*
X133875667Y-77161386D01*
X133880889Y-77176707D01*
X133885040Y-77194916D01*
X133888298Y-77218469D01*
X133890842Y-77249822D01*
X133892847Y-77291434D01*
X133894492Y-77345761D01*
X133895953Y-77415259D01*
X133897408Y-77502386D01*
X133898091Y-77546882D01*
X133899689Y-77647026D01*
X133901360Y-77728196D01*
X133903436Y-77792582D01*
X133906248Y-77842374D01*
X133910128Y-77879763D01*
X133915408Y-77906939D01*
X133922419Y-77926094D01*
X133931495Y-77939416D01*
X133942965Y-77949098D01*
X133957163Y-77957330D01*
X133960520Y-77959078D01*
X133990572Y-77974619D01*
X133961537Y-78057084D01*
X133946230Y-78098400D01*
X133934218Y-78123593D01*
X133922742Y-78136821D01*
X133909040Y-78142243D01*
X133904581Y-78142910D01*
X133868275Y-78139029D01*
X133824476Y-78122217D01*
X133779314Y-78095746D01*
X133738915Y-78062889D01*
X133723249Y-78046090D01*
X133682698Y-77997578D01*
X133642705Y-78033709D01*
X133568295Y-78086764D01*
X133481555Y-78122738D01*
X133382802Y-78141523D01*
X133316733Y-78144495D01*
X133240034Y-78139989D01*
X133178222Y-78127485D01*
X133171014Y-78125133D01*
X133091001Y-78087771D01*
X133027136Y-78036899D01*
X132979844Y-77973178D01*
X132949548Y-77897266D01*
X132936670Y-77809822D01*
X132936923Y-77766600D01*
X133202302Y-77766600D01*
X133206575Y-77832003D01*
X133226986Y-77883772D01*
X133263231Y-77921605D01*
X133315005Y-77945198D01*
X133382003Y-77954246D01*
X133390494Y-77954341D01*
X133441888Y-77951290D01*
X133484438Y-77940440D01*
X133514329Y-77927277D01*
X133553549Y-77903309D01*
X133591522Y-77873158D01*
X133606365Y-77858454D01*
X133644091Y-77816696D01*
X133644091Y-77562757D01*
X133534887Y-77562757D01*
X133435862Y-77568095D01*
X133354789Y-77584261D01*
X133291296Y-77611481D01*
X133245015Y-77649982D01*
X133215576Y-77699990D01*
X133202608Y-77761732D01*
X133202302Y-77766600D01*
X132936923Y-77766600D01*
X132936958Y-77760776D01*
X132948765Y-77679016D01*
X132975634Y-77609015D01*
X133018593Y-77549684D01*
X133078670Y-77499935D01*
X133156894Y-77458678D01*
X133254216Y-77424848D01*
X133291348Y-77415486D01*
X133328689Y-77409146D01*
X133371601Y-77405334D01*
X133425444Y-77403555D01*
X133487987Y-77403285D01*
X133644091Y-77403809D01*
X133644091Y-77341097D01*
X133638209Y-77273966D01*
X133619404Y-77221795D01*
X133585935Y-77181574D01*
X133536061Y-77150291D01*
X133532966Y-77148843D01*
X133484941Y-77134810D01*
X133421908Y-77128638D01*
X133348477Y-77130241D01*
X133269258Y-77139533D01*
X133193763Y-77155169D01*
X133149930Y-77165819D01*
X133114404Y-77173564D01*
X133091714Y-77177468D01*
X133085917Y-77177444D01*
X133080601Y-77166319D01*
X133069987Y-77140237D01*
X133056054Y-77104119D01*
X133051025Y-77090727D01*
X133035476Y-77047909D01*
X133028932Y-77020239D01*
X133033353Y-77002908D01*
X133050696Y-76991104D01*
X133082923Y-76980016D01*
X133097977Y-76975445D01*
X133233621Y-76943009D01*
X133374393Y-76927162D01*
X133437716Y-76925204D01*
X133497811Y-76925392D01*
G37*
X133497811Y-76925392D02*
X133542872Y-76927634D01*
X133578989Y-76932628D01*
X133612250Y-76941070D01*
X133631324Y-76947362D01*
X133712787Y-76981846D01*
X133776771Y-77023341D01*
X133826524Y-77074568D01*
X133865295Y-77138245D01*
X133869199Y-77146495D01*
X133875667Y-77161386D01*
X133880889Y-77176707D01*
X133885040Y-77194916D01*
X133888298Y-77218469D01*
X133890842Y-77249822D01*
X133892847Y-77291434D01*
X133894492Y-77345761D01*
X133895953Y-77415259D01*
X133897408Y-77502386D01*
X133898091Y-77546882D01*
X133899689Y-77647026D01*
X133901360Y-77728196D01*
X133903436Y-77792582D01*
X133906248Y-77842374D01*
X133910128Y-77879763D01*
X133915408Y-77906939D01*
X133922419Y-77926094D01*
X133931495Y-77939416D01*
X133942965Y-77949098D01*
X133957163Y-77957330D01*
X133960520Y-77959078D01*
X133990572Y-77974619D01*
X133961537Y-78057084D01*
X133946230Y-78098400D01*
X133934218Y-78123593D01*
X133922742Y-78136821D01*
X133909040Y-78142243D01*
X133904581Y-78142910D01*
X133868275Y-78139029D01*
X133824476Y-78122217D01*
X133779314Y-78095746D01*
X133738915Y-78062889D01*
X133723249Y-78046090D01*
X133682698Y-77997578D01*
X133642705Y-78033709D01*
X133568295Y-78086764D01*
X133481555Y-78122738D01*
X133382802Y-78141523D01*
X133316733Y-78144495D01*
X133240034Y-78139989D01*
X133178222Y-78127485D01*
X133171014Y-78125133D01*
X133091001Y-78087771D01*
X133027136Y-78036899D01*
X132979844Y-77973178D01*
X132949548Y-77897266D01*
X132936670Y-77809822D01*
X132936923Y-77766600D01*
X133202302Y-77766600D01*
X133206575Y-77832003D01*
X133226986Y-77883772D01*
X133263231Y-77921605D01*
X133315005Y-77945198D01*
X133382003Y-77954246D01*
X133390494Y-77954341D01*
X133441888Y-77951290D01*
X133484438Y-77940440D01*
X133514329Y-77927277D01*
X133553549Y-77903309D01*
X133591522Y-77873158D01*
X133606365Y-77858454D01*
X133644091Y-77816696D01*
X133644091Y-77562757D01*
X133534887Y-77562757D01*
X133435862Y-77568095D01*
X133354789Y-77584261D01*
X133291296Y-77611481D01*
X133245015Y-77649982D01*
X133215576Y-77699990D01*
X133202608Y-77761732D01*
X133202302Y-77766600D01*
X132936923Y-77766600D01*
X132936958Y-77760776D01*
X132948765Y-77679016D01*
X132975634Y-77609015D01*
X133018593Y-77549684D01*
X133078670Y-77499935D01*
X133156894Y-77458678D01*
X133254216Y-77424848D01*
X133291348Y-77415486D01*
X133328689Y-77409146D01*
X133371601Y-77405334D01*
X133425444Y-77403555D01*
X133487987Y-77403285D01*
X133644091Y-77403809D01*
X133644091Y-77341097D01*
X133638209Y-77273966D01*
X133619404Y-77221795D01*
X133585935Y-77181574D01*
X133536061Y-77150291D01*
X133532966Y-77148843D01*
X133484941Y-77134810D01*
X133421908Y-77128638D01*
X133348477Y-77130241D01*
X133269258Y-77139533D01*
X133193763Y-77155169D01*
X133149930Y-77165819D01*
X133114404Y-77173564D01*
X133091714Y-77177468D01*
X133085917Y-77177444D01*
X133080601Y-77166319D01*
X133069987Y-77140237D01*
X133056054Y-77104119D01*
X133051025Y-77090727D01*
X133035476Y-77047909D01*
X133028932Y-77020239D01*
X133033353Y-77002908D01*
X133050696Y-76991104D01*
X133082923Y-76980016D01*
X133097977Y-76975445D01*
X133233621Y-76943009D01*
X133374393Y-76927162D01*
X133437716Y-76925204D01*
X133497811Y-76925392D01*
G36*
X130943991Y-76930820D02*
G01*
X131036869Y-76957666D01*
X131125019Y-77002437D01*
X131158897Y-77025897D01*
X131201411Y-77059804D01*
X131232806Y-77090856D01*
X131258730Y-77125888D01*
X131284831Y-77171736D01*
X131293827Y-77189184D01*
X131331280Y-77282519D01*
X131356392Y-77387969D01*
X131368547Y-77500028D01*
X131367130Y-77613188D01*
X131352753Y-77716216D01*
X131330091Y-77794122D01*
X131296267Y-77871721D01*
X131254802Y-77942108D01*
X131209220Y-77998381D01*
X131208255Y-77999351D01*
X131138176Y-78055380D01*
X131054937Y-78098768D01*
X130963182Y-78128325D01*
X130867554Y-78142859D01*
X130772697Y-78141178D01*
X130704830Y-78128552D01*
X130605092Y-78091849D01*
X130519156Y-78039367D01*
X130447544Y-77971527D01*
X130390781Y-77888745D01*
X130380631Y-77869167D01*
X130344508Y-77780629D01*
X130321892Y-77687145D01*
X130311621Y-77583192D01*
X130310709Y-77536299D01*
X130313230Y-77483554D01*
X130577841Y-77483554D01*
X130578454Y-77589428D01*
X130578627Y-77592153D01*
X130587703Y-77668579D01*
X130603969Y-77740756D01*
X130625920Y-77803913D01*
X130652048Y-77853274D01*
X130666992Y-77872125D01*
X130722589Y-77916597D01*
X130785114Y-77942104D01*
X130851477Y-77948095D01*
X130918588Y-77934019D01*
X130946343Y-77921946D01*
X130998331Y-77885013D01*
X131039452Y-77832033D01*
X131070018Y-77762300D01*
X131090343Y-77675107D01*
X131100559Y-77573341D01*
X131100239Y-77474646D01*
X131089395Y-77383924D01*
X131068828Y-77303784D01*
X131039340Y-77236833D01*
X131001733Y-77185678D01*
X130974358Y-77162817D01*
X130929655Y-77142637D01*
X130874247Y-77131004D01*
X130816332Y-77128580D01*
X130764109Y-77136028D01*
X130741904Y-77144031D01*
X130689002Y-77180598D01*
X130645487Y-77234641D01*
X130612016Y-77304353D01*
X130589248Y-77387926D01*
X130577841Y-77483554D01*
X130313230Y-77483554D01*
X130315771Y-77430398D01*
X130331912Y-77336727D01*
X130360560Y-77248677D01*
X130384282Y-77195924D01*
X130435984Y-77113589D01*
X130501525Y-77045105D01*
X130578254Y-76991054D01*
X130663517Y-76952018D01*
X130754662Y-76928579D01*
X130849038Y-76921319D01*
X130943991Y-76930820D01*
G37*
X130943991Y-76930820D02*
X131036869Y-76957666D01*
X131125019Y-77002437D01*
X131158897Y-77025897D01*
X131201411Y-77059804D01*
X131232806Y-77090856D01*
X131258730Y-77125888D01*
X131284831Y-77171736D01*
X131293827Y-77189184D01*
X131331280Y-77282519D01*
X131356392Y-77387969D01*
X131368547Y-77500028D01*
X131367130Y-77613188D01*
X131352753Y-77716216D01*
X131330091Y-77794122D01*
X131296267Y-77871721D01*
X131254802Y-77942108D01*
X131209220Y-77998381D01*
X131208255Y-77999351D01*
X131138176Y-78055380D01*
X131054937Y-78098768D01*
X130963182Y-78128325D01*
X130867554Y-78142859D01*
X130772697Y-78141178D01*
X130704830Y-78128552D01*
X130605092Y-78091849D01*
X130519156Y-78039367D01*
X130447544Y-77971527D01*
X130390781Y-77888745D01*
X130380631Y-77869167D01*
X130344508Y-77780629D01*
X130321892Y-77687145D01*
X130311621Y-77583192D01*
X130310709Y-77536299D01*
X130313230Y-77483554D01*
X130577841Y-77483554D01*
X130578454Y-77589428D01*
X130578627Y-77592153D01*
X130587703Y-77668579D01*
X130603969Y-77740756D01*
X130625920Y-77803913D01*
X130652048Y-77853274D01*
X130666992Y-77872125D01*
X130722589Y-77916597D01*
X130785114Y-77942104D01*
X130851477Y-77948095D01*
X130918588Y-77934019D01*
X130946343Y-77921946D01*
X130998331Y-77885013D01*
X131039452Y-77832033D01*
X131070018Y-77762300D01*
X131090343Y-77675107D01*
X131100559Y-77573341D01*
X131100239Y-77474646D01*
X131089395Y-77383924D01*
X131068828Y-77303784D01*
X131039340Y-77236833D01*
X131001733Y-77185678D01*
X130974358Y-77162817D01*
X130929655Y-77142637D01*
X130874247Y-77131004D01*
X130816332Y-77128580D01*
X130764109Y-77136028D01*
X130741904Y-77144031D01*
X130689002Y-77180598D01*
X130645487Y-77234641D01*
X130612016Y-77304353D01*
X130589248Y-77387926D01*
X130577841Y-77483554D01*
X130313230Y-77483554D01*
X130315771Y-77430398D01*
X130331912Y-77336727D01*
X130360560Y-77248677D01*
X130384282Y-77195924D01*
X130435984Y-77113589D01*
X130501525Y-77045105D01*
X130578254Y-76991054D01*
X130663517Y-76952018D01*
X130754662Y-76928579D01*
X130849038Y-76921319D01*
X130943991Y-76930820D01*
G36*
X128385170Y-76925885D02*
G01*
X128490587Y-76949312D01*
X128594946Y-76990959D01*
X128636059Y-77012924D01*
X128666822Y-77032400D01*
X128689432Y-77050006D01*
X128697784Y-77059884D01*
X128694060Y-77073312D01*
X128680511Y-77098071D01*
X128660606Y-77129201D01*
X128637815Y-77161739D01*
X128615604Y-77190724D01*
X128597443Y-77211193D01*
X128587096Y-77218232D01*
X128574944Y-77213594D01*
X128548710Y-77201718D01*
X128513245Y-77184827D01*
X128498844Y-77177796D01*
X128412718Y-77144613D01*
X128328712Y-77129993D01*
X128249042Y-77133876D01*
X128175924Y-77156197D01*
X128122210Y-77188370D01*
X128091844Y-77220608D01*
X128062077Y-77268049D01*
X128035683Y-77324842D01*
X128015433Y-77385138D01*
X128004990Y-77435757D01*
X127997533Y-77542175D01*
X128004329Y-77639346D01*
X128024787Y-77725557D01*
X128058315Y-77799097D01*
X128104320Y-77858256D01*
X128162211Y-77901322D01*
X128166905Y-77903799D01*
X128217034Y-77921230D01*
X128278674Y-77930263D01*
X128343633Y-77930234D01*
X128396175Y-77922390D01*
X128433706Y-77911489D01*
X128475233Y-77896391D01*
X128515135Y-77879526D01*
X128547790Y-77863322D01*
X128567578Y-77850209D01*
X128570207Y-77847174D01*
X128582887Y-77838083D01*
X128584582Y-77837924D01*
X128594312Y-77845933D01*
X128612257Y-77866775D01*
X128634887Y-77895673D01*
X128658673Y-77927852D01*
X128680086Y-77958534D01*
X128695596Y-77982943D01*
X128701673Y-77996303D01*
X128701675Y-77996390D01*
X128693070Y-78008530D01*
X128670506Y-78027042D01*
X128638860Y-78048643D01*
X128603008Y-78070048D01*
X128567827Y-78087973D01*
X128561657Y-78090699D01*
X128483107Y-78117088D01*
X128394534Y-78134774D01*
X128302798Y-78143159D01*
X128214757Y-78141648D01*
X128137269Y-78129643D01*
X128131363Y-78128113D01*
X128037614Y-78092774D01*
X127951765Y-78040537D01*
X127877416Y-77974217D01*
X127818170Y-77896625D01*
X127804477Y-77872699D01*
X127762142Y-77771536D01*
X127736575Y-77661452D01*
X127727828Y-77546510D01*
X127735951Y-77430771D01*
X127760994Y-77318298D01*
X127796441Y-77226564D01*
X127849655Y-77137617D01*
X127916714Y-77063098D01*
X127995490Y-77003549D01*
X128083852Y-76959511D01*
X128179673Y-76931527D01*
X128280822Y-76920138D01*
X128385170Y-76925885D01*
G37*
X128385170Y-76925885D02*
X128490587Y-76949312D01*
X128594946Y-76990959D01*
X128636059Y-77012924D01*
X128666822Y-77032400D01*
X128689432Y-77050006D01*
X128697784Y-77059884D01*
X128694060Y-77073312D01*
X128680511Y-77098071D01*
X128660606Y-77129201D01*
X128637815Y-77161739D01*
X128615604Y-77190724D01*
X128597443Y-77211193D01*
X128587096Y-77218232D01*
X128574944Y-77213594D01*
X128548710Y-77201718D01*
X128513245Y-77184827D01*
X128498844Y-77177796D01*
X128412718Y-77144613D01*
X128328712Y-77129993D01*
X128249042Y-77133876D01*
X128175924Y-77156197D01*
X128122210Y-77188370D01*
X128091844Y-77220608D01*
X128062077Y-77268049D01*
X128035683Y-77324842D01*
X128015433Y-77385138D01*
X128004990Y-77435757D01*
X127997533Y-77542175D01*
X128004329Y-77639346D01*
X128024787Y-77725557D01*
X128058315Y-77799097D01*
X128104320Y-77858256D01*
X128162211Y-77901322D01*
X128166905Y-77903799D01*
X128217034Y-77921230D01*
X128278674Y-77930263D01*
X128343633Y-77930234D01*
X128396175Y-77922390D01*
X128433706Y-77911489D01*
X128475233Y-77896391D01*
X128515135Y-77879526D01*
X128547790Y-77863322D01*
X128567578Y-77850209D01*
X128570207Y-77847174D01*
X128582887Y-77838083D01*
X128584582Y-77837924D01*
X128594312Y-77845933D01*
X128612257Y-77866775D01*
X128634887Y-77895673D01*
X128658673Y-77927852D01*
X128680086Y-77958534D01*
X128695596Y-77982943D01*
X128701673Y-77996303D01*
X128701675Y-77996390D01*
X128693070Y-78008530D01*
X128670506Y-78027042D01*
X128638860Y-78048643D01*
X128603008Y-78070048D01*
X128567827Y-78087973D01*
X128561657Y-78090699D01*
X128483107Y-78117088D01*
X128394534Y-78134774D01*
X128302798Y-78143159D01*
X128214757Y-78141648D01*
X128137269Y-78129643D01*
X128131363Y-78128113D01*
X128037614Y-78092774D01*
X127951765Y-78040537D01*
X127877416Y-77974217D01*
X127818170Y-77896625D01*
X127804477Y-77872699D01*
X127762142Y-77771536D01*
X127736575Y-77661452D01*
X127727828Y-77546510D01*
X127735951Y-77430771D01*
X127760994Y-77318298D01*
X127796441Y-77226564D01*
X127849655Y-77137617D01*
X127916714Y-77063098D01*
X127995490Y-77003549D01*
X128083852Y-76959511D01*
X128179673Y-76931527D01*
X128280822Y-76920138D01*
X128385170Y-76925885D01*
G36*
X126964342Y-76927008D02*
G01*
X127039576Y-76942557D01*
X127109384Y-76968981D01*
X127177226Y-77006804D01*
X127229100Y-77051469D01*
X127270112Y-77107848D01*
X127285936Y-77137425D01*
X127320550Y-77207699D01*
X127323544Y-77546624D01*
X127324857Y-77652462D01*
X127326761Y-77742064D01*
X127329213Y-77814381D01*
X127332172Y-77868367D01*
X127335596Y-77902974D01*
X127338264Y-77915152D01*
X127356437Y-77941877D01*
X127379362Y-77959945D01*
X127408735Y-77975134D01*
X127380562Y-78061070D01*
X127352389Y-78147007D01*
X127307987Y-78142002D01*
X127255149Y-78127679D01*
X127201592Y-78099247D01*
X127155694Y-78061708D01*
X127137654Y-78040276D01*
X127109652Y-78000945D01*
X127043091Y-78051325D01*
X126989624Y-78087315D01*
X126936187Y-78112621D01*
X126877045Y-78129032D01*
X126806458Y-78138334D01*
X126754341Y-78141319D01*
X126701755Y-78142739D01*
X126663909Y-78141795D01*
X126634438Y-78137694D01*
X126606974Y-78129640D01*
X126582152Y-78119808D01*
X126501788Y-78077169D01*
X126439810Y-78024238D01*
X126395697Y-77960228D01*
X126368925Y-77884356D01*
X126358969Y-77795837D01*
X126358879Y-77785007D01*
X126361606Y-77755475D01*
X126621409Y-77755475D01*
X126624281Y-77812567D01*
X126642522Y-77865999D01*
X126675470Y-77911021D01*
X126703974Y-77933231D01*
X126752038Y-77951319D01*
X126810548Y-77955757D01*
X126874005Y-77946818D01*
X126936910Y-77924773D01*
X126943985Y-77921348D01*
X127002695Y-77884632D01*
X127040925Y-77845677D01*
X127054272Y-77826257D01*
X127063095Y-77808650D01*
X127068328Y-77787894D01*
X127070905Y-77759028D01*
X127071763Y-77717091D01*
X127071841Y-77681626D01*
X127071841Y-77560254D01*
X126936904Y-77564874D01*
X126851557Y-77570563D01*
X126783947Y-77581721D01*
X126731137Y-77599256D01*
X126690196Y-77624078D01*
X126664417Y-77649313D01*
X126634567Y-77699473D01*
X126621409Y-77755475D01*
X126361606Y-77755475D01*
X126366875Y-77698433D01*
X126391268Y-77624379D01*
X126433003Y-77561364D01*
X126493025Y-77507903D01*
X126560657Y-77468106D01*
X126620488Y-77441973D01*
X126681160Y-77423293D01*
X126747609Y-77411179D01*
X126824766Y-77404745D01*
X126917567Y-77403107D01*
X126922454Y-77403133D01*
X127074691Y-77404089D01*
X127069460Y-77330971D01*
X127059932Y-77267017D01*
X127040156Y-77218782D01*
X127007647Y-77182294D01*
X126959918Y-77153580D01*
X126957838Y-77152620D01*
X126930084Y-77140755D01*
X126905677Y-77133444D01*
X126878628Y-77129950D01*
X126842950Y-77129540D01*
X126792653Y-77131478D01*
X126787567Y-77131725D01*
X126720536Y-77137297D01*
X126653275Y-77146819D01*
X126596010Y-77158816D01*
X126591663Y-77159976D01*
X126552920Y-77170113D01*
X126523033Y-77177101D01*
X126506983Y-77179804D01*
X126505593Y-77179593D01*
X126500136Y-77167638D01*
X126490271Y-77141585D01*
X126478092Y-77107478D01*
X126465691Y-77071365D01*
X126455161Y-77039290D01*
X126448593Y-77017298D01*
X126447425Y-77011531D01*
X126457385Y-77000062D01*
X126485047Y-76987042D01*
X126527081Y-76973314D01*
X126580156Y-76959717D01*
X126640943Y-76947094D01*
X126706112Y-76936284D01*
X126772333Y-76928129D01*
X126781000Y-76927294D01*
X126879746Y-76922123D01*
X126964342Y-76927008D01*
G37*
X126964342Y-76927008D02*
X127039576Y-76942557D01*
X127109384Y-76968981D01*
X127177226Y-77006804D01*
X127229100Y-77051469D01*
X127270112Y-77107848D01*
X127285936Y-77137425D01*
X127320550Y-77207699D01*
X127323544Y-77546624D01*
X127324857Y-77652462D01*
X127326761Y-77742064D01*
X127329213Y-77814381D01*
X127332172Y-77868367D01*
X127335596Y-77902974D01*
X127338264Y-77915152D01*
X127356437Y-77941877D01*
X127379362Y-77959945D01*
X127408735Y-77975134D01*
X127380562Y-78061070D01*
X127352389Y-78147007D01*
X127307987Y-78142002D01*
X127255149Y-78127679D01*
X127201592Y-78099247D01*
X127155694Y-78061708D01*
X127137654Y-78040276D01*
X127109652Y-78000945D01*
X127043091Y-78051325D01*
X126989624Y-78087315D01*
X126936187Y-78112621D01*
X126877045Y-78129032D01*
X126806458Y-78138334D01*
X126754341Y-78141319D01*
X126701755Y-78142739D01*
X126663909Y-78141795D01*
X126634438Y-78137694D01*
X126606974Y-78129640D01*
X126582152Y-78119808D01*
X126501788Y-78077169D01*
X126439810Y-78024238D01*
X126395697Y-77960228D01*
X126368925Y-77884356D01*
X126358969Y-77795837D01*
X126358879Y-77785007D01*
X126361606Y-77755475D01*
X126621409Y-77755475D01*
X126624281Y-77812567D01*
X126642522Y-77865999D01*
X126675470Y-77911021D01*
X126703974Y-77933231D01*
X126752038Y-77951319D01*
X126810548Y-77955757D01*
X126874005Y-77946818D01*
X126936910Y-77924773D01*
X126943985Y-77921348D01*
X127002695Y-77884632D01*
X127040925Y-77845677D01*
X127054272Y-77826257D01*
X127063095Y-77808650D01*
X127068328Y-77787894D01*
X127070905Y-77759028D01*
X127071763Y-77717091D01*
X127071841Y-77681626D01*
X127071841Y-77560254D01*
X126936904Y-77564874D01*
X126851557Y-77570563D01*
X126783947Y-77581721D01*
X126731137Y-77599256D01*
X126690196Y-77624078D01*
X126664417Y-77649313D01*
X126634567Y-77699473D01*
X126621409Y-77755475D01*
X126361606Y-77755475D01*
X126366875Y-77698433D01*
X126391268Y-77624379D01*
X126433003Y-77561364D01*
X126493025Y-77507903D01*
X126560657Y-77468106D01*
X126620488Y-77441973D01*
X126681160Y-77423293D01*
X126747609Y-77411179D01*
X126824766Y-77404745D01*
X126917567Y-77403107D01*
X126922454Y-77403133D01*
X127074691Y-77404089D01*
X127069460Y-77330971D01*
X127059932Y-77267017D01*
X127040156Y-77218782D01*
X127007647Y-77182294D01*
X126959918Y-77153580D01*
X126957838Y-77152620D01*
X126930084Y-77140755D01*
X126905677Y-77133444D01*
X126878628Y-77129950D01*
X126842950Y-77129540D01*
X126792653Y-77131478D01*
X126787567Y-77131725D01*
X126720536Y-77137297D01*
X126653275Y-77146819D01*
X126596010Y-77158816D01*
X126591663Y-77159976D01*
X126552920Y-77170113D01*
X126523033Y-77177101D01*
X126506983Y-77179804D01*
X126505593Y-77179593D01*
X126500136Y-77167638D01*
X126490271Y-77141585D01*
X126478092Y-77107478D01*
X126465691Y-77071365D01*
X126455161Y-77039290D01*
X126448593Y-77017298D01*
X126447425Y-77011531D01*
X126457385Y-77000062D01*
X126485047Y-76987042D01*
X126527081Y-76973314D01*
X126580156Y-76959717D01*
X126640943Y-76947094D01*
X126706112Y-76936284D01*
X126772333Y-76928129D01*
X126781000Y-76927294D01*
X126879746Y-76922123D01*
X126964342Y-76927008D01*
G36*
X123044799Y-76923359D02*
G01*
X123132898Y-76946549D01*
X123215277Y-76985744D01*
X123289470Y-77040541D01*
X123353008Y-77110534D01*
X123402139Y-77192589D01*
X123427970Y-77252427D01*
X123445667Y-77308526D01*
X123456521Y-77367401D01*
X123461819Y-77435565D01*
X123462925Y-77499778D01*
X123462925Y-77615674D01*
X123076633Y-77615674D01*
X122972467Y-77615811D01*
X122887734Y-77616262D01*
X122820700Y-77617088D01*
X122769632Y-77618351D01*
X122732798Y-77620112D01*
X122708464Y-77622433D01*
X122694897Y-77625374D01*
X122690365Y-77628996D01*
X122690341Y-77629325D01*
X122694126Y-77656618D01*
X122703857Y-77695470D01*
X122717096Y-77738006D01*
X122731407Y-77776350D01*
X122743579Y-77801402D01*
X122792520Y-77861840D01*
X122853314Y-77906144D01*
X122923723Y-77933975D01*
X123001510Y-77944994D01*
X123084437Y-77938863D01*
X123170268Y-77915241D01*
X123249464Y-77878004D01*
X123280244Y-77862587D01*
X123303790Y-77854571D01*
X123313898Y-77855180D01*
X123339874Y-77886905D01*
X123365750Y-77921671D01*
X123388680Y-77955198D01*
X123405813Y-77983206D01*
X123414303Y-78001414D01*
X123414127Y-78005809D01*
X123326820Y-78061937D01*
X123237968Y-78101782D01*
X123142407Y-78127059D01*
X123034969Y-78139483D01*
X123007841Y-78140710D01*
X122937079Y-78141597D01*
X122882423Y-78138601D01*
X122839114Y-78131406D01*
X122829113Y-78128805D01*
X122730186Y-78090786D01*
X122643518Y-78036287D01*
X122570580Y-77966477D01*
X122512840Y-77882521D01*
X122508287Y-77874020D01*
X122476525Y-77808486D01*
X122454559Y-77749361D01*
X122440823Y-77689841D01*
X122433750Y-77623119D01*
X122431773Y-77542391D01*
X122431773Y-77541591D01*
X122437207Y-77446341D01*
X122687464Y-77446341D01*
X123222235Y-77446341D01*
X123215096Y-77392529D01*
X123196427Y-77307808D01*
X123165307Y-77236144D01*
X123122981Y-77179254D01*
X123070697Y-77138853D01*
X123015738Y-77117915D01*
X122947264Y-77112515D01*
X122882937Y-77126477D01*
X122824680Y-77158117D01*
X122774415Y-77205748D01*
X122734067Y-77267682D01*
X122705558Y-77342234D01*
X122693789Y-77400196D01*
X122687464Y-77446341D01*
X122437207Y-77446341D01*
X122438902Y-77416647D01*
X122460343Y-77306468D01*
X122496539Y-77209832D01*
X122547929Y-77125514D01*
X122604864Y-77061684D01*
X122684552Y-76998765D01*
X122770857Y-76953879D01*
X122861311Y-76926619D01*
X122953447Y-76916581D01*
X123044799Y-76923359D01*
G37*
X123044799Y-76923359D02*
X123132898Y-76946549D01*
X123215277Y-76985744D01*
X123289470Y-77040541D01*
X123353008Y-77110534D01*
X123402139Y-77192589D01*
X123427970Y-77252427D01*
X123445667Y-77308526D01*
X123456521Y-77367401D01*
X123461819Y-77435565D01*
X123462925Y-77499778D01*
X123462925Y-77615674D01*
X123076633Y-77615674D01*
X122972467Y-77615811D01*
X122887734Y-77616262D01*
X122820700Y-77617088D01*
X122769632Y-77618351D01*
X122732798Y-77620112D01*
X122708464Y-77622433D01*
X122694897Y-77625374D01*
X122690365Y-77628996D01*
X122690341Y-77629325D01*
X122694126Y-77656618D01*
X122703857Y-77695470D01*
X122717096Y-77738006D01*
X122731407Y-77776350D01*
X122743579Y-77801402D01*
X122792520Y-77861840D01*
X122853314Y-77906144D01*
X122923723Y-77933975D01*
X123001510Y-77944994D01*
X123084437Y-77938863D01*
X123170268Y-77915241D01*
X123249464Y-77878004D01*
X123280244Y-77862587D01*
X123303790Y-77854571D01*
X123313898Y-77855180D01*
X123339874Y-77886905D01*
X123365750Y-77921671D01*
X123388680Y-77955198D01*
X123405813Y-77983206D01*
X123414303Y-78001414D01*
X123414127Y-78005809D01*
X123326820Y-78061937D01*
X123237968Y-78101782D01*
X123142407Y-78127059D01*
X123034969Y-78139483D01*
X123007841Y-78140710D01*
X122937079Y-78141597D01*
X122882423Y-78138601D01*
X122839114Y-78131406D01*
X122829113Y-78128805D01*
X122730186Y-78090786D01*
X122643518Y-78036287D01*
X122570580Y-77966477D01*
X122512840Y-77882521D01*
X122508287Y-77874020D01*
X122476525Y-77808486D01*
X122454559Y-77749361D01*
X122440823Y-77689841D01*
X122433750Y-77623119D01*
X122431773Y-77542391D01*
X122431773Y-77541591D01*
X122437207Y-77446341D01*
X122687464Y-77446341D01*
X123222235Y-77446341D01*
X123215096Y-77392529D01*
X123196427Y-77307808D01*
X123165307Y-77236144D01*
X123122981Y-77179254D01*
X123070697Y-77138853D01*
X123015738Y-77117915D01*
X122947264Y-77112515D01*
X122882937Y-77126477D01*
X122824680Y-77158117D01*
X122774415Y-77205748D01*
X122734067Y-77267682D01*
X122705558Y-77342234D01*
X122693789Y-77400196D01*
X122687464Y-77446341D01*
X122437207Y-77446341D01*
X122438902Y-77416647D01*
X122460343Y-77306468D01*
X122496539Y-77209832D01*
X122547929Y-77125514D01*
X122604864Y-77061684D01*
X122684552Y-76998765D01*
X122770857Y-76953879D01*
X122861311Y-76926619D01*
X122953447Y-76916581D01*
X123044799Y-76923359D01*
G36*
X121687347Y-77175617D02*
G01*
X121690216Y-77867978D01*
X121715462Y-77894846D01*
X121755702Y-77922652D01*
X121810317Y-77937159D01*
X121876903Y-77937970D01*
X121929374Y-77930171D01*
X121969540Y-77921453D01*
X122002783Y-77913522D01*
X122022568Y-77907948D01*
X122023714Y-77907517D01*
X122033528Y-77909071D01*
X122044351Y-77923485D01*
X122057802Y-77953532D01*
X122070401Y-77987466D01*
X122084951Y-78029197D01*
X122092744Y-78055624D01*
X122094264Y-78071335D01*
X122089993Y-78080915D01*
X122081045Y-78088493D01*
X122036601Y-78110764D01*
X121972519Y-78127206D01*
X121889554Y-78137660D01*
X121827800Y-78141107D01*
X121768234Y-78142455D01*
X121724283Y-78141512D01*
X121690474Y-78137821D01*
X121661335Y-78130921D01*
X121646110Y-78125877D01*
X121571790Y-78089326D01*
X121512271Y-78037822D01*
X121482358Y-77997932D01*
X121469551Y-77977456D01*
X121458642Y-77958348D01*
X121449477Y-77938798D01*
X121441905Y-77916995D01*
X121435773Y-77891128D01*
X121430931Y-77859387D01*
X121427225Y-77819959D01*
X121424503Y-77771035D01*
X121422614Y-77710804D01*
X121421406Y-77637455D01*
X121420726Y-77549177D01*
X121420423Y-77444159D01*
X121420344Y-77320590D01*
X121420341Y-77259211D01*
X121420341Y-76673757D01*
X121081675Y-76673757D01*
X121081675Y-76483257D01*
X121684478Y-76483257D01*
X121687347Y-77175617D01*
G37*
X121687347Y-77175617D02*
X121690216Y-77867978D01*
X121715462Y-77894846D01*
X121755702Y-77922652D01*
X121810317Y-77937159D01*
X121876903Y-77937970D01*
X121929374Y-77930171D01*
X121969540Y-77921453D01*
X122002783Y-77913522D01*
X122022568Y-77907948D01*
X122023714Y-77907517D01*
X122033528Y-77909071D01*
X122044351Y-77923485D01*
X122057802Y-77953532D01*
X122070401Y-77987466D01*
X122084951Y-78029197D01*
X122092744Y-78055624D01*
X122094264Y-78071335D01*
X122089993Y-78080915D01*
X122081045Y-78088493D01*
X122036601Y-78110764D01*
X121972519Y-78127206D01*
X121889554Y-78137660D01*
X121827800Y-78141107D01*
X121768234Y-78142455D01*
X121724283Y-78141512D01*
X121690474Y-78137821D01*
X121661335Y-78130921D01*
X121646110Y-78125877D01*
X121571790Y-78089326D01*
X121512271Y-78037822D01*
X121482358Y-77997932D01*
X121469551Y-77977456D01*
X121458642Y-77958348D01*
X121449477Y-77938798D01*
X121441905Y-77916995D01*
X121435773Y-77891128D01*
X121430931Y-77859387D01*
X121427225Y-77819959D01*
X121424503Y-77771035D01*
X121422614Y-77710804D01*
X121421406Y-77637455D01*
X121420726Y-77549177D01*
X121420423Y-77444159D01*
X121420344Y-77320590D01*
X121420341Y-77259211D01*
X121420341Y-76673757D01*
X121081675Y-76673757D01*
X121081675Y-76483257D01*
X121684478Y-76483257D01*
X121687347Y-77175617D01*
G36*
X144063924Y-77727582D02*
G01*
X144120010Y-77753824D01*
X144165739Y-77795443D01*
X144168017Y-77798369D01*
X144197173Y-77853186D01*
X144209376Y-77915526D01*
X144204474Y-77980038D01*
X144182317Y-78041370D01*
X144175242Y-78053694D01*
X144137507Y-78096094D01*
X144086403Y-78127786D01*
X144028039Y-78146349D01*
X143968524Y-78149362D01*
X143944168Y-78145290D01*
X143883904Y-78121088D01*
X143836635Y-78083272D01*
X143802917Y-78035342D01*
X143783304Y-77980796D01*
X143778355Y-77923132D01*
X143788625Y-77865849D01*
X143814670Y-77812445D01*
X143857046Y-77766418D01*
X143881210Y-77749281D01*
X143939755Y-77724494D01*
X144002250Y-77717533D01*
X144063924Y-77727582D01*
G37*
X144063924Y-77727582D02*
X144120010Y-77753824D01*
X144165739Y-77795443D01*
X144168017Y-77798369D01*
X144197173Y-77853186D01*
X144209376Y-77915526D01*
X144204474Y-77980038D01*
X144182317Y-78041370D01*
X144175242Y-78053694D01*
X144137507Y-78096094D01*
X144086403Y-78127786D01*
X144028039Y-78146349D01*
X143968524Y-78149362D01*
X143944168Y-78145290D01*
X143883904Y-78121088D01*
X143836635Y-78083272D01*
X143802917Y-78035342D01*
X143783304Y-77980796D01*
X143778355Y-77923132D01*
X143788625Y-77865849D01*
X143814670Y-77812445D01*
X143857046Y-77766418D01*
X143881210Y-77749281D01*
X143939755Y-77724494D01*
X144002250Y-77717533D01*
X144063924Y-77727582D01*
G36*
X116483881Y-76580271D02*
G01*
X116583796Y-76598668D01*
X116674402Y-76627336D01*
X116685639Y-76631998D01*
X116714956Y-76646372D01*
X116751014Y-76666626D01*
X116789426Y-76689943D01*
X116825810Y-76713507D01*
X116855779Y-76734500D01*
X116874949Y-76750106D01*
X116879601Y-76756591D01*
X116872671Y-76767013D01*
X116854491Y-76789043D01*
X116828291Y-76818846D01*
X116812619Y-76836091D01*
X116746125Y-76908467D01*
X116678934Y-76865039D01*
X116589669Y-76817702D01*
X116495699Y-76789059D01*
X116392705Y-76777843D01*
X116380291Y-76777616D01*
X116332065Y-76777993D01*
X116297188Y-76781272D01*
X116267889Y-76788952D01*
X116236398Y-76802534D01*
X116226833Y-76807247D01*
X116173386Y-76840591D01*
X116138938Y-76878983D01*
X116121423Y-76925397D01*
X116118131Y-76963718D01*
X116122240Y-77006816D01*
X116135782Y-77044019D01*
X116160683Y-77076850D01*
X116198868Y-77106831D01*
X116252264Y-77135485D01*
X116322797Y-77164336D01*
X116409133Y-77193862D01*
X116529261Y-77235538D01*
X116629488Y-77277169D01*
X116711065Y-77319436D01*
X116775246Y-77363019D01*
X116823283Y-77408601D01*
X116837846Y-77426974D01*
X116873274Y-77483991D01*
X116896127Y-77542334D01*
X116907937Y-77607818D01*
X116910234Y-77686262D01*
X116909823Y-77700341D01*
X116906962Y-77756066D01*
X116902191Y-77797293D01*
X116894271Y-77830680D01*
X116881961Y-77862887D01*
X116877845Y-77871982D01*
X116829753Y-77951289D01*
X116765165Y-78017849D01*
X116684750Y-78071297D01*
X116589180Y-78111267D01*
X116479125Y-78137395D01*
X116369605Y-78148708D01*
X116313850Y-78150042D01*
X116256688Y-78149120D01*
X116207314Y-78146170D01*
X116190152Y-78144251D01*
X116144163Y-78135411D01*
X116089896Y-78121354D01*
X116038604Y-78105015D01*
X116035555Y-78103913D01*
X115982064Y-78081848D01*
X115928467Y-78055310D01*
X115878261Y-78026548D01*
X115834948Y-77997817D01*
X115802027Y-77971369D01*
X115782999Y-77949455D01*
X115779709Y-77939267D01*
X115786556Y-77926889D01*
X115804677Y-77903187D01*
X115830841Y-77872249D01*
X115846261Y-77854982D01*
X115912529Y-77782081D01*
X115982586Y-77830044D01*
X116061351Y-77877006D01*
X116140768Y-77908783D01*
X116228904Y-77928341D01*
X116261764Y-77932675D01*
X116343605Y-77937510D01*
X116413803Y-77930889D01*
X116479137Y-77911780D01*
X116519967Y-77893313D01*
X116573969Y-77855818D01*
X116613038Y-77807860D01*
X116636831Y-77753060D01*
X116645003Y-77695035D01*
X116637212Y-77637404D01*
X116613114Y-77583787D01*
X116572366Y-77537802D01*
X116554949Y-77524745D01*
X116511103Y-77500285D01*
X116448369Y-77472920D01*
X116368704Y-77443433D01*
X116281045Y-77414767D01*
X116174474Y-77375809D01*
X116080466Y-77329440D01*
X116000893Y-77277003D01*
X115937625Y-77219845D01*
X115892533Y-77159309D01*
X115875481Y-77123274D01*
X115858015Y-77052878D01*
X115852963Y-76974116D01*
X115860300Y-76895751D01*
X115876302Y-76835878D01*
X115913328Y-76766673D01*
X115968883Y-76705690D01*
X116041572Y-76653996D01*
X116130003Y-76612660D01*
X116194400Y-76592084D01*
X116282571Y-76576442D01*
X116381268Y-76572683D01*
X116483881Y-76580271D01*
G37*
X116483881Y-76580271D02*
X116583796Y-76598668D01*
X116674402Y-76627336D01*
X116685639Y-76631998D01*
X116714956Y-76646372D01*
X116751014Y-76666626D01*
X116789426Y-76689943D01*
X116825810Y-76713507D01*
X116855779Y-76734500D01*
X116874949Y-76750106D01*
X116879601Y-76756591D01*
X116872671Y-76767013D01*
X116854491Y-76789043D01*
X116828291Y-76818846D01*
X116812619Y-76836091D01*
X116746125Y-76908467D01*
X116678934Y-76865039D01*
X116589669Y-76817702D01*
X116495699Y-76789059D01*
X116392705Y-76777843D01*
X116380291Y-76777616D01*
X116332065Y-76777993D01*
X116297188Y-76781272D01*
X116267889Y-76788952D01*
X116236398Y-76802534D01*
X116226833Y-76807247D01*
X116173386Y-76840591D01*
X116138938Y-76878983D01*
X116121423Y-76925397D01*
X116118131Y-76963718D01*
X116122240Y-77006816D01*
X116135782Y-77044019D01*
X116160683Y-77076850D01*
X116198868Y-77106831D01*
X116252264Y-77135485D01*
X116322797Y-77164336D01*
X116409133Y-77193862D01*
X116529261Y-77235538D01*
X116629488Y-77277169D01*
X116711065Y-77319436D01*
X116775246Y-77363019D01*
X116823283Y-77408601D01*
X116837846Y-77426974D01*
X116873274Y-77483991D01*
X116896127Y-77542334D01*
X116907937Y-77607818D01*
X116910234Y-77686262D01*
X116909823Y-77700341D01*
X116906962Y-77756066D01*
X116902191Y-77797293D01*
X116894271Y-77830680D01*
X116881961Y-77862887D01*
X116877845Y-77871982D01*
X116829753Y-77951289D01*
X116765165Y-78017849D01*
X116684750Y-78071297D01*
X116589180Y-78111267D01*
X116479125Y-78137395D01*
X116369605Y-78148708D01*
X116313850Y-78150042D01*
X116256688Y-78149120D01*
X116207314Y-78146170D01*
X116190152Y-78144251D01*
X116144163Y-78135411D01*
X116089896Y-78121354D01*
X116038604Y-78105015D01*
X116035555Y-78103913D01*
X115982064Y-78081848D01*
X115928467Y-78055310D01*
X115878261Y-78026548D01*
X115834948Y-77997817D01*
X115802027Y-77971369D01*
X115782999Y-77949455D01*
X115779709Y-77939267D01*
X115786556Y-77926889D01*
X115804677Y-77903187D01*
X115830841Y-77872249D01*
X115846261Y-77854982D01*
X115912529Y-77782081D01*
X115982586Y-77830044D01*
X116061351Y-77877006D01*
X116140768Y-77908783D01*
X116228904Y-77928341D01*
X116261764Y-77932675D01*
X116343605Y-77937510D01*
X116413803Y-77930889D01*
X116479137Y-77911780D01*
X116519967Y-77893313D01*
X116573969Y-77855818D01*
X116613038Y-77807860D01*
X116636831Y-77753060D01*
X116645003Y-77695035D01*
X116637212Y-77637404D01*
X116613114Y-77583787D01*
X116572366Y-77537802D01*
X116554949Y-77524745D01*
X116511103Y-77500285D01*
X116448369Y-77472920D01*
X116368704Y-77443433D01*
X116281045Y-77414767D01*
X116174474Y-77375809D01*
X116080466Y-77329440D01*
X116000893Y-77277003D01*
X115937625Y-77219845D01*
X115892533Y-77159309D01*
X115875481Y-77123274D01*
X115858015Y-77052878D01*
X115852963Y-76974116D01*
X115860300Y-76895751D01*
X115876302Y-76835878D01*
X115913328Y-76766673D01*
X115968883Y-76705690D01*
X116041572Y-76653996D01*
X116130003Y-76612660D01*
X116194400Y-76592084D01*
X116282571Y-76576442D01*
X116381268Y-76572683D01*
X116483881Y-76580271D01*
G36*
X132316007Y-76928051D02*
G01*
X132324979Y-76929060D01*
X132410402Y-76948299D01*
X132483907Y-76984269D01*
X132545944Y-77037410D01*
X132596965Y-77108161D01*
X132637418Y-77196962D01*
X132654464Y-77250549D01*
X132663985Y-77298689D01*
X132671404Y-77367186D01*
X132676651Y-77455328D01*
X132677912Y-77489167D01*
X132679812Y-77557514D01*
X132680229Y-77609643D01*
X132678851Y-77650471D01*
X132675367Y-77684915D01*
X132669465Y-77717891D01*
X132661221Y-77752795D01*
X132626850Y-77860983D01*
X132582776Y-77950963D01*
X132528345Y-78023662D01*
X132462901Y-78080007D01*
X132407695Y-78111393D01*
X132378244Y-78124159D01*
X132351364Y-78132390D01*
X132320989Y-78137052D01*
X132281053Y-78139115D01*
X132231216Y-78139549D01*
X132159882Y-78137285D01*
X132103818Y-78129339D01*
X132057502Y-78113980D01*
X132015409Y-78089476D01*
X131979324Y-78060605D01*
X131940175Y-78026231D01*
X131940175Y-78564363D01*
X131831695Y-78576912D01*
X131784282Y-78582191D01*
X131743426Y-78586362D01*
X131714558Y-78588890D01*
X131704695Y-78589401D01*
X131701279Y-78588489D01*
X131698309Y-78584857D01*
X131695755Y-78577124D01*
X131693585Y-78563911D01*
X131691768Y-78543837D01*
X131690274Y-78515521D01*
X131689071Y-78477585D01*
X131688127Y-78428646D01*
X131687412Y-78367326D01*
X131686895Y-78292243D01*
X131686544Y-78202018D01*
X131686328Y-78095271D01*
X131686216Y-77970621D01*
X131686177Y-77826687D01*
X131686175Y-77769132D01*
X131686175Y-77289236D01*
X131940175Y-77289236D01*
X131940175Y-77824094D01*
X131979007Y-77864078D01*
X132027936Y-77906008D01*
X132079292Y-77930923D01*
X132139141Y-77941151D01*
X132180169Y-77941270D01*
X132223008Y-77938346D01*
X132252448Y-77932317D01*
X132276240Y-77920833D01*
X132296585Y-77906008D01*
X132342373Y-77857852D01*
X132376782Y-77794685D01*
X132400056Y-77715661D01*
X132412439Y-77619933D01*
X132414177Y-77506655D01*
X132413966Y-77499826D01*
X132407328Y-77399845D01*
X132394316Y-77318209D01*
X132374375Y-77252913D01*
X132346953Y-77201950D01*
X132324497Y-77175202D01*
X132275831Y-77140217D01*
X132220353Y-77123458D01*
X132160975Y-77124351D01*
X132100606Y-77142321D01*
X132042157Y-77176792D01*
X131988538Y-77227190D01*
X131974570Y-77244359D01*
X131940175Y-77289236D01*
X131686175Y-77289236D01*
X131686175Y-76948924D01*
X131905779Y-76948924D01*
X131912393Y-76981997D01*
X131917052Y-77016639D01*
X131919008Y-77053738D01*
X131919008Y-77092877D01*
X131972705Y-77042464D01*
X132048488Y-76984013D01*
X132130328Y-76945667D01*
X132219182Y-76927115D01*
X132316007Y-76928051D01*
G37*
X132316007Y-76928051D02*
X132324979Y-76929060D01*
X132410402Y-76948299D01*
X132483907Y-76984269D01*
X132545944Y-77037410D01*
X132596965Y-77108161D01*
X132637418Y-77196962D01*
X132654464Y-77250549D01*
X132663985Y-77298689D01*
X132671404Y-77367186D01*
X132676651Y-77455328D01*
X132677912Y-77489167D01*
X132679812Y-77557514D01*
X132680229Y-77609643D01*
X132678851Y-77650471D01*
X132675367Y-77684915D01*
X132669465Y-77717891D01*
X132661221Y-77752795D01*
X132626850Y-77860983D01*
X132582776Y-77950963D01*
X132528345Y-78023662D01*
X132462901Y-78080007D01*
X132407695Y-78111393D01*
X132378244Y-78124159D01*
X132351364Y-78132390D01*
X132320989Y-78137052D01*
X132281053Y-78139115D01*
X132231216Y-78139549D01*
X132159882Y-78137285D01*
X132103818Y-78129339D01*
X132057502Y-78113980D01*
X132015409Y-78089476D01*
X131979324Y-78060605D01*
X131940175Y-78026231D01*
X131940175Y-78564363D01*
X131831695Y-78576912D01*
X131784282Y-78582191D01*
X131743426Y-78586362D01*
X131714558Y-78588890D01*
X131704695Y-78589401D01*
X131701279Y-78588489D01*
X131698309Y-78584857D01*
X131695755Y-78577124D01*
X131693585Y-78563911D01*
X131691768Y-78543837D01*
X131690274Y-78515521D01*
X131689071Y-78477585D01*
X131688127Y-78428646D01*
X131687412Y-78367326D01*
X131686895Y-78292243D01*
X131686544Y-78202018D01*
X131686328Y-78095271D01*
X131686216Y-77970621D01*
X131686177Y-77826687D01*
X131686175Y-77769132D01*
X131686175Y-77289236D01*
X131940175Y-77289236D01*
X131940175Y-77824094D01*
X131979007Y-77864078D01*
X132027936Y-77906008D01*
X132079292Y-77930923D01*
X132139141Y-77941151D01*
X132180169Y-77941270D01*
X132223008Y-77938346D01*
X132252448Y-77932317D01*
X132276240Y-77920833D01*
X132296585Y-77906008D01*
X132342373Y-77857852D01*
X132376782Y-77794685D01*
X132400056Y-77715661D01*
X132412439Y-77619933D01*
X132414177Y-77506655D01*
X132413966Y-77499826D01*
X132407328Y-77399845D01*
X132394316Y-77318209D01*
X132374375Y-77252913D01*
X132346953Y-77201950D01*
X132324497Y-77175202D01*
X132275831Y-77140217D01*
X132220353Y-77123458D01*
X132160975Y-77124351D01*
X132100606Y-77142321D01*
X132042157Y-77176792D01*
X131988538Y-77227190D01*
X131974570Y-77244359D01*
X131940175Y-77289236D01*
X131686175Y-77289236D01*
X131686175Y-76948924D01*
X131905779Y-76948924D01*
X131912393Y-76981997D01*
X131917052Y-77016639D01*
X131919008Y-77053738D01*
X131919008Y-77092877D01*
X131972705Y-77042464D01*
X132048488Y-76984013D01*
X132130328Y-76945667D01*
X132219182Y-76927115D01*
X132316007Y-76928051D01*
G36*
X120478859Y-76928665D02*
G01*
X120482229Y-76929060D01*
X120568420Y-76948596D01*
X120642701Y-76985183D01*
X120705362Y-77039101D01*
X120756692Y-77110634D01*
X120796982Y-77200063D01*
X120812794Y-77250549D01*
X120822483Y-77299297D01*
X120829816Y-77363339D01*
X120834686Y-77437168D01*
X120836985Y-77515278D01*
X120836606Y-77592163D01*
X120833440Y-77662317D01*
X120827381Y-77720236D01*
X120822485Y-77746108D01*
X120789013Y-77852930D01*
X120743827Y-77945278D01*
X120687860Y-78021774D01*
X120622045Y-78081045D01*
X120576612Y-78108585D01*
X120548408Y-78122116D01*
X120523868Y-78131010D01*
X120497297Y-78136232D01*
X120463000Y-78138745D01*
X120415284Y-78139513D01*
X120393758Y-78139549D01*
X120322212Y-78137537D01*
X120266212Y-78130411D01*
X120220421Y-78116533D01*
X120179507Y-78094266D01*
X120138135Y-78061971D01*
X120136574Y-78060605D01*
X120097425Y-78026231D01*
X120097425Y-78564363D01*
X119988945Y-78576912D01*
X119941532Y-78582191D01*
X119900676Y-78586362D01*
X119871808Y-78588890D01*
X119861945Y-78589401D01*
X119858529Y-78588489D01*
X119855559Y-78584857D01*
X119853005Y-78577124D01*
X119850835Y-78563911D01*
X119849018Y-78543837D01*
X119847524Y-78515521D01*
X119846321Y-78477585D01*
X119845377Y-78428646D01*
X119844662Y-78367326D01*
X119844145Y-78292243D01*
X119843794Y-78202018D01*
X119843578Y-78095271D01*
X119843466Y-77970621D01*
X119843427Y-77826687D01*
X119843425Y-77769132D01*
X119843425Y-77290634D01*
X120097425Y-77290634D01*
X120097425Y-77822666D01*
X120137112Y-77863666D01*
X120169226Y-77891981D01*
X120204729Y-77916366D01*
X120219133Y-77923979D01*
X120264898Y-77937566D01*
X120319026Y-77943008D01*
X120372557Y-77940153D01*
X120416531Y-77928848D01*
X120419750Y-77927394D01*
X120469060Y-77894728D01*
X120508104Y-77847755D01*
X120537387Y-77785271D01*
X120557417Y-77706070D01*
X120568701Y-77608947D01*
X120570766Y-77568049D01*
X120570041Y-77449692D01*
X120558745Y-77349604D01*
X120536839Y-77267692D01*
X120504281Y-77203862D01*
X120461031Y-77158021D01*
X120407049Y-77130076D01*
X120376323Y-77122833D01*
X120316899Y-77123691D01*
X120255861Y-77143128D01*
X120196999Y-77179258D01*
X120144103Y-77230196D01*
X120133162Y-77243831D01*
X120097425Y-77290634D01*
X119843425Y-77290634D01*
X119843425Y-76948924D01*
X119953417Y-76948924D01*
X120005887Y-76949249D01*
X120040777Y-76951888D01*
X120061673Y-76959337D01*
X120072162Y-76974095D01*
X120075828Y-76998658D01*
X120076258Y-77034456D01*
X120076851Y-77064369D01*
X120078366Y-77083190D01*
X120079503Y-77086507D01*
X120088274Y-77079874D01*
X120108086Y-77062512D01*
X120133754Y-77039008D01*
X120209237Y-76981731D01*
X120291541Y-76944367D01*
X120381228Y-76926737D01*
X120478859Y-76928665D01*
G37*
X120478859Y-76928665D02*
X120482229Y-76929060D01*
X120568420Y-76948596D01*
X120642701Y-76985183D01*
X120705362Y-77039101D01*
X120756692Y-77110634D01*
X120796982Y-77200063D01*
X120812794Y-77250549D01*
X120822483Y-77299297D01*
X120829816Y-77363339D01*
X120834686Y-77437168D01*
X120836985Y-77515278D01*
X120836606Y-77592163D01*
X120833440Y-77662317D01*
X120827381Y-77720236D01*
X120822485Y-77746108D01*
X120789013Y-77852930D01*
X120743827Y-77945278D01*
X120687860Y-78021774D01*
X120622045Y-78081045D01*
X120576612Y-78108585D01*
X120548408Y-78122116D01*
X120523868Y-78131010D01*
X120497297Y-78136232D01*
X120463000Y-78138745D01*
X120415284Y-78139513D01*
X120393758Y-78139549D01*
X120322212Y-78137537D01*
X120266212Y-78130411D01*
X120220421Y-78116533D01*
X120179507Y-78094266D01*
X120138135Y-78061971D01*
X120136574Y-78060605D01*
X120097425Y-78026231D01*
X120097425Y-78564363D01*
X119988945Y-78576912D01*
X119941532Y-78582191D01*
X119900676Y-78586362D01*
X119871808Y-78588890D01*
X119861945Y-78589401D01*
X119858529Y-78588489D01*
X119855559Y-78584857D01*
X119853005Y-78577124D01*
X119850835Y-78563911D01*
X119849018Y-78543837D01*
X119847524Y-78515521D01*
X119846321Y-78477585D01*
X119845377Y-78428646D01*
X119844662Y-78367326D01*
X119844145Y-78292243D01*
X119843794Y-78202018D01*
X119843578Y-78095271D01*
X119843466Y-77970621D01*
X119843427Y-77826687D01*
X119843425Y-77769132D01*
X119843425Y-77290634D01*
X120097425Y-77290634D01*
X120097425Y-77822666D01*
X120137112Y-77863666D01*
X120169226Y-77891981D01*
X120204729Y-77916366D01*
X120219133Y-77923979D01*
X120264898Y-77937566D01*
X120319026Y-77943008D01*
X120372557Y-77940153D01*
X120416531Y-77928848D01*
X120419750Y-77927394D01*
X120469060Y-77894728D01*
X120508104Y-77847755D01*
X120537387Y-77785271D01*
X120557417Y-77706070D01*
X120568701Y-77608947D01*
X120570766Y-77568049D01*
X120570041Y-77449692D01*
X120558745Y-77349604D01*
X120536839Y-77267692D01*
X120504281Y-77203862D01*
X120461031Y-77158021D01*
X120407049Y-77130076D01*
X120376323Y-77122833D01*
X120316899Y-77123691D01*
X120255861Y-77143128D01*
X120196999Y-77179258D01*
X120144103Y-77230196D01*
X120133162Y-77243831D01*
X120097425Y-77290634D01*
X119843425Y-77290634D01*
X119843425Y-76948924D01*
X119953417Y-76948924D01*
X120005887Y-76949249D01*
X120040777Y-76951888D01*
X120061673Y-76959337D01*
X120072162Y-76974095D01*
X120075828Y-76998658D01*
X120076258Y-77034456D01*
X120076851Y-77064369D01*
X120078366Y-77083190D01*
X120079503Y-77086507D01*
X120088274Y-77079874D01*
X120108086Y-77062512D01*
X120133754Y-77039008D01*
X120209237Y-76981731D01*
X120291541Y-76944367D01*
X120381228Y-76926737D01*
X120478859Y-76928665D01*
G36*
X142915648Y-79561123D02*
G01*
X142988277Y-79587035D01*
X143048868Y-79630298D01*
X143097215Y-79690789D01*
X143112884Y-79719384D01*
X143142633Y-79779966D01*
X143145683Y-80264153D01*
X143148732Y-80748341D01*
X142895190Y-80748341D01*
X142891912Y-80306486D01*
X142891045Y-80197369D01*
X142890148Y-80107354D01*
X142889124Y-80034376D01*
X142887871Y-79976371D01*
X142886290Y-79931276D01*
X142884283Y-79897025D01*
X142881749Y-79871554D01*
X142878589Y-79852798D01*
X142874703Y-79838693D01*
X142869993Y-79827176D01*
X142868685Y-79824478D01*
X142838643Y-79785267D01*
X142797084Y-79761142D01*
X142747025Y-79751803D01*
X142691481Y-79756950D01*
X142633472Y-79776280D01*
X142576013Y-79809494D01*
X142522123Y-79856291D01*
X142519270Y-79859308D01*
X142470591Y-79911350D01*
X142470591Y-80748341D01*
X142216591Y-80748341D01*
X142216591Y-79584174D01*
X142438841Y-79584174D01*
X142438958Y-79613278D01*
X142440834Y-79644148D01*
X142445230Y-79679577D01*
X142445597Y-79681839D01*
X142452119Y-79721296D01*
X142504300Y-79674381D01*
X142584317Y-79615837D01*
X142673056Y-79576421D01*
X142771020Y-79555948D01*
X142831185Y-79552683D01*
X142915648Y-79561123D01*
G37*
X142915648Y-79561123D02*
X142988277Y-79587035D01*
X143048868Y-79630298D01*
X143097215Y-79690789D01*
X143112884Y-79719384D01*
X143142633Y-79779966D01*
X143145683Y-80264153D01*
X143148732Y-80748341D01*
X142895190Y-80748341D01*
X142891912Y-80306486D01*
X142891045Y-80197369D01*
X142890148Y-80107354D01*
X142889124Y-80034376D01*
X142887871Y-79976371D01*
X142886290Y-79931276D01*
X142884283Y-79897025D01*
X142881749Y-79871554D01*
X142878589Y-79852798D01*
X142874703Y-79838693D01*
X142869993Y-79827176D01*
X142868685Y-79824478D01*
X142838643Y-79785267D01*
X142797084Y-79761142D01*
X142747025Y-79751803D01*
X142691481Y-79756950D01*
X142633472Y-79776280D01*
X142576013Y-79809494D01*
X142522123Y-79856291D01*
X142519270Y-79859308D01*
X142470591Y-79911350D01*
X142470591Y-80748341D01*
X142216591Y-80748341D01*
X142216591Y-79584174D01*
X142438841Y-79584174D01*
X142438958Y-79613278D01*
X142440834Y-79644148D01*
X142445230Y-79679577D01*
X142445597Y-79681839D01*
X142452119Y-79721296D01*
X142504300Y-79674381D01*
X142584317Y-79615837D01*
X142673056Y-79576421D01*
X142771020Y-79555948D01*
X142831185Y-79552683D01*
X142915648Y-79561123D01*
G36*
X139835341Y-79712434D02*
G01*
X139885612Y-79670589D01*
X139963285Y-79616918D01*
X140046330Y-79579251D01*
X140131676Y-79557911D01*
X140216256Y-79553220D01*
X140297001Y-79565499D01*
X140370841Y-79595069D01*
X140403946Y-79616244D01*
X140442908Y-79653993D01*
X140477284Y-79707816D01*
X140483237Y-79719537D01*
X140517966Y-79790060D01*
X140517966Y-80753632D01*
X140394046Y-80756610D01*
X140270125Y-80759588D01*
X140267046Y-80312110D01*
X140266218Y-80201782D01*
X140265336Y-80110597D01*
X140264306Y-80036529D01*
X140263040Y-79977555D01*
X140261445Y-79931651D01*
X140259432Y-79896791D01*
X140256908Y-79870953D01*
X140253784Y-79852110D01*
X140249968Y-79838240D01*
X140245370Y-79827317D01*
X140245274Y-79827125D01*
X140215915Y-79787100D01*
X140174693Y-79763014D01*
X140119591Y-79753782D01*
X140108875Y-79753611D01*
X140037871Y-79764263D01*
X139968689Y-79795788D01*
X139901854Y-79847931D01*
X139890216Y-79859383D01*
X139835341Y-79915130D01*
X139835341Y-80748341D01*
X139581341Y-80748341D01*
X139581341Y-79121234D01*
X139631612Y-79114733D01*
X139668962Y-79110336D01*
X139716435Y-79105326D01*
X139758612Y-79101266D01*
X139835341Y-79094301D01*
X139835341Y-79712434D01*
G37*
X139835341Y-79712434D02*
X139885612Y-79670589D01*
X139963285Y-79616918D01*
X140046330Y-79579251D01*
X140131676Y-79557911D01*
X140216256Y-79553220D01*
X140297001Y-79565499D01*
X140370841Y-79595069D01*
X140403946Y-79616244D01*
X140442908Y-79653993D01*
X140477284Y-79707816D01*
X140483237Y-79719537D01*
X140517966Y-79790060D01*
X140517966Y-80753632D01*
X140394046Y-80756610D01*
X140270125Y-80759588D01*
X140267046Y-80312110D01*
X140266218Y-80201782D01*
X140265336Y-80110597D01*
X140264306Y-80036529D01*
X140263040Y-79977555D01*
X140261445Y-79931651D01*
X140259432Y-79896791D01*
X140256908Y-79870953D01*
X140253784Y-79852110D01*
X140249968Y-79838240D01*
X140245370Y-79827317D01*
X140245274Y-79827125D01*
X140215915Y-79787100D01*
X140174693Y-79763014D01*
X140119591Y-79753782D01*
X140108875Y-79753611D01*
X140037871Y-79764263D01*
X139968689Y-79795788D01*
X139901854Y-79847931D01*
X139890216Y-79859383D01*
X139835341Y-79915130D01*
X139835341Y-80748341D01*
X139581341Y-80748341D01*
X139581341Y-79121234D01*
X139631612Y-79114733D01*
X139668962Y-79110336D01*
X139716435Y-79105326D01*
X139758612Y-79101266D01*
X139835341Y-79094301D01*
X139835341Y-79712434D01*
G36*
X137570472Y-79210950D02*
G01*
X137657470Y-79239691D01*
X137735114Y-79281438D01*
X137800543Y-79335155D01*
X137850889Y-79399808D01*
X137863601Y-79423154D01*
X137878038Y-79455070D01*
X137886904Y-79483628D01*
X137891505Y-79515917D01*
X137893148Y-79559028D01*
X137893270Y-79584174D01*
X137892367Y-79635916D01*
X137889038Y-79672637D01*
X137882304Y-79700433D01*
X137871185Y-79725398D01*
X137870298Y-79727049D01*
X137846157Y-79762112D01*
X137809933Y-79803544D01*
X137767069Y-79845847D01*
X137723011Y-79883524D01*
X137695735Y-79903310D01*
X137656921Y-79928898D01*
X137714101Y-79958835D01*
X137752242Y-79982475D01*
X137794796Y-80014320D01*
X137828394Y-80043650D01*
X137887978Y-80113849D01*
X137928739Y-80189872D01*
X137951404Y-80269436D01*
X137956705Y-80350263D01*
X137945372Y-80430071D01*
X137918134Y-80506580D01*
X137875721Y-80577509D01*
X137818863Y-80640579D01*
X137748290Y-80693509D01*
X137664732Y-80734018D01*
X137601273Y-80753211D01*
X137549273Y-80761715D01*
X137484511Y-80766782D01*
X137413703Y-80768422D01*
X137343570Y-80766641D01*
X137280830Y-80761448D01*
X137232202Y-80752852D01*
X137231841Y-80752757D01*
X137137248Y-80718997D01*
X137054836Y-80671598D01*
X136986716Y-80612255D01*
X136934999Y-80542660D01*
X136912826Y-80496951D01*
X136893842Y-80428034D01*
X136887037Y-80355283D01*
X137147721Y-80355283D01*
X137150544Y-80387301D01*
X137159507Y-80416762D01*
X137172769Y-80445897D01*
X137209625Y-80498350D01*
X137260760Y-80538227D01*
X137322801Y-80564639D01*
X137392377Y-80576695D01*
X137466119Y-80573506D01*
X137540654Y-80554180D01*
X137557356Y-80547445D01*
X137595281Y-80526994D01*
X137630059Y-80501591D01*
X137644091Y-80488002D01*
X137678091Y-80434254D01*
X137694733Y-80373471D01*
X137694591Y-80309862D01*
X137678242Y-80247632D01*
X137646260Y-80190991D01*
X137599222Y-80144146D01*
X137596808Y-80142370D01*
X137562467Y-80120869D01*
X137518636Y-80098277D01*
X137470081Y-80076484D01*
X137421563Y-80057377D01*
X137377847Y-80042846D01*
X137343694Y-80034779D01*
X137325041Y-80034616D01*
X137296411Y-80050531D01*
X137262168Y-80079477D01*
X137227408Y-80116228D01*
X137197229Y-80155558D01*
X137181616Y-80181707D01*
X137160737Y-80236462D01*
X137150199Y-80301280D01*
X137149439Y-80311507D01*
X137147721Y-80355283D01*
X136887037Y-80355283D01*
X136886704Y-80351724D01*
X136891329Y-80275504D01*
X136907635Y-80206853D01*
X136916285Y-80185570D01*
X136963173Y-80108914D01*
X137027689Y-80040799D01*
X137100749Y-79987930D01*
X137167136Y-79948171D01*
X137130613Y-79928503D01*
X137083690Y-79895040D01*
X137037222Y-79847888D01*
X136996993Y-79793843D01*
X136968789Y-79739700D01*
X136967893Y-79737365D01*
X136955384Y-79699491D01*
X136948807Y-79664194D01*
X136947065Y-79622887D01*
X136947450Y-79610029D01*
X137190080Y-79610029D01*
X137201192Y-79670263D01*
X137232325Y-79724063D01*
X137283566Y-79771566D01*
X137355001Y-79812910D01*
X137374716Y-79821742D01*
X137414491Y-79838221D01*
X137447532Y-79850951D01*
X137468524Y-79857919D01*
X137472216Y-79858637D01*
X137486450Y-79852704D01*
X137511249Y-79836495D01*
X137540178Y-79814361D01*
X137592570Y-79763260D01*
X137625880Y-79709442D01*
X137642153Y-79648878D01*
X137644591Y-79608628D01*
X137640069Y-79546543D01*
X137624998Y-79498225D01*
X137597123Y-79457967D01*
X137577515Y-79438933D01*
X137521836Y-79403832D01*
X137456127Y-79386533D01*
X137394587Y-79386313D01*
X137323814Y-79401914D01*
X137267766Y-79432718D01*
X137226429Y-79478736D01*
X137199789Y-79539979D01*
X137198901Y-79543223D01*
X137190080Y-79610029D01*
X136947450Y-79610029D01*
X136948250Y-79583318D01*
X136958943Y-79499223D01*
X136983805Y-79428063D01*
X137024736Y-79365522D01*
X137061133Y-79327192D01*
X137111984Y-79285094D01*
X137165506Y-79253344D01*
X137228543Y-79228406D01*
X137282016Y-79213105D01*
X137379881Y-79196622D01*
X137476988Y-79196249D01*
X137570472Y-79210950D01*
G37*
X137570472Y-79210950D02*
X137657470Y-79239691D01*
X137735114Y-79281438D01*
X137800543Y-79335155D01*
X137850889Y-79399808D01*
X137863601Y-79423154D01*
X137878038Y-79455070D01*
X137886904Y-79483628D01*
X137891505Y-79515917D01*
X137893148Y-79559028D01*
X137893270Y-79584174D01*
X137892367Y-79635916D01*
X137889038Y-79672637D01*
X137882304Y-79700433D01*
X137871185Y-79725398D01*
X137870298Y-79727049D01*
X137846157Y-79762112D01*
X137809933Y-79803544D01*
X137767069Y-79845847D01*
X137723011Y-79883524D01*
X137695735Y-79903310D01*
X137656921Y-79928898D01*
X137714101Y-79958835D01*
X137752242Y-79982475D01*
X137794796Y-80014320D01*
X137828394Y-80043650D01*
X137887978Y-80113849D01*
X137928739Y-80189872D01*
X137951404Y-80269436D01*
X137956705Y-80350263D01*
X137945372Y-80430071D01*
X137918134Y-80506580D01*
X137875721Y-80577509D01*
X137818863Y-80640579D01*
X137748290Y-80693509D01*
X137664732Y-80734018D01*
X137601273Y-80753211D01*
X137549273Y-80761715D01*
X137484511Y-80766782D01*
X137413703Y-80768422D01*
X137343570Y-80766641D01*
X137280830Y-80761448D01*
X137232202Y-80752852D01*
X137231841Y-80752757D01*
X137137248Y-80718997D01*
X137054836Y-80671598D01*
X136986716Y-80612255D01*
X136934999Y-80542660D01*
X136912826Y-80496951D01*
X136893842Y-80428034D01*
X136887037Y-80355283D01*
X137147721Y-80355283D01*
X137150544Y-80387301D01*
X137159507Y-80416762D01*
X137172769Y-80445897D01*
X137209625Y-80498350D01*
X137260760Y-80538227D01*
X137322801Y-80564639D01*
X137392377Y-80576695D01*
X137466119Y-80573506D01*
X137540654Y-80554180D01*
X137557356Y-80547445D01*
X137595281Y-80526994D01*
X137630059Y-80501591D01*
X137644091Y-80488002D01*
X137678091Y-80434254D01*
X137694733Y-80373471D01*
X137694591Y-80309862D01*
X137678242Y-80247632D01*
X137646260Y-80190991D01*
X137599222Y-80144146D01*
X137596808Y-80142370D01*
X137562467Y-80120869D01*
X137518636Y-80098277D01*
X137470081Y-80076484D01*
X137421563Y-80057377D01*
X137377847Y-80042846D01*
X137343694Y-80034779D01*
X137325041Y-80034616D01*
X137296411Y-80050531D01*
X137262168Y-80079477D01*
X137227408Y-80116228D01*
X137197229Y-80155558D01*
X137181616Y-80181707D01*
X137160737Y-80236462D01*
X137150199Y-80301280D01*
X137149439Y-80311507D01*
X137147721Y-80355283D01*
X136887037Y-80355283D01*
X136886704Y-80351724D01*
X136891329Y-80275504D01*
X136907635Y-80206853D01*
X136916285Y-80185570D01*
X136963173Y-80108914D01*
X137027689Y-80040799D01*
X137100749Y-79987930D01*
X137167136Y-79948171D01*
X137130613Y-79928503D01*
X137083690Y-79895040D01*
X137037222Y-79847888D01*
X136996993Y-79793843D01*
X136968789Y-79739700D01*
X136967893Y-79737365D01*
X136955384Y-79699491D01*
X136948807Y-79664194D01*
X136947065Y-79622887D01*
X136947450Y-79610029D01*
X137190080Y-79610029D01*
X137201192Y-79670263D01*
X137232325Y-79724063D01*
X137283566Y-79771566D01*
X137355001Y-79812910D01*
X137374716Y-79821742D01*
X137414491Y-79838221D01*
X137447532Y-79850951D01*
X137468524Y-79857919D01*
X137472216Y-79858637D01*
X137486450Y-79852704D01*
X137511249Y-79836495D01*
X137540178Y-79814361D01*
X137592570Y-79763260D01*
X137625880Y-79709442D01*
X137642153Y-79648878D01*
X137644591Y-79608628D01*
X137640069Y-79546543D01*
X137624998Y-79498225D01*
X137597123Y-79457967D01*
X137577515Y-79438933D01*
X137521836Y-79403832D01*
X137456127Y-79386533D01*
X137394587Y-79386313D01*
X137323814Y-79401914D01*
X137267766Y-79432718D01*
X137226429Y-79478736D01*
X137199789Y-79539979D01*
X137198901Y-79543223D01*
X137190080Y-79610029D01*
X136947450Y-79610029D01*
X136948250Y-79583318D01*
X136958943Y-79499223D01*
X136983805Y-79428063D01*
X137024736Y-79365522D01*
X137061133Y-79327192D01*
X137111984Y-79285094D01*
X137165506Y-79253344D01*
X137228543Y-79228406D01*
X137282016Y-79213105D01*
X137379881Y-79196622D01*
X137476988Y-79196249D01*
X137570472Y-79210950D01*
G36*
X145454117Y-79560735D02*
G01*
X145568351Y-79585939D01*
X145670377Y-79626788D01*
X145717441Y-79650343D01*
X145747549Y-79667812D01*
X145762415Y-79683080D01*
X145763753Y-79700035D01*
X145753276Y-79722565D01*
X145732698Y-79754558D01*
X145729107Y-79760016D01*
X145706449Y-79794527D01*
X145688071Y-79822525D01*
X145677254Y-79839008D01*
X145676164Y-79840671D01*
X145664191Y-79841315D01*
X145639038Y-79833333D01*
X145606819Y-79818805D01*
X145510220Y-79778255D01*
X145415348Y-79755997D01*
X145333060Y-79750364D01*
X145254724Y-79755221D01*
X145194924Y-79769948D01*
X145153399Y-79794688D01*
X145129890Y-79829578D01*
X145123924Y-79862469D01*
X145126317Y-79894465D01*
X145136896Y-79921811D01*
X145157796Y-79945984D01*
X145191154Y-79968458D01*
X145239109Y-79990708D01*
X145303796Y-80014210D01*
X145377398Y-80037443D01*
X145487687Y-80074047D01*
X145578160Y-80111808D01*
X145650167Y-80152038D01*
X145705058Y-80196048D01*
X145744184Y-80245151D01*
X145768893Y-80300658D01*
X145780537Y-80363881D01*
X145780900Y-80429500D01*
X145770387Y-80505837D01*
X145747487Y-80569088D01*
X145710061Y-80622205D01*
X145655971Y-80668143D01*
X145583079Y-80709855D01*
X145575126Y-80713692D01*
X145476770Y-80750010D01*
X145367565Y-80771655D01*
X145252419Y-80778089D01*
X145136238Y-80768774D01*
X145111133Y-80764577D01*
X145060624Y-80752948D01*
X145006667Y-80736950D01*
X144971586Y-80724218D01*
X144935509Y-80707688D01*
X144895700Y-80686672D01*
X144856622Y-80663907D01*
X144822738Y-80642127D01*
X144798512Y-80624070D01*
X144788406Y-80612471D01*
X144788341Y-80611884D01*
X144795071Y-80601378D01*
X144813140Y-80579268D01*
X144839368Y-80549349D01*
X144856166Y-80530892D01*
X144888451Y-80496626D01*
X144910327Y-80476071D01*
X144925178Y-80466884D01*
X144936390Y-80466721D01*
X144943478Y-80470446D01*
X144991798Y-80499013D01*
X145050424Y-80527886D01*
X145109116Y-80552278D01*
X145142396Y-80563446D01*
X145204796Y-80575545D01*
X145273131Y-80578893D01*
X145340474Y-80573888D01*
X145399894Y-80560924D01*
X145434111Y-80546761D01*
X145478918Y-80512638D01*
X145506245Y-80470999D01*
X145515499Y-80425350D01*
X145506087Y-80379195D01*
X145477415Y-80336039D01*
X145470854Y-80329507D01*
X145457244Y-80317895D01*
X145440902Y-80307108D01*
X145419281Y-80296179D01*
X145389833Y-80284140D01*
X145350012Y-80270023D01*
X145297270Y-80252861D01*
X145229061Y-80231686D01*
X145151174Y-80208044D01*
X145059801Y-80173481D01*
X144984437Y-80130192D01*
X144926335Y-80079188D01*
X144886748Y-80021484D01*
X144871919Y-79982296D01*
X144864624Y-79933272D01*
X144864744Y-79875558D01*
X144871596Y-79818070D01*
X144884494Y-79769723D01*
X144889042Y-79759150D01*
X144931741Y-79694746D01*
X144991412Y-79641520D01*
X145066667Y-79600127D01*
X145156115Y-79571218D01*
X145258365Y-79555447D01*
X145329044Y-79552549D01*
X145454117Y-79560735D01*
G37*
X145454117Y-79560735D02*
X145568351Y-79585939D01*
X145670377Y-79626788D01*
X145717441Y-79650343D01*
X145747549Y-79667812D01*
X145762415Y-79683080D01*
X145763753Y-79700035D01*
X145753276Y-79722565D01*
X145732698Y-79754558D01*
X145729107Y-79760016D01*
X145706449Y-79794527D01*
X145688071Y-79822525D01*
X145677254Y-79839008D01*
X145676164Y-79840671D01*
X145664191Y-79841315D01*
X145639038Y-79833333D01*
X145606819Y-79818805D01*
X145510220Y-79778255D01*
X145415348Y-79755997D01*
X145333060Y-79750364D01*
X145254724Y-79755221D01*
X145194924Y-79769948D01*
X145153399Y-79794688D01*
X145129890Y-79829578D01*
X145123924Y-79862469D01*
X145126317Y-79894465D01*
X145136896Y-79921811D01*
X145157796Y-79945984D01*
X145191154Y-79968458D01*
X145239109Y-79990708D01*
X145303796Y-80014210D01*
X145377398Y-80037443D01*
X145487687Y-80074047D01*
X145578160Y-80111808D01*
X145650167Y-80152038D01*
X145705058Y-80196048D01*
X145744184Y-80245151D01*
X145768893Y-80300658D01*
X145780537Y-80363881D01*
X145780900Y-80429500D01*
X145770387Y-80505837D01*
X145747487Y-80569088D01*
X145710061Y-80622205D01*
X145655971Y-80668143D01*
X145583079Y-80709855D01*
X145575126Y-80713692D01*
X145476770Y-80750010D01*
X145367565Y-80771655D01*
X145252419Y-80778089D01*
X145136238Y-80768774D01*
X145111133Y-80764577D01*
X145060624Y-80752948D01*
X145006667Y-80736950D01*
X144971586Y-80724218D01*
X144935509Y-80707688D01*
X144895700Y-80686672D01*
X144856622Y-80663907D01*
X144822738Y-80642127D01*
X144798512Y-80624070D01*
X144788406Y-80612471D01*
X144788341Y-80611884D01*
X144795071Y-80601378D01*
X144813140Y-80579268D01*
X144839368Y-80549349D01*
X144856166Y-80530892D01*
X144888451Y-80496626D01*
X144910327Y-80476071D01*
X144925178Y-80466884D01*
X144936390Y-80466721D01*
X144943478Y-80470446D01*
X144991798Y-80499013D01*
X145050424Y-80527886D01*
X145109116Y-80552278D01*
X145142396Y-80563446D01*
X145204796Y-80575545D01*
X145273131Y-80578893D01*
X145340474Y-80573888D01*
X145399894Y-80560924D01*
X145434111Y-80546761D01*
X145478918Y-80512638D01*
X145506245Y-80470999D01*
X145515499Y-80425350D01*
X145506087Y-80379195D01*
X145477415Y-80336039D01*
X145470854Y-80329507D01*
X145457244Y-80317895D01*
X145440902Y-80307108D01*
X145419281Y-80296179D01*
X145389833Y-80284140D01*
X145350012Y-80270023D01*
X145297270Y-80252861D01*
X145229061Y-80231686D01*
X145151174Y-80208044D01*
X145059801Y-80173481D01*
X144984437Y-80130192D01*
X144926335Y-80079188D01*
X144886748Y-80021484D01*
X144871919Y-79982296D01*
X144864624Y-79933272D01*
X144864744Y-79875558D01*
X144871596Y-79818070D01*
X144884494Y-79769723D01*
X144889042Y-79759150D01*
X144931741Y-79694746D01*
X144991412Y-79641520D01*
X145066667Y-79600127D01*
X145156115Y-79571218D01*
X145258365Y-79555447D01*
X145329044Y-79552549D01*
X145454117Y-79560735D01*
G36*
X144245945Y-79090677D02*
G01*
X144280347Y-79095270D01*
X144322907Y-79100408D01*
X144343841Y-79102751D01*
X144382640Y-79107390D01*
X144417284Y-79112269D01*
X144431154Y-79114616D01*
X144460258Y-79120189D01*
X144460258Y-80748341D01*
X144239059Y-80748341D01*
X144231894Y-80685010D01*
X144224729Y-80621680D01*
X144167833Y-80673680D01*
X144120854Y-80710464D01*
X144070964Y-80739553D01*
X144051785Y-80747811D01*
X143981439Y-80766794D01*
X143904755Y-80775309D01*
X143830477Y-80772834D01*
X143782925Y-80763825D01*
X143701786Y-80730854D01*
X143632163Y-80680339D01*
X143573929Y-80612142D01*
X143526953Y-80526121D01*
X143501613Y-80458129D01*
X143476199Y-80358435D01*
X143463423Y-80256653D01*
X143462659Y-80151799D01*
X143731676Y-80151799D01*
X143733912Y-80241939D01*
X143744399Y-80328673D01*
X143763072Y-80407734D01*
X143789865Y-80474854D01*
X143816879Y-80516813D01*
X143859342Y-80552865D01*
X143912837Y-80573726D01*
X143973137Y-80578874D01*
X144036011Y-80567784D01*
X144080502Y-80549451D01*
X144123071Y-80521585D01*
X144161024Y-80487146D01*
X144171669Y-80474545D01*
X144206258Y-80429195D01*
X144206258Y-80150987D01*
X144206226Y-80062400D01*
X144205677Y-79992333D01*
X144203931Y-79938137D01*
X144200305Y-79897167D01*
X144194120Y-79866774D01*
X144184695Y-79844313D01*
X144171349Y-79827136D01*
X144153402Y-79812596D01*
X144130172Y-79798046D01*
X144112880Y-79787896D01*
X144082629Y-79772096D01*
X144054010Y-79763228D01*
X144018745Y-79759434D01*
X143983274Y-79758799D01*
X143920181Y-79763759D01*
X143871402Y-79780144D01*
X143832174Y-79810209D01*
X143806547Y-79842511D01*
X143775126Y-79903608D01*
X143752218Y-79978366D01*
X143737756Y-80062519D01*
X143731676Y-80151799D01*
X143462659Y-80151799D01*
X143462617Y-80146136D01*
X143465526Y-80097629D01*
X143482128Y-79974428D01*
X143511678Y-79865609D01*
X143553625Y-79771871D01*
X143607415Y-79693913D01*
X143672497Y-79632433D01*
X143748318Y-79588130D01*
X143834325Y-79561702D01*
X143895016Y-79554463D01*
X143982974Y-79556587D01*
X144059931Y-79573865D01*
X144130890Y-79607596D01*
X144152029Y-79621305D01*
X144206258Y-79658608D01*
X144206258Y-79084897D01*
X144245945Y-79090677D01*
G37*
X144245945Y-79090677D02*
X144280347Y-79095270D01*
X144322907Y-79100408D01*
X144343841Y-79102751D01*
X144382640Y-79107390D01*
X144417284Y-79112269D01*
X144431154Y-79114616D01*
X144460258Y-79120189D01*
X144460258Y-80748341D01*
X144239059Y-80748341D01*
X144231894Y-80685010D01*
X144224729Y-80621680D01*
X144167833Y-80673680D01*
X144120854Y-80710464D01*
X144070964Y-80739553D01*
X144051785Y-80747811D01*
X143981439Y-80766794D01*
X143904755Y-80775309D01*
X143830477Y-80772834D01*
X143782925Y-80763825D01*
X143701786Y-80730854D01*
X143632163Y-80680339D01*
X143573929Y-80612142D01*
X143526953Y-80526121D01*
X143501613Y-80458129D01*
X143476199Y-80358435D01*
X143463423Y-80256653D01*
X143462659Y-80151799D01*
X143731676Y-80151799D01*
X143733912Y-80241939D01*
X143744399Y-80328673D01*
X143763072Y-80407734D01*
X143789865Y-80474854D01*
X143816879Y-80516813D01*
X143859342Y-80552865D01*
X143912837Y-80573726D01*
X143973137Y-80578874D01*
X144036011Y-80567784D01*
X144080502Y-80549451D01*
X144123071Y-80521585D01*
X144161024Y-80487146D01*
X144171669Y-80474545D01*
X144206258Y-80429195D01*
X144206258Y-80150987D01*
X144206226Y-80062400D01*
X144205677Y-79992333D01*
X144203931Y-79938137D01*
X144200305Y-79897167D01*
X144194120Y-79866774D01*
X144184695Y-79844313D01*
X144171349Y-79827136D01*
X144153402Y-79812596D01*
X144130172Y-79798046D01*
X144112880Y-79787896D01*
X144082629Y-79772096D01*
X144054010Y-79763228D01*
X144018745Y-79759434D01*
X143983274Y-79758799D01*
X143920181Y-79763759D01*
X143871402Y-79780144D01*
X143832174Y-79810209D01*
X143806547Y-79842511D01*
X143775126Y-79903608D01*
X143752218Y-79978366D01*
X143737756Y-80062519D01*
X143731676Y-80151799D01*
X143462659Y-80151799D01*
X143462617Y-80146136D01*
X143465526Y-80097629D01*
X143482128Y-79974428D01*
X143511678Y-79865609D01*
X143553625Y-79771871D01*
X143607415Y-79693913D01*
X143672497Y-79632433D01*
X143748318Y-79588130D01*
X143834325Y-79561702D01*
X143895016Y-79554463D01*
X143982974Y-79556587D01*
X144059931Y-79573865D01*
X144130890Y-79607596D01*
X144152029Y-79621305D01*
X144206258Y-79658608D01*
X144206258Y-79084897D01*
X144245945Y-79090677D01*
G36*
X141409825Y-79557619D02*
G01*
X141508583Y-79574398D01*
X141595195Y-79606085D01*
X141668446Y-79652069D01*
X141727121Y-79711739D01*
X141770004Y-79784482D01*
X141774409Y-79795001D01*
X141780932Y-79812165D01*
X141786159Y-79829272D01*
X141790254Y-79848856D01*
X141793382Y-79873452D01*
X141795707Y-79905595D01*
X141797393Y-79947822D01*
X141798606Y-80002665D01*
X141799508Y-80072662D01*
X141800265Y-80160347D01*
X141800543Y-80198007D01*
X141803022Y-80541966D01*
X141841542Y-80575761D01*
X141880062Y-80609557D01*
X141851921Y-80694059D01*
X141823779Y-80778560D01*
X141784706Y-80772677D01*
X141717084Y-80751976D01*
X141654676Y-80711761D01*
X141599502Y-80653440D01*
X141585021Y-80633161D01*
X141576314Y-80637020D01*
X141557285Y-80651411D01*
X141545326Y-80661573D01*
X141471712Y-80713122D01*
X141386473Y-80750916D01*
X141294624Y-80773864D01*
X141201178Y-80780876D01*
X141111149Y-80770859D01*
X141080195Y-80762769D01*
X141000674Y-80728034D01*
X140933437Y-80677276D01*
X140880761Y-80612448D01*
X140859829Y-80573716D01*
X140847485Y-80542678D01*
X140840039Y-80510868D01*
X140836400Y-80471407D01*
X140835699Y-80432674D01*
X141095908Y-80432674D01*
X141110296Y-80487119D01*
X141140202Y-80533396D01*
X141184404Y-80567817D01*
X141205883Y-80577466D01*
X141251022Y-80585846D01*
X141306541Y-80583907D01*
X141364859Y-80572531D01*
X141417932Y-80552825D01*
X141456076Y-80530070D01*
X141491360Y-80502326D01*
X141507292Y-80485965D01*
X141520943Y-80468652D01*
X141530021Y-80452982D01*
X141535460Y-80434224D01*
X141538191Y-80407645D01*
X141539146Y-80368513D01*
X141539258Y-80323716D01*
X141539258Y-80200248D01*
X141451945Y-80196062D01*
X141371647Y-80195261D01*
X141305411Y-80202091D01*
X141247199Y-80217547D01*
X141201154Y-80237386D01*
X141162515Y-80259821D01*
X141136998Y-80283993D01*
X141118570Y-80314020D01*
X141098259Y-80373746D01*
X141095908Y-80432674D01*
X140835699Y-80432674D01*
X140835474Y-80420257D01*
X140836219Y-80369816D01*
X140839331Y-80333435D01*
X140846110Y-80304037D01*
X140857857Y-80274540D01*
X140864995Y-80259585D01*
X140902572Y-80199618D01*
X140952221Y-80151112D01*
X141017894Y-80110416D01*
X141036048Y-80101606D01*
X141094883Y-80076719D01*
X141152317Y-80058426D01*
X141213811Y-80045621D01*
X141284824Y-80037200D01*
X141370814Y-80032058D01*
X141381948Y-80031626D01*
X141536846Y-80025875D01*
X141542387Y-79984566D01*
X141541360Y-79928079D01*
X141525931Y-79871329D01*
X141510145Y-79840900D01*
X141482389Y-79813613D01*
X141438774Y-79788746D01*
X141384606Y-79769102D01*
X141365045Y-79764183D01*
X141322117Y-79759675D01*
X141265222Y-79760894D01*
X141200573Y-79767181D01*
X141134383Y-79777876D01*
X141072865Y-79792319D01*
X141057788Y-79796799D01*
X141023573Y-79807220D01*
X140997849Y-79814486D01*
X140987148Y-79816871D01*
X140981199Y-79807740D01*
X140971030Y-79783941D01*
X140958603Y-79751049D01*
X140945884Y-79714638D01*
X140934836Y-79680285D01*
X140927422Y-79653564D01*
X140925425Y-79641633D01*
X140935374Y-79630654D01*
X140962933Y-79618192D01*
X141004664Y-79605028D01*
X141057131Y-79591944D01*
X141116899Y-79579723D01*
X141180530Y-79569147D01*
X141244588Y-79560997D01*
X141300138Y-79556361D01*
X141409825Y-79557619D01*
G37*
X141409825Y-79557619D02*
X141508583Y-79574398D01*
X141595195Y-79606085D01*
X141668446Y-79652069D01*
X141727121Y-79711739D01*
X141770004Y-79784482D01*
X141774409Y-79795001D01*
X141780932Y-79812165D01*
X141786159Y-79829272D01*
X141790254Y-79848856D01*
X141793382Y-79873452D01*
X141795707Y-79905595D01*
X141797393Y-79947822D01*
X141798606Y-80002665D01*
X141799508Y-80072662D01*
X141800265Y-80160347D01*
X141800543Y-80198007D01*
X141803022Y-80541966D01*
X141841542Y-80575761D01*
X141880062Y-80609557D01*
X141851921Y-80694059D01*
X141823779Y-80778560D01*
X141784706Y-80772677D01*
X141717084Y-80751976D01*
X141654676Y-80711761D01*
X141599502Y-80653440D01*
X141585021Y-80633161D01*
X141576314Y-80637020D01*
X141557285Y-80651411D01*
X141545326Y-80661573D01*
X141471712Y-80713122D01*
X141386473Y-80750916D01*
X141294624Y-80773864D01*
X141201178Y-80780876D01*
X141111149Y-80770859D01*
X141080195Y-80762769D01*
X141000674Y-80728034D01*
X140933437Y-80677276D01*
X140880761Y-80612448D01*
X140859829Y-80573716D01*
X140847485Y-80542678D01*
X140840039Y-80510868D01*
X140836400Y-80471407D01*
X140835699Y-80432674D01*
X141095908Y-80432674D01*
X141110296Y-80487119D01*
X141140202Y-80533396D01*
X141184404Y-80567817D01*
X141205883Y-80577466D01*
X141251022Y-80585846D01*
X141306541Y-80583907D01*
X141364859Y-80572531D01*
X141417932Y-80552825D01*
X141456076Y-80530070D01*
X141491360Y-80502326D01*
X141507292Y-80485965D01*
X141520943Y-80468652D01*
X141530021Y-80452982D01*
X141535460Y-80434224D01*
X141538191Y-80407645D01*
X141539146Y-80368513D01*
X141539258Y-80323716D01*
X141539258Y-80200248D01*
X141451945Y-80196062D01*
X141371647Y-80195261D01*
X141305411Y-80202091D01*
X141247199Y-80217547D01*
X141201154Y-80237386D01*
X141162515Y-80259821D01*
X141136998Y-80283993D01*
X141118570Y-80314020D01*
X141098259Y-80373746D01*
X141095908Y-80432674D01*
X140835699Y-80432674D01*
X140835474Y-80420257D01*
X140836219Y-80369816D01*
X140839331Y-80333435D01*
X140846110Y-80304037D01*
X140857857Y-80274540D01*
X140864995Y-80259585D01*
X140902572Y-80199618D01*
X140952221Y-80151112D01*
X141017894Y-80110416D01*
X141036048Y-80101606D01*
X141094883Y-80076719D01*
X141152317Y-80058426D01*
X141213811Y-80045621D01*
X141284824Y-80037200D01*
X141370814Y-80032058D01*
X141381948Y-80031626D01*
X141536846Y-80025875D01*
X141542387Y-79984566D01*
X141541360Y-79928079D01*
X141525931Y-79871329D01*
X141510145Y-79840900D01*
X141482389Y-79813613D01*
X141438774Y-79788746D01*
X141384606Y-79769102D01*
X141365045Y-79764183D01*
X141322117Y-79759675D01*
X141265222Y-79760894D01*
X141200573Y-79767181D01*
X141134383Y-79777876D01*
X141072865Y-79792319D01*
X141057788Y-79796799D01*
X141023573Y-79807220D01*
X140997849Y-79814486D01*
X140987148Y-79816871D01*
X140981199Y-79807740D01*
X140971030Y-79783941D01*
X140958603Y-79751049D01*
X140945884Y-79714638D01*
X140934836Y-79680285D01*
X140927422Y-79653564D01*
X140925425Y-79641633D01*
X140935374Y-79630654D01*
X140962933Y-79618192D01*
X141004664Y-79605028D01*
X141057131Y-79591944D01*
X141116899Y-79579723D01*
X141180530Y-79569147D01*
X141244588Y-79560997D01*
X141300138Y-79556361D01*
X141409825Y-79557619D01*
G36*
X133263091Y-79704998D02*
G01*
X133308070Y-79660998D01*
X133343565Y-79631720D01*
X133387306Y-79602947D01*
X133416550Y-79587357D01*
X133449024Y-79573304D01*
X133477769Y-79564546D01*
X133509642Y-79559897D01*
X133551503Y-79558169D01*
X133585883Y-79558044D01*
X133637727Y-79558897D01*
X133675079Y-79561851D01*
X133704593Y-79568072D01*
X133732924Y-79578726D01*
X133750319Y-79586852D01*
X133820782Y-79627868D01*
X133875168Y-79676273D01*
X133918418Y-79736956D01*
X133936022Y-79770522D01*
X133971827Y-79863788D01*
X133997192Y-79969986D01*
X134011488Y-80083296D01*
X134014087Y-80197893D01*
X134004357Y-80307956D01*
X133997995Y-80343974D01*
X133977606Y-80419230D01*
X133947916Y-80495016D01*
X133911729Y-80565777D01*
X133871849Y-80625958D01*
X133835338Y-80666284D01*
X133757253Y-80723141D01*
X133672025Y-80760215D01*
X133580823Y-80777186D01*
X133484817Y-80773738D01*
X133457229Y-80769069D01*
X133386149Y-80745516D01*
X133316972Y-80704806D01*
X133283781Y-80677859D01*
X133241925Y-80640044D01*
X133241925Y-80677452D01*
X133241204Y-80707731D01*
X133236651Y-80727865D01*
X133224679Y-80739923D01*
X133201703Y-80745976D01*
X133164136Y-80748091D01*
X133119084Y-80748341D01*
X133009091Y-80748341D01*
X133009091Y-79903380D01*
X133263091Y-79903380D01*
X133263091Y-80460966D01*
X133290895Y-80494009D01*
X133317545Y-80519176D01*
X133352489Y-80544284D01*
X133367624Y-80553106D01*
X133423584Y-80572755D01*
X133486342Y-80578527D01*
X133548468Y-80570672D01*
X133602531Y-80549436D01*
X133609608Y-80545031D01*
X133650607Y-80506044D01*
X133685939Y-80447523D01*
X133715041Y-80370475D01*
X133723144Y-80341304D01*
X133732170Y-80289539D01*
X133737399Y-80224033D01*
X133738824Y-80151869D01*
X133736439Y-80080129D01*
X133730236Y-80015898D01*
X133723500Y-79978693D01*
X133700182Y-79899448D01*
X133671367Y-79839294D01*
X133635559Y-79796536D01*
X133591259Y-79769479D01*
X133536971Y-79756429D01*
X133526275Y-79755455D01*
X133462034Y-79757044D01*
X133406893Y-79773415D01*
X133355886Y-79806687D01*
X133316410Y-79845040D01*
X133263091Y-79903380D01*
X133009091Y-79903380D01*
X133009091Y-79120189D01*
X133038195Y-79114613D01*
X133064224Y-79110668D01*
X133102223Y-79106090D01*
X133136091Y-79102632D01*
X133177096Y-79098374D01*
X133213654Y-79093826D01*
X133233987Y-79090651D01*
X133263091Y-79085075D01*
X133263091Y-79704998D01*
G37*
X133263091Y-79704998D02*
X133308070Y-79660998D01*
X133343565Y-79631720D01*
X133387306Y-79602947D01*
X133416550Y-79587357D01*
X133449024Y-79573304D01*
X133477769Y-79564546D01*
X133509642Y-79559897D01*
X133551503Y-79558169D01*
X133585883Y-79558044D01*
X133637727Y-79558897D01*
X133675079Y-79561851D01*
X133704593Y-79568072D01*
X133732924Y-79578726D01*
X133750319Y-79586852D01*
X133820782Y-79627868D01*
X133875168Y-79676273D01*
X133918418Y-79736956D01*
X133936022Y-79770522D01*
X133971827Y-79863788D01*
X133997192Y-79969986D01*
X134011488Y-80083296D01*
X134014087Y-80197893D01*
X134004357Y-80307956D01*
X133997995Y-80343974D01*
X133977606Y-80419230D01*
X133947916Y-80495016D01*
X133911729Y-80565777D01*
X133871849Y-80625958D01*
X133835338Y-80666284D01*
X133757253Y-80723141D01*
X133672025Y-80760215D01*
X133580823Y-80777186D01*
X133484817Y-80773738D01*
X133457229Y-80769069D01*
X133386149Y-80745516D01*
X133316972Y-80704806D01*
X133283781Y-80677859D01*
X133241925Y-80640044D01*
X133241925Y-80677452D01*
X133241204Y-80707731D01*
X133236651Y-80727865D01*
X133224679Y-80739923D01*
X133201703Y-80745976D01*
X133164136Y-80748091D01*
X133119084Y-80748341D01*
X133009091Y-80748341D01*
X133009091Y-79903380D01*
X133263091Y-79903380D01*
X133263091Y-80460966D01*
X133290895Y-80494009D01*
X133317545Y-80519176D01*
X133352489Y-80544284D01*
X133367624Y-80553106D01*
X133423584Y-80572755D01*
X133486342Y-80578527D01*
X133548468Y-80570672D01*
X133602531Y-80549436D01*
X133609608Y-80545031D01*
X133650607Y-80506044D01*
X133685939Y-80447523D01*
X133715041Y-80370475D01*
X133723144Y-80341304D01*
X133732170Y-80289539D01*
X133737399Y-80224033D01*
X133738824Y-80151869D01*
X133736439Y-80080129D01*
X133730236Y-80015898D01*
X133723500Y-79978693D01*
X133700182Y-79899448D01*
X133671367Y-79839294D01*
X133635559Y-79796536D01*
X133591259Y-79769479D01*
X133536971Y-79756429D01*
X133526275Y-79755455D01*
X133462034Y-79757044D01*
X133406893Y-79773415D01*
X133355886Y-79806687D01*
X133316410Y-79845040D01*
X133263091Y-79903380D01*
X133009091Y-79903380D01*
X133009091Y-79120189D01*
X133038195Y-79114613D01*
X133064224Y-79110668D01*
X133102223Y-79106090D01*
X133136091Y-79102632D01*
X133177096Y-79098374D01*
X133213654Y-79093826D01*
X133233987Y-79090651D01*
X133263091Y-79085075D01*
X133263091Y-79704998D01*
G36*
X139285008Y-81150507D02*
G01*
X138184341Y-81150507D01*
X138184341Y-80938841D01*
X139285008Y-80938841D01*
X139285008Y-81150507D01*
G37*
X139285008Y-81150507D02*
X138184341Y-81150507D01*
X138184341Y-80938841D01*
X139285008Y-80938841D01*
X139285008Y-81150507D01*
G36*
X134650467Y-80064881D02*
G01*
X134679067Y-80161034D01*
X134706020Y-80250264D01*
X134730721Y-80330659D01*
X134752561Y-80400308D01*
X134770935Y-80457300D01*
X134785235Y-80499725D01*
X134794853Y-80525671D01*
X134799184Y-80533227D01*
X134799204Y-80533194D01*
X134803193Y-80521481D01*
X134812478Y-80491967D01*
X134826311Y-80447135D01*
X134843944Y-80389469D01*
X134864628Y-80321454D01*
X134887616Y-80245573D01*
X134912158Y-80164310D01*
X134937508Y-80080149D01*
X134962916Y-79995573D01*
X134987635Y-79913068D01*
X135010917Y-79835116D01*
X135032013Y-79764202D01*
X135050175Y-79702809D01*
X135064655Y-79653422D01*
X135074692Y-79618570D01*
X135084419Y-79584174D01*
X135217346Y-79584174D01*
X135274787Y-79584668D01*
X135313576Y-79586324D01*
X135336207Y-79589398D01*
X135345174Y-79594150D01*
X135345253Y-79597403D01*
X135340970Y-79609531D01*
X135330370Y-79639885D01*
X135314070Y-79686688D01*
X135292687Y-79748167D01*
X135266838Y-79822548D01*
X135237138Y-79908057D01*
X135204206Y-80002918D01*
X135168657Y-80105357D01*
X135131109Y-80213601D01*
X135131011Y-80213882D01*
X135092817Y-80323622D01*
X135055997Y-80428683D01*
X135021244Y-80527131D01*
X134989253Y-80617032D01*
X134960719Y-80696453D01*
X134936335Y-80763460D01*
X134916797Y-80816121D01*
X134902798Y-80852500D01*
X134895349Y-80870049D01*
X134834518Y-80972353D01*
X134763301Y-81056362D01*
X134681405Y-81122384D01*
X134626402Y-81153798D01*
X134585070Y-81173293D01*
X134552736Y-81184952D01*
X134520724Y-81190759D01*
X134480360Y-81192699D01*
X134455774Y-81192841D01*
X134411498Y-81192483D01*
X134383996Y-81190692D01*
X134368882Y-81186389D01*
X134361765Y-81178494D01*
X134358917Y-81169028D01*
X134346773Y-81107573D01*
X134341011Y-81062940D01*
X134341736Y-81036320D01*
X134346531Y-81028912D01*
X134363279Y-81024579D01*
X134392381Y-81017541D01*
X134409684Y-81013475D01*
X134498597Y-80983234D01*
X134573523Y-80937233D01*
X134634188Y-80875681D01*
X134674164Y-80811637D01*
X134703147Y-80753632D01*
X134666537Y-80750395D01*
X134643721Y-80746366D01*
X134629523Y-80735636D01*
X134618182Y-80712530D01*
X134612783Y-80697478D01*
X134606089Y-80677890D01*
X134593327Y-80640363D01*
X134575213Y-80587011D01*
X134552464Y-80519944D01*
X134525796Y-80441275D01*
X134495924Y-80353116D01*
X134463565Y-80257578D01*
X134429435Y-80156774D01*
X134420107Y-80129216D01*
X134386119Y-80028835D01*
X134354107Y-79934351D01*
X134324727Y-79847694D01*
X134298634Y-79770794D01*
X134276483Y-79705582D01*
X134258930Y-79653988D01*
X134246629Y-79617942D01*
X134240238Y-79599373D01*
X134239534Y-79597403D01*
X134242306Y-79591742D01*
X134257318Y-79587844D01*
X134287043Y-79585459D01*
X134333955Y-79584340D01*
X134371522Y-79584174D01*
X134508552Y-79584174D01*
X134650467Y-80064881D01*
G37*
X134650467Y-80064881D02*
X134679067Y-80161034D01*
X134706020Y-80250264D01*
X134730721Y-80330659D01*
X134752561Y-80400308D01*
X134770935Y-80457300D01*
X134785235Y-80499725D01*
X134794853Y-80525671D01*
X134799184Y-80533227D01*
X134799204Y-80533194D01*
X134803193Y-80521481D01*
X134812478Y-80491967D01*
X134826311Y-80447135D01*
X134843944Y-80389469D01*
X134864628Y-80321454D01*
X134887616Y-80245573D01*
X134912158Y-80164310D01*
X134937508Y-80080149D01*
X134962916Y-79995573D01*
X134987635Y-79913068D01*
X135010917Y-79835116D01*
X135032013Y-79764202D01*
X135050175Y-79702809D01*
X135064655Y-79653422D01*
X135074692Y-79618570D01*
X135084419Y-79584174D01*
X135217346Y-79584174D01*
X135274787Y-79584668D01*
X135313576Y-79586324D01*
X135336207Y-79589398D01*
X135345174Y-79594150D01*
X135345253Y-79597403D01*
X135340970Y-79609531D01*
X135330370Y-79639885D01*
X135314070Y-79686688D01*
X135292687Y-79748167D01*
X135266838Y-79822548D01*
X135237138Y-79908057D01*
X135204206Y-80002918D01*
X135168657Y-80105357D01*
X135131109Y-80213601D01*
X135131011Y-80213882D01*
X135092817Y-80323622D01*
X135055997Y-80428683D01*
X135021244Y-80527131D01*
X134989253Y-80617032D01*
X134960719Y-80696453D01*
X134936335Y-80763460D01*
X134916797Y-80816121D01*
X134902798Y-80852500D01*
X134895349Y-80870049D01*
X134834518Y-80972353D01*
X134763301Y-81056362D01*
X134681405Y-81122384D01*
X134626402Y-81153798D01*
X134585070Y-81173293D01*
X134552736Y-81184952D01*
X134520724Y-81190759D01*
X134480360Y-81192699D01*
X134455774Y-81192841D01*
X134411498Y-81192483D01*
X134383996Y-81190692D01*
X134368882Y-81186389D01*
X134361765Y-81178494D01*
X134358917Y-81169028D01*
X134346773Y-81107573D01*
X134341011Y-81062940D01*
X134341736Y-81036320D01*
X134346531Y-81028912D01*
X134363279Y-81024579D01*
X134392381Y-81017541D01*
X134409684Y-81013475D01*
X134498597Y-80983234D01*
X134573523Y-80937233D01*
X134634188Y-80875681D01*
X134674164Y-80811637D01*
X134703147Y-80753632D01*
X134666537Y-80750395D01*
X134643721Y-80746366D01*
X134629523Y-80735636D01*
X134618182Y-80712530D01*
X134612783Y-80697478D01*
X134606089Y-80677890D01*
X134593327Y-80640363D01*
X134575213Y-80587011D01*
X134552464Y-80519944D01*
X134525796Y-80441275D01*
X134495924Y-80353116D01*
X134463565Y-80257578D01*
X134429435Y-80156774D01*
X134420107Y-80129216D01*
X134386119Y-80028835D01*
X134354107Y-79934351D01*
X134324727Y-79847694D01*
X134298634Y-79770794D01*
X134276483Y-79705582D01*
X134258930Y-79653988D01*
X134246629Y-79617942D01*
X134240238Y-79599373D01*
X134239534Y-79597403D01*
X134242306Y-79591742D01*
X134257318Y-79587844D01*
X134287043Y-79585459D01*
X134333955Y-79584340D01*
X134371522Y-79584174D01*
X134508552Y-79584174D01*
X134650467Y-80064881D01*
%TD*%
D15*
%TO.C,USB1*%
X57749180Y-33462560D03*
X64199180Y-33462560D03*
X58524180Y-33462560D03*
X63424180Y-33462560D03*
D16*
X62724180Y-33462560D03*
X59224180Y-33462560D03*
X62224180Y-33462560D03*
X59724180Y-33462560D03*
X61724180Y-33462560D03*
X60224180Y-33462560D03*
X60724180Y-33462560D03*
X61224180Y-33462560D03*
D17*
X58084180Y-32017560D03*
X63864180Y-32017560D03*
D18*
X65294180Y-32547560D03*
X56654180Y-32547560D03*
D19*
X65294180Y-28367560D03*
X56654180Y-28367560D03*
%TD*%
%TO.C,R8*%
G36*
G01*
X55214942Y-39310880D02*
X54314938Y-39310880D01*
G75*
G02*
X54064940Y-39060882I0J249998D01*
G01*
X54064940Y-38535878D01*
G75*
G02*
X54314938Y-38285880I249998J0D01*
G01*
X55214942Y-38285880D01*
G75*
G02*
X55464940Y-38535878I0J-249998D01*
G01*
X55464940Y-39060882D01*
G75*
G02*
X55214942Y-39310880I-249998J0D01*
G01*
G37*
G36*
G01*
X55214942Y-41135880D02*
X54314938Y-41135880D01*
G75*
G02*
X54064940Y-40885882I0J249998D01*
G01*
X54064940Y-40360878D01*
G75*
G02*
X54314938Y-40110880I249998J0D01*
G01*
X55214942Y-40110880D01*
G75*
G02*
X55464940Y-40360878I0J-249998D01*
G01*
X55464940Y-40885882D01*
G75*
G02*
X55214942Y-41135880I-249998J0D01*
G01*
G37*
%TD*%
%TO.C,R7*%
G36*
G01*
X58120702Y-42602720D02*
X57220698Y-42602720D01*
G75*
G02*
X56970700Y-42352722I0J249998D01*
G01*
X56970700Y-41827718D01*
G75*
G02*
X57220698Y-41577720I249998J0D01*
G01*
X58120702Y-41577720D01*
G75*
G02*
X58370700Y-41827718I0J-249998D01*
G01*
X58370700Y-42352722D01*
G75*
G02*
X58120702Y-42602720I-249998J0D01*
G01*
G37*
G36*
G01*
X58120702Y-44427720D02*
X57220698Y-44427720D01*
G75*
G02*
X56970700Y-44177722I0J249998D01*
G01*
X56970700Y-43652718D01*
G75*
G02*
X57220698Y-43402720I249998J0D01*
G01*
X58120702Y-43402720D01*
G75*
G02*
X58370700Y-43652718I0J-249998D01*
G01*
X58370700Y-44177722D01*
G75*
G02*
X58120702Y-44427720I-249998J0D01*
G01*
G37*
%TD*%
D20*
%TO.C,D9*%
X59874180Y-43952720D03*
X59874180Y-42052720D03*
X62074180Y-42052720D03*
D21*
X62074180Y-43772720D03*
%TD*%
%TO.C,C2*%
G36*
G01*
X57684292Y-47510160D02*
X56734292Y-47510160D01*
G75*
G02*
X56484292Y-47260160I0J250000D01*
G01*
X56484292Y-46760160D01*
G75*
G02*
X56734292Y-46510160I250000J0D01*
G01*
X57684292Y-46510160D01*
G75*
G02*
X57934292Y-46760160I0J-250000D01*
G01*
X57934292Y-47260160D01*
G75*
G02*
X57684292Y-47510160I-250000J0D01*
G01*
G37*
G36*
G01*
X57684292Y-49410160D02*
X56734292Y-49410160D01*
G75*
G02*
X56484292Y-49160160I0J250000D01*
G01*
X56484292Y-48660160D01*
G75*
G02*
X56734292Y-48410160I250000J0D01*
G01*
X57684292Y-48410160D01*
G75*
G02*
X57934292Y-48660160I0J-250000D01*
G01*
X57934292Y-49160160D01*
G75*
G02*
X57684292Y-49410160I-250000J0D01*
G01*
G37*
%TD*%
D22*
%TO.C,U1*%
X58174180Y-52005800D03*
X58974180Y-52005800D03*
X59774180Y-52005800D03*
X60574180Y-52005800D03*
X61374180Y-52005800D03*
X62174180Y-52005800D03*
X62974180Y-52005800D03*
X63774180Y-52005800D03*
D23*
X65224180Y-53455800D03*
X65224180Y-54255800D03*
X65224180Y-55055800D03*
X65224180Y-55855800D03*
X65224180Y-56655800D03*
X65224180Y-57455800D03*
X65224180Y-58255800D03*
X65224180Y-59055800D03*
D22*
X63774180Y-60505800D03*
X62974180Y-60505800D03*
X62174180Y-60505800D03*
X61374180Y-60505800D03*
X60574180Y-60505800D03*
X59774180Y-60505800D03*
X58974180Y-60505800D03*
X58174180Y-60505800D03*
D23*
X56724180Y-59055800D03*
X56724180Y-58255800D03*
X56724180Y-57455800D03*
X56724180Y-56655800D03*
X56724180Y-55855800D03*
X56724180Y-55055800D03*
X56724180Y-54255800D03*
X56724180Y-53455800D03*
%TD*%
D24*
%TO.C,D8*%
X123738350Y-31732220D03*
X120438350Y-31732220D03*
%TD*%
%TO.C,D7*%
X104642346Y-31732220D03*
X101342346Y-31732220D03*
%TD*%
%TO.C,D6*%
X114190348Y-31732220D03*
X110890348Y-31732220D03*
%TD*%
%TO.C,D5*%
X95094344Y-31732220D03*
X91794344Y-31732220D03*
%TD*%
%TO.C,D4*%
X142834360Y-31732220D03*
X139534360Y-31732220D03*
%TD*%
%TO.C,D3*%
X85546342Y-31732220D03*
X82246342Y-31732220D03*
%TD*%
%TO.C,D2*%
X133286352Y-31732220D03*
X129986352Y-31732220D03*
%TD*%
%TO.C,D1*%
X75998340Y-31732220D03*
X72698340Y-31732220D03*
%TD*%
D25*
%TO.C,MX8*%
X141265900Y-64136300D03*
X131105900Y-64136300D03*
D26*
X136185900Y-64136300D03*
%TD*%
D27*
%TO.C,H4*%
X46528800Y-78790800D03*
%TD*%
%TO.C,H3*%
X46528800Y-30378400D03*
%TD*%
%TO.C,H2*%
X150901400Y-78790800D03*
%TD*%
%TO.C,H1*%
X150901400Y-30378400D03*
%TD*%
D28*
%TO.C,Y1*%
X53672740Y-54280920D03*
X53672740Y-53080920D03*
X53672740Y-51880920D03*
%TD*%
D29*
%TO.C,SW1*%
X64074180Y-77468220D03*
X57874180Y-73768220D03*
X64074180Y-73768220D03*
X57874180Y-77468220D03*
%TD*%
%TO.C,R6*%
G36*
G01*
X62812082Y-70150920D02*
X61912078Y-70150920D01*
G75*
G02*
X61662080Y-69900922I0J249998D01*
G01*
X61662080Y-69375918D01*
G75*
G02*
X61912078Y-69125920I249998J0D01*
G01*
X62812082Y-69125920D01*
G75*
G02*
X63062080Y-69375918I0J-249998D01*
G01*
X63062080Y-69900922D01*
G75*
G02*
X62812082Y-70150920I-249998J0D01*
G01*
G37*
G36*
G01*
X62812082Y-71975920D02*
X61912078Y-71975920D01*
G75*
G02*
X61662080Y-71725922I0J249998D01*
G01*
X61662080Y-71200918D01*
G75*
G02*
X61912078Y-70950920I249998J0D01*
G01*
X62812082Y-70950920D01*
G75*
G02*
X63062080Y-71200918I0J-249998D01*
G01*
X63062080Y-71725922D01*
G75*
G02*
X62812082Y-71975920I-249998J0D01*
G01*
G37*
%TD*%
%TO.C,R5*%
G36*
G01*
X64785662Y-42602720D02*
X63885658Y-42602720D01*
G75*
G02*
X63635660Y-42352722I0J249998D01*
G01*
X63635660Y-41827718D01*
G75*
G02*
X63885658Y-41577720I249998J0D01*
G01*
X64785662Y-41577720D01*
G75*
G02*
X65035660Y-41827718I0J-249998D01*
G01*
X65035660Y-42352722D01*
G75*
G02*
X64785662Y-42602720I-249998J0D01*
G01*
G37*
G36*
G01*
X64785662Y-44427720D02*
X63885658Y-44427720D01*
G75*
G02*
X63635660Y-44177722I0J249998D01*
G01*
X63635660Y-43652718D01*
G75*
G02*
X63885658Y-43402720I249998J0D01*
G01*
X64785662Y-43402720D01*
G75*
G02*
X65035660Y-43652718I0J-249998D01*
G01*
X65035660Y-44177722D01*
G75*
G02*
X64785662Y-44427720I-249998J0D01*
G01*
G37*
%TD*%
%TO.C,R4*%
G36*
G01*
X66891322Y-39102600D02*
X65991318Y-39102600D01*
G75*
G02*
X65741320Y-38852602I0J249998D01*
G01*
X65741320Y-38327598D01*
G75*
G02*
X65991318Y-38077600I249998J0D01*
G01*
X66891322Y-38077600D01*
G75*
G02*
X67141320Y-38327598I0J-249998D01*
G01*
X67141320Y-38852602D01*
G75*
G02*
X66891322Y-39102600I-249998J0D01*
G01*
G37*
G36*
G01*
X66891322Y-40927600D02*
X65991318Y-40927600D01*
G75*
G02*
X65741320Y-40677602I0J249998D01*
G01*
X65741320Y-40152598D01*
G75*
G02*
X65991318Y-39902600I249998J0D01*
G01*
X66891322Y-39902600D01*
G75*
G02*
X67141320Y-40152598I0J-249998D01*
G01*
X67141320Y-40677602D01*
G75*
G02*
X66891322Y-40927600I-249998J0D01*
G01*
G37*
%TD*%
%TO.C,R3*%
G36*
G01*
X60154626Y-47624300D02*
X59254622Y-47624300D01*
G75*
G02*
X59004624Y-47374302I0J249998D01*
G01*
X59004624Y-46849298D01*
G75*
G02*
X59254622Y-46599300I249998J0D01*
G01*
X60154626Y-46599300D01*
G75*
G02*
X60404624Y-46849298I0J-249998D01*
G01*
X60404624Y-47374302D01*
G75*
G02*
X60154626Y-47624300I-249998J0D01*
G01*
G37*
G36*
G01*
X60154626Y-49449300D02*
X59254622Y-49449300D01*
G75*
G02*
X59004624Y-49199302I0J249998D01*
G01*
X59004624Y-48674298D01*
G75*
G02*
X59254622Y-48424300I249998J0D01*
G01*
X60154626Y-48424300D01*
G75*
G02*
X60404624Y-48674298I0J-249998D01*
G01*
X60404624Y-49199302D01*
G75*
G02*
X60154626Y-49449300I-249998J0D01*
G01*
G37*
%TD*%
%TO.C,R2*%
G36*
G01*
X62619958Y-47624300D02*
X61719954Y-47624300D01*
G75*
G02*
X61469956Y-47374302I0J249998D01*
G01*
X61469956Y-46849298D01*
G75*
G02*
X61719954Y-46599300I249998J0D01*
G01*
X62619958Y-46599300D01*
G75*
G02*
X62869956Y-46849298I0J-249998D01*
G01*
X62869956Y-47374302D01*
G75*
G02*
X62619958Y-47624300I-249998J0D01*
G01*
G37*
G36*
G01*
X62619958Y-49449300D02*
X61719954Y-49449300D01*
G75*
G02*
X61469956Y-49199302I0J249998D01*
G01*
X61469956Y-48674298D01*
G75*
G02*
X61719954Y-48424300I249998J0D01*
G01*
X62619958Y-48424300D01*
G75*
G02*
X62869956Y-48674298I0J-249998D01*
G01*
X62869956Y-49199302D01*
G75*
G02*
X62619958Y-49449300I-249998J0D01*
G01*
G37*
%TD*%
%TO.C,R1*%
G36*
G01*
X59146678Y-70979160D02*
X60046682Y-70979160D01*
G75*
G02*
X60296680Y-71229158I0J-249998D01*
G01*
X60296680Y-71754162D01*
G75*
G02*
X60046682Y-72004160I-249998J0D01*
G01*
X59146678Y-72004160D01*
G75*
G02*
X58896680Y-71754162I0J249998D01*
G01*
X58896680Y-71229158D01*
G75*
G02*
X59146678Y-70979160I249998J0D01*
G01*
G37*
G36*
G01*
X59146678Y-69154160D02*
X60046682Y-69154160D01*
G75*
G02*
X60296680Y-69404158I0J-249998D01*
G01*
X60296680Y-69929162D01*
G75*
G02*
X60046682Y-70179160I-249998J0D01*
G01*
X59146678Y-70179160D01*
G75*
G02*
X58896680Y-69929162I0J249998D01*
G01*
X58896680Y-69404158D01*
G75*
G02*
X59146678Y-69154160I249998J0D01*
G01*
G37*
%TD*%
%TO.C,F1*%
G36*
G01*
X55168960Y-44751840D02*
X53918960Y-44751840D01*
G75*
G02*
X53668960Y-44501840I0J250000D01*
G01*
X53668960Y-43751840D01*
G75*
G02*
X53918960Y-43501840I250000J0D01*
G01*
X55168960Y-43501840D01*
G75*
G02*
X55418960Y-43751840I0J-250000D01*
G01*
X55418960Y-44501840D01*
G75*
G02*
X55168960Y-44751840I-250000J0D01*
G01*
G37*
G36*
G01*
X55168960Y-47551840D02*
X53918960Y-47551840D01*
G75*
G02*
X53668960Y-47301840I0J250000D01*
G01*
X53668960Y-46551840D01*
G75*
G02*
X53918960Y-46301840I250000J0D01*
G01*
X55168960Y-46301840D01*
G75*
G02*
X55418960Y-46551840I0J-250000D01*
G01*
X55418960Y-47301840D01*
G75*
G02*
X55168960Y-47551840I-250000J0D01*
G01*
G37*
%TD*%
%TO.C,C5*%
G36*
G01*
X52839160Y-57454660D02*
X52839160Y-58404660D01*
G75*
G02*
X52589160Y-58654660I-250000J0D01*
G01*
X52089160Y-58654660D01*
G75*
G02*
X51839160Y-58404660I0J250000D01*
G01*
X51839160Y-57454660D01*
G75*
G02*
X52089160Y-57204660I250000J0D01*
G01*
X52589160Y-57204660D01*
G75*
G02*
X52839160Y-57454660I0J-250000D01*
G01*
G37*
G36*
G01*
X54739160Y-57454660D02*
X54739160Y-58404660D01*
G75*
G02*
X54489160Y-58654660I-250000J0D01*
G01*
X53989160Y-58654660D01*
G75*
G02*
X53739160Y-58404660I0J250000D01*
G01*
X53739160Y-57454660D01*
G75*
G02*
X53989160Y-57204660I250000J0D01*
G01*
X54489160Y-57204660D01*
G75*
G02*
X54739160Y-57454660I0J-250000D01*
G01*
G37*
%TD*%
%TO.C,C4*%
G36*
G01*
X67665620Y-44764380D02*
X66715620Y-44764380D01*
G75*
G02*
X66465620Y-44514380I0J250000D01*
G01*
X66465620Y-44014380D01*
G75*
G02*
X66715620Y-43764380I250000J0D01*
G01*
X67665620Y-43764380D01*
G75*
G02*
X67915620Y-44014380I0J-250000D01*
G01*
X67915620Y-44514380D01*
G75*
G02*
X67665620Y-44764380I-250000J0D01*
G01*
G37*
G36*
G01*
X67665620Y-46664380D02*
X66715620Y-46664380D01*
G75*
G02*
X66465620Y-46414380I0J250000D01*
G01*
X66465620Y-45914380D01*
G75*
G02*
X66715620Y-45664380I250000J0D01*
G01*
X67665620Y-45664380D01*
G75*
G02*
X67915620Y-45914380I0J-250000D01*
G01*
X67915620Y-46414380D01*
G75*
G02*
X67665620Y-46664380I-250000J0D01*
G01*
G37*
%TD*%
%TO.C,C1*%
G36*
G01*
X65140288Y-47591400D02*
X64190288Y-47591400D01*
G75*
G02*
X63940288Y-47341400I0J250000D01*
G01*
X63940288Y-46841400D01*
G75*
G02*
X64190288Y-46591400I250000J0D01*
G01*
X65140288Y-46591400D01*
G75*
G02*
X65390288Y-46841400I0J-250000D01*
G01*
X65390288Y-47341400D01*
G75*
G02*
X65140288Y-47591400I-250000J0D01*
G01*
G37*
G36*
G01*
X65140288Y-49491400D02*
X64190288Y-49491400D01*
G75*
G02*
X63940288Y-49241400I0J250000D01*
G01*
X63940288Y-48741400D01*
G75*
G02*
X64190288Y-48491400I250000J0D01*
G01*
X65140288Y-48491400D01*
G75*
G02*
X65390288Y-48741400I0J-250000D01*
G01*
X65390288Y-49241400D01*
G75*
G02*
X65140288Y-49491400I-250000J0D01*
G01*
G37*
%TD*%
D25*
%TO.C,MX7*%
X122215900Y-64136300D03*
X112055900Y-64136300D03*
D26*
X117135900Y-64136300D03*
%TD*%
D25*
%TO.C,MX6*%
X103165900Y-64136300D03*
X93005900Y-64136300D03*
D26*
X98085900Y-64136300D03*
%TD*%
D25*
%TO.C,MX5*%
X84115900Y-64136300D03*
X73955900Y-64136300D03*
D26*
X79035900Y-64136300D03*
%TD*%
D25*
%TO.C,MX4*%
X141265900Y-45086300D03*
X131105900Y-45086300D03*
D26*
X136185900Y-45086300D03*
%TD*%
D25*
%TO.C,MX3*%
X122215900Y-45086300D03*
X112055900Y-45086300D03*
D26*
X117135900Y-45086300D03*
%TD*%
D25*
%TO.C,MX2*%
X103165900Y-45086300D03*
X93005900Y-45086300D03*
D26*
X98085900Y-45086300D03*
%TD*%
D25*
%TO.C,MX1*%
X84115900Y-45086300D03*
X73955900Y-45086300D03*
D26*
X79035900Y-45086300D03*
%TD*%
M02*
