<?xml version="1.0" encoding="utf-8"?>
<!-- Generator: Adobe Illustrator 25.4.1, SVG Export Plug-In . SVG Version: 6.00 Build 0)  -->
<svg version="1.1" id="Layer_1" xmlns:svg="http://www.w3.org/2000/svg"
	 xmlns="http://www.w3.org/2000/svg" xmlns:xlink="http://www.w3.org/1999/xlink" x="0px" y="0px" viewBox="0 0 841.9 595.3"
	 style="enable-background:new 0 0 841.9 595.3;" xml:space="preserve">
<style type="text/css">
	.st0{fill-opacity:0;stroke:#000000;stroke-width:0.4252;stroke-linecap:round;stroke-linejoin:round;stroke-miterlimit:10;}
	.st1{fill-opacity:0;}
	.st2{fill:#283481;}
	.st3{fill:#E95026;}
</style>
<path class="st0" d="M525.5,372.5V195.7c0-5.7-4.6-10.4-10.4-10.4H269.1c-5.7,0-10.4,4.6-10.4,10.4v176.8c0,5.7,4.6,10.4,10.4,10.4
	h246.1C520.9,382.9,525.5,378.2,525.5,372.5z"/>
<desc>Picture generated by PCBNEW</desc>
<g transform="translate(0 0) scale(1 1)">
</g>
<g>
	<rect x="338.5" y="201.7" class="st1" width="164.8" height="164.8"/>
	<path class="st2" d="M503.3,368.2H338c-0.8,0-1.4-0.6-1.4-1.4V201.5c0-0.8,0.6-1.4,1.4-1.4h165.3c0.8,0,1.4,0.6,1.4,1.4v165.3
		C504.7,367.5,504.1,368.2,503.3,368.2z M339.4,365.3h162.4V202.9H339.4V365.3z"/>
</g>
<path class="st0" d="M501.7,365.1v-162h-162v162H501.7z"/>
<path class="st3" d="M515.2,382.7H269.1c-5.6,0-10.2-4.6-10.2-10.2V195.7c0-5.6,4.6-10.2,10.2-10.2h246.1c5.6,0,10.2,4.6,10.2,10.2
	v176.8C525.3,378.1,520.8,382.7,515.2,382.7z M269.1,187.9c-4.3,0-7.8,3.5-7.8,7.8v176.8c0,4.3,3.5,7.8,7.8,7.8h246.1
	c4.3,0,7.8-3.5,7.8-7.8V195.7c0-4.3-3.5-7.8-7.8-7.8H269.1z"/>
</svg>
