%TF.GenerationSoftware,KiCad,Pcbnew,(5.1.10-1-10_14)*%
%TF.CreationDate,2021-08-26T21:48:08+08:00*%
%TF.ProjectId,SMP top plate v.2 ,534d5020-746f-4702-9070-6c6174652076,rev?*%
%TF.SameCoordinates,Original*%
%TF.FileFunction,Legend,Top*%
%TF.FilePolarity,Positive*%
%FSLAX46Y46*%
G04 Gerber Fmt 4.6, Leading zero omitted, Abs format (unit mm)*
G04 Created by KiCad (PCBNEW (5.1.10-1-10_14)) date 2021-08-26 21:48:08*
%MOMM*%
%LPD*%
G01*
G04 APERTURE LIST*
%TA.AperFunction,Profile*%
%ADD10C,0.050000*%
%TD*%
%ADD11C,0.150000*%
%ADD12C,0.500000*%
%ADD13C,6.400000*%
%ADD14C,3.600000*%
G04 APERTURE END LIST*
D10*
X194200780Y-129593340D02*
G75*
G02*
X193878747Y-129928609I-322021J-12986D01*
G01*
X193878200Y-71188580D02*
G75*
G02*
X194213469Y-71510613I12986J-322021D01*
G01*
X183972200Y-81432400D02*
X107543600Y-81432400D01*
X183972200Y-119735600D02*
X183972200Y-81432400D01*
X107543600Y-119735600D02*
X183972200Y-119735600D01*
X107543600Y-81432400D02*
X107543600Y-119735600D01*
X79839820Y-129931160D02*
G75*
G02*
X79514700Y-129606040I0J325120D01*
G01*
X79517240Y-71513700D02*
G75*
G02*
X79842360Y-71188580I325120J0D01*
G01*
X79839820Y-129931160D02*
X193878200Y-129928620D01*
X194200780Y-129593340D02*
X194213469Y-71510613D01*
X193878200Y-71188580D02*
X79842360Y-71188580D01*
X79517240Y-71513700D02*
X79514700Y-129606040D01*
%TO.C,H1*%
D11*
X188290295Y-72604780D02*
X188290295Y-71604780D01*
X188290295Y-72080971D02*
X188861723Y-72080971D01*
X188861723Y-72604780D02*
X188861723Y-71604780D01*
X189861723Y-72604780D02*
X189290295Y-72604780D01*
X189576009Y-72604780D02*
X189576009Y-71604780D01*
X189480771Y-71747638D01*
X189385533Y-71842876D01*
X189290295Y-71890495D01*
%TO.C,H4*%
X83917695Y-121017180D02*
X83917695Y-120017180D01*
X83917695Y-120493371D02*
X84489123Y-120493371D01*
X84489123Y-121017180D02*
X84489123Y-120017180D01*
X85393885Y-120350514D02*
X85393885Y-121017180D01*
X85155790Y-119969561D02*
X84917695Y-120683847D01*
X85536742Y-120683847D01*
%TO.C,H3*%
X83917695Y-72604780D02*
X83917695Y-71604780D01*
X83917695Y-72080971D02*
X84489123Y-72080971D01*
X84489123Y-72604780D02*
X84489123Y-71604780D01*
X84870076Y-71604780D02*
X85489123Y-71604780D01*
X85155790Y-71985733D01*
X85298647Y-71985733D01*
X85393885Y-72033352D01*
X85441504Y-72080971D01*
X85489123Y-72176209D01*
X85489123Y-72414304D01*
X85441504Y-72509542D01*
X85393885Y-72557161D01*
X85298647Y-72604780D01*
X85012933Y-72604780D01*
X84917695Y-72557161D01*
X84870076Y-72509542D01*
%TO.C,H2*%
X188290295Y-121017180D02*
X188290295Y-120017180D01*
X188290295Y-120493371D02*
X188861723Y-120493371D01*
X188861723Y-121017180D02*
X188861723Y-120017180D01*
X189290295Y-120112419D02*
X189337914Y-120064800D01*
X189433152Y-120017180D01*
X189671247Y-120017180D01*
X189766485Y-120064800D01*
X189814104Y-120112419D01*
X189861723Y-120207657D01*
X189861723Y-120302895D01*
X189814104Y-120445752D01*
X189242676Y-121017180D01*
X189861723Y-121017180D01*
%TD*%
%LPC*%
D12*
X79791560Y-129651760D02*
X79792640Y-71462900D01*
X79791560Y-129651760D02*
X193939000Y-129654300D01*
X79792640Y-71462900D02*
X193929000Y-71462900D01*
X193939000Y-129651760D02*
X193939000Y-71462900D01*
X193939000Y-71462900D02*
X193939000Y-129654300D01*
X107264200Y-120015000D02*
X107264200Y-81153000D01*
X107264200Y-120015000D02*
X184251600Y-120015000D01*
X184251600Y-120015000D02*
X184251600Y-81153000D01*
X184251600Y-81153000D02*
X107264200Y-81153000D01*
D13*
%TO.C,H1*%
X189052200Y-76352400D03*
D14*
X189052200Y-76352400D03*
%TD*%
D13*
%TO.C,H4*%
X84679600Y-124764800D03*
D14*
X84679600Y-124764800D03*
%TD*%
D13*
%TO.C,H3*%
X84679600Y-76352400D03*
D14*
X84679600Y-76352400D03*
%TD*%
D13*
%TO.C,H2*%
X189052200Y-124764800D03*
D14*
X189052200Y-124764800D03*
%TD*%
M02*
