%TF.GenerationSoftware,KiCad,Pcbnew,(5.1.10-1-10_14)*%
%TF.CreationDate,2021-09-27T22:16:21+08:00*%
%TF.ProjectId,top-plate,746f702d-706c-4617-9465-2e6b69636164,rev?*%
%TF.SameCoordinates,Original*%
%TF.FileFunction,Profile,NP*%
%FSLAX46Y46*%
G04 Gerber Fmt 4.6, Leading zero omitted, Abs format (unit mm)*
G04 Created by KiCad (PCBNEW (5.1.10-1-10_14)) date 2021-09-27 22:16:21*
%MOMM*%
%LPD*%
G01*
G04 APERTURE LIST*
%TA.AperFunction,Profile*%
%ADD10C,0.150000*%
%TD*%
G04 APERTURE END LIST*
D10*
X184101500Y-119885600D02*
G75*
G02*
X183601500Y-120385600I-500000J0D01*
G01*
X170601500Y-120385600D02*
G75*
G02*
X170101500Y-119885600I0J500000D01*
G01*
X183601500Y-106385600D02*
G75*
G02*
X184101500Y-106885600I0J-500000D01*
G01*
X170101500Y-106885600D02*
G75*
G02*
X170601500Y-106385600I500000J0D01*
G01*
X184101500Y-106885600D02*
X184101500Y-119885600D01*
X170101500Y-106885600D02*
X170101500Y-119885600D01*
X170601500Y-120385600D02*
X183601500Y-120385600D01*
X170601500Y-106385600D02*
X183601500Y-106385600D01*
X165051500Y-119885600D02*
G75*
G02*
X164551500Y-120385600I-500000J0D01*
G01*
X151551500Y-120385600D02*
G75*
G02*
X151051500Y-119885600I0J500000D01*
G01*
X164551500Y-106385600D02*
G75*
G02*
X165051500Y-106885600I0J-500000D01*
G01*
X151051500Y-106885600D02*
G75*
G02*
X151551500Y-106385600I500000J0D01*
G01*
X165051500Y-106885600D02*
X165051500Y-119885600D01*
X151051500Y-106885600D02*
X151051500Y-119885600D01*
X151551500Y-120385600D02*
X164551500Y-120385600D01*
X151551500Y-106385600D02*
X164551500Y-106385600D01*
X146001499Y-119885600D02*
G75*
G02*
X145501499Y-120385600I-500000J0D01*
G01*
X132501500Y-120385600D02*
G75*
G02*
X132001500Y-119885600I0J500000D01*
G01*
X145501499Y-106385600D02*
G75*
G02*
X146001499Y-106885600I0J-500000D01*
G01*
X132001500Y-106885600D02*
G75*
G02*
X132501500Y-106385600I500000J0D01*
G01*
X146001499Y-106885600D02*
X146001499Y-119885600D01*
X132001500Y-106885600D02*
X132001500Y-119885600D01*
X132501500Y-120385600D02*
X145501499Y-120385600D01*
X132501500Y-106385600D02*
X145501499Y-106385600D01*
X184101500Y-100835600D02*
G75*
G02*
X183601500Y-101335600I-500000J0D01*
G01*
X170601500Y-101335600D02*
G75*
G02*
X170101500Y-100835600I0J500000D01*
G01*
X183601500Y-87335600D02*
G75*
G02*
X184101500Y-87835600I0J-500000D01*
G01*
X170101500Y-87835600D02*
G75*
G02*
X170601500Y-87335600I500000J0D01*
G01*
X184101500Y-87835600D02*
X184101500Y-100835600D01*
X170101500Y-87835600D02*
X170101500Y-100835600D01*
X170601500Y-101335600D02*
X183601500Y-101335600D01*
X170601500Y-87335600D02*
X183601500Y-87335600D01*
X165051500Y-100835600D02*
G75*
G02*
X164551500Y-101335600I-500000J0D01*
G01*
X151551500Y-101335600D02*
G75*
G02*
X151051500Y-100835600I0J500000D01*
G01*
X164551500Y-87335600D02*
G75*
G02*
X165051500Y-87835600I0J-500000D01*
G01*
X151051500Y-87835600D02*
G75*
G02*
X151551500Y-87335600I500000J0D01*
G01*
X165051500Y-87835600D02*
X165051500Y-100835600D01*
X151051500Y-87835600D02*
X151051500Y-100835600D01*
X151551500Y-101335600D02*
X164551500Y-101335600D01*
X151551500Y-87335600D02*
X164551500Y-87335600D01*
X146001499Y-100835600D02*
G75*
G02*
X145501499Y-101335600I-500000J0D01*
G01*
X132501500Y-101335600D02*
G75*
G02*
X132001500Y-100835600I0J500000D01*
G01*
X145501499Y-87335600D02*
G75*
G02*
X146001499Y-87835600I0J-500000D01*
G01*
X132001500Y-87835600D02*
G75*
G02*
X132501500Y-87335600I500000J0D01*
G01*
X146001499Y-87835600D02*
X146001499Y-100835600D01*
X132001500Y-87835600D02*
X132001500Y-100835600D01*
X132501500Y-101335600D02*
X145501499Y-101335600D01*
X132501500Y-87335600D02*
X145501499Y-87335600D01*
X184101500Y-81785599D02*
G75*
G02*
X183601500Y-82285599I-500000J0D01*
G01*
X170601500Y-82285599D02*
G75*
G02*
X170101500Y-81785599I0J500000D01*
G01*
X183601500Y-68285600D02*
G75*
G02*
X184101500Y-68785600I0J-500000D01*
G01*
X170101500Y-68785600D02*
G75*
G02*
X170601500Y-68285600I500000J0D01*
G01*
X184101500Y-68785600D02*
X184101500Y-81785599D01*
X170101500Y-68785600D02*
X170101500Y-81785599D01*
X170601500Y-82285599D02*
X183601500Y-82285599D01*
X170601500Y-68285600D02*
X183601500Y-68285600D01*
X165051500Y-81785599D02*
G75*
G02*
X164551500Y-82285599I-500000J0D01*
G01*
X151551500Y-82285599D02*
G75*
G02*
X151051500Y-81785599I0J500000D01*
G01*
X164551500Y-68285600D02*
G75*
G02*
X165051500Y-68785600I0J-500000D01*
G01*
X151051500Y-68785600D02*
G75*
G02*
X151551500Y-68285600I500000J0D01*
G01*
X165051500Y-68785600D02*
X165051500Y-81785599D01*
X151051500Y-68785600D02*
X151051500Y-81785599D01*
X151551500Y-82285599D02*
X164551500Y-82285599D01*
X151551500Y-68285600D02*
X164551500Y-68285600D01*
X146001499Y-81785599D02*
G75*
G02*
X145501499Y-82285599I-500000J0D01*
G01*
X132501500Y-82285599D02*
G75*
G02*
X132001500Y-81785599I0J500000D01*
G01*
X145501499Y-68285600D02*
G75*
G02*
X146001499Y-68785600I0J-500000D01*
G01*
X132001500Y-68785600D02*
G75*
G02*
X132501500Y-68285600I500000J0D01*
G01*
X146001499Y-68785600D02*
X146001499Y-81785599D01*
X132001500Y-68785600D02*
X132001500Y-81785599D01*
X132501500Y-82285599D02*
X145501499Y-82285599D01*
X132501500Y-68285600D02*
X145501499Y-68285600D01*
X102571800Y-59486800D02*
X191389000Y-59486800D01*
X195046600Y-125526800D02*
X195046600Y-63144400D01*
X102571800Y-129184400D02*
X191389000Y-129184400D01*
X98914200Y-125526800D02*
X98914200Y-63144400D01*
X98914200Y-63144400D02*
G75*
G02*
X102571800Y-59486800I3657600J0D01*
G01*
X191389000Y-59486800D02*
G75*
G02*
X195046600Y-63144400I0J-3657600D01*
G01*
X195046600Y-125526800D02*
G75*
G02*
X191389000Y-129184400I-3657600J0D01*
G01*
X102571800Y-129184400D02*
G75*
G02*
X98914200Y-125526800I0J3657600D01*
G01*
M02*
