M48
; DRILL file {KiCad (5.1.10-1-10_14)} date Thursday, August 26, 2021 at 10:17:17 AM
; FORMAT={-:-/ absolute / metric / decimal}
; #@! TF.CreationDate,2021-08-26T10:17:17+08:00
; #@! TF.GenerationSoftware,Kicad,Pcbnew,(5.1.10-1-10_14)
; #@! TF.FileFunction,Plated,1,2,PTH
FMAT,2
METRIC
T1C0.400
T2C0.600
T3C1.470
T4C3.200
%
G90
G05
T1
X56.04Y-61.128
X58.434Y-35.745
X59.969Y-41.656
X61.658Y-39.766
X63.406Y-35.745
X67.704Y-29.759
X67.804Y-49.956
X67.871Y-52.421
X67.884Y-53.96
X68.553Y-33.96
X68.91Y-53.152
X68.91Y-54.762
X70.724Y-29.764
X79.985Y-33.965
X89.85Y-29.764
X99.088Y-33.965
X108.92Y-29.764
X118.217Y-33.965
X127.935Y-29.761
X137.137Y-33.965
T3
X75.226Y-42.546
X75.226Y-61.596
X81.576Y-40.006
X81.576Y-59.056
X94.276Y-42.546
X94.276Y-61.596
X100.626Y-40.006
X100.626Y-59.056
X113.326Y-42.546
X113.326Y-61.596
X119.676Y-40.006
X119.676Y-59.056
X132.376Y-42.546
X132.376Y-61.596
X138.726Y-40.006
X138.726Y-59.056
T4
X46.529Y-30.378
X46.529Y-78.791
X150.901Y-30.378
X150.901Y-78.791
T2
G00X56.592Y-28.739
M15
G01X56.592Y-28.139
M16
G05
G00X56.592Y-33.169
M15
G01X56.592Y-32.069
M16
G05
G00X65.232Y-28.739
M15
G01X65.232Y-28.139
M16
G05
G00X65.232Y-33.169
M15
G01X65.232Y-32.069
M16
G05
T0
M30
