%TF.GenerationSoftware,KiCad,Pcbnew,(5.1.10-1-10_14)*%
%TF.CreationDate,2021-08-27T11:15:07+08:00*%
%TF.ProjectId,SMP v.2,534d5020-762e-4322-9e6b-696361645f70,rev?*%
%TF.SameCoordinates,Original*%
%TF.FileFunction,Legend,Top*%
%TF.FilePolarity,Positive*%
%FSLAX46Y46*%
G04 Gerber Fmt 4.6, Leading zero omitted, Abs format (unit mm)*
G04 Created by KiCad (PCBNEW (5.1.10-1-10_14)) date 2021-08-27 11:15:07*
%MOMM*%
%LPD*%
G01*
G04 APERTURE LIST*
%TA.AperFunction,Profile*%
%ADD10C,0.050000*%
%TD*%
%ADD11C,0.120000*%
%ADD12C,0.150000*%
%ADD13C,0.300000*%
%ADD14C,0.500000*%
%ADD15R,0.600000X1.450000*%
%ADD16R,0.300000X1.450000*%
%ADD17C,0.650000*%
%ADD18O,1.000000X2.100000*%
%ADD19O,1.000000X1.600000*%
%ADD20R,1.400000X1.000000*%
%ADD21R,1.400000X1.200000*%
%ADD22R,0.550000X1.600000*%
%ADD23R,1.600000X0.550000*%
%ADD24R,0.900000X1.200000*%
%ADD25C,1.750000*%
%ADD26C,3.987800*%
%ADD27C,6.400000*%
%ADD28R,1.900000X0.400000*%
%ADD29R,1.800000X1.100000*%
G04 APERTURE END LIST*
D10*
X156052520Y-83629500D02*
G75*
G02*
X155727400Y-83954620I-325120J0D01*
G01*
X155727400Y-25214580D02*
G75*
G02*
X156052520Y-25539700I0J-325120D01*
G01*
X41366440Y-25539700D02*
G75*
G02*
X41691560Y-25214580I325120J0D01*
G01*
X41689020Y-83957160D02*
G75*
G02*
X41363900Y-83632040I0J325120D01*
G01*
X41366440Y-25539700D02*
X41363900Y-83632040D01*
X155727400Y-25214580D02*
X41691560Y-25214580D01*
X156052520Y-83629500D02*
X156052520Y-25539700D01*
X41689020Y-83957160D02*
X155727400Y-83954620D01*
D11*
%TO.C,R8*%
X54029940Y-36437944D02*
X54029940Y-35983816D01*
X55499940Y-36437944D02*
X55499940Y-35983816D01*
%TO.C,R7*%
X56935700Y-39729784D02*
X56935700Y-39275656D01*
X58405700Y-39729784D02*
X58405700Y-39275656D01*
%TO.C,D9*%
X62174180Y-37952720D02*
X59774180Y-37952720D01*
X59774180Y-41052720D02*
X62724180Y-41052720D01*
%TO.C,C2*%
X53697732Y-47803740D02*
X53175228Y-47803740D01*
X53697732Y-46333740D02*
X53175228Y-46333740D01*
D12*
%TO.C,U1*%
X57349180Y-49130800D02*
X57349180Y-49355800D01*
X64599180Y-49130800D02*
X64599180Y-49455800D01*
X64599180Y-56380800D02*
X64599180Y-56055800D01*
X57349180Y-56380800D02*
X57349180Y-56055800D01*
X57349180Y-49130800D02*
X57674180Y-49130800D01*
X57349180Y-56380800D02*
X57674180Y-56380800D01*
X64599180Y-56380800D02*
X64274180Y-56380800D01*
X64599180Y-49130800D02*
X64274180Y-49130800D01*
X57349180Y-49355800D02*
X55924180Y-49355800D01*
D11*
%TO.C,D8*%
X119838350Y-30732220D02*
X123738350Y-30732220D01*
X119838350Y-32732220D02*
X123738350Y-32732220D01*
X119838350Y-30732220D02*
X119838350Y-32732220D01*
%TO.C,D7*%
X100742346Y-30732220D02*
X104642346Y-30732220D01*
X100742346Y-32732220D02*
X104642346Y-32732220D01*
X100742346Y-30732220D02*
X100742346Y-32732220D01*
%TO.C,D6*%
X110290348Y-30732220D02*
X114190348Y-30732220D01*
X110290348Y-32732220D02*
X114190348Y-32732220D01*
X110290348Y-30732220D02*
X110290348Y-32732220D01*
%TO.C,D5*%
X91194344Y-30732220D02*
X95094344Y-30732220D01*
X91194344Y-32732220D02*
X95094344Y-32732220D01*
X91194344Y-30732220D02*
X91194344Y-32732220D01*
%TO.C,D4*%
X138934360Y-30732220D02*
X142834360Y-30732220D01*
X138934360Y-32732220D02*
X142834360Y-32732220D01*
X138934360Y-30732220D02*
X138934360Y-32732220D01*
%TO.C,D3*%
X81646342Y-30732220D02*
X85546342Y-30732220D01*
X81646342Y-32732220D02*
X85546342Y-32732220D01*
X81646342Y-30732220D02*
X81646342Y-32732220D01*
%TO.C,D2*%
X129386352Y-30732220D02*
X133286352Y-30732220D01*
X129386352Y-32732220D02*
X133286352Y-32732220D01*
X129386352Y-30732220D02*
X129386352Y-32732220D01*
%TO.C,D1*%
X72098340Y-30732220D02*
X75998340Y-30732220D01*
X72098340Y-32732220D02*
X75998340Y-32732220D01*
X72098340Y-30732220D02*
X72098340Y-32732220D01*
%TO.C,Y1*%
X52915920Y-49154180D02*
X52515920Y-49154180D01*
X52915920Y-49354180D02*
X52515920Y-49354180D01*
X52915920Y-52954180D02*
X52515920Y-52954180D01*
X54915920Y-49154180D02*
X52915920Y-49154180D01*
X52515920Y-50354180D02*
X52115920Y-50354180D01*
X52515920Y-50354180D02*
X52515920Y-49354180D01*
X52915920Y-49354180D02*
X54915920Y-49354180D01*
X54915920Y-49354180D02*
X54915920Y-50354180D01*
X54915920Y-52154180D02*
X54915920Y-52954180D01*
X54915920Y-52954180D02*
X52915920Y-52954180D01*
X52515920Y-52954180D02*
X52515920Y-52154180D01*
D12*
%TO.C,SW1*%
X61974180Y-72118220D02*
G75*
G03*
X61974180Y-72118220I-1000000J0D01*
G01*
X58374180Y-74718220D02*
X58374180Y-69518220D01*
X63574180Y-74718220D02*
X58374180Y-74718220D01*
X63574180Y-69518220D02*
X63574180Y-74718220D01*
X58374180Y-69518220D02*
X63574180Y-69518220D01*
D11*
%TO.C,R6*%
X63097080Y-67277984D02*
X63097080Y-66823856D01*
X61627080Y-67277984D02*
X61627080Y-66823856D01*
%TO.C,R5*%
X65070660Y-39729784D02*
X65070660Y-39275656D01*
X63600660Y-39729784D02*
X63600660Y-39275656D01*
%TO.C,R4*%
X67176320Y-36229664D02*
X67176320Y-35775536D01*
X65706320Y-36229664D02*
X65706320Y-35775536D01*
%TO.C,R3*%
X60615500Y-44751364D02*
X60615500Y-44297236D01*
X59145500Y-44751364D02*
X59145500Y-44297236D01*
%TO.C,R2*%
X62810060Y-44751364D02*
X62810060Y-44297236D01*
X61340060Y-44751364D02*
X61340060Y-44297236D01*
%TO.C,R1*%
X58861680Y-66852096D02*
X58861680Y-67306224D01*
X60331680Y-66852096D02*
X60331680Y-67306224D01*
%TO.C,F1*%
X55453960Y-42628904D02*
X55453960Y-41424776D01*
X53633960Y-42628904D02*
X53633960Y-41424776D01*
%TO.C,C5*%
X53550412Y-53694660D02*
X53027908Y-53694660D01*
X53550412Y-55164660D02*
X53027908Y-55164660D01*
%TO.C,C4*%
X58418400Y-44802652D02*
X58418400Y-44280148D01*
X56948400Y-44802652D02*
X56948400Y-44280148D01*
%TO.C,C1*%
X65022400Y-44802652D02*
X65022400Y-44280148D01*
X63552400Y-44802652D02*
X63552400Y-44280148D01*
%TD*%
%TO.C,USB1*%
D12*
X59236084Y-34469940D02*
X59236084Y-35279464D01*
X59283703Y-35374702D01*
X59331322Y-35422321D01*
X59426560Y-35469940D01*
X59617037Y-35469940D01*
X59712275Y-35422321D01*
X59759894Y-35374702D01*
X59807513Y-35279464D01*
X59807513Y-34469940D01*
X60236084Y-35422321D02*
X60378941Y-35469940D01*
X60617037Y-35469940D01*
X60712275Y-35422321D01*
X60759894Y-35374702D01*
X60807513Y-35279464D01*
X60807513Y-35184226D01*
X60759894Y-35088988D01*
X60712275Y-35041369D01*
X60617037Y-34993750D01*
X60426560Y-34946131D01*
X60331322Y-34898512D01*
X60283703Y-34850893D01*
X60236084Y-34755655D01*
X60236084Y-34660417D01*
X60283703Y-34565179D01*
X60331322Y-34517560D01*
X60426560Y-34469940D01*
X60664656Y-34469940D01*
X60807513Y-34517560D01*
X61569418Y-34946131D02*
X61712275Y-34993750D01*
X61759894Y-35041369D01*
X61807513Y-35136607D01*
X61807513Y-35279464D01*
X61759894Y-35374702D01*
X61712275Y-35422321D01*
X61617037Y-35469940D01*
X61236084Y-35469940D01*
X61236084Y-34469940D01*
X61569418Y-34469940D01*
X61664656Y-34517560D01*
X61712275Y-34565179D01*
X61759894Y-34660417D01*
X61759894Y-34755655D01*
X61712275Y-34850893D01*
X61664656Y-34898512D01*
X61569418Y-34946131D01*
X61236084Y-34946131D01*
X62759894Y-35469940D02*
X62188465Y-35469940D01*
X62474180Y-35469940D02*
X62474180Y-34469940D01*
X62378941Y-34612798D01*
X62283703Y-34708036D01*
X62188465Y-34755655D01*
%TO.C,R8*%
X53567320Y-36377546D02*
X53091130Y-36710880D01*
X53567320Y-36948975D02*
X52567320Y-36948975D01*
X52567320Y-36568022D01*
X52614940Y-36472784D01*
X52662559Y-36425165D01*
X52757797Y-36377546D01*
X52900654Y-36377546D01*
X52995892Y-36425165D01*
X53043511Y-36472784D01*
X53091130Y-36568022D01*
X53091130Y-36948975D01*
X52995892Y-35806118D02*
X52948273Y-35901356D01*
X52900654Y-35948975D01*
X52805416Y-35996594D01*
X52757797Y-35996594D01*
X52662559Y-35948975D01*
X52614940Y-35901356D01*
X52567320Y-35806118D01*
X52567320Y-35615641D01*
X52614940Y-35520403D01*
X52662559Y-35472784D01*
X52757797Y-35425165D01*
X52805416Y-35425165D01*
X52900654Y-35472784D01*
X52948273Y-35520403D01*
X52995892Y-35615641D01*
X52995892Y-35806118D01*
X53043511Y-35901356D01*
X53091130Y-35948975D01*
X53186368Y-35996594D01*
X53376844Y-35996594D01*
X53472082Y-35948975D01*
X53519701Y-35901356D01*
X53567320Y-35806118D01*
X53567320Y-35615641D01*
X53519701Y-35520403D01*
X53472082Y-35472784D01*
X53376844Y-35425165D01*
X53186368Y-35425165D01*
X53091130Y-35472784D01*
X53043511Y-35520403D01*
X52995892Y-35615641D01*
%TO.C,R7*%
X54706800Y-39669386D02*
X54230610Y-40002720D01*
X54706800Y-40240815D02*
X53706800Y-40240815D01*
X53706800Y-39859862D01*
X53754420Y-39764624D01*
X53802039Y-39717005D01*
X53897277Y-39669386D01*
X54040134Y-39669386D01*
X54135372Y-39717005D01*
X54182991Y-39764624D01*
X54230610Y-39859862D01*
X54230610Y-40240815D01*
X53706800Y-39336053D02*
X53706800Y-38669386D01*
X54706800Y-39097958D01*
%TO.C,D9*%
X60216084Y-42335100D02*
X60216084Y-41335100D01*
X60454180Y-41335100D01*
X60597037Y-41382720D01*
X60692275Y-41477958D01*
X60739894Y-41573196D01*
X60787513Y-41763672D01*
X60787513Y-41906529D01*
X60739894Y-42097005D01*
X60692275Y-42192243D01*
X60597037Y-42287481D01*
X60454180Y-42335100D01*
X60216084Y-42335100D01*
X61263703Y-42335100D02*
X61454180Y-42335100D01*
X61549418Y-42287481D01*
X61597037Y-42239862D01*
X61692275Y-42097005D01*
X61739894Y-41906529D01*
X61739894Y-41525577D01*
X61692275Y-41430339D01*
X61644656Y-41382720D01*
X61549418Y-41335100D01*
X61358941Y-41335100D01*
X61263703Y-41382720D01*
X61216084Y-41430339D01*
X61168465Y-41525577D01*
X61168465Y-41763672D01*
X61216084Y-41858910D01*
X61263703Y-41906529D01*
X61358941Y-41954148D01*
X61549418Y-41954148D01*
X61644656Y-41906529D01*
X61692275Y-41858910D01*
X61739894Y-41763672D01*
%TO.C,C2*%
X53269813Y-49105882D02*
X53222194Y-49153501D01*
X53079337Y-49201120D01*
X52984099Y-49201120D01*
X52841241Y-49153501D01*
X52746003Y-49058263D01*
X52698384Y-48963025D01*
X52650765Y-48772549D01*
X52650765Y-48629692D01*
X52698384Y-48439216D01*
X52746003Y-48343978D01*
X52841241Y-48248740D01*
X52984099Y-48201120D01*
X53079337Y-48201120D01*
X53222194Y-48248740D01*
X53269813Y-48296359D01*
X53650765Y-48296359D02*
X53698384Y-48248740D01*
X53793622Y-48201120D01*
X54031718Y-48201120D01*
X54126956Y-48248740D01*
X54174575Y-48296359D01*
X54222194Y-48391597D01*
X54222194Y-48486835D01*
X54174575Y-48629692D01*
X53603146Y-49201120D01*
X54222194Y-49201120D01*
%TO.C,U1*%
X60212275Y-46158180D02*
X60212275Y-46967704D01*
X60259894Y-47062942D01*
X60307513Y-47110561D01*
X60402751Y-47158180D01*
X60593227Y-47158180D01*
X60688465Y-47110561D01*
X60736084Y-47062942D01*
X60783703Y-46967704D01*
X60783703Y-46158180D01*
X61783703Y-47158180D02*
X61212275Y-47158180D01*
X61497989Y-47158180D02*
X61497989Y-46158180D01*
X61402751Y-46301038D01*
X61307513Y-46396276D01*
X61212275Y-46443895D01*
%TO.C,D8*%
X121350254Y-30184600D02*
X121350254Y-29184600D01*
X121588350Y-29184600D01*
X121731207Y-29232220D01*
X121826445Y-29327458D01*
X121874064Y-29422696D01*
X121921683Y-29613172D01*
X121921683Y-29756029D01*
X121874064Y-29946505D01*
X121826445Y-30041743D01*
X121731207Y-30136981D01*
X121588350Y-30184600D01*
X121350254Y-30184600D01*
X122493111Y-29613172D02*
X122397873Y-29565553D01*
X122350254Y-29517934D01*
X122302635Y-29422696D01*
X122302635Y-29375077D01*
X122350254Y-29279839D01*
X122397873Y-29232220D01*
X122493111Y-29184600D01*
X122683588Y-29184600D01*
X122778826Y-29232220D01*
X122826445Y-29279839D01*
X122874064Y-29375077D01*
X122874064Y-29422696D01*
X122826445Y-29517934D01*
X122778826Y-29565553D01*
X122683588Y-29613172D01*
X122493111Y-29613172D01*
X122397873Y-29660791D01*
X122350254Y-29708410D01*
X122302635Y-29803648D01*
X122302635Y-29994124D01*
X122350254Y-30089362D01*
X122397873Y-30136981D01*
X122493111Y-30184600D01*
X122683588Y-30184600D01*
X122778826Y-30136981D01*
X122826445Y-30089362D01*
X122874064Y-29994124D01*
X122874064Y-29803648D01*
X122826445Y-29708410D01*
X122778826Y-29660791D01*
X122683588Y-29613172D01*
%TO.C,D7*%
X102254250Y-30184600D02*
X102254250Y-29184600D01*
X102492346Y-29184600D01*
X102635203Y-29232220D01*
X102730441Y-29327458D01*
X102778060Y-29422696D01*
X102825679Y-29613172D01*
X102825679Y-29756029D01*
X102778060Y-29946505D01*
X102730441Y-30041743D01*
X102635203Y-30136981D01*
X102492346Y-30184600D01*
X102254250Y-30184600D01*
X103159012Y-29184600D02*
X103825679Y-29184600D01*
X103397107Y-30184600D01*
%TO.C,D6*%
X111802252Y-30184600D02*
X111802252Y-29184600D01*
X112040348Y-29184600D01*
X112183205Y-29232220D01*
X112278443Y-29327458D01*
X112326062Y-29422696D01*
X112373681Y-29613172D01*
X112373681Y-29756029D01*
X112326062Y-29946505D01*
X112278443Y-30041743D01*
X112183205Y-30136981D01*
X112040348Y-30184600D01*
X111802252Y-30184600D01*
X113230824Y-29184600D02*
X113040348Y-29184600D01*
X112945109Y-29232220D01*
X112897490Y-29279839D01*
X112802252Y-29422696D01*
X112754633Y-29613172D01*
X112754633Y-29994124D01*
X112802252Y-30089362D01*
X112849871Y-30136981D01*
X112945109Y-30184600D01*
X113135586Y-30184600D01*
X113230824Y-30136981D01*
X113278443Y-30089362D01*
X113326062Y-29994124D01*
X113326062Y-29756029D01*
X113278443Y-29660791D01*
X113230824Y-29613172D01*
X113135586Y-29565553D01*
X112945109Y-29565553D01*
X112849871Y-29613172D01*
X112802252Y-29660791D01*
X112754633Y-29756029D01*
%TO.C,D5*%
X92706248Y-30184600D02*
X92706248Y-29184600D01*
X92944344Y-29184600D01*
X93087201Y-29232220D01*
X93182439Y-29327458D01*
X93230058Y-29422696D01*
X93277677Y-29613172D01*
X93277677Y-29756029D01*
X93230058Y-29946505D01*
X93182439Y-30041743D01*
X93087201Y-30136981D01*
X92944344Y-30184600D01*
X92706248Y-30184600D01*
X94182439Y-29184600D02*
X93706248Y-29184600D01*
X93658629Y-29660791D01*
X93706248Y-29613172D01*
X93801486Y-29565553D01*
X94039582Y-29565553D01*
X94134820Y-29613172D01*
X94182439Y-29660791D01*
X94230058Y-29756029D01*
X94230058Y-29994124D01*
X94182439Y-30089362D01*
X94134820Y-30136981D01*
X94039582Y-30184600D01*
X93801486Y-30184600D01*
X93706248Y-30136981D01*
X93658629Y-30089362D01*
%TO.C,D4*%
X140446264Y-30184600D02*
X140446264Y-29184600D01*
X140684360Y-29184600D01*
X140827217Y-29232220D01*
X140922455Y-29327458D01*
X140970074Y-29422696D01*
X141017693Y-29613172D01*
X141017693Y-29756029D01*
X140970074Y-29946505D01*
X140922455Y-30041743D01*
X140827217Y-30136981D01*
X140684360Y-30184600D01*
X140446264Y-30184600D01*
X141874836Y-29517934D02*
X141874836Y-30184600D01*
X141636740Y-29136981D02*
X141398645Y-29851267D01*
X142017693Y-29851267D01*
%TO.C,D3*%
X83158246Y-30184600D02*
X83158246Y-29184600D01*
X83396342Y-29184600D01*
X83539199Y-29232220D01*
X83634437Y-29327458D01*
X83682056Y-29422696D01*
X83729675Y-29613172D01*
X83729675Y-29756029D01*
X83682056Y-29946505D01*
X83634437Y-30041743D01*
X83539199Y-30136981D01*
X83396342Y-30184600D01*
X83158246Y-30184600D01*
X84063008Y-29184600D02*
X84682056Y-29184600D01*
X84348722Y-29565553D01*
X84491580Y-29565553D01*
X84586818Y-29613172D01*
X84634437Y-29660791D01*
X84682056Y-29756029D01*
X84682056Y-29994124D01*
X84634437Y-30089362D01*
X84586818Y-30136981D01*
X84491580Y-30184600D01*
X84205865Y-30184600D01*
X84110627Y-30136981D01*
X84063008Y-30089362D01*
%TO.C,D2*%
X130898256Y-30184600D02*
X130898256Y-29184600D01*
X131136352Y-29184600D01*
X131279209Y-29232220D01*
X131374447Y-29327458D01*
X131422066Y-29422696D01*
X131469685Y-29613172D01*
X131469685Y-29756029D01*
X131422066Y-29946505D01*
X131374447Y-30041743D01*
X131279209Y-30136981D01*
X131136352Y-30184600D01*
X130898256Y-30184600D01*
X131850637Y-29279839D02*
X131898256Y-29232220D01*
X131993494Y-29184600D01*
X132231590Y-29184600D01*
X132326828Y-29232220D01*
X132374447Y-29279839D01*
X132422066Y-29375077D01*
X132422066Y-29470315D01*
X132374447Y-29613172D01*
X131803018Y-30184600D01*
X132422066Y-30184600D01*
%TO.C,D1*%
X73610244Y-30184600D02*
X73610244Y-29184600D01*
X73848340Y-29184600D01*
X73991197Y-29232220D01*
X74086435Y-29327458D01*
X74134054Y-29422696D01*
X74181673Y-29613172D01*
X74181673Y-29756029D01*
X74134054Y-29946505D01*
X74086435Y-30041743D01*
X73991197Y-30136981D01*
X73848340Y-30184600D01*
X73610244Y-30184600D01*
X75134054Y-30184600D02*
X74562625Y-30184600D01*
X74848340Y-30184600D02*
X74848340Y-29184600D01*
X74753101Y-29327458D01*
X74657863Y-29422696D01*
X74562625Y-29470315D01*
%TO.C,Y1*%
X55692110Y-51630370D02*
X56168300Y-51630370D01*
X55168300Y-51963703D02*
X55692110Y-51630370D01*
X55168300Y-51297037D01*
X56168300Y-50439894D02*
X56168300Y-51011322D01*
X56168300Y-50725608D02*
X55168300Y-50725608D01*
X55311158Y-50820846D01*
X55406396Y-50916084D01*
X55454015Y-51011322D01*
%TO.C,SW1*%
X59640846Y-76586981D02*
X59783703Y-76634600D01*
X60021799Y-76634600D01*
X60117037Y-76586981D01*
X60164656Y-76539362D01*
X60212275Y-76444124D01*
X60212275Y-76348886D01*
X60164656Y-76253648D01*
X60117037Y-76206029D01*
X60021799Y-76158410D01*
X59831322Y-76110791D01*
X59736084Y-76063172D01*
X59688465Y-76015553D01*
X59640846Y-75920315D01*
X59640846Y-75825077D01*
X59688465Y-75729839D01*
X59736084Y-75682220D01*
X59831322Y-75634600D01*
X60069418Y-75634600D01*
X60212275Y-75682220D01*
X60545608Y-75634600D02*
X60783703Y-76634600D01*
X60974180Y-75920315D01*
X61164656Y-76634600D01*
X61402751Y-75634600D01*
X62307513Y-76634600D02*
X61736084Y-76634600D01*
X62021799Y-76634600D02*
X62021799Y-75634600D01*
X61926560Y-75777458D01*
X61831322Y-75872696D01*
X61736084Y-75920315D01*
%TO.C,R6*%
X61164460Y-67217586D02*
X60688270Y-67550920D01*
X61164460Y-67789015D02*
X60164460Y-67789015D01*
X60164460Y-67408062D01*
X60212080Y-67312824D01*
X60259699Y-67265205D01*
X60354937Y-67217586D01*
X60497794Y-67217586D01*
X60593032Y-67265205D01*
X60640651Y-67312824D01*
X60688270Y-67408062D01*
X60688270Y-67789015D01*
X60164460Y-66360443D02*
X60164460Y-66550920D01*
X60212080Y-66646158D01*
X60259699Y-66693777D01*
X60402556Y-66789015D01*
X60593032Y-66836634D01*
X60973984Y-66836634D01*
X61069222Y-66789015D01*
X61116841Y-66741396D01*
X61164460Y-66646158D01*
X61164460Y-66455681D01*
X61116841Y-66360443D01*
X61069222Y-66312824D01*
X60973984Y-66265205D01*
X60735889Y-66265205D01*
X60640651Y-66312824D01*
X60593032Y-66360443D01*
X60545413Y-66455681D01*
X60545413Y-66646158D01*
X60593032Y-66741396D01*
X60640651Y-66789015D01*
X60735889Y-66836634D01*
%TO.C,R5*%
X61388060Y-39669386D02*
X60911870Y-40002720D01*
X61388060Y-40240815D02*
X60388060Y-40240815D01*
X60388060Y-39859862D01*
X60435680Y-39764624D01*
X60483299Y-39717005D01*
X60578537Y-39669386D01*
X60721394Y-39669386D01*
X60816632Y-39717005D01*
X60864251Y-39764624D01*
X60911870Y-39859862D01*
X60911870Y-40240815D01*
X60388060Y-38764624D02*
X60388060Y-39240815D01*
X60864251Y-39288434D01*
X60816632Y-39240815D01*
X60769013Y-39145577D01*
X60769013Y-38907481D01*
X60816632Y-38812243D01*
X60864251Y-38764624D01*
X60959489Y-38717005D01*
X61197584Y-38717005D01*
X61292822Y-38764624D01*
X61340441Y-38812243D01*
X61388060Y-38907481D01*
X61388060Y-39145577D01*
X61340441Y-39240815D01*
X61292822Y-39288434D01*
%TO.C,R4*%
X65243700Y-36169266D02*
X64767510Y-36502600D01*
X65243700Y-36740695D02*
X64243700Y-36740695D01*
X64243700Y-36359742D01*
X64291320Y-36264504D01*
X64338939Y-36216885D01*
X64434177Y-36169266D01*
X64577034Y-36169266D01*
X64672272Y-36216885D01*
X64719891Y-36264504D01*
X64767510Y-36359742D01*
X64767510Y-36740695D01*
X64577034Y-35312123D02*
X65243700Y-35312123D01*
X64196081Y-35550219D02*
X64910367Y-35788314D01*
X64910367Y-35169266D01*
%TO.C,R3*%
X58682880Y-44690966D02*
X58206690Y-45024300D01*
X58682880Y-45262395D02*
X57682880Y-45262395D01*
X57682880Y-44881442D01*
X57730500Y-44786204D01*
X57778119Y-44738585D01*
X57873357Y-44690966D01*
X58016214Y-44690966D01*
X58111452Y-44738585D01*
X58159071Y-44786204D01*
X58206690Y-44881442D01*
X58206690Y-45262395D01*
X57682880Y-44357633D02*
X57682880Y-43738585D01*
X58063833Y-44071919D01*
X58063833Y-43929061D01*
X58111452Y-43833823D01*
X58159071Y-43786204D01*
X58254309Y-43738585D01*
X58492404Y-43738585D01*
X58587642Y-43786204D01*
X58635261Y-43833823D01*
X58682880Y-43929061D01*
X58682880Y-44214776D01*
X58635261Y-44310014D01*
X58587642Y-44357633D01*
%TO.C,R2*%
X60877440Y-44690966D02*
X60401250Y-45024300D01*
X60877440Y-45262395D02*
X59877440Y-45262395D01*
X59877440Y-44881442D01*
X59925060Y-44786204D01*
X59972679Y-44738585D01*
X60067917Y-44690966D01*
X60210774Y-44690966D01*
X60306012Y-44738585D01*
X60353631Y-44786204D01*
X60401250Y-44881442D01*
X60401250Y-45262395D01*
X59972679Y-44310014D02*
X59925060Y-44262395D01*
X59877440Y-44167157D01*
X59877440Y-43929061D01*
X59925060Y-43833823D01*
X59972679Y-43786204D01*
X60067917Y-43738585D01*
X60163155Y-43738585D01*
X60306012Y-43786204D01*
X60877440Y-44357633D01*
X60877440Y-43738585D01*
%TO.C,R1*%
X61699060Y-67245826D02*
X61222870Y-67579160D01*
X61699060Y-67817255D02*
X60699060Y-67817255D01*
X60699060Y-67436302D01*
X60746680Y-67341064D01*
X60794299Y-67293445D01*
X60889537Y-67245826D01*
X61032394Y-67245826D01*
X61127632Y-67293445D01*
X61175251Y-67341064D01*
X61222870Y-67436302D01*
X61222870Y-67817255D01*
X61699060Y-66293445D02*
X61699060Y-66864874D01*
X61699060Y-66579160D02*
X60699060Y-66579160D01*
X60841918Y-66674398D01*
X60937156Y-66769636D01*
X60984775Y-66864874D01*
%TO.C,F1*%
X52652531Y-42360173D02*
X52652531Y-42693506D01*
X53176340Y-42693506D02*
X52176340Y-42693506D01*
X52176340Y-42217316D01*
X53176340Y-41312554D02*
X53176340Y-41883982D01*
X53176340Y-41598268D02*
X52176340Y-41598268D01*
X52319198Y-41693506D01*
X52414436Y-41788744D01*
X52462055Y-41883982D01*
%TO.C,C5*%
X53122493Y-56466802D02*
X53074874Y-56514421D01*
X52932017Y-56562040D01*
X52836779Y-56562040D01*
X52693921Y-56514421D01*
X52598683Y-56419183D01*
X52551064Y-56323945D01*
X52503445Y-56133469D01*
X52503445Y-55990612D01*
X52551064Y-55800136D01*
X52598683Y-55704898D01*
X52693921Y-55609660D01*
X52836779Y-55562040D01*
X52932017Y-55562040D01*
X53074874Y-55609660D01*
X53122493Y-55657279D01*
X54027255Y-55562040D02*
X53551064Y-55562040D01*
X53503445Y-56038231D01*
X53551064Y-55990612D01*
X53646302Y-55942993D01*
X53884398Y-55942993D01*
X53979636Y-55990612D01*
X54027255Y-56038231D01*
X54074874Y-56133469D01*
X54074874Y-56371564D01*
X54027255Y-56466802D01*
X53979636Y-56514421D01*
X53884398Y-56562040D01*
X53646302Y-56562040D01*
X53551064Y-56514421D01*
X53503445Y-56466802D01*
%TO.C,C4*%
X56360542Y-44708066D02*
X56408161Y-44755685D01*
X56455780Y-44898542D01*
X56455780Y-44993780D01*
X56408161Y-45136638D01*
X56312923Y-45231876D01*
X56217685Y-45279495D01*
X56027209Y-45327114D01*
X55884352Y-45327114D01*
X55693876Y-45279495D01*
X55598638Y-45231876D01*
X55503400Y-45136638D01*
X55455780Y-44993780D01*
X55455780Y-44898542D01*
X55503400Y-44755685D01*
X55551019Y-44708066D01*
X55789114Y-43850923D02*
X56455780Y-43850923D01*
X55408161Y-44089019D02*
X56122447Y-44327114D01*
X56122447Y-43708066D01*
%TO.C,C1*%
X62964542Y-44708066D02*
X63012161Y-44755685D01*
X63059780Y-44898542D01*
X63059780Y-44993780D01*
X63012161Y-45136638D01*
X62916923Y-45231876D01*
X62821685Y-45279495D01*
X62631209Y-45327114D01*
X62488352Y-45327114D01*
X62297876Y-45279495D01*
X62202638Y-45231876D01*
X62107400Y-45136638D01*
X62059780Y-44993780D01*
X62059780Y-44898542D01*
X62107400Y-44755685D01*
X62155019Y-44708066D01*
X63059780Y-43755685D02*
X63059780Y-44327114D01*
X63059780Y-44041400D02*
X62059780Y-44041400D01*
X62202638Y-44136638D01*
X62297876Y-44231876D01*
X62345495Y-44327114D01*
%TD*%
%LPC*%
D13*
X105205145Y-76080702D02*
X105419431Y-76152131D01*
X105776574Y-76152131D01*
X105919431Y-76080702D01*
X105990860Y-76009274D01*
X106062288Y-75866417D01*
X106062288Y-75723560D01*
X105990860Y-75580702D01*
X105919431Y-75509274D01*
X105776574Y-75437845D01*
X105490860Y-75366417D01*
X105348002Y-75294988D01*
X105276574Y-75223560D01*
X105205145Y-75080702D01*
X105205145Y-74937845D01*
X105276574Y-74794988D01*
X105348002Y-74723560D01*
X105490860Y-74652131D01*
X105848002Y-74652131D01*
X106062288Y-74723560D01*
X106705145Y-76152131D02*
X106705145Y-75152131D01*
X106705145Y-74652131D02*
X106633717Y-74723560D01*
X106705145Y-74794988D01*
X106776574Y-74723560D01*
X106705145Y-74652131D01*
X106705145Y-74794988D01*
X107419431Y-76152131D02*
X107419431Y-75152131D01*
X107419431Y-75294988D02*
X107490860Y-75223560D01*
X107633717Y-75152131D01*
X107848002Y-75152131D01*
X107990860Y-75223560D01*
X108062288Y-75366417D01*
X108062288Y-76152131D01*
X108062288Y-75366417D02*
X108133717Y-75223560D01*
X108276574Y-75152131D01*
X108490860Y-75152131D01*
X108633717Y-75223560D01*
X108705145Y-75366417D01*
X108705145Y-76152131D01*
X109419431Y-75152131D02*
X109419431Y-76652131D01*
X109419431Y-75223560D02*
X109562288Y-75152131D01*
X109848002Y-75152131D01*
X109990860Y-75223560D01*
X110062288Y-75294988D01*
X110133717Y-75437845D01*
X110133717Y-75866417D01*
X110062288Y-76009274D01*
X109990860Y-76080702D01*
X109848002Y-76152131D01*
X109562288Y-76152131D01*
X109419431Y-76080702D01*
X110990860Y-76152131D02*
X110848002Y-76080702D01*
X110776574Y-75937845D01*
X110776574Y-74652131D01*
X112133717Y-76080702D02*
X111990860Y-76152131D01*
X111705145Y-76152131D01*
X111562288Y-76080702D01*
X111490860Y-75937845D01*
X111490860Y-75366417D01*
X111562288Y-75223560D01*
X111705145Y-75152131D01*
X111990860Y-75152131D01*
X112133717Y-75223560D01*
X112205145Y-75366417D01*
X112205145Y-75509274D01*
X111490860Y-75652131D01*
X113990860Y-76152131D02*
X113990860Y-74652131D01*
X114490860Y-75723560D01*
X114990860Y-74652131D01*
X114990860Y-76152131D01*
X116348002Y-76152131D02*
X116348002Y-75366417D01*
X116276574Y-75223560D01*
X116133717Y-75152131D01*
X115848002Y-75152131D01*
X115705145Y-75223560D01*
X116348002Y-76080702D02*
X116205145Y-76152131D01*
X115848002Y-76152131D01*
X115705145Y-76080702D01*
X115633717Y-75937845D01*
X115633717Y-75794988D01*
X115705145Y-75652131D01*
X115848002Y-75580702D01*
X116205145Y-75580702D01*
X116348002Y-75509274D01*
X117705145Y-76080702D02*
X117562288Y-76152131D01*
X117276574Y-76152131D01*
X117133717Y-76080702D01*
X117062288Y-76009274D01*
X116990860Y-75866417D01*
X116990860Y-75437845D01*
X117062288Y-75294988D01*
X117133717Y-75223560D01*
X117276574Y-75152131D01*
X117562288Y-75152131D01*
X117705145Y-75223560D01*
X118348002Y-76152131D02*
X118348002Y-75152131D01*
X118348002Y-75437845D02*
X118419431Y-75294988D01*
X118490860Y-75223560D01*
X118633717Y-75152131D01*
X118776574Y-75152131D01*
X119490860Y-76152131D02*
X119348002Y-76080702D01*
X119276574Y-76009274D01*
X119205145Y-75866417D01*
X119205145Y-75437845D01*
X119276574Y-75294988D01*
X119348002Y-75223560D01*
X119490860Y-75152131D01*
X119705145Y-75152131D01*
X119848002Y-75223560D01*
X119919431Y-75294988D01*
X119990860Y-75437845D01*
X119990860Y-75866417D01*
X119919431Y-76009274D01*
X119848002Y-76080702D01*
X119705145Y-76152131D01*
X119490860Y-76152131D01*
X120633717Y-75152131D02*
X120633717Y-76652131D01*
X120633717Y-75223560D02*
X120776574Y-75152131D01*
X121062288Y-75152131D01*
X121205145Y-75223560D01*
X121276574Y-75294988D01*
X121348002Y-75437845D01*
X121348002Y-75866417D01*
X121276574Y-76009274D01*
X121205145Y-76080702D01*
X121062288Y-76152131D01*
X120776574Y-76152131D01*
X120633717Y-76080702D01*
X122633717Y-76152131D02*
X122633717Y-75366417D01*
X122562288Y-75223560D01*
X122419431Y-75152131D01*
X122133717Y-75152131D01*
X121990860Y-75223560D01*
X122633717Y-76080702D02*
X122490860Y-76152131D01*
X122133717Y-76152131D01*
X121990860Y-76080702D01*
X121919431Y-75937845D01*
X121919431Y-75794988D01*
X121990860Y-75652131D01*
X122133717Y-75580702D01*
X122490860Y-75580702D01*
X122633717Y-75509274D01*
X123990860Y-76152131D02*
X123990860Y-74652131D01*
X123990860Y-76080702D02*
X123848002Y-76152131D01*
X123562288Y-76152131D01*
X123419431Y-76080702D01*
X123348002Y-76009274D01*
X123276574Y-75866417D01*
X123276574Y-75437845D01*
X123348002Y-75294988D01*
X123419431Y-75223560D01*
X123562288Y-75152131D01*
X123848002Y-75152131D01*
X123990860Y-75223560D01*
X125633717Y-74652131D02*
X126133717Y-76152131D01*
X126633717Y-74652131D01*
X127133717Y-76009274D02*
X127205145Y-76080702D01*
X127133717Y-76152131D01*
X127062288Y-76080702D01*
X127133717Y-76009274D01*
X127133717Y-76152131D01*
X127705145Y-74652131D02*
X128633717Y-74652131D01*
X128133717Y-75223560D01*
X128348002Y-75223560D01*
X128490860Y-75294988D01*
X128562288Y-75366417D01*
X128633717Y-75509274D01*
X128633717Y-75866417D01*
X128562288Y-76009274D01*
X128490860Y-76080702D01*
X128348002Y-76152131D01*
X127919431Y-76152131D01*
X127776574Y-76080702D01*
X127705145Y-76009274D01*
X129276574Y-76009274D02*
X129348002Y-76080702D01*
X129276574Y-76152131D01*
X129205145Y-76080702D01*
X129276574Y-76009274D01*
X129276574Y-76152131D01*
X130776574Y-76152131D02*
X129919431Y-76152131D01*
X130348002Y-76152131D02*
X130348002Y-74652131D01*
X130205145Y-74866417D01*
X130062288Y-75009274D01*
X129919431Y-75080702D01*
X132562288Y-76152131D02*
X132562288Y-74652131D01*
X132562288Y-75223560D02*
X132705145Y-75152131D01*
X132990860Y-75152131D01*
X133133717Y-75223560D01*
X133205145Y-75294988D01*
X133276574Y-75437845D01*
X133276574Y-75866417D01*
X133205145Y-76009274D01*
X133133717Y-76080702D01*
X132990860Y-76152131D01*
X132705145Y-76152131D01*
X132562288Y-76080702D01*
X133776574Y-75152131D02*
X134133717Y-76152131D01*
X134490860Y-75152131D02*
X134133717Y-76152131D01*
X133990860Y-76509274D01*
X133919431Y-76580702D01*
X133776574Y-76652131D01*
X136419431Y-75294988D02*
X136276574Y-75223560D01*
X136205145Y-75152131D01*
X136133717Y-75009274D01*
X136133717Y-74937845D01*
X136205145Y-74794988D01*
X136276574Y-74723560D01*
X136419431Y-74652131D01*
X136705145Y-74652131D01*
X136848002Y-74723560D01*
X136919431Y-74794988D01*
X136990860Y-74937845D01*
X136990860Y-75009274D01*
X136919431Y-75152131D01*
X136848002Y-75223560D01*
X136705145Y-75294988D01*
X136419431Y-75294988D01*
X136276574Y-75366417D01*
X136205145Y-75437845D01*
X136133717Y-75580702D01*
X136133717Y-75866417D01*
X136205145Y-76009274D01*
X136276574Y-76080702D01*
X136419431Y-76152131D01*
X136705145Y-76152131D01*
X136848002Y-76080702D01*
X136919431Y-76009274D01*
X136990860Y-75866417D01*
X136990860Y-75580702D01*
X136919431Y-75437845D01*
X136848002Y-75366417D01*
X136705145Y-75294988D01*
X137276574Y-76294988D02*
X138419431Y-76294988D01*
X138776574Y-76152131D02*
X138776574Y-74652131D01*
X139419431Y-76152131D02*
X139419431Y-75366417D01*
X139348002Y-75223560D01*
X139205145Y-75152131D01*
X138990860Y-75152131D01*
X138848002Y-75223560D01*
X138776574Y-75294988D01*
X140776574Y-76152131D02*
X140776574Y-75366417D01*
X140705145Y-75223560D01*
X140562288Y-75152131D01*
X140276574Y-75152131D01*
X140133717Y-75223560D01*
X140776574Y-76080702D02*
X140633717Y-76152131D01*
X140276574Y-76152131D01*
X140133717Y-76080702D01*
X140062288Y-75937845D01*
X140062288Y-75794988D01*
X140133717Y-75652131D01*
X140276574Y-75580702D01*
X140633717Y-75580702D01*
X140776574Y-75509274D01*
X141490860Y-75152131D02*
X141490860Y-76152131D01*
X141490860Y-75294988D02*
X141562288Y-75223560D01*
X141705145Y-75152131D01*
X141919431Y-75152131D01*
X142062288Y-75223560D01*
X142133717Y-75366417D01*
X142133717Y-76152131D01*
X143490860Y-76152131D02*
X143490860Y-74652131D01*
X143490860Y-76080702D02*
X143348002Y-76152131D01*
X143062288Y-76152131D01*
X142919431Y-76080702D01*
X142848002Y-76009274D01*
X142776574Y-75866417D01*
X142776574Y-75437845D01*
X142848002Y-75294988D01*
X142919431Y-75223560D01*
X143062288Y-75152131D01*
X143348002Y-75152131D01*
X143490860Y-75223560D01*
X144133717Y-76080702D02*
X144276574Y-76152131D01*
X144562288Y-76152131D01*
X144705145Y-76080702D01*
X144776574Y-75937845D01*
X144776574Y-75866417D01*
X144705145Y-75723560D01*
X144562288Y-75652131D01*
X144348002Y-75652131D01*
X144205145Y-75580702D01*
X144133717Y-75437845D01*
X144133717Y-75366417D01*
X144205145Y-75223560D01*
X144348002Y-75152131D01*
X144562288Y-75152131D01*
X144705145Y-75223560D01*
D14*
X155778200Y-83677760D02*
X155778200Y-25488900D01*
X41641840Y-25488900D02*
X155778200Y-25488900D01*
X41640760Y-83677760D02*
X155778200Y-83677760D01*
X41640760Y-83677760D02*
X41641840Y-25488900D01*
D15*
%TO.C,USB1*%
X57749180Y-33462560D03*
X64199180Y-33462560D03*
X58524180Y-33462560D03*
X63424180Y-33462560D03*
D16*
X62724180Y-33462560D03*
X59224180Y-33462560D03*
X62224180Y-33462560D03*
X59724180Y-33462560D03*
X61724180Y-33462560D03*
X60224180Y-33462560D03*
X60724180Y-33462560D03*
X61224180Y-33462560D03*
D17*
X58084180Y-32017560D03*
X63864180Y-32017560D03*
D18*
X65294180Y-32547560D03*
X56654180Y-32547560D03*
D19*
X65294180Y-28367560D03*
X56654180Y-28367560D03*
%TD*%
%TO.C,R8*%
G36*
G01*
X55214941Y-35810880D02*
X54314939Y-35810880D01*
G75*
G02*
X54064940Y-35560881I0J249999D01*
G01*
X54064940Y-35035879D01*
G75*
G02*
X54314939Y-34785880I249999J0D01*
G01*
X55214941Y-34785880D01*
G75*
G02*
X55464940Y-35035879I0J-249999D01*
G01*
X55464940Y-35560881D01*
G75*
G02*
X55214941Y-35810880I-249999J0D01*
G01*
G37*
G36*
G01*
X55214941Y-37635880D02*
X54314939Y-37635880D01*
G75*
G02*
X54064940Y-37385881I0J249999D01*
G01*
X54064940Y-36860879D01*
G75*
G02*
X54314939Y-36610880I249999J0D01*
G01*
X55214941Y-36610880D01*
G75*
G02*
X55464940Y-36860879I0J-249999D01*
G01*
X55464940Y-37385881D01*
G75*
G02*
X55214941Y-37635880I-249999J0D01*
G01*
G37*
%TD*%
%TO.C,R7*%
G36*
G01*
X58120701Y-39102720D02*
X57220699Y-39102720D01*
G75*
G02*
X56970700Y-38852721I0J249999D01*
G01*
X56970700Y-38327719D01*
G75*
G02*
X57220699Y-38077720I249999J0D01*
G01*
X58120701Y-38077720D01*
G75*
G02*
X58370700Y-38327719I0J-249999D01*
G01*
X58370700Y-38852721D01*
G75*
G02*
X58120701Y-39102720I-249999J0D01*
G01*
G37*
G36*
G01*
X58120701Y-40927720D02*
X57220699Y-40927720D01*
G75*
G02*
X56970700Y-40677721I0J249999D01*
G01*
X56970700Y-40152719D01*
G75*
G02*
X57220699Y-39902720I249999J0D01*
G01*
X58120701Y-39902720D01*
G75*
G02*
X58370700Y-40152719I0J-249999D01*
G01*
X58370700Y-40677721D01*
G75*
G02*
X58120701Y-40927720I-249999J0D01*
G01*
G37*
%TD*%
D20*
%TO.C,D9*%
X59874180Y-40452720D03*
X59874180Y-38552720D03*
X62074180Y-38552720D03*
D21*
X62074180Y-40272720D03*
%TD*%
%TO.C,C2*%
G36*
G01*
X52986480Y-46593740D02*
X52986480Y-47543740D01*
G75*
G02*
X52736480Y-47793740I-250000J0D01*
G01*
X52236480Y-47793740D01*
G75*
G02*
X51986480Y-47543740I0J250000D01*
G01*
X51986480Y-46593740D01*
G75*
G02*
X52236480Y-46343740I250000J0D01*
G01*
X52736480Y-46343740D01*
G75*
G02*
X52986480Y-46593740I0J-250000D01*
G01*
G37*
G36*
G01*
X54886480Y-46593740D02*
X54886480Y-47543740D01*
G75*
G02*
X54636480Y-47793740I-250000J0D01*
G01*
X54136480Y-47793740D01*
G75*
G02*
X53886480Y-47543740I0J250000D01*
G01*
X53886480Y-46593740D01*
G75*
G02*
X54136480Y-46343740I250000J0D01*
G01*
X54636480Y-46343740D01*
G75*
G02*
X54886480Y-46593740I0J-250000D01*
G01*
G37*
%TD*%
D22*
%TO.C,U1*%
X58174180Y-48505800D03*
X58974180Y-48505800D03*
X59774180Y-48505800D03*
X60574180Y-48505800D03*
X61374180Y-48505800D03*
X62174180Y-48505800D03*
X62974180Y-48505800D03*
X63774180Y-48505800D03*
D23*
X65224180Y-49955800D03*
X65224180Y-50755800D03*
X65224180Y-51555800D03*
X65224180Y-52355800D03*
X65224180Y-53155800D03*
X65224180Y-53955800D03*
X65224180Y-54755800D03*
X65224180Y-55555800D03*
D22*
X63774180Y-57005800D03*
X62974180Y-57005800D03*
X62174180Y-57005800D03*
X61374180Y-57005800D03*
X60574180Y-57005800D03*
X59774180Y-57005800D03*
X58974180Y-57005800D03*
X58174180Y-57005800D03*
D23*
X56724180Y-55555800D03*
X56724180Y-54755800D03*
X56724180Y-53955800D03*
X56724180Y-53155800D03*
X56724180Y-52355800D03*
X56724180Y-51555800D03*
X56724180Y-50755800D03*
X56724180Y-49955800D03*
%TD*%
D24*
%TO.C,D8*%
X123738350Y-31732220D03*
X120438350Y-31732220D03*
%TD*%
%TO.C,D7*%
X104642346Y-31732220D03*
X101342346Y-31732220D03*
%TD*%
%TO.C,D6*%
X114190348Y-31732220D03*
X110890348Y-31732220D03*
%TD*%
%TO.C,D5*%
X95094344Y-31732220D03*
X91794344Y-31732220D03*
%TD*%
%TO.C,D4*%
X142834360Y-31732220D03*
X139534360Y-31732220D03*
%TD*%
%TO.C,D3*%
X85546342Y-31732220D03*
X82246342Y-31732220D03*
%TD*%
%TO.C,D2*%
X133286352Y-31732220D03*
X129986352Y-31732220D03*
%TD*%
%TO.C,D1*%
X75998340Y-31732220D03*
X72698340Y-31732220D03*
%TD*%
D25*
%TO.C,MX8*%
X141265900Y-64136300D03*
X131105900Y-64136300D03*
D26*
X136185900Y-64136300D03*
%TD*%
D27*
%TO.C,H4*%
X46528800Y-78790800D03*
%TD*%
%TO.C,H3*%
X46528800Y-30378400D03*
%TD*%
%TO.C,H2*%
X150901400Y-78790800D03*
%TD*%
%TO.C,H1*%
X150901400Y-30378400D03*
%TD*%
D28*
%TO.C,Y1*%
X53715920Y-52354180D03*
X53715920Y-51154180D03*
X53715920Y-49954180D03*
%TD*%
D29*
%TO.C,SW1*%
X64074180Y-73968220D03*
X57874180Y-70268220D03*
X64074180Y-70268220D03*
X57874180Y-73968220D03*
%TD*%
%TO.C,R6*%
G36*
G01*
X62812082Y-66650920D02*
X61912078Y-66650920D01*
G75*
G02*
X61662080Y-66400922I0J249998D01*
G01*
X61662080Y-65875918D01*
G75*
G02*
X61912078Y-65625920I249998J0D01*
G01*
X62812082Y-65625920D01*
G75*
G02*
X63062080Y-65875918I0J-249998D01*
G01*
X63062080Y-66400922D01*
G75*
G02*
X62812082Y-66650920I-249998J0D01*
G01*
G37*
G36*
G01*
X62812082Y-68475920D02*
X61912078Y-68475920D01*
G75*
G02*
X61662080Y-68225922I0J249998D01*
G01*
X61662080Y-67700918D01*
G75*
G02*
X61912078Y-67450920I249998J0D01*
G01*
X62812082Y-67450920D01*
G75*
G02*
X63062080Y-67700918I0J-249998D01*
G01*
X63062080Y-68225922D01*
G75*
G02*
X62812082Y-68475920I-249998J0D01*
G01*
G37*
%TD*%
%TO.C,R5*%
G36*
G01*
X64785662Y-39102720D02*
X63885658Y-39102720D01*
G75*
G02*
X63635660Y-38852722I0J249998D01*
G01*
X63635660Y-38327718D01*
G75*
G02*
X63885658Y-38077720I249998J0D01*
G01*
X64785662Y-38077720D01*
G75*
G02*
X65035660Y-38327718I0J-249998D01*
G01*
X65035660Y-38852722D01*
G75*
G02*
X64785662Y-39102720I-249998J0D01*
G01*
G37*
G36*
G01*
X64785662Y-40927720D02*
X63885658Y-40927720D01*
G75*
G02*
X63635660Y-40677722I0J249998D01*
G01*
X63635660Y-40152718D01*
G75*
G02*
X63885658Y-39902720I249998J0D01*
G01*
X64785662Y-39902720D01*
G75*
G02*
X65035660Y-40152718I0J-249998D01*
G01*
X65035660Y-40677722D01*
G75*
G02*
X64785662Y-40927720I-249998J0D01*
G01*
G37*
%TD*%
%TO.C,R4*%
G36*
G01*
X66891322Y-35602600D02*
X65991318Y-35602600D01*
G75*
G02*
X65741320Y-35352602I0J249998D01*
G01*
X65741320Y-34827598D01*
G75*
G02*
X65991318Y-34577600I249998J0D01*
G01*
X66891322Y-34577600D01*
G75*
G02*
X67141320Y-34827598I0J-249998D01*
G01*
X67141320Y-35352602D01*
G75*
G02*
X66891322Y-35602600I-249998J0D01*
G01*
G37*
G36*
G01*
X66891322Y-37427600D02*
X65991318Y-37427600D01*
G75*
G02*
X65741320Y-37177602I0J249998D01*
G01*
X65741320Y-36652598D01*
G75*
G02*
X65991318Y-36402600I249998J0D01*
G01*
X66891322Y-36402600D01*
G75*
G02*
X67141320Y-36652598I0J-249998D01*
G01*
X67141320Y-37177602D01*
G75*
G02*
X66891322Y-37427600I-249998J0D01*
G01*
G37*
%TD*%
%TO.C,R3*%
G36*
G01*
X60330502Y-44124300D02*
X59430498Y-44124300D01*
G75*
G02*
X59180500Y-43874302I0J249998D01*
G01*
X59180500Y-43349298D01*
G75*
G02*
X59430498Y-43099300I249998J0D01*
G01*
X60330502Y-43099300D01*
G75*
G02*
X60580500Y-43349298I0J-249998D01*
G01*
X60580500Y-43874302D01*
G75*
G02*
X60330502Y-44124300I-249998J0D01*
G01*
G37*
G36*
G01*
X60330502Y-45949300D02*
X59430498Y-45949300D01*
G75*
G02*
X59180500Y-45699302I0J249998D01*
G01*
X59180500Y-45174298D01*
G75*
G02*
X59430498Y-44924300I249998J0D01*
G01*
X60330502Y-44924300D01*
G75*
G02*
X60580500Y-45174298I0J-249998D01*
G01*
X60580500Y-45699302D01*
G75*
G02*
X60330502Y-45949300I-249998J0D01*
G01*
G37*
%TD*%
%TO.C,R2*%
G36*
G01*
X62525062Y-44124300D02*
X61625058Y-44124300D01*
G75*
G02*
X61375060Y-43874302I0J249998D01*
G01*
X61375060Y-43349298D01*
G75*
G02*
X61625058Y-43099300I249998J0D01*
G01*
X62525062Y-43099300D01*
G75*
G02*
X62775060Y-43349298I0J-249998D01*
G01*
X62775060Y-43874302D01*
G75*
G02*
X62525062Y-44124300I-249998J0D01*
G01*
G37*
G36*
G01*
X62525062Y-45949300D02*
X61625058Y-45949300D01*
G75*
G02*
X61375060Y-45699302I0J249998D01*
G01*
X61375060Y-45174298D01*
G75*
G02*
X61625058Y-44924300I249998J0D01*
G01*
X62525062Y-44924300D01*
G75*
G02*
X62775060Y-45174298I0J-249998D01*
G01*
X62775060Y-45699302D01*
G75*
G02*
X62525062Y-45949300I-249998J0D01*
G01*
G37*
%TD*%
%TO.C,R1*%
G36*
G01*
X59146678Y-67479160D02*
X60046682Y-67479160D01*
G75*
G02*
X60296680Y-67729158I0J-249998D01*
G01*
X60296680Y-68254162D01*
G75*
G02*
X60046682Y-68504160I-249998J0D01*
G01*
X59146678Y-68504160D01*
G75*
G02*
X58896680Y-68254162I0J249998D01*
G01*
X58896680Y-67729158D01*
G75*
G02*
X59146678Y-67479160I249998J0D01*
G01*
G37*
G36*
G01*
X59146678Y-65654160D02*
X60046682Y-65654160D01*
G75*
G02*
X60296680Y-65904158I0J-249998D01*
G01*
X60296680Y-66429162D01*
G75*
G02*
X60046682Y-66679160I-249998J0D01*
G01*
X59146678Y-66679160D01*
G75*
G02*
X58896680Y-66429162I0J249998D01*
G01*
X58896680Y-65904158D01*
G75*
G02*
X59146678Y-65654160I249998J0D01*
G01*
G37*
%TD*%
%TO.C,F1*%
G36*
G01*
X55168960Y-41251840D02*
X53918960Y-41251840D01*
G75*
G02*
X53668960Y-41001840I0J250000D01*
G01*
X53668960Y-40251840D01*
G75*
G02*
X53918960Y-40001840I250000J0D01*
G01*
X55168960Y-40001840D01*
G75*
G02*
X55418960Y-40251840I0J-250000D01*
G01*
X55418960Y-41001840D01*
G75*
G02*
X55168960Y-41251840I-250000J0D01*
G01*
G37*
G36*
G01*
X55168960Y-44051840D02*
X53918960Y-44051840D01*
G75*
G02*
X53668960Y-43801840I0J250000D01*
G01*
X53668960Y-43051840D01*
G75*
G02*
X53918960Y-42801840I250000J0D01*
G01*
X55168960Y-42801840D01*
G75*
G02*
X55418960Y-43051840I0J-250000D01*
G01*
X55418960Y-43801840D01*
G75*
G02*
X55168960Y-44051840I-250000J0D01*
G01*
G37*
%TD*%
%TO.C,C5*%
G36*
G01*
X52839160Y-53954660D02*
X52839160Y-54904660D01*
G75*
G02*
X52589160Y-55154660I-250000J0D01*
G01*
X52089160Y-55154660D01*
G75*
G02*
X51839160Y-54904660I0J250000D01*
G01*
X51839160Y-53954660D01*
G75*
G02*
X52089160Y-53704660I250000J0D01*
G01*
X52589160Y-53704660D01*
G75*
G02*
X52839160Y-53954660I0J-250000D01*
G01*
G37*
G36*
G01*
X54739160Y-53954660D02*
X54739160Y-54904660D01*
G75*
G02*
X54489160Y-55154660I-250000J0D01*
G01*
X53989160Y-55154660D01*
G75*
G02*
X53739160Y-54904660I0J250000D01*
G01*
X53739160Y-53954660D01*
G75*
G02*
X53989160Y-53704660I250000J0D01*
G01*
X54489160Y-53704660D01*
G75*
G02*
X54739160Y-53954660I0J-250000D01*
G01*
G37*
%TD*%
%TO.C,C4*%
G36*
G01*
X58158400Y-44091400D02*
X57208400Y-44091400D01*
G75*
G02*
X56958400Y-43841400I0J250000D01*
G01*
X56958400Y-43341400D01*
G75*
G02*
X57208400Y-43091400I250000J0D01*
G01*
X58158400Y-43091400D01*
G75*
G02*
X58408400Y-43341400I0J-250000D01*
G01*
X58408400Y-43841400D01*
G75*
G02*
X58158400Y-44091400I-250000J0D01*
G01*
G37*
G36*
G01*
X58158400Y-45991400D02*
X57208400Y-45991400D01*
G75*
G02*
X56958400Y-45741400I0J250000D01*
G01*
X56958400Y-45241400D01*
G75*
G02*
X57208400Y-44991400I250000J0D01*
G01*
X58158400Y-44991400D01*
G75*
G02*
X58408400Y-45241400I0J-250000D01*
G01*
X58408400Y-45741400D01*
G75*
G02*
X58158400Y-45991400I-250000J0D01*
G01*
G37*
%TD*%
%TO.C,C1*%
G36*
G01*
X64762400Y-44091400D02*
X63812400Y-44091400D01*
G75*
G02*
X63562400Y-43841400I0J250000D01*
G01*
X63562400Y-43341400D01*
G75*
G02*
X63812400Y-43091400I250000J0D01*
G01*
X64762400Y-43091400D01*
G75*
G02*
X65012400Y-43341400I0J-250000D01*
G01*
X65012400Y-43841400D01*
G75*
G02*
X64762400Y-44091400I-250000J0D01*
G01*
G37*
G36*
G01*
X64762400Y-45991400D02*
X63812400Y-45991400D01*
G75*
G02*
X63562400Y-45741400I0J250000D01*
G01*
X63562400Y-45241400D01*
G75*
G02*
X63812400Y-44991400I250000J0D01*
G01*
X64762400Y-44991400D01*
G75*
G02*
X65012400Y-45241400I0J-250000D01*
G01*
X65012400Y-45741400D01*
G75*
G02*
X64762400Y-45991400I-250000J0D01*
G01*
G37*
%TD*%
D25*
%TO.C,MX7*%
X122215900Y-64136300D03*
X112055900Y-64136300D03*
D26*
X117135900Y-64136300D03*
%TD*%
D25*
%TO.C,MX6*%
X103165900Y-64136300D03*
X93005900Y-64136300D03*
D26*
X98085900Y-64136300D03*
%TD*%
D25*
%TO.C,MX5*%
X84115900Y-64136300D03*
X73955900Y-64136300D03*
D26*
X79035900Y-64136300D03*
%TD*%
D25*
%TO.C,MX4*%
X141265900Y-45086300D03*
X131105900Y-45086300D03*
D26*
X136185900Y-45086300D03*
%TD*%
D25*
%TO.C,MX3*%
X122215900Y-45086300D03*
X112055900Y-45086300D03*
D26*
X117135900Y-45086300D03*
%TD*%
D25*
%TO.C,MX2*%
X103165900Y-45086300D03*
X93005900Y-45086300D03*
D26*
X98085900Y-45086300D03*
%TD*%
D25*
%TO.C,MX1*%
X84115900Y-45086300D03*
X73955900Y-45086300D03*
D26*
X79035900Y-45086300D03*
%TD*%
M02*
