M48
; DRILL file {KiCad (5.1.10-1-10_14)} date Sunday, August 29, 2021 at 11:03:26 PM
; FORMAT={-:-/ absolute / metric / decimal}
; #@! TF.CreationDate,2021-08-29T23:03:26+08:00
; #@! TF.GenerationSoftware,Kicad,Pcbnew,(5.1.10-1-10_14)
; #@! TF.FileFunction,Plated,1,2,PTH
FMAT,2
METRIC
T1C0.400
T2C0.600
T3C1.470
T4C3.200
%
G90
G05
T1
X54.536Y-50.246
X57.015Y-38.852
X57.831Y-71.577
X58.55Y-40.003
X59.355Y-38.852
X59.95Y-40.816
X61.89Y-50.266
X61.951Y-40.816
X62.575Y-38.852
X63.45Y-40.003
X64.437Y-38.852
X64.887Y-45.598
X67.381Y-51.222
X67.394Y-53.454
X67.394Y-55.856
X67.394Y-57.439
X68.613Y-51.979
X68.643Y-56.656
X68.643Y-58.257
X70.724Y-29.764
X79.985Y-33.965
X89.794Y-29.764
X99.035Y-33.965
X108.864Y-29.764
X118.086Y-33.965
X127.935Y-29.761
X137.137Y-33.965
T3
X75.226Y-42.546
X75.226Y-61.596
X81.576Y-40.006
X81.576Y-59.056
X94.276Y-42.546
X94.276Y-61.596
X100.626Y-40.006
X100.626Y-59.056
X113.326Y-42.546
X113.326Y-61.596
X119.676Y-40.006
X119.676Y-59.056
X132.376Y-42.546
X132.376Y-61.596
X138.726Y-40.006
X138.726Y-59.056
T4
X46.529Y-30.378
X46.529Y-78.791
X150.901Y-30.378
X150.901Y-78.791
T2
G00X56.654Y-28.668
M15
G01X56.654Y-28.068
M16
G05
G00X56.654Y-33.098
M15
G01X56.654Y-31.998
M16
G05
G00X65.294Y-28.668
M15
G01X65.294Y-28.068
M16
G05
G00X65.294Y-33.098
M15
G01X65.294Y-31.998
M16
G05
T0
M30
