M48
; DRILL file {KiCad (5.1.10-1-10_14)} date Monday, September 20, 2021 at 03:56:23 PM
; FORMAT={-:-/ absolute / metric / decimal}
; #@! TF.CreationDate,2021-09-20T15:56:23+08:00
; #@! TF.GenerationSoftware,Kicad,Pcbnew,(5.1.10-1-10_14)
; #@! TF.FileFunction,Plated,1,2,PTH
FMAT,2
METRIC
T1C0.800
T2C1.092
T3C1.470
T4C3.200
%
G90
G05
T1
X116.351Y-111.204
X116.623Y-105.285
X116.623Y-124.321
X119.943Y-114.796
X120.216Y-101.693
X120.216Y-120.729
X122.805Y-111.204
X122.973Y-105.285
X122.973Y-124.321
X126.397Y-114.796
X126.566Y-101.693
X126.566Y-120.729
X129.135Y-111.204
X129.323Y-105.285
X129.323Y-124.321
X132.727Y-114.796
X132.916Y-101.693
X132.916Y-120.729
T2
X116.815Y-67.818
X116.815Y-72.898
X116.815Y-77.978
X116.815Y-83.058
X116.815Y-88.138
X116.815Y-93.218
X117.272Y-70.358
X117.272Y-75.438
X117.272Y-80.518
X117.272Y-85.598
X117.272Y-90.678
X117.272Y-95.758
X119.583Y-95.987
X122.123Y-95.529
X124.663Y-95.987
X127.203Y-95.529
X129.743Y-95.987
X132.055Y-70.358
X132.055Y-75.438
X132.055Y-80.518
X132.055Y-85.598
X132.055Y-90.678
X132.055Y-95.758
X132.512Y-67.818
X132.512Y-72.898
X132.512Y-77.978
X132.512Y-83.058
X132.512Y-88.138
X132.512Y-93.218
T3
X141.465Y-75.717
X141.465Y-94.767
X141.465Y-113.817
X147.815Y-73.177
X147.815Y-92.227
X147.815Y-111.277
X160.515Y-75.717
X160.515Y-94.767
X160.515Y-113.817
X166.865Y-73.177
X166.865Y-92.227
X166.865Y-111.277
X179.565Y-75.717
X179.565Y-94.767
X179.565Y-113.817
X185.915Y-73.177
X185.915Y-92.227
X185.915Y-111.277
T4
X110.795Y-66.04
X110.795Y-128.575
X197.713Y-128.549
X197.76Y-66.04
T0
M30
