G04 #@! TF.GenerationSoftware,KiCad,Pcbnew,(5.1.10-1-10_14)*
G04 #@! TF.CreationDate,2021-09-20T15:56:21+08:00*
G04 #@! TF.ProjectId,SMP v.2,534d5020-762e-4322-9e6b-696361645f70,rev?*
G04 #@! TF.SameCoordinates,Original*
G04 #@! TF.FileFunction,Legend,Bot*
G04 #@! TF.FilePolarity,Positive*
%FSLAX46Y46*%
G04 Gerber Fmt 4.6, Leading zero omitted, Abs format (unit mm)*
G04 Created by KiCad (PCBNEW (5.1.10-1-10_14)) date 2021-09-20 15:56:21*
%MOMM*%
%LPD*%
G01*
G04 APERTURE LIST*
%ADD10C,0.200000*%
%ADD11C,0.100000*%
%ADD12C,0.381000*%
%ADD13C,0.150000*%
%ADD14C,0.120000*%
%ADD15C,1.000000*%
%ADD16C,2.250000*%
%ADD17C,3.987800*%
%ADD18C,1.750000*%
%ADD19C,1.752600*%
%ADD20R,1.752600X1.752600*%
%ADD21C,6.400000*%
G04 APERTURE END LIST*
D10*
X165236285Y-125129857D02*
X165236285Y-124329857D01*
X165236285Y-124558428D02*
X165179142Y-124444142D01*
X165122000Y-124387000D01*
X165007714Y-124329857D01*
X164893428Y-124329857D01*
X164036285Y-125072714D02*
X164150571Y-125129857D01*
X164379142Y-125129857D01*
X164493428Y-125072714D01*
X164550571Y-124958428D01*
X164550571Y-124501285D01*
X164493428Y-124387000D01*
X164379142Y-124329857D01*
X164150571Y-124329857D01*
X164036285Y-124387000D01*
X163979142Y-124501285D01*
X163979142Y-124615571D01*
X164550571Y-124729857D01*
X163579142Y-124329857D02*
X163293428Y-125129857D01*
X163007714Y-124329857D01*
X162550571Y-125015571D02*
X162493428Y-125072714D01*
X162550571Y-125129857D01*
X162607714Y-125072714D01*
X162550571Y-125015571D01*
X162550571Y-125129857D01*
X161464857Y-124329857D02*
X161464857Y-125129857D01*
X161750571Y-123872714D02*
X162036285Y-124729857D01*
X161293428Y-124729857D01*
D11*
G36*
X189987238Y-121361729D02*
G01*
X189987238Y-122156537D01*
X188234638Y-122156537D01*
X187952063Y-122023187D01*
X187482163Y-122023187D01*
X187482163Y-123032837D01*
X187463113Y-123032837D01*
X187393263Y-122902662D01*
X187293250Y-122796300D01*
X187156725Y-122723275D01*
X186980513Y-122696287D01*
X186764613Y-122735975D01*
X186596338Y-122855037D01*
X186486800Y-123048712D01*
X186457034Y-123171744D01*
X186447113Y-123312237D01*
X186447113Y-124372688D01*
X186917013Y-124372688D01*
X186917013Y-123375738D01*
X186947704Y-123199349D01*
X187039779Y-123093515D01*
X187193238Y-123058237D01*
X187299600Y-123072525D01*
X187393263Y-123116975D01*
X187458350Y-123191587D01*
X187482163Y-123296362D01*
X187482163Y-124372688D01*
X187952063Y-124372688D01*
X187952063Y-122023187D01*
X188234638Y-122156537D01*
X188234638Y-122547062D01*
X188872813Y-122547062D01*
X188872813Y-124372688D01*
X189349063Y-124372688D01*
X189349063Y-122547062D01*
X189987238Y-122547062D01*
X189987238Y-122156537D01*
X189987238Y-121361729D01*
X190648696Y-121361729D01*
X191821858Y-125272271D01*
X185256488Y-124410788D01*
X185509429Y-124385388D01*
X185717921Y-124309188D01*
X185881963Y-124182188D01*
X186000143Y-124011443D01*
X186071051Y-123804010D01*
X186094688Y-123559888D01*
X186080797Y-123369784D01*
X186039125Y-123199525D01*
X185971656Y-123051094D01*
X185880375Y-122926475D01*
X185766075Y-122827256D01*
X185629550Y-122755025D01*
X185472784Y-122710972D01*
X185297763Y-122696287D01*
X185123138Y-122710972D01*
X184967563Y-122755025D01*
X184832625Y-122826066D01*
X184719913Y-122921712D01*
X184629822Y-123041172D01*
X184562750Y-123183650D01*
X184521078Y-123346766D01*
X184507188Y-123528138D01*
X184507188Y-123667838D01*
X185627963Y-123667838D01*
X185627963Y-123696413D01*
X185603356Y-123839684D01*
X185529538Y-123952000D01*
X185408094Y-124024628D01*
X185240613Y-124048838D01*
X185104881Y-124034947D01*
X184989788Y-123993275D01*
X184808813Y-123845638D01*
X184554813Y-124121863D01*
X184669113Y-124231400D01*
X184821513Y-124325063D01*
X185015981Y-124389356D01*
X185256488Y-124410788D01*
X191821858Y-125272271D01*
X190648696Y-125272271D01*
X178992213Y-124372688D01*
X179227163Y-124298075D01*
X179331938Y-124083763D01*
X179347813Y-124083763D01*
X179414091Y-124225844D01*
X179524025Y-124328238D01*
X179670472Y-124390150D01*
X179846288Y-124410788D01*
X180060997Y-124378641D01*
X180228875Y-124282200D01*
X180337222Y-124127816D01*
X180373338Y-123921838D01*
X180326506Y-123698000D01*
X180186013Y-123540838D01*
X180041726Y-123472046D01*
X179858635Y-123430771D01*
X179636738Y-123417013D01*
X179373213Y-123417013D01*
X179373213Y-123334463D01*
X179441475Y-123113800D01*
X179671663Y-123039187D01*
X179912963Y-123096337D01*
X180071713Y-123245562D01*
X180328888Y-123016962D01*
X180222922Y-122889566D01*
X180070125Y-122786775D01*
X179868909Y-122718909D01*
X179617688Y-122696287D01*
X179409725Y-122713397D01*
X179234571Y-122764726D01*
X179092225Y-122850275D01*
X178987274Y-122970396D01*
X178924303Y-123125442D01*
X178903313Y-123315412D01*
X178903313Y-124032963D01*
X178722338Y-124032963D01*
X178722338Y-124372688D01*
X178992213Y-124372688D01*
X190648696Y-125272271D01*
X189987238Y-125272271D01*
X177614262Y-124410788D01*
X177798016Y-124396103D01*
X177961925Y-124352050D01*
X178104006Y-124280216D01*
X178222275Y-124182188D01*
X178316334Y-124059156D01*
X178385787Y-123912313D01*
X178428650Y-123743244D01*
X178442937Y-123553538D01*
X178428650Y-123363831D01*
X178385787Y-123194762D01*
X178316334Y-123047919D01*
X178222275Y-122924887D01*
X178104006Y-122826859D01*
X177961925Y-122755025D01*
X177798809Y-122710972D01*
X177617437Y-122696287D01*
X177374153Y-122723672D01*
X177184050Y-122805825D01*
X177039984Y-122933222D01*
X176934812Y-123096337D01*
X177296762Y-123293187D01*
X177412650Y-123134437D01*
X177617437Y-123070937D01*
X177760709Y-123094353D01*
X177866675Y-123164600D01*
X177932159Y-123275328D01*
X177953987Y-123420188D01*
X177953987Y-123686888D01*
X177932159Y-123831747D01*
X177866675Y-123942475D01*
X177759122Y-124012722D01*
X177611087Y-124036138D01*
X177396775Y-123972638D01*
X177265012Y-123807538D01*
X176909412Y-124010738D01*
X176493487Y-124007563D01*
X176115662Y-124007563D01*
X176115662Y-123099512D01*
X176493487Y-123099512D01*
X176493487Y-122734387D01*
X175645762Y-122734387D01*
X175645762Y-123197937D01*
X175623537Y-123197937D01*
X175561625Y-123024900D01*
X175460025Y-122875675D01*
X175309212Y-122772487D01*
X175099662Y-122734387D01*
X174944087Y-122734387D01*
X174944087Y-123166187D01*
X175293337Y-123166187D01*
X175446531Y-123191984D01*
X175556862Y-123269375D01*
X175623537Y-123384072D01*
X175645762Y-123521788D01*
X175645762Y-124007563D01*
X175106012Y-124007563D01*
X174354728Y-124280216D01*
X174472600Y-124182188D01*
X174566659Y-124059156D01*
X174636113Y-123912313D01*
X174678975Y-123743244D01*
X174693262Y-123553538D01*
X174678975Y-123363831D01*
X174636113Y-123194762D01*
X174566659Y-123047919D01*
X174472600Y-122924887D01*
X174354728Y-122826859D01*
X174213837Y-122755025D01*
X174051912Y-122710972D01*
X173870937Y-122696287D01*
X173689962Y-122710972D01*
X173528037Y-122755025D01*
X173387147Y-122826859D01*
X172731112Y-122734387D01*
X172261212Y-122734387D01*
X172261212Y-123032837D01*
X172238987Y-123032837D01*
X172165169Y-122899487D01*
X172064362Y-122791537D01*
X171929425Y-122720100D01*
X171753212Y-122696287D01*
X171503975Y-122747087D01*
X171310300Y-122902662D01*
X171238069Y-123021725D01*
X171183300Y-123169362D01*
X171148772Y-123346369D01*
X171137262Y-123553538D01*
X171148772Y-123760706D01*
X171183300Y-123937713D01*
X171238069Y-124085350D01*
X171310300Y-124204413D01*
X171503975Y-124359988D01*
X171753212Y-124410788D01*
X171929425Y-124387372D01*
X172064362Y-124317125D01*
X172165169Y-124209572D01*
X172238987Y-124074238D01*
X172261212Y-124074238D01*
X172261212Y-125007688D01*
X172731112Y-125007688D01*
X172731112Y-122734387D01*
X173387147Y-122826859D01*
X173269275Y-122924887D01*
X173175216Y-123047919D01*
X173105762Y-123194762D01*
X173062900Y-123363831D01*
X173048612Y-123553538D01*
X173062900Y-123743244D01*
X173105762Y-123912313D01*
X173175216Y-124059156D01*
X173269275Y-124182188D01*
X173387147Y-124280216D01*
X173528037Y-124352050D01*
X173689962Y-124396103D01*
X173870937Y-124410788D01*
X174051912Y-124396103D01*
X174213837Y-124352050D01*
X174354728Y-124280216D01*
X175106012Y-124007563D01*
X175106012Y-124372688D01*
X176493487Y-124372688D01*
X176493487Y-124007563D01*
X176909412Y-124010738D01*
X177018553Y-124173853D01*
X177168175Y-124301250D01*
X177364628Y-124383403D01*
X177614262Y-124410788D01*
X189987238Y-125272271D01*
X167390762Y-125272271D01*
X169467212Y-124372688D01*
X169702162Y-124298075D01*
X169806937Y-124083763D01*
X169822812Y-124083763D01*
X169889091Y-124225844D01*
X169999025Y-124328238D01*
X170145472Y-124390150D01*
X170321287Y-124410788D01*
X170535997Y-124378641D01*
X170703875Y-124282200D01*
X170812222Y-124127816D01*
X170848337Y-123921838D01*
X170801506Y-123698000D01*
X170661012Y-123540838D01*
X170516726Y-123472046D01*
X170333635Y-123430771D01*
X170111737Y-123417013D01*
X169848212Y-123417013D01*
X169848212Y-123334463D01*
X169916475Y-123113800D01*
X170146662Y-123039187D01*
X170387962Y-123096337D01*
X170546712Y-123245562D01*
X170803887Y-123016962D01*
X170697922Y-122889566D01*
X170545125Y-122786775D01*
X170343909Y-122718909D01*
X170092687Y-122696287D01*
X169884725Y-122713397D01*
X169709571Y-122764726D01*
X169567225Y-122850275D01*
X169462274Y-122970396D01*
X169399303Y-123125442D01*
X169378312Y-123315412D01*
X169378312Y-124032963D01*
X169197337Y-124032963D01*
X169197337Y-124372688D01*
X169467212Y-124372688D01*
X167390762Y-125272271D01*
X166729304Y-125272271D01*
X167390762Y-124372688D01*
X167860662Y-124372688D01*
X167860662Y-124074238D01*
X167882887Y-124074238D01*
X167958691Y-124209572D01*
X168059100Y-124317125D01*
X168192847Y-124387372D01*
X168368662Y-124410788D01*
X168617900Y-124359988D01*
X168811575Y-124204413D01*
X168883806Y-124085350D01*
X168938575Y-123937713D01*
X168973103Y-123760706D01*
X168984612Y-123553538D01*
X168973103Y-123346369D01*
X168938575Y-123169362D01*
X168883806Y-123021725D01*
X168811575Y-122902662D01*
X168617900Y-122747087D01*
X168368662Y-122696287D01*
X168194037Y-122721687D01*
X168059100Y-122791537D01*
X167957500Y-122897900D01*
X167882887Y-123032837D01*
X167860662Y-123032837D01*
X167860662Y-122023187D01*
X167390762Y-122023187D01*
X167390762Y-124372688D01*
X166729304Y-125272271D01*
X165556142Y-121361729D01*
X180662263Y-122156537D01*
X180662263Y-124372688D01*
X181075013Y-124372688D01*
X181075013Y-123385263D01*
X181049613Y-122766137D01*
X181078188Y-122766137D01*
X181490938Y-123905963D01*
X181903688Y-122766137D01*
X181932263Y-122766137D01*
X181906863Y-123385263D01*
X181906863Y-124372688D01*
X182319613Y-124372688D01*
X182319613Y-122156537D01*
X181757638Y-122156537D01*
X181484588Y-122902662D01*
X181459188Y-122902662D01*
X181186138Y-122156537D01*
X180662263Y-122156537D01*
X165556142Y-121361729D01*
X166729304Y-121361729D01*
X167390762Y-121361729D01*
X189987238Y-121361729D01*
G37*
G36*
X173870937Y-124061538D02*
G01*
X173729650Y-124036931D01*
X173623287Y-123963113D01*
X173556612Y-123844050D01*
X173534387Y-123683713D01*
X173534387Y-123423363D01*
X173556612Y-123263025D01*
X173623287Y-123143962D01*
X173729650Y-123070144D01*
X173870937Y-123045537D01*
X174012225Y-123070144D01*
X174118587Y-123143962D01*
X174185262Y-123263025D01*
X174207487Y-123423363D01*
X174207487Y-123683713D01*
X174185262Y-123844050D01*
X174118587Y-123963113D01*
X174012225Y-124036931D01*
X173870937Y-124061538D01*
G37*
G36*
X171956412Y-124045663D02*
G01*
X171815919Y-124021453D01*
X171711937Y-123948825D01*
X171647644Y-123833334D01*
X171626212Y-123680538D01*
X171626212Y-123426538D01*
X171647644Y-123273741D01*
X171711937Y-123158250D01*
X171815919Y-123085622D01*
X171956412Y-123061412D01*
X172170725Y-123121737D01*
X172261212Y-123312237D01*
X172261212Y-123794838D01*
X172170725Y-123985338D01*
X171956412Y-124045663D01*
G37*
G36*
X168165462Y-124045663D02*
G01*
X167951150Y-123985338D01*
X167860662Y-123794838D01*
X167860662Y-123312237D01*
X167951150Y-123121737D01*
X168165462Y-123061412D01*
X168305956Y-123085622D01*
X168409937Y-123158250D01*
X168474231Y-123273741D01*
X168495662Y-123426538D01*
X168495662Y-123680538D01*
X168474231Y-123833334D01*
X168409937Y-123948825D01*
X168305956Y-124021453D01*
X168165462Y-124045663D01*
G37*
G36*
X185294588Y-123032837D02*
G01*
X185431509Y-123056253D01*
X185537475Y-123126500D01*
X185605341Y-123236434D01*
X185627963Y-123378913D01*
X185627963Y-123404313D01*
X184967563Y-123404313D01*
X184967563Y-123378913D01*
X184989391Y-123234450D01*
X185054875Y-123124912D01*
X185158459Y-123055856D01*
X185294588Y-123032837D01*
G37*
G36*
X179668488Y-124102813D02*
G01*
X179458938Y-124042488D01*
X179373213Y-123867863D01*
X179373213Y-123671013D01*
X179624038Y-123671013D01*
X179840731Y-123719431D01*
X179912963Y-123864688D01*
X179912963Y-123928188D01*
X179846288Y-124058363D01*
X179668488Y-124102813D01*
G37*
G36*
X170143487Y-124102813D02*
G01*
X169933937Y-124042488D01*
X169848212Y-123867863D01*
X169848212Y-123671013D01*
X170099037Y-123671013D01*
X170315731Y-123719431D01*
X170387962Y-123864688D01*
X170387962Y-123928188D01*
X170321287Y-124058363D01*
X170143487Y-124102813D01*
G37*
G36*
X187230808Y-126402306D02*
G01*
X187334789Y-126423737D01*
X187398488Y-126427905D01*
X187473696Y-126429294D01*
X187407021Y-126468584D01*
X187517264Y-126538126D01*
X187571768Y-126481505D01*
X187662608Y-126462631D01*
X187736427Y-126474339D01*
X187789608Y-126509462D01*
X187821755Y-126564430D01*
X187832471Y-126635669D01*
X187821556Y-126708098D01*
X187788814Y-126763463D01*
X187735038Y-126798586D01*
X187661021Y-126810294D01*
X187591171Y-126798784D01*
X187540371Y-126764256D01*
X187509414Y-126708297D01*
X187499096Y-126632494D01*
X187517264Y-126538126D01*
X187407021Y-126468584D01*
X187359396Y-126516606D01*
X187330821Y-126574550D01*
X187321296Y-126643606D01*
X187331416Y-126721394D01*
X187361777Y-126789656D01*
X187410791Y-126846409D01*
X187476871Y-126889669D01*
X187558230Y-126917053D01*
X187653083Y-126926181D01*
X187767383Y-126911894D01*
X187794371Y-126942850D01*
X187803896Y-126981744D01*
X187778099Y-127029369D01*
X187700708Y-127045244D01*
X187554658Y-127045244D01*
X187470521Y-127052784D01*
X187395908Y-127075406D01*
X187333797Y-127111323D01*
X187287164Y-127158750D01*
X187257994Y-127215305D01*
X187248271Y-127278606D01*
X187275258Y-127389930D01*
X187356221Y-127473075D01*
X187438771Y-127511440D01*
X187542487Y-127534458D01*
X187667371Y-127542131D01*
X187793775Y-127534789D01*
X187890414Y-127512763D01*
X187960264Y-127476647D01*
X188006302Y-127427038D01*
X188031900Y-127362545D01*
X188040433Y-127281781D01*
X187881683Y-127281781D01*
X187863427Y-127357188D01*
X187799133Y-127398463D01*
X187742777Y-127408583D01*
X187665783Y-127411956D01*
X187556642Y-127404217D01*
X187483221Y-127381000D01*
X187427658Y-127289719D01*
X187471314Y-127211138D01*
X187589583Y-127183356D01*
X187734046Y-127183356D01*
X187833066Y-127171847D01*
X187904702Y-127137319D01*
X187948160Y-127085328D01*
X187962646Y-127021431D01*
X187938833Y-126938881D01*
X187870571Y-126870619D01*
X187935063Y-126826764D01*
X187979314Y-126774575D01*
X188004913Y-126711670D01*
X188013446Y-126635669D01*
X188002333Y-126553317D01*
X187968996Y-126480887D01*
X187915814Y-126420959D01*
X187845171Y-126376112D01*
X187760239Y-126348133D01*
X187664196Y-126338806D01*
X187541760Y-126334837D01*
X187447502Y-126319756D01*
X187364753Y-126293166D01*
X187276846Y-126254669D01*
X187230808Y-126402306D01*
G37*
G36*
X181823783Y-127202406D02*
G01*
X181862677Y-127296686D01*
X181911625Y-127376326D01*
X181970627Y-127441325D01*
X182042682Y-127490978D01*
X182130788Y-127524581D01*
X182234945Y-127542131D01*
X182257170Y-127408781D01*
X182182558Y-127392708D01*
X182123820Y-127369888D01*
X182042858Y-127304006D01*
X181988883Y-127199231D01*
X182049208Y-127199231D01*
X182331783Y-126361031D01*
X182142870Y-126361031D01*
X181931733Y-127075406D01*
X181717420Y-126361031D01*
X181534858Y-126361031D01*
X181823783Y-127202406D01*
G37*
G36*
X184455858Y-126024481D02*
G01*
X184455858Y-127199231D01*
X184613020Y-127199231D01*
X184625720Y-127096044D01*
X184671758Y-127149225D01*
X184727320Y-127188119D01*
X184790820Y-127211931D01*
X184860670Y-127219869D01*
X184956802Y-127206816D01*
X185035648Y-127167658D01*
X185097208Y-127102394D01*
X185141305Y-127014376D01*
X185167764Y-126906955D01*
X185176583Y-126780131D01*
X185166463Y-126658687D01*
X185136102Y-126551531D01*
X185087088Y-126462433D01*
X185021008Y-126395162D01*
X184939649Y-126352895D01*
X184844795Y-126338806D01*
X184727717Y-126361825D01*
X184707477Y-126498747D01*
X184798758Y-126475331D01*
X184879919Y-126494183D01*
X184939252Y-126550737D01*
X184975566Y-126645789D01*
X184987670Y-126780131D01*
X184976756Y-126913481D01*
X184944014Y-127008731D01*
X184889444Y-127065881D01*
X184813045Y-127084931D01*
X184715811Y-127054769D01*
X184633658Y-126964281D01*
X184633658Y-126568994D01*
X184707477Y-126498747D01*
X184727717Y-126361825D01*
X184633658Y-126430881D01*
X184633658Y-126003844D01*
X184455858Y-126024481D01*
G37*
G36*
X182812795Y-126338806D02*
G01*
X182732627Y-126548356D01*
X182786800Y-126493588D01*
X182862008Y-126475331D01*
X182962814Y-126508669D01*
X183042983Y-126595981D01*
X183042983Y-126988094D01*
X182969958Y-127060722D01*
X182877883Y-127084931D01*
X182796722Y-127066080D01*
X182737389Y-127009525D01*
X182701075Y-126914473D01*
X182688970Y-126780131D01*
X182699885Y-126642812D01*
X182732627Y-126548356D01*
X182812795Y-126338806D01*
X182715252Y-126351683D01*
X182636407Y-126390312D01*
X182576258Y-126454694D01*
X182533925Y-126542183D01*
X182508525Y-126650133D01*
X182500058Y-126778544D01*
X182509848Y-126901487D01*
X182539216Y-127007849D01*
X182588164Y-127097631D01*
X182654751Y-127165541D01*
X182737036Y-127206287D01*
X182835020Y-127219869D01*
X182921451Y-127208403D01*
X182994476Y-127174008D01*
X183054095Y-127116681D01*
X183063620Y-127199231D01*
X183220783Y-127199231D01*
X183220783Y-126024481D01*
X183042983Y-126003844D01*
X183042983Y-126461044D01*
X182995953Y-126409053D01*
X182940589Y-126370556D01*
X182878875Y-126346744D01*
X182812795Y-126338806D01*
G37*
G36*
X191553571Y-127199231D02*
G01*
X191637708Y-127059531D01*
X191534521Y-127059531D01*
X191443813Y-127048022D01*
X191369597Y-127013494D01*
X191311874Y-126955947D01*
X191270643Y-126875381D01*
X191245904Y-126771797D01*
X191237658Y-126645194D01*
X191246742Y-126505494D01*
X191273994Y-126399660D01*
X191319414Y-126327694D01*
X191414466Y-126265781D01*
X191536108Y-126245144D01*
X191637708Y-126245144D01*
X191637708Y-127059531D01*
X191553571Y-127199231D01*
X191821858Y-127199231D01*
X191821858Y-126103856D01*
X191571033Y-126103856D01*
X191457824Y-126111050D01*
X191356324Y-126132630D01*
X191266531Y-126168596D01*
X191188446Y-126218950D01*
X191125243Y-126288750D01*
X191080099Y-126383058D01*
X191053012Y-126501872D01*
X191043983Y-126645194D01*
X191053012Y-126788912D01*
X191080099Y-126908917D01*
X191125243Y-127005209D01*
X191188446Y-127077788D01*
X191265439Y-127130919D01*
X191351958Y-127168870D01*
X191448002Y-127191641D01*
X191553571Y-127199231D01*
G37*
G36*
X190464546Y-127081756D02*
G01*
X190352627Y-127063500D01*
X190243883Y-127008731D01*
X190167683Y-127116681D01*
X190231580Y-127160338D01*
X190305796Y-127192881D01*
X190387155Y-127213122D01*
X190472483Y-127219869D01*
X190591016Y-127206551D01*
X190690500Y-127166599D01*
X190770933Y-127100013D01*
X190830023Y-127011201D01*
X190865477Y-126904574D01*
X190877296Y-126780131D01*
X190865786Y-126660870D01*
X190831258Y-126553912D01*
X190774902Y-126464020D01*
X190697908Y-126395956D01*
X190603452Y-126353094D01*
X190494708Y-126338806D01*
X190391256Y-126351242D01*
X190303150Y-126388548D01*
X190230389Y-126450725D01*
X190176150Y-126534598D01*
X190143606Y-126636992D01*
X190132758Y-126757906D01*
X190137521Y-126837281D01*
X190694733Y-126716631D01*
X190305796Y-126716631D01*
X190320083Y-126611459D01*
X190356596Y-126534069D01*
X190414539Y-126486444D01*
X190493121Y-126470569D01*
X190570908Y-126486047D01*
X190632821Y-126532481D01*
X190675286Y-126609475D01*
X190694733Y-126716631D01*
X190137521Y-126837281D01*
X190693145Y-126837281D01*
X190671516Y-126944239D01*
X190622502Y-127020638D01*
X190551660Y-127066477D01*
X190464546Y-127081756D01*
G37*
G36*
X185702045Y-127081756D02*
G01*
X185590127Y-127063500D01*
X185481383Y-127008731D01*
X185405183Y-127116681D01*
X185469080Y-127160338D01*
X185543295Y-127192881D01*
X185624655Y-127213122D01*
X185709983Y-127219869D01*
X185828516Y-127206551D01*
X185928000Y-127166599D01*
X186008433Y-127100013D01*
X186067523Y-127011201D01*
X186102977Y-126904574D01*
X186114795Y-126780131D01*
X186103286Y-126660870D01*
X186068758Y-126553912D01*
X186012402Y-126464020D01*
X185935408Y-126395956D01*
X185840952Y-126353094D01*
X185732208Y-126338806D01*
X185628756Y-126351242D01*
X185540650Y-126388548D01*
X185467889Y-126450725D01*
X185413650Y-126534598D01*
X185381106Y-126636992D01*
X185370258Y-126757906D01*
X185375020Y-126837281D01*
X185932233Y-126716631D01*
X185543295Y-126716631D01*
X185557583Y-126611459D01*
X185594095Y-126534069D01*
X185652039Y-126486444D01*
X185730620Y-126470569D01*
X185808408Y-126486047D01*
X185870320Y-126532481D01*
X185912786Y-126609475D01*
X185932233Y-126716631D01*
X185375020Y-126837281D01*
X185930645Y-126837281D01*
X185909016Y-126944239D01*
X185860002Y-127020638D01*
X185789160Y-127066477D01*
X185702045Y-127081756D01*
G37*
G36*
X189402508Y-126972219D02*
G01*
X189416796Y-126912688D01*
X189473946Y-126869825D01*
X189527524Y-126849386D01*
X189602533Y-126827756D01*
X189723381Y-126787870D01*
X189809702Y-126738062D01*
X189861494Y-126671189D01*
X189878758Y-126580106D01*
X189856136Y-126481483D01*
X189788271Y-126404687D01*
X189720890Y-126368087D01*
X189639398Y-126346126D01*
X189543796Y-126338806D01*
X189425791Y-126349566D01*
X189319429Y-126381845D01*
X189224708Y-126435644D01*
X189300908Y-126548356D01*
X189416796Y-126492397D01*
X189539033Y-126473744D01*
X189658096Y-126496762D01*
X189697783Y-126565819D01*
X189679527Y-126618206D01*
X189616821Y-126657100D01*
X189561655Y-126676745D01*
X189485058Y-126699169D01*
X189365797Y-126741634D01*
X189281064Y-126792831D01*
X189230463Y-126862284D01*
X189213596Y-126959519D01*
X189240186Y-127072430D01*
X189319958Y-127153988D01*
X189396511Y-127190588D01*
X189484352Y-127212549D01*
X189583483Y-127219869D01*
X189714187Y-127206816D01*
X189829016Y-127167658D01*
X189927971Y-127102394D01*
X189834308Y-126994444D01*
X189778944Y-127031552D01*
X189717627Y-127060325D01*
X189651944Y-127078780D01*
X189583483Y-127084931D01*
X189508275Y-127077391D01*
X189450927Y-127054769D01*
X189402508Y-126972219D01*
G37*
G36*
X187030783Y-126361031D02*
G01*
X186876796Y-126361031D01*
X186864096Y-126470569D01*
X186807144Y-126414411D01*
X186741064Y-126372937D01*
X186668635Y-126347339D01*
X186592633Y-126338806D01*
X186491033Y-126355078D01*
X186418008Y-126403894D01*
X186373955Y-126482475D01*
X186359270Y-126588044D01*
X186359270Y-127199231D01*
X186537070Y-127199231D01*
X186537070Y-126676944D01*
X186545802Y-126557087D01*
X186579933Y-126495175D01*
X186656133Y-126475331D01*
X186764877Y-126510256D01*
X186852983Y-126597569D01*
X186852983Y-127199231D01*
X187030783Y-127199231D01*
X187030783Y-126361031D01*
G37*
G36*
X188478583Y-127069056D02*
G01*
X188249983Y-127069056D01*
X188249983Y-127199231D01*
X188905621Y-127199231D01*
X188905621Y-127069056D01*
X188656383Y-127069056D01*
X188656383Y-126491206D01*
X188897683Y-126491206D01*
X188897683Y-126361031D01*
X188478583Y-126361031D01*
X188478583Y-127069056D01*
G37*
G36*
X188484933Y-126062581D02*
G01*
X188517477Y-126141956D01*
X188600821Y-126173706D01*
X188684958Y-126141956D01*
X188716708Y-126062581D01*
X188684164Y-125981619D01*
X188600821Y-125949869D01*
X188517477Y-125982412D01*
X188484933Y-126062581D01*
G37*
G36*
X180890968Y-128024255D02*
G01*
X180930020Y-128119505D01*
X181030033Y-128157605D01*
X181130998Y-128119505D01*
X181169098Y-128024255D01*
X181130045Y-127927100D01*
X181030033Y-127889000D01*
X180930020Y-127928052D01*
X180890968Y-128024255D01*
G37*
G36*
X183660838Y-128704340D02*
G01*
X182971228Y-128704340D01*
X182971228Y-128879600D01*
X183660838Y-128879600D01*
X183660838Y-128704340D01*
G37*
G36*
X191267503Y-128715770D02*
G01*
X191191303Y-128775778D01*
X191128438Y-128793875D01*
X191031283Y-128753870D01*
X190947463Y-128637665D01*
X190812208Y-128702435D01*
X190876264Y-128812925D01*
X190946511Y-128896745D01*
X191030092Y-128949609D01*
X191134153Y-128967230D01*
X191250358Y-128938655D01*
X191360848Y-128856740D01*
X191438001Y-128796733D01*
X191505628Y-128776730D01*
X191602783Y-128816735D01*
X191686603Y-128932940D01*
X191821858Y-128868170D01*
X191757802Y-128758871D01*
X191687556Y-128674813D01*
X191603974Y-128621234D01*
X191499913Y-128603375D01*
X191379898Y-128631950D01*
X191267503Y-128715770D01*
G37*
G36*
X180883348Y-129232025D02*
G01*
X180609028Y-129232025D01*
X180609028Y-129388235D01*
X181395793Y-129388235D01*
X181395793Y-129232025D01*
X181096708Y-129232025D01*
X181096708Y-128538605D01*
X181386268Y-128538605D01*
X181386268Y-128382395D01*
X180883348Y-128382395D01*
X180883348Y-129232025D01*
G37*
G36*
X178281118Y-128382395D02*
G01*
X178317313Y-128753870D01*
X178469713Y-128753870D01*
X178469713Y-128548130D01*
X178567582Y-128570037D01*
X178651640Y-128631950D01*
X178720935Y-128730534D01*
X178774513Y-128862455D01*
X178774513Y-129235835D01*
X178572583Y-129235835D01*
X178572583Y-129388235D01*
X179136463Y-129388235D01*
X179136463Y-129235835D01*
X178987873Y-129235835D01*
X178987873Y-128534795D01*
X179136463Y-128534795D01*
X179136463Y-128382395D01*
X178825948Y-128382395D01*
X178787848Y-128614805D01*
X178722364Y-128501696D01*
X178644020Y-128421447D01*
X178549009Y-128373584D01*
X178433518Y-128357630D01*
X178281118Y-128382395D01*
G37*
G36*
X184127563Y-129152015D02*
G01*
X184030408Y-129289175D01*
X184103751Y-129340372D01*
X184190428Y-129379663D01*
X184285202Y-129404666D01*
X184382833Y-129413000D01*
X184525285Y-129397231D01*
X184645300Y-129349923D01*
X184742878Y-129271078D01*
X184814845Y-129165773D01*
X184858025Y-129039091D01*
X184872418Y-128891030D01*
X184857654Y-128745059D01*
X184813363Y-128615757D01*
X184741211Y-128507649D01*
X184642866Y-128425257D01*
X184521184Y-128373108D01*
X184379023Y-128355725D01*
X184251388Y-128369272D01*
X184135183Y-128409912D01*
X184030408Y-128477645D01*
X184129468Y-128610995D01*
X184251864Y-128548130D01*
X184375213Y-128527175D01*
X184487608Y-128549797D01*
X184573333Y-128617662D01*
X184627626Y-128731248D01*
X184645723Y-128891030D01*
X184627626Y-129046288D01*
X184573333Y-129153920D01*
X184487608Y-129216785D01*
X184375213Y-129237740D01*
X184253293Y-129216309D01*
X184127563Y-129152015D01*
G37*
G36*
X181992058Y-129115820D02*
G01*
X182009203Y-129044383D01*
X182077783Y-128992948D01*
X182142077Y-128968421D01*
X182232088Y-128942465D01*
X182377106Y-128894602D01*
X182480690Y-128834833D01*
X182542841Y-128754584D01*
X182563558Y-128645285D01*
X182536412Y-128526937D01*
X182454973Y-128434782D01*
X182374116Y-128390862D01*
X182276326Y-128364509D01*
X182161603Y-128355725D01*
X182019998Y-128368637D01*
X181892363Y-128407372D01*
X181778698Y-128471930D01*
X181870138Y-128607185D01*
X182009203Y-128540034D01*
X182155888Y-128517650D01*
X182298763Y-128545272D01*
X182346388Y-128628140D01*
X182324480Y-128691005D01*
X182249233Y-128737678D01*
X182183034Y-128761252D01*
X182091118Y-128788160D01*
X181948005Y-128839119D01*
X181846326Y-128900555D01*
X181785604Y-128983899D01*
X181765363Y-129100580D01*
X181797272Y-129236073D01*
X181892998Y-129333943D01*
X181984861Y-129377863D01*
X182090271Y-129404216D01*
X182209228Y-129413000D01*
X182366073Y-129397337D01*
X182503868Y-129350347D01*
X182622613Y-129272030D01*
X182510218Y-129142490D01*
X182443781Y-129187019D01*
X182370200Y-129221548D01*
X182291381Y-129243693D01*
X182209228Y-129251075D01*
X182118979Y-129242026D01*
X182050160Y-129214880D01*
X181992058Y-129115820D01*
G37*
G36*
X189993058Y-129115820D02*
G01*
X190010203Y-129044383D01*
X190078783Y-128992948D01*
X190143077Y-128968421D01*
X190233088Y-128942465D01*
X190378106Y-128894602D01*
X190481691Y-128834833D01*
X190543841Y-128754584D01*
X190564558Y-128645285D01*
X190537412Y-128526937D01*
X190455973Y-128434782D01*
X190375116Y-128390862D01*
X190277326Y-128364509D01*
X190162603Y-128355725D01*
X190020998Y-128368637D01*
X189893363Y-128407372D01*
X189779698Y-128471930D01*
X189871138Y-128607185D01*
X190010203Y-128540034D01*
X190156888Y-128517650D01*
X190299763Y-128545272D01*
X190347388Y-128628140D01*
X190325481Y-128691005D01*
X190250233Y-128737678D01*
X190184034Y-128761252D01*
X190092118Y-128788160D01*
X189949005Y-128839119D01*
X189847326Y-128900555D01*
X189786604Y-128983899D01*
X189766363Y-129100580D01*
X189798272Y-129236073D01*
X189893998Y-129333943D01*
X189985861Y-129377863D01*
X190091271Y-129404216D01*
X190210228Y-129413000D01*
X190367073Y-129397337D01*
X190504868Y-129350347D01*
X190623613Y-129272030D01*
X190511218Y-129142490D01*
X190444781Y-129187019D01*
X190371201Y-129221548D01*
X190292381Y-129243693D01*
X190210228Y-129251075D01*
X190119979Y-129242026D01*
X190051161Y-129214880D01*
X189993058Y-129115820D01*
G37*
G36*
X177551503Y-129247265D02*
G01*
X177417200Y-129225358D01*
X177286708Y-129159635D01*
X177195268Y-129289175D01*
X177271944Y-129341563D01*
X177361003Y-129380615D01*
X177458634Y-129404904D01*
X177561028Y-129413000D01*
X177703268Y-129397019D01*
X177822648Y-129349077D01*
X177919168Y-129269173D01*
X177990076Y-129162598D01*
X178032621Y-129034646D01*
X178046803Y-128885315D01*
X178032992Y-128742202D01*
X177991558Y-128613852D01*
X177923930Y-128505982D01*
X177831538Y-128424305D01*
X177718190Y-128372870D01*
X177587698Y-128355725D01*
X177463555Y-128370647D01*
X177357828Y-128415415D01*
X177270515Y-128490027D01*
X177205428Y-128590675D01*
X177166375Y-128713548D01*
X177153358Y-128858645D01*
X177159073Y-128953895D01*
X177827728Y-128809115D01*
X177361003Y-128809115D01*
X177378148Y-128682909D01*
X177421963Y-128590040D01*
X177491495Y-128532890D01*
X177585793Y-128513840D01*
X177679138Y-128532414D01*
X177753433Y-128588135D01*
X177804392Y-128680528D01*
X177827728Y-128809115D01*
X177159073Y-128953895D01*
X177825823Y-128953895D01*
X177799867Y-129082244D01*
X177741050Y-129173922D01*
X177656040Y-129228929D01*
X177551503Y-129247265D01*
G37*
G36*
X185552503Y-129247265D02*
G01*
X185418201Y-129225358D01*
X185287708Y-129159635D01*
X185196268Y-129289175D01*
X185272944Y-129341563D01*
X185362003Y-129380615D01*
X185459634Y-129404904D01*
X185562028Y-129413000D01*
X185704268Y-129397019D01*
X185823648Y-129349077D01*
X185920168Y-129269173D01*
X185991076Y-129162598D01*
X186033621Y-129034646D01*
X186047803Y-128885315D01*
X186033992Y-128742202D01*
X185992558Y-128613852D01*
X185924930Y-128505982D01*
X185832538Y-128424305D01*
X185719191Y-128372870D01*
X185588698Y-128355725D01*
X185464556Y-128370647D01*
X185358828Y-128415415D01*
X185271516Y-128490027D01*
X185206428Y-128590675D01*
X185167376Y-128713548D01*
X185154358Y-128858645D01*
X185160073Y-128953895D01*
X185828728Y-128809115D01*
X185362003Y-128809115D01*
X185379148Y-128682909D01*
X185422963Y-128590040D01*
X185492496Y-128532890D01*
X185586793Y-128513840D01*
X185680138Y-128532414D01*
X185754433Y-128588135D01*
X185805392Y-128680528D01*
X185828728Y-128809115D01*
X185160073Y-128953895D01*
X185826823Y-128953895D01*
X185800867Y-129082244D01*
X185742051Y-129173922D01*
X185657040Y-129228929D01*
X185552503Y-129247265D01*
G37*
G36*
X188587168Y-129268220D02*
G01*
X188874823Y-129127250D01*
X188874823Y-128904365D01*
X188992933Y-128904365D01*
X189118187Y-128916509D01*
X189204388Y-128952943D01*
X189254394Y-129012236D01*
X189271063Y-129092960D01*
X189228201Y-129214880D01*
X189101518Y-129256790D01*
X188972931Y-129222500D01*
X188874823Y-129127250D01*
X188587168Y-129268220D01*
X188636698Y-129413000D01*
X188767667Y-129368709D01*
X188844343Y-129273935D01*
X188906494Y-129334181D01*
X188982456Y-129377758D01*
X189069371Y-129404189D01*
X189164383Y-129413000D01*
X189301067Y-129391569D01*
X189406318Y-129327275D01*
X189473469Y-129227739D01*
X189495853Y-129100580D01*
X189464659Y-128960563D01*
X189371076Y-128856740D01*
X189276355Y-128809115D01*
X189158562Y-128780540D01*
X189017698Y-128771015D01*
X188874823Y-128771015D01*
X188874823Y-128706245D01*
X188889111Y-128623854D01*
X188931973Y-128567180D01*
X189001982Y-128534319D01*
X189097708Y-128523365D01*
X189221533Y-128536700D01*
X189364408Y-128574800D01*
X189417748Y-128424305D01*
X189298156Y-128386205D01*
X189180681Y-128363345D01*
X189065323Y-128355725D01*
X188942980Y-128365462D01*
X188842650Y-128394672D01*
X188764333Y-128443355D01*
X188688609Y-128549559D01*
X188663368Y-128692910D01*
X188663368Y-129142490D01*
X188646223Y-129227263D01*
X188587168Y-129268220D01*
G37*
G36*
X176947618Y-129388235D02*
G01*
X176585668Y-128858645D01*
X176907613Y-128382395D01*
X176661868Y-128382395D01*
X176456128Y-128736725D01*
X176250388Y-128382395D01*
X176016073Y-128382395D01*
X176330398Y-128849120D01*
X175968448Y-129388235D01*
X176218003Y-129388235D01*
X176465653Y-128976755D01*
X176711398Y-129388235D01*
X176947618Y-129388235D01*
G37*
G36*
X187396543Y-128641475D02*
G01*
X187396543Y-129388235D01*
X187585138Y-129388235D01*
X187585138Y-128670050D01*
X187597521Y-128553845D01*
X187651813Y-128521460D01*
X187728966Y-128546701D01*
X187800403Y-128622425D01*
X187800403Y-129388235D01*
X187973758Y-129388235D01*
X187973758Y-128670050D01*
X187986141Y-128553845D01*
X188040433Y-128521460D01*
X188117586Y-128546701D01*
X188189023Y-128622425D01*
X188189023Y-129388235D01*
X188379523Y-129388235D01*
X188379523Y-128382395D01*
X188219503Y-128382395D01*
X188204263Y-128490980D01*
X188107108Y-128390015D01*
X187988998Y-128355725D01*
X187879461Y-128387634D01*
X187817548Y-128483360D01*
X187718488Y-128389062D01*
X187596568Y-128355725D01*
X187513224Y-128371917D01*
X187449883Y-128420495D01*
X187409878Y-128508125D01*
X187396543Y-128641475D01*
G37*
G36*
X186933628Y-128506220D02*
G01*
X186867667Y-128440974D01*
X186791706Y-128393825D01*
X186708600Y-128365250D01*
X186621208Y-128355725D01*
X186499288Y-128375013D01*
X186411658Y-128432877D01*
X186358794Y-128526937D01*
X186341173Y-128654810D01*
X186341173Y-129388235D01*
X186554533Y-129388235D01*
X186554533Y-128687195D01*
X186588823Y-128558607D01*
X186699313Y-128519555D01*
X186827901Y-128562417D01*
X186933628Y-128668145D01*
X186933628Y-129388235D01*
X187146988Y-129388235D01*
X187146988Y-127980440D01*
X186933628Y-127957580D01*
X186933628Y-128506220D01*
G37*
G36*
X179485078Y-127978535D02*
G01*
X179485078Y-129388235D01*
X179673673Y-129388235D01*
X179688913Y-129264410D01*
X179744158Y-129328228D01*
X179810833Y-129374900D01*
X179887033Y-129403475D01*
X179970853Y-129413000D01*
X180086211Y-129397337D01*
X180180826Y-129350347D01*
X180254698Y-129272030D01*
X180307615Y-129166408D01*
X180339365Y-129037503D01*
X180349948Y-128885315D01*
X180337804Y-128739583D01*
X180301370Y-128610995D01*
X180242554Y-128504077D01*
X180163258Y-128423352D01*
X180065627Y-128372632D01*
X179951803Y-128355725D01*
X179811309Y-128383347D01*
X179787020Y-128547654D01*
X179896558Y-128519555D01*
X179993951Y-128542177D01*
X180065150Y-128610042D01*
X180108727Y-128724104D01*
X180123253Y-128885315D01*
X180110156Y-129045335D01*
X180070865Y-129159635D01*
X180005381Y-129228215D01*
X179913703Y-129251075D01*
X179797022Y-129214880D01*
X179698438Y-129106295D01*
X179698438Y-128631950D01*
X179787020Y-128547654D01*
X179811309Y-128383347D01*
X179698438Y-128466215D01*
X179698438Y-127953770D01*
X179485078Y-127978535D01*
G37*
D12*
X118313200Y-69088000D02*
X115773200Y-69088000D01*
X118313200Y-66548000D02*
X118313200Y-69088000D01*
D13*
G36*
X130707835Y-72837030D02*
G01*
X130707835Y-72937030D01*
X130807835Y-72937030D01*
X130807835Y-72837030D01*
X130707835Y-72837030D01*
G37*
X130707835Y-72837030D02*
X130707835Y-72937030D01*
X130807835Y-72937030D01*
X130807835Y-72837030D01*
X130707835Y-72837030D01*
G36*
X130907835Y-72437030D02*
G01*
X130907835Y-73237030D01*
X131007835Y-73237030D01*
X131007835Y-72437030D01*
X130907835Y-72437030D01*
G37*
X130907835Y-72437030D02*
X130907835Y-73237030D01*
X131007835Y-73237030D01*
X131007835Y-72437030D01*
X130907835Y-72437030D01*
G36*
X130507835Y-73037030D02*
G01*
X130507835Y-73237030D01*
X130607835Y-73237030D01*
X130607835Y-73037030D01*
X130507835Y-73037030D01*
G37*
X130507835Y-73037030D02*
X130507835Y-73237030D01*
X130607835Y-73237030D01*
X130607835Y-73037030D01*
X130507835Y-73037030D01*
G36*
X130507835Y-72437030D02*
G01*
X130507835Y-72737030D01*
X130607835Y-72737030D01*
X130607835Y-72437030D01*
X130507835Y-72437030D01*
G37*
X130507835Y-72437030D02*
X130507835Y-72737030D01*
X130607835Y-72737030D01*
X130607835Y-72437030D01*
X130507835Y-72437030D01*
G36*
X130507835Y-72437030D02*
G01*
X130507835Y-72537030D01*
X131007835Y-72537030D01*
X131007835Y-72437030D01*
X130507835Y-72437030D01*
G37*
X130507835Y-72437030D02*
X130507835Y-72537030D01*
X131007835Y-72537030D01*
X131007835Y-72437030D01*
X130507835Y-72437030D01*
D12*
X118313200Y-66548000D02*
X115773200Y-66548000D01*
D14*
X118880776Y-122575434D02*
X118315090Y-122009749D01*
X118180403Y-122144436D01*
X118126528Y-122252185D01*
X118126528Y-122359935D01*
X118153466Y-122440747D01*
X118234278Y-122575434D01*
X118315090Y-122656246D01*
X118449777Y-122737059D01*
X118530589Y-122763996D01*
X118638339Y-122763996D01*
X118746089Y-122710121D01*
X118880776Y-122575434D01*
X118288153Y-123168057D02*
X118180403Y-123275807D01*
X118099591Y-123302744D01*
X118045716Y-123302744D01*
X117911029Y-123275807D01*
X117776342Y-123194994D01*
X117560843Y-122979495D01*
X117533905Y-122898683D01*
X117533905Y-122844808D01*
X117560843Y-122763996D01*
X117668592Y-122656246D01*
X117749405Y-122629309D01*
X117803279Y-122629309D01*
X117884092Y-122656246D01*
X118018779Y-122790933D01*
X118045716Y-122871746D01*
X118045716Y-122925620D01*
X118018779Y-123006433D01*
X117911029Y-123114182D01*
X117830217Y-123141120D01*
X117776342Y-123141120D01*
X117695530Y-123114182D01*
X125230776Y-122575434D02*
X124665090Y-122009749D01*
X124530403Y-122144436D01*
X124476528Y-122252185D01*
X124476528Y-122359935D01*
X124503466Y-122440747D01*
X124584278Y-122575434D01*
X124665090Y-122656246D01*
X124799777Y-122737059D01*
X124880589Y-122763996D01*
X124988339Y-122763996D01*
X125096089Y-122710121D01*
X125230776Y-122575434D01*
X124261029Y-122898683D02*
X124287966Y-122817871D01*
X124287966Y-122763996D01*
X124261029Y-122683184D01*
X124234092Y-122656246D01*
X124153279Y-122629309D01*
X124099405Y-122629309D01*
X124018592Y-122656246D01*
X123910843Y-122763996D01*
X123883905Y-122844808D01*
X123883905Y-122898683D01*
X123910843Y-122979495D01*
X123937780Y-123006433D01*
X124018592Y-123033370D01*
X124072467Y-123033370D01*
X124153279Y-123006433D01*
X124261029Y-122898683D01*
X124341841Y-122871746D01*
X124395716Y-122871746D01*
X124476528Y-122898683D01*
X124584278Y-123006433D01*
X124611215Y-123087245D01*
X124611215Y-123141120D01*
X124584278Y-123221932D01*
X124476528Y-123329681D01*
X124395716Y-123356619D01*
X124341841Y-123356619D01*
X124261029Y-123329681D01*
X124153279Y-123221932D01*
X124126342Y-123141120D01*
X124126342Y-123087245D01*
X124153279Y-123006433D01*
X131580776Y-122575434D02*
X131015090Y-122009749D01*
X130880403Y-122144436D01*
X130826528Y-122252185D01*
X130826528Y-122359935D01*
X130853466Y-122440747D01*
X130934278Y-122575434D01*
X131015090Y-122656246D01*
X131149777Y-122737059D01*
X131230589Y-122763996D01*
X131338339Y-122763996D01*
X131446089Y-122710121D01*
X131580776Y-122575434D01*
X130503279Y-122521559D02*
X130126156Y-122898683D01*
X130934278Y-123221932D01*
X118520857Y-113885494D02*
X119086542Y-113319808D01*
X118951855Y-113185121D01*
X118844106Y-113131246D01*
X118736356Y-113131246D01*
X118655544Y-113158184D01*
X118520857Y-113238996D01*
X118440045Y-113319808D01*
X118359233Y-113454495D01*
X118332295Y-113535307D01*
X118332295Y-113643057D01*
X118386170Y-113750807D01*
X118520857Y-113885494D01*
X118278420Y-112511686D02*
X118386170Y-112619436D01*
X118413107Y-112700248D01*
X118413107Y-112754123D01*
X118386170Y-112888810D01*
X118305358Y-113023497D01*
X118089858Y-113238996D01*
X118009046Y-113265933D01*
X117955171Y-113265933D01*
X117874359Y-113238996D01*
X117766610Y-113131246D01*
X117739672Y-113050434D01*
X117739672Y-112996559D01*
X117766610Y-112915747D01*
X117901297Y-112781060D01*
X117982109Y-112754123D01*
X118035984Y-112754123D01*
X118116796Y-112781060D01*
X118224545Y-112888810D01*
X118251483Y-112969622D01*
X118251483Y-113023497D01*
X118224545Y-113104309D01*
X124975133Y-113885494D02*
X125540818Y-113319808D01*
X125406131Y-113185121D01*
X125298382Y-113131246D01*
X125190632Y-113131246D01*
X125109820Y-113158184D01*
X124975133Y-113238996D01*
X124894321Y-113319808D01*
X124813509Y-113454495D01*
X124786571Y-113535307D01*
X124786571Y-113643057D01*
X124840446Y-113750807D01*
X124975133Y-113885494D01*
X124705759Y-112484749D02*
X124975133Y-112754123D01*
X124732696Y-113050434D01*
X124732696Y-112996559D01*
X124705759Y-112915747D01*
X124571072Y-112781060D01*
X124490260Y-112754123D01*
X124436385Y-112754123D01*
X124355573Y-112781060D01*
X124220886Y-112915747D01*
X124193948Y-112996559D01*
X124193948Y-113050434D01*
X124220886Y-113131246D01*
X124355573Y-113265933D01*
X124436385Y-113292871D01*
X124490260Y-113292871D01*
X131304813Y-113885494D02*
X131870498Y-113319808D01*
X131735811Y-113185121D01*
X131628062Y-113131246D01*
X131520312Y-113131246D01*
X131439500Y-113158184D01*
X131304813Y-113238996D01*
X131224001Y-113319808D01*
X131143189Y-113454495D01*
X131116251Y-113535307D01*
X131116251Y-113643057D01*
X131170126Y-113750807D01*
X131304813Y-113885494D01*
X130873814Y-112700248D02*
X130496691Y-113077371D01*
X131224001Y-112619436D02*
X130954627Y-113158184D01*
X130604440Y-112807997D01*
X132005040Y-103115004D02*
X131439354Y-102549319D01*
X131304667Y-102684006D01*
X131250792Y-102791755D01*
X131250792Y-102899505D01*
X131277730Y-102980317D01*
X131358542Y-103115004D01*
X131439354Y-103195816D01*
X131574041Y-103276629D01*
X131654853Y-103303566D01*
X131762603Y-103303566D01*
X131870353Y-103249691D01*
X132005040Y-103115004D01*
X130927543Y-103061129D02*
X130577357Y-103411316D01*
X130981418Y-103438253D01*
X130900606Y-103519065D01*
X130873669Y-103599877D01*
X130873669Y-103653752D01*
X130900606Y-103734564D01*
X131035293Y-103869251D01*
X131116105Y-103896189D01*
X131169980Y-103896189D01*
X131250792Y-103869251D01*
X131412417Y-103707627D01*
X131439354Y-103626815D01*
X131439354Y-103572940D01*
X125655040Y-103115004D02*
X125089354Y-102549319D01*
X124954667Y-102684006D01*
X124900792Y-102791755D01*
X124900792Y-102899505D01*
X124927730Y-102980317D01*
X125008542Y-103115004D01*
X125089354Y-103195816D01*
X125224041Y-103276629D01*
X125304853Y-103303566D01*
X125412603Y-103303566D01*
X125520353Y-103249691D01*
X125655040Y-103115004D01*
X124604481Y-103141941D02*
X124550606Y-103141941D01*
X124469794Y-103168879D01*
X124335107Y-103303566D01*
X124308169Y-103384378D01*
X124308169Y-103438253D01*
X124335107Y-103519065D01*
X124388982Y-103572940D01*
X124496731Y-103626815D01*
X125143229Y-103626815D01*
X124793043Y-103977001D01*
X119305040Y-103115004D02*
X118739354Y-102549319D01*
X118604667Y-102684006D01*
X118550792Y-102791755D01*
X118550792Y-102899505D01*
X118577730Y-102980317D01*
X118658542Y-103115004D01*
X118739354Y-103195816D01*
X118874041Y-103276629D01*
X118954853Y-103303566D01*
X119062603Y-103303566D01*
X119170353Y-103249691D01*
X119305040Y-103115004D01*
X118443043Y-103977001D02*
X118766292Y-103653752D01*
X118604667Y-103815377D02*
X118038982Y-103249691D01*
X118173669Y-103276629D01*
X118281418Y-103276629D01*
X118362230Y-103249691D01*
D13*
X122713676Y-94549904D02*
X122713676Y-93749904D01*
X122523200Y-93749904D01*
X122408914Y-93788000D01*
X122332723Y-93864190D01*
X122294628Y-93940380D01*
X122256533Y-94092761D01*
X122256533Y-94207047D01*
X122294628Y-94359428D01*
X122332723Y-94435619D01*
X122408914Y-94511809D01*
X122523200Y-94549904D01*
X122713676Y-94549904D01*
X121532723Y-93749904D02*
X121913676Y-93749904D01*
X121951771Y-94130857D01*
X121913676Y-94092761D01*
X121837485Y-94054666D01*
X121647009Y-94054666D01*
X121570819Y-94092761D01*
X121532723Y-94130857D01*
X121494628Y-94207047D01*
X121494628Y-94397523D01*
X121532723Y-94473714D01*
X121570819Y-94511809D01*
X121647009Y-94549904D01*
X121837485Y-94549904D01*
X121913676Y-94511809D01*
X121951771Y-94473714D01*
X127469866Y-94130857D02*
X127736533Y-94130857D01*
X127736533Y-94549904D02*
X127736533Y-93749904D01*
X127355580Y-93749904D01*
X126631771Y-94549904D02*
X127088914Y-94549904D01*
X126860342Y-94549904D02*
X126860342Y-93749904D01*
X126936533Y-93864190D01*
X127012723Y-93940380D01*
X127088914Y-93978476D01*
X124796533Y-94473714D02*
X124834628Y-94511809D01*
X124948914Y-94549904D01*
X125025104Y-94549904D01*
X125139390Y-94511809D01*
X125215580Y-94435619D01*
X125253676Y-94359428D01*
X125291771Y-94207047D01*
X125291771Y-94092761D01*
X125253676Y-93940380D01*
X125215580Y-93864190D01*
X125139390Y-93788000D01*
X125025104Y-93749904D01*
X124948914Y-93749904D01*
X124834628Y-93788000D01*
X124796533Y-93826095D01*
X124529866Y-93749904D02*
X123996533Y-93749904D01*
X124339390Y-94549904D01*
X131228191Y-94252297D02*
X131181051Y-94346578D01*
X131181051Y-94393719D01*
X131204621Y-94464429D01*
X131275332Y-94535140D01*
X131346042Y-94558710D01*
X131393183Y-94558710D01*
X131463893Y-94535140D01*
X131652455Y-94346578D01*
X131157480Y-93851603D01*
X130992489Y-94016595D01*
X130968919Y-94087306D01*
X130968919Y-94134446D01*
X130992489Y-94205157D01*
X131039629Y-94252297D01*
X131110340Y-94275867D01*
X131157480Y-94275867D01*
X131228191Y-94252297D01*
X131393183Y-94087306D01*
X130450374Y-94558710D02*
X130544655Y-94464429D01*
X130615365Y-94440859D01*
X130662506Y-94440859D01*
X130780357Y-94464429D01*
X130898208Y-94535140D01*
X131086770Y-94723702D01*
X131110340Y-94794412D01*
X131110340Y-94841553D01*
X131086770Y-94912264D01*
X130992489Y-95006544D01*
X130921778Y-95030115D01*
X130874638Y-95030115D01*
X130803927Y-95006544D01*
X130686076Y-94888693D01*
X130662506Y-94817983D01*
X130662506Y-94770842D01*
X130686076Y-94700132D01*
X130780357Y-94605851D01*
X130851067Y-94582280D01*
X130898208Y-94582280D01*
X130968919Y-94605851D01*
X129396533Y-94338000D02*
X129629866Y-94338000D01*
X129629866Y-94704666D02*
X129629866Y-94004666D01*
X129296533Y-94004666D01*
X128896533Y-94004666D02*
X128829866Y-94004666D01*
X128763200Y-94038000D01*
X128729866Y-94071333D01*
X128696533Y-94138000D01*
X128663200Y-94271333D01*
X128663200Y-94438000D01*
X128696533Y-94571333D01*
X128729866Y-94638000D01*
X128763200Y-94671333D01*
X128829866Y-94704666D01*
X128896533Y-94704666D01*
X128963200Y-94671333D01*
X128996533Y-94638000D01*
X129029866Y-94571333D01*
X129063200Y-94438000D01*
X129063200Y-94271333D01*
X129029866Y-94138000D01*
X128996533Y-94071333D01*
X128963200Y-94038000D01*
X128896533Y-94004666D01*
X120446533Y-94338000D02*
X120346533Y-94371333D01*
X120313200Y-94404666D01*
X120279866Y-94471333D01*
X120279866Y-94571333D01*
X120313200Y-94638000D01*
X120346533Y-94671333D01*
X120413200Y-94704666D01*
X120679866Y-94704666D01*
X120679866Y-94004666D01*
X120446533Y-94004666D01*
X120379866Y-94038000D01*
X120346533Y-94071333D01*
X120313200Y-94138000D01*
X120313200Y-94204666D01*
X120346533Y-94271333D01*
X120379866Y-94304666D01*
X120446533Y-94338000D01*
X120679866Y-94338000D01*
X120046533Y-94004666D02*
X119579866Y-94004666D01*
X119879866Y-94704666D01*
X130236533Y-73201809D02*
X130122247Y-73239904D01*
X129931771Y-73239904D01*
X129855580Y-73201809D01*
X129817485Y-73163714D01*
X129779390Y-73087523D01*
X129779390Y-73011333D01*
X129817485Y-72935142D01*
X129855580Y-72897047D01*
X129931771Y-72858952D01*
X130084152Y-72820857D01*
X130160342Y-72782761D01*
X130198438Y-72744666D01*
X130236533Y-72668476D01*
X130236533Y-72592285D01*
X130198438Y-72516095D01*
X130160342Y-72478000D01*
X130084152Y-72439904D01*
X129893676Y-72439904D01*
X129779390Y-72478000D01*
X129550819Y-72439904D02*
X129093676Y-72439904D01*
X129322247Y-73239904D02*
X129322247Y-72439904D01*
X123281804Y-67379904D02*
X122824661Y-67379904D01*
X123053232Y-68179904D02*
X123053232Y-67379904D01*
X122634185Y-67379904D02*
X122100851Y-68179904D01*
X122100851Y-67379904D02*
X122634185Y-68179904D01*
X121643708Y-67379904D02*
X121567518Y-67379904D01*
X121491328Y-67418000D01*
X121453232Y-67456095D01*
X121415137Y-67532285D01*
X121377042Y-67684666D01*
X121377042Y-67875142D01*
X121415137Y-68027523D01*
X121453232Y-68103714D01*
X121491328Y-68141809D01*
X121567518Y-68179904D01*
X121643708Y-68179904D01*
X121719899Y-68141809D01*
X121757994Y-68103714D01*
X121796089Y-68027523D01*
X121834185Y-67875142D01*
X121834185Y-67684666D01*
X121796089Y-67532285D01*
X121757994Y-67456095D01*
X121719899Y-67418000D01*
X121643708Y-67379904D01*
X120462756Y-67341809D02*
X121148470Y-68370380D01*
X120196089Y-68179904D02*
X120196089Y-67379904D01*
X120005613Y-67379904D01*
X119891328Y-67418000D01*
X119815137Y-67494190D01*
X119777042Y-67570380D01*
X119738947Y-67722761D01*
X119738947Y-67837047D01*
X119777042Y-67989428D01*
X119815137Y-68065619D01*
X119891328Y-68141809D01*
X120005613Y-68179904D01*
X120196089Y-68179904D01*
X119472280Y-67379904D02*
X118977042Y-67379904D01*
X119243708Y-67684666D01*
X119129423Y-67684666D01*
X119053232Y-67722761D01*
X119015137Y-67760857D01*
X118977042Y-67837047D01*
X118977042Y-68027523D01*
X119015137Y-68103714D01*
X119053232Y-68141809D01*
X119129423Y-68179904D01*
X119357994Y-68179904D01*
X119434185Y-68141809D01*
X119472280Y-68103714D01*
X130448009Y-93160857D02*
X130333723Y-93198952D01*
X130295628Y-93237047D01*
X130257533Y-93313238D01*
X130257533Y-93427523D01*
X130295628Y-93503714D01*
X130333723Y-93541809D01*
X130409914Y-93579904D01*
X130714676Y-93579904D01*
X130714676Y-92779904D01*
X130448009Y-92779904D01*
X130371819Y-92818000D01*
X130333723Y-92856095D01*
X130295628Y-92932285D01*
X130295628Y-93008476D01*
X130333723Y-93084666D01*
X130371819Y-93122761D01*
X130448009Y-93160857D01*
X130714676Y-93160857D01*
X129952771Y-92856095D02*
X129914676Y-92818000D01*
X129838485Y-92779904D01*
X129648009Y-92779904D01*
X129571819Y-92818000D01*
X129533723Y-92856095D01*
X129495628Y-92932285D01*
X129495628Y-93008476D01*
X129533723Y-93122761D01*
X129990866Y-93579904D01*
X129495628Y-93579904D01*
X130390866Y-85540857D02*
X130657533Y-85540857D01*
X130657533Y-85959904D02*
X130657533Y-85159904D01*
X130276580Y-85159904D01*
X130048009Y-85159904D02*
X129514676Y-85159904D01*
X129857533Y-85959904D01*
X130390866Y-83000857D02*
X130657533Y-83000857D01*
X130657533Y-83419904D02*
X130657533Y-82619904D01*
X130276580Y-82619904D01*
X129628961Y-82619904D02*
X129781342Y-82619904D01*
X129857533Y-82658000D01*
X129895628Y-82696095D01*
X129971819Y-82810380D01*
X130009914Y-82962761D01*
X130009914Y-83267523D01*
X129971819Y-83343714D01*
X129933723Y-83381809D01*
X129857533Y-83419904D01*
X129705152Y-83419904D01*
X129628961Y-83381809D01*
X129590866Y-83343714D01*
X129552771Y-83267523D01*
X129552771Y-83077047D01*
X129590866Y-83000857D01*
X129628961Y-82962761D01*
X129705152Y-82924666D01*
X129857533Y-82924666D01*
X129933723Y-82962761D01*
X129971819Y-83000857D01*
X130009914Y-83077047D01*
X130390866Y-80460857D02*
X130657533Y-80460857D01*
X130657533Y-80879904D02*
X130657533Y-80079904D01*
X130276580Y-80079904D01*
X129590866Y-80079904D02*
X129971819Y-80079904D01*
X130009914Y-80460857D01*
X129971819Y-80422761D01*
X129895628Y-80384666D01*
X129705152Y-80384666D01*
X129628961Y-80422761D01*
X129590866Y-80460857D01*
X129552771Y-80537047D01*
X129552771Y-80727523D01*
X129590866Y-80803714D01*
X129628961Y-80841809D01*
X129705152Y-80879904D01*
X129895628Y-80879904D01*
X129971819Y-80841809D01*
X130009914Y-80803714D01*
X130448009Y-67760857D02*
X130333723Y-67798952D01*
X130295628Y-67837047D01*
X130257533Y-67913238D01*
X130257533Y-68027523D01*
X130295628Y-68103714D01*
X130333723Y-68141809D01*
X130409914Y-68179904D01*
X130714676Y-68179904D01*
X130714676Y-67379904D01*
X130448009Y-67379904D01*
X130371819Y-67418000D01*
X130333723Y-67456095D01*
X130295628Y-67532285D01*
X130295628Y-67608476D01*
X130333723Y-67684666D01*
X130371819Y-67722761D01*
X130448009Y-67760857D01*
X130714676Y-67760857D01*
X129762295Y-67379904D02*
X129686104Y-67379904D01*
X129609914Y-67418000D01*
X129571819Y-67456095D01*
X129533723Y-67532285D01*
X129495628Y-67684666D01*
X129495628Y-67875142D01*
X129533723Y-68027523D01*
X129571819Y-68103714D01*
X129609914Y-68141809D01*
X129686104Y-68179904D01*
X129762295Y-68179904D01*
X129838485Y-68141809D01*
X129876580Y-68103714D01*
X129914676Y-68027523D01*
X129952771Y-67875142D01*
X129952771Y-67684666D01*
X129914676Y-67532285D01*
X129876580Y-67456095D01*
X129838485Y-67418000D01*
X129762295Y-67379904D01*
X130733723Y-69958000D02*
X130809914Y-69919904D01*
X130924200Y-69919904D01*
X131038485Y-69958000D01*
X131114676Y-70034190D01*
X131152771Y-70110380D01*
X131190866Y-70262761D01*
X131190866Y-70377047D01*
X131152771Y-70529428D01*
X131114676Y-70605619D01*
X131038485Y-70681809D01*
X130924200Y-70719904D01*
X130848009Y-70719904D01*
X130733723Y-70681809D01*
X130695628Y-70643714D01*
X130695628Y-70377047D01*
X130848009Y-70377047D01*
X130352771Y-70719904D02*
X130352771Y-69919904D01*
X129895628Y-70719904D01*
X129895628Y-69919904D01*
X129514676Y-70719904D02*
X129514676Y-69919904D01*
X129324200Y-69919904D01*
X129209914Y-69958000D01*
X129133723Y-70034190D01*
X129095628Y-70110380D01*
X129057533Y-70262761D01*
X129057533Y-70377047D01*
X129095628Y-70529428D01*
X129133723Y-70605619D01*
X129209914Y-70681809D01*
X129324200Y-70719904D01*
X129514676Y-70719904D01*
X131190866Y-74999904D02*
X130924200Y-75799904D01*
X130657533Y-74999904D01*
X129933723Y-75723714D02*
X129971819Y-75761809D01*
X130086104Y-75799904D01*
X130162295Y-75799904D01*
X130276580Y-75761809D01*
X130352771Y-75685619D01*
X130390866Y-75609428D01*
X130428961Y-75457047D01*
X130428961Y-75342761D01*
X130390866Y-75190380D01*
X130352771Y-75114190D01*
X130276580Y-75038000D01*
X130162295Y-74999904D01*
X130086104Y-74999904D01*
X129971819Y-75038000D01*
X129933723Y-75076095D01*
X129133723Y-75723714D02*
X129171819Y-75761809D01*
X129286104Y-75799904D01*
X129362295Y-75799904D01*
X129476580Y-75761809D01*
X129552771Y-75685619D01*
X129590866Y-75609428D01*
X129628961Y-75457047D01*
X129628961Y-75342761D01*
X129590866Y-75190380D01*
X129552771Y-75114190D01*
X129476580Y-75038000D01*
X129362295Y-74999904D01*
X129286104Y-74999904D01*
X129171819Y-75038000D01*
X129133723Y-75076095D01*
X130390866Y-77920857D02*
X130657533Y-77920857D01*
X130657533Y-78339904D02*
X130657533Y-77539904D01*
X130276580Y-77539904D01*
X129628961Y-77806571D02*
X129628961Y-78339904D01*
X129819438Y-77501809D02*
X130009914Y-78073238D01*
X129514676Y-78073238D01*
X130448009Y-88080857D02*
X130333723Y-88118952D01*
X130295628Y-88157047D01*
X130257533Y-88233238D01*
X130257533Y-88347523D01*
X130295628Y-88423714D01*
X130333723Y-88461809D01*
X130409914Y-88499904D01*
X130714676Y-88499904D01*
X130714676Y-87699904D01*
X130448009Y-87699904D01*
X130371819Y-87738000D01*
X130333723Y-87776095D01*
X130295628Y-87852285D01*
X130295628Y-87928476D01*
X130333723Y-88004666D01*
X130371819Y-88042761D01*
X130448009Y-88080857D01*
X130714676Y-88080857D01*
X129495628Y-88499904D02*
X129952771Y-88499904D01*
X129724200Y-88499904D02*
X129724200Y-87699904D01*
X129800390Y-87814190D01*
X129876580Y-87890380D01*
X129952771Y-87928476D01*
X130448009Y-90620857D02*
X130333723Y-90658952D01*
X130295628Y-90697047D01*
X130257533Y-90773238D01*
X130257533Y-90887523D01*
X130295628Y-90963714D01*
X130333723Y-91001809D01*
X130409914Y-91039904D01*
X130714676Y-91039904D01*
X130714676Y-90239904D01*
X130448009Y-90239904D01*
X130371819Y-90278000D01*
X130333723Y-90316095D01*
X130295628Y-90392285D01*
X130295628Y-90468476D01*
X130333723Y-90544666D01*
X130371819Y-90582761D01*
X130448009Y-90620857D01*
X130714676Y-90620857D01*
X129990866Y-90239904D02*
X129495628Y-90239904D01*
X129762295Y-90544666D01*
X129648009Y-90544666D01*
X129571819Y-90582761D01*
X129533723Y-90620857D01*
X129495628Y-90697047D01*
X129495628Y-90887523D01*
X129533723Y-90963714D01*
X129571819Y-91001809D01*
X129648009Y-91039904D01*
X129876580Y-91039904D01*
X129952771Y-91001809D01*
X129990866Y-90963714D01*
X118498902Y-94652991D02*
X118404621Y-94605851D01*
X118357480Y-94605851D01*
X118286770Y-94629421D01*
X118216059Y-94700132D01*
X118192489Y-94770842D01*
X118192489Y-94817983D01*
X118216059Y-94888693D01*
X118404621Y-95077255D01*
X118899596Y-94582280D01*
X118734604Y-94417289D01*
X118663893Y-94393719D01*
X118616753Y-94393719D01*
X118546042Y-94417289D01*
X118498902Y-94464429D01*
X118475332Y-94535140D01*
X118475332Y-94582280D01*
X118498902Y-94652991D01*
X118663893Y-94817983D01*
X118168919Y-93851603D02*
X118404621Y-94087306D01*
X118192489Y-94346578D01*
X118192489Y-94299438D01*
X118168919Y-94228727D01*
X118051067Y-94110876D01*
X117980357Y-94087306D01*
X117933216Y-94087306D01*
X117862506Y-94110876D01*
X117744655Y-94228727D01*
X117721084Y-94299438D01*
X117721084Y-94346578D01*
X117744655Y-94417289D01*
X117862506Y-94535140D01*
X117933216Y-94558710D01*
X117980357Y-94558710D01*
X119526009Y-93160857D02*
X119411723Y-93198952D01*
X119373628Y-93237047D01*
X119335533Y-93313238D01*
X119335533Y-93427523D01*
X119373628Y-93503714D01*
X119411723Y-93541809D01*
X119487914Y-93579904D01*
X119792676Y-93579904D01*
X119792676Y-92779904D01*
X119526009Y-92779904D01*
X119449819Y-92818000D01*
X119411723Y-92856095D01*
X119373628Y-92932285D01*
X119373628Y-93008476D01*
X119411723Y-93084666D01*
X119449819Y-93122761D01*
X119526009Y-93160857D01*
X119792676Y-93160857D01*
X118649819Y-93046571D02*
X118649819Y-93579904D01*
X118840295Y-92741809D02*
X119030771Y-93313238D01*
X118535533Y-93313238D01*
X119754580Y-90620857D02*
X119487914Y-90620857D01*
X119373628Y-91039904D02*
X119754580Y-91039904D01*
X119754580Y-90239904D01*
X119373628Y-90239904D01*
X118687914Y-90239904D02*
X118840295Y-90239904D01*
X118916485Y-90278000D01*
X118954580Y-90316095D01*
X119030771Y-90430380D01*
X119068866Y-90582761D01*
X119068866Y-90887523D01*
X119030771Y-90963714D01*
X118992676Y-91001809D01*
X118916485Y-91039904D01*
X118764104Y-91039904D01*
X118687914Y-91001809D01*
X118649819Y-90963714D01*
X118611723Y-90887523D01*
X118611723Y-90697047D01*
X118649819Y-90620857D01*
X118687914Y-90582761D01*
X118764104Y-90544666D01*
X118916485Y-90544666D01*
X118992676Y-90582761D01*
X119030771Y-90620857D01*
X119068866Y-90697047D01*
X119792676Y-88499904D02*
X119792676Y-87699904D01*
X119602200Y-87699904D01*
X119487914Y-87738000D01*
X119411723Y-87814190D01*
X119373628Y-87890380D01*
X119335533Y-88042761D01*
X119335533Y-88157047D01*
X119373628Y-88309428D01*
X119411723Y-88385619D01*
X119487914Y-88461809D01*
X119602200Y-88499904D01*
X119792676Y-88499904D01*
X119068866Y-87699904D02*
X118535533Y-87699904D01*
X118878390Y-88499904D01*
X119335533Y-85883714D02*
X119373628Y-85921809D01*
X119487914Y-85959904D01*
X119564104Y-85959904D01*
X119678390Y-85921809D01*
X119754580Y-85845619D01*
X119792676Y-85769428D01*
X119830771Y-85617047D01*
X119830771Y-85502761D01*
X119792676Y-85350380D01*
X119754580Y-85274190D01*
X119678390Y-85198000D01*
X119564104Y-85159904D01*
X119487914Y-85159904D01*
X119373628Y-85198000D01*
X119335533Y-85236095D01*
X118649819Y-85159904D02*
X118802200Y-85159904D01*
X118878390Y-85198000D01*
X118916485Y-85236095D01*
X118992676Y-85350380D01*
X119030771Y-85502761D01*
X119030771Y-85807523D01*
X118992676Y-85883714D01*
X118954580Y-85921809D01*
X118878390Y-85959904D01*
X118726009Y-85959904D01*
X118649819Y-85921809D01*
X118611723Y-85883714D01*
X118573628Y-85807523D01*
X118573628Y-85617047D01*
X118611723Y-85540857D01*
X118649819Y-85502761D01*
X118726009Y-85464666D01*
X118878390Y-85464666D01*
X118954580Y-85502761D01*
X118992676Y-85540857D01*
X119030771Y-85617047D01*
X119792676Y-83419904D02*
X119792676Y-82619904D01*
X119602200Y-82619904D01*
X119487914Y-82658000D01*
X119411723Y-82734190D01*
X119373628Y-82810380D01*
X119335533Y-82962761D01*
X119335533Y-83077047D01*
X119373628Y-83229428D01*
X119411723Y-83305619D01*
X119487914Y-83381809D01*
X119602200Y-83419904D01*
X119792676Y-83419904D01*
X118649819Y-82886571D02*
X118649819Y-83419904D01*
X118840295Y-82581809D02*
X119030771Y-83153238D01*
X118535533Y-83153238D01*
X119811723Y-72498000D02*
X119887914Y-72459904D01*
X120002200Y-72459904D01*
X120116485Y-72498000D01*
X120192676Y-72574190D01*
X120230771Y-72650380D01*
X120268866Y-72802761D01*
X120268866Y-72917047D01*
X120230771Y-73069428D01*
X120192676Y-73145619D01*
X120116485Y-73221809D01*
X120002200Y-73259904D01*
X119926009Y-73259904D01*
X119811723Y-73221809D01*
X119773628Y-73183714D01*
X119773628Y-72917047D01*
X119926009Y-72917047D01*
X119430771Y-73259904D02*
X119430771Y-72459904D01*
X118973628Y-73259904D01*
X118973628Y-72459904D01*
X118592676Y-73259904D02*
X118592676Y-72459904D01*
X118402200Y-72459904D01*
X118287914Y-72498000D01*
X118211723Y-72574190D01*
X118173628Y-72650380D01*
X118135533Y-72802761D01*
X118135533Y-72917047D01*
X118173628Y-73069428D01*
X118211723Y-73145619D01*
X118287914Y-73221809D01*
X118402200Y-73259904D01*
X118592676Y-73259904D01*
X119811723Y-75038000D02*
X119887914Y-74999904D01*
X120002200Y-74999904D01*
X120116485Y-75038000D01*
X120192676Y-75114190D01*
X120230771Y-75190380D01*
X120268866Y-75342761D01*
X120268866Y-75457047D01*
X120230771Y-75609428D01*
X120192676Y-75685619D01*
X120116485Y-75761809D01*
X120002200Y-75799904D01*
X119926009Y-75799904D01*
X119811723Y-75761809D01*
X119773628Y-75723714D01*
X119773628Y-75457047D01*
X119926009Y-75457047D01*
X119430771Y-75799904D02*
X119430771Y-74999904D01*
X118973628Y-75799904D01*
X118973628Y-74999904D01*
X118592676Y-75799904D02*
X118592676Y-74999904D01*
X118402200Y-74999904D01*
X118287914Y-75038000D01*
X118211723Y-75114190D01*
X118173628Y-75190380D01*
X118135533Y-75342761D01*
X118135533Y-75457047D01*
X118173628Y-75609428D01*
X118211723Y-75685619D01*
X118287914Y-75761809D01*
X118402200Y-75799904D01*
X118592676Y-75799904D01*
X119792676Y-78339904D02*
X119792676Y-77539904D01*
X119602200Y-77539904D01*
X119487914Y-77578000D01*
X119411723Y-77654190D01*
X119373628Y-77730380D01*
X119335533Y-77882761D01*
X119335533Y-77997047D01*
X119373628Y-78149428D01*
X119411723Y-78225619D01*
X119487914Y-78301809D01*
X119602200Y-78339904D01*
X119792676Y-78339904D01*
X118573628Y-78339904D02*
X119030771Y-78339904D01*
X118802200Y-78339904D02*
X118802200Y-77539904D01*
X118878390Y-77654190D01*
X118954580Y-77730380D01*
X119030771Y-77768476D01*
X119792676Y-80879904D02*
X119792676Y-80079904D01*
X119602200Y-80079904D01*
X119487914Y-80118000D01*
X119411723Y-80194190D01*
X119373628Y-80270380D01*
X119335533Y-80422761D01*
X119335533Y-80537047D01*
X119373628Y-80689428D01*
X119411723Y-80765619D01*
X119487914Y-80841809D01*
X119602200Y-80879904D01*
X119792676Y-80879904D01*
X118840295Y-80079904D02*
X118764104Y-80079904D01*
X118687914Y-80118000D01*
X118649819Y-80156095D01*
X118611723Y-80232285D01*
X118573628Y-80384666D01*
X118573628Y-80575142D01*
X118611723Y-80727523D01*
X118649819Y-80803714D01*
X118687914Y-80841809D01*
X118764104Y-80879904D01*
X118840295Y-80879904D01*
X118916485Y-80841809D01*
X118954580Y-80803714D01*
X118992676Y-80727523D01*
X119030771Y-80575142D01*
X119030771Y-80384666D01*
X118992676Y-80232285D01*
X118954580Y-80156095D01*
X118916485Y-80118000D01*
X118840295Y-80079904D01*
X119792676Y-70719904D02*
X119792676Y-69919904D01*
X119602200Y-69919904D01*
X119487914Y-69958000D01*
X119411723Y-70034190D01*
X119373628Y-70110380D01*
X119335533Y-70262761D01*
X119335533Y-70377047D01*
X119373628Y-70529428D01*
X119411723Y-70605619D01*
X119487914Y-70681809D01*
X119602200Y-70719904D01*
X119792676Y-70719904D01*
X119030771Y-69996095D02*
X118992676Y-69958000D01*
X118916485Y-69919904D01*
X118726009Y-69919904D01*
X118649819Y-69958000D01*
X118611723Y-69996095D01*
X118573628Y-70072285D01*
X118573628Y-70148476D01*
X118611723Y-70262761D01*
X119068866Y-70719904D01*
X118573628Y-70719904D01*
%LPC*%
D15*
X200459599Y-128577340D02*
X200459599Y-66194940D01*
X110822740Y-63340001D02*
X197639940Y-63340001D01*
X110817660Y-131274799D02*
X197637400Y-131249378D01*
X108094801Y-128577340D02*
X108094801Y-66194940D01*
G36*
G01*
X117189107Y-123755293D02*
X117189107Y-123755293D01*
G75*
G02*
X117189107Y-124886663I-565685J-565685D01*
G01*
X117189107Y-124886663D01*
G75*
G02*
X116057737Y-124886663I-565685J565685D01*
G01*
X116057737Y-124886663D01*
G75*
G02*
X116057737Y-123755293I565685J565685D01*
G01*
X116057737Y-123755293D01*
G75*
G02*
X117189107Y-123755293I565685J-565685D01*
G01*
G37*
D11*
G36*
X120215524Y-119597505D02*
G01*
X121346895Y-120728876D01*
X120215524Y-121860247D01*
X119084153Y-120728876D01*
X120215524Y-119597505D01*
G37*
G36*
G01*
X123539107Y-123755293D02*
X123539107Y-123755293D01*
G75*
G02*
X123539107Y-124886663I-565685J-565685D01*
G01*
X123539107Y-124886663D01*
G75*
G02*
X122407737Y-124886663I-565685J565685D01*
G01*
X122407737Y-124886663D01*
G75*
G02*
X122407737Y-123755293I565685J565685D01*
G01*
X122407737Y-123755293D01*
G75*
G02*
X123539107Y-123755293I565685J-565685D01*
G01*
G37*
G36*
X126565524Y-119597505D02*
G01*
X127696895Y-120728876D01*
X126565524Y-121860247D01*
X125434153Y-120728876D01*
X126565524Y-119597505D01*
G37*
G36*
G01*
X129889107Y-123755293D02*
X129889107Y-123755293D01*
G75*
G02*
X129889107Y-124886663I-565685J-565685D01*
G01*
X129889107Y-124886663D01*
G75*
G02*
X128757737Y-124886663I-565685J565685D01*
G01*
X128757737Y-124886663D01*
G75*
G02*
X128757737Y-123755293I565685J565685D01*
G01*
X128757737Y-123755293D01*
G75*
G02*
X129889107Y-123755293I565685J-565685D01*
G01*
G37*
G36*
X132915524Y-119597505D02*
G01*
X134046895Y-120728876D01*
X132915524Y-121860247D01*
X131784153Y-120728876D01*
X132915524Y-119597505D01*
G37*
G36*
G01*
X119377467Y-114230293D02*
X119377467Y-114230293D01*
G75*
G02*
X120508837Y-114230293I565685J-565685D01*
G01*
X120508837Y-114230293D01*
G75*
G02*
X120508837Y-115361663I-565685J-565685D01*
G01*
X120508837Y-115361663D01*
G75*
G02*
X119377467Y-115361663I-565685J565685D01*
G01*
X119377467Y-115361663D01*
G75*
G02*
X119377467Y-114230293I565685J565685D01*
G01*
G37*
G36*
X115219679Y-111203876D02*
G01*
X116351050Y-110072505D01*
X117482421Y-111203876D01*
X116351050Y-112335247D01*
X115219679Y-111203876D01*
G37*
G36*
G01*
X125831743Y-114230293D02*
X125831743Y-114230293D01*
G75*
G02*
X126963113Y-114230293I565685J-565685D01*
G01*
X126963113Y-114230293D01*
G75*
G02*
X126963113Y-115361663I-565685J-565685D01*
G01*
X126963113Y-115361663D01*
G75*
G02*
X125831743Y-115361663I-565685J565685D01*
G01*
X125831743Y-115361663D01*
G75*
G02*
X125831743Y-114230293I565685J565685D01*
G01*
G37*
G36*
X121673955Y-111203876D02*
G01*
X122805326Y-110072505D01*
X123936697Y-111203876D01*
X122805326Y-112335247D01*
X121673955Y-111203876D01*
G37*
G36*
G01*
X132161423Y-114230293D02*
X132161423Y-114230293D01*
G75*
G02*
X133292793Y-114230293I565685J-565685D01*
G01*
X133292793Y-114230293D01*
G75*
G02*
X133292793Y-115361663I-565685J-565685D01*
G01*
X133292793Y-115361663D01*
G75*
G02*
X132161423Y-115361663I-565685J565685D01*
G01*
X132161423Y-115361663D01*
G75*
G02*
X132161423Y-114230293I565685J565685D01*
G01*
G37*
G36*
X128003635Y-111203876D02*
G01*
X129135006Y-110072505D01*
X130266377Y-111203876D01*
X129135006Y-112335247D01*
X128003635Y-111203876D01*
G37*
G36*
G01*
X132349839Y-102258395D02*
X132349839Y-102258395D01*
G75*
G02*
X132349839Y-101127025I565685J565685D01*
G01*
X132349839Y-101127025D01*
G75*
G02*
X133481209Y-101127025I565685J-565685D01*
G01*
X133481209Y-101127025D01*
G75*
G02*
X133481209Y-102258395I-565685J-565685D01*
G01*
X133481209Y-102258395D01*
G75*
G02*
X132349839Y-102258395I-565685J565685D01*
G01*
G37*
G36*
X129323422Y-106416183D02*
G01*
X128192051Y-105284812D01*
X129323422Y-104153441D01*
X130454793Y-105284812D01*
X129323422Y-106416183D01*
G37*
G36*
G01*
X125999839Y-102258395D02*
X125999839Y-102258395D01*
G75*
G02*
X125999839Y-101127025I565685J565685D01*
G01*
X125999839Y-101127025D01*
G75*
G02*
X127131209Y-101127025I565685J-565685D01*
G01*
X127131209Y-101127025D01*
G75*
G02*
X127131209Y-102258395I-565685J-565685D01*
G01*
X127131209Y-102258395D01*
G75*
G02*
X125999839Y-102258395I-565685J565685D01*
G01*
G37*
G36*
X122973422Y-106416183D02*
G01*
X121842051Y-105284812D01*
X122973422Y-104153441D01*
X124104793Y-105284812D01*
X122973422Y-106416183D01*
G37*
G36*
G01*
X119649839Y-102258395D02*
X119649839Y-102258395D01*
G75*
G02*
X119649839Y-101127025I565685J565685D01*
G01*
X119649839Y-101127025D01*
G75*
G02*
X120781209Y-101127025I565685J-565685D01*
G01*
X120781209Y-101127025D01*
G75*
G02*
X120781209Y-102258395I-565685J-565685D01*
G01*
X120781209Y-102258395D01*
G75*
G02*
X119649839Y-102258395I-565685J565685D01*
G01*
G37*
G36*
X116623422Y-106416183D02*
G01*
X115492051Y-105284812D01*
X116623422Y-104153441D01*
X117754793Y-105284812D01*
X116623422Y-106416183D01*
G37*
D16*
X147815300Y-73177400D03*
D17*
X145275300Y-78257400D03*
D16*
X141465300Y-75717400D03*
D18*
X140195300Y-78257400D03*
X150355300Y-78257400D03*
D16*
X166865300Y-73177400D03*
D17*
X164325300Y-78257400D03*
D16*
X160515300Y-75717400D03*
D18*
X159245300Y-78257400D03*
X169405300Y-78257400D03*
D16*
X185915300Y-73177400D03*
D17*
X183375300Y-78257400D03*
D16*
X179565300Y-75717400D03*
D18*
X178295300Y-78257400D03*
X188455300Y-78257400D03*
D16*
X147815300Y-92227400D03*
D17*
X145275300Y-97307400D03*
D16*
X141465300Y-94767400D03*
D18*
X140195300Y-97307400D03*
X150355300Y-97307400D03*
D16*
X185915300Y-92227400D03*
D17*
X183375300Y-97307400D03*
D16*
X179565300Y-94767400D03*
D18*
X178295300Y-97307400D03*
X188455300Y-97307400D03*
D16*
X166865300Y-111277400D03*
D17*
X164325300Y-116357400D03*
D16*
X160515300Y-113817400D03*
D18*
X159245300Y-116357400D03*
X169405300Y-116357400D03*
D16*
X185915300Y-111277400D03*
D17*
X183375300Y-116357400D03*
D16*
X179565300Y-113817400D03*
D18*
X178295300Y-116357400D03*
X188455300Y-116357400D03*
D16*
X147815300Y-111277400D03*
D17*
X145275300Y-116357400D03*
D16*
X141465300Y-113817400D03*
D18*
X140195300Y-116357400D03*
X150355300Y-116357400D03*
D16*
X166865300Y-92227400D03*
D17*
X164325300Y-97307400D03*
D16*
X160515300Y-94767400D03*
D18*
X159245300Y-97307400D03*
X169405300Y-97307400D03*
D19*
X119583200Y-95986600D03*
X122123200Y-95529400D03*
X124663200Y-95986600D03*
X127203200Y-95529400D03*
X129743200Y-95986600D03*
X132511800Y-67818000D03*
X117271800Y-95758000D03*
X132054600Y-70358000D03*
X132511800Y-72898000D03*
X132054600Y-75438000D03*
X132511800Y-77978000D03*
X132054600Y-80518000D03*
X132511800Y-83058000D03*
X132054600Y-85598000D03*
X132511800Y-88138000D03*
X132054600Y-90678000D03*
X132511800Y-93218000D03*
X132054600Y-95758000D03*
X116814600Y-93218000D03*
X117271800Y-90678000D03*
X116814600Y-88138000D03*
X117271800Y-85598000D03*
X116814600Y-83058000D03*
X117271800Y-80518000D03*
X116814600Y-77978000D03*
X117271800Y-75438000D03*
X116814600Y-72898000D03*
X117271800Y-70358000D03*
D20*
X116814600Y-67818000D03*
D21*
X110794800Y-66040000D03*
X197759600Y-66040000D03*
X110794800Y-128574800D03*
X197713055Y-128549400D03*
M02*
