M48
; DRILL file {KiCad (5.1.10-1-10_14)} date Monday, September 20, 2021 at 03:56:23 PM
; FORMAT={-:-/ absolute / metric / decimal}
; #@! TF.CreationDate,2021-09-20T15:56:23+08:00
; #@! TF.GenerationSoftware,Kicad,Pcbnew,(5.1.10-1-10_14)
; #@! TF.FileFunction,NonPlated,1,2,NPTH
FMAT,2
METRIC
T1C1.750
T2C3.988
%
G90
G05
T1
X140.195Y-78.257
X140.195Y-97.307
X140.195Y-116.357
X150.355Y-78.257
X150.355Y-97.307
X150.355Y-116.357
X159.245Y-78.257
X159.245Y-97.307
X159.245Y-116.357
X169.405Y-78.257
X169.405Y-97.307
X169.405Y-116.357
X178.295Y-78.257
X178.295Y-97.307
X178.295Y-116.357
X188.455Y-78.257
X188.455Y-97.307
X188.455Y-116.357
T2
X145.275Y-78.257
X145.275Y-97.307
X145.275Y-116.357
X164.325Y-78.257
X164.325Y-97.307
X164.325Y-116.357
X183.375Y-78.257
X183.375Y-97.307
X183.375Y-116.357
T0
M30
