M48
METRIC,TZ
T1C0.400
T2C0.600
T3C1.470
T4C3.200
%
G90
G05
T1
X54536Y-50246
X57015Y-38852
X57831Y-71577
X58550Y-40003
X59355Y-38852
X59950Y-40816
X61890Y-50266
X61951Y-40816
X62575Y-38852
X63450Y-40003
X64437Y-38852
X64887Y-45598
X67381Y-51222
X67394Y-53454
X67394Y-55856
X67394Y-57439
X68613Y-51979
X68643Y-56656
X68643Y-58257
X70724Y-29764
X79985Y-33965
X89794Y-29764
X99035Y-33965
X108864Y-29764
X118086Y-33965
X127935Y-29761
X137137Y-33965
T3
X75226Y-42546
X75226Y-61596
X81576Y-40006
X81576Y-59056
X94276Y-42546
X94276Y-61596
X100626Y-40006
X100626Y-59056
X113326Y-42546
X113326Y-61596
X119676Y-40006
X119676Y-59056
X132376Y-42546
X132376Y-61596
X138726Y-40006
X138726Y-59056
T4
X46529Y-30378
X46529Y-78791
X150901Y-30378
X150901Y-78791
T2
G00X56654Y-28668
M15
G01X56654Y-28068
M16
G05
G00X56654Y-33098
M15
G01X56654Y-31998
M16
G05
G00X65294Y-28668
M15
G01X65294Y-28068
M16
G05
G00X65294Y-33098
M15
G01X65294Y-31998
M16
G05
T0
M30
