M48
METRIC,TZ
T1C0.650
T2C1.750
T3C3.988
%
G90
G05
T1
X58022Y-32089
X63802Y-32089
T2
X73956Y-45086
X73956Y-64136
X84116Y-45086
X84116Y-64136
X93006Y-45086
X93006Y-64136
X103166Y-45086
X103166Y-64136
X112056Y-45086
X112056Y-64136
X122216Y-45086
X122216Y-64136
X131106Y-45086
X131106Y-64136
X141266Y-45086
X141266Y-64136
T3
X79036Y-45086
X79036Y-64136
X98086Y-45086
X98086Y-64136
X117136Y-45086
X117136Y-64136
X136186Y-45086
X136186Y-64136
T0
M30
