M48
METRIC,TZ
T1C0.400
T2C0.600
T3C1.470
T4C3.200
%
G90
G05
T1
X57015Y-35352
X58550Y-36503
X59116Y-50668
X59116Y-52372
X59355Y-35352
X61890Y-46766
X62575Y-35352
X63450Y-36576
X64437Y-35352
X67216Y-46606
X67249Y-69025
X67268Y-50143
X68158Y-52380
X68174Y-53939
X68268Y-47358
X69482Y-53162
X69482Y-54757
X70724Y-29764
X79985Y-33965
X89850Y-29764
X99088Y-33965
X108920Y-29764
X118217Y-33965
X127935Y-29761
X137137Y-33965
T3
X75226Y-42546
X75226Y-61596
X81576Y-40006
X81576Y-59056
X94276Y-42546
X94276Y-61596
X100626Y-40006
X100626Y-59056
X113326Y-42546
X113326Y-61596
X119676Y-40006
X119676Y-59056
X132376Y-42546
X132376Y-61596
X138726Y-40006
X138726Y-59056
T4
X46529Y-30378
X46529Y-78791
X150901Y-30378
X150901Y-78791
T2
G00X56654Y-28668
M15
G01X56654Y-28068
M16
G05
G00X56654Y-33098
M15
G01X56654Y-31998
M16
G05
G00X65294Y-28668
M15
G01X65294Y-28068
M16
G05
G00X65294Y-33098
M15
G01X65294Y-31998
M16
G05
T0
M30
