M48
METRIC,TZ
T1C0.400
T2C0.600
T3C1.470
T4C3.200
%
G90
G05
T1
X56040Y-61128
X58434Y-35745
X59969Y-41656
X61658Y-39766
X63406Y-35745
X67704Y-29759
X67804Y-49956
X67871Y-52421
X67884Y-53960
X68553Y-33960
X68910Y-53152
X68910Y-54762
X70724Y-29764
X79985Y-33965
X89850Y-29764
X99088Y-33965
X108920Y-29764
X118217Y-33965
X127935Y-29761
X137137Y-33965
T3
X75226Y-42546
X75226Y-61596
X81576Y-40006
X81576Y-59056
X94276Y-42546
X94276Y-61596
X100626Y-40006
X100626Y-59056
X113326Y-42546
X113326Y-61596
X119676Y-40006
X119676Y-59056
X132376Y-42546
X132376Y-61596
X138726Y-40006
X138726Y-59056
T4
X46529Y-30378
X46529Y-78791
X150901Y-30378
X150901Y-78791
T2
G00X56592Y-28739
M15
G01X56592Y-28139
M16
G05
G00X56592Y-33169
M15
G01X56592Y-32069
M16
G05
G00X65232Y-28739
M15
G01X65232Y-28139
M16
G05
G00X65232Y-33169
M15
G01X65232Y-32069
M16
G05
T0
M30
