G04 #@! TF.GenerationSoftware,KiCad,Pcbnew,(5.1.10-1-10_14)*
G04 #@! TF.CreationDate,2021-08-02T22:06:10+08:00*
G04 #@! TF.ProjectId,SMP v.2,534d5020-762e-4322-9e6b-696361645f70,rev?*
G04 #@! TF.SameCoordinates,Original*
G04 #@! TF.FileFunction,Soldermask,Top*
G04 #@! TF.FilePolarity,Negative*
%FSLAX46Y46*%
G04 Gerber Fmt 4.6, Leading zero omitted, Abs format (unit mm)*
G04 Created by KiCad (PCBNEW (5.1.10-1-10_14)) date 2021-08-02 22:06:10*
%MOMM*%
%LPD*%
G01*
G04 APERTURE LIST*
%ADD10C,4.400000*%
%ADD11C,1.750000*%
%ADD12C,3.987800*%
%ADD13C,1.752600*%
%ADD14R,1.752600X1.752600*%
%ADD15R,0.900000X1.200000*%
G04 APERTURE END LIST*
D10*
X150901400Y-30378400D03*
X37388800Y-30378400D03*
X150901400Y-78790800D03*
X37388800Y-78790800D03*
D11*
X103165900Y-64136300D03*
X93005900Y-64136300D03*
D12*
X98085900Y-64136300D03*
D11*
X122215900Y-45086300D03*
X112055900Y-45086300D03*
D12*
X117135900Y-45086300D03*
D13*
X50292000Y-58521600D03*
X52832000Y-58521600D03*
X55372000Y-58521600D03*
X57912000Y-58521600D03*
X60452000Y-58521600D03*
X62992000Y-30581600D03*
X47980600Y-58521600D03*
X62992000Y-33121600D03*
X62992000Y-35661600D03*
X62992000Y-38201600D03*
X62992000Y-40741600D03*
X62992000Y-43281600D03*
X62992000Y-45821600D03*
X62992000Y-48361600D03*
X62992000Y-50901600D03*
X62992000Y-53441600D03*
X62992000Y-55981600D03*
X62992000Y-58521600D03*
X47752000Y-55981600D03*
X47752000Y-53441600D03*
X47752000Y-50901600D03*
X47752000Y-48361600D03*
X47752000Y-45821600D03*
X47752000Y-43281600D03*
X47752000Y-40741600D03*
X47752000Y-38201600D03*
X47752000Y-35661600D03*
X47752000Y-33121600D03*
D14*
X47752000Y-30581600D03*
D11*
X141265900Y-64136300D03*
X131105900Y-64136300D03*
D12*
X136185900Y-64136300D03*
D11*
X122215900Y-64136300D03*
X112055900Y-64136300D03*
D12*
X117135900Y-64136300D03*
D11*
X84115900Y-64136300D03*
X73955900Y-64136300D03*
D12*
X79035900Y-64136300D03*
D11*
X141265900Y-45086300D03*
X131105900Y-45086300D03*
D12*
X136185900Y-45086300D03*
D11*
X103165900Y-45086300D03*
X93005900Y-45086300D03*
D12*
X98085900Y-45086300D03*
D11*
X84115900Y-45086300D03*
X73955900Y-45086300D03*
D12*
X79035900Y-45086300D03*
D15*
X142535900Y-31592550D03*
X139235900Y-31592550D03*
X123485900Y-31592550D03*
X120185900Y-31592550D03*
X104560900Y-31592550D03*
X101260900Y-31592550D03*
X85448400Y-31592550D03*
X82148400Y-31592550D03*
X133010900Y-31592550D03*
X129710900Y-31592550D03*
X114085900Y-31592550D03*
X110785900Y-31592550D03*
X95035900Y-31592550D03*
X91735900Y-31592550D03*
X75985900Y-31592550D03*
X72685900Y-31592550D03*
M02*
