M48
; DRILL file {KiCad (5.1.10-1-10_14)} date Thursday, August 19, 2021 at 12:02:55 PM
; FORMAT={-:-/ absolute / metric / decimal}
; #@! TF.CreationDate,2021-08-19T12:02:55+08:00
; #@! TF.GenerationSoftware,Kicad,Pcbnew,(5.1.10-1-10_14)
; #@! TF.FileFunction,Plated,1,2,PTH
FMAT,2
METRIC
T1C0.400
T2C1.092
T3C1.470
T4C2.200
%
G90
G05
T1
X70.371Y-29.197
X89.332Y-29.197
X108.433Y-29.197
X127.394Y-29.197
T2
X47.752Y-30.582
X47.752Y-33.122
X47.752Y-35.662
X47.752Y-38.202
X47.752Y-40.742
X47.752Y-43.282
X47.752Y-45.822
X47.752Y-48.362
X47.752Y-50.902
X47.752Y-53.442
X47.752Y-55.982
X47.981Y-58.522
X50.292Y-58.522
X52.832Y-58.522
X55.372Y-58.522
X57.912Y-58.522
X60.452Y-58.522
X62.992Y-30.582
X62.992Y-33.122
X62.992Y-35.662
X62.992Y-38.202
X62.992Y-40.742
X62.992Y-43.282
X62.992Y-45.822
X62.992Y-48.362
X62.992Y-50.902
X62.992Y-53.442
X62.992Y-55.982
X62.992Y-58.522
T3
X75.226Y-42.546
X75.226Y-61.596
X81.576Y-40.006
X81.576Y-59.056
X94.276Y-42.546
X94.276Y-61.596
X100.626Y-40.006
X100.626Y-59.056
X113.326Y-42.546
X113.326Y-61.596
X119.676Y-40.006
X119.676Y-59.056
X132.376Y-42.546
X132.376Y-61.596
X138.726Y-40.006
X138.726Y-59.056
T4
X37.389Y-30.378
X37.389Y-78.791
X150.901Y-30.378
X150.901Y-78.791
T0
M30
