G04 #@! TF.GenerationSoftware,KiCad,Pcbnew,(5.1.10-1-10_14)*
G04 #@! TF.CreationDate,2021-08-26T22:34:32+08:00*
G04 #@! TF.ProjectId,SMP v.2,534d5020-762e-4322-9e6b-696361645f70,rev?*
G04 #@! TF.SameCoordinates,Original*
G04 #@! TF.FileFunction,Soldermask,Bot*
G04 #@! TF.FilePolarity,Negative*
%FSLAX46Y46*%
G04 Gerber Fmt 4.6, Leading zero omitted, Abs format (unit mm)*
G04 Created by KiCad (PCBNEW (5.1.10-1-10_14)) date 2021-08-26 22:34:32*
%MOMM*%
%LPD*%
G01*
G04 APERTURE LIST*
%ADD10C,0.500000*%
%ADD11C,1.750000*%
%ADD12C,2.250000*%
%ADD13C,3.987800*%
%ADD14C,6.400000*%
%ADD15O,1.000000X1.600000*%
%ADD16C,0.650000*%
%ADD17O,1.000000X2.100000*%
G04 APERTURE END LIST*
D10*
X155778200Y-25488900D02*
X155778200Y-83677760D01*
X41640760Y-83677760D02*
X155778200Y-83677760D01*
X41641840Y-25488900D02*
X41640760Y-83677760D01*
X41641840Y-25488900D02*
X155778200Y-25488900D01*
D11*
X141265900Y-64136300D03*
X131105900Y-64136300D03*
D12*
X132375900Y-61596300D03*
D13*
X136185900Y-64136300D03*
D12*
X138725900Y-59056300D03*
D14*
X46528800Y-78790800D03*
X46528800Y-30378400D03*
X150901400Y-78790800D03*
X150901400Y-30378400D03*
D15*
X56592400Y-28439400D03*
D16*
X58022400Y-32089400D03*
D15*
X65232400Y-28439400D03*
D16*
X63802400Y-32089400D03*
D17*
X65232400Y-32619400D03*
X56592400Y-32619400D03*
D11*
X122215900Y-64136300D03*
X112055900Y-64136300D03*
D12*
X113325900Y-61596300D03*
D13*
X117135900Y-64136300D03*
D12*
X119675900Y-59056300D03*
D11*
X103165900Y-64136300D03*
X93005900Y-64136300D03*
D12*
X94275900Y-61596300D03*
D13*
X98085900Y-64136300D03*
D12*
X100625900Y-59056300D03*
D11*
X84115900Y-64136300D03*
X73955900Y-64136300D03*
D12*
X75225900Y-61596300D03*
D13*
X79035900Y-64136300D03*
D12*
X81575900Y-59056300D03*
D11*
X141265900Y-45086300D03*
X131105900Y-45086300D03*
D12*
X132375900Y-42546300D03*
D13*
X136185900Y-45086300D03*
D12*
X138725900Y-40006300D03*
D11*
X122215900Y-45086300D03*
X112055900Y-45086300D03*
D12*
X113325900Y-42546300D03*
D13*
X117135900Y-45086300D03*
D12*
X119675900Y-40006300D03*
D11*
X103165900Y-45086300D03*
X93005900Y-45086300D03*
D12*
X94275900Y-42546300D03*
D13*
X98085900Y-45086300D03*
D12*
X100625900Y-40006300D03*
D11*
X84115900Y-45086300D03*
X73955900Y-45086300D03*
D12*
X75225900Y-42546300D03*
D13*
X79035900Y-45086300D03*
D12*
X81575900Y-40006300D03*
M02*
