G04 #@! TF.GenerationSoftware,KiCad,Pcbnew,(5.1.10-1-10_14)*
G04 #@! TF.CreationDate,2021-08-02T22:06:10+08:00*
G04 #@! TF.ProjectId,SMP v.2,534d5020-762e-4322-9e6b-696361645f70,rev?*
G04 #@! TF.SameCoordinates,Original*
G04 #@! TF.FileFunction,Copper,L1,Top*
G04 #@! TF.FilePolarity,Positive*
%FSLAX46Y46*%
G04 Gerber Fmt 4.6, Leading zero omitted, Abs format (unit mm)*
G04 Created by KiCad (PCBNEW (5.1.10-1-10_14)) date 2021-08-02 22:06:10*
%MOMM*%
%LPD*%
G01*
G04 APERTURE LIST*
G04 #@! TA.AperFunction,ComponentPad*
%ADD10C,4.400000*%
G04 #@! TD*
G04 #@! TA.AperFunction,ComponentPad*
%ADD11C,2.250000*%
G04 #@! TD*
G04 #@! TA.AperFunction,ComponentPad*
%ADD12C,1.752600*%
G04 #@! TD*
G04 #@! TA.AperFunction,ComponentPad*
%ADD13R,1.752600X1.752600*%
G04 #@! TD*
G04 #@! TA.AperFunction,SMDPad,CuDef*
%ADD14R,0.900000X1.200000*%
G04 #@! TD*
G04 #@! TA.AperFunction,ViaPad*
%ADD15C,0.800000*%
G04 #@! TD*
G04 #@! TA.AperFunction,Conductor*
%ADD16C,0.254000*%
G04 #@! TD*
G04 #@! TA.AperFunction,Conductor*
%ADD17C,0.250000*%
G04 #@! TD*
G04 #@! TA.AperFunction,Conductor*
%ADD18C,0.100000*%
G04 #@! TD*
G04 APERTURE END LIST*
D10*
X150901400Y-30378400D03*
X37388800Y-30378400D03*
X150901400Y-78790800D03*
X37388800Y-78790800D03*
D11*
X95585900Y-60136300D03*
G04 #@! TA.AperFunction,ComponentPad*
G36*
G01*
X93524588Y-62433650D02*
X93524583Y-62433645D01*
G75*
G02*
X93438555Y-60844983I751317J837345D01*
G01*
X94748557Y-59384983D01*
G75*
G02*
X96337219Y-59298955I837345J-751317D01*
G01*
X96337219Y-59298955D01*
G75*
G02*
X96423247Y-60887617I-751317J-837345D01*
G01*
X95113245Y-62347617D01*
G75*
G02*
X93524583Y-62433645I-837345J751317D01*
G01*
G37*
G04 #@! TD.AperFunction*
X100625900Y-59056300D03*
G04 #@! TA.AperFunction,ComponentPad*
G36*
G01*
X100509383Y-60758695D02*
X100508497Y-60758634D01*
G75*
G02*
X99463566Y-59558897I77403J1122334D01*
G01*
X99503566Y-58978897D01*
G75*
G02*
X100703303Y-57933966I1122334J-77403D01*
G01*
X100703303Y-57933966D01*
G75*
G02*
X101748234Y-59133703I-77403J-1122334D01*
G01*
X101708234Y-59713703D01*
G75*
G02*
X100508497Y-60758634I-1122334J77403D01*
G01*
G37*
G04 #@! TD.AperFunction*
X114635900Y-41086300D03*
G04 #@! TA.AperFunction,ComponentPad*
G36*
G01*
X112574588Y-43383650D02*
X112574583Y-43383645D01*
G75*
G02*
X112488555Y-41794983I751317J837345D01*
G01*
X113798557Y-40334983D01*
G75*
G02*
X115387219Y-40248955I837345J-751317D01*
G01*
X115387219Y-40248955D01*
G75*
G02*
X115473247Y-41837617I-751317J-837345D01*
G01*
X114163245Y-43297617D01*
G75*
G02*
X112574583Y-43383645I-837345J751317D01*
G01*
G37*
G04 #@! TD.AperFunction*
X119675900Y-40006300D03*
G04 #@! TA.AperFunction,ComponentPad*
G36*
G01*
X119559383Y-41708695D02*
X119558497Y-41708634D01*
G75*
G02*
X118513566Y-40508897I77403J1122334D01*
G01*
X118553566Y-39928897D01*
G75*
G02*
X119753303Y-38883966I1122334J-77403D01*
G01*
X119753303Y-38883966D01*
G75*
G02*
X120798234Y-40083703I-77403J-1122334D01*
G01*
X120758234Y-40663703D01*
G75*
G02*
X119558497Y-41708634I-1122334J77403D01*
G01*
G37*
G04 #@! TD.AperFunction*
D12*
X50292000Y-58521600D03*
X52832000Y-58521600D03*
X55372000Y-58521600D03*
X57912000Y-58521600D03*
X60452000Y-58521600D03*
X62992000Y-30581600D03*
X47980600Y-58521600D03*
X62992000Y-33121600D03*
X62992000Y-35661600D03*
X62992000Y-38201600D03*
X62992000Y-40741600D03*
X62992000Y-43281600D03*
X62992000Y-45821600D03*
X62992000Y-48361600D03*
X62992000Y-50901600D03*
X62992000Y-53441600D03*
X62992000Y-55981600D03*
X62992000Y-58521600D03*
X47752000Y-55981600D03*
X47752000Y-53441600D03*
X47752000Y-50901600D03*
X47752000Y-48361600D03*
X47752000Y-45821600D03*
X47752000Y-43281600D03*
X47752000Y-40741600D03*
X47752000Y-38201600D03*
X47752000Y-35661600D03*
X47752000Y-33121600D03*
D13*
X47752000Y-30581600D03*
D11*
X133685900Y-60136300D03*
G04 #@! TA.AperFunction,ComponentPad*
G36*
G01*
X131624588Y-62433650D02*
X131624583Y-62433645D01*
G75*
G02*
X131538555Y-60844983I751317J837345D01*
G01*
X132848557Y-59384983D01*
G75*
G02*
X134437219Y-59298955I837345J-751317D01*
G01*
X134437219Y-59298955D01*
G75*
G02*
X134523247Y-60887617I-751317J-837345D01*
G01*
X133213245Y-62347617D01*
G75*
G02*
X131624583Y-62433645I-837345J751317D01*
G01*
G37*
G04 #@! TD.AperFunction*
X138725900Y-59056300D03*
G04 #@! TA.AperFunction,ComponentPad*
G36*
G01*
X138609383Y-60758695D02*
X138608497Y-60758634D01*
G75*
G02*
X137563566Y-59558897I77403J1122334D01*
G01*
X137603566Y-58978897D01*
G75*
G02*
X138803303Y-57933966I1122334J-77403D01*
G01*
X138803303Y-57933966D01*
G75*
G02*
X139848234Y-59133703I-77403J-1122334D01*
G01*
X139808234Y-59713703D01*
G75*
G02*
X138608497Y-60758634I-1122334J77403D01*
G01*
G37*
G04 #@! TD.AperFunction*
X114635900Y-60136300D03*
G04 #@! TA.AperFunction,ComponentPad*
G36*
G01*
X112574588Y-62433650D02*
X112574583Y-62433645D01*
G75*
G02*
X112488555Y-60844983I751317J837345D01*
G01*
X113798557Y-59384983D01*
G75*
G02*
X115387219Y-59298955I837345J-751317D01*
G01*
X115387219Y-59298955D01*
G75*
G02*
X115473247Y-60887617I-751317J-837345D01*
G01*
X114163245Y-62347617D01*
G75*
G02*
X112574583Y-62433645I-837345J751317D01*
G01*
G37*
G04 #@! TD.AperFunction*
X119675900Y-59056300D03*
G04 #@! TA.AperFunction,ComponentPad*
G36*
G01*
X119559383Y-60758695D02*
X119558497Y-60758634D01*
G75*
G02*
X118513566Y-59558897I77403J1122334D01*
G01*
X118553566Y-58978897D01*
G75*
G02*
X119753303Y-57933966I1122334J-77403D01*
G01*
X119753303Y-57933966D01*
G75*
G02*
X120798234Y-59133703I-77403J-1122334D01*
G01*
X120758234Y-59713703D01*
G75*
G02*
X119558497Y-60758634I-1122334J77403D01*
G01*
G37*
G04 #@! TD.AperFunction*
X76535900Y-60136300D03*
G04 #@! TA.AperFunction,ComponentPad*
G36*
G01*
X74474588Y-62433650D02*
X74474583Y-62433645D01*
G75*
G02*
X74388555Y-60844983I751317J837345D01*
G01*
X75698557Y-59384983D01*
G75*
G02*
X77287219Y-59298955I837345J-751317D01*
G01*
X77287219Y-59298955D01*
G75*
G02*
X77373247Y-60887617I-751317J-837345D01*
G01*
X76063245Y-62347617D01*
G75*
G02*
X74474583Y-62433645I-837345J751317D01*
G01*
G37*
G04 #@! TD.AperFunction*
X81575900Y-59056300D03*
G04 #@! TA.AperFunction,ComponentPad*
G36*
G01*
X81459383Y-60758695D02*
X81458497Y-60758634D01*
G75*
G02*
X80413566Y-59558897I77403J1122334D01*
G01*
X80453566Y-58978897D01*
G75*
G02*
X81653303Y-57933966I1122334J-77403D01*
G01*
X81653303Y-57933966D01*
G75*
G02*
X82698234Y-59133703I-77403J-1122334D01*
G01*
X82658234Y-59713703D01*
G75*
G02*
X81458497Y-60758634I-1122334J77403D01*
G01*
G37*
G04 #@! TD.AperFunction*
X133685900Y-41086300D03*
G04 #@! TA.AperFunction,ComponentPad*
G36*
G01*
X131624588Y-43383650D02*
X131624583Y-43383645D01*
G75*
G02*
X131538555Y-41794983I751317J837345D01*
G01*
X132848557Y-40334983D01*
G75*
G02*
X134437219Y-40248955I837345J-751317D01*
G01*
X134437219Y-40248955D01*
G75*
G02*
X134523247Y-41837617I-751317J-837345D01*
G01*
X133213245Y-43297617D01*
G75*
G02*
X131624583Y-43383645I-837345J751317D01*
G01*
G37*
G04 #@! TD.AperFunction*
X138725900Y-40006300D03*
G04 #@! TA.AperFunction,ComponentPad*
G36*
G01*
X138609383Y-41708695D02*
X138608497Y-41708634D01*
G75*
G02*
X137563566Y-40508897I77403J1122334D01*
G01*
X137603566Y-39928897D01*
G75*
G02*
X138803303Y-38883966I1122334J-77403D01*
G01*
X138803303Y-38883966D01*
G75*
G02*
X139848234Y-40083703I-77403J-1122334D01*
G01*
X139808234Y-40663703D01*
G75*
G02*
X138608497Y-41708634I-1122334J77403D01*
G01*
G37*
G04 #@! TD.AperFunction*
X95585900Y-41086300D03*
G04 #@! TA.AperFunction,ComponentPad*
G36*
G01*
X93524588Y-43383650D02*
X93524583Y-43383645D01*
G75*
G02*
X93438555Y-41794983I751317J837345D01*
G01*
X94748557Y-40334983D01*
G75*
G02*
X96337219Y-40248955I837345J-751317D01*
G01*
X96337219Y-40248955D01*
G75*
G02*
X96423247Y-41837617I-751317J-837345D01*
G01*
X95113245Y-43297617D01*
G75*
G02*
X93524583Y-43383645I-837345J751317D01*
G01*
G37*
G04 #@! TD.AperFunction*
X100625900Y-40006300D03*
G04 #@! TA.AperFunction,ComponentPad*
G36*
G01*
X100509383Y-41708695D02*
X100508497Y-41708634D01*
G75*
G02*
X99463566Y-40508897I77403J1122334D01*
G01*
X99503566Y-39928897D01*
G75*
G02*
X100703303Y-38883966I1122334J-77403D01*
G01*
X100703303Y-38883966D01*
G75*
G02*
X101748234Y-40083703I-77403J-1122334D01*
G01*
X101708234Y-40663703D01*
G75*
G02*
X100508497Y-41708634I-1122334J77403D01*
G01*
G37*
G04 #@! TD.AperFunction*
X76535900Y-41086300D03*
G04 #@! TA.AperFunction,ComponentPad*
G36*
G01*
X74474588Y-43383650D02*
X74474583Y-43383645D01*
G75*
G02*
X74388555Y-41794983I751317J837345D01*
G01*
X75698557Y-40334983D01*
G75*
G02*
X77287219Y-40248955I837345J-751317D01*
G01*
X77287219Y-40248955D01*
G75*
G02*
X77373247Y-41837617I-751317J-837345D01*
G01*
X76063245Y-43297617D01*
G75*
G02*
X74474583Y-43383645I-837345J751317D01*
G01*
G37*
G04 #@! TD.AperFunction*
X81575900Y-40006300D03*
G04 #@! TA.AperFunction,ComponentPad*
G36*
G01*
X81459383Y-41708695D02*
X81458497Y-41708634D01*
G75*
G02*
X80413566Y-40508897I77403J1122334D01*
G01*
X80453566Y-39928897D01*
G75*
G02*
X81653303Y-38883966I1122334J-77403D01*
G01*
X81653303Y-38883966D01*
G75*
G02*
X82698234Y-40083703I-77403J-1122334D01*
G01*
X82658234Y-40663703D01*
G75*
G02*
X81458497Y-41708634I-1122334J77403D01*
G01*
G37*
G04 #@! TD.AperFunction*
D14*
X142535900Y-31592550D03*
X139235900Y-31592550D03*
X123485900Y-31592550D03*
X120185900Y-31592550D03*
X104560900Y-31592550D03*
X101260900Y-31592550D03*
X85448400Y-31592550D03*
X82148400Y-31592550D03*
X133010900Y-31592550D03*
X129710900Y-31592550D03*
X114085900Y-31592550D03*
X110785900Y-31592550D03*
X95035900Y-31592550D03*
X91735900Y-31592550D03*
X75985900Y-31592550D03*
X72685900Y-31592550D03*
D15*
X139235900Y-29336300D03*
X120310900Y-29211300D03*
X101260900Y-29211300D03*
X82210900Y-29211300D03*
D16*
X75985900Y-34416300D02*
X81575900Y-40006300D01*
X75985900Y-31592550D02*
X75985900Y-34416300D01*
D17*
X129710900Y-31592550D02*
X129710900Y-31512000D01*
D16*
X72685900Y-31592550D02*
X75860900Y-28417550D01*
X88560900Y-28417550D02*
X91735900Y-31592550D01*
X75860900Y-28417550D02*
X88560900Y-28417550D01*
X107610900Y-28417550D02*
X110785900Y-31592550D01*
X94910900Y-28417550D02*
X107610900Y-28417550D01*
X91735900Y-31592550D02*
X94910900Y-28417550D01*
X126535900Y-28417550D02*
X129710900Y-31592550D01*
X113960900Y-28417550D02*
X126535900Y-28417550D01*
X110785900Y-31592550D02*
X113960900Y-28417550D01*
X72685900Y-31592550D02*
X72685900Y-33180050D01*
X72685900Y-33180050D02*
X67129650Y-38736300D01*
X67129650Y-52738050D02*
X63084700Y-56783000D01*
X67129650Y-38736300D02*
X67129650Y-52738050D01*
D17*
X100587800Y-39968200D02*
X100625900Y-40006300D01*
D16*
X95035900Y-34416300D02*
X100625900Y-40006300D01*
X95035900Y-31592550D02*
X95035900Y-34416300D01*
X114085900Y-34416300D02*
X119675900Y-40006300D01*
X114085900Y-31592550D02*
X114085900Y-34416300D01*
X133010900Y-34291300D02*
X138725900Y-40006300D01*
X133010900Y-31592550D02*
X133010900Y-34291300D01*
X85448400Y-31592550D02*
X86179650Y-31592550D01*
X86179650Y-31592550D02*
X86973400Y-32386300D01*
X86973400Y-53658800D02*
X81575900Y-59056300D01*
X86973400Y-32386300D02*
X86973400Y-53658800D01*
X139235900Y-31592550D02*
X139235900Y-29336300D01*
X120185900Y-31592550D02*
X120185900Y-29336300D01*
X120185900Y-29336300D02*
X120310900Y-29211300D01*
X101260900Y-31592550D02*
X101260900Y-29211300D01*
X82148400Y-31592550D02*
X82148400Y-29273800D01*
X82148400Y-29273800D02*
X82210900Y-29211300D01*
D17*
X100585900Y-58702600D02*
X100585900Y-59636300D01*
D16*
X104560900Y-31592550D02*
X105229650Y-31592550D01*
X105229650Y-31592550D02*
X106023400Y-32386300D01*
X106023400Y-53658800D02*
X100625900Y-59056300D01*
X106023400Y-32386300D02*
X106023400Y-53658800D01*
D17*
X119635900Y-58994700D02*
X119635900Y-59636300D01*
D16*
X123485900Y-31592550D02*
X124279650Y-31592550D01*
X124279650Y-31592550D02*
X125073400Y-32386300D01*
X125073400Y-53658800D02*
X119675900Y-59056300D01*
X125073400Y-32386300D02*
X125073400Y-53658800D01*
X142535900Y-31592550D02*
X143329650Y-31592550D01*
X143329650Y-31592550D02*
X144123400Y-32386300D01*
X144123400Y-53658800D02*
X138725900Y-59056300D01*
X144123400Y-32386300D02*
X144123400Y-53658800D01*
D17*
X75860900Y-59461300D02*
X75860900Y-43181300D01*
X75860900Y-43181300D02*
X75225900Y-42546300D01*
X76535900Y-60136300D02*
X75860900Y-59461300D01*
D16*
X75225900Y-61596300D02*
X75067150Y-61755050D01*
X75860900Y-62548800D02*
X75860900Y-69692550D01*
X75860900Y-69692550D02*
X74273400Y-71280050D01*
X75067150Y-61755050D02*
X75860900Y-62548800D01*
X59494450Y-71280050D02*
X47980600Y-59766200D01*
X47980600Y-59766200D02*
X47980600Y-58521600D01*
X59494450Y-71280050D02*
X74273400Y-71280050D01*
D17*
X94275900Y-42546300D02*
X94752150Y-42546300D01*
X94752150Y-42546300D02*
X94910900Y-42705050D01*
X94910900Y-59461300D02*
X95585900Y-60136300D01*
X94910900Y-42705050D02*
X94910900Y-59461300D01*
D16*
X59043214Y-72073800D02*
X46417682Y-59448268D01*
X94910900Y-69692550D02*
X92529650Y-72073800D01*
X92529650Y-72073800D02*
X59043214Y-72073800D01*
X94910900Y-62548800D02*
X94910900Y-69692550D01*
X94275900Y-61913800D02*
X94910900Y-62548800D01*
X94275900Y-61596300D02*
X94275900Y-61913800D01*
X46417682Y-57315918D02*
X47752000Y-55981600D01*
X46417682Y-59448268D02*
X46417682Y-57315918D01*
D17*
X113325900Y-42546300D02*
X113325900Y-42863800D01*
X113325900Y-42863800D02*
X113960900Y-43498800D01*
X113960900Y-59461300D02*
X114635900Y-60136300D01*
X113960900Y-43498800D02*
X113960900Y-59461300D01*
D16*
X47752000Y-53695600D02*
X47752000Y-53441600D01*
X110785900Y-72867550D02*
X58398400Y-72867550D01*
X113960900Y-69692550D02*
X110785900Y-72867550D01*
X58398400Y-72867550D02*
X45698400Y-60167550D01*
X113325900Y-61913800D02*
X113960900Y-62548800D01*
X113960900Y-62548800D02*
X113960900Y-69692550D01*
X113325900Y-61596300D02*
X113325900Y-61913800D01*
X45698400Y-55495200D02*
X47752000Y-53441600D01*
X45698400Y-60167550D02*
X45698400Y-55495200D01*
D17*
X132375900Y-42546300D02*
X132375900Y-42863800D01*
X132375900Y-42863800D02*
X133010900Y-43498800D01*
X133010900Y-59461300D02*
X133685900Y-60136300D01*
X133010900Y-43498800D02*
X133010900Y-59461300D01*
D16*
X133010900Y-69692550D02*
X129042150Y-73661300D01*
X133010900Y-62548800D02*
X133010900Y-69692550D01*
X132375900Y-61913800D02*
X133010900Y-62548800D01*
X129042150Y-73661300D02*
X57604650Y-73661300D01*
X132375900Y-61596300D02*
X132375900Y-61913800D01*
X57604650Y-73661300D02*
X44904650Y-60961300D01*
X47244000Y-50901600D02*
X47752000Y-50901600D01*
X44904650Y-53748950D02*
X47752000Y-50901600D01*
X44904650Y-60961300D02*
X44904650Y-53748950D01*
X155391250Y-83293350D02*
X32886250Y-83293350D01*
X32886250Y-78511577D01*
X34553800Y-78511577D01*
X34553800Y-79070023D01*
X34662748Y-79617739D01*
X34876456Y-80133676D01*
X35186712Y-80598007D01*
X35581593Y-80992888D01*
X36045924Y-81303144D01*
X36561861Y-81516852D01*
X37109577Y-81625800D01*
X37668023Y-81625800D01*
X38215739Y-81516852D01*
X38731676Y-81303144D01*
X39196007Y-80992888D01*
X39590888Y-80598007D01*
X39901144Y-80133676D01*
X40114852Y-79617739D01*
X40223800Y-79070023D01*
X40223800Y-78511577D01*
X148066400Y-78511577D01*
X148066400Y-79070023D01*
X148175348Y-79617739D01*
X148389056Y-80133676D01*
X148699312Y-80598007D01*
X149094193Y-80992888D01*
X149558524Y-81303144D01*
X150074461Y-81516852D01*
X150622177Y-81625800D01*
X151180623Y-81625800D01*
X151728339Y-81516852D01*
X152244276Y-81303144D01*
X152708607Y-80992888D01*
X153103488Y-80598007D01*
X153413744Y-80133676D01*
X153627452Y-79617739D01*
X153736400Y-79070023D01*
X153736400Y-78511577D01*
X153627452Y-77963861D01*
X153413744Y-77447924D01*
X153103488Y-76983593D01*
X152708607Y-76588712D01*
X152244276Y-76278456D01*
X151728339Y-76064748D01*
X151180623Y-75955800D01*
X150622177Y-75955800D01*
X150074461Y-76064748D01*
X149558524Y-76278456D01*
X149094193Y-76588712D01*
X148699312Y-76983593D01*
X148389056Y-77447924D01*
X148175348Y-77963861D01*
X148066400Y-78511577D01*
X40223800Y-78511577D01*
X40114852Y-77963861D01*
X39901144Y-77447924D01*
X39590888Y-76983593D01*
X39196007Y-76588712D01*
X38731676Y-76278456D01*
X38215739Y-76064748D01*
X37668023Y-75955800D01*
X37109577Y-75955800D01*
X36561861Y-76064748D01*
X36045924Y-76278456D01*
X35581593Y-76588712D01*
X35186712Y-76983593D01*
X34876456Y-77447924D01*
X34662748Y-77963861D01*
X34553800Y-78511577D01*
X32886250Y-78511577D01*
X32886250Y-53748950D01*
X44138964Y-53748950D01*
X44142651Y-53786383D01*
X44142650Y-60923877D01*
X44138964Y-60961300D01*
X44142650Y-60998723D01*
X44142650Y-60998725D01*
X44153676Y-61110677D01*
X44197248Y-61254314D01*
X44197249Y-61254315D01*
X44268005Y-61386692D01*
X44279439Y-61400624D01*
X44363228Y-61502722D01*
X44392304Y-61526584D01*
X57039371Y-74173652D01*
X57063228Y-74202722D01*
X57179258Y-74297945D01*
X57311635Y-74368702D01*
X57455272Y-74412274D01*
X57567224Y-74423300D01*
X57567226Y-74423300D01*
X57604649Y-74426986D01*
X57642072Y-74423300D01*
X129004727Y-74423300D01*
X129042150Y-74426986D01*
X129079573Y-74423300D01*
X129079576Y-74423300D01*
X129191528Y-74412274D01*
X129335165Y-74368702D01*
X129467542Y-74297945D01*
X129583572Y-74202722D01*
X129607434Y-74173646D01*
X133523252Y-70257829D01*
X133552322Y-70233972D01*
X133647545Y-70117942D01*
X133718302Y-69985565D01*
X133761874Y-69841928D01*
X133772900Y-69729976D01*
X133772900Y-69729974D01*
X133776586Y-69692551D01*
X133772900Y-69655128D01*
X133772900Y-65180450D01*
X133856199Y-65381551D01*
X134143900Y-65812126D01*
X134510074Y-66178300D01*
X134940649Y-66466001D01*
X135419078Y-66664173D01*
X135926976Y-66765200D01*
X136444824Y-66765200D01*
X136952722Y-66664173D01*
X137431151Y-66466001D01*
X137861726Y-66178300D01*
X138227900Y-65812126D01*
X138515601Y-65381551D01*
X138713773Y-64903122D01*
X138814800Y-64395224D01*
X138814800Y-63987578D01*
X139755900Y-63987578D01*
X139755900Y-64285022D01*
X139813929Y-64576751D01*
X139927756Y-64851553D01*
X140093007Y-65098869D01*
X140303331Y-65309193D01*
X140550647Y-65474444D01*
X140825449Y-65588271D01*
X141117178Y-65646300D01*
X141414622Y-65646300D01*
X141706351Y-65588271D01*
X141981153Y-65474444D01*
X142228469Y-65309193D01*
X142438793Y-65098869D01*
X142604044Y-64851553D01*
X142717871Y-64576751D01*
X142775900Y-64285022D01*
X142775900Y-63987578D01*
X142717871Y-63695849D01*
X142604044Y-63421047D01*
X142438793Y-63173731D01*
X142228469Y-62963407D01*
X141981153Y-62798156D01*
X141706351Y-62684329D01*
X141414622Y-62626300D01*
X141117178Y-62626300D01*
X140825449Y-62684329D01*
X140550647Y-62798156D01*
X140303331Y-62963407D01*
X140093007Y-63173731D01*
X139927756Y-63421047D01*
X139813929Y-63695849D01*
X139755900Y-63987578D01*
X138814800Y-63987578D01*
X138814800Y-63877376D01*
X138713773Y-63369478D01*
X138515601Y-62891049D01*
X138227900Y-62460474D01*
X137861726Y-62094300D01*
X137431151Y-61806599D01*
X136952722Y-61608427D01*
X136444824Y-61507400D01*
X135926976Y-61507400D01*
X135419078Y-61608427D01*
X134940649Y-61806599D01*
X134510074Y-62094300D01*
X134143900Y-62460474D01*
X133856199Y-62891049D01*
X133772900Y-63092150D01*
X133772900Y-62674710D01*
X134964100Y-61347116D01*
X135052981Y-61258235D01*
X135127727Y-61146370D01*
X135207344Y-61037887D01*
X135223879Y-61002469D01*
X135245592Y-60969973D01*
X135297075Y-60845682D01*
X135354001Y-60723745D01*
X135363310Y-60685776D01*
X135378264Y-60649673D01*
X135404510Y-60517726D01*
X135436553Y-60387027D01*
X135438275Y-60347977D01*
X135445900Y-60309645D01*
X135445900Y-60175102D01*
X135451829Y-60040674D01*
X135445900Y-60002039D01*
X135445900Y-59962955D01*
X135419651Y-59830991D01*
X135399241Y-59697996D01*
X135385889Y-59661261D01*
X135378264Y-59622927D01*
X135369371Y-59601457D01*
X136924123Y-59601457D01*
X136931740Y-59861162D01*
X137009313Y-60199061D01*
X137151319Y-60515334D01*
X137352296Y-60797826D01*
X137604524Y-61035681D01*
X137898308Y-61219759D01*
X138222359Y-61342984D01*
X138564223Y-61400624D01*
X138910762Y-61390460D01*
X139248661Y-61312887D01*
X139564934Y-61170881D01*
X139847426Y-60969904D01*
X140085281Y-60717676D01*
X140269359Y-60423892D01*
X140392584Y-60099841D01*
X140435781Y-59843639D01*
X140473999Y-59289475D01*
X140485900Y-59229645D01*
X140485900Y-59116911D01*
X140487677Y-59091144D01*
X140485900Y-59030556D01*
X140485900Y-58882955D01*
X140480822Y-58857428D01*
X140480060Y-58831437D01*
X140447059Y-58687687D01*
X140418264Y-58542927D01*
X140408307Y-58518888D01*
X140402487Y-58493538D01*
X140391271Y-58468559D01*
X144635746Y-54224084D01*
X144664822Y-54200222D01*
X144729845Y-54120991D01*
X144760045Y-54084193D01*
X144811132Y-53988615D01*
X144830802Y-53951815D01*
X144874374Y-53808178D01*
X144885400Y-53696226D01*
X144885400Y-53696223D01*
X144889086Y-53658800D01*
X144885400Y-53621377D01*
X144885400Y-32423722D01*
X144889086Y-32386299D01*
X144882264Y-32317032D01*
X144874374Y-32236922D01*
X144830802Y-32093285D01*
X144760045Y-31960908D01*
X144664822Y-31844878D01*
X144635753Y-31821022D01*
X143894934Y-31080203D01*
X143871072Y-31051128D01*
X143755042Y-30955905D01*
X143622665Y-30885148D01*
X143613109Y-30882249D01*
X143611712Y-30868068D01*
X143575402Y-30748370D01*
X143516437Y-30638056D01*
X143437085Y-30541365D01*
X143340394Y-30462013D01*
X143230080Y-30403048D01*
X143110382Y-30366738D01*
X142985900Y-30354478D01*
X142085900Y-30354478D01*
X141961418Y-30366738D01*
X141841720Y-30403048D01*
X141731406Y-30462013D01*
X141634715Y-30541365D01*
X141555363Y-30638056D01*
X141496398Y-30748370D01*
X141460088Y-30868068D01*
X141447828Y-30992550D01*
X141447828Y-32192550D01*
X141460088Y-32317032D01*
X141496398Y-32436730D01*
X141555363Y-32547044D01*
X141634715Y-32643735D01*
X141731406Y-32723087D01*
X141841720Y-32782052D01*
X141961418Y-32818362D01*
X142085900Y-32830622D01*
X142985900Y-32830622D01*
X143110382Y-32818362D01*
X143230080Y-32782052D01*
X143340394Y-32723087D01*
X143361400Y-32705848D01*
X143361401Y-53343169D01*
X139310946Y-57393624D01*
X139239273Y-57363936D01*
X139213746Y-57358858D01*
X139189441Y-57349616D01*
X139044008Y-57325095D01*
X138899245Y-57296300D01*
X138873223Y-57296300D01*
X138847577Y-57291976D01*
X138700137Y-57296300D01*
X138552555Y-57296300D01*
X138527033Y-57301377D01*
X138501038Y-57302139D01*
X138357275Y-57335144D01*
X138212527Y-57363936D01*
X138188487Y-57373894D01*
X138163139Y-57379713D01*
X138028589Y-57440125D01*
X137892227Y-57496608D01*
X137870587Y-57511067D01*
X137846866Y-57521718D01*
X137726696Y-57607213D01*
X137603965Y-57689219D01*
X137585562Y-57707622D01*
X137564374Y-57722696D01*
X137463188Y-57829996D01*
X137358819Y-57934365D01*
X137344361Y-57956003D01*
X137326519Y-57974923D01*
X137248210Y-58099902D01*
X137166208Y-58222627D01*
X137156248Y-58246672D01*
X137142441Y-58268708D01*
X137090019Y-58406564D01*
X137033536Y-58542927D01*
X137028459Y-58568452D01*
X137019216Y-58592758D01*
X136994694Y-58738198D01*
X136965900Y-58882955D01*
X136965900Y-58995686D01*
X136924123Y-59601457D01*
X135369371Y-59601457D01*
X135326774Y-59498620D01*
X135280811Y-59372161D01*
X135260550Y-59338738D01*
X135245592Y-59302627D01*
X135170835Y-59190746D01*
X135101089Y-59075693D01*
X135074698Y-59046866D01*
X135052981Y-59014365D01*
X134957834Y-58919218D01*
X134866983Y-58819983D01*
X134835475Y-58796859D01*
X134807835Y-58769219D01*
X134695950Y-58694459D01*
X134587488Y-58614858D01*
X134552076Y-58598326D01*
X134519573Y-58576608D01*
X134395253Y-58525113D01*
X134273346Y-58468201D01*
X134235386Y-58458895D01*
X134199273Y-58443936D01*
X134067288Y-58417682D01*
X133936628Y-58385649D01*
X133897589Y-58383927D01*
X133859245Y-58376300D01*
X133770900Y-58376300D01*
X133770900Y-46125621D01*
X133856199Y-46331551D01*
X134143900Y-46762126D01*
X134510074Y-47128300D01*
X134940649Y-47416001D01*
X135419078Y-47614173D01*
X135926976Y-47715200D01*
X136444824Y-47715200D01*
X136952722Y-47614173D01*
X137431151Y-47416001D01*
X137861726Y-47128300D01*
X138227900Y-46762126D01*
X138515601Y-46331551D01*
X138713773Y-45853122D01*
X138814800Y-45345224D01*
X138814800Y-44937578D01*
X139755900Y-44937578D01*
X139755900Y-45235022D01*
X139813929Y-45526751D01*
X139927756Y-45801553D01*
X140093007Y-46048869D01*
X140303331Y-46259193D01*
X140550647Y-46424444D01*
X140825449Y-46538271D01*
X141117178Y-46596300D01*
X141414622Y-46596300D01*
X141706351Y-46538271D01*
X141981153Y-46424444D01*
X142228469Y-46259193D01*
X142438793Y-46048869D01*
X142604044Y-45801553D01*
X142717871Y-45526751D01*
X142775900Y-45235022D01*
X142775900Y-44937578D01*
X142717871Y-44645849D01*
X142604044Y-44371047D01*
X142438793Y-44123731D01*
X142228469Y-43913407D01*
X141981153Y-43748156D01*
X141706351Y-43634329D01*
X141414622Y-43576300D01*
X141117178Y-43576300D01*
X140825449Y-43634329D01*
X140550647Y-43748156D01*
X140303331Y-43913407D01*
X140093007Y-44123731D01*
X139927756Y-44371047D01*
X139813929Y-44645849D01*
X139755900Y-44937578D01*
X138814800Y-44937578D01*
X138814800Y-44827376D01*
X138713773Y-44319478D01*
X138515601Y-43841049D01*
X138227900Y-43410474D01*
X137861726Y-43044300D01*
X137431151Y-42756599D01*
X136952722Y-42558427D01*
X136444824Y-42457400D01*
X135926976Y-42457400D01*
X135419078Y-42558427D01*
X134940649Y-42756599D01*
X134510074Y-43044300D01*
X134143900Y-43410474D01*
X133856199Y-43841049D01*
X133770900Y-44046979D01*
X133770900Y-43626939D01*
X134964100Y-42297116D01*
X135052981Y-42208235D01*
X135127727Y-42096370D01*
X135207344Y-41987887D01*
X135223879Y-41952469D01*
X135245592Y-41919973D01*
X135297075Y-41795682D01*
X135354001Y-41673745D01*
X135363310Y-41635776D01*
X135378264Y-41599673D01*
X135404510Y-41467726D01*
X135436553Y-41337027D01*
X135438275Y-41297977D01*
X135445900Y-41259645D01*
X135445900Y-41125102D01*
X135451829Y-40990674D01*
X135445900Y-40952039D01*
X135445900Y-40912955D01*
X135419651Y-40780991D01*
X135399241Y-40647996D01*
X135385889Y-40611261D01*
X135378264Y-40572927D01*
X135326774Y-40448620D01*
X135280811Y-40322161D01*
X135260550Y-40288738D01*
X135245592Y-40252627D01*
X135170835Y-40140746D01*
X135101089Y-40025693D01*
X135074698Y-39996866D01*
X135052981Y-39964365D01*
X134957834Y-39869218D01*
X134866983Y-39769983D01*
X134835475Y-39746859D01*
X134807835Y-39719219D01*
X134695950Y-39644459D01*
X134587488Y-39564858D01*
X134552076Y-39548326D01*
X134519573Y-39526608D01*
X134395253Y-39475113D01*
X134273346Y-39418201D01*
X134235386Y-39408895D01*
X134199273Y-39393936D01*
X134067288Y-39367682D01*
X133936628Y-39335649D01*
X133897589Y-39333927D01*
X133859245Y-39326300D01*
X133724658Y-39326300D01*
X133590275Y-39320373D01*
X133551653Y-39326300D01*
X133512555Y-39326300D01*
X133380544Y-39352559D01*
X133247597Y-39372961D01*
X133210876Y-39386308D01*
X133172527Y-39393936D01*
X133048169Y-39445447D01*
X132921763Y-39491391D01*
X132888354Y-39511644D01*
X132852227Y-39526608D01*
X132740300Y-39601395D01*
X132625294Y-39671113D01*
X132596478Y-39697495D01*
X132563965Y-39719219D01*
X132468787Y-39814397D01*
X132433658Y-39846558D01*
X132407737Y-39875447D01*
X132318819Y-39964365D01*
X132292173Y-40004243D01*
X131008184Y-41435253D01*
X130854458Y-41644714D01*
X130707801Y-41958856D01*
X130625249Y-42295574D01*
X130609973Y-42641926D01*
X130662561Y-42984604D01*
X130780991Y-43310439D01*
X130943775Y-43578966D01*
X130665449Y-43634329D01*
X130390647Y-43748156D01*
X130143331Y-43913407D01*
X129933007Y-44123731D01*
X129767756Y-44371047D01*
X129653929Y-44645849D01*
X129595900Y-44937578D01*
X129595900Y-45235022D01*
X129653929Y-45526751D01*
X129767756Y-45801553D01*
X129933007Y-46048869D01*
X130143331Y-46259193D01*
X130390647Y-46424444D01*
X130665449Y-46538271D01*
X130957178Y-46596300D01*
X131254622Y-46596300D01*
X131546351Y-46538271D01*
X131821153Y-46424444D01*
X132068469Y-46259193D01*
X132250900Y-46076762D01*
X132250901Y-59100241D01*
X131008184Y-60485253D01*
X130854458Y-60694714D01*
X130707801Y-61008856D01*
X130625249Y-61345574D01*
X130609973Y-61691926D01*
X130662561Y-62034604D01*
X130780991Y-62360439D01*
X130943775Y-62628966D01*
X130665449Y-62684329D01*
X130390647Y-62798156D01*
X130143331Y-62963407D01*
X129933007Y-63173731D01*
X129767756Y-63421047D01*
X129653929Y-63695849D01*
X129595900Y-63987578D01*
X129595900Y-64285022D01*
X129653929Y-64576751D01*
X129767756Y-64851553D01*
X129933007Y-65098869D01*
X130143331Y-65309193D01*
X130390647Y-65474444D01*
X130665449Y-65588271D01*
X130957178Y-65646300D01*
X131254622Y-65646300D01*
X131546351Y-65588271D01*
X131821153Y-65474444D01*
X132068469Y-65309193D01*
X132248900Y-65128762D01*
X132248901Y-69376918D01*
X128726520Y-72899300D01*
X111831780Y-72899300D01*
X114473252Y-70257829D01*
X114502322Y-70233972D01*
X114597545Y-70117942D01*
X114668302Y-69985565D01*
X114711874Y-69841928D01*
X114722900Y-69729976D01*
X114722900Y-69729974D01*
X114726586Y-69692551D01*
X114722900Y-69655128D01*
X114722900Y-65180450D01*
X114806199Y-65381551D01*
X115093900Y-65812126D01*
X115460074Y-66178300D01*
X115890649Y-66466001D01*
X116369078Y-66664173D01*
X116876976Y-66765200D01*
X117394824Y-66765200D01*
X117902722Y-66664173D01*
X118381151Y-66466001D01*
X118811726Y-66178300D01*
X119177900Y-65812126D01*
X119465601Y-65381551D01*
X119663773Y-64903122D01*
X119764800Y-64395224D01*
X119764800Y-63987578D01*
X120705900Y-63987578D01*
X120705900Y-64285022D01*
X120763929Y-64576751D01*
X120877756Y-64851553D01*
X121043007Y-65098869D01*
X121253331Y-65309193D01*
X121500647Y-65474444D01*
X121775449Y-65588271D01*
X122067178Y-65646300D01*
X122364622Y-65646300D01*
X122656351Y-65588271D01*
X122931153Y-65474444D01*
X123178469Y-65309193D01*
X123388793Y-65098869D01*
X123554044Y-64851553D01*
X123667871Y-64576751D01*
X123725900Y-64285022D01*
X123725900Y-63987578D01*
X123667871Y-63695849D01*
X123554044Y-63421047D01*
X123388793Y-63173731D01*
X123178469Y-62963407D01*
X122931153Y-62798156D01*
X122656351Y-62684329D01*
X122364622Y-62626300D01*
X122067178Y-62626300D01*
X121775449Y-62684329D01*
X121500647Y-62798156D01*
X121253331Y-62963407D01*
X121043007Y-63173731D01*
X120877756Y-63421047D01*
X120763929Y-63695849D01*
X120705900Y-63987578D01*
X119764800Y-63987578D01*
X119764800Y-63877376D01*
X119663773Y-63369478D01*
X119465601Y-62891049D01*
X119177900Y-62460474D01*
X118811726Y-62094300D01*
X118381151Y-61806599D01*
X117902722Y-61608427D01*
X117394824Y-61507400D01*
X116876976Y-61507400D01*
X116369078Y-61608427D01*
X115890649Y-61806599D01*
X115460074Y-62094300D01*
X115093900Y-62460474D01*
X114806199Y-62891049D01*
X114722900Y-63092150D01*
X114722900Y-62674710D01*
X115914100Y-61347116D01*
X116002981Y-61258235D01*
X116077727Y-61146370D01*
X116157344Y-61037887D01*
X116173879Y-61002469D01*
X116195592Y-60969973D01*
X116247075Y-60845682D01*
X116304001Y-60723745D01*
X116313310Y-60685776D01*
X116328264Y-60649673D01*
X116354510Y-60517726D01*
X116386553Y-60387027D01*
X116388275Y-60347977D01*
X116395900Y-60309645D01*
X116395900Y-60175102D01*
X116401829Y-60040674D01*
X116395900Y-60002039D01*
X116395900Y-59962955D01*
X116369651Y-59830991D01*
X116349241Y-59697996D01*
X116335889Y-59661261D01*
X116328264Y-59622927D01*
X116319371Y-59601457D01*
X117874123Y-59601457D01*
X117881740Y-59861162D01*
X117959313Y-60199061D01*
X118101319Y-60515334D01*
X118302296Y-60797826D01*
X118554524Y-61035681D01*
X118848308Y-61219759D01*
X119172359Y-61342984D01*
X119514223Y-61400624D01*
X119860762Y-61390460D01*
X120198661Y-61312887D01*
X120514934Y-61170881D01*
X120797426Y-60969904D01*
X121035281Y-60717676D01*
X121219359Y-60423892D01*
X121342584Y-60099841D01*
X121385781Y-59843639D01*
X121423999Y-59289475D01*
X121435900Y-59229645D01*
X121435900Y-59116911D01*
X121437677Y-59091144D01*
X121435900Y-59030556D01*
X121435900Y-58882955D01*
X121430822Y-58857428D01*
X121430060Y-58831437D01*
X121397059Y-58687687D01*
X121368264Y-58542927D01*
X121358307Y-58518888D01*
X121352487Y-58493538D01*
X121341271Y-58468559D01*
X125585746Y-54224084D01*
X125614822Y-54200222D01*
X125679845Y-54120991D01*
X125710045Y-54084193D01*
X125761132Y-53988615D01*
X125780802Y-53951815D01*
X125824374Y-53808178D01*
X125835400Y-53696226D01*
X125835400Y-53696223D01*
X125839086Y-53658800D01*
X125835400Y-53621377D01*
X125835400Y-32423722D01*
X125839086Y-32386299D01*
X125832264Y-32317032D01*
X125824374Y-32236922D01*
X125780802Y-32093285D01*
X125710045Y-31960908D01*
X125614822Y-31844878D01*
X125585753Y-31821022D01*
X124844934Y-31080203D01*
X124821072Y-31051128D01*
X124705042Y-30955905D01*
X124572665Y-30885148D01*
X124563109Y-30882249D01*
X124561712Y-30868068D01*
X124525402Y-30748370D01*
X124466437Y-30638056D01*
X124387085Y-30541365D01*
X124290394Y-30462013D01*
X124180080Y-30403048D01*
X124060382Y-30366738D01*
X123935900Y-30354478D01*
X123035900Y-30354478D01*
X122911418Y-30366738D01*
X122791720Y-30403048D01*
X122681406Y-30462013D01*
X122584715Y-30541365D01*
X122505363Y-30638056D01*
X122446398Y-30748370D01*
X122410088Y-30868068D01*
X122397828Y-30992550D01*
X122397828Y-32192550D01*
X122410088Y-32317032D01*
X122446398Y-32436730D01*
X122505363Y-32547044D01*
X122584715Y-32643735D01*
X122681406Y-32723087D01*
X122791720Y-32782052D01*
X122911418Y-32818362D01*
X123035900Y-32830622D01*
X123935900Y-32830622D01*
X124060382Y-32818362D01*
X124180080Y-32782052D01*
X124290394Y-32723087D01*
X124311400Y-32705848D01*
X124311401Y-53343169D01*
X120260946Y-57393624D01*
X120189273Y-57363936D01*
X120163746Y-57358858D01*
X120139441Y-57349616D01*
X119994008Y-57325095D01*
X119849245Y-57296300D01*
X119823223Y-57296300D01*
X119797577Y-57291976D01*
X119650137Y-57296300D01*
X119502555Y-57296300D01*
X119477033Y-57301377D01*
X119451038Y-57302139D01*
X119307275Y-57335144D01*
X119162527Y-57363936D01*
X119138487Y-57373894D01*
X119113139Y-57379713D01*
X118978589Y-57440125D01*
X118842227Y-57496608D01*
X118820587Y-57511067D01*
X118796866Y-57521718D01*
X118676696Y-57607213D01*
X118553965Y-57689219D01*
X118535562Y-57707622D01*
X118514374Y-57722696D01*
X118413188Y-57829996D01*
X118308819Y-57934365D01*
X118294361Y-57956003D01*
X118276519Y-57974923D01*
X118198210Y-58099902D01*
X118116208Y-58222627D01*
X118106248Y-58246672D01*
X118092441Y-58268708D01*
X118040019Y-58406564D01*
X117983536Y-58542927D01*
X117978459Y-58568452D01*
X117969216Y-58592758D01*
X117944694Y-58738198D01*
X117915900Y-58882955D01*
X117915900Y-58995686D01*
X117874123Y-59601457D01*
X116319371Y-59601457D01*
X116276774Y-59498620D01*
X116230811Y-59372161D01*
X116210550Y-59338738D01*
X116195592Y-59302627D01*
X116120835Y-59190746D01*
X116051089Y-59075693D01*
X116024698Y-59046866D01*
X116002981Y-59014365D01*
X115907834Y-58919218D01*
X115816983Y-58819983D01*
X115785475Y-58796859D01*
X115757835Y-58769219D01*
X115645950Y-58694459D01*
X115537488Y-58614858D01*
X115502076Y-58598326D01*
X115469573Y-58576608D01*
X115345253Y-58525113D01*
X115223346Y-58468201D01*
X115185386Y-58458895D01*
X115149273Y-58443936D01*
X115017288Y-58417682D01*
X114886628Y-58385649D01*
X114847589Y-58383927D01*
X114809245Y-58376300D01*
X114720900Y-58376300D01*
X114720900Y-46125621D01*
X114806199Y-46331551D01*
X115093900Y-46762126D01*
X115460074Y-47128300D01*
X115890649Y-47416001D01*
X116369078Y-47614173D01*
X116876976Y-47715200D01*
X117394824Y-47715200D01*
X117902722Y-47614173D01*
X118381151Y-47416001D01*
X118811726Y-47128300D01*
X119177900Y-46762126D01*
X119465601Y-46331551D01*
X119663773Y-45853122D01*
X119764800Y-45345224D01*
X119764800Y-44937578D01*
X120705900Y-44937578D01*
X120705900Y-45235022D01*
X120763929Y-45526751D01*
X120877756Y-45801553D01*
X121043007Y-46048869D01*
X121253331Y-46259193D01*
X121500647Y-46424444D01*
X121775449Y-46538271D01*
X122067178Y-46596300D01*
X122364622Y-46596300D01*
X122656351Y-46538271D01*
X122931153Y-46424444D01*
X123178469Y-46259193D01*
X123388793Y-46048869D01*
X123554044Y-45801553D01*
X123667871Y-45526751D01*
X123725900Y-45235022D01*
X123725900Y-44937578D01*
X123667871Y-44645849D01*
X123554044Y-44371047D01*
X123388793Y-44123731D01*
X123178469Y-43913407D01*
X122931153Y-43748156D01*
X122656351Y-43634329D01*
X122364622Y-43576300D01*
X122067178Y-43576300D01*
X121775449Y-43634329D01*
X121500647Y-43748156D01*
X121253331Y-43913407D01*
X121043007Y-44123731D01*
X120877756Y-44371047D01*
X120763929Y-44645849D01*
X120705900Y-44937578D01*
X119764800Y-44937578D01*
X119764800Y-44827376D01*
X119663773Y-44319478D01*
X119465601Y-43841049D01*
X119177900Y-43410474D01*
X118811726Y-43044300D01*
X118381151Y-42756599D01*
X117902722Y-42558427D01*
X117394824Y-42457400D01*
X116876976Y-42457400D01*
X116369078Y-42558427D01*
X115890649Y-42756599D01*
X115460074Y-43044300D01*
X115093900Y-43410474D01*
X114806199Y-43841049D01*
X114720900Y-44046979D01*
X114720900Y-43626939D01*
X115914100Y-42297116D01*
X116002981Y-42208235D01*
X116077727Y-42096370D01*
X116157344Y-41987887D01*
X116173879Y-41952469D01*
X116195592Y-41919973D01*
X116247075Y-41795682D01*
X116304001Y-41673745D01*
X116313310Y-41635776D01*
X116328264Y-41599673D01*
X116354510Y-41467726D01*
X116386553Y-41337027D01*
X116388275Y-41297977D01*
X116395900Y-41259645D01*
X116395900Y-41125102D01*
X116401829Y-40990674D01*
X116395900Y-40952039D01*
X116395900Y-40912955D01*
X116369651Y-40780991D01*
X116349241Y-40647996D01*
X116335889Y-40611261D01*
X116328264Y-40572927D01*
X116276774Y-40448620D01*
X116230811Y-40322161D01*
X116210550Y-40288738D01*
X116195592Y-40252627D01*
X116120835Y-40140746D01*
X116051089Y-40025693D01*
X116024698Y-39996866D01*
X116002981Y-39964365D01*
X115907834Y-39869218D01*
X115816983Y-39769983D01*
X115785475Y-39746859D01*
X115757835Y-39719219D01*
X115645950Y-39644459D01*
X115537488Y-39564858D01*
X115502076Y-39548326D01*
X115469573Y-39526608D01*
X115345253Y-39475113D01*
X115223346Y-39418201D01*
X115185386Y-39408895D01*
X115149273Y-39393936D01*
X115017288Y-39367682D01*
X114886628Y-39335649D01*
X114847589Y-39333927D01*
X114809245Y-39326300D01*
X114674658Y-39326300D01*
X114540275Y-39320373D01*
X114501653Y-39326300D01*
X114462555Y-39326300D01*
X114330544Y-39352559D01*
X114197597Y-39372961D01*
X114160876Y-39386308D01*
X114122527Y-39393936D01*
X113998169Y-39445447D01*
X113871763Y-39491391D01*
X113838354Y-39511644D01*
X113802227Y-39526608D01*
X113690300Y-39601395D01*
X113575294Y-39671113D01*
X113546478Y-39697495D01*
X113513965Y-39719219D01*
X113418787Y-39814397D01*
X113383658Y-39846558D01*
X113357737Y-39875447D01*
X113268819Y-39964365D01*
X113242173Y-40004243D01*
X111958184Y-41435253D01*
X111804458Y-41644714D01*
X111657801Y-41958856D01*
X111575249Y-42295574D01*
X111559973Y-42641926D01*
X111612561Y-42984604D01*
X111730991Y-43310439D01*
X111893775Y-43578966D01*
X111615449Y-43634329D01*
X111340647Y-43748156D01*
X111093331Y-43913407D01*
X110883007Y-44123731D01*
X110717756Y-44371047D01*
X110603929Y-44645849D01*
X110545900Y-44937578D01*
X110545900Y-45235022D01*
X110603929Y-45526751D01*
X110717756Y-45801553D01*
X110883007Y-46048869D01*
X111093331Y-46259193D01*
X111340647Y-46424444D01*
X111615449Y-46538271D01*
X111907178Y-46596300D01*
X112204622Y-46596300D01*
X112496351Y-46538271D01*
X112771153Y-46424444D01*
X113018469Y-46259193D01*
X113200900Y-46076762D01*
X113200901Y-59100241D01*
X111958184Y-60485253D01*
X111804458Y-60694714D01*
X111657801Y-61008856D01*
X111575249Y-61345574D01*
X111559973Y-61691926D01*
X111612561Y-62034604D01*
X111730991Y-62360439D01*
X111893775Y-62628966D01*
X111615449Y-62684329D01*
X111340647Y-62798156D01*
X111093331Y-62963407D01*
X110883007Y-63173731D01*
X110717756Y-63421047D01*
X110603929Y-63695849D01*
X110545900Y-63987578D01*
X110545900Y-64285022D01*
X110603929Y-64576751D01*
X110717756Y-64851553D01*
X110883007Y-65098869D01*
X111093331Y-65309193D01*
X111340647Y-65474444D01*
X111615449Y-65588271D01*
X111907178Y-65646300D01*
X112204622Y-65646300D01*
X112496351Y-65588271D01*
X112771153Y-65474444D01*
X113018469Y-65309193D01*
X113198900Y-65128762D01*
X113198901Y-69376918D01*
X110470270Y-72105550D01*
X93575530Y-72105550D01*
X95423252Y-70257829D01*
X95452322Y-70233972D01*
X95547545Y-70117942D01*
X95618302Y-69985565D01*
X95661874Y-69841928D01*
X95672900Y-69729976D01*
X95672900Y-69729974D01*
X95676586Y-69692551D01*
X95672900Y-69655128D01*
X95672900Y-65180450D01*
X95756199Y-65381551D01*
X96043900Y-65812126D01*
X96410074Y-66178300D01*
X96840649Y-66466001D01*
X97319078Y-66664173D01*
X97826976Y-66765200D01*
X98344824Y-66765200D01*
X98852722Y-66664173D01*
X99331151Y-66466001D01*
X99761726Y-66178300D01*
X100127900Y-65812126D01*
X100415601Y-65381551D01*
X100613773Y-64903122D01*
X100714800Y-64395224D01*
X100714800Y-63987578D01*
X101655900Y-63987578D01*
X101655900Y-64285022D01*
X101713929Y-64576751D01*
X101827756Y-64851553D01*
X101993007Y-65098869D01*
X102203331Y-65309193D01*
X102450647Y-65474444D01*
X102725449Y-65588271D01*
X103017178Y-65646300D01*
X103314622Y-65646300D01*
X103606351Y-65588271D01*
X103881153Y-65474444D01*
X104128469Y-65309193D01*
X104338793Y-65098869D01*
X104504044Y-64851553D01*
X104617871Y-64576751D01*
X104675900Y-64285022D01*
X104675900Y-63987578D01*
X104617871Y-63695849D01*
X104504044Y-63421047D01*
X104338793Y-63173731D01*
X104128469Y-62963407D01*
X103881153Y-62798156D01*
X103606351Y-62684329D01*
X103314622Y-62626300D01*
X103017178Y-62626300D01*
X102725449Y-62684329D01*
X102450647Y-62798156D01*
X102203331Y-62963407D01*
X101993007Y-63173731D01*
X101827756Y-63421047D01*
X101713929Y-63695849D01*
X101655900Y-63987578D01*
X100714800Y-63987578D01*
X100714800Y-63877376D01*
X100613773Y-63369478D01*
X100415601Y-62891049D01*
X100127900Y-62460474D01*
X99761726Y-62094300D01*
X99331151Y-61806599D01*
X98852722Y-61608427D01*
X98344824Y-61507400D01*
X97826976Y-61507400D01*
X97319078Y-61608427D01*
X96840649Y-61806599D01*
X96410074Y-62094300D01*
X96043900Y-62460474D01*
X95756199Y-62891049D01*
X95672900Y-63092150D01*
X95672900Y-62674710D01*
X96864100Y-61347116D01*
X96952981Y-61258235D01*
X97027727Y-61146370D01*
X97107344Y-61037887D01*
X97123879Y-61002469D01*
X97145592Y-60969973D01*
X97197075Y-60845682D01*
X97254001Y-60723745D01*
X97263310Y-60685776D01*
X97278264Y-60649673D01*
X97304510Y-60517726D01*
X97336553Y-60387027D01*
X97338275Y-60347977D01*
X97345900Y-60309645D01*
X97345900Y-60175102D01*
X97351829Y-60040674D01*
X97345900Y-60002039D01*
X97345900Y-59962955D01*
X97319651Y-59830991D01*
X97299241Y-59697996D01*
X97285889Y-59661261D01*
X97278264Y-59622927D01*
X97269371Y-59601457D01*
X98824123Y-59601457D01*
X98831740Y-59861162D01*
X98909313Y-60199061D01*
X99051319Y-60515334D01*
X99252296Y-60797826D01*
X99504524Y-61035681D01*
X99798308Y-61219759D01*
X100122359Y-61342984D01*
X100464223Y-61400624D01*
X100810762Y-61390460D01*
X101148661Y-61312887D01*
X101464934Y-61170881D01*
X101747426Y-60969904D01*
X101985281Y-60717676D01*
X102169359Y-60423892D01*
X102292584Y-60099841D01*
X102335781Y-59843639D01*
X102373999Y-59289475D01*
X102385900Y-59229645D01*
X102385900Y-59116911D01*
X102387677Y-59091144D01*
X102385900Y-59030556D01*
X102385900Y-58882955D01*
X102380822Y-58857428D01*
X102380060Y-58831437D01*
X102347059Y-58687687D01*
X102318264Y-58542927D01*
X102308307Y-58518888D01*
X102302487Y-58493538D01*
X102291271Y-58468559D01*
X106535746Y-54224084D01*
X106564822Y-54200222D01*
X106629845Y-54120991D01*
X106660045Y-54084193D01*
X106711132Y-53988615D01*
X106730802Y-53951815D01*
X106774374Y-53808178D01*
X106785400Y-53696226D01*
X106785400Y-53696223D01*
X106789086Y-53658800D01*
X106785400Y-53621377D01*
X106785400Y-32423722D01*
X106789086Y-32386299D01*
X106782264Y-32317032D01*
X106774374Y-32236922D01*
X106730802Y-32093285D01*
X106660045Y-31960908D01*
X106564822Y-31844878D01*
X106535753Y-31821022D01*
X105794934Y-31080203D01*
X105771072Y-31051128D01*
X105655042Y-30955905D01*
X105644825Y-30950444D01*
X105636712Y-30868068D01*
X105600402Y-30748370D01*
X105541437Y-30638056D01*
X105462085Y-30541365D01*
X105365394Y-30462013D01*
X105255080Y-30403048D01*
X105135382Y-30366738D01*
X105010900Y-30354478D01*
X104110900Y-30354478D01*
X103986418Y-30366738D01*
X103866720Y-30403048D01*
X103756406Y-30462013D01*
X103659715Y-30541365D01*
X103580363Y-30638056D01*
X103521398Y-30748370D01*
X103485088Y-30868068D01*
X103472828Y-30992550D01*
X103472828Y-32192550D01*
X103485088Y-32317032D01*
X103521398Y-32436730D01*
X103580363Y-32547044D01*
X103659715Y-32643735D01*
X103756406Y-32723087D01*
X103866720Y-32782052D01*
X103986418Y-32818362D01*
X104110900Y-32830622D01*
X105010900Y-32830622D01*
X105135382Y-32818362D01*
X105255080Y-32782052D01*
X105261400Y-32778674D01*
X105261401Y-53343169D01*
X101210946Y-57393624D01*
X101139273Y-57363936D01*
X101113746Y-57358858D01*
X101089441Y-57349616D01*
X100944008Y-57325095D01*
X100799245Y-57296300D01*
X100773223Y-57296300D01*
X100747577Y-57291976D01*
X100600137Y-57296300D01*
X100452555Y-57296300D01*
X100427033Y-57301377D01*
X100401038Y-57302139D01*
X100257275Y-57335144D01*
X100112527Y-57363936D01*
X100088487Y-57373894D01*
X100063139Y-57379713D01*
X99928589Y-57440125D01*
X99792227Y-57496608D01*
X99770587Y-57511067D01*
X99746866Y-57521718D01*
X99626696Y-57607213D01*
X99503965Y-57689219D01*
X99485562Y-57707622D01*
X99464374Y-57722696D01*
X99363188Y-57829996D01*
X99258819Y-57934365D01*
X99244361Y-57956003D01*
X99226519Y-57974923D01*
X99148210Y-58099902D01*
X99066208Y-58222627D01*
X99056248Y-58246672D01*
X99042441Y-58268708D01*
X98990019Y-58406564D01*
X98933536Y-58542927D01*
X98928459Y-58568452D01*
X98919216Y-58592758D01*
X98894694Y-58738198D01*
X98865900Y-58882955D01*
X98865900Y-58995686D01*
X98824123Y-59601457D01*
X97269371Y-59601457D01*
X97226774Y-59498620D01*
X97180811Y-59372161D01*
X97160550Y-59338738D01*
X97145592Y-59302627D01*
X97070835Y-59190746D01*
X97001089Y-59075693D01*
X96974698Y-59046866D01*
X96952981Y-59014365D01*
X96857834Y-58919218D01*
X96766983Y-58819983D01*
X96735475Y-58796859D01*
X96707835Y-58769219D01*
X96595950Y-58694459D01*
X96487488Y-58614858D01*
X96452076Y-58598326D01*
X96419573Y-58576608D01*
X96295253Y-58525113D01*
X96173346Y-58468201D01*
X96135386Y-58458895D01*
X96099273Y-58443936D01*
X95967288Y-58417682D01*
X95836628Y-58385649D01*
X95797589Y-58383927D01*
X95759245Y-58376300D01*
X95670900Y-58376300D01*
X95670900Y-46125621D01*
X95756199Y-46331551D01*
X96043900Y-46762126D01*
X96410074Y-47128300D01*
X96840649Y-47416001D01*
X97319078Y-47614173D01*
X97826976Y-47715200D01*
X98344824Y-47715200D01*
X98852722Y-47614173D01*
X99331151Y-47416001D01*
X99761726Y-47128300D01*
X100127900Y-46762126D01*
X100415601Y-46331551D01*
X100613773Y-45853122D01*
X100714800Y-45345224D01*
X100714800Y-44937578D01*
X101655900Y-44937578D01*
X101655900Y-45235022D01*
X101713929Y-45526751D01*
X101827756Y-45801553D01*
X101993007Y-46048869D01*
X102203331Y-46259193D01*
X102450647Y-46424444D01*
X102725449Y-46538271D01*
X103017178Y-46596300D01*
X103314622Y-46596300D01*
X103606351Y-46538271D01*
X103881153Y-46424444D01*
X104128469Y-46259193D01*
X104338793Y-46048869D01*
X104504044Y-45801553D01*
X104617871Y-45526751D01*
X104675900Y-45235022D01*
X104675900Y-44937578D01*
X104617871Y-44645849D01*
X104504044Y-44371047D01*
X104338793Y-44123731D01*
X104128469Y-43913407D01*
X103881153Y-43748156D01*
X103606351Y-43634329D01*
X103314622Y-43576300D01*
X103017178Y-43576300D01*
X102725449Y-43634329D01*
X102450647Y-43748156D01*
X102203331Y-43913407D01*
X101993007Y-44123731D01*
X101827756Y-44371047D01*
X101713929Y-44645849D01*
X101655900Y-44937578D01*
X100714800Y-44937578D01*
X100714800Y-44827376D01*
X100613773Y-44319478D01*
X100415601Y-43841049D01*
X100127900Y-43410474D01*
X99761726Y-43044300D01*
X99331151Y-42756599D01*
X98852722Y-42558427D01*
X98344824Y-42457400D01*
X97826976Y-42457400D01*
X97319078Y-42558427D01*
X96840649Y-42756599D01*
X96410074Y-43044300D01*
X96043900Y-43410474D01*
X95756199Y-43841049D01*
X95670900Y-44046979D01*
X95670900Y-43626939D01*
X96864100Y-42297116D01*
X96952981Y-42208235D01*
X97027727Y-42096370D01*
X97107344Y-41987887D01*
X97123879Y-41952469D01*
X97145592Y-41919973D01*
X97197075Y-41795682D01*
X97254001Y-41673745D01*
X97263310Y-41635776D01*
X97278264Y-41599673D01*
X97304510Y-41467726D01*
X97336553Y-41337027D01*
X97338275Y-41297977D01*
X97345900Y-41259645D01*
X97345900Y-41125102D01*
X97351829Y-40990674D01*
X97345900Y-40952039D01*
X97345900Y-40912955D01*
X97319651Y-40780991D01*
X97299241Y-40647996D01*
X97285889Y-40611261D01*
X97278264Y-40572927D01*
X97226774Y-40448620D01*
X97180811Y-40322161D01*
X97160550Y-40288738D01*
X97145592Y-40252627D01*
X97070835Y-40140746D01*
X97001089Y-40025693D01*
X96974698Y-39996866D01*
X96952981Y-39964365D01*
X96857834Y-39869218D01*
X96766983Y-39769983D01*
X96735475Y-39746859D01*
X96707835Y-39719219D01*
X96595950Y-39644459D01*
X96487488Y-39564858D01*
X96452076Y-39548326D01*
X96419573Y-39526608D01*
X96295253Y-39475113D01*
X96173346Y-39418201D01*
X96135386Y-39408895D01*
X96099273Y-39393936D01*
X95967288Y-39367682D01*
X95836628Y-39335649D01*
X95797589Y-39333927D01*
X95759245Y-39326300D01*
X95624658Y-39326300D01*
X95490275Y-39320373D01*
X95451653Y-39326300D01*
X95412555Y-39326300D01*
X95280544Y-39352559D01*
X95147597Y-39372961D01*
X95110876Y-39386308D01*
X95072527Y-39393936D01*
X94948169Y-39445447D01*
X94821763Y-39491391D01*
X94788354Y-39511644D01*
X94752227Y-39526608D01*
X94640300Y-39601395D01*
X94525294Y-39671113D01*
X94496478Y-39697495D01*
X94463965Y-39719219D01*
X94368787Y-39814397D01*
X94333658Y-39846558D01*
X94307737Y-39875447D01*
X94218819Y-39964365D01*
X94192173Y-40004243D01*
X92908184Y-41435253D01*
X92754458Y-41644714D01*
X92607801Y-41958856D01*
X92525249Y-42295574D01*
X92509973Y-42641926D01*
X92562561Y-42984604D01*
X92680991Y-43310439D01*
X92843775Y-43578966D01*
X92565449Y-43634329D01*
X92290647Y-43748156D01*
X92043331Y-43913407D01*
X91833007Y-44123731D01*
X91667756Y-44371047D01*
X91553929Y-44645849D01*
X91495900Y-44937578D01*
X91495900Y-45235022D01*
X91553929Y-45526751D01*
X91667756Y-45801553D01*
X91833007Y-46048869D01*
X92043331Y-46259193D01*
X92290647Y-46424444D01*
X92565449Y-46538271D01*
X92857178Y-46596300D01*
X93154622Y-46596300D01*
X93446351Y-46538271D01*
X93721153Y-46424444D01*
X93968469Y-46259193D01*
X94150900Y-46076762D01*
X94150901Y-59100241D01*
X92908184Y-60485253D01*
X92754458Y-60694714D01*
X92607801Y-61008856D01*
X92525249Y-61345574D01*
X92509973Y-61691926D01*
X92562561Y-62034604D01*
X92680991Y-62360439D01*
X92843775Y-62628966D01*
X92565449Y-62684329D01*
X92290647Y-62798156D01*
X92043331Y-62963407D01*
X91833007Y-63173731D01*
X91667756Y-63421047D01*
X91553929Y-63695849D01*
X91495900Y-63987578D01*
X91495900Y-64285022D01*
X91553929Y-64576751D01*
X91667756Y-64851553D01*
X91833007Y-65098869D01*
X92043331Y-65309193D01*
X92290647Y-65474444D01*
X92565449Y-65588271D01*
X92857178Y-65646300D01*
X93154622Y-65646300D01*
X93446351Y-65588271D01*
X93721153Y-65474444D01*
X93968469Y-65309193D01*
X94148900Y-65128762D01*
X94148901Y-69376918D01*
X92214020Y-71311800D01*
X75319280Y-71311800D01*
X76373252Y-70257829D01*
X76402322Y-70233972D01*
X76497545Y-70117942D01*
X76568302Y-69985565D01*
X76611874Y-69841928D01*
X76622900Y-69729976D01*
X76622900Y-69729974D01*
X76626586Y-69692551D01*
X76622900Y-69655128D01*
X76622900Y-65180450D01*
X76706199Y-65381551D01*
X76993900Y-65812126D01*
X77360074Y-66178300D01*
X77790649Y-66466001D01*
X78269078Y-66664173D01*
X78776976Y-66765200D01*
X79294824Y-66765200D01*
X79802722Y-66664173D01*
X80281151Y-66466001D01*
X80711726Y-66178300D01*
X81077900Y-65812126D01*
X81365601Y-65381551D01*
X81563773Y-64903122D01*
X81664800Y-64395224D01*
X81664800Y-63987578D01*
X82605900Y-63987578D01*
X82605900Y-64285022D01*
X82663929Y-64576751D01*
X82777756Y-64851553D01*
X82943007Y-65098869D01*
X83153331Y-65309193D01*
X83400647Y-65474444D01*
X83675449Y-65588271D01*
X83967178Y-65646300D01*
X84264622Y-65646300D01*
X84556351Y-65588271D01*
X84831153Y-65474444D01*
X85078469Y-65309193D01*
X85288793Y-65098869D01*
X85454044Y-64851553D01*
X85567871Y-64576751D01*
X85625900Y-64285022D01*
X85625900Y-63987578D01*
X85567871Y-63695849D01*
X85454044Y-63421047D01*
X85288793Y-63173731D01*
X85078469Y-62963407D01*
X84831153Y-62798156D01*
X84556351Y-62684329D01*
X84264622Y-62626300D01*
X83967178Y-62626300D01*
X83675449Y-62684329D01*
X83400647Y-62798156D01*
X83153331Y-62963407D01*
X82943007Y-63173731D01*
X82777756Y-63421047D01*
X82663929Y-63695849D01*
X82605900Y-63987578D01*
X81664800Y-63987578D01*
X81664800Y-63877376D01*
X81563773Y-63369478D01*
X81365601Y-62891049D01*
X81077900Y-62460474D01*
X80711726Y-62094300D01*
X80281151Y-61806599D01*
X79802722Y-61608427D01*
X79294824Y-61507400D01*
X78776976Y-61507400D01*
X78269078Y-61608427D01*
X77790649Y-61806599D01*
X77360074Y-62094300D01*
X76993900Y-62460474D01*
X76706199Y-62891049D01*
X76622900Y-63092150D01*
X76622900Y-62674710D01*
X77814100Y-61347116D01*
X77902981Y-61258235D01*
X77977727Y-61146370D01*
X78057344Y-61037887D01*
X78073879Y-61002469D01*
X78095592Y-60969973D01*
X78147075Y-60845682D01*
X78204001Y-60723745D01*
X78213310Y-60685776D01*
X78228264Y-60649673D01*
X78254510Y-60517726D01*
X78286553Y-60387027D01*
X78288275Y-60347977D01*
X78295900Y-60309645D01*
X78295900Y-60175102D01*
X78301829Y-60040674D01*
X78295900Y-60002039D01*
X78295900Y-59962955D01*
X78269651Y-59830991D01*
X78249241Y-59697996D01*
X78235889Y-59661261D01*
X78228264Y-59622927D01*
X78219371Y-59601457D01*
X79774123Y-59601457D01*
X79781740Y-59861162D01*
X79859313Y-60199061D01*
X80001319Y-60515334D01*
X80202296Y-60797826D01*
X80454524Y-61035681D01*
X80748308Y-61219759D01*
X81072359Y-61342984D01*
X81414223Y-61400624D01*
X81760762Y-61390460D01*
X82098661Y-61312887D01*
X82414934Y-61170881D01*
X82697426Y-60969904D01*
X82935281Y-60717676D01*
X83119359Y-60423892D01*
X83242584Y-60099841D01*
X83285781Y-59843639D01*
X83323999Y-59289475D01*
X83335900Y-59229645D01*
X83335900Y-59116911D01*
X83337677Y-59091144D01*
X83335900Y-59030556D01*
X83335900Y-58882955D01*
X83330822Y-58857428D01*
X83330060Y-58831437D01*
X83297059Y-58687687D01*
X83268264Y-58542927D01*
X83258307Y-58518888D01*
X83252487Y-58493538D01*
X83241271Y-58468559D01*
X87485746Y-54224084D01*
X87514822Y-54200222D01*
X87579845Y-54120991D01*
X87610045Y-54084193D01*
X87661132Y-53988615D01*
X87680802Y-53951815D01*
X87724374Y-53808178D01*
X87735400Y-53696226D01*
X87735400Y-53696223D01*
X87739086Y-53658800D01*
X87735400Y-53621377D01*
X87735400Y-32423722D01*
X87739086Y-32386299D01*
X87732264Y-32317032D01*
X87724374Y-32236922D01*
X87680802Y-32093285D01*
X87610045Y-31960908D01*
X87514822Y-31844878D01*
X87485753Y-31821022D01*
X86744934Y-31080203D01*
X86721072Y-31051128D01*
X86605042Y-30955905D01*
X86528852Y-30915181D01*
X86524212Y-30868068D01*
X86487902Y-30748370D01*
X86428937Y-30638056D01*
X86349585Y-30541365D01*
X86252894Y-30462013D01*
X86142580Y-30403048D01*
X86022882Y-30366738D01*
X85898400Y-30354478D01*
X84998400Y-30354478D01*
X84873918Y-30366738D01*
X84754220Y-30403048D01*
X84643906Y-30462013D01*
X84547215Y-30541365D01*
X84467863Y-30638056D01*
X84408898Y-30748370D01*
X84372588Y-30868068D01*
X84360328Y-30992550D01*
X84360328Y-32192550D01*
X84372588Y-32317032D01*
X84408898Y-32436730D01*
X84467863Y-32547044D01*
X84547215Y-32643735D01*
X84643906Y-32723087D01*
X84754220Y-32782052D01*
X84873918Y-32818362D01*
X84998400Y-32830622D01*
X85898400Y-32830622D01*
X86022882Y-32818362D01*
X86142580Y-32782052D01*
X86211400Y-32745266D01*
X86211401Y-53343169D01*
X82160946Y-57393624D01*
X82089273Y-57363936D01*
X82063746Y-57358858D01*
X82039441Y-57349616D01*
X81894008Y-57325095D01*
X81749245Y-57296300D01*
X81723223Y-57296300D01*
X81697577Y-57291976D01*
X81550137Y-57296300D01*
X81402555Y-57296300D01*
X81377033Y-57301377D01*
X81351038Y-57302139D01*
X81207275Y-57335144D01*
X81062527Y-57363936D01*
X81038487Y-57373894D01*
X81013139Y-57379713D01*
X80878589Y-57440125D01*
X80742227Y-57496608D01*
X80720587Y-57511067D01*
X80696866Y-57521718D01*
X80576696Y-57607213D01*
X80453965Y-57689219D01*
X80435562Y-57707622D01*
X80414374Y-57722696D01*
X80313188Y-57829996D01*
X80208819Y-57934365D01*
X80194361Y-57956003D01*
X80176519Y-57974923D01*
X80098210Y-58099902D01*
X80016208Y-58222627D01*
X80006248Y-58246672D01*
X79992441Y-58268708D01*
X79940019Y-58406564D01*
X79883536Y-58542927D01*
X79878459Y-58568452D01*
X79869216Y-58592758D01*
X79844694Y-58738198D01*
X79815900Y-58882955D01*
X79815900Y-58995686D01*
X79774123Y-59601457D01*
X78219371Y-59601457D01*
X78176774Y-59498620D01*
X78130811Y-59372161D01*
X78110550Y-59338738D01*
X78095592Y-59302627D01*
X78020835Y-59190746D01*
X77951089Y-59075693D01*
X77924698Y-59046866D01*
X77902981Y-59014365D01*
X77807834Y-58919218D01*
X77716983Y-58819983D01*
X77685475Y-58796859D01*
X77657835Y-58769219D01*
X77545950Y-58694459D01*
X77437488Y-58614858D01*
X77402076Y-58598326D01*
X77369573Y-58576608D01*
X77245253Y-58525113D01*
X77123346Y-58468201D01*
X77085386Y-58458895D01*
X77049273Y-58443936D01*
X76917288Y-58417682D01*
X76786628Y-58385649D01*
X76747589Y-58383927D01*
X76709245Y-58376300D01*
X76620900Y-58376300D01*
X76620900Y-46125621D01*
X76706199Y-46331551D01*
X76993900Y-46762126D01*
X77360074Y-47128300D01*
X77790649Y-47416001D01*
X78269078Y-47614173D01*
X78776976Y-47715200D01*
X79294824Y-47715200D01*
X79802722Y-47614173D01*
X80281151Y-47416001D01*
X80711726Y-47128300D01*
X81077900Y-46762126D01*
X81365601Y-46331551D01*
X81563773Y-45853122D01*
X81664800Y-45345224D01*
X81664800Y-44937578D01*
X82605900Y-44937578D01*
X82605900Y-45235022D01*
X82663929Y-45526751D01*
X82777756Y-45801553D01*
X82943007Y-46048869D01*
X83153331Y-46259193D01*
X83400647Y-46424444D01*
X83675449Y-46538271D01*
X83967178Y-46596300D01*
X84264622Y-46596300D01*
X84556351Y-46538271D01*
X84831153Y-46424444D01*
X85078469Y-46259193D01*
X85288793Y-46048869D01*
X85454044Y-45801553D01*
X85567871Y-45526751D01*
X85625900Y-45235022D01*
X85625900Y-44937578D01*
X85567871Y-44645849D01*
X85454044Y-44371047D01*
X85288793Y-44123731D01*
X85078469Y-43913407D01*
X84831153Y-43748156D01*
X84556351Y-43634329D01*
X84264622Y-43576300D01*
X83967178Y-43576300D01*
X83675449Y-43634329D01*
X83400647Y-43748156D01*
X83153331Y-43913407D01*
X82943007Y-44123731D01*
X82777756Y-44371047D01*
X82663929Y-44645849D01*
X82605900Y-44937578D01*
X81664800Y-44937578D01*
X81664800Y-44827376D01*
X81563773Y-44319478D01*
X81365601Y-43841049D01*
X81077900Y-43410474D01*
X80711726Y-43044300D01*
X80281151Y-42756599D01*
X79802722Y-42558427D01*
X79294824Y-42457400D01*
X78776976Y-42457400D01*
X78269078Y-42558427D01*
X77790649Y-42756599D01*
X77360074Y-43044300D01*
X76993900Y-43410474D01*
X76706199Y-43841049D01*
X76620900Y-44046979D01*
X76620900Y-43626939D01*
X77814100Y-42297116D01*
X77902981Y-42208235D01*
X77977727Y-42096370D01*
X78057344Y-41987887D01*
X78073879Y-41952469D01*
X78095592Y-41919973D01*
X78147075Y-41795682D01*
X78204001Y-41673745D01*
X78213310Y-41635776D01*
X78228264Y-41599673D01*
X78254510Y-41467726D01*
X78286553Y-41337027D01*
X78288275Y-41297977D01*
X78295900Y-41259645D01*
X78295900Y-41125102D01*
X78301829Y-40990674D01*
X78295900Y-40952039D01*
X78295900Y-40912955D01*
X78269651Y-40780991D01*
X78249241Y-40647996D01*
X78235889Y-40611261D01*
X78228264Y-40572927D01*
X78176774Y-40448620D01*
X78130811Y-40322161D01*
X78110550Y-40288738D01*
X78095592Y-40252627D01*
X78020835Y-40140746D01*
X77951089Y-40025693D01*
X77924698Y-39996866D01*
X77902981Y-39964365D01*
X77807834Y-39869218D01*
X77716983Y-39769983D01*
X77685475Y-39746859D01*
X77657835Y-39719219D01*
X77545950Y-39644459D01*
X77437488Y-39564858D01*
X77402076Y-39548326D01*
X77369573Y-39526608D01*
X77245253Y-39475113D01*
X77123346Y-39418201D01*
X77085386Y-39408895D01*
X77049273Y-39393936D01*
X76917288Y-39367682D01*
X76786628Y-39335649D01*
X76747589Y-39333927D01*
X76709245Y-39326300D01*
X76574658Y-39326300D01*
X76440275Y-39320373D01*
X76401653Y-39326300D01*
X76362555Y-39326300D01*
X76230544Y-39352559D01*
X76097597Y-39372961D01*
X76060876Y-39386308D01*
X76022527Y-39393936D01*
X75898169Y-39445447D01*
X75771763Y-39491391D01*
X75738354Y-39511644D01*
X75702227Y-39526608D01*
X75590300Y-39601395D01*
X75475294Y-39671113D01*
X75446478Y-39697495D01*
X75413965Y-39719219D01*
X75318787Y-39814397D01*
X75283658Y-39846558D01*
X75257737Y-39875447D01*
X75168819Y-39964365D01*
X75142173Y-40004243D01*
X73858184Y-41435253D01*
X73704458Y-41644714D01*
X73557801Y-41958856D01*
X73475249Y-42295574D01*
X73459973Y-42641926D01*
X73512561Y-42984604D01*
X73630991Y-43310439D01*
X73793775Y-43578966D01*
X73515449Y-43634329D01*
X73240647Y-43748156D01*
X72993331Y-43913407D01*
X72783007Y-44123731D01*
X72617756Y-44371047D01*
X72503929Y-44645849D01*
X72445900Y-44937578D01*
X72445900Y-45235022D01*
X72503929Y-45526751D01*
X72617756Y-45801553D01*
X72783007Y-46048869D01*
X72993331Y-46259193D01*
X73240647Y-46424444D01*
X73515449Y-46538271D01*
X73807178Y-46596300D01*
X74104622Y-46596300D01*
X74396351Y-46538271D01*
X74671153Y-46424444D01*
X74918469Y-46259193D01*
X75100901Y-46076761D01*
X75100900Y-59100242D01*
X73858184Y-60485253D01*
X73704458Y-60694714D01*
X73557801Y-61008856D01*
X73475249Y-61345574D01*
X73459973Y-61691926D01*
X73512561Y-62034604D01*
X73630991Y-62360439D01*
X73793775Y-62628966D01*
X73515449Y-62684329D01*
X73240647Y-62798156D01*
X72993331Y-62963407D01*
X72783007Y-63173731D01*
X72617756Y-63421047D01*
X72503929Y-63695849D01*
X72445900Y-63987578D01*
X72445900Y-64285022D01*
X72503929Y-64576751D01*
X72617756Y-64851553D01*
X72783007Y-65098869D01*
X72993331Y-65309193D01*
X73240647Y-65474444D01*
X73515449Y-65588271D01*
X73807178Y-65646300D01*
X74104622Y-65646300D01*
X74396351Y-65588271D01*
X74671153Y-65474444D01*
X74918469Y-65309193D01*
X75098900Y-65128762D01*
X75098901Y-69376918D01*
X73957770Y-70518050D01*
X59810081Y-70518050D01*
X48965766Y-59673736D01*
X49136300Y-59503202D01*
X49328602Y-59695504D01*
X49576131Y-59860897D01*
X49851170Y-59974822D01*
X50143150Y-60032900D01*
X50440850Y-60032900D01*
X50732830Y-59974822D01*
X51007869Y-59860897D01*
X51255398Y-59695504D01*
X51465904Y-59484998D01*
X51562000Y-59341180D01*
X51658096Y-59484998D01*
X51868602Y-59695504D01*
X52116131Y-59860897D01*
X52391170Y-59974822D01*
X52683150Y-60032900D01*
X52980850Y-60032900D01*
X53272830Y-59974822D01*
X53547869Y-59860897D01*
X53795398Y-59695504D01*
X54005904Y-59484998D01*
X54102000Y-59341180D01*
X54198096Y-59484998D01*
X54408602Y-59695504D01*
X54656131Y-59860897D01*
X54931170Y-59974822D01*
X55223150Y-60032900D01*
X55520850Y-60032900D01*
X55812830Y-59974822D01*
X56087869Y-59860897D01*
X56335398Y-59695504D01*
X56545904Y-59484998D01*
X56642000Y-59341180D01*
X56738096Y-59484998D01*
X56948602Y-59695504D01*
X57196131Y-59860897D01*
X57471170Y-59974822D01*
X57763150Y-60032900D01*
X58060850Y-60032900D01*
X58352830Y-59974822D01*
X58627869Y-59860897D01*
X58875398Y-59695504D01*
X59085904Y-59484998D01*
X59182000Y-59341180D01*
X59278096Y-59484998D01*
X59488602Y-59695504D01*
X59736131Y-59860897D01*
X60011170Y-59974822D01*
X60303150Y-60032900D01*
X60600850Y-60032900D01*
X60892830Y-59974822D01*
X61167869Y-59860897D01*
X61415398Y-59695504D01*
X61625904Y-59484998D01*
X61722000Y-59341180D01*
X61818096Y-59484998D01*
X62028602Y-59695504D01*
X62276131Y-59860897D01*
X62551170Y-59974822D01*
X62843150Y-60032900D01*
X63140850Y-60032900D01*
X63432830Y-59974822D01*
X63707869Y-59860897D01*
X63955398Y-59695504D01*
X64165904Y-59484998D01*
X64331297Y-59237469D01*
X64445222Y-58962430D01*
X64503300Y-58670450D01*
X64503300Y-58372750D01*
X64445222Y-58080770D01*
X64331297Y-57805731D01*
X64165904Y-57558202D01*
X63955398Y-57347696D01*
X63811580Y-57251600D01*
X63955398Y-57155504D01*
X64165904Y-56944998D01*
X64331297Y-56697469D01*
X64390295Y-56555035D01*
X67642002Y-53303329D01*
X67671072Y-53279472D01*
X67766295Y-53163442D01*
X67837052Y-53031065D01*
X67880624Y-52887428D01*
X67891650Y-52775476D01*
X67891650Y-52775474D01*
X67895336Y-52738051D01*
X67891650Y-52700628D01*
X67891650Y-39051930D01*
X73198252Y-33745329D01*
X73227322Y-33721472D01*
X73322545Y-33605442D01*
X73393302Y-33473065D01*
X73436874Y-33329428D01*
X73447900Y-33217476D01*
X73447900Y-33217474D01*
X73451586Y-33180051D01*
X73447900Y-33142628D01*
X73447900Y-32745801D01*
X73490394Y-32723087D01*
X73587085Y-32643735D01*
X73666437Y-32547044D01*
X73725402Y-32436730D01*
X73761712Y-32317032D01*
X73773972Y-32192550D01*
X73773972Y-31582108D01*
X74363530Y-30992550D01*
X74897828Y-30992550D01*
X74897828Y-32192550D01*
X74910088Y-32317032D01*
X74946398Y-32436730D01*
X75005363Y-32547044D01*
X75084715Y-32643735D01*
X75181406Y-32723087D01*
X75223900Y-32745801D01*
X75223901Y-34378867D01*
X75220214Y-34416300D01*
X75234927Y-34565678D01*
X75278499Y-34709315D01*
X75349255Y-34841692D01*
X75376471Y-34874854D01*
X75444479Y-34957722D01*
X75473549Y-34981579D01*
X79913224Y-39421254D01*
X79883536Y-39492927D01*
X79878459Y-39518452D01*
X79869216Y-39542758D01*
X79844694Y-39688198D01*
X79815900Y-39832955D01*
X79815900Y-39945686D01*
X79774123Y-40551457D01*
X79781740Y-40811162D01*
X79859313Y-41149061D01*
X80001319Y-41465334D01*
X80202296Y-41747826D01*
X80454524Y-41985681D01*
X80748308Y-42169759D01*
X81072359Y-42292984D01*
X81414223Y-42350624D01*
X81760762Y-42340460D01*
X82098661Y-42262887D01*
X82414934Y-42120881D01*
X82697426Y-41919904D01*
X82935281Y-41667676D01*
X83119359Y-41373892D01*
X83242584Y-41049841D01*
X83285781Y-40793639D01*
X83323999Y-40239475D01*
X83335900Y-40179645D01*
X83335900Y-40066911D01*
X83337677Y-40041144D01*
X83335900Y-39980556D01*
X83335900Y-39832955D01*
X83330822Y-39807428D01*
X83330060Y-39781437D01*
X83297059Y-39637687D01*
X83268264Y-39492927D01*
X83258307Y-39468888D01*
X83252487Y-39443538D01*
X83192077Y-39308994D01*
X83135592Y-39172627D01*
X83121130Y-39150983D01*
X83110481Y-39127266D01*
X83024996Y-39007109D01*
X82942981Y-38884365D01*
X82924578Y-38865962D01*
X82909504Y-38844774D01*
X82802211Y-38743595D01*
X82697835Y-38639219D01*
X82676194Y-38624759D01*
X82657276Y-38606919D01*
X82532307Y-38528616D01*
X82409573Y-38446608D01*
X82385528Y-38436648D01*
X82363492Y-38422841D01*
X82225640Y-38370421D01*
X82089273Y-38313936D01*
X82063746Y-38308858D01*
X82039441Y-38299616D01*
X81894008Y-38275095D01*
X81749245Y-38246300D01*
X81723223Y-38246300D01*
X81697577Y-38241976D01*
X81550137Y-38246300D01*
X81402555Y-38246300D01*
X81377033Y-38251377D01*
X81351038Y-38252139D01*
X81207275Y-38285144D01*
X81062527Y-38313936D01*
X81038487Y-38323894D01*
X81013139Y-38329713D01*
X80988159Y-38340929D01*
X76747900Y-34100670D01*
X76747900Y-32745801D01*
X76790394Y-32723087D01*
X76887085Y-32643735D01*
X76966437Y-32547044D01*
X77025402Y-32436730D01*
X77061712Y-32317032D01*
X77073972Y-32192550D01*
X77073972Y-30992550D01*
X77061712Y-30868068D01*
X77025402Y-30748370D01*
X76966437Y-30638056D01*
X76887085Y-30541365D01*
X76790394Y-30462013D01*
X76680080Y-30403048D01*
X76560382Y-30366738D01*
X76435900Y-30354478D01*
X75535900Y-30354478D01*
X75411418Y-30366738D01*
X75291720Y-30403048D01*
X75181406Y-30462013D01*
X75084715Y-30541365D01*
X75005363Y-30638056D01*
X74946398Y-30748370D01*
X74910088Y-30868068D01*
X74897828Y-30992550D01*
X74363530Y-30992550D01*
X76176531Y-29179550D01*
X81175900Y-29179550D01*
X81175900Y-29313239D01*
X81215674Y-29513198D01*
X81293695Y-29701556D01*
X81386401Y-29840300D01*
X81386400Y-30439299D01*
X81343906Y-30462013D01*
X81247215Y-30541365D01*
X81167863Y-30638056D01*
X81108898Y-30748370D01*
X81072588Y-30868068D01*
X81060328Y-30992550D01*
X81060328Y-32192550D01*
X81072588Y-32317032D01*
X81108898Y-32436730D01*
X81167863Y-32547044D01*
X81247215Y-32643735D01*
X81343906Y-32723087D01*
X81454220Y-32782052D01*
X81573918Y-32818362D01*
X81698400Y-32830622D01*
X82598400Y-32830622D01*
X82722882Y-32818362D01*
X82842580Y-32782052D01*
X82952894Y-32723087D01*
X83049585Y-32643735D01*
X83128937Y-32547044D01*
X83187902Y-32436730D01*
X83224212Y-32317032D01*
X83236472Y-32192550D01*
X83236472Y-30992550D01*
X83224212Y-30868068D01*
X83187902Y-30748370D01*
X83128937Y-30638056D01*
X83049585Y-30541365D01*
X82952894Y-30462013D01*
X82910400Y-30439299D01*
X82910400Y-29975511D01*
X83014837Y-29871074D01*
X83128105Y-29701556D01*
X83206126Y-29513198D01*
X83245900Y-29313239D01*
X83245900Y-29179550D01*
X88245270Y-29179550D01*
X90647828Y-31582109D01*
X90647828Y-32192550D01*
X90660088Y-32317032D01*
X90696398Y-32436730D01*
X90755363Y-32547044D01*
X90834715Y-32643735D01*
X90931406Y-32723087D01*
X91041720Y-32782052D01*
X91161418Y-32818362D01*
X91285900Y-32830622D01*
X92185900Y-32830622D01*
X92310382Y-32818362D01*
X92430080Y-32782052D01*
X92540394Y-32723087D01*
X92637085Y-32643735D01*
X92716437Y-32547044D01*
X92775402Y-32436730D01*
X92811712Y-32317032D01*
X92823972Y-32192550D01*
X92823972Y-31582108D01*
X93413530Y-30992550D01*
X93947828Y-30992550D01*
X93947828Y-32192550D01*
X93960088Y-32317032D01*
X93996398Y-32436730D01*
X94055363Y-32547044D01*
X94134715Y-32643735D01*
X94231406Y-32723087D01*
X94273900Y-32745801D01*
X94273901Y-34378867D01*
X94270214Y-34416300D01*
X94284927Y-34565678D01*
X94328499Y-34709315D01*
X94399255Y-34841692D01*
X94426471Y-34874854D01*
X94494479Y-34957722D01*
X94523549Y-34981579D01*
X98963224Y-39421254D01*
X98933536Y-39492927D01*
X98928459Y-39518452D01*
X98919216Y-39542758D01*
X98894694Y-39688198D01*
X98865900Y-39832955D01*
X98865900Y-39945686D01*
X98824123Y-40551457D01*
X98831740Y-40811162D01*
X98909313Y-41149061D01*
X99051319Y-41465334D01*
X99252296Y-41747826D01*
X99504524Y-41985681D01*
X99798308Y-42169759D01*
X100122359Y-42292984D01*
X100464223Y-42350624D01*
X100810762Y-42340460D01*
X101148661Y-42262887D01*
X101464934Y-42120881D01*
X101747426Y-41919904D01*
X101985281Y-41667676D01*
X102169359Y-41373892D01*
X102292584Y-41049841D01*
X102335781Y-40793639D01*
X102373999Y-40239475D01*
X102385900Y-40179645D01*
X102385900Y-40066911D01*
X102387677Y-40041144D01*
X102385900Y-39980556D01*
X102385900Y-39832955D01*
X102380822Y-39807428D01*
X102380060Y-39781437D01*
X102347059Y-39637687D01*
X102318264Y-39492927D01*
X102308307Y-39468888D01*
X102302487Y-39443538D01*
X102242077Y-39308994D01*
X102185592Y-39172627D01*
X102171130Y-39150983D01*
X102160481Y-39127266D01*
X102074996Y-39007109D01*
X101992981Y-38884365D01*
X101974578Y-38865962D01*
X101959504Y-38844774D01*
X101852211Y-38743595D01*
X101747835Y-38639219D01*
X101726194Y-38624759D01*
X101707276Y-38606919D01*
X101582307Y-38528616D01*
X101459573Y-38446608D01*
X101435528Y-38436648D01*
X101413492Y-38422841D01*
X101275640Y-38370421D01*
X101139273Y-38313936D01*
X101113746Y-38308858D01*
X101089441Y-38299616D01*
X100944008Y-38275095D01*
X100799245Y-38246300D01*
X100773223Y-38246300D01*
X100747577Y-38241976D01*
X100600137Y-38246300D01*
X100452555Y-38246300D01*
X100427033Y-38251377D01*
X100401038Y-38252139D01*
X100257275Y-38285144D01*
X100112527Y-38313936D01*
X100088487Y-38323894D01*
X100063139Y-38329713D01*
X100038159Y-38340929D01*
X95797900Y-34100670D01*
X95797900Y-32745801D01*
X95840394Y-32723087D01*
X95937085Y-32643735D01*
X96016437Y-32547044D01*
X96075402Y-32436730D01*
X96111712Y-32317032D01*
X96123972Y-32192550D01*
X96123972Y-30992550D01*
X96111712Y-30868068D01*
X96075402Y-30748370D01*
X96016437Y-30638056D01*
X95937085Y-30541365D01*
X95840394Y-30462013D01*
X95730080Y-30403048D01*
X95610382Y-30366738D01*
X95485900Y-30354478D01*
X94585900Y-30354478D01*
X94461418Y-30366738D01*
X94341720Y-30403048D01*
X94231406Y-30462013D01*
X94134715Y-30541365D01*
X94055363Y-30638056D01*
X93996398Y-30748370D01*
X93960088Y-30868068D01*
X93947828Y-30992550D01*
X93413530Y-30992550D01*
X95226531Y-29179550D01*
X100225900Y-29179550D01*
X100225900Y-29313239D01*
X100265674Y-29513198D01*
X100343695Y-29701556D01*
X100456963Y-29871074D01*
X100498901Y-29913012D01*
X100498900Y-30439299D01*
X100456406Y-30462013D01*
X100359715Y-30541365D01*
X100280363Y-30638056D01*
X100221398Y-30748370D01*
X100185088Y-30868068D01*
X100172828Y-30992550D01*
X100172828Y-32192550D01*
X100185088Y-32317032D01*
X100221398Y-32436730D01*
X100280363Y-32547044D01*
X100359715Y-32643735D01*
X100456406Y-32723087D01*
X100566720Y-32782052D01*
X100686418Y-32818362D01*
X100810900Y-32830622D01*
X101710900Y-32830622D01*
X101835382Y-32818362D01*
X101955080Y-32782052D01*
X102065394Y-32723087D01*
X102162085Y-32643735D01*
X102241437Y-32547044D01*
X102300402Y-32436730D01*
X102336712Y-32317032D01*
X102348972Y-32192550D01*
X102348972Y-30992550D01*
X102336712Y-30868068D01*
X102300402Y-30748370D01*
X102241437Y-30638056D01*
X102162085Y-30541365D01*
X102065394Y-30462013D01*
X102022900Y-30439299D01*
X102022900Y-29913011D01*
X102064837Y-29871074D01*
X102178105Y-29701556D01*
X102256126Y-29513198D01*
X102295900Y-29313239D01*
X102295900Y-29179550D01*
X107295270Y-29179550D01*
X109697828Y-31582109D01*
X109697828Y-32192550D01*
X109710088Y-32317032D01*
X109746398Y-32436730D01*
X109805363Y-32547044D01*
X109884715Y-32643735D01*
X109981406Y-32723087D01*
X110091720Y-32782052D01*
X110211418Y-32818362D01*
X110335900Y-32830622D01*
X111235900Y-32830622D01*
X111360382Y-32818362D01*
X111480080Y-32782052D01*
X111590394Y-32723087D01*
X111687085Y-32643735D01*
X111766437Y-32547044D01*
X111825402Y-32436730D01*
X111861712Y-32317032D01*
X111873972Y-32192550D01*
X111873972Y-31582108D01*
X112463530Y-30992550D01*
X112997828Y-30992550D01*
X112997828Y-32192550D01*
X113010088Y-32317032D01*
X113046398Y-32436730D01*
X113105363Y-32547044D01*
X113184715Y-32643735D01*
X113281406Y-32723087D01*
X113323900Y-32745801D01*
X113323901Y-34378867D01*
X113320214Y-34416300D01*
X113334927Y-34565678D01*
X113378499Y-34709315D01*
X113449255Y-34841692D01*
X113476471Y-34874854D01*
X113544479Y-34957722D01*
X113573549Y-34981579D01*
X118013224Y-39421254D01*
X117983536Y-39492927D01*
X117978459Y-39518452D01*
X117969216Y-39542758D01*
X117944694Y-39688198D01*
X117915900Y-39832955D01*
X117915900Y-39945686D01*
X117874123Y-40551457D01*
X117881740Y-40811162D01*
X117959313Y-41149061D01*
X118101319Y-41465334D01*
X118302296Y-41747826D01*
X118554524Y-41985681D01*
X118848308Y-42169759D01*
X119172359Y-42292984D01*
X119514223Y-42350624D01*
X119860762Y-42340460D01*
X120198661Y-42262887D01*
X120514934Y-42120881D01*
X120797426Y-41919904D01*
X121035281Y-41667676D01*
X121219359Y-41373892D01*
X121342584Y-41049841D01*
X121385781Y-40793639D01*
X121423999Y-40239475D01*
X121435900Y-40179645D01*
X121435900Y-40066911D01*
X121437677Y-40041144D01*
X121435900Y-39980556D01*
X121435900Y-39832955D01*
X121430822Y-39807428D01*
X121430060Y-39781437D01*
X121397059Y-39637687D01*
X121368264Y-39492927D01*
X121358307Y-39468888D01*
X121352487Y-39443538D01*
X121292077Y-39308994D01*
X121235592Y-39172627D01*
X121221130Y-39150983D01*
X121210481Y-39127266D01*
X121124996Y-39007109D01*
X121042981Y-38884365D01*
X121024578Y-38865962D01*
X121009504Y-38844774D01*
X120902211Y-38743595D01*
X120797835Y-38639219D01*
X120776194Y-38624759D01*
X120757276Y-38606919D01*
X120632307Y-38528616D01*
X120509573Y-38446608D01*
X120485528Y-38436648D01*
X120463492Y-38422841D01*
X120325640Y-38370421D01*
X120189273Y-38313936D01*
X120163746Y-38308858D01*
X120139441Y-38299616D01*
X119994008Y-38275095D01*
X119849245Y-38246300D01*
X119823223Y-38246300D01*
X119797577Y-38241976D01*
X119650137Y-38246300D01*
X119502555Y-38246300D01*
X119477033Y-38251377D01*
X119451038Y-38252139D01*
X119307275Y-38285144D01*
X119162527Y-38313936D01*
X119138487Y-38323894D01*
X119113139Y-38329713D01*
X119088159Y-38340929D01*
X114847900Y-34100670D01*
X114847900Y-32745801D01*
X114890394Y-32723087D01*
X114987085Y-32643735D01*
X115066437Y-32547044D01*
X115125402Y-32436730D01*
X115161712Y-32317032D01*
X115173972Y-32192550D01*
X115173972Y-30992550D01*
X115161712Y-30868068D01*
X115125402Y-30748370D01*
X115066437Y-30638056D01*
X114987085Y-30541365D01*
X114890394Y-30462013D01*
X114780080Y-30403048D01*
X114660382Y-30366738D01*
X114535900Y-30354478D01*
X113635900Y-30354478D01*
X113511418Y-30366738D01*
X113391720Y-30403048D01*
X113281406Y-30462013D01*
X113184715Y-30541365D01*
X113105363Y-30638056D01*
X113046398Y-30748370D01*
X113010088Y-30868068D01*
X112997828Y-30992550D01*
X112463530Y-30992550D01*
X114276531Y-29179550D01*
X119275900Y-29179550D01*
X119275900Y-29313239D01*
X119315674Y-29513198D01*
X119393695Y-29701556D01*
X119423901Y-29746762D01*
X119423901Y-30439299D01*
X119381406Y-30462013D01*
X119284715Y-30541365D01*
X119205363Y-30638056D01*
X119146398Y-30748370D01*
X119110088Y-30868068D01*
X119097828Y-30992550D01*
X119097828Y-32192550D01*
X119110088Y-32317032D01*
X119146398Y-32436730D01*
X119205363Y-32547044D01*
X119284715Y-32643735D01*
X119381406Y-32723087D01*
X119491720Y-32782052D01*
X119611418Y-32818362D01*
X119735900Y-32830622D01*
X120635900Y-32830622D01*
X120760382Y-32818362D01*
X120880080Y-32782052D01*
X120990394Y-32723087D01*
X121087085Y-32643735D01*
X121166437Y-32547044D01*
X121225402Y-32436730D01*
X121261712Y-32317032D01*
X121273972Y-32192550D01*
X121273972Y-30992550D01*
X121261712Y-30868068D01*
X121225402Y-30748370D01*
X121166437Y-30638056D01*
X121087085Y-30541365D01*
X120990394Y-30462013D01*
X120947900Y-30439299D01*
X120947900Y-30030454D01*
X120970674Y-30015237D01*
X121114837Y-29871074D01*
X121228105Y-29701556D01*
X121306126Y-29513198D01*
X121345900Y-29313239D01*
X121345900Y-29179550D01*
X126220270Y-29179550D01*
X128622828Y-31582109D01*
X128622828Y-32192550D01*
X128635088Y-32317032D01*
X128671398Y-32436730D01*
X128730363Y-32547044D01*
X128809715Y-32643735D01*
X128906406Y-32723087D01*
X129016720Y-32782052D01*
X129136418Y-32818362D01*
X129260900Y-32830622D01*
X130160900Y-32830622D01*
X130285382Y-32818362D01*
X130405080Y-32782052D01*
X130515394Y-32723087D01*
X130612085Y-32643735D01*
X130691437Y-32547044D01*
X130750402Y-32436730D01*
X130786712Y-32317032D01*
X130798972Y-32192550D01*
X130798972Y-30992550D01*
X131922828Y-30992550D01*
X131922828Y-32192550D01*
X131935088Y-32317032D01*
X131971398Y-32436730D01*
X132030363Y-32547044D01*
X132109715Y-32643735D01*
X132206406Y-32723087D01*
X132248900Y-32745801D01*
X132248901Y-34253867D01*
X132245214Y-34291300D01*
X132259927Y-34440678D01*
X132303499Y-34584315D01*
X132374255Y-34716692D01*
X132437731Y-34794037D01*
X132469479Y-34832722D01*
X132498549Y-34856579D01*
X137063224Y-39421254D01*
X137033536Y-39492927D01*
X137028459Y-39518452D01*
X137019216Y-39542758D01*
X136994694Y-39688198D01*
X136965900Y-39832955D01*
X136965900Y-39945686D01*
X136924123Y-40551457D01*
X136931740Y-40811162D01*
X137009313Y-41149061D01*
X137151319Y-41465334D01*
X137352296Y-41747826D01*
X137604524Y-41985681D01*
X137898308Y-42169759D01*
X138222359Y-42292984D01*
X138564223Y-42350624D01*
X138910762Y-42340460D01*
X139248661Y-42262887D01*
X139564934Y-42120881D01*
X139847426Y-41919904D01*
X140085281Y-41667676D01*
X140269359Y-41373892D01*
X140392584Y-41049841D01*
X140435781Y-40793639D01*
X140473999Y-40239475D01*
X140485900Y-40179645D01*
X140485900Y-40066911D01*
X140487677Y-40041144D01*
X140485900Y-39980556D01*
X140485900Y-39832955D01*
X140480822Y-39807428D01*
X140480060Y-39781437D01*
X140447059Y-39637687D01*
X140418264Y-39492927D01*
X140408307Y-39468888D01*
X140402487Y-39443538D01*
X140342077Y-39308994D01*
X140285592Y-39172627D01*
X140271130Y-39150983D01*
X140260481Y-39127266D01*
X140174996Y-39007109D01*
X140092981Y-38884365D01*
X140074578Y-38865962D01*
X140059504Y-38844774D01*
X139952211Y-38743595D01*
X139847835Y-38639219D01*
X139826194Y-38624759D01*
X139807276Y-38606919D01*
X139682307Y-38528616D01*
X139559573Y-38446608D01*
X139535528Y-38436648D01*
X139513492Y-38422841D01*
X139375640Y-38370421D01*
X139239273Y-38313936D01*
X139213746Y-38308858D01*
X139189441Y-38299616D01*
X139044008Y-38275095D01*
X138899245Y-38246300D01*
X138873223Y-38246300D01*
X138847577Y-38241976D01*
X138700137Y-38246300D01*
X138552555Y-38246300D01*
X138527033Y-38251377D01*
X138501038Y-38252139D01*
X138357275Y-38285144D01*
X138212527Y-38313936D01*
X138188487Y-38323894D01*
X138163139Y-38329713D01*
X138138159Y-38340929D01*
X133772900Y-33975670D01*
X133772900Y-32745801D01*
X133815394Y-32723087D01*
X133912085Y-32643735D01*
X133991437Y-32547044D01*
X134050402Y-32436730D01*
X134086712Y-32317032D01*
X134098972Y-32192550D01*
X134098972Y-30992550D01*
X138147828Y-30992550D01*
X138147828Y-32192550D01*
X138160088Y-32317032D01*
X138196398Y-32436730D01*
X138255363Y-32547044D01*
X138334715Y-32643735D01*
X138431406Y-32723087D01*
X138541720Y-32782052D01*
X138661418Y-32818362D01*
X138785900Y-32830622D01*
X139685900Y-32830622D01*
X139810382Y-32818362D01*
X139930080Y-32782052D01*
X140040394Y-32723087D01*
X140137085Y-32643735D01*
X140216437Y-32547044D01*
X140275402Y-32436730D01*
X140311712Y-32317032D01*
X140323972Y-32192550D01*
X140323972Y-30992550D01*
X140311712Y-30868068D01*
X140275402Y-30748370D01*
X140216437Y-30638056D01*
X140137085Y-30541365D01*
X140040394Y-30462013D01*
X139997900Y-30439299D01*
X139997900Y-30099177D01*
X148066400Y-30099177D01*
X148066400Y-30657623D01*
X148175348Y-31205339D01*
X148389056Y-31721276D01*
X148699312Y-32185607D01*
X149094193Y-32580488D01*
X149558524Y-32890744D01*
X150074461Y-33104452D01*
X150622177Y-33213400D01*
X151180623Y-33213400D01*
X151728339Y-33104452D01*
X152244276Y-32890744D01*
X152708607Y-32580488D01*
X153103488Y-32185607D01*
X153413744Y-31721276D01*
X153627452Y-31205339D01*
X153736400Y-30657623D01*
X153736400Y-30099177D01*
X153627452Y-29551461D01*
X153413744Y-29035524D01*
X153103488Y-28571193D01*
X152708607Y-28176312D01*
X152244276Y-27866056D01*
X151728339Y-27652348D01*
X151180623Y-27543400D01*
X150622177Y-27543400D01*
X150074461Y-27652348D01*
X149558524Y-27866056D01*
X149094193Y-28176312D01*
X148699312Y-28571193D01*
X148389056Y-29035524D01*
X148175348Y-29551461D01*
X148066400Y-30099177D01*
X139997900Y-30099177D01*
X139997900Y-30038011D01*
X140039837Y-29996074D01*
X140153105Y-29826556D01*
X140231126Y-29638198D01*
X140270900Y-29438239D01*
X140270900Y-29234361D01*
X140231126Y-29034402D01*
X140153105Y-28846044D01*
X140039837Y-28676526D01*
X139895674Y-28532363D01*
X139726156Y-28419095D01*
X139537798Y-28341074D01*
X139337839Y-28301300D01*
X139133961Y-28301300D01*
X138934002Y-28341074D01*
X138745644Y-28419095D01*
X138576126Y-28532363D01*
X138431963Y-28676526D01*
X138318695Y-28846044D01*
X138240674Y-29034402D01*
X138200900Y-29234361D01*
X138200900Y-29438239D01*
X138240674Y-29638198D01*
X138318695Y-29826556D01*
X138431963Y-29996074D01*
X138473901Y-30038012D01*
X138473901Y-30439299D01*
X138431406Y-30462013D01*
X138334715Y-30541365D01*
X138255363Y-30638056D01*
X138196398Y-30748370D01*
X138160088Y-30868068D01*
X138147828Y-30992550D01*
X134098972Y-30992550D01*
X134086712Y-30868068D01*
X134050402Y-30748370D01*
X133991437Y-30638056D01*
X133912085Y-30541365D01*
X133815394Y-30462013D01*
X133705080Y-30403048D01*
X133585382Y-30366738D01*
X133460900Y-30354478D01*
X132560900Y-30354478D01*
X132436418Y-30366738D01*
X132316720Y-30403048D01*
X132206406Y-30462013D01*
X132109715Y-30541365D01*
X132030363Y-30638056D01*
X131971398Y-30748370D01*
X131935088Y-30868068D01*
X131922828Y-30992550D01*
X130798972Y-30992550D01*
X130786712Y-30868068D01*
X130750402Y-30748370D01*
X130691437Y-30638056D01*
X130612085Y-30541365D01*
X130515394Y-30462013D01*
X130405080Y-30403048D01*
X130285382Y-30366738D01*
X130160900Y-30354478D01*
X129550459Y-30354478D01*
X127101184Y-27905204D01*
X127077322Y-27876128D01*
X126961292Y-27780905D01*
X126828915Y-27710148D01*
X126685278Y-27666576D01*
X126573326Y-27655550D01*
X126573323Y-27655550D01*
X126535900Y-27651864D01*
X126498477Y-27655550D01*
X113998322Y-27655550D01*
X113960899Y-27651864D01*
X113923476Y-27655550D01*
X113923474Y-27655550D01*
X113811522Y-27666576D01*
X113667885Y-27710148D01*
X113535508Y-27780905D01*
X113419478Y-27876128D01*
X113395621Y-27905198D01*
X110946342Y-30354478D01*
X110625459Y-30354478D01*
X108176184Y-27905204D01*
X108152322Y-27876128D01*
X108036292Y-27780905D01*
X107903915Y-27710148D01*
X107760278Y-27666576D01*
X107648326Y-27655550D01*
X107648323Y-27655550D01*
X107610900Y-27651864D01*
X107573477Y-27655550D01*
X94948322Y-27655550D01*
X94910899Y-27651864D01*
X94873476Y-27655550D01*
X94873474Y-27655550D01*
X94761522Y-27666576D01*
X94617885Y-27710148D01*
X94485508Y-27780905D01*
X94369478Y-27876128D01*
X94345621Y-27905198D01*
X91896342Y-30354478D01*
X91575459Y-30354478D01*
X89126184Y-27905204D01*
X89102322Y-27876128D01*
X88986292Y-27780905D01*
X88853915Y-27710148D01*
X88710278Y-27666576D01*
X88598326Y-27655550D01*
X88598323Y-27655550D01*
X88560900Y-27651864D01*
X88523477Y-27655550D01*
X75898322Y-27655550D01*
X75860899Y-27651864D01*
X75823476Y-27655550D01*
X75823474Y-27655550D01*
X75711522Y-27666576D01*
X75567885Y-27710148D01*
X75435508Y-27780905D01*
X75319478Y-27876128D01*
X75295621Y-27905198D01*
X72846342Y-30354478D01*
X72235900Y-30354478D01*
X72111418Y-30366738D01*
X71991720Y-30403048D01*
X71881406Y-30462013D01*
X71784715Y-30541365D01*
X71705363Y-30638056D01*
X71646398Y-30748370D01*
X71610088Y-30868068D01*
X71597828Y-30992550D01*
X71597828Y-32192550D01*
X71610088Y-32317032D01*
X71646398Y-32436730D01*
X71705363Y-32547044D01*
X71784715Y-32643735D01*
X71881406Y-32723087D01*
X71923901Y-32745801D01*
X71923901Y-32864418D01*
X66617304Y-38171016D01*
X66588228Y-38194878D01*
X66546028Y-38246300D01*
X66493005Y-38310908D01*
X66491387Y-38313936D01*
X66422248Y-38443286D01*
X66378676Y-38586923D01*
X66367650Y-38698874D01*
X66363964Y-38736300D01*
X66367650Y-38773723D01*
X66367651Y-52422418D01*
X63968886Y-54821184D01*
X63955398Y-54807696D01*
X63811580Y-54711600D01*
X63955398Y-54615504D01*
X64165904Y-54404998D01*
X64331297Y-54157469D01*
X64445222Y-53882430D01*
X64503300Y-53590450D01*
X64503300Y-53292750D01*
X64445222Y-53000770D01*
X64331297Y-52725731D01*
X64165904Y-52478202D01*
X63955398Y-52267696D01*
X63811580Y-52171600D01*
X63955398Y-52075504D01*
X64165904Y-51864998D01*
X64331297Y-51617469D01*
X64445222Y-51342430D01*
X64503300Y-51050450D01*
X64503300Y-50752750D01*
X64445222Y-50460770D01*
X64331297Y-50185731D01*
X64165904Y-49938202D01*
X63955398Y-49727696D01*
X63811580Y-49631600D01*
X63955398Y-49535504D01*
X64165904Y-49324998D01*
X64331297Y-49077469D01*
X64445222Y-48802430D01*
X64503300Y-48510450D01*
X64503300Y-48212750D01*
X64445222Y-47920770D01*
X64331297Y-47645731D01*
X64165904Y-47398202D01*
X63955398Y-47187696D01*
X63811580Y-47091600D01*
X63955398Y-46995504D01*
X64165904Y-46784998D01*
X64331297Y-46537469D01*
X64445222Y-46262430D01*
X64503300Y-45970450D01*
X64503300Y-45672750D01*
X64445222Y-45380770D01*
X64331297Y-45105731D01*
X64165904Y-44858202D01*
X63955398Y-44647696D01*
X63811580Y-44551600D01*
X63955398Y-44455504D01*
X64165904Y-44244998D01*
X64331297Y-43997469D01*
X64445222Y-43722430D01*
X64503300Y-43430450D01*
X64503300Y-43132750D01*
X64445222Y-42840770D01*
X64331297Y-42565731D01*
X64165904Y-42318202D01*
X63955398Y-42107696D01*
X63811580Y-42011600D01*
X63955398Y-41915504D01*
X64165904Y-41704998D01*
X64331297Y-41457469D01*
X64445222Y-41182430D01*
X64503300Y-40890450D01*
X64503300Y-40592750D01*
X64445222Y-40300770D01*
X64331297Y-40025731D01*
X64165904Y-39778202D01*
X63955398Y-39567696D01*
X63811580Y-39471600D01*
X63955398Y-39375504D01*
X64165904Y-39164998D01*
X64331297Y-38917469D01*
X64445222Y-38642430D01*
X64503300Y-38350450D01*
X64503300Y-38052750D01*
X64445222Y-37760770D01*
X64331297Y-37485731D01*
X64165904Y-37238202D01*
X63955398Y-37027696D01*
X63811580Y-36931600D01*
X63955398Y-36835504D01*
X64165904Y-36624998D01*
X64331297Y-36377469D01*
X64445222Y-36102430D01*
X64503300Y-35810450D01*
X64503300Y-35512750D01*
X64445222Y-35220770D01*
X64331297Y-34945731D01*
X64165904Y-34698202D01*
X63955398Y-34487696D01*
X63792191Y-34378645D01*
X63859563Y-34168769D01*
X62992000Y-33301205D01*
X62124437Y-34168769D01*
X62191809Y-34378645D01*
X62028602Y-34487696D01*
X61818096Y-34698202D01*
X61652703Y-34945731D01*
X61538778Y-35220770D01*
X61480700Y-35512750D01*
X61480700Y-35810450D01*
X61538778Y-36102430D01*
X61652703Y-36377469D01*
X61818096Y-36624998D01*
X62028602Y-36835504D01*
X62172420Y-36931600D01*
X62028602Y-37027696D01*
X61818096Y-37238202D01*
X61652703Y-37485731D01*
X61538778Y-37760770D01*
X61480700Y-38052750D01*
X61480700Y-38350450D01*
X61538778Y-38642430D01*
X61652703Y-38917469D01*
X61818096Y-39164998D01*
X62028602Y-39375504D01*
X62172420Y-39471600D01*
X62028602Y-39567696D01*
X61818096Y-39778202D01*
X61652703Y-40025731D01*
X61538778Y-40300770D01*
X61480700Y-40592750D01*
X61480700Y-40890450D01*
X61538778Y-41182430D01*
X61652703Y-41457469D01*
X61818096Y-41704998D01*
X62028602Y-41915504D01*
X62172420Y-42011600D01*
X62028602Y-42107696D01*
X61818096Y-42318202D01*
X61652703Y-42565731D01*
X61538778Y-42840770D01*
X61480700Y-43132750D01*
X61480700Y-43430450D01*
X61538778Y-43722430D01*
X61652703Y-43997469D01*
X61818096Y-44244998D01*
X62028602Y-44455504D01*
X62172420Y-44551600D01*
X62028602Y-44647696D01*
X61818096Y-44858202D01*
X61652703Y-45105731D01*
X61538778Y-45380770D01*
X61480700Y-45672750D01*
X61480700Y-45970450D01*
X61538778Y-46262430D01*
X61652703Y-46537469D01*
X61818096Y-46784998D01*
X62028602Y-46995504D01*
X62172420Y-47091600D01*
X62028602Y-47187696D01*
X61818096Y-47398202D01*
X61652703Y-47645731D01*
X61538778Y-47920770D01*
X61480700Y-48212750D01*
X61480700Y-48510450D01*
X61538778Y-48802430D01*
X61652703Y-49077469D01*
X61818096Y-49324998D01*
X62028602Y-49535504D01*
X62172420Y-49631600D01*
X62028602Y-49727696D01*
X61818096Y-49938202D01*
X61652703Y-50185731D01*
X61538778Y-50460770D01*
X61480700Y-50752750D01*
X61480700Y-51050450D01*
X61538778Y-51342430D01*
X61652703Y-51617469D01*
X61818096Y-51864998D01*
X62028602Y-52075504D01*
X62172420Y-52171600D01*
X62028602Y-52267696D01*
X61818096Y-52478202D01*
X61652703Y-52725731D01*
X61538778Y-53000770D01*
X61480700Y-53292750D01*
X61480700Y-53590450D01*
X61538778Y-53882430D01*
X61652703Y-54157469D01*
X61818096Y-54404998D01*
X62028602Y-54615504D01*
X62172420Y-54711600D01*
X62028602Y-54807696D01*
X61818096Y-55018202D01*
X61652703Y-55265731D01*
X61538778Y-55540770D01*
X61480700Y-55832750D01*
X61480700Y-56130450D01*
X61538778Y-56422430D01*
X61652703Y-56697469D01*
X61818096Y-56944998D01*
X62028602Y-57155504D01*
X62172420Y-57251600D01*
X62028602Y-57347696D01*
X61818096Y-57558202D01*
X61722000Y-57702020D01*
X61625904Y-57558202D01*
X61415398Y-57347696D01*
X61167869Y-57182303D01*
X60892830Y-57068378D01*
X60600850Y-57010300D01*
X60303150Y-57010300D01*
X60011170Y-57068378D01*
X59736131Y-57182303D01*
X59488602Y-57347696D01*
X59278096Y-57558202D01*
X59182000Y-57702020D01*
X59085904Y-57558202D01*
X58875398Y-57347696D01*
X58627869Y-57182303D01*
X58352830Y-57068378D01*
X58060850Y-57010300D01*
X57763150Y-57010300D01*
X57471170Y-57068378D01*
X57196131Y-57182303D01*
X56948602Y-57347696D01*
X56738096Y-57558202D01*
X56642000Y-57702020D01*
X56545904Y-57558202D01*
X56335398Y-57347696D01*
X56087869Y-57182303D01*
X55812830Y-57068378D01*
X55520850Y-57010300D01*
X55223150Y-57010300D01*
X54931170Y-57068378D01*
X54656131Y-57182303D01*
X54408602Y-57347696D01*
X54198096Y-57558202D01*
X54102000Y-57702020D01*
X54005904Y-57558202D01*
X53795398Y-57347696D01*
X53547869Y-57182303D01*
X53272830Y-57068378D01*
X52980850Y-57010300D01*
X52683150Y-57010300D01*
X52391170Y-57068378D01*
X52116131Y-57182303D01*
X51868602Y-57347696D01*
X51658096Y-57558202D01*
X51562000Y-57702020D01*
X51465904Y-57558202D01*
X51255398Y-57347696D01*
X51007869Y-57182303D01*
X50732830Y-57068378D01*
X50440850Y-57010300D01*
X50143150Y-57010300D01*
X49851170Y-57068378D01*
X49576131Y-57182303D01*
X49328602Y-57347696D01*
X49136300Y-57539998D01*
X48943998Y-57347696D01*
X48696469Y-57182303D01*
X48683395Y-57176888D01*
X48715398Y-57155504D01*
X48925904Y-56944998D01*
X49091297Y-56697469D01*
X49205222Y-56422430D01*
X49263300Y-56130450D01*
X49263300Y-55832750D01*
X49205222Y-55540770D01*
X49091297Y-55265731D01*
X48925904Y-55018202D01*
X48715398Y-54807696D01*
X48571580Y-54711600D01*
X48715398Y-54615504D01*
X48925904Y-54404998D01*
X49091297Y-54157469D01*
X49205222Y-53882430D01*
X49263300Y-53590450D01*
X49263300Y-53292750D01*
X49205222Y-53000770D01*
X49091297Y-52725731D01*
X48925904Y-52478202D01*
X48715398Y-52267696D01*
X48571580Y-52171600D01*
X48715398Y-52075504D01*
X48925904Y-51864998D01*
X49091297Y-51617469D01*
X49205222Y-51342430D01*
X49263300Y-51050450D01*
X49263300Y-50752750D01*
X49205222Y-50460770D01*
X49091297Y-50185731D01*
X48925904Y-49938202D01*
X48715398Y-49727696D01*
X48571580Y-49631600D01*
X48715398Y-49535504D01*
X48925904Y-49324998D01*
X49091297Y-49077469D01*
X49205222Y-48802430D01*
X49263300Y-48510450D01*
X49263300Y-48212750D01*
X49205222Y-47920770D01*
X49091297Y-47645731D01*
X48925904Y-47398202D01*
X48715398Y-47187696D01*
X48571580Y-47091600D01*
X48715398Y-46995504D01*
X48925904Y-46784998D01*
X49091297Y-46537469D01*
X49205222Y-46262430D01*
X49263300Y-45970450D01*
X49263300Y-45672750D01*
X49205222Y-45380770D01*
X49091297Y-45105731D01*
X48925904Y-44858202D01*
X48715398Y-44647696D01*
X48571580Y-44551600D01*
X48715398Y-44455504D01*
X48925904Y-44244998D01*
X49091297Y-43997469D01*
X49205222Y-43722430D01*
X49263300Y-43430450D01*
X49263300Y-43132750D01*
X49205222Y-42840770D01*
X49091297Y-42565731D01*
X48925904Y-42318202D01*
X48715398Y-42107696D01*
X48571580Y-42011600D01*
X48715398Y-41915504D01*
X48925904Y-41704998D01*
X49091297Y-41457469D01*
X49205222Y-41182430D01*
X49263300Y-40890450D01*
X49263300Y-40592750D01*
X49205222Y-40300770D01*
X49091297Y-40025731D01*
X48925904Y-39778202D01*
X48715398Y-39567696D01*
X48552191Y-39458645D01*
X48619563Y-39248769D01*
X47752000Y-38381205D01*
X46884437Y-39248769D01*
X46951809Y-39458645D01*
X46788602Y-39567696D01*
X46578096Y-39778202D01*
X46412703Y-40025731D01*
X46298778Y-40300770D01*
X46240700Y-40592750D01*
X46240700Y-40890450D01*
X46298778Y-41182430D01*
X46412703Y-41457469D01*
X46578096Y-41704998D01*
X46788602Y-41915504D01*
X46932420Y-42011600D01*
X46788602Y-42107696D01*
X46578096Y-42318202D01*
X46412703Y-42565731D01*
X46298778Y-42840770D01*
X46240700Y-43132750D01*
X46240700Y-43430450D01*
X46298778Y-43722430D01*
X46412703Y-43997469D01*
X46578096Y-44244998D01*
X46788602Y-44455504D01*
X46932420Y-44551600D01*
X46788602Y-44647696D01*
X46578096Y-44858202D01*
X46412703Y-45105731D01*
X46298778Y-45380770D01*
X46240700Y-45672750D01*
X46240700Y-45970450D01*
X46298778Y-46262430D01*
X46412703Y-46537469D01*
X46578096Y-46784998D01*
X46788602Y-46995504D01*
X46932420Y-47091600D01*
X46788602Y-47187696D01*
X46578096Y-47398202D01*
X46412703Y-47645731D01*
X46298778Y-47920770D01*
X46240700Y-48212750D01*
X46240700Y-48510450D01*
X46298778Y-48802430D01*
X46412703Y-49077469D01*
X46578096Y-49324998D01*
X46788602Y-49535504D01*
X46932420Y-49631600D01*
X46788602Y-49727696D01*
X46578096Y-49938202D01*
X46412703Y-50185731D01*
X46298778Y-50460770D01*
X46240700Y-50752750D01*
X46240700Y-51050450D01*
X46287954Y-51288015D01*
X44392299Y-53183671D01*
X44363229Y-53207528D01*
X44339372Y-53236598D01*
X44339371Y-53236599D01*
X44268005Y-53323558D01*
X44197249Y-53455935D01*
X44153677Y-53599572D01*
X44138964Y-53748950D01*
X32886250Y-53748950D01*
X32886250Y-38269091D01*
X46234887Y-38269091D01*
X46277204Y-38563767D01*
X46376198Y-38844527D01*
X46453071Y-38988346D01*
X46704831Y-39069163D01*
X47572395Y-38201600D01*
X47931605Y-38201600D01*
X48799169Y-39069163D01*
X49050929Y-38988346D01*
X49179457Y-38719821D01*
X49253129Y-38431381D01*
X49269113Y-38134109D01*
X49226796Y-37839433D01*
X49127802Y-37558673D01*
X49050929Y-37414854D01*
X48799169Y-37334037D01*
X47931605Y-38201600D01*
X47572395Y-38201600D01*
X46704831Y-37334037D01*
X46453071Y-37414854D01*
X46324543Y-37683379D01*
X46250871Y-37971819D01*
X46234887Y-38269091D01*
X32886250Y-38269091D01*
X32886250Y-36708769D01*
X46884437Y-36708769D01*
X46955968Y-36931600D01*
X46884437Y-37154431D01*
X47752000Y-38021995D01*
X48619563Y-37154431D01*
X48548032Y-36931600D01*
X48619563Y-36708769D01*
X47752000Y-35841205D01*
X46884437Y-36708769D01*
X32886250Y-36708769D01*
X32886250Y-35729091D01*
X46234887Y-35729091D01*
X46277204Y-36023767D01*
X46376198Y-36304527D01*
X46453071Y-36448346D01*
X46704831Y-36529163D01*
X47572395Y-35661600D01*
X47931605Y-35661600D01*
X48799169Y-36529163D01*
X49050929Y-36448346D01*
X49179457Y-36179821D01*
X49253129Y-35891381D01*
X49269113Y-35594109D01*
X49226796Y-35299433D01*
X49127802Y-35018673D01*
X49050929Y-34874854D01*
X48799169Y-34794037D01*
X47931605Y-35661600D01*
X47572395Y-35661600D01*
X46704831Y-34794037D01*
X46453071Y-34874854D01*
X46324543Y-35143379D01*
X46250871Y-35431819D01*
X46234887Y-35729091D01*
X32886250Y-35729091D01*
X32886250Y-30099177D01*
X34553800Y-30099177D01*
X34553800Y-30657623D01*
X34662748Y-31205339D01*
X34876456Y-31721276D01*
X35186712Y-32185607D01*
X35581593Y-32580488D01*
X36045924Y-32890744D01*
X36561861Y-33104452D01*
X37109577Y-33213400D01*
X37668023Y-33213400D01*
X38215739Y-33104452D01*
X38731676Y-32890744D01*
X39196007Y-32580488D01*
X39590888Y-32185607D01*
X39901144Y-31721276D01*
X40114852Y-31205339D01*
X40223800Y-30657623D01*
X40223800Y-30099177D01*
X40145453Y-29705300D01*
X46237628Y-29705300D01*
X46237628Y-31457900D01*
X46249888Y-31582382D01*
X46286198Y-31702080D01*
X46345163Y-31812394D01*
X46424515Y-31909085D01*
X46521206Y-31988437D01*
X46631520Y-32047402D01*
X46675542Y-32060756D01*
X46578096Y-32158202D01*
X46412703Y-32405731D01*
X46298778Y-32680770D01*
X46240700Y-32972750D01*
X46240700Y-33270450D01*
X46298778Y-33562430D01*
X46412703Y-33837469D01*
X46578096Y-34084998D01*
X46788602Y-34295504D01*
X46951809Y-34404555D01*
X46884437Y-34614431D01*
X47752000Y-35481995D01*
X48619563Y-34614431D01*
X48552191Y-34404555D01*
X48715398Y-34295504D01*
X48925904Y-34084998D01*
X49091297Y-33837469D01*
X49205222Y-33562430D01*
X49263300Y-33270450D01*
X49263300Y-33189091D01*
X61474887Y-33189091D01*
X61517204Y-33483767D01*
X61616198Y-33764527D01*
X61693071Y-33908346D01*
X61944831Y-33989163D01*
X62812395Y-33121600D01*
X63171605Y-33121600D01*
X64039169Y-33989163D01*
X64290929Y-33908346D01*
X64419457Y-33639821D01*
X64493129Y-33351381D01*
X64509113Y-33054109D01*
X64466796Y-32759433D01*
X64367802Y-32478673D01*
X64290929Y-32334854D01*
X64039169Y-32254037D01*
X63171605Y-33121600D01*
X62812395Y-33121600D01*
X61944831Y-32254037D01*
X61693071Y-32334854D01*
X61564543Y-32603379D01*
X61490871Y-32891819D01*
X61474887Y-33189091D01*
X49263300Y-33189091D01*
X49263300Y-32972750D01*
X49205222Y-32680770D01*
X49091297Y-32405731D01*
X48925904Y-32158202D01*
X48828458Y-32060756D01*
X48872480Y-32047402D01*
X48982794Y-31988437D01*
X49079485Y-31909085D01*
X49158837Y-31812394D01*
X49217802Y-31702080D01*
X49254112Y-31582382D01*
X49266372Y-31457900D01*
X49266372Y-30432750D01*
X61480700Y-30432750D01*
X61480700Y-30730450D01*
X61538778Y-31022430D01*
X61652703Y-31297469D01*
X61818096Y-31544998D01*
X62028602Y-31755504D01*
X62191809Y-31864555D01*
X62124437Y-32074431D01*
X62992000Y-32941995D01*
X63859563Y-32074431D01*
X63792191Y-31864555D01*
X63955398Y-31755504D01*
X64165904Y-31544998D01*
X64331297Y-31297469D01*
X64445222Y-31022430D01*
X64503300Y-30730450D01*
X64503300Y-30432750D01*
X64445222Y-30140770D01*
X64331297Y-29865731D01*
X64165904Y-29618202D01*
X63955398Y-29407696D01*
X63707869Y-29242303D01*
X63432830Y-29128378D01*
X63140850Y-29070300D01*
X62843150Y-29070300D01*
X62551170Y-29128378D01*
X62276131Y-29242303D01*
X62028602Y-29407696D01*
X61818096Y-29618202D01*
X61652703Y-29865731D01*
X61538778Y-30140770D01*
X61480700Y-30432750D01*
X49266372Y-30432750D01*
X49266372Y-29705300D01*
X49254112Y-29580818D01*
X49217802Y-29461120D01*
X49158837Y-29350806D01*
X49079485Y-29254115D01*
X48982794Y-29174763D01*
X48872480Y-29115798D01*
X48752782Y-29079488D01*
X48628300Y-29067228D01*
X46875700Y-29067228D01*
X46751218Y-29079488D01*
X46631520Y-29115798D01*
X46521206Y-29174763D01*
X46424515Y-29254115D01*
X46345163Y-29350806D01*
X46286198Y-29461120D01*
X46249888Y-29580818D01*
X46237628Y-29705300D01*
X40145453Y-29705300D01*
X40114852Y-29551461D01*
X39901144Y-29035524D01*
X39590888Y-28571193D01*
X39196007Y-28176312D01*
X38731676Y-27866056D01*
X38215739Y-27652348D01*
X37668023Y-27543400D01*
X37109577Y-27543400D01*
X36561861Y-27652348D01*
X36045924Y-27866056D01*
X35581593Y-28176312D01*
X35186712Y-28571193D01*
X34876456Y-29035524D01*
X34662748Y-29551461D01*
X34553800Y-30099177D01*
X32886250Y-30099177D01*
X32886250Y-25875850D01*
X155391251Y-25875850D01*
X155391250Y-83293350D01*
G04 #@! TA.AperFunction,Conductor*
D18*
G36*
X155391250Y-83293350D02*
G01*
X32886250Y-83293350D01*
X32886250Y-78511577D01*
X34553800Y-78511577D01*
X34553800Y-79070023D01*
X34662748Y-79617739D01*
X34876456Y-80133676D01*
X35186712Y-80598007D01*
X35581593Y-80992888D01*
X36045924Y-81303144D01*
X36561861Y-81516852D01*
X37109577Y-81625800D01*
X37668023Y-81625800D01*
X38215739Y-81516852D01*
X38731676Y-81303144D01*
X39196007Y-80992888D01*
X39590888Y-80598007D01*
X39901144Y-80133676D01*
X40114852Y-79617739D01*
X40223800Y-79070023D01*
X40223800Y-78511577D01*
X148066400Y-78511577D01*
X148066400Y-79070023D01*
X148175348Y-79617739D01*
X148389056Y-80133676D01*
X148699312Y-80598007D01*
X149094193Y-80992888D01*
X149558524Y-81303144D01*
X150074461Y-81516852D01*
X150622177Y-81625800D01*
X151180623Y-81625800D01*
X151728339Y-81516852D01*
X152244276Y-81303144D01*
X152708607Y-80992888D01*
X153103488Y-80598007D01*
X153413744Y-80133676D01*
X153627452Y-79617739D01*
X153736400Y-79070023D01*
X153736400Y-78511577D01*
X153627452Y-77963861D01*
X153413744Y-77447924D01*
X153103488Y-76983593D01*
X152708607Y-76588712D01*
X152244276Y-76278456D01*
X151728339Y-76064748D01*
X151180623Y-75955800D01*
X150622177Y-75955800D01*
X150074461Y-76064748D01*
X149558524Y-76278456D01*
X149094193Y-76588712D01*
X148699312Y-76983593D01*
X148389056Y-77447924D01*
X148175348Y-77963861D01*
X148066400Y-78511577D01*
X40223800Y-78511577D01*
X40114852Y-77963861D01*
X39901144Y-77447924D01*
X39590888Y-76983593D01*
X39196007Y-76588712D01*
X38731676Y-76278456D01*
X38215739Y-76064748D01*
X37668023Y-75955800D01*
X37109577Y-75955800D01*
X36561861Y-76064748D01*
X36045924Y-76278456D01*
X35581593Y-76588712D01*
X35186712Y-76983593D01*
X34876456Y-77447924D01*
X34662748Y-77963861D01*
X34553800Y-78511577D01*
X32886250Y-78511577D01*
X32886250Y-53748950D01*
X44138964Y-53748950D01*
X44142651Y-53786383D01*
X44142650Y-60923877D01*
X44138964Y-60961300D01*
X44142650Y-60998723D01*
X44142650Y-60998725D01*
X44153676Y-61110677D01*
X44197248Y-61254314D01*
X44197249Y-61254315D01*
X44268005Y-61386692D01*
X44279439Y-61400624D01*
X44363228Y-61502722D01*
X44392304Y-61526584D01*
X57039371Y-74173652D01*
X57063228Y-74202722D01*
X57179258Y-74297945D01*
X57311635Y-74368702D01*
X57455272Y-74412274D01*
X57567224Y-74423300D01*
X57567226Y-74423300D01*
X57604649Y-74426986D01*
X57642072Y-74423300D01*
X129004727Y-74423300D01*
X129042150Y-74426986D01*
X129079573Y-74423300D01*
X129079576Y-74423300D01*
X129191528Y-74412274D01*
X129335165Y-74368702D01*
X129467542Y-74297945D01*
X129583572Y-74202722D01*
X129607434Y-74173646D01*
X133523252Y-70257829D01*
X133552322Y-70233972D01*
X133647545Y-70117942D01*
X133718302Y-69985565D01*
X133761874Y-69841928D01*
X133772900Y-69729976D01*
X133772900Y-69729974D01*
X133776586Y-69692551D01*
X133772900Y-69655128D01*
X133772900Y-65180450D01*
X133856199Y-65381551D01*
X134143900Y-65812126D01*
X134510074Y-66178300D01*
X134940649Y-66466001D01*
X135419078Y-66664173D01*
X135926976Y-66765200D01*
X136444824Y-66765200D01*
X136952722Y-66664173D01*
X137431151Y-66466001D01*
X137861726Y-66178300D01*
X138227900Y-65812126D01*
X138515601Y-65381551D01*
X138713773Y-64903122D01*
X138814800Y-64395224D01*
X138814800Y-63987578D01*
X139755900Y-63987578D01*
X139755900Y-64285022D01*
X139813929Y-64576751D01*
X139927756Y-64851553D01*
X140093007Y-65098869D01*
X140303331Y-65309193D01*
X140550647Y-65474444D01*
X140825449Y-65588271D01*
X141117178Y-65646300D01*
X141414622Y-65646300D01*
X141706351Y-65588271D01*
X141981153Y-65474444D01*
X142228469Y-65309193D01*
X142438793Y-65098869D01*
X142604044Y-64851553D01*
X142717871Y-64576751D01*
X142775900Y-64285022D01*
X142775900Y-63987578D01*
X142717871Y-63695849D01*
X142604044Y-63421047D01*
X142438793Y-63173731D01*
X142228469Y-62963407D01*
X141981153Y-62798156D01*
X141706351Y-62684329D01*
X141414622Y-62626300D01*
X141117178Y-62626300D01*
X140825449Y-62684329D01*
X140550647Y-62798156D01*
X140303331Y-62963407D01*
X140093007Y-63173731D01*
X139927756Y-63421047D01*
X139813929Y-63695849D01*
X139755900Y-63987578D01*
X138814800Y-63987578D01*
X138814800Y-63877376D01*
X138713773Y-63369478D01*
X138515601Y-62891049D01*
X138227900Y-62460474D01*
X137861726Y-62094300D01*
X137431151Y-61806599D01*
X136952722Y-61608427D01*
X136444824Y-61507400D01*
X135926976Y-61507400D01*
X135419078Y-61608427D01*
X134940649Y-61806599D01*
X134510074Y-62094300D01*
X134143900Y-62460474D01*
X133856199Y-62891049D01*
X133772900Y-63092150D01*
X133772900Y-62674710D01*
X134964100Y-61347116D01*
X135052981Y-61258235D01*
X135127727Y-61146370D01*
X135207344Y-61037887D01*
X135223879Y-61002469D01*
X135245592Y-60969973D01*
X135297075Y-60845682D01*
X135354001Y-60723745D01*
X135363310Y-60685776D01*
X135378264Y-60649673D01*
X135404510Y-60517726D01*
X135436553Y-60387027D01*
X135438275Y-60347977D01*
X135445900Y-60309645D01*
X135445900Y-60175102D01*
X135451829Y-60040674D01*
X135445900Y-60002039D01*
X135445900Y-59962955D01*
X135419651Y-59830991D01*
X135399241Y-59697996D01*
X135385889Y-59661261D01*
X135378264Y-59622927D01*
X135369371Y-59601457D01*
X136924123Y-59601457D01*
X136931740Y-59861162D01*
X137009313Y-60199061D01*
X137151319Y-60515334D01*
X137352296Y-60797826D01*
X137604524Y-61035681D01*
X137898308Y-61219759D01*
X138222359Y-61342984D01*
X138564223Y-61400624D01*
X138910762Y-61390460D01*
X139248661Y-61312887D01*
X139564934Y-61170881D01*
X139847426Y-60969904D01*
X140085281Y-60717676D01*
X140269359Y-60423892D01*
X140392584Y-60099841D01*
X140435781Y-59843639D01*
X140473999Y-59289475D01*
X140485900Y-59229645D01*
X140485900Y-59116911D01*
X140487677Y-59091144D01*
X140485900Y-59030556D01*
X140485900Y-58882955D01*
X140480822Y-58857428D01*
X140480060Y-58831437D01*
X140447059Y-58687687D01*
X140418264Y-58542927D01*
X140408307Y-58518888D01*
X140402487Y-58493538D01*
X140391271Y-58468559D01*
X144635746Y-54224084D01*
X144664822Y-54200222D01*
X144729845Y-54120991D01*
X144760045Y-54084193D01*
X144811132Y-53988615D01*
X144830802Y-53951815D01*
X144874374Y-53808178D01*
X144885400Y-53696226D01*
X144885400Y-53696223D01*
X144889086Y-53658800D01*
X144885400Y-53621377D01*
X144885400Y-32423722D01*
X144889086Y-32386299D01*
X144882264Y-32317032D01*
X144874374Y-32236922D01*
X144830802Y-32093285D01*
X144760045Y-31960908D01*
X144664822Y-31844878D01*
X144635753Y-31821022D01*
X143894934Y-31080203D01*
X143871072Y-31051128D01*
X143755042Y-30955905D01*
X143622665Y-30885148D01*
X143613109Y-30882249D01*
X143611712Y-30868068D01*
X143575402Y-30748370D01*
X143516437Y-30638056D01*
X143437085Y-30541365D01*
X143340394Y-30462013D01*
X143230080Y-30403048D01*
X143110382Y-30366738D01*
X142985900Y-30354478D01*
X142085900Y-30354478D01*
X141961418Y-30366738D01*
X141841720Y-30403048D01*
X141731406Y-30462013D01*
X141634715Y-30541365D01*
X141555363Y-30638056D01*
X141496398Y-30748370D01*
X141460088Y-30868068D01*
X141447828Y-30992550D01*
X141447828Y-32192550D01*
X141460088Y-32317032D01*
X141496398Y-32436730D01*
X141555363Y-32547044D01*
X141634715Y-32643735D01*
X141731406Y-32723087D01*
X141841720Y-32782052D01*
X141961418Y-32818362D01*
X142085900Y-32830622D01*
X142985900Y-32830622D01*
X143110382Y-32818362D01*
X143230080Y-32782052D01*
X143340394Y-32723087D01*
X143361400Y-32705848D01*
X143361401Y-53343169D01*
X139310946Y-57393624D01*
X139239273Y-57363936D01*
X139213746Y-57358858D01*
X139189441Y-57349616D01*
X139044008Y-57325095D01*
X138899245Y-57296300D01*
X138873223Y-57296300D01*
X138847577Y-57291976D01*
X138700137Y-57296300D01*
X138552555Y-57296300D01*
X138527033Y-57301377D01*
X138501038Y-57302139D01*
X138357275Y-57335144D01*
X138212527Y-57363936D01*
X138188487Y-57373894D01*
X138163139Y-57379713D01*
X138028589Y-57440125D01*
X137892227Y-57496608D01*
X137870587Y-57511067D01*
X137846866Y-57521718D01*
X137726696Y-57607213D01*
X137603965Y-57689219D01*
X137585562Y-57707622D01*
X137564374Y-57722696D01*
X137463188Y-57829996D01*
X137358819Y-57934365D01*
X137344361Y-57956003D01*
X137326519Y-57974923D01*
X137248210Y-58099902D01*
X137166208Y-58222627D01*
X137156248Y-58246672D01*
X137142441Y-58268708D01*
X137090019Y-58406564D01*
X137033536Y-58542927D01*
X137028459Y-58568452D01*
X137019216Y-58592758D01*
X136994694Y-58738198D01*
X136965900Y-58882955D01*
X136965900Y-58995686D01*
X136924123Y-59601457D01*
X135369371Y-59601457D01*
X135326774Y-59498620D01*
X135280811Y-59372161D01*
X135260550Y-59338738D01*
X135245592Y-59302627D01*
X135170835Y-59190746D01*
X135101089Y-59075693D01*
X135074698Y-59046866D01*
X135052981Y-59014365D01*
X134957834Y-58919218D01*
X134866983Y-58819983D01*
X134835475Y-58796859D01*
X134807835Y-58769219D01*
X134695950Y-58694459D01*
X134587488Y-58614858D01*
X134552076Y-58598326D01*
X134519573Y-58576608D01*
X134395253Y-58525113D01*
X134273346Y-58468201D01*
X134235386Y-58458895D01*
X134199273Y-58443936D01*
X134067288Y-58417682D01*
X133936628Y-58385649D01*
X133897589Y-58383927D01*
X133859245Y-58376300D01*
X133770900Y-58376300D01*
X133770900Y-46125621D01*
X133856199Y-46331551D01*
X134143900Y-46762126D01*
X134510074Y-47128300D01*
X134940649Y-47416001D01*
X135419078Y-47614173D01*
X135926976Y-47715200D01*
X136444824Y-47715200D01*
X136952722Y-47614173D01*
X137431151Y-47416001D01*
X137861726Y-47128300D01*
X138227900Y-46762126D01*
X138515601Y-46331551D01*
X138713773Y-45853122D01*
X138814800Y-45345224D01*
X138814800Y-44937578D01*
X139755900Y-44937578D01*
X139755900Y-45235022D01*
X139813929Y-45526751D01*
X139927756Y-45801553D01*
X140093007Y-46048869D01*
X140303331Y-46259193D01*
X140550647Y-46424444D01*
X140825449Y-46538271D01*
X141117178Y-46596300D01*
X141414622Y-46596300D01*
X141706351Y-46538271D01*
X141981153Y-46424444D01*
X142228469Y-46259193D01*
X142438793Y-46048869D01*
X142604044Y-45801553D01*
X142717871Y-45526751D01*
X142775900Y-45235022D01*
X142775900Y-44937578D01*
X142717871Y-44645849D01*
X142604044Y-44371047D01*
X142438793Y-44123731D01*
X142228469Y-43913407D01*
X141981153Y-43748156D01*
X141706351Y-43634329D01*
X141414622Y-43576300D01*
X141117178Y-43576300D01*
X140825449Y-43634329D01*
X140550647Y-43748156D01*
X140303331Y-43913407D01*
X140093007Y-44123731D01*
X139927756Y-44371047D01*
X139813929Y-44645849D01*
X139755900Y-44937578D01*
X138814800Y-44937578D01*
X138814800Y-44827376D01*
X138713773Y-44319478D01*
X138515601Y-43841049D01*
X138227900Y-43410474D01*
X137861726Y-43044300D01*
X137431151Y-42756599D01*
X136952722Y-42558427D01*
X136444824Y-42457400D01*
X135926976Y-42457400D01*
X135419078Y-42558427D01*
X134940649Y-42756599D01*
X134510074Y-43044300D01*
X134143900Y-43410474D01*
X133856199Y-43841049D01*
X133770900Y-44046979D01*
X133770900Y-43626939D01*
X134964100Y-42297116D01*
X135052981Y-42208235D01*
X135127727Y-42096370D01*
X135207344Y-41987887D01*
X135223879Y-41952469D01*
X135245592Y-41919973D01*
X135297075Y-41795682D01*
X135354001Y-41673745D01*
X135363310Y-41635776D01*
X135378264Y-41599673D01*
X135404510Y-41467726D01*
X135436553Y-41337027D01*
X135438275Y-41297977D01*
X135445900Y-41259645D01*
X135445900Y-41125102D01*
X135451829Y-40990674D01*
X135445900Y-40952039D01*
X135445900Y-40912955D01*
X135419651Y-40780991D01*
X135399241Y-40647996D01*
X135385889Y-40611261D01*
X135378264Y-40572927D01*
X135326774Y-40448620D01*
X135280811Y-40322161D01*
X135260550Y-40288738D01*
X135245592Y-40252627D01*
X135170835Y-40140746D01*
X135101089Y-40025693D01*
X135074698Y-39996866D01*
X135052981Y-39964365D01*
X134957834Y-39869218D01*
X134866983Y-39769983D01*
X134835475Y-39746859D01*
X134807835Y-39719219D01*
X134695950Y-39644459D01*
X134587488Y-39564858D01*
X134552076Y-39548326D01*
X134519573Y-39526608D01*
X134395253Y-39475113D01*
X134273346Y-39418201D01*
X134235386Y-39408895D01*
X134199273Y-39393936D01*
X134067288Y-39367682D01*
X133936628Y-39335649D01*
X133897589Y-39333927D01*
X133859245Y-39326300D01*
X133724658Y-39326300D01*
X133590275Y-39320373D01*
X133551653Y-39326300D01*
X133512555Y-39326300D01*
X133380544Y-39352559D01*
X133247597Y-39372961D01*
X133210876Y-39386308D01*
X133172527Y-39393936D01*
X133048169Y-39445447D01*
X132921763Y-39491391D01*
X132888354Y-39511644D01*
X132852227Y-39526608D01*
X132740300Y-39601395D01*
X132625294Y-39671113D01*
X132596478Y-39697495D01*
X132563965Y-39719219D01*
X132468787Y-39814397D01*
X132433658Y-39846558D01*
X132407737Y-39875447D01*
X132318819Y-39964365D01*
X132292173Y-40004243D01*
X131008184Y-41435253D01*
X130854458Y-41644714D01*
X130707801Y-41958856D01*
X130625249Y-42295574D01*
X130609973Y-42641926D01*
X130662561Y-42984604D01*
X130780991Y-43310439D01*
X130943775Y-43578966D01*
X130665449Y-43634329D01*
X130390647Y-43748156D01*
X130143331Y-43913407D01*
X129933007Y-44123731D01*
X129767756Y-44371047D01*
X129653929Y-44645849D01*
X129595900Y-44937578D01*
X129595900Y-45235022D01*
X129653929Y-45526751D01*
X129767756Y-45801553D01*
X129933007Y-46048869D01*
X130143331Y-46259193D01*
X130390647Y-46424444D01*
X130665449Y-46538271D01*
X130957178Y-46596300D01*
X131254622Y-46596300D01*
X131546351Y-46538271D01*
X131821153Y-46424444D01*
X132068469Y-46259193D01*
X132250900Y-46076762D01*
X132250901Y-59100241D01*
X131008184Y-60485253D01*
X130854458Y-60694714D01*
X130707801Y-61008856D01*
X130625249Y-61345574D01*
X130609973Y-61691926D01*
X130662561Y-62034604D01*
X130780991Y-62360439D01*
X130943775Y-62628966D01*
X130665449Y-62684329D01*
X130390647Y-62798156D01*
X130143331Y-62963407D01*
X129933007Y-63173731D01*
X129767756Y-63421047D01*
X129653929Y-63695849D01*
X129595900Y-63987578D01*
X129595900Y-64285022D01*
X129653929Y-64576751D01*
X129767756Y-64851553D01*
X129933007Y-65098869D01*
X130143331Y-65309193D01*
X130390647Y-65474444D01*
X130665449Y-65588271D01*
X130957178Y-65646300D01*
X131254622Y-65646300D01*
X131546351Y-65588271D01*
X131821153Y-65474444D01*
X132068469Y-65309193D01*
X132248900Y-65128762D01*
X132248901Y-69376918D01*
X128726520Y-72899300D01*
X111831780Y-72899300D01*
X114473252Y-70257829D01*
X114502322Y-70233972D01*
X114597545Y-70117942D01*
X114668302Y-69985565D01*
X114711874Y-69841928D01*
X114722900Y-69729976D01*
X114722900Y-69729974D01*
X114726586Y-69692551D01*
X114722900Y-69655128D01*
X114722900Y-65180450D01*
X114806199Y-65381551D01*
X115093900Y-65812126D01*
X115460074Y-66178300D01*
X115890649Y-66466001D01*
X116369078Y-66664173D01*
X116876976Y-66765200D01*
X117394824Y-66765200D01*
X117902722Y-66664173D01*
X118381151Y-66466001D01*
X118811726Y-66178300D01*
X119177900Y-65812126D01*
X119465601Y-65381551D01*
X119663773Y-64903122D01*
X119764800Y-64395224D01*
X119764800Y-63987578D01*
X120705900Y-63987578D01*
X120705900Y-64285022D01*
X120763929Y-64576751D01*
X120877756Y-64851553D01*
X121043007Y-65098869D01*
X121253331Y-65309193D01*
X121500647Y-65474444D01*
X121775449Y-65588271D01*
X122067178Y-65646300D01*
X122364622Y-65646300D01*
X122656351Y-65588271D01*
X122931153Y-65474444D01*
X123178469Y-65309193D01*
X123388793Y-65098869D01*
X123554044Y-64851553D01*
X123667871Y-64576751D01*
X123725900Y-64285022D01*
X123725900Y-63987578D01*
X123667871Y-63695849D01*
X123554044Y-63421047D01*
X123388793Y-63173731D01*
X123178469Y-62963407D01*
X122931153Y-62798156D01*
X122656351Y-62684329D01*
X122364622Y-62626300D01*
X122067178Y-62626300D01*
X121775449Y-62684329D01*
X121500647Y-62798156D01*
X121253331Y-62963407D01*
X121043007Y-63173731D01*
X120877756Y-63421047D01*
X120763929Y-63695849D01*
X120705900Y-63987578D01*
X119764800Y-63987578D01*
X119764800Y-63877376D01*
X119663773Y-63369478D01*
X119465601Y-62891049D01*
X119177900Y-62460474D01*
X118811726Y-62094300D01*
X118381151Y-61806599D01*
X117902722Y-61608427D01*
X117394824Y-61507400D01*
X116876976Y-61507400D01*
X116369078Y-61608427D01*
X115890649Y-61806599D01*
X115460074Y-62094300D01*
X115093900Y-62460474D01*
X114806199Y-62891049D01*
X114722900Y-63092150D01*
X114722900Y-62674710D01*
X115914100Y-61347116D01*
X116002981Y-61258235D01*
X116077727Y-61146370D01*
X116157344Y-61037887D01*
X116173879Y-61002469D01*
X116195592Y-60969973D01*
X116247075Y-60845682D01*
X116304001Y-60723745D01*
X116313310Y-60685776D01*
X116328264Y-60649673D01*
X116354510Y-60517726D01*
X116386553Y-60387027D01*
X116388275Y-60347977D01*
X116395900Y-60309645D01*
X116395900Y-60175102D01*
X116401829Y-60040674D01*
X116395900Y-60002039D01*
X116395900Y-59962955D01*
X116369651Y-59830991D01*
X116349241Y-59697996D01*
X116335889Y-59661261D01*
X116328264Y-59622927D01*
X116319371Y-59601457D01*
X117874123Y-59601457D01*
X117881740Y-59861162D01*
X117959313Y-60199061D01*
X118101319Y-60515334D01*
X118302296Y-60797826D01*
X118554524Y-61035681D01*
X118848308Y-61219759D01*
X119172359Y-61342984D01*
X119514223Y-61400624D01*
X119860762Y-61390460D01*
X120198661Y-61312887D01*
X120514934Y-61170881D01*
X120797426Y-60969904D01*
X121035281Y-60717676D01*
X121219359Y-60423892D01*
X121342584Y-60099841D01*
X121385781Y-59843639D01*
X121423999Y-59289475D01*
X121435900Y-59229645D01*
X121435900Y-59116911D01*
X121437677Y-59091144D01*
X121435900Y-59030556D01*
X121435900Y-58882955D01*
X121430822Y-58857428D01*
X121430060Y-58831437D01*
X121397059Y-58687687D01*
X121368264Y-58542927D01*
X121358307Y-58518888D01*
X121352487Y-58493538D01*
X121341271Y-58468559D01*
X125585746Y-54224084D01*
X125614822Y-54200222D01*
X125679845Y-54120991D01*
X125710045Y-54084193D01*
X125761132Y-53988615D01*
X125780802Y-53951815D01*
X125824374Y-53808178D01*
X125835400Y-53696226D01*
X125835400Y-53696223D01*
X125839086Y-53658800D01*
X125835400Y-53621377D01*
X125835400Y-32423722D01*
X125839086Y-32386299D01*
X125832264Y-32317032D01*
X125824374Y-32236922D01*
X125780802Y-32093285D01*
X125710045Y-31960908D01*
X125614822Y-31844878D01*
X125585753Y-31821022D01*
X124844934Y-31080203D01*
X124821072Y-31051128D01*
X124705042Y-30955905D01*
X124572665Y-30885148D01*
X124563109Y-30882249D01*
X124561712Y-30868068D01*
X124525402Y-30748370D01*
X124466437Y-30638056D01*
X124387085Y-30541365D01*
X124290394Y-30462013D01*
X124180080Y-30403048D01*
X124060382Y-30366738D01*
X123935900Y-30354478D01*
X123035900Y-30354478D01*
X122911418Y-30366738D01*
X122791720Y-30403048D01*
X122681406Y-30462013D01*
X122584715Y-30541365D01*
X122505363Y-30638056D01*
X122446398Y-30748370D01*
X122410088Y-30868068D01*
X122397828Y-30992550D01*
X122397828Y-32192550D01*
X122410088Y-32317032D01*
X122446398Y-32436730D01*
X122505363Y-32547044D01*
X122584715Y-32643735D01*
X122681406Y-32723087D01*
X122791720Y-32782052D01*
X122911418Y-32818362D01*
X123035900Y-32830622D01*
X123935900Y-32830622D01*
X124060382Y-32818362D01*
X124180080Y-32782052D01*
X124290394Y-32723087D01*
X124311400Y-32705848D01*
X124311401Y-53343169D01*
X120260946Y-57393624D01*
X120189273Y-57363936D01*
X120163746Y-57358858D01*
X120139441Y-57349616D01*
X119994008Y-57325095D01*
X119849245Y-57296300D01*
X119823223Y-57296300D01*
X119797577Y-57291976D01*
X119650137Y-57296300D01*
X119502555Y-57296300D01*
X119477033Y-57301377D01*
X119451038Y-57302139D01*
X119307275Y-57335144D01*
X119162527Y-57363936D01*
X119138487Y-57373894D01*
X119113139Y-57379713D01*
X118978589Y-57440125D01*
X118842227Y-57496608D01*
X118820587Y-57511067D01*
X118796866Y-57521718D01*
X118676696Y-57607213D01*
X118553965Y-57689219D01*
X118535562Y-57707622D01*
X118514374Y-57722696D01*
X118413188Y-57829996D01*
X118308819Y-57934365D01*
X118294361Y-57956003D01*
X118276519Y-57974923D01*
X118198210Y-58099902D01*
X118116208Y-58222627D01*
X118106248Y-58246672D01*
X118092441Y-58268708D01*
X118040019Y-58406564D01*
X117983536Y-58542927D01*
X117978459Y-58568452D01*
X117969216Y-58592758D01*
X117944694Y-58738198D01*
X117915900Y-58882955D01*
X117915900Y-58995686D01*
X117874123Y-59601457D01*
X116319371Y-59601457D01*
X116276774Y-59498620D01*
X116230811Y-59372161D01*
X116210550Y-59338738D01*
X116195592Y-59302627D01*
X116120835Y-59190746D01*
X116051089Y-59075693D01*
X116024698Y-59046866D01*
X116002981Y-59014365D01*
X115907834Y-58919218D01*
X115816983Y-58819983D01*
X115785475Y-58796859D01*
X115757835Y-58769219D01*
X115645950Y-58694459D01*
X115537488Y-58614858D01*
X115502076Y-58598326D01*
X115469573Y-58576608D01*
X115345253Y-58525113D01*
X115223346Y-58468201D01*
X115185386Y-58458895D01*
X115149273Y-58443936D01*
X115017288Y-58417682D01*
X114886628Y-58385649D01*
X114847589Y-58383927D01*
X114809245Y-58376300D01*
X114720900Y-58376300D01*
X114720900Y-46125621D01*
X114806199Y-46331551D01*
X115093900Y-46762126D01*
X115460074Y-47128300D01*
X115890649Y-47416001D01*
X116369078Y-47614173D01*
X116876976Y-47715200D01*
X117394824Y-47715200D01*
X117902722Y-47614173D01*
X118381151Y-47416001D01*
X118811726Y-47128300D01*
X119177900Y-46762126D01*
X119465601Y-46331551D01*
X119663773Y-45853122D01*
X119764800Y-45345224D01*
X119764800Y-44937578D01*
X120705900Y-44937578D01*
X120705900Y-45235022D01*
X120763929Y-45526751D01*
X120877756Y-45801553D01*
X121043007Y-46048869D01*
X121253331Y-46259193D01*
X121500647Y-46424444D01*
X121775449Y-46538271D01*
X122067178Y-46596300D01*
X122364622Y-46596300D01*
X122656351Y-46538271D01*
X122931153Y-46424444D01*
X123178469Y-46259193D01*
X123388793Y-46048869D01*
X123554044Y-45801553D01*
X123667871Y-45526751D01*
X123725900Y-45235022D01*
X123725900Y-44937578D01*
X123667871Y-44645849D01*
X123554044Y-44371047D01*
X123388793Y-44123731D01*
X123178469Y-43913407D01*
X122931153Y-43748156D01*
X122656351Y-43634329D01*
X122364622Y-43576300D01*
X122067178Y-43576300D01*
X121775449Y-43634329D01*
X121500647Y-43748156D01*
X121253331Y-43913407D01*
X121043007Y-44123731D01*
X120877756Y-44371047D01*
X120763929Y-44645849D01*
X120705900Y-44937578D01*
X119764800Y-44937578D01*
X119764800Y-44827376D01*
X119663773Y-44319478D01*
X119465601Y-43841049D01*
X119177900Y-43410474D01*
X118811726Y-43044300D01*
X118381151Y-42756599D01*
X117902722Y-42558427D01*
X117394824Y-42457400D01*
X116876976Y-42457400D01*
X116369078Y-42558427D01*
X115890649Y-42756599D01*
X115460074Y-43044300D01*
X115093900Y-43410474D01*
X114806199Y-43841049D01*
X114720900Y-44046979D01*
X114720900Y-43626939D01*
X115914100Y-42297116D01*
X116002981Y-42208235D01*
X116077727Y-42096370D01*
X116157344Y-41987887D01*
X116173879Y-41952469D01*
X116195592Y-41919973D01*
X116247075Y-41795682D01*
X116304001Y-41673745D01*
X116313310Y-41635776D01*
X116328264Y-41599673D01*
X116354510Y-41467726D01*
X116386553Y-41337027D01*
X116388275Y-41297977D01*
X116395900Y-41259645D01*
X116395900Y-41125102D01*
X116401829Y-40990674D01*
X116395900Y-40952039D01*
X116395900Y-40912955D01*
X116369651Y-40780991D01*
X116349241Y-40647996D01*
X116335889Y-40611261D01*
X116328264Y-40572927D01*
X116276774Y-40448620D01*
X116230811Y-40322161D01*
X116210550Y-40288738D01*
X116195592Y-40252627D01*
X116120835Y-40140746D01*
X116051089Y-40025693D01*
X116024698Y-39996866D01*
X116002981Y-39964365D01*
X115907834Y-39869218D01*
X115816983Y-39769983D01*
X115785475Y-39746859D01*
X115757835Y-39719219D01*
X115645950Y-39644459D01*
X115537488Y-39564858D01*
X115502076Y-39548326D01*
X115469573Y-39526608D01*
X115345253Y-39475113D01*
X115223346Y-39418201D01*
X115185386Y-39408895D01*
X115149273Y-39393936D01*
X115017288Y-39367682D01*
X114886628Y-39335649D01*
X114847589Y-39333927D01*
X114809245Y-39326300D01*
X114674658Y-39326300D01*
X114540275Y-39320373D01*
X114501653Y-39326300D01*
X114462555Y-39326300D01*
X114330544Y-39352559D01*
X114197597Y-39372961D01*
X114160876Y-39386308D01*
X114122527Y-39393936D01*
X113998169Y-39445447D01*
X113871763Y-39491391D01*
X113838354Y-39511644D01*
X113802227Y-39526608D01*
X113690300Y-39601395D01*
X113575294Y-39671113D01*
X113546478Y-39697495D01*
X113513965Y-39719219D01*
X113418787Y-39814397D01*
X113383658Y-39846558D01*
X113357737Y-39875447D01*
X113268819Y-39964365D01*
X113242173Y-40004243D01*
X111958184Y-41435253D01*
X111804458Y-41644714D01*
X111657801Y-41958856D01*
X111575249Y-42295574D01*
X111559973Y-42641926D01*
X111612561Y-42984604D01*
X111730991Y-43310439D01*
X111893775Y-43578966D01*
X111615449Y-43634329D01*
X111340647Y-43748156D01*
X111093331Y-43913407D01*
X110883007Y-44123731D01*
X110717756Y-44371047D01*
X110603929Y-44645849D01*
X110545900Y-44937578D01*
X110545900Y-45235022D01*
X110603929Y-45526751D01*
X110717756Y-45801553D01*
X110883007Y-46048869D01*
X111093331Y-46259193D01*
X111340647Y-46424444D01*
X111615449Y-46538271D01*
X111907178Y-46596300D01*
X112204622Y-46596300D01*
X112496351Y-46538271D01*
X112771153Y-46424444D01*
X113018469Y-46259193D01*
X113200900Y-46076762D01*
X113200901Y-59100241D01*
X111958184Y-60485253D01*
X111804458Y-60694714D01*
X111657801Y-61008856D01*
X111575249Y-61345574D01*
X111559973Y-61691926D01*
X111612561Y-62034604D01*
X111730991Y-62360439D01*
X111893775Y-62628966D01*
X111615449Y-62684329D01*
X111340647Y-62798156D01*
X111093331Y-62963407D01*
X110883007Y-63173731D01*
X110717756Y-63421047D01*
X110603929Y-63695849D01*
X110545900Y-63987578D01*
X110545900Y-64285022D01*
X110603929Y-64576751D01*
X110717756Y-64851553D01*
X110883007Y-65098869D01*
X111093331Y-65309193D01*
X111340647Y-65474444D01*
X111615449Y-65588271D01*
X111907178Y-65646300D01*
X112204622Y-65646300D01*
X112496351Y-65588271D01*
X112771153Y-65474444D01*
X113018469Y-65309193D01*
X113198900Y-65128762D01*
X113198901Y-69376918D01*
X110470270Y-72105550D01*
X93575530Y-72105550D01*
X95423252Y-70257829D01*
X95452322Y-70233972D01*
X95547545Y-70117942D01*
X95618302Y-69985565D01*
X95661874Y-69841928D01*
X95672900Y-69729976D01*
X95672900Y-69729974D01*
X95676586Y-69692551D01*
X95672900Y-69655128D01*
X95672900Y-65180450D01*
X95756199Y-65381551D01*
X96043900Y-65812126D01*
X96410074Y-66178300D01*
X96840649Y-66466001D01*
X97319078Y-66664173D01*
X97826976Y-66765200D01*
X98344824Y-66765200D01*
X98852722Y-66664173D01*
X99331151Y-66466001D01*
X99761726Y-66178300D01*
X100127900Y-65812126D01*
X100415601Y-65381551D01*
X100613773Y-64903122D01*
X100714800Y-64395224D01*
X100714800Y-63987578D01*
X101655900Y-63987578D01*
X101655900Y-64285022D01*
X101713929Y-64576751D01*
X101827756Y-64851553D01*
X101993007Y-65098869D01*
X102203331Y-65309193D01*
X102450647Y-65474444D01*
X102725449Y-65588271D01*
X103017178Y-65646300D01*
X103314622Y-65646300D01*
X103606351Y-65588271D01*
X103881153Y-65474444D01*
X104128469Y-65309193D01*
X104338793Y-65098869D01*
X104504044Y-64851553D01*
X104617871Y-64576751D01*
X104675900Y-64285022D01*
X104675900Y-63987578D01*
X104617871Y-63695849D01*
X104504044Y-63421047D01*
X104338793Y-63173731D01*
X104128469Y-62963407D01*
X103881153Y-62798156D01*
X103606351Y-62684329D01*
X103314622Y-62626300D01*
X103017178Y-62626300D01*
X102725449Y-62684329D01*
X102450647Y-62798156D01*
X102203331Y-62963407D01*
X101993007Y-63173731D01*
X101827756Y-63421047D01*
X101713929Y-63695849D01*
X101655900Y-63987578D01*
X100714800Y-63987578D01*
X100714800Y-63877376D01*
X100613773Y-63369478D01*
X100415601Y-62891049D01*
X100127900Y-62460474D01*
X99761726Y-62094300D01*
X99331151Y-61806599D01*
X98852722Y-61608427D01*
X98344824Y-61507400D01*
X97826976Y-61507400D01*
X97319078Y-61608427D01*
X96840649Y-61806599D01*
X96410074Y-62094300D01*
X96043900Y-62460474D01*
X95756199Y-62891049D01*
X95672900Y-63092150D01*
X95672900Y-62674710D01*
X96864100Y-61347116D01*
X96952981Y-61258235D01*
X97027727Y-61146370D01*
X97107344Y-61037887D01*
X97123879Y-61002469D01*
X97145592Y-60969973D01*
X97197075Y-60845682D01*
X97254001Y-60723745D01*
X97263310Y-60685776D01*
X97278264Y-60649673D01*
X97304510Y-60517726D01*
X97336553Y-60387027D01*
X97338275Y-60347977D01*
X97345900Y-60309645D01*
X97345900Y-60175102D01*
X97351829Y-60040674D01*
X97345900Y-60002039D01*
X97345900Y-59962955D01*
X97319651Y-59830991D01*
X97299241Y-59697996D01*
X97285889Y-59661261D01*
X97278264Y-59622927D01*
X97269371Y-59601457D01*
X98824123Y-59601457D01*
X98831740Y-59861162D01*
X98909313Y-60199061D01*
X99051319Y-60515334D01*
X99252296Y-60797826D01*
X99504524Y-61035681D01*
X99798308Y-61219759D01*
X100122359Y-61342984D01*
X100464223Y-61400624D01*
X100810762Y-61390460D01*
X101148661Y-61312887D01*
X101464934Y-61170881D01*
X101747426Y-60969904D01*
X101985281Y-60717676D01*
X102169359Y-60423892D01*
X102292584Y-60099841D01*
X102335781Y-59843639D01*
X102373999Y-59289475D01*
X102385900Y-59229645D01*
X102385900Y-59116911D01*
X102387677Y-59091144D01*
X102385900Y-59030556D01*
X102385900Y-58882955D01*
X102380822Y-58857428D01*
X102380060Y-58831437D01*
X102347059Y-58687687D01*
X102318264Y-58542927D01*
X102308307Y-58518888D01*
X102302487Y-58493538D01*
X102291271Y-58468559D01*
X106535746Y-54224084D01*
X106564822Y-54200222D01*
X106629845Y-54120991D01*
X106660045Y-54084193D01*
X106711132Y-53988615D01*
X106730802Y-53951815D01*
X106774374Y-53808178D01*
X106785400Y-53696226D01*
X106785400Y-53696223D01*
X106789086Y-53658800D01*
X106785400Y-53621377D01*
X106785400Y-32423722D01*
X106789086Y-32386299D01*
X106782264Y-32317032D01*
X106774374Y-32236922D01*
X106730802Y-32093285D01*
X106660045Y-31960908D01*
X106564822Y-31844878D01*
X106535753Y-31821022D01*
X105794934Y-31080203D01*
X105771072Y-31051128D01*
X105655042Y-30955905D01*
X105644825Y-30950444D01*
X105636712Y-30868068D01*
X105600402Y-30748370D01*
X105541437Y-30638056D01*
X105462085Y-30541365D01*
X105365394Y-30462013D01*
X105255080Y-30403048D01*
X105135382Y-30366738D01*
X105010900Y-30354478D01*
X104110900Y-30354478D01*
X103986418Y-30366738D01*
X103866720Y-30403048D01*
X103756406Y-30462013D01*
X103659715Y-30541365D01*
X103580363Y-30638056D01*
X103521398Y-30748370D01*
X103485088Y-30868068D01*
X103472828Y-30992550D01*
X103472828Y-32192550D01*
X103485088Y-32317032D01*
X103521398Y-32436730D01*
X103580363Y-32547044D01*
X103659715Y-32643735D01*
X103756406Y-32723087D01*
X103866720Y-32782052D01*
X103986418Y-32818362D01*
X104110900Y-32830622D01*
X105010900Y-32830622D01*
X105135382Y-32818362D01*
X105255080Y-32782052D01*
X105261400Y-32778674D01*
X105261401Y-53343169D01*
X101210946Y-57393624D01*
X101139273Y-57363936D01*
X101113746Y-57358858D01*
X101089441Y-57349616D01*
X100944008Y-57325095D01*
X100799245Y-57296300D01*
X100773223Y-57296300D01*
X100747577Y-57291976D01*
X100600137Y-57296300D01*
X100452555Y-57296300D01*
X100427033Y-57301377D01*
X100401038Y-57302139D01*
X100257275Y-57335144D01*
X100112527Y-57363936D01*
X100088487Y-57373894D01*
X100063139Y-57379713D01*
X99928589Y-57440125D01*
X99792227Y-57496608D01*
X99770587Y-57511067D01*
X99746866Y-57521718D01*
X99626696Y-57607213D01*
X99503965Y-57689219D01*
X99485562Y-57707622D01*
X99464374Y-57722696D01*
X99363188Y-57829996D01*
X99258819Y-57934365D01*
X99244361Y-57956003D01*
X99226519Y-57974923D01*
X99148210Y-58099902D01*
X99066208Y-58222627D01*
X99056248Y-58246672D01*
X99042441Y-58268708D01*
X98990019Y-58406564D01*
X98933536Y-58542927D01*
X98928459Y-58568452D01*
X98919216Y-58592758D01*
X98894694Y-58738198D01*
X98865900Y-58882955D01*
X98865900Y-58995686D01*
X98824123Y-59601457D01*
X97269371Y-59601457D01*
X97226774Y-59498620D01*
X97180811Y-59372161D01*
X97160550Y-59338738D01*
X97145592Y-59302627D01*
X97070835Y-59190746D01*
X97001089Y-59075693D01*
X96974698Y-59046866D01*
X96952981Y-59014365D01*
X96857834Y-58919218D01*
X96766983Y-58819983D01*
X96735475Y-58796859D01*
X96707835Y-58769219D01*
X96595950Y-58694459D01*
X96487488Y-58614858D01*
X96452076Y-58598326D01*
X96419573Y-58576608D01*
X96295253Y-58525113D01*
X96173346Y-58468201D01*
X96135386Y-58458895D01*
X96099273Y-58443936D01*
X95967288Y-58417682D01*
X95836628Y-58385649D01*
X95797589Y-58383927D01*
X95759245Y-58376300D01*
X95670900Y-58376300D01*
X95670900Y-46125621D01*
X95756199Y-46331551D01*
X96043900Y-46762126D01*
X96410074Y-47128300D01*
X96840649Y-47416001D01*
X97319078Y-47614173D01*
X97826976Y-47715200D01*
X98344824Y-47715200D01*
X98852722Y-47614173D01*
X99331151Y-47416001D01*
X99761726Y-47128300D01*
X100127900Y-46762126D01*
X100415601Y-46331551D01*
X100613773Y-45853122D01*
X100714800Y-45345224D01*
X100714800Y-44937578D01*
X101655900Y-44937578D01*
X101655900Y-45235022D01*
X101713929Y-45526751D01*
X101827756Y-45801553D01*
X101993007Y-46048869D01*
X102203331Y-46259193D01*
X102450647Y-46424444D01*
X102725449Y-46538271D01*
X103017178Y-46596300D01*
X103314622Y-46596300D01*
X103606351Y-46538271D01*
X103881153Y-46424444D01*
X104128469Y-46259193D01*
X104338793Y-46048869D01*
X104504044Y-45801553D01*
X104617871Y-45526751D01*
X104675900Y-45235022D01*
X104675900Y-44937578D01*
X104617871Y-44645849D01*
X104504044Y-44371047D01*
X104338793Y-44123731D01*
X104128469Y-43913407D01*
X103881153Y-43748156D01*
X103606351Y-43634329D01*
X103314622Y-43576300D01*
X103017178Y-43576300D01*
X102725449Y-43634329D01*
X102450647Y-43748156D01*
X102203331Y-43913407D01*
X101993007Y-44123731D01*
X101827756Y-44371047D01*
X101713929Y-44645849D01*
X101655900Y-44937578D01*
X100714800Y-44937578D01*
X100714800Y-44827376D01*
X100613773Y-44319478D01*
X100415601Y-43841049D01*
X100127900Y-43410474D01*
X99761726Y-43044300D01*
X99331151Y-42756599D01*
X98852722Y-42558427D01*
X98344824Y-42457400D01*
X97826976Y-42457400D01*
X97319078Y-42558427D01*
X96840649Y-42756599D01*
X96410074Y-43044300D01*
X96043900Y-43410474D01*
X95756199Y-43841049D01*
X95670900Y-44046979D01*
X95670900Y-43626939D01*
X96864100Y-42297116D01*
X96952981Y-42208235D01*
X97027727Y-42096370D01*
X97107344Y-41987887D01*
X97123879Y-41952469D01*
X97145592Y-41919973D01*
X97197075Y-41795682D01*
X97254001Y-41673745D01*
X97263310Y-41635776D01*
X97278264Y-41599673D01*
X97304510Y-41467726D01*
X97336553Y-41337027D01*
X97338275Y-41297977D01*
X97345900Y-41259645D01*
X97345900Y-41125102D01*
X97351829Y-40990674D01*
X97345900Y-40952039D01*
X97345900Y-40912955D01*
X97319651Y-40780991D01*
X97299241Y-40647996D01*
X97285889Y-40611261D01*
X97278264Y-40572927D01*
X97226774Y-40448620D01*
X97180811Y-40322161D01*
X97160550Y-40288738D01*
X97145592Y-40252627D01*
X97070835Y-40140746D01*
X97001089Y-40025693D01*
X96974698Y-39996866D01*
X96952981Y-39964365D01*
X96857834Y-39869218D01*
X96766983Y-39769983D01*
X96735475Y-39746859D01*
X96707835Y-39719219D01*
X96595950Y-39644459D01*
X96487488Y-39564858D01*
X96452076Y-39548326D01*
X96419573Y-39526608D01*
X96295253Y-39475113D01*
X96173346Y-39418201D01*
X96135386Y-39408895D01*
X96099273Y-39393936D01*
X95967288Y-39367682D01*
X95836628Y-39335649D01*
X95797589Y-39333927D01*
X95759245Y-39326300D01*
X95624658Y-39326300D01*
X95490275Y-39320373D01*
X95451653Y-39326300D01*
X95412555Y-39326300D01*
X95280544Y-39352559D01*
X95147597Y-39372961D01*
X95110876Y-39386308D01*
X95072527Y-39393936D01*
X94948169Y-39445447D01*
X94821763Y-39491391D01*
X94788354Y-39511644D01*
X94752227Y-39526608D01*
X94640300Y-39601395D01*
X94525294Y-39671113D01*
X94496478Y-39697495D01*
X94463965Y-39719219D01*
X94368787Y-39814397D01*
X94333658Y-39846558D01*
X94307737Y-39875447D01*
X94218819Y-39964365D01*
X94192173Y-40004243D01*
X92908184Y-41435253D01*
X92754458Y-41644714D01*
X92607801Y-41958856D01*
X92525249Y-42295574D01*
X92509973Y-42641926D01*
X92562561Y-42984604D01*
X92680991Y-43310439D01*
X92843775Y-43578966D01*
X92565449Y-43634329D01*
X92290647Y-43748156D01*
X92043331Y-43913407D01*
X91833007Y-44123731D01*
X91667756Y-44371047D01*
X91553929Y-44645849D01*
X91495900Y-44937578D01*
X91495900Y-45235022D01*
X91553929Y-45526751D01*
X91667756Y-45801553D01*
X91833007Y-46048869D01*
X92043331Y-46259193D01*
X92290647Y-46424444D01*
X92565449Y-46538271D01*
X92857178Y-46596300D01*
X93154622Y-46596300D01*
X93446351Y-46538271D01*
X93721153Y-46424444D01*
X93968469Y-46259193D01*
X94150900Y-46076762D01*
X94150901Y-59100241D01*
X92908184Y-60485253D01*
X92754458Y-60694714D01*
X92607801Y-61008856D01*
X92525249Y-61345574D01*
X92509973Y-61691926D01*
X92562561Y-62034604D01*
X92680991Y-62360439D01*
X92843775Y-62628966D01*
X92565449Y-62684329D01*
X92290647Y-62798156D01*
X92043331Y-62963407D01*
X91833007Y-63173731D01*
X91667756Y-63421047D01*
X91553929Y-63695849D01*
X91495900Y-63987578D01*
X91495900Y-64285022D01*
X91553929Y-64576751D01*
X91667756Y-64851553D01*
X91833007Y-65098869D01*
X92043331Y-65309193D01*
X92290647Y-65474444D01*
X92565449Y-65588271D01*
X92857178Y-65646300D01*
X93154622Y-65646300D01*
X93446351Y-65588271D01*
X93721153Y-65474444D01*
X93968469Y-65309193D01*
X94148900Y-65128762D01*
X94148901Y-69376918D01*
X92214020Y-71311800D01*
X75319280Y-71311800D01*
X76373252Y-70257829D01*
X76402322Y-70233972D01*
X76497545Y-70117942D01*
X76568302Y-69985565D01*
X76611874Y-69841928D01*
X76622900Y-69729976D01*
X76622900Y-69729974D01*
X76626586Y-69692551D01*
X76622900Y-69655128D01*
X76622900Y-65180450D01*
X76706199Y-65381551D01*
X76993900Y-65812126D01*
X77360074Y-66178300D01*
X77790649Y-66466001D01*
X78269078Y-66664173D01*
X78776976Y-66765200D01*
X79294824Y-66765200D01*
X79802722Y-66664173D01*
X80281151Y-66466001D01*
X80711726Y-66178300D01*
X81077900Y-65812126D01*
X81365601Y-65381551D01*
X81563773Y-64903122D01*
X81664800Y-64395224D01*
X81664800Y-63987578D01*
X82605900Y-63987578D01*
X82605900Y-64285022D01*
X82663929Y-64576751D01*
X82777756Y-64851553D01*
X82943007Y-65098869D01*
X83153331Y-65309193D01*
X83400647Y-65474444D01*
X83675449Y-65588271D01*
X83967178Y-65646300D01*
X84264622Y-65646300D01*
X84556351Y-65588271D01*
X84831153Y-65474444D01*
X85078469Y-65309193D01*
X85288793Y-65098869D01*
X85454044Y-64851553D01*
X85567871Y-64576751D01*
X85625900Y-64285022D01*
X85625900Y-63987578D01*
X85567871Y-63695849D01*
X85454044Y-63421047D01*
X85288793Y-63173731D01*
X85078469Y-62963407D01*
X84831153Y-62798156D01*
X84556351Y-62684329D01*
X84264622Y-62626300D01*
X83967178Y-62626300D01*
X83675449Y-62684329D01*
X83400647Y-62798156D01*
X83153331Y-62963407D01*
X82943007Y-63173731D01*
X82777756Y-63421047D01*
X82663929Y-63695849D01*
X82605900Y-63987578D01*
X81664800Y-63987578D01*
X81664800Y-63877376D01*
X81563773Y-63369478D01*
X81365601Y-62891049D01*
X81077900Y-62460474D01*
X80711726Y-62094300D01*
X80281151Y-61806599D01*
X79802722Y-61608427D01*
X79294824Y-61507400D01*
X78776976Y-61507400D01*
X78269078Y-61608427D01*
X77790649Y-61806599D01*
X77360074Y-62094300D01*
X76993900Y-62460474D01*
X76706199Y-62891049D01*
X76622900Y-63092150D01*
X76622900Y-62674710D01*
X77814100Y-61347116D01*
X77902981Y-61258235D01*
X77977727Y-61146370D01*
X78057344Y-61037887D01*
X78073879Y-61002469D01*
X78095592Y-60969973D01*
X78147075Y-60845682D01*
X78204001Y-60723745D01*
X78213310Y-60685776D01*
X78228264Y-60649673D01*
X78254510Y-60517726D01*
X78286553Y-60387027D01*
X78288275Y-60347977D01*
X78295900Y-60309645D01*
X78295900Y-60175102D01*
X78301829Y-60040674D01*
X78295900Y-60002039D01*
X78295900Y-59962955D01*
X78269651Y-59830991D01*
X78249241Y-59697996D01*
X78235889Y-59661261D01*
X78228264Y-59622927D01*
X78219371Y-59601457D01*
X79774123Y-59601457D01*
X79781740Y-59861162D01*
X79859313Y-60199061D01*
X80001319Y-60515334D01*
X80202296Y-60797826D01*
X80454524Y-61035681D01*
X80748308Y-61219759D01*
X81072359Y-61342984D01*
X81414223Y-61400624D01*
X81760762Y-61390460D01*
X82098661Y-61312887D01*
X82414934Y-61170881D01*
X82697426Y-60969904D01*
X82935281Y-60717676D01*
X83119359Y-60423892D01*
X83242584Y-60099841D01*
X83285781Y-59843639D01*
X83323999Y-59289475D01*
X83335900Y-59229645D01*
X83335900Y-59116911D01*
X83337677Y-59091144D01*
X83335900Y-59030556D01*
X83335900Y-58882955D01*
X83330822Y-58857428D01*
X83330060Y-58831437D01*
X83297059Y-58687687D01*
X83268264Y-58542927D01*
X83258307Y-58518888D01*
X83252487Y-58493538D01*
X83241271Y-58468559D01*
X87485746Y-54224084D01*
X87514822Y-54200222D01*
X87579845Y-54120991D01*
X87610045Y-54084193D01*
X87661132Y-53988615D01*
X87680802Y-53951815D01*
X87724374Y-53808178D01*
X87735400Y-53696226D01*
X87735400Y-53696223D01*
X87739086Y-53658800D01*
X87735400Y-53621377D01*
X87735400Y-32423722D01*
X87739086Y-32386299D01*
X87732264Y-32317032D01*
X87724374Y-32236922D01*
X87680802Y-32093285D01*
X87610045Y-31960908D01*
X87514822Y-31844878D01*
X87485753Y-31821022D01*
X86744934Y-31080203D01*
X86721072Y-31051128D01*
X86605042Y-30955905D01*
X86528852Y-30915181D01*
X86524212Y-30868068D01*
X86487902Y-30748370D01*
X86428937Y-30638056D01*
X86349585Y-30541365D01*
X86252894Y-30462013D01*
X86142580Y-30403048D01*
X86022882Y-30366738D01*
X85898400Y-30354478D01*
X84998400Y-30354478D01*
X84873918Y-30366738D01*
X84754220Y-30403048D01*
X84643906Y-30462013D01*
X84547215Y-30541365D01*
X84467863Y-30638056D01*
X84408898Y-30748370D01*
X84372588Y-30868068D01*
X84360328Y-30992550D01*
X84360328Y-32192550D01*
X84372588Y-32317032D01*
X84408898Y-32436730D01*
X84467863Y-32547044D01*
X84547215Y-32643735D01*
X84643906Y-32723087D01*
X84754220Y-32782052D01*
X84873918Y-32818362D01*
X84998400Y-32830622D01*
X85898400Y-32830622D01*
X86022882Y-32818362D01*
X86142580Y-32782052D01*
X86211400Y-32745266D01*
X86211401Y-53343169D01*
X82160946Y-57393624D01*
X82089273Y-57363936D01*
X82063746Y-57358858D01*
X82039441Y-57349616D01*
X81894008Y-57325095D01*
X81749245Y-57296300D01*
X81723223Y-57296300D01*
X81697577Y-57291976D01*
X81550137Y-57296300D01*
X81402555Y-57296300D01*
X81377033Y-57301377D01*
X81351038Y-57302139D01*
X81207275Y-57335144D01*
X81062527Y-57363936D01*
X81038487Y-57373894D01*
X81013139Y-57379713D01*
X80878589Y-57440125D01*
X80742227Y-57496608D01*
X80720587Y-57511067D01*
X80696866Y-57521718D01*
X80576696Y-57607213D01*
X80453965Y-57689219D01*
X80435562Y-57707622D01*
X80414374Y-57722696D01*
X80313188Y-57829996D01*
X80208819Y-57934365D01*
X80194361Y-57956003D01*
X80176519Y-57974923D01*
X80098210Y-58099902D01*
X80016208Y-58222627D01*
X80006248Y-58246672D01*
X79992441Y-58268708D01*
X79940019Y-58406564D01*
X79883536Y-58542927D01*
X79878459Y-58568452D01*
X79869216Y-58592758D01*
X79844694Y-58738198D01*
X79815900Y-58882955D01*
X79815900Y-58995686D01*
X79774123Y-59601457D01*
X78219371Y-59601457D01*
X78176774Y-59498620D01*
X78130811Y-59372161D01*
X78110550Y-59338738D01*
X78095592Y-59302627D01*
X78020835Y-59190746D01*
X77951089Y-59075693D01*
X77924698Y-59046866D01*
X77902981Y-59014365D01*
X77807834Y-58919218D01*
X77716983Y-58819983D01*
X77685475Y-58796859D01*
X77657835Y-58769219D01*
X77545950Y-58694459D01*
X77437488Y-58614858D01*
X77402076Y-58598326D01*
X77369573Y-58576608D01*
X77245253Y-58525113D01*
X77123346Y-58468201D01*
X77085386Y-58458895D01*
X77049273Y-58443936D01*
X76917288Y-58417682D01*
X76786628Y-58385649D01*
X76747589Y-58383927D01*
X76709245Y-58376300D01*
X76620900Y-58376300D01*
X76620900Y-46125621D01*
X76706199Y-46331551D01*
X76993900Y-46762126D01*
X77360074Y-47128300D01*
X77790649Y-47416001D01*
X78269078Y-47614173D01*
X78776976Y-47715200D01*
X79294824Y-47715200D01*
X79802722Y-47614173D01*
X80281151Y-47416001D01*
X80711726Y-47128300D01*
X81077900Y-46762126D01*
X81365601Y-46331551D01*
X81563773Y-45853122D01*
X81664800Y-45345224D01*
X81664800Y-44937578D01*
X82605900Y-44937578D01*
X82605900Y-45235022D01*
X82663929Y-45526751D01*
X82777756Y-45801553D01*
X82943007Y-46048869D01*
X83153331Y-46259193D01*
X83400647Y-46424444D01*
X83675449Y-46538271D01*
X83967178Y-46596300D01*
X84264622Y-46596300D01*
X84556351Y-46538271D01*
X84831153Y-46424444D01*
X85078469Y-46259193D01*
X85288793Y-46048869D01*
X85454044Y-45801553D01*
X85567871Y-45526751D01*
X85625900Y-45235022D01*
X85625900Y-44937578D01*
X85567871Y-44645849D01*
X85454044Y-44371047D01*
X85288793Y-44123731D01*
X85078469Y-43913407D01*
X84831153Y-43748156D01*
X84556351Y-43634329D01*
X84264622Y-43576300D01*
X83967178Y-43576300D01*
X83675449Y-43634329D01*
X83400647Y-43748156D01*
X83153331Y-43913407D01*
X82943007Y-44123731D01*
X82777756Y-44371047D01*
X82663929Y-44645849D01*
X82605900Y-44937578D01*
X81664800Y-44937578D01*
X81664800Y-44827376D01*
X81563773Y-44319478D01*
X81365601Y-43841049D01*
X81077900Y-43410474D01*
X80711726Y-43044300D01*
X80281151Y-42756599D01*
X79802722Y-42558427D01*
X79294824Y-42457400D01*
X78776976Y-42457400D01*
X78269078Y-42558427D01*
X77790649Y-42756599D01*
X77360074Y-43044300D01*
X76993900Y-43410474D01*
X76706199Y-43841049D01*
X76620900Y-44046979D01*
X76620900Y-43626939D01*
X77814100Y-42297116D01*
X77902981Y-42208235D01*
X77977727Y-42096370D01*
X78057344Y-41987887D01*
X78073879Y-41952469D01*
X78095592Y-41919973D01*
X78147075Y-41795682D01*
X78204001Y-41673745D01*
X78213310Y-41635776D01*
X78228264Y-41599673D01*
X78254510Y-41467726D01*
X78286553Y-41337027D01*
X78288275Y-41297977D01*
X78295900Y-41259645D01*
X78295900Y-41125102D01*
X78301829Y-40990674D01*
X78295900Y-40952039D01*
X78295900Y-40912955D01*
X78269651Y-40780991D01*
X78249241Y-40647996D01*
X78235889Y-40611261D01*
X78228264Y-40572927D01*
X78176774Y-40448620D01*
X78130811Y-40322161D01*
X78110550Y-40288738D01*
X78095592Y-40252627D01*
X78020835Y-40140746D01*
X77951089Y-40025693D01*
X77924698Y-39996866D01*
X77902981Y-39964365D01*
X77807834Y-39869218D01*
X77716983Y-39769983D01*
X77685475Y-39746859D01*
X77657835Y-39719219D01*
X77545950Y-39644459D01*
X77437488Y-39564858D01*
X77402076Y-39548326D01*
X77369573Y-39526608D01*
X77245253Y-39475113D01*
X77123346Y-39418201D01*
X77085386Y-39408895D01*
X77049273Y-39393936D01*
X76917288Y-39367682D01*
X76786628Y-39335649D01*
X76747589Y-39333927D01*
X76709245Y-39326300D01*
X76574658Y-39326300D01*
X76440275Y-39320373D01*
X76401653Y-39326300D01*
X76362555Y-39326300D01*
X76230544Y-39352559D01*
X76097597Y-39372961D01*
X76060876Y-39386308D01*
X76022527Y-39393936D01*
X75898169Y-39445447D01*
X75771763Y-39491391D01*
X75738354Y-39511644D01*
X75702227Y-39526608D01*
X75590300Y-39601395D01*
X75475294Y-39671113D01*
X75446478Y-39697495D01*
X75413965Y-39719219D01*
X75318787Y-39814397D01*
X75283658Y-39846558D01*
X75257737Y-39875447D01*
X75168819Y-39964365D01*
X75142173Y-40004243D01*
X73858184Y-41435253D01*
X73704458Y-41644714D01*
X73557801Y-41958856D01*
X73475249Y-42295574D01*
X73459973Y-42641926D01*
X73512561Y-42984604D01*
X73630991Y-43310439D01*
X73793775Y-43578966D01*
X73515449Y-43634329D01*
X73240647Y-43748156D01*
X72993331Y-43913407D01*
X72783007Y-44123731D01*
X72617756Y-44371047D01*
X72503929Y-44645849D01*
X72445900Y-44937578D01*
X72445900Y-45235022D01*
X72503929Y-45526751D01*
X72617756Y-45801553D01*
X72783007Y-46048869D01*
X72993331Y-46259193D01*
X73240647Y-46424444D01*
X73515449Y-46538271D01*
X73807178Y-46596300D01*
X74104622Y-46596300D01*
X74396351Y-46538271D01*
X74671153Y-46424444D01*
X74918469Y-46259193D01*
X75100901Y-46076761D01*
X75100900Y-59100242D01*
X73858184Y-60485253D01*
X73704458Y-60694714D01*
X73557801Y-61008856D01*
X73475249Y-61345574D01*
X73459973Y-61691926D01*
X73512561Y-62034604D01*
X73630991Y-62360439D01*
X73793775Y-62628966D01*
X73515449Y-62684329D01*
X73240647Y-62798156D01*
X72993331Y-62963407D01*
X72783007Y-63173731D01*
X72617756Y-63421047D01*
X72503929Y-63695849D01*
X72445900Y-63987578D01*
X72445900Y-64285022D01*
X72503929Y-64576751D01*
X72617756Y-64851553D01*
X72783007Y-65098869D01*
X72993331Y-65309193D01*
X73240647Y-65474444D01*
X73515449Y-65588271D01*
X73807178Y-65646300D01*
X74104622Y-65646300D01*
X74396351Y-65588271D01*
X74671153Y-65474444D01*
X74918469Y-65309193D01*
X75098900Y-65128762D01*
X75098901Y-69376918D01*
X73957770Y-70518050D01*
X59810081Y-70518050D01*
X48965766Y-59673736D01*
X49136300Y-59503202D01*
X49328602Y-59695504D01*
X49576131Y-59860897D01*
X49851170Y-59974822D01*
X50143150Y-60032900D01*
X50440850Y-60032900D01*
X50732830Y-59974822D01*
X51007869Y-59860897D01*
X51255398Y-59695504D01*
X51465904Y-59484998D01*
X51562000Y-59341180D01*
X51658096Y-59484998D01*
X51868602Y-59695504D01*
X52116131Y-59860897D01*
X52391170Y-59974822D01*
X52683150Y-60032900D01*
X52980850Y-60032900D01*
X53272830Y-59974822D01*
X53547869Y-59860897D01*
X53795398Y-59695504D01*
X54005904Y-59484998D01*
X54102000Y-59341180D01*
X54198096Y-59484998D01*
X54408602Y-59695504D01*
X54656131Y-59860897D01*
X54931170Y-59974822D01*
X55223150Y-60032900D01*
X55520850Y-60032900D01*
X55812830Y-59974822D01*
X56087869Y-59860897D01*
X56335398Y-59695504D01*
X56545904Y-59484998D01*
X56642000Y-59341180D01*
X56738096Y-59484998D01*
X56948602Y-59695504D01*
X57196131Y-59860897D01*
X57471170Y-59974822D01*
X57763150Y-60032900D01*
X58060850Y-60032900D01*
X58352830Y-59974822D01*
X58627869Y-59860897D01*
X58875398Y-59695504D01*
X59085904Y-59484998D01*
X59182000Y-59341180D01*
X59278096Y-59484998D01*
X59488602Y-59695504D01*
X59736131Y-59860897D01*
X60011170Y-59974822D01*
X60303150Y-60032900D01*
X60600850Y-60032900D01*
X60892830Y-59974822D01*
X61167869Y-59860897D01*
X61415398Y-59695504D01*
X61625904Y-59484998D01*
X61722000Y-59341180D01*
X61818096Y-59484998D01*
X62028602Y-59695504D01*
X62276131Y-59860897D01*
X62551170Y-59974822D01*
X62843150Y-60032900D01*
X63140850Y-60032900D01*
X63432830Y-59974822D01*
X63707869Y-59860897D01*
X63955398Y-59695504D01*
X64165904Y-59484998D01*
X64331297Y-59237469D01*
X64445222Y-58962430D01*
X64503300Y-58670450D01*
X64503300Y-58372750D01*
X64445222Y-58080770D01*
X64331297Y-57805731D01*
X64165904Y-57558202D01*
X63955398Y-57347696D01*
X63811580Y-57251600D01*
X63955398Y-57155504D01*
X64165904Y-56944998D01*
X64331297Y-56697469D01*
X64390295Y-56555035D01*
X67642002Y-53303329D01*
X67671072Y-53279472D01*
X67766295Y-53163442D01*
X67837052Y-53031065D01*
X67880624Y-52887428D01*
X67891650Y-52775476D01*
X67891650Y-52775474D01*
X67895336Y-52738051D01*
X67891650Y-52700628D01*
X67891650Y-39051930D01*
X73198252Y-33745329D01*
X73227322Y-33721472D01*
X73322545Y-33605442D01*
X73393302Y-33473065D01*
X73436874Y-33329428D01*
X73447900Y-33217476D01*
X73447900Y-33217474D01*
X73451586Y-33180051D01*
X73447900Y-33142628D01*
X73447900Y-32745801D01*
X73490394Y-32723087D01*
X73587085Y-32643735D01*
X73666437Y-32547044D01*
X73725402Y-32436730D01*
X73761712Y-32317032D01*
X73773972Y-32192550D01*
X73773972Y-31582108D01*
X74363530Y-30992550D01*
X74897828Y-30992550D01*
X74897828Y-32192550D01*
X74910088Y-32317032D01*
X74946398Y-32436730D01*
X75005363Y-32547044D01*
X75084715Y-32643735D01*
X75181406Y-32723087D01*
X75223900Y-32745801D01*
X75223901Y-34378867D01*
X75220214Y-34416300D01*
X75234927Y-34565678D01*
X75278499Y-34709315D01*
X75349255Y-34841692D01*
X75376471Y-34874854D01*
X75444479Y-34957722D01*
X75473549Y-34981579D01*
X79913224Y-39421254D01*
X79883536Y-39492927D01*
X79878459Y-39518452D01*
X79869216Y-39542758D01*
X79844694Y-39688198D01*
X79815900Y-39832955D01*
X79815900Y-39945686D01*
X79774123Y-40551457D01*
X79781740Y-40811162D01*
X79859313Y-41149061D01*
X80001319Y-41465334D01*
X80202296Y-41747826D01*
X80454524Y-41985681D01*
X80748308Y-42169759D01*
X81072359Y-42292984D01*
X81414223Y-42350624D01*
X81760762Y-42340460D01*
X82098661Y-42262887D01*
X82414934Y-42120881D01*
X82697426Y-41919904D01*
X82935281Y-41667676D01*
X83119359Y-41373892D01*
X83242584Y-41049841D01*
X83285781Y-40793639D01*
X83323999Y-40239475D01*
X83335900Y-40179645D01*
X83335900Y-40066911D01*
X83337677Y-40041144D01*
X83335900Y-39980556D01*
X83335900Y-39832955D01*
X83330822Y-39807428D01*
X83330060Y-39781437D01*
X83297059Y-39637687D01*
X83268264Y-39492927D01*
X83258307Y-39468888D01*
X83252487Y-39443538D01*
X83192077Y-39308994D01*
X83135592Y-39172627D01*
X83121130Y-39150983D01*
X83110481Y-39127266D01*
X83024996Y-39007109D01*
X82942981Y-38884365D01*
X82924578Y-38865962D01*
X82909504Y-38844774D01*
X82802211Y-38743595D01*
X82697835Y-38639219D01*
X82676194Y-38624759D01*
X82657276Y-38606919D01*
X82532307Y-38528616D01*
X82409573Y-38446608D01*
X82385528Y-38436648D01*
X82363492Y-38422841D01*
X82225640Y-38370421D01*
X82089273Y-38313936D01*
X82063746Y-38308858D01*
X82039441Y-38299616D01*
X81894008Y-38275095D01*
X81749245Y-38246300D01*
X81723223Y-38246300D01*
X81697577Y-38241976D01*
X81550137Y-38246300D01*
X81402555Y-38246300D01*
X81377033Y-38251377D01*
X81351038Y-38252139D01*
X81207275Y-38285144D01*
X81062527Y-38313936D01*
X81038487Y-38323894D01*
X81013139Y-38329713D01*
X80988159Y-38340929D01*
X76747900Y-34100670D01*
X76747900Y-32745801D01*
X76790394Y-32723087D01*
X76887085Y-32643735D01*
X76966437Y-32547044D01*
X77025402Y-32436730D01*
X77061712Y-32317032D01*
X77073972Y-32192550D01*
X77073972Y-30992550D01*
X77061712Y-30868068D01*
X77025402Y-30748370D01*
X76966437Y-30638056D01*
X76887085Y-30541365D01*
X76790394Y-30462013D01*
X76680080Y-30403048D01*
X76560382Y-30366738D01*
X76435900Y-30354478D01*
X75535900Y-30354478D01*
X75411418Y-30366738D01*
X75291720Y-30403048D01*
X75181406Y-30462013D01*
X75084715Y-30541365D01*
X75005363Y-30638056D01*
X74946398Y-30748370D01*
X74910088Y-30868068D01*
X74897828Y-30992550D01*
X74363530Y-30992550D01*
X76176531Y-29179550D01*
X81175900Y-29179550D01*
X81175900Y-29313239D01*
X81215674Y-29513198D01*
X81293695Y-29701556D01*
X81386401Y-29840300D01*
X81386400Y-30439299D01*
X81343906Y-30462013D01*
X81247215Y-30541365D01*
X81167863Y-30638056D01*
X81108898Y-30748370D01*
X81072588Y-30868068D01*
X81060328Y-30992550D01*
X81060328Y-32192550D01*
X81072588Y-32317032D01*
X81108898Y-32436730D01*
X81167863Y-32547044D01*
X81247215Y-32643735D01*
X81343906Y-32723087D01*
X81454220Y-32782052D01*
X81573918Y-32818362D01*
X81698400Y-32830622D01*
X82598400Y-32830622D01*
X82722882Y-32818362D01*
X82842580Y-32782052D01*
X82952894Y-32723087D01*
X83049585Y-32643735D01*
X83128937Y-32547044D01*
X83187902Y-32436730D01*
X83224212Y-32317032D01*
X83236472Y-32192550D01*
X83236472Y-30992550D01*
X83224212Y-30868068D01*
X83187902Y-30748370D01*
X83128937Y-30638056D01*
X83049585Y-30541365D01*
X82952894Y-30462013D01*
X82910400Y-30439299D01*
X82910400Y-29975511D01*
X83014837Y-29871074D01*
X83128105Y-29701556D01*
X83206126Y-29513198D01*
X83245900Y-29313239D01*
X83245900Y-29179550D01*
X88245270Y-29179550D01*
X90647828Y-31582109D01*
X90647828Y-32192550D01*
X90660088Y-32317032D01*
X90696398Y-32436730D01*
X90755363Y-32547044D01*
X90834715Y-32643735D01*
X90931406Y-32723087D01*
X91041720Y-32782052D01*
X91161418Y-32818362D01*
X91285900Y-32830622D01*
X92185900Y-32830622D01*
X92310382Y-32818362D01*
X92430080Y-32782052D01*
X92540394Y-32723087D01*
X92637085Y-32643735D01*
X92716437Y-32547044D01*
X92775402Y-32436730D01*
X92811712Y-32317032D01*
X92823972Y-32192550D01*
X92823972Y-31582108D01*
X93413530Y-30992550D01*
X93947828Y-30992550D01*
X93947828Y-32192550D01*
X93960088Y-32317032D01*
X93996398Y-32436730D01*
X94055363Y-32547044D01*
X94134715Y-32643735D01*
X94231406Y-32723087D01*
X94273900Y-32745801D01*
X94273901Y-34378867D01*
X94270214Y-34416300D01*
X94284927Y-34565678D01*
X94328499Y-34709315D01*
X94399255Y-34841692D01*
X94426471Y-34874854D01*
X94494479Y-34957722D01*
X94523549Y-34981579D01*
X98963224Y-39421254D01*
X98933536Y-39492927D01*
X98928459Y-39518452D01*
X98919216Y-39542758D01*
X98894694Y-39688198D01*
X98865900Y-39832955D01*
X98865900Y-39945686D01*
X98824123Y-40551457D01*
X98831740Y-40811162D01*
X98909313Y-41149061D01*
X99051319Y-41465334D01*
X99252296Y-41747826D01*
X99504524Y-41985681D01*
X99798308Y-42169759D01*
X100122359Y-42292984D01*
X100464223Y-42350624D01*
X100810762Y-42340460D01*
X101148661Y-42262887D01*
X101464934Y-42120881D01*
X101747426Y-41919904D01*
X101985281Y-41667676D01*
X102169359Y-41373892D01*
X102292584Y-41049841D01*
X102335781Y-40793639D01*
X102373999Y-40239475D01*
X102385900Y-40179645D01*
X102385900Y-40066911D01*
X102387677Y-40041144D01*
X102385900Y-39980556D01*
X102385900Y-39832955D01*
X102380822Y-39807428D01*
X102380060Y-39781437D01*
X102347059Y-39637687D01*
X102318264Y-39492927D01*
X102308307Y-39468888D01*
X102302487Y-39443538D01*
X102242077Y-39308994D01*
X102185592Y-39172627D01*
X102171130Y-39150983D01*
X102160481Y-39127266D01*
X102074996Y-39007109D01*
X101992981Y-38884365D01*
X101974578Y-38865962D01*
X101959504Y-38844774D01*
X101852211Y-38743595D01*
X101747835Y-38639219D01*
X101726194Y-38624759D01*
X101707276Y-38606919D01*
X101582307Y-38528616D01*
X101459573Y-38446608D01*
X101435528Y-38436648D01*
X101413492Y-38422841D01*
X101275640Y-38370421D01*
X101139273Y-38313936D01*
X101113746Y-38308858D01*
X101089441Y-38299616D01*
X100944008Y-38275095D01*
X100799245Y-38246300D01*
X100773223Y-38246300D01*
X100747577Y-38241976D01*
X100600137Y-38246300D01*
X100452555Y-38246300D01*
X100427033Y-38251377D01*
X100401038Y-38252139D01*
X100257275Y-38285144D01*
X100112527Y-38313936D01*
X100088487Y-38323894D01*
X100063139Y-38329713D01*
X100038159Y-38340929D01*
X95797900Y-34100670D01*
X95797900Y-32745801D01*
X95840394Y-32723087D01*
X95937085Y-32643735D01*
X96016437Y-32547044D01*
X96075402Y-32436730D01*
X96111712Y-32317032D01*
X96123972Y-32192550D01*
X96123972Y-30992550D01*
X96111712Y-30868068D01*
X96075402Y-30748370D01*
X96016437Y-30638056D01*
X95937085Y-30541365D01*
X95840394Y-30462013D01*
X95730080Y-30403048D01*
X95610382Y-30366738D01*
X95485900Y-30354478D01*
X94585900Y-30354478D01*
X94461418Y-30366738D01*
X94341720Y-30403048D01*
X94231406Y-30462013D01*
X94134715Y-30541365D01*
X94055363Y-30638056D01*
X93996398Y-30748370D01*
X93960088Y-30868068D01*
X93947828Y-30992550D01*
X93413530Y-30992550D01*
X95226531Y-29179550D01*
X100225900Y-29179550D01*
X100225900Y-29313239D01*
X100265674Y-29513198D01*
X100343695Y-29701556D01*
X100456963Y-29871074D01*
X100498901Y-29913012D01*
X100498900Y-30439299D01*
X100456406Y-30462013D01*
X100359715Y-30541365D01*
X100280363Y-30638056D01*
X100221398Y-30748370D01*
X100185088Y-30868068D01*
X100172828Y-30992550D01*
X100172828Y-32192550D01*
X100185088Y-32317032D01*
X100221398Y-32436730D01*
X100280363Y-32547044D01*
X100359715Y-32643735D01*
X100456406Y-32723087D01*
X100566720Y-32782052D01*
X100686418Y-32818362D01*
X100810900Y-32830622D01*
X101710900Y-32830622D01*
X101835382Y-32818362D01*
X101955080Y-32782052D01*
X102065394Y-32723087D01*
X102162085Y-32643735D01*
X102241437Y-32547044D01*
X102300402Y-32436730D01*
X102336712Y-32317032D01*
X102348972Y-32192550D01*
X102348972Y-30992550D01*
X102336712Y-30868068D01*
X102300402Y-30748370D01*
X102241437Y-30638056D01*
X102162085Y-30541365D01*
X102065394Y-30462013D01*
X102022900Y-30439299D01*
X102022900Y-29913011D01*
X102064837Y-29871074D01*
X102178105Y-29701556D01*
X102256126Y-29513198D01*
X102295900Y-29313239D01*
X102295900Y-29179550D01*
X107295270Y-29179550D01*
X109697828Y-31582109D01*
X109697828Y-32192550D01*
X109710088Y-32317032D01*
X109746398Y-32436730D01*
X109805363Y-32547044D01*
X109884715Y-32643735D01*
X109981406Y-32723087D01*
X110091720Y-32782052D01*
X110211418Y-32818362D01*
X110335900Y-32830622D01*
X111235900Y-32830622D01*
X111360382Y-32818362D01*
X111480080Y-32782052D01*
X111590394Y-32723087D01*
X111687085Y-32643735D01*
X111766437Y-32547044D01*
X111825402Y-32436730D01*
X111861712Y-32317032D01*
X111873972Y-32192550D01*
X111873972Y-31582108D01*
X112463530Y-30992550D01*
X112997828Y-30992550D01*
X112997828Y-32192550D01*
X113010088Y-32317032D01*
X113046398Y-32436730D01*
X113105363Y-32547044D01*
X113184715Y-32643735D01*
X113281406Y-32723087D01*
X113323900Y-32745801D01*
X113323901Y-34378867D01*
X113320214Y-34416300D01*
X113334927Y-34565678D01*
X113378499Y-34709315D01*
X113449255Y-34841692D01*
X113476471Y-34874854D01*
X113544479Y-34957722D01*
X113573549Y-34981579D01*
X118013224Y-39421254D01*
X117983536Y-39492927D01*
X117978459Y-39518452D01*
X117969216Y-39542758D01*
X117944694Y-39688198D01*
X117915900Y-39832955D01*
X117915900Y-39945686D01*
X117874123Y-40551457D01*
X117881740Y-40811162D01*
X117959313Y-41149061D01*
X118101319Y-41465334D01*
X118302296Y-41747826D01*
X118554524Y-41985681D01*
X118848308Y-42169759D01*
X119172359Y-42292984D01*
X119514223Y-42350624D01*
X119860762Y-42340460D01*
X120198661Y-42262887D01*
X120514934Y-42120881D01*
X120797426Y-41919904D01*
X121035281Y-41667676D01*
X121219359Y-41373892D01*
X121342584Y-41049841D01*
X121385781Y-40793639D01*
X121423999Y-40239475D01*
X121435900Y-40179645D01*
X121435900Y-40066911D01*
X121437677Y-40041144D01*
X121435900Y-39980556D01*
X121435900Y-39832955D01*
X121430822Y-39807428D01*
X121430060Y-39781437D01*
X121397059Y-39637687D01*
X121368264Y-39492927D01*
X121358307Y-39468888D01*
X121352487Y-39443538D01*
X121292077Y-39308994D01*
X121235592Y-39172627D01*
X121221130Y-39150983D01*
X121210481Y-39127266D01*
X121124996Y-39007109D01*
X121042981Y-38884365D01*
X121024578Y-38865962D01*
X121009504Y-38844774D01*
X120902211Y-38743595D01*
X120797835Y-38639219D01*
X120776194Y-38624759D01*
X120757276Y-38606919D01*
X120632307Y-38528616D01*
X120509573Y-38446608D01*
X120485528Y-38436648D01*
X120463492Y-38422841D01*
X120325640Y-38370421D01*
X120189273Y-38313936D01*
X120163746Y-38308858D01*
X120139441Y-38299616D01*
X119994008Y-38275095D01*
X119849245Y-38246300D01*
X119823223Y-38246300D01*
X119797577Y-38241976D01*
X119650137Y-38246300D01*
X119502555Y-38246300D01*
X119477033Y-38251377D01*
X119451038Y-38252139D01*
X119307275Y-38285144D01*
X119162527Y-38313936D01*
X119138487Y-38323894D01*
X119113139Y-38329713D01*
X119088159Y-38340929D01*
X114847900Y-34100670D01*
X114847900Y-32745801D01*
X114890394Y-32723087D01*
X114987085Y-32643735D01*
X115066437Y-32547044D01*
X115125402Y-32436730D01*
X115161712Y-32317032D01*
X115173972Y-32192550D01*
X115173972Y-30992550D01*
X115161712Y-30868068D01*
X115125402Y-30748370D01*
X115066437Y-30638056D01*
X114987085Y-30541365D01*
X114890394Y-30462013D01*
X114780080Y-30403048D01*
X114660382Y-30366738D01*
X114535900Y-30354478D01*
X113635900Y-30354478D01*
X113511418Y-30366738D01*
X113391720Y-30403048D01*
X113281406Y-30462013D01*
X113184715Y-30541365D01*
X113105363Y-30638056D01*
X113046398Y-30748370D01*
X113010088Y-30868068D01*
X112997828Y-30992550D01*
X112463530Y-30992550D01*
X114276531Y-29179550D01*
X119275900Y-29179550D01*
X119275900Y-29313239D01*
X119315674Y-29513198D01*
X119393695Y-29701556D01*
X119423901Y-29746762D01*
X119423901Y-30439299D01*
X119381406Y-30462013D01*
X119284715Y-30541365D01*
X119205363Y-30638056D01*
X119146398Y-30748370D01*
X119110088Y-30868068D01*
X119097828Y-30992550D01*
X119097828Y-32192550D01*
X119110088Y-32317032D01*
X119146398Y-32436730D01*
X119205363Y-32547044D01*
X119284715Y-32643735D01*
X119381406Y-32723087D01*
X119491720Y-32782052D01*
X119611418Y-32818362D01*
X119735900Y-32830622D01*
X120635900Y-32830622D01*
X120760382Y-32818362D01*
X120880080Y-32782052D01*
X120990394Y-32723087D01*
X121087085Y-32643735D01*
X121166437Y-32547044D01*
X121225402Y-32436730D01*
X121261712Y-32317032D01*
X121273972Y-32192550D01*
X121273972Y-30992550D01*
X121261712Y-30868068D01*
X121225402Y-30748370D01*
X121166437Y-30638056D01*
X121087085Y-30541365D01*
X120990394Y-30462013D01*
X120947900Y-30439299D01*
X120947900Y-30030454D01*
X120970674Y-30015237D01*
X121114837Y-29871074D01*
X121228105Y-29701556D01*
X121306126Y-29513198D01*
X121345900Y-29313239D01*
X121345900Y-29179550D01*
X126220270Y-29179550D01*
X128622828Y-31582109D01*
X128622828Y-32192550D01*
X128635088Y-32317032D01*
X128671398Y-32436730D01*
X128730363Y-32547044D01*
X128809715Y-32643735D01*
X128906406Y-32723087D01*
X129016720Y-32782052D01*
X129136418Y-32818362D01*
X129260900Y-32830622D01*
X130160900Y-32830622D01*
X130285382Y-32818362D01*
X130405080Y-32782052D01*
X130515394Y-32723087D01*
X130612085Y-32643735D01*
X130691437Y-32547044D01*
X130750402Y-32436730D01*
X130786712Y-32317032D01*
X130798972Y-32192550D01*
X130798972Y-30992550D01*
X131922828Y-30992550D01*
X131922828Y-32192550D01*
X131935088Y-32317032D01*
X131971398Y-32436730D01*
X132030363Y-32547044D01*
X132109715Y-32643735D01*
X132206406Y-32723087D01*
X132248900Y-32745801D01*
X132248901Y-34253867D01*
X132245214Y-34291300D01*
X132259927Y-34440678D01*
X132303499Y-34584315D01*
X132374255Y-34716692D01*
X132437731Y-34794037D01*
X132469479Y-34832722D01*
X132498549Y-34856579D01*
X137063224Y-39421254D01*
X137033536Y-39492927D01*
X137028459Y-39518452D01*
X137019216Y-39542758D01*
X136994694Y-39688198D01*
X136965900Y-39832955D01*
X136965900Y-39945686D01*
X136924123Y-40551457D01*
X136931740Y-40811162D01*
X137009313Y-41149061D01*
X137151319Y-41465334D01*
X137352296Y-41747826D01*
X137604524Y-41985681D01*
X137898308Y-42169759D01*
X138222359Y-42292984D01*
X138564223Y-42350624D01*
X138910762Y-42340460D01*
X139248661Y-42262887D01*
X139564934Y-42120881D01*
X139847426Y-41919904D01*
X140085281Y-41667676D01*
X140269359Y-41373892D01*
X140392584Y-41049841D01*
X140435781Y-40793639D01*
X140473999Y-40239475D01*
X140485900Y-40179645D01*
X140485900Y-40066911D01*
X140487677Y-40041144D01*
X140485900Y-39980556D01*
X140485900Y-39832955D01*
X140480822Y-39807428D01*
X140480060Y-39781437D01*
X140447059Y-39637687D01*
X140418264Y-39492927D01*
X140408307Y-39468888D01*
X140402487Y-39443538D01*
X140342077Y-39308994D01*
X140285592Y-39172627D01*
X140271130Y-39150983D01*
X140260481Y-39127266D01*
X140174996Y-39007109D01*
X140092981Y-38884365D01*
X140074578Y-38865962D01*
X140059504Y-38844774D01*
X139952211Y-38743595D01*
X139847835Y-38639219D01*
X139826194Y-38624759D01*
X139807276Y-38606919D01*
X139682307Y-38528616D01*
X139559573Y-38446608D01*
X139535528Y-38436648D01*
X139513492Y-38422841D01*
X139375640Y-38370421D01*
X139239273Y-38313936D01*
X139213746Y-38308858D01*
X139189441Y-38299616D01*
X139044008Y-38275095D01*
X138899245Y-38246300D01*
X138873223Y-38246300D01*
X138847577Y-38241976D01*
X138700137Y-38246300D01*
X138552555Y-38246300D01*
X138527033Y-38251377D01*
X138501038Y-38252139D01*
X138357275Y-38285144D01*
X138212527Y-38313936D01*
X138188487Y-38323894D01*
X138163139Y-38329713D01*
X138138159Y-38340929D01*
X133772900Y-33975670D01*
X133772900Y-32745801D01*
X133815394Y-32723087D01*
X133912085Y-32643735D01*
X133991437Y-32547044D01*
X134050402Y-32436730D01*
X134086712Y-32317032D01*
X134098972Y-32192550D01*
X134098972Y-30992550D01*
X138147828Y-30992550D01*
X138147828Y-32192550D01*
X138160088Y-32317032D01*
X138196398Y-32436730D01*
X138255363Y-32547044D01*
X138334715Y-32643735D01*
X138431406Y-32723087D01*
X138541720Y-32782052D01*
X138661418Y-32818362D01*
X138785900Y-32830622D01*
X139685900Y-32830622D01*
X139810382Y-32818362D01*
X139930080Y-32782052D01*
X140040394Y-32723087D01*
X140137085Y-32643735D01*
X140216437Y-32547044D01*
X140275402Y-32436730D01*
X140311712Y-32317032D01*
X140323972Y-32192550D01*
X140323972Y-30992550D01*
X140311712Y-30868068D01*
X140275402Y-30748370D01*
X140216437Y-30638056D01*
X140137085Y-30541365D01*
X140040394Y-30462013D01*
X139997900Y-30439299D01*
X139997900Y-30099177D01*
X148066400Y-30099177D01*
X148066400Y-30657623D01*
X148175348Y-31205339D01*
X148389056Y-31721276D01*
X148699312Y-32185607D01*
X149094193Y-32580488D01*
X149558524Y-32890744D01*
X150074461Y-33104452D01*
X150622177Y-33213400D01*
X151180623Y-33213400D01*
X151728339Y-33104452D01*
X152244276Y-32890744D01*
X152708607Y-32580488D01*
X153103488Y-32185607D01*
X153413744Y-31721276D01*
X153627452Y-31205339D01*
X153736400Y-30657623D01*
X153736400Y-30099177D01*
X153627452Y-29551461D01*
X153413744Y-29035524D01*
X153103488Y-28571193D01*
X152708607Y-28176312D01*
X152244276Y-27866056D01*
X151728339Y-27652348D01*
X151180623Y-27543400D01*
X150622177Y-27543400D01*
X150074461Y-27652348D01*
X149558524Y-27866056D01*
X149094193Y-28176312D01*
X148699312Y-28571193D01*
X148389056Y-29035524D01*
X148175348Y-29551461D01*
X148066400Y-30099177D01*
X139997900Y-30099177D01*
X139997900Y-30038011D01*
X140039837Y-29996074D01*
X140153105Y-29826556D01*
X140231126Y-29638198D01*
X140270900Y-29438239D01*
X140270900Y-29234361D01*
X140231126Y-29034402D01*
X140153105Y-28846044D01*
X140039837Y-28676526D01*
X139895674Y-28532363D01*
X139726156Y-28419095D01*
X139537798Y-28341074D01*
X139337839Y-28301300D01*
X139133961Y-28301300D01*
X138934002Y-28341074D01*
X138745644Y-28419095D01*
X138576126Y-28532363D01*
X138431963Y-28676526D01*
X138318695Y-28846044D01*
X138240674Y-29034402D01*
X138200900Y-29234361D01*
X138200900Y-29438239D01*
X138240674Y-29638198D01*
X138318695Y-29826556D01*
X138431963Y-29996074D01*
X138473901Y-30038012D01*
X138473901Y-30439299D01*
X138431406Y-30462013D01*
X138334715Y-30541365D01*
X138255363Y-30638056D01*
X138196398Y-30748370D01*
X138160088Y-30868068D01*
X138147828Y-30992550D01*
X134098972Y-30992550D01*
X134086712Y-30868068D01*
X134050402Y-30748370D01*
X133991437Y-30638056D01*
X133912085Y-30541365D01*
X133815394Y-30462013D01*
X133705080Y-30403048D01*
X133585382Y-30366738D01*
X133460900Y-30354478D01*
X132560900Y-30354478D01*
X132436418Y-30366738D01*
X132316720Y-30403048D01*
X132206406Y-30462013D01*
X132109715Y-30541365D01*
X132030363Y-30638056D01*
X131971398Y-30748370D01*
X131935088Y-30868068D01*
X131922828Y-30992550D01*
X130798972Y-30992550D01*
X130786712Y-30868068D01*
X130750402Y-30748370D01*
X130691437Y-30638056D01*
X130612085Y-30541365D01*
X130515394Y-30462013D01*
X130405080Y-30403048D01*
X130285382Y-30366738D01*
X130160900Y-30354478D01*
X129550459Y-30354478D01*
X127101184Y-27905204D01*
X127077322Y-27876128D01*
X126961292Y-27780905D01*
X126828915Y-27710148D01*
X126685278Y-27666576D01*
X126573326Y-27655550D01*
X126573323Y-27655550D01*
X126535900Y-27651864D01*
X126498477Y-27655550D01*
X113998322Y-27655550D01*
X113960899Y-27651864D01*
X113923476Y-27655550D01*
X113923474Y-27655550D01*
X113811522Y-27666576D01*
X113667885Y-27710148D01*
X113535508Y-27780905D01*
X113419478Y-27876128D01*
X113395621Y-27905198D01*
X110946342Y-30354478D01*
X110625459Y-30354478D01*
X108176184Y-27905204D01*
X108152322Y-27876128D01*
X108036292Y-27780905D01*
X107903915Y-27710148D01*
X107760278Y-27666576D01*
X107648326Y-27655550D01*
X107648323Y-27655550D01*
X107610900Y-27651864D01*
X107573477Y-27655550D01*
X94948322Y-27655550D01*
X94910899Y-27651864D01*
X94873476Y-27655550D01*
X94873474Y-27655550D01*
X94761522Y-27666576D01*
X94617885Y-27710148D01*
X94485508Y-27780905D01*
X94369478Y-27876128D01*
X94345621Y-27905198D01*
X91896342Y-30354478D01*
X91575459Y-30354478D01*
X89126184Y-27905204D01*
X89102322Y-27876128D01*
X88986292Y-27780905D01*
X88853915Y-27710148D01*
X88710278Y-27666576D01*
X88598326Y-27655550D01*
X88598323Y-27655550D01*
X88560900Y-27651864D01*
X88523477Y-27655550D01*
X75898322Y-27655550D01*
X75860899Y-27651864D01*
X75823476Y-27655550D01*
X75823474Y-27655550D01*
X75711522Y-27666576D01*
X75567885Y-27710148D01*
X75435508Y-27780905D01*
X75319478Y-27876128D01*
X75295621Y-27905198D01*
X72846342Y-30354478D01*
X72235900Y-30354478D01*
X72111418Y-30366738D01*
X71991720Y-30403048D01*
X71881406Y-30462013D01*
X71784715Y-30541365D01*
X71705363Y-30638056D01*
X71646398Y-30748370D01*
X71610088Y-30868068D01*
X71597828Y-30992550D01*
X71597828Y-32192550D01*
X71610088Y-32317032D01*
X71646398Y-32436730D01*
X71705363Y-32547044D01*
X71784715Y-32643735D01*
X71881406Y-32723087D01*
X71923901Y-32745801D01*
X71923901Y-32864418D01*
X66617304Y-38171016D01*
X66588228Y-38194878D01*
X66546028Y-38246300D01*
X66493005Y-38310908D01*
X66491387Y-38313936D01*
X66422248Y-38443286D01*
X66378676Y-38586923D01*
X66367650Y-38698874D01*
X66363964Y-38736300D01*
X66367650Y-38773723D01*
X66367651Y-52422418D01*
X63968886Y-54821184D01*
X63955398Y-54807696D01*
X63811580Y-54711600D01*
X63955398Y-54615504D01*
X64165904Y-54404998D01*
X64331297Y-54157469D01*
X64445222Y-53882430D01*
X64503300Y-53590450D01*
X64503300Y-53292750D01*
X64445222Y-53000770D01*
X64331297Y-52725731D01*
X64165904Y-52478202D01*
X63955398Y-52267696D01*
X63811580Y-52171600D01*
X63955398Y-52075504D01*
X64165904Y-51864998D01*
X64331297Y-51617469D01*
X64445222Y-51342430D01*
X64503300Y-51050450D01*
X64503300Y-50752750D01*
X64445222Y-50460770D01*
X64331297Y-50185731D01*
X64165904Y-49938202D01*
X63955398Y-49727696D01*
X63811580Y-49631600D01*
X63955398Y-49535504D01*
X64165904Y-49324998D01*
X64331297Y-49077469D01*
X64445222Y-48802430D01*
X64503300Y-48510450D01*
X64503300Y-48212750D01*
X64445222Y-47920770D01*
X64331297Y-47645731D01*
X64165904Y-47398202D01*
X63955398Y-47187696D01*
X63811580Y-47091600D01*
X63955398Y-46995504D01*
X64165904Y-46784998D01*
X64331297Y-46537469D01*
X64445222Y-46262430D01*
X64503300Y-45970450D01*
X64503300Y-45672750D01*
X64445222Y-45380770D01*
X64331297Y-45105731D01*
X64165904Y-44858202D01*
X63955398Y-44647696D01*
X63811580Y-44551600D01*
X63955398Y-44455504D01*
X64165904Y-44244998D01*
X64331297Y-43997469D01*
X64445222Y-43722430D01*
X64503300Y-43430450D01*
X64503300Y-43132750D01*
X64445222Y-42840770D01*
X64331297Y-42565731D01*
X64165904Y-42318202D01*
X63955398Y-42107696D01*
X63811580Y-42011600D01*
X63955398Y-41915504D01*
X64165904Y-41704998D01*
X64331297Y-41457469D01*
X64445222Y-41182430D01*
X64503300Y-40890450D01*
X64503300Y-40592750D01*
X64445222Y-40300770D01*
X64331297Y-40025731D01*
X64165904Y-39778202D01*
X63955398Y-39567696D01*
X63811580Y-39471600D01*
X63955398Y-39375504D01*
X64165904Y-39164998D01*
X64331297Y-38917469D01*
X64445222Y-38642430D01*
X64503300Y-38350450D01*
X64503300Y-38052750D01*
X64445222Y-37760770D01*
X64331297Y-37485731D01*
X64165904Y-37238202D01*
X63955398Y-37027696D01*
X63811580Y-36931600D01*
X63955398Y-36835504D01*
X64165904Y-36624998D01*
X64331297Y-36377469D01*
X64445222Y-36102430D01*
X64503300Y-35810450D01*
X64503300Y-35512750D01*
X64445222Y-35220770D01*
X64331297Y-34945731D01*
X64165904Y-34698202D01*
X63955398Y-34487696D01*
X63792191Y-34378645D01*
X63859563Y-34168769D01*
X62992000Y-33301205D01*
X62124437Y-34168769D01*
X62191809Y-34378645D01*
X62028602Y-34487696D01*
X61818096Y-34698202D01*
X61652703Y-34945731D01*
X61538778Y-35220770D01*
X61480700Y-35512750D01*
X61480700Y-35810450D01*
X61538778Y-36102430D01*
X61652703Y-36377469D01*
X61818096Y-36624998D01*
X62028602Y-36835504D01*
X62172420Y-36931600D01*
X62028602Y-37027696D01*
X61818096Y-37238202D01*
X61652703Y-37485731D01*
X61538778Y-37760770D01*
X61480700Y-38052750D01*
X61480700Y-38350450D01*
X61538778Y-38642430D01*
X61652703Y-38917469D01*
X61818096Y-39164998D01*
X62028602Y-39375504D01*
X62172420Y-39471600D01*
X62028602Y-39567696D01*
X61818096Y-39778202D01*
X61652703Y-40025731D01*
X61538778Y-40300770D01*
X61480700Y-40592750D01*
X61480700Y-40890450D01*
X61538778Y-41182430D01*
X61652703Y-41457469D01*
X61818096Y-41704998D01*
X62028602Y-41915504D01*
X62172420Y-42011600D01*
X62028602Y-42107696D01*
X61818096Y-42318202D01*
X61652703Y-42565731D01*
X61538778Y-42840770D01*
X61480700Y-43132750D01*
X61480700Y-43430450D01*
X61538778Y-43722430D01*
X61652703Y-43997469D01*
X61818096Y-44244998D01*
X62028602Y-44455504D01*
X62172420Y-44551600D01*
X62028602Y-44647696D01*
X61818096Y-44858202D01*
X61652703Y-45105731D01*
X61538778Y-45380770D01*
X61480700Y-45672750D01*
X61480700Y-45970450D01*
X61538778Y-46262430D01*
X61652703Y-46537469D01*
X61818096Y-46784998D01*
X62028602Y-46995504D01*
X62172420Y-47091600D01*
X62028602Y-47187696D01*
X61818096Y-47398202D01*
X61652703Y-47645731D01*
X61538778Y-47920770D01*
X61480700Y-48212750D01*
X61480700Y-48510450D01*
X61538778Y-48802430D01*
X61652703Y-49077469D01*
X61818096Y-49324998D01*
X62028602Y-49535504D01*
X62172420Y-49631600D01*
X62028602Y-49727696D01*
X61818096Y-49938202D01*
X61652703Y-50185731D01*
X61538778Y-50460770D01*
X61480700Y-50752750D01*
X61480700Y-51050450D01*
X61538778Y-51342430D01*
X61652703Y-51617469D01*
X61818096Y-51864998D01*
X62028602Y-52075504D01*
X62172420Y-52171600D01*
X62028602Y-52267696D01*
X61818096Y-52478202D01*
X61652703Y-52725731D01*
X61538778Y-53000770D01*
X61480700Y-53292750D01*
X61480700Y-53590450D01*
X61538778Y-53882430D01*
X61652703Y-54157469D01*
X61818096Y-54404998D01*
X62028602Y-54615504D01*
X62172420Y-54711600D01*
X62028602Y-54807696D01*
X61818096Y-55018202D01*
X61652703Y-55265731D01*
X61538778Y-55540770D01*
X61480700Y-55832750D01*
X61480700Y-56130450D01*
X61538778Y-56422430D01*
X61652703Y-56697469D01*
X61818096Y-56944998D01*
X62028602Y-57155504D01*
X62172420Y-57251600D01*
X62028602Y-57347696D01*
X61818096Y-57558202D01*
X61722000Y-57702020D01*
X61625904Y-57558202D01*
X61415398Y-57347696D01*
X61167869Y-57182303D01*
X60892830Y-57068378D01*
X60600850Y-57010300D01*
X60303150Y-57010300D01*
X60011170Y-57068378D01*
X59736131Y-57182303D01*
X59488602Y-57347696D01*
X59278096Y-57558202D01*
X59182000Y-57702020D01*
X59085904Y-57558202D01*
X58875398Y-57347696D01*
X58627869Y-57182303D01*
X58352830Y-57068378D01*
X58060850Y-57010300D01*
X57763150Y-57010300D01*
X57471170Y-57068378D01*
X57196131Y-57182303D01*
X56948602Y-57347696D01*
X56738096Y-57558202D01*
X56642000Y-57702020D01*
X56545904Y-57558202D01*
X56335398Y-57347696D01*
X56087869Y-57182303D01*
X55812830Y-57068378D01*
X55520850Y-57010300D01*
X55223150Y-57010300D01*
X54931170Y-57068378D01*
X54656131Y-57182303D01*
X54408602Y-57347696D01*
X54198096Y-57558202D01*
X54102000Y-57702020D01*
X54005904Y-57558202D01*
X53795398Y-57347696D01*
X53547869Y-57182303D01*
X53272830Y-57068378D01*
X52980850Y-57010300D01*
X52683150Y-57010300D01*
X52391170Y-57068378D01*
X52116131Y-57182303D01*
X51868602Y-57347696D01*
X51658096Y-57558202D01*
X51562000Y-57702020D01*
X51465904Y-57558202D01*
X51255398Y-57347696D01*
X51007869Y-57182303D01*
X50732830Y-57068378D01*
X50440850Y-57010300D01*
X50143150Y-57010300D01*
X49851170Y-57068378D01*
X49576131Y-57182303D01*
X49328602Y-57347696D01*
X49136300Y-57539998D01*
X48943998Y-57347696D01*
X48696469Y-57182303D01*
X48683395Y-57176888D01*
X48715398Y-57155504D01*
X48925904Y-56944998D01*
X49091297Y-56697469D01*
X49205222Y-56422430D01*
X49263300Y-56130450D01*
X49263300Y-55832750D01*
X49205222Y-55540770D01*
X49091297Y-55265731D01*
X48925904Y-55018202D01*
X48715398Y-54807696D01*
X48571580Y-54711600D01*
X48715398Y-54615504D01*
X48925904Y-54404998D01*
X49091297Y-54157469D01*
X49205222Y-53882430D01*
X49263300Y-53590450D01*
X49263300Y-53292750D01*
X49205222Y-53000770D01*
X49091297Y-52725731D01*
X48925904Y-52478202D01*
X48715398Y-52267696D01*
X48571580Y-52171600D01*
X48715398Y-52075504D01*
X48925904Y-51864998D01*
X49091297Y-51617469D01*
X49205222Y-51342430D01*
X49263300Y-51050450D01*
X49263300Y-50752750D01*
X49205222Y-50460770D01*
X49091297Y-50185731D01*
X48925904Y-49938202D01*
X48715398Y-49727696D01*
X48571580Y-49631600D01*
X48715398Y-49535504D01*
X48925904Y-49324998D01*
X49091297Y-49077469D01*
X49205222Y-48802430D01*
X49263300Y-48510450D01*
X49263300Y-48212750D01*
X49205222Y-47920770D01*
X49091297Y-47645731D01*
X48925904Y-47398202D01*
X48715398Y-47187696D01*
X48571580Y-47091600D01*
X48715398Y-46995504D01*
X48925904Y-46784998D01*
X49091297Y-46537469D01*
X49205222Y-46262430D01*
X49263300Y-45970450D01*
X49263300Y-45672750D01*
X49205222Y-45380770D01*
X49091297Y-45105731D01*
X48925904Y-44858202D01*
X48715398Y-44647696D01*
X48571580Y-44551600D01*
X48715398Y-44455504D01*
X48925904Y-44244998D01*
X49091297Y-43997469D01*
X49205222Y-43722430D01*
X49263300Y-43430450D01*
X49263300Y-43132750D01*
X49205222Y-42840770D01*
X49091297Y-42565731D01*
X48925904Y-42318202D01*
X48715398Y-42107696D01*
X48571580Y-42011600D01*
X48715398Y-41915504D01*
X48925904Y-41704998D01*
X49091297Y-41457469D01*
X49205222Y-41182430D01*
X49263300Y-40890450D01*
X49263300Y-40592750D01*
X49205222Y-40300770D01*
X49091297Y-40025731D01*
X48925904Y-39778202D01*
X48715398Y-39567696D01*
X48552191Y-39458645D01*
X48619563Y-39248769D01*
X47752000Y-38381205D01*
X46884437Y-39248769D01*
X46951809Y-39458645D01*
X46788602Y-39567696D01*
X46578096Y-39778202D01*
X46412703Y-40025731D01*
X46298778Y-40300770D01*
X46240700Y-40592750D01*
X46240700Y-40890450D01*
X46298778Y-41182430D01*
X46412703Y-41457469D01*
X46578096Y-41704998D01*
X46788602Y-41915504D01*
X46932420Y-42011600D01*
X46788602Y-42107696D01*
X46578096Y-42318202D01*
X46412703Y-42565731D01*
X46298778Y-42840770D01*
X46240700Y-43132750D01*
X46240700Y-43430450D01*
X46298778Y-43722430D01*
X46412703Y-43997469D01*
X46578096Y-44244998D01*
X46788602Y-44455504D01*
X46932420Y-44551600D01*
X46788602Y-44647696D01*
X46578096Y-44858202D01*
X46412703Y-45105731D01*
X46298778Y-45380770D01*
X46240700Y-45672750D01*
X46240700Y-45970450D01*
X46298778Y-46262430D01*
X46412703Y-46537469D01*
X46578096Y-46784998D01*
X46788602Y-46995504D01*
X46932420Y-47091600D01*
X46788602Y-47187696D01*
X46578096Y-47398202D01*
X46412703Y-47645731D01*
X46298778Y-47920770D01*
X46240700Y-48212750D01*
X46240700Y-48510450D01*
X46298778Y-48802430D01*
X46412703Y-49077469D01*
X46578096Y-49324998D01*
X46788602Y-49535504D01*
X46932420Y-49631600D01*
X46788602Y-49727696D01*
X46578096Y-49938202D01*
X46412703Y-50185731D01*
X46298778Y-50460770D01*
X46240700Y-50752750D01*
X46240700Y-51050450D01*
X46287954Y-51288015D01*
X44392299Y-53183671D01*
X44363229Y-53207528D01*
X44339372Y-53236598D01*
X44339371Y-53236599D01*
X44268005Y-53323558D01*
X44197249Y-53455935D01*
X44153677Y-53599572D01*
X44138964Y-53748950D01*
X32886250Y-53748950D01*
X32886250Y-38269091D01*
X46234887Y-38269091D01*
X46277204Y-38563767D01*
X46376198Y-38844527D01*
X46453071Y-38988346D01*
X46704831Y-39069163D01*
X47572395Y-38201600D01*
X47931605Y-38201600D01*
X48799169Y-39069163D01*
X49050929Y-38988346D01*
X49179457Y-38719821D01*
X49253129Y-38431381D01*
X49269113Y-38134109D01*
X49226796Y-37839433D01*
X49127802Y-37558673D01*
X49050929Y-37414854D01*
X48799169Y-37334037D01*
X47931605Y-38201600D01*
X47572395Y-38201600D01*
X46704831Y-37334037D01*
X46453071Y-37414854D01*
X46324543Y-37683379D01*
X46250871Y-37971819D01*
X46234887Y-38269091D01*
X32886250Y-38269091D01*
X32886250Y-36708769D01*
X46884437Y-36708769D01*
X46955968Y-36931600D01*
X46884437Y-37154431D01*
X47752000Y-38021995D01*
X48619563Y-37154431D01*
X48548032Y-36931600D01*
X48619563Y-36708769D01*
X47752000Y-35841205D01*
X46884437Y-36708769D01*
X32886250Y-36708769D01*
X32886250Y-35729091D01*
X46234887Y-35729091D01*
X46277204Y-36023767D01*
X46376198Y-36304527D01*
X46453071Y-36448346D01*
X46704831Y-36529163D01*
X47572395Y-35661600D01*
X47931605Y-35661600D01*
X48799169Y-36529163D01*
X49050929Y-36448346D01*
X49179457Y-36179821D01*
X49253129Y-35891381D01*
X49269113Y-35594109D01*
X49226796Y-35299433D01*
X49127802Y-35018673D01*
X49050929Y-34874854D01*
X48799169Y-34794037D01*
X47931605Y-35661600D01*
X47572395Y-35661600D01*
X46704831Y-34794037D01*
X46453071Y-34874854D01*
X46324543Y-35143379D01*
X46250871Y-35431819D01*
X46234887Y-35729091D01*
X32886250Y-35729091D01*
X32886250Y-30099177D01*
X34553800Y-30099177D01*
X34553800Y-30657623D01*
X34662748Y-31205339D01*
X34876456Y-31721276D01*
X35186712Y-32185607D01*
X35581593Y-32580488D01*
X36045924Y-32890744D01*
X36561861Y-33104452D01*
X37109577Y-33213400D01*
X37668023Y-33213400D01*
X38215739Y-33104452D01*
X38731676Y-32890744D01*
X39196007Y-32580488D01*
X39590888Y-32185607D01*
X39901144Y-31721276D01*
X40114852Y-31205339D01*
X40223800Y-30657623D01*
X40223800Y-30099177D01*
X40145453Y-29705300D01*
X46237628Y-29705300D01*
X46237628Y-31457900D01*
X46249888Y-31582382D01*
X46286198Y-31702080D01*
X46345163Y-31812394D01*
X46424515Y-31909085D01*
X46521206Y-31988437D01*
X46631520Y-32047402D01*
X46675542Y-32060756D01*
X46578096Y-32158202D01*
X46412703Y-32405731D01*
X46298778Y-32680770D01*
X46240700Y-32972750D01*
X46240700Y-33270450D01*
X46298778Y-33562430D01*
X46412703Y-33837469D01*
X46578096Y-34084998D01*
X46788602Y-34295504D01*
X46951809Y-34404555D01*
X46884437Y-34614431D01*
X47752000Y-35481995D01*
X48619563Y-34614431D01*
X48552191Y-34404555D01*
X48715398Y-34295504D01*
X48925904Y-34084998D01*
X49091297Y-33837469D01*
X49205222Y-33562430D01*
X49263300Y-33270450D01*
X49263300Y-33189091D01*
X61474887Y-33189091D01*
X61517204Y-33483767D01*
X61616198Y-33764527D01*
X61693071Y-33908346D01*
X61944831Y-33989163D01*
X62812395Y-33121600D01*
X63171605Y-33121600D01*
X64039169Y-33989163D01*
X64290929Y-33908346D01*
X64419457Y-33639821D01*
X64493129Y-33351381D01*
X64509113Y-33054109D01*
X64466796Y-32759433D01*
X64367802Y-32478673D01*
X64290929Y-32334854D01*
X64039169Y-32254037D01*
X63171605Y-33121600D01*
X62812395Y-33121600D01*
X61944831Y-32254037D01*
X61693071Y-32334854D01*
X61564543Y-32603379D01*
X61490871Y-32891819D01*
X61474887Y-33189091D01*
X49263300Y-33189091D01*
X49263300Y-32972750D01*
X49205222Y-32680770D01*
X49091297Y-32405731D01*
X48925904Y-32158202D01*
X48828458Y-32060756D01*
X48872480Y-32047402D01*
X48982794Y-31988437D01*
X49079485Y-31909085D01*
X49158837Y-31812394D01*
X49217802Y-31702080D01*
X49254112Y-31582382D01*
X49266372Y-31457900D01*
X49266372Y-30432750D01*
X61480700Y-30432750D01*
X61480700Y-30730450D01*
X61538778Y-31022430D01*
X61652703Y-31297469D01*
X61818096Y-31544998D01*
X62028602Y-31755504D01*
X62191809Y-31864555D01*
X62124437Y-32074431D01*
X62992000Y-32941995D01*
X63859563Y-32074431D01*
X63792191Y-31864555D01*
X63955398Y-31755504D01*
X64165904Y-31544998D01*
X64331297Y-31297469D01*
X64445222Y-31022430D01*
X64503300Y-30730450D01*
X64503300Y-30432750D01*
X64445222Y-30140770D01*
X64331297Y-29865731D01*
X64165904Y-29618202D01*
X63955398Y-29407696D01*
X63707869Y-29242303D01*
X63432830Y-29128378D01*
X63140850Y-29070300D01*
X62843150Y-29070300D01*
X62551170Y-29128378D01*
X62276131Y-29242303D01*
X62028602Y-29407696D01*
X61818096Y-29618202D01*
X61652703Y-29865731D01*
X61538778Y-30140770D01*
X61480700Y-30432750D01*
X49266372Y-30432750D01*
X49266372Y-29705300D01*
X49254112Y-29580818D01*
X49217802Y-29461120D01*
X49158837Y-29350806D01*
X49079485Y-29254115D01*
X48982794Y-29174763D01*
X48872480Y-29115798D01*
X48752782Y-29079488D01*
X48628300Y-29067228D01*
X46875700Y-29067228D01*
X46751218Y-29079488D01*
X46631520Y-29115798D01*
X46521206Y-29174763D01*
X46424515Y-29254115D01*
X46345163Y-29350806D01*
X46286198Y-29461120D01*
X46249888Y-29580818D01*
X46237628Y-29705300D01*
X40145453Y-29705300D01*
X40114852Y-29551461D01*
X39901144Y-29035524D01*
X39590888Y-28571193D01*
X39196007Y-28176312D01*
X38731676Y-27866056D01*
X38215739Y-27652348D01*
X37668023Y-27543400D01*
X37109577Y-27543400D01*
X36561861Y-27652348D01*
X36045924Y-27866056D01*
X35581593Y-28176312D01*
X35186712Y-28571193D01*
X34876456Y-29035524D01*
X34662748Y-29551461D01*
X34553800Y-30099177D01*
X32886250Y-30099177D01*
X32886250Y-25875850D01*
X155391251Y-25875850D01*
X155391250Y-83293350D01*
G37*
G04 #@! TD.AperFunction*
M02*
