G04 #@! TF.GenerationSoftware,KiCad,Pcbnew,(5.1.10-1-10_14)*
G04 #@! TF.CreationDate,2021-08-26T22:34:32+08:00*
G04 #@! TF.ProjectId,SMP v.2,534d5020-762e-4322-9e6b-696361645f70,rev?*
G04 #@! TF.SameCoordinates,Original*
G04 #@! TF.FileFunction,Soldermask,Top*
G04 #@! TF.FilePolarity,Negative*
%FSLAX46Y46*%
G04 Gerber Fmt 4.6, Leading zero omitted, Abs format (unit mm)*
G04 Created by KiCad (PCBNEW (5.1.10-1-10_14)) date 2021-08-26 22:34:32*
%MOMM*%
%LPD*%
G01*
G04 APERTURE LIST*
%ADD10C,0.300000*%
%ADD11C,0.500000*%
%ADD12R,0.550000X1.600000*%
%ADD13R,1.600000X0.550000*%
%ADD14R,0.900000X1.200000*%
%ADD15C,1.750000*%
%ADD16C,3.987800*%
%ADD17C,6.400000*%
%ADD18R,1.900000X0.400000*%
%ADD19R,1.800000X1.100000*%
%ADD20O,1.000000X1.600000*%
%ADD21C,0.650000*%
%ADD22O,1.000000X2.100000*%
%ADD23R,0.300000X1.450000*%
%ADD24R,0.600000X1.450000*%
G04 APERTURE END LIST*
D10*
X105205145Y-76080702D02*
X105419431Y-76152131D01*
X105776574Y-76152131D01*
X105919431Y-76080702D01*
X105990860Y-76009274D01*
X106062288Y-75866417D01*
X106062288Y-75723560D01*
X105990860Y-75580702D01*
X105919431Y-75509274D01*
X105776574Y-75437845D01*
X105490860Y-75366417D01*
X105348002Y-75294988D01*
X105276574Y-75223560D01*
X105205145Y-75080702D01*
X105205145Y-74937845D01*
X105276574Y-74794988D01*
X105348002Y-74723560D01*
X105490860Y-74652131D01*
X105848002Y-74652131D01*
X106062288Y-74723560D01*
X106705145Y-76152131D02*
X106705145Y-75152131D01*
X106705145Y-74652131D02*
X106633717Y-74723560D01*
X106705145Y-74794988D01*
X106776574Y-74723560D01*
X106705145Y-74652131D01*
X106705145Y-74794988D01*
X107419431Y-76152131D02*
X107419431Y-75152131D01*
X107419431Y-75294988D02*
X107490860Y-75223560D01*
X107633717Y-75152131D01*
X107848002Y-75152131D01*
X107990860Y-75223560D01*
X108062288Y-75366417D01*
X108062288Y-76152131D01*
X108062288Y-75366417D02*
X108133717Y-75223560D01*
X108276574Y-75152131D01*
X108490860Y-75152131D01*
X108633717Y-75223560D01*
X108705145Y-75366417D01*
X108705145Y-76152131D01*
X109419431Y-75152131D02*
X109419431Y-76652131D01*
X109419431Y-75223560D02*
X109562288Y-75152131D01*
X109848002Y-75152131D01*
X109990860Y-75223560D01*
X110062288Y-75294988D01*
X110133717Y-75437845D01*
X110133717Y-75866417D01*
X110062288Y-76009274D01*
X109990860Y-76080702D01*
X109848002Y-76152131D01*
X109562288Y-76152131D01*
X109419431Y-76080702D01*
X110990860Y-76152131D02*
X110848002Y-76080702D01*
X110776574Y-75937845D01*
X110776574Y-74652131D01*
X112133717Y-76080702D02*
X111990860Y-76152131D01*
X111705145Y-76152131D01*
X111562288Y-76080702D01*
X111490860Y-75937845D01*
X111490860Y-75366417D01*
X111562288Y-75223560D01*
X111705145Y-75152131D01*
X111990860Y-75152131D01*
X112133717Y-75223560D01*
X112205145Y-75366417D01*
X112205145Y-75509274D01*
X111490860Y-75652131D01*
X113990860Y-76152131D02*
X113990860Y-74652131D01*
X114490860Y-75723560D01*
X114990860Y-74652131D01*
X114990860Y-76152131D01*
X116348002Y-76152131D02*
X116348002Y-75366417D01*
X116276574Y-75223560D01*
X116133717Y-75152131D01*
X115848002Y-75152131D01*
X115705145Y-75223560D01*
X116348002Y-76080702D02*
X116205145Y-76152131D01*
X115848002Y-76152131D01*
X115705145Y-76080702D01*
X115633717Y-75937845D01*
X115633717Y-75794988D01*
X115705145Y-75652131D01*
X115848002Y-75580702D01*
X116205145Y-75580702D01*
X116348002Y-75509274D01*
X117705145Y-76080702D02*
X117562288Y-76152131D01*
X117276574Y-76152131D01*
X117133717Y-76080702D01*
X117062288Y-76009274D01*
X116990860Y-75866417D01*
X116990860Y-75437845D01*
X117062288Y-75294988D01*
X117133717Y-75223560D01*
X117276574Y-75152131D01*
X117562288Y-75152131D01*
X117705145Y-75223560D01*
X118348002Y-76152131D02*
X118348002Y-75152131D01*
X118348002Y-75437845D02*
X118419431Y-75294988D01*
X118490860Y-75223560D01*
X118633717Y-75152131D01*
X118776574Y-75152131D01*
X119490860Y-76152131D02*
X119348002Y-76080702D01*
X119276574Y-76009274D01*
X119205145Y-75866417D01*
X119205145Y-75437845D01*
X119276574Y-75294988D01*
X119348002Y-75223560D01*
X119490860Y-75152131D01*
X119705145Y-75152131D01*
X119848002Y-75223560D01*
X119919431Y-75294988D01*
X119990860Y-75437845D01*
X119990860Y-75866417D01*
X119919431Y-76009274D01*
X119848002Y-76080702D01*
X119705145Y-76152131D01*
X119490860Y-76152131D01*
X120633717Y-75152131D02*
X120633717Y-76652131D01*
X120633717Y-75223560D02*
X120776574Y-75152131D01*
X121062288Y-75152131D01*
X121205145Y-75223560D01*
X121276574Y-75294988D01*
X121348002Y-75437845D01*
X121348002Y-75866417D01*
X121276574Y-76009274D01*
X121205145Y-76080702D01*
X121062288Y-76152131D01*
X120776574Y-76152131D01*
X120633717Y-76080702D01*
X122633717Y-76152131D02*
X122633717Y-75366417D01*
X122562288Y-75223560D01*
X122419431Y-75152131D01*
X122133717Y-75152131D01*
X121990860Y-75223560D01*
X122633717Y-76080702D02*
X122490860Y-76152131D01*
X122133717Y-76152131D01*
X121990860Y-76080702D01*
X121919431Y-75937845D01*
X121919431Y-75794988D01*
X121990860Y-75652131D01*
X122133717Y-75580702D01*
X122490860Y-75580702D01*
X122633717Y-75509274D01*
X123990860Y-76152131D02*
X123990860Y-74652131D01*
X123990860Y-76080702D02*
X123848002Y-76152131D01*
X123562288Y-76152131D01*
X123419431Y-76080702D01*
X123348002Y-76009274D01*
X123276574Y-75866417D01*
X123276574Y-75437845D01*
X123348002Y-75294988D01*
X123419431Y-75223560D01*
X123562288Y-75152131D01*
X123848002Y-75152131D01*
X123990860Y-75223560D01*
X125633717Y-74652131D02*
X126133717Y-76152131D01*
X126633717Y-74652131D01*
X127133717Y-76009274D02*
X127205145Y-76080702D01*
X127133717Y-76152131D01*
X127062288Y-76080702D01*
X127133717Y-76009274D01*
X127133717Y-76152131D01*
X127705145Y-74652131D02*
X128633717Y-74652131D01*
X128133717Y-75223560D01*
X128348002Y-75223560D01*
X128490860Y-75294988D01*
X128562288Y-75366417D01*
X128633717Y-75509274D01*
X128633717Y-75866417D01*
X128562288Y-76009274D01*
X128490860Y-76080702D01*
X128348002Y-76152131D01*
X127919431Y-76152131D01*
X127776574Y-76080702D01*
X127705145Y-76009274D01*
X129276574Y-76009274D02*
X129348002Y-76080702D01*
X129276574Y-76152131D01*
X129205145Y-76080702D01*
X129276574Y-76009274D01*
X129276574Y-76152131D01*
X130776574Y-76152131D02*
X129919431Y-76152131D01*
X130348002Y-76152131D02*
X130348002Y-74652131D01*
X130205145Y-74866417D01*
X130062288Y-75009274D01*
X129919431Y-75080702D01*
X132562288Y-76152131D02*
X132562288Y-74652131D01*
X132562288Y-75223560D02*
X132705145Y-75152131D01*
X132990860Y-75152131D01*
X133133717Y-75223560D01*
X133205145Y-75294988D01*
X133276574Y-75437845D01*
X133276574Y-75866417D01*
X133205145Y-76009274D01*
X133133717Y-76080702D01*
X132990860Y-76152131D01*
X132705145Y-76152131D01*
X132562288Y-76080702D01*
X133776574Y-75152131D02*
X134133717Y-76152131D01*
X134490860Y-75152131D02*
X134133717Y-76152131D01*
X133990860Y-76509274D01*
X133919431Y-76580702D01*
X133776574Y-76652131D01*
X136419431Y-75294988D02*
X136276574Y-75223560D01*
X136205145Y-75152131D01*
X136133717Y-75009274D01*
X136133717Y-74937845D01*
X136205145Y-74794988D01*
X136276574Y-74723560D01*
X136419431Y-74652131D01*
X136705145Y-74652131D01*
X136848002Y-74723560D01*
X136919431Y-74794988D01*
X136990860Y-74937845D01*
X136990860Y-75009274D01*
X136919431Y-75152131D01*
X136848002Y-75223560D01*
X136705145Y-75294988D01*
X136419431Y-75294988D01*
X136276574Y-75366417D01*
X136205145Y-75437845D01*
X136133717Y-75580702D01*
X136133717Y-75866417D01*
X136205145Y-76009274D01*
X136276574Y-76080702D01*
X136419431Y-76152131D01*
X136705145Y-76152131D01*
X136848002Y-76080702D01*
X136919431Y-76009274D01*
X136990860Y-75866417D01*
X136990860Y-75580702D01*
X136919431Y-75437845D01*
X136848002Y-75366417D01*
X136705145Y-75294988D01*
X137276574Y-76294988D02*
X138419431Y-76294988D01*
X138776574Y-76152131D02*
X138776574Y-74652131D01*
X139419431Y-76152131D02*
X139419431Y-75366417D01*
X139348002Y-75223560D01*
X139205145Y-75152131D01*
X138990860Y-75152131D01*
X138848002Y-75223560D01*
X138776574Y-75294988D01*
X140776574Y-76152131D02*
X140776574Y-75366417D01*
X140705145Y-75223560D01*
X140562288Y-75152131D01*
X140276574Y-75152131D01*
X140133717Y-75223560D01*
X140776574Y-76080702D02*
X140633717Y-76152131D01*
X140276574Y-76152131D01*
X140133717Y-76080702D01*
X140062288Y-75937845D01*
X140062288Y-75794988D01*
X140133717Y-75652131D01*
X140276574Y-75580702D01*
X140633717Y-75580702D01*
X140776574Y-75509274D01*
X141490860Y-75152131D02*
X141490860Y-76152131D01*
X141490860Y-75294988D02*
X141562288Y-75223560D01*
X141705145Y-75152131D01*
X141919431Y-75152131D01*
X142062288Y-75223560D01*
X142133717Y-75366417D01*
X142133717Y-76152131D01*
X143490860Y-76152131D02*
X143490860Y-74652131D01*
X143490860Y-76080702D02*
X143348002Y-76152131D01*
X143062288Y-76152131D01*
X142919431Y-76080702D01*
X142848002Y-76009274D01*
X142776574Y-75866417D01*
X142776574Y-75437845D01*
X142848002Y-75294988D01*
X142919431Y-75223560D01*
X143062288Y-75152131D01*
X143348002Y-75152131D01*
X143490860Y-75223560D01*
X144133717Y-76080702D02*
X144276574Y-76152131D01*
X144562288Y-76152131D01*
X144705145Y-76080702D01*
X144776574Y-75937845D01*
X144776574Y-75866417D01*
X144705145Y-75723560D01*
X144562288Y-75652131D01*
X144348002Y-75652131D01*
X144205145Y-75580702D01*
X144133717Y-75437845D01*
X144133717Y-75366417D01*
X144205145Y-75223560D01*
X144348002Y-75152131D01*
X144562288Y-75152131D01*
X144705145Y-75223560D01*
D11*
X155778200Y-83677760D02*
X155778200Y-25488900D01*
X41641840Y-25488900D02*
X155778200Y-25488900D01*
X41640760Y-83677760D02*
X155778200Y-83677760D01*
X41640760Y-83677760D02*
X41641840Y-25488900D01*
D12*
X58922000Y-48505800D03*
X59722000Y-48505800D03*
X60522000Y-48505800D03*
X61322000Y-48505800D03*
X62122000Y-48505800D03*
X62922000Y-48505800D03*
X63722000Y-48505800D03*
X64522000Y-48505800D03*
D13*
X65972000Y-49955800D03*
X65972000Y-50755800D03*
X65972000Y-51555800D03*
X65972000Y-52355800D03*
X65972000Y-53155800D03*
X65972000Y-53955800D03*
X65972000Y-54755800D03*
X65972000Y-55555800D03*
D12*
X64522000Y-57005800D03*
X63722000Y-57005800D03*
X62922000Y-57005800D03*
X62122000Y-57005800D03*
X61322000Y-57005800D03*
X60522000Y-57005800D03*
X59722000Y-57005800D03*
X58922000Y-57005800D03*
D13*
X57472000Y-55555800D03*
X57472000Y-54755800D03*
X57472000Y-53955800D03*
X57472000Y-53155800D03*
X57472000Y-52355800D03*
X57472000Y-51555800D03*
X57472000Y-50755800D03*
X57472000Y-49955800D03*
D14*
X123738350Y-31732220D03*
X120438350Y-31732220D03*
X104642346Y-31732220D03*
X101342346Y-31732220D03*
X114190348Y-31732220D03*
X110890348Y-31732220D03*
X95094344Y-31732220D03*
X91794344Y-31732220D03*
X142834360Y-31732220D03*
X139534360Y-31732220D03*
X85546342Y-31732220D03*
X82246342Y-31732220D03*
X133286352Y-31732220D03*
X129986352Y-31732220D03*
X75998340Y-31732220D03*
X72698340Y-31732220D03*
D15*
X141265900Y-64136300D03*
X131105900Y-64136300D03*
D16*
X136185900Y-64136300D03*
D17*
X46528800Y-78790800D03*
X46528800Y-30378400D03*
X150901400Y-78790800D03*
X150901400Y-30378400D03*
D18*
X53416200Y-51619000D03*
X53416200Y-50419000D03*
X53416200Y-49219000D03*
D19*
X64720400Y-66747000D03*
X58520400Y-63047000D03*
X64720400Y-63047000D03*
X58520400Y-66747000D03*
G36*
G01*
X61641300Y-59759002D02*
X61641300Y-58858998D01*
G75*
G02*
X61891298Y-58609000I249998J0D01*
G01*
X62416302Y-58609000D01*
G75*
G02*
X62666300Y-58858998I0J-249998D01*
G01*
X62666300Y-59759002D01*
G75*
G02*
X62416302Y-60009000I-249998J0D01*
G01*
X61891298Y-60009000D01*
G75*
G02*
X61641300Y-59759002I0J249998D01*
G01*
G37*
G36*
G01*
X59816300Y-59759002D02*
X59816300Y-58858998D01*
G75*
G02*
X60066298Y-58609000I249998J0D01*
G01*
X60591302Y-58609000D01*
G75*
G02*
X60841300Y-58858998I0J-249998D01*
G01*
X60841300Y-59759002D01*
G75*
G02*
X60591302Y-60009000I-249998J0D01*
G01*
X60066298Y-60009000D01*
G75*
G02*
X59816300Y-59759002I0J249998D01*
G01*
G37*
G36*
G01*
X58872542Y-39924400D02*
X57972538Y-39924400D01*
G75*
G02*
X57722540Y-39674402I0J249998D01*
G01*
X57722540Y-39149398D01*
G75*
G02*
X57972538Y-38899400I249998J0D01*
G01*
X58872542Y-38899400D01*
G75*
G02*
X59122540Y-39149398I0J-249998D01*
G01*
X59122540Y-39674402D01*
G75*
G02*
X58872542Y-39924400I-249998J0D01*
G01*
G37*
G36*
G01*
X58872542Y-41749400D02*
X57972538Y-41749400D01*
G75*
G02*
X57722540Y-41499402I0J249998D01*
G01*
X57722540Y-40974398D01*
G75*
G02*
X57972538Y-40724400I249998J0D01*
G01*
X58872542Y-40724400D01*
G75*
G02*
X59122540Y-40974398I0J-249998D01*
G01*
X59122540Y-41499402D01*
G75*
G02*
X58872542Y-41749400I-249998J0D01*
G01*
G37*
G36*
G01*
X63629962Y-39924400D02*
X62729958Y-39924400D01*
G75*
G02*
X62479960Y-39674402I0J249998D01*
G01*
X62479960Y-39149398D01*
G75*
G02*
X62729958Y-38899400I249998J0D01*
G01*
X63629962Y-38899400D01*
G75*
G02*
X63879960Y-39149398I0J-249998D01*
G01*
X63879960Y-39674402D01*
G75*
G02*
X63629962Y-39924400I-249998J0D01*
G01*
G37*
G36*
G01*
X63629962Y-41749400D02*
X62729958Y-41749400D01*
G75*
G02*
X62479960Y-41499402I0J249998D01*
G01*
X62479960Y-40974398D01*
G75*
G02*
X62729958Y-40724400I249998J0D01*
G01*
X63629962Y-40724400D01*
G75*
G02*
X63879960Y-40974398I0J-249998D01*
G01*
X63879960Y-41499402D01*
G75*
G02*
X63629962Y-41749400I-249998J0D01*
G01*
G37*
G36*
G01*
X60419402Y-44124300D02*
X59519398Y-44124300D01*
G75*
G02*
X59269400Y-43874302I0J249998D01*
G01*
X59269400Y-43349298D01*
G75*
G02*
X59519398Y-43099300I249998J0D01*
G01*
X60419402Y-43099300D01*
G75*
G02*
X60669400Y-43349298I0J-249998D01*
G01*
X60669400Y-43874302D01*
G75*
G02*
X60419402Y-44124300I-249998J0D01*
G01*
G37*
G36*
G01*
X60419402Y-45949300D02*
X59519398Y-45949300D01*
G75*
G02*
X59269400Y-45699302I0J249998D01*
G01*
X59269400Y-45174298D01*
G75*
G02*
X59519398Y-44924300I249998J0D01*
G01*
X60419402Y-44924300D01*
G75*
G02*
X60669400Y-45174298I0J-249998D01*
G01*
X60669400Y-45699302D01*
G75*
G02*
X60419402Y-45949300I-249998J0D01*
G01*
G37*
G36*
G01*
X62375202Y-44124300D02*
X61475198Y-44124300D01*
G75*
G02*
X61225200Y-43874302I0J249998D01*
G01*
X61225200Y-43349298D01*
G75*
G02*
X61475198Y-43099300I249998J0D01*
G01*
X62375202Y-43099300D01*
G75*
G02*
X62625200Y-43349298I0J-249998D01*
G01*
X62625200Y-43874302D01*
G75*
G02*
X62375202Y-44124300I-249998J0D01*
G01*
G37*
G36*
G01*
X62375202Y-45949300D02*
X61475198Y-45949300D01*
G75*
G02*
X61225200Y-45699302I0J249998D01*
G01*
X61225200Y-45174298D01*
G75*
G02*
X61475198Y-44924300I249998J0D01*
G01*
X62375202Y-44924300D01*
G75*
G02*
X62625200Y-45174298I0J-249998D01*
G01*
X62625200Y-45699302D01*
G75*
G02*
X62375202Y-45949300I-249998J0D01*
G01*
G37*
G36*
G01*
X55552920Y-63444542D02*
X55552920Y-62544538D01*
G75*
G02*
X55802918Y-62294540I249998J0D01*
G01*
X56327922Y-62294540D01*
G75*
G02*
X56577920Y-62544538I0J-249998D01*
G01*
X56577920Y-63444542D01*
G75*
G02*
X56327922Y-63694540I-249998J0D01*
G01*
X55802918Y-63694540D01*
G75*
G02*
X55552920Y-63444542I0J249998D01*
G01*
G37*
G36*
G01*
X53727920Y-63444542D02*
X53727920Y-62544538D01*
G75*
G02*
X53977918Y-62294540I249998J0D01*
G01*
X54502922Y-62294540D01*
G75*
G02*
X54752920Y-62544538I0J-249998D01*
G01*
X54752920Y-63444542D01*
G75*
G02*
X54502922Y-63694540I-249998J0D01*
G01*
X53977918Y-63694540D01*
G75*
G02*
X53727920Y-63444542I0J249998D01*
G01*
G37*
D20*
X56592400Y-28439400D03*
D21*
X58022400Y-32089400D03*
D20*
X65232400Y-28439400D03*
D21*
X63802400Y-32089400D03*
D22*
X65232400Y-32619400D03*
X56592400Y-32619400D03*
D23*
X61162400Y-33534400D03*
X59162400Y-33534400D03*
X59662400Y-33534400D03*
X60162400Y-33534400D03*
X60662400Y-33534400D03*
X61662400Y-33534400D03*
X62162400Y-33534400D03*
X62662400Y-33534400D03*
D24*
X57662400Y-33534400D03*
X58462400Y-33534400D03*
X63362400Y-33534400D03*
X64162400Y-33534400D03*
X64162400Y-33534400D03*
X63362400Y-33534400D03*
X58462400Y-33534400D03*
X57662400Y-33534400D03*
G36*
G01*
X54154066Y-44743402D02*
X53270182Y-45627286D01*
G75*
G02*
X52916628Y-45627286I-176777J176777D01*
G01*
X52386298Y-45096956D01*
G75*
G02*
X52386298Y-44743402I176777J176777D01*
G01*
X53270182Y-43859518D01*
G75*
G02*
X53623736Y-43859518I176777J-176777D01*
G01*
X54154066Y-44389848D01*
G75*
G02*
X54154066Y-44743402I-176777J-176777D01*
G01*
G37*
G36*
G01*
X56133964Y-46723300D02*
X55250080Y-47607184D01*
G75*
G02*
X54896526Y-47607184I-176777J176777D01*
G01*
X54366196Y-47076854D01*
G75*
G02*
X54366196Y-46723300I176777J176777D01*
G01*
X55250080Y-45839416D01*
G75*
G02*
X55603634Y-45839416I176777J-176777D01*
G01*
X56133964Y-46369746D01*
G75*
G02*
X56133964Y-46723300I-176777J-176777D01*
G01*
G37*
G36*
G01*
X54150280Y-53674820D02*
X53200280Y-53674820D01*
G75*
G02*
X52950280Y-53424820I0J250000D01*
G01*
X52950280Y-52924820D01*
G75*
G02*
X53200280Y-52674820I250000J0D01*
G01*
X54150280Y-52674820D01*
G75*
G02*
X54400280Y-52924820I0J-250000D01*
G01*
X54400280Y-53424820D01*
G75*
G02*
X54150280Y-53674820I-250000J0D01*
G01*
G37*
G36*
G01*
X54150280Y-55574820D02*
X53200280Y-55574820D01*
G75*
G02*
X52950280Y-55324820I0J250000D01*
G01*
X52950280Y-54824820D01*
G75*
G02*
X53200280Y-54574820I250000J0D01*
G01*
X54150280Y-54574820D01*
G75*
G02*
X54400280Y-54824820I0J-250000D01*
G01*
X54400280Y-55324820D01*
G75*
G02*
X54150280Y-55574820I-250000J0D01*
G01*
G37*
G36*
G01*
X58158400Y-44091400D02*
X57208400Y-44091400D01*
G75*
G02*
X56958400Y-43841400I0J250000D01*
G01*
X56958400Y-43341400D01*
G75*
G02*
X57208400Y-43091400I250000J0D01*
G01*
X58158400Y-43091400D01*
G75*
G02*
X58408400Y-43341400I0J-250000D01*
G01*
X58408400Y-43841400D01*
G75*
G02*
X58158400Y-44091400I-250000J0D01*
G01*
G37*
G36*
G01*
X58158400Y-45991400D02*
X57208400Y-45991400D01*
G75*
G02*
X56958400Y-45741400I0J250000D01*
G01*
X56958400Y-45241400D01*
G75*
G02*
X57208400Y-44991400I250000J0D01*
G01*
X58158400Y-44991400D01*
G75*
G02*
X58408400Y-45241400I0J-250000D01*
G01*
X58408400Y-45741400D01*
G75*
G02*
X58158400Y-45991400I-250000J0D01*
G01*
G37*
G36*
G01*
X64762400Y-44091400D02*
X63812400Y-44091400D01*
G75*
G02*
X63562400Y-43841400I0J250000D01*
G01*
X63562400Y-43341400D01*
G75*
G02*
X63812400Y-43091400I250000J0D01*
G01*
X64762400Y-43091400D01*
G75*
G02*
X65012400Y-43341400I0J-250000D01*
G01*
X65012400Y-43841400D01*
G75*
G02*
X64762400Y-44091400I-250000J0D01*
G01*
G37*
G36*
G01*
X64762400Y-45991400D02*
X63812400Y-45991400D01*
G75*
G02*
X63562400Y-45741400I0J250000D01*
G01*
X63562400Y-45241400D01*
G75*
G02*
X63812400Y-44991400I250000J0D01*
G01*
X64762400Y-44991400D01*
G75*
G02*
X65012400Y-45241400I0J-250000D01*
G01*
X65012400Y-45741400D01*
G75*
G02*
X64762400Y-45991400I-250000J0D01*
G01*
G37*
D15*
X122215900Y-64136300D03*
X112055900Y-64136300D03*
D16*
X117135900Y-64136300D03*
D15*
X103165900Y-64136300D03*
X93005900Y-64136300D03*
D16*
X98085900Y-64136300D03*
D15*
X84115900Y-64136300D03*
X73955900Y-64136300D03*
D16*
X79035900Y-64136300D03*
D15*
X141265900Y-45086300D03*
X131105900Y-45086300D03*
D16*
X136185900Y-45086300D03*
D15*
X122215900Y-45086300D03*
X112055900Y-45086300D03*
D16*
X117135900Y-45086300D03*
D15*
X103165900Y-45086300D03*
X93005900Y-45086300D03*
D16*
X98085900Y-45086300D03*
D15*
X84115900Y-45086300D03*
X73955900Y-45086300D03*
D16*
X79035900Y-45086300D03*
M02*
