G04 #@! TF.GenerationSoftware,KiCad,Pcbnew,(5.1.10-1-10_14)*
G04 #@! TF.CreationDate,2021-08-18T22:34:23+08:00*
G04 #@! TF.ProjectId,SMP v.2,534d5020-762e-4322-9e6b-696361645f70,rev?*
G04 #@! TF.SameCoordinates,Original*
G04 #@! TF.FileFunction,Soldermask,Bot*
G04 #@! TF.FilePolarity,Negative*
%FSLAX46Y46*%
G04 Gerber Fmt 4.6, Leading zero omitted, Abs format (unit mm)*
G04 Created by KiCad (PCBNEW (5.1.10-1-10_14)) date 2021-08-18 22:34:23*
%MOMM*%
%LPD*%
G01*
G04 APERTURE LIST*
%ADD10C,0.500000*%
%ADD11C,1.752600*%
%ADD12R,1.752600X1.752600*%
%ADD13C,2.250000*%
%ADD14C,3.987800*%
%ADD15C,1.750000*%
%ADD16C,4.400000*%
G04 APERTURE END LIST*
D10*
X155778200Y-25488900D02*
X155778200Y-83677760D01*
X32501840Y-83677760D02*
X155778200Y-83677760D01*
X32501840Y-25488900D02*
X32501840Y-83677760D01*
X32501840Y-25488900D02*
X155778200Y-25488900D01*
D11*
X50292000Y-58521600D03*
X52832000Y-58521600D03*
X55372000Y-58521600D03*
X57912000Y-58521600D03*
X60452000Y-58521600D03*
X62992000Y-30581600D03*
X47980600Y-58521600D03*
X62992000Y-33121600D03*
X62992000Y-35661600D03*
X62992000Y-38201600D03*
X62992000Y-40741600D03*
X62992000Y-43281600D03*
X62992000Y-45821600D03*
X62992000Y-48361600D03*
X62992000Y-50901600D03*
X62992000Y-53441600D03*
X62992000Y-55981600D03*
X62992000Y-58521600D03*
X47752000Y-55981600D03*
X47752000Y-53441600D03*
X47752000Y-50901600D03*
X47752000Y-48361600D03*
X47752000Y-45821600D03*
X47752000Y-43281600D03*
X47752000Y-40741600D03*
X47752000Y-38201600D03*
X47752000Y-35661600D03*
X47752000Y-33121600D03*
D12*
X47752000Y-30581600D03*
D13*
X138725900Y-59056300D03*
D14*
X136185900Y-64136300D03*
D13*
X132375900Y-61596300D03*
D15*
X131105900Y-64136300D03*
X141265900Y-64136300D03*
D13*
X119675900Y-59056300D03*
D14*
X117135900Y-64136300D03*
D13*
X113325900Y-61596300D03*
D15*
X112055900Y-64136300D03*
X122215900Y-64136300D03*
D13*
X100625900Y-59056300D03*
D14*
X98085900Y-64136300D03*
D13*
X94275900Y-61596300D03*
D15*
X93005900Y-64136300D03*
X103165900Y-64136300D03*
D13*
X81575900Y-59056300D03*
D14*
X79035900Y-64136300D03*
D13*
X75225900Y-61596300D03*
D15*
X73955900Y-64136300D03*
X84115900Y-64136300D03*
D13*
X138725900Y-40006300D03*
D14*
X136185900Y-45086300D03*
D13*
X132375900Y-42546300D03*
D15*
X131105900Y-45086300D03*
X141265900Y-45086300D03*
D13*
X119675900Y-40006300D03*
D14*
X117135900Y-45086300D03*
D13*
X113325900Y-42546300D03*
D15*
X112055900Y-45086300D03*
X122215900Y-45086300D03*
D13*
X100625900Y-40006300D03*
D14*
X98085900Y-45086300D03*
D13*
X94275900Y-42546300D03*
D15*
X93005900Y-45086300D03*
X103165900Y-45086300D03*
D13*
X81575900Y-40006300D03*
D14*
X79035900Y-45086300D03*
D13*
X75225900Y-42546300D03*
D15*
X73955900Y-45086300D03*
X84115900Y-45086300D03*
D16*
X150901400Y-30378400D03*
X37388800Y-30378400D03*
X150901400Y-78790800D03*
X37388800Y-78790800D03*
M02*
