M48
; DRILL file {KiCad (5.1.10-1-10_14)} date Monday, August 02, 2021 at 10:06:33 PM
; FORMAT={-:-/ absolute / inch / decimal}
; #@! TF.CreationDate,2021-08-02T22:06:33+08:00
; #@! TF.GenerationSoftware,Kicad,Pcbnew,(5.1.10-1-10_14)
; #@! TF.FileFunction,NonPlated,1,2,NPTH
FMAT,2
INCH
T1C0.0689
T2C0.1570
%
G90
G05
T1
X2.9116Y-1.7751
X2.9116Y-2.5251
X3.3116Y-1.7751
X3.3116Y-2.5251
X3.6616Y-1.7751
X3.6616Y-2.5251
X4.0616Y-1.7751
X4.0616Y-2.5251
X4.4116Y-1.7751
X4.4116Y-2.5251
X4.8116Y-1.7751
X4.8116Y-2.5251
X5.1616Y-1.7751
X5.1616Y-2.5251
X5.5616Y-1.7751
X5.5616Y-2.5251
T2
X3.1116Y-1.7751
X3.1116Y-2.5251
X3.8616Y-1.7751
X3.8616Y-2.5251
X4.6116Y-1.7751
X4.6116Y-2.5251
X5.3616Y-1.7751
X5.3616Y-2.5251
T0
M30
