G04 #@! TF.GenerationSoftware,KiCad,Pcbnew,(5.1.10-1-10_14)*
G04 #@! TF.CreationDate,2021-08-19T12:02:39+08:00*
G04 #@! TF.ProjectId,SMP v.2,534d5020-762e-4322-9e6b-696361645f70,rev?*
G04 #@! TF.SameCoordinates,Original*
G04 #@! TF.FileFunction,Copper,L2,Bot*
G04 #@! TF.FilePolarity,Positive*
%FSLAX46Y46*%
G04 Gerber Fmt 4.6, Leading zero omitted, Abs format (unit mm)*
G04 Created by KiCad (PCBNEW (5.1.10-1-10_14)) date 2021-08-19 12:02:39*
%MOMM*%
%LPD*%
G01*
G04 APERTURE LIST*
G04 #@! TA.AperFunction,NonConductor*
%ADD10C,0.500000*%
G04 #@! TD*
G04 #@! TA.AperFunction,ComponentPad*
%ADD11R,1.752600X1.752600*%
G04 #@! TD*
G04 #@! TA.AperFunction,ComponentPad*
%ADD12C,1.752600*%
G04 #@! TD*
G04 #@! TA.AperFunction,ComponentPad*
%ADD13C,2.250000*%
G04 #@! TD*
G04 #@! TA.AperFunction,ComponentPad*
%ADD14C,4.400000*%
G04 #@! TD*
G04 #@! TA.AperFunction,ViaPad*
%ADD15C,0.800000*%
G04 #@! TD*
G04 #@! TA.AperFunction,Conductor*
%ADD16C,0.254000*%
G04 #@! TD*
G04 #@! TA.AperFunction,Conductor*
%ADD17C,0.200000*%
G04 #@! TD*
G04 #@! TA.AperFunction,Conductor*
%ADD18C,0.100000*%
G04 #@! TD*
G04 #@! TA.AperFunction,Conductor*
%ADD19C,0.025400*%
G04 #@! TD*
G04 APERTURE END LIST*
D10*
X155778200Y-25488900D02*
X155778200Y-83677760D01*
X32501840Y-83677760D02*
X155778200Y-83677760D01*
X32501840Y-25488900D02*
X155778200Y-25488900D01*
X32501840Y-25488900D02*
X32501840Y-83677760D01*
D11*
X47752000Y-30581600D03*
D12*
X47752000Y-33121600D03*
X47752000Y-35661600D03*
X47752000Y-38201600D03*
X47752000Y-40741600D03*
X47752000Y-43281600D03*
X47752000Y-45821600D03*
X47752000Y-48361600D03*
X47752000Y-50901600D03*
X47752000Y-53441600D03*
X47752000Y-55981600D03*
X62992000Y-58521600D03*
X62992000Y-55981600D03*
X62992000Y-53441600D03*
X62992000Y-50901600D03*
X62992000Y-48361600D03*
X62992000Y-45821600D03*
X62992000Y-43281600D03*
X62992000Y-40741600D03*
X62992000Y-38201600D03*
X62992000Y-35661600D03*
X62992000Y-33121600D03*
X47980600Y-58521600D03*
X62992000Y-30581600D03*
X60452000Y-58521600D03*
X57912000Y-58521600D03*
X55372000Y-58521600D03*
X52832000Y-58521600D03*
X50292000Y-58521600D03*
D13*
X132375900Y-61596300D03*
X138725900Y-59056300D03*
X113325900Y-61596300D03*
X119675900Y-59056300D03*
X94275900Y-61596300D03*
X100625900Y-59056300D03*
X75225900Y-61596300D03*
X81575900Y-59056300D03*
X132375900Y-42546300D03*
X138725900Y-40006300D03*
X113325900Y-42546300D03*
X119675900Y-40006300D03*
X94275900Y-42546300D03*
X100625900Y-40006300D03*
X75225900Y-42546300D03*
X81575900Y-40006300D03*
D14*
X150901400Y-30378400D03*
X37388800Y-30378400D03*
X150901400Y-78790800D03*
X37388800Y-78790800D03*
D15*
X108432600Y-29197300D03*
X89331800Y-29197300D03*
X70370700Y-29197300D03*
X127393700Y-29197300D03*
D16*
X89331800Y-29197300D02*
X108432600Y-29197300D01*
X70370700Y-29197300D02*
X89331800Y-29197300D01*
X108432600Y-29197300D02*
X127393700Y-29197300D01*
X50292000Y-33121600D02*
X47752000Y-35661600D01*
X51181000Y-38201600D02*
X56261000Y-33121600D01*
X47752000Y-38201600D02*
X51181000Y-38201600D01*
X56261000Y-33121600D02*
X50292000Y-33121600D01*
X62992000Y-33121600D02*
X56261000Y-33121600D01*
D17*
X154920201Y-82819760D02*
X33359840Y-82819760D01*
X33359840Y-78514236D01*
X34580800Y-78514236D01*
X34580800Y-79067364D01*
X34688710Y-79609863D01*
X34900382Y-80120887D01*
X35207684Y-80580796D01*
X35598804Y-80971916D01*
X36058713Y-81279218D01*
X36569737Y-81490890D01*
X37112236Y-81598800D01*
X37665364Y-81598800D01*
X38207863Y-81490890D01*
X38718887Y-81279218D01*
X39178796Y-80971916D01*
X39569916Y-80580796D01*
X39877218Y-80120887D01*
X40088890Y-79609863D01*
X40196800Y-79067364D01*
X40196800Y-78514236D01*
X148093400Y-78514236D01*
X148093400Y-79067364D01*
X148201310Y-79609863D01*
X148412982Y-80120887D01*
X148720284Y-80580796D01*
X149111404Y-80971916D01*
X149571313Y-81279218D01*
X150082337Y-81490890D01*
X150624836Y-81598800D01*
X151177964Y-81598800D01*
X151720463Y-81490890D01*
X152231487Y-81279218D01*
X152691396Y-80971916D01*
X153082516Y-80580796D01*
X153389818Y-80120887D01*
X153601490Y-79609863D01*
X153709400Y-79067364D01*
X153709400Y-78514236D01*
X153601490Y-77971737D01*
X153389818Y-77460713D01*
X153082516Y-77000804D01*
X152691396Y-76609684D01*
X152231487Y-76302382D01*
X151720463Y-76090710D01*
X151177964Y-75982800D01*
X150624836Y-75982800D01*
X150082337Y-76090710D01*
X149571313Y-76302382D01*
X149111404Y-76609684D01*
X148720284Y-77000804D01*
X148412982Y-77460713D01*
X148201310Y-77971737D01*
X148093400Y-78514236D01*
X40196800Y-78514236D01*
X40088890Y-77971737D01*
X39877218Y-77460713D01*
X39569916Y-77000804D01*
X39178796Y-76609684D01*
X38718887Y-76302382D01*
X38207863Y-76090710D01*
X37665364Y-75982800D01*
X37112236Y-75982800D01*
X36569737Y-76090710D01*
X36058713Y-76302382D01*
X35598804Y-76609684D01*
X35207684Y-77000804D01*
X34900382Y-77460713D01*
X34688710Y-77971737D01*
X34580800Y-78514236D01*
X33359840Y-78514236D01*
X33359840Y-63990237D01*
X72472900Y-63990237D01*
X72472900Y-64282363D01*
X72529890Y-64568875D01*
X72641682Y-64838764D01*
X72803978Y-65081658D01*
X73010542Y-65288222D01*
X73253436Y-65450518D01*
X73523325Y-65562310D01*
X73809837Y-65619300D01*
X74101963Y-65619300D01*
X74388475Y-65562310D01*
X74658364Y-65450518D01*
X74901258Y-65288222D01*
X75107822Y-65081658D01*
X75270118Y-64838764D01*
X75381910Y-64568875D01*
X75438900Y-64282363D01*
X75438900Y-63990237D01*
X75416980Y-63880035D01*
X76434000Y-63880035D01*
X76434000Y-64392565D01*
X76533990Y-64895246D01*
X76730127Y-65368762D01*
X77014873Y-65794914D01*
X77377286Y-66157327D01*
X77803438Y-66442073D01*
X78276954Y-66638210D01*
X78779635Y-66738200D01*
X79292165Y-66738200D01*
X79794846Y-66638210D01*
X80268362Y-66442073D01*
X80694514Y-66157327D01*
X81056927Y-65794914D01*
X81341673Y-65368762D01*
X81537810Y-64895246D01*
X81637800Y-64392565D01*
X81637800Y-63990237D01*
X82632900Y-63990237D01*
X82632900Y-64282363D01*
X82689890Y-64568875D01*
X82801682Y-64838764D01*
X82963978Y-65081658D01*
X83170542Y-65288222D01*
X83413436Y-65450518D01*
X83683325Y-65562310D01*
X83969837Y-65619300D01*
X84261963Y-65619300D01*
X84548475Y-65562310D01*
X84818364Y-65450518D01*
X85061258Y-65288222D01*
X85267822Y-65081658D01*
X85430118Y-64838764D01*
X85541910Y-64568875D01*
X85598900Y-64282363D01*
X85598900Y-63990237D01*
X91522900Y-63990237D01*
X91522900Y-64282363D01*
X91579890Y-64568875D01*
X91691682Y-64838764D01*
X91853978Y-65081658D01*
X92060542Y-65288222D01*
X92303436Y-65450518D01*
X92573325Y-65562310D01*
X92859837Y-65619300D01*
X93151963Y-65619300D01*
X93438475Y-65562310D01*
X93708364Y-65450518D01*
X93951258Y-65288222D01*
X94157822Y-65081658D01*
X94320118Y-64838764D01*
X94431910Y-64568875D01*
X94488900Y-64282363D01*
X94488900Y-63990237D01*
X94466980Y-63880035D01*
X95484000Y-63880035D01*
X95484000Y-64392565D01*
X95583990Y-64895246D01*
X95780127Y-65368762D01*
X96064873Y-65794914D01*
X96427286Y-66157327D01*
X96853438Y-66442073D01*
X97326954Y-66638210D01*
X97829635Y-66738200D01*
X98342165Y-66738200D01*
X98844846Y-66638210D01*
X99318362Y-66442073D01*
X99744514Y-66157327D01*
X100106927Y-65794914D01*
X100391673Y-65368762D01*
X100587810Y-64895246D01*
X100687800Y-64392565D01*
X100687800Y-63990237D01*
X101682900Y-63990237D01*
X101682900Y-64282363D01*
X101739890Y-64568875D01*
X101851682Y-64838764D01*
X102013978Y-65081658D01*
X102220542Y-65288222D01*
X102463436Y-65450518D01*
X102733325Y-65562310D01*
X103019837Y-65619300D01*
X103311963Y-65619300D01*
X103598475Y-65562310D01*
X103868364Y-65450518D01*
X104111258Y-65288222D01*
X104317822Y-65081658D01*
X104480118Y-64838764D01*
X104591910Y-64568875D01*
X104648900Y-64282363D01*
X104648900Y-63990237D01*
X110572900Y-63990237D01*
X110572900Y-64282363D01*
X110629890Y-64568875D01*
X110741682Y-64838764D01*
X110903978Y-65081658D01*
X111110542Y-65288222D01*
X111353436Y-65450518D01*
X111623325Y-65562310D01*
X111909837Y-65619300D01*
X112201963Y-65619300D01*
X112488475Y-65562310D01*
X112758364Y-65450518D01*
X113001258Y-65288222D01*
X113207822Y-65081658D01*
X113370118Y-64838764D01*
X113481910Y-64568875D01*
X113538900Y-64282363D01*
X113538900Y-63990237D01*
X113516980Y-63880035D01*
X114534000Y-63880035D01*
X114534000Y-64392565D01*
X114633990Y-64895246D01*
X114830127Y-65368762D01*
X115114873Y-65794914D01*
X115477286Y-66157327D01*
X115903438Y-66442073D01*
X116376954Y-66638210D01*
X116879635Y-66738200D01*
X117392165Y-66738200D01*
X117894846Y-66638210D01*
X118368362Y-66442073D01*
X118794514Y-66157327D01*
X119156927Y-65794914D01*
X119441673Y-65368762D01*
X119637810Y-64895246D01*
X119737800Y-64392565D01*
X119737800Y-63990237D01*
X120732900Y-63990237D01*
X120732900Y-64282363D01*
X120789890Y-64568875D01*
X120901682Y-64838764D01*
X121063978Y-65081658D01*
X121270542Y-65288222D01*
X121513436Y-65450518D01*
X121783325Y-65562310D01*
X122069837Y-65619300D01*
X122361963Y-65619300D01*
X122648475Y-65562310D01*
X122918364Y-65450518D01*
X123161258Y-65288222D01*
X123367822Y-65081658D01*
X123530118Y-64838764D01*
X123641910Y-64568875D01*
X123698900Y-64282363D01*
X123698900Y-63990237D01*
X129622900Y-63990237D01*
X129622900Y-64282363D01*
X129679890Y-64568875D01*
X129791682Y-64838764D01*
X129953978Y-65081658D01*
X130160542Y-65288222D01*
X130403436Y-65450518D01*
X130673325Y-65562310D01*
X130959837Y-65619300D01*
X131251963Y-65619300D01*
X131538475Y-65562310D01*
X131808364Y-65450518D01*
X132051258Y-65288222D01*
X132257822Y-65081658D01*
X132420118Y-64838764D01*
X132531910Y-64568875D01*
X132588900Y-64282363D01*
X132588900Y-63990237D01*
X132566980Y-63880035D01*
X133584000Y-63880035D01*
X133584000Y-64392565D01*
X133683990Y-64895246D01*
X133880127Y-65368762D01*
X134164873Y-65794914D01*
X134527286Y-66157327D01*
X134953438Y-66442073D01*
X135426954Y-66638210D01*
X135929635Y-66738200D01*
X136442165Y-66738200D01*
X136944846Y-66638210D01*
X137418362Y-66442073D01*
X137844514Y-66157327D01*
X138206927Y-65794914D01*
X138491673Y-65368762D01*
X138687810Y-64895246D01*
X138787800Y-64392565D01*
X138787800Y-63990237D01*
X139782900Y-63990237D01*
X139782900Y-64282363D01*
X139839890Y-64568875D01*
X139951682Y-64838764D01*
X140113978Y-65081658D01*
X140320542Y-65288222D01*
X140563436Y-65450518D01*
X140833325Y-65562310D01*
X141119837Y-65619300D01*
X141411963Y-65619300D01*
X141698475Y-65562310D01*
X141968364Y-65450518D01*
X142211258Y-65288222D01*
X142417822Y-65081658D01*
X142580118Y-64838764D01*
X142691910Y-64568875D01*
X142748900Y-64282363D01*
X142748900Y-63990237D01*
X142691910Y-63703725D01*
X142580118Y-63433836D01*
X142417822Y-63190942D01*
X142211258Y-62984378D01*
X141968364Y-62822082D01*
X141698475Y-62710290D01*
X141411963Y-62653300D01*
X141119837Y-62653300D01*
X140833325Y-62710290D01*
X140563436Y-62822082D01*
X140320542Y-62984378D01*
X140113978Y-63190942D01*
X139951682Y-63433836D01*
X139839890Y-63703725D01*
X139782900Y-63990237D01*
X138787800Y-63990237D01*
X138787800Y-63880035D01*
X138687810Y-63377354D01*
X138491673Y-62903838D01*
X138206927Y-62477686D01*
X137844514Y-62115273D01*
X137418362Y-61830527D01*
X136944846Y-61634390D01*
X136442165Y-61534400D01*
X135929635Y-61534400D01*
X135426954Y-61634390D01*
X134953438Y-61830527D01*
X134527286Y-62115273D01*
X134164873Y-62477686D01*
X133880127Y-62903838D01*
X133683990Y-63377354D01*
X133584000Y-63880035D01*
X132566980Y-63880035D01*
X132531910Y-63703725D01*
X132420118Y-63433836D01*
X132350270Y-63329300D01*
X132546586Y-63329300D01*
X132881397Y-63262702D01*
X133196783Y-63132064D01*
X133480623Y-62942409D01*
X133722009Y-62701023D01*
X133911664Y-62417183D01*
X134042302Y-62101797D01*
X134108900Y-61766986D01*
X134108900Y-61425614D01*
X134042302Y-61090803D01*
X133911664Y-60775417D01*
X133722009Y-60491577D01*
X133480623Y-60250191D01*
X133196783Y-60060536D01*
X132881397Y-59929898D01*
X132546586Y-59863300D01*
X132205214Y-59863300D01*
X131870403Y-59929898D01*
X131555017Y-60060536D01*
X131271177Y-60250191D01*
X131029791Y-60491577D01*
X130840136Y-60775417D01*
X130709498Y-61090803D01*
X130642900Y-61425614D01*
X130642900Y-61766986D01*
X130709498Y-62101797D01*
X130840136Y-62417183D01*
X130997904Y-62653300D01*
X130959837Y-62653300D01*
X130673325Y-62710290D01*
X130403436Y-62822082D01*
X130160542Y-62984378D01*
X129953978Y-63190942D01*
X129791682Y-63433836D01*
X129679890Y-63703725D01*
X129622900Y-63990237D01*
X123698900Y-63990237D01*
X123641910Y-63703725D01*
X123530118Y-63433836D01*
X123367822Y-63190942D01*
X123161258Y-62984378D01*
X122918364Y-62822082D01*
X122648475Y-62710290D01*
X122361963Y-62653300D01*
X122069837Y-62653300D01*
X121783325Y-62710290D01*
X121513436Y-62822082D01*
X121270542Y-62984378D01*
X121063978Y-63190942D01*
X120901682Y-63433836D01*
X120789890Y-63703725D01*
X120732900Y-63990237D01*
X119737800Y-63990237D01*
X119737800Y-63880035D01*
X119637810Y-63377354D01*
X119441673Y-62903838D01*
X119156927Y-62477686D01*
X118794514Y-62115273D01*
X118368362Y-61830527D01*
X117894846Y-61634390D01*
X117392165Y-61534400D01*
X116879635Y-61534400D01*
X116376954Y-61634390D01*
X115903438Y-61830527D01*
X115477286Y-62115273D01*
X115114873Y-62477686D01*
X114830127Y-62903838D01*
X114633990Y-63377354D01*
X114534000Y-63880035D01*
X113516980Y-63880035D01*
X113481910Y-63703725D01*
X113370118Y-63433836D01*
X113300270Y-63329300D01*
X113496586Y-63329300D01*
X113831397Y-63262702D01*
X114146783Y-63132064D01*
X114430623Y-62942409D01*
X114672009Y-62701023D01*
X114861664Y-62417183D01*
X114992302Y-62101797D01*
X115058900Y-61766986D01*
X115058900Y-61425614D01*
X114992302Y-61090803D01*
X114861664Y-60775417D01*
X114672009Y-60491577D01*
X114430623Y-60250191D01*
X114146783Y-60060536D01*
X113831397Y-59929898D01*
X113496586Y-59863300D01*
X113155214Y-59863300D01*
X112820403Y-59929898D01*
X112505017Y-60060536D01*
X112221177Y-60250191D01*
X111979791Y-60491577D01*
X111790136Y-60775417D01*
X111659498Y-61090803D01*
X111592900Y-61425614D01*
X111592900Y-61766986D01*
X111659498Y-62101797D01*
X111790136Y-62417183D01*
X111947904Y-62653300D01*
X111909837Y-62653300D01*
X111623325Y-62710290D01*
X111353436Y-62822082D01*
X111110542Y-62984378D01*
X110903978Y-63190942D01*
X110741682Y-63433836D01*
X110629890Y-63703725D01*
X110572900Y-63990237D01*
X104648900Y-63990237D01*
X104591910Y-63703725D01*
X104480118Y-63433836D01*
X104317822Y-63190942D01*
X104111258Y-62984378D01*
X103868364Y-62822082D01*
X103598475Y-62710290D01*
X103311963Y-62653300D01*
X103019837Y-62653300D01*
X102733325Y-62710290D01*
X102463436Y-62822082D01*
X102220542Y-62984378D01*
X102013978Y-63190942D01*
X101851682Y-63433836D01*
X101739890Y-63703725D01*
X101682900Y-63990237D01*
X100687800Y-63990237D01*
X100687800Y-63880035D01*
X100587810Y-63377354D01*
X100391673Y-62903838D01*
X100106927Y-62477686D01*
X99744514Y-62115273D01*
X99318362Y-61830527D01*
X98844846Y-61634390D01*
X98342165Y-61534400D01*
X97829635Y-61534400D01*
X97326954Y-61634390D01*
X96853438Y-61830527D01*
X96427286Y-62115273D01*
X96064873Y-62477686D01*
X95780127Y-62903838D01*
X95583990Y-63377354D01*
X95484000Y-63880035D01*
X94466980Y-63880035D01*
X94431910Y-63703725D01*
X94320118Y-63433836D01*
X94250270Y-63329300D01*
X94446586Y-63329300D01*
X94781397Y-63262702D01*
X95096783Y-63132064D01*
X95380623Y-62942409D01*
X95622009Y-62701023D01*
X95811664Y-62417183D01*
X95942302Y-62101797D01*
X96008900Y-61766986D01*
X96008900Y-61425614D01*
X95942302Y-61090803D01*
X95811664Y-60775417D01*
X95622009Y-60491577D01*
X95380623Y-60250191D01*
X95096783Y-60060536D01*
X94781397Y-59929898D01*
X94446586Y-59863300D01*
X94105214Y-59863300D01*
X93770403Y-59929898D01*
X93455017Y-60060536D01*
X93171177Y-60250191D01*
X92929791Y-60491577D01*
X92740136Y-60775417D01*
X92609498Y-61090803D01*
X92542900Y-61425614D01*
X92542900Y-61766986D01*
X92609498Y-62101797D01*
X92740136Y-62417183D01*
X92897904Y-62653300D01*
X92859837Y-62653300D01*
X92573325Y-62710290D01*
X92303436Y-62822082D01*
X92060542Y-62984378D01*
X91853978Y-63190942D01*
X91691682Y-63433836D01*
X91579890Y-63703725D01*
X91522900Y-63990237D01*
X85598900Y-63990237D01*
X85541910Y-63703725D01*
X85430118Y-63433836D01*
X85267822Y-63190942D01*
X85061258Y-62984378D01*
X84818364Y-62822082D01*
X84548475Y-62710290D01*
X84261963Y-62653300D01*
X83969837Y-62653300D01*
X83683325Y-62710290D01*
X83413436Y-62822082D01*
X83170542Y-62984378D01*
X82963978Y-63190942D01*
X82801682Y-63433836D01*
X82689890Y-63703725D01*
X82632900Y-63990237D01*
X81637800Y-63990237D01*
X81637800Y-63880035D01*
X81537810Y-63377354D01*
X81341673Y-62903838D01*
X81056927Y-62477686D01*
X80694514Y-62115273D01*
X80268362Y-61830527D01*
X79794846Y-61634390D01*
X79292165Y-61534400D01*
X78779635Y-61534400D01*
X78276954Y-61634390D01*
X77803438Y-61830527D01*
X77377286Y-62115273D01*
X77014873Y-62477686D01*
X76730127Y-62903838D01*
X76533990Y-63377354D01*
X76434000Y-63880035D01*
X75416980Y-63880035D01*
X75381910Y-63703725D01*
X75270118Y-63433836D01*
X75200270Y-63329300D01*
X75396586Y-63329300D01*
X75731397Y-63262702D01*
X76046783Y-63132064D01*
X76330623Y-62942409D01*
X76572009Y-62701023D01*
X76761664Y-62417183D01*
X76892302Y-62101797D01*
X76958900Y-61766986D01*
X76958900Y-61425614D01*
X76892302Y-61090803D01*
X76761664Y-60775417D01*
X76572009Y-60491577D01*
X76330623Y-60250191D01*
X76046783Y-60060536D01*
X75731397Y-59929898D01*
X75396586Y-59863300D01*
X75055214Y-59863300D01*
X74720403Y-59929898D01*
X74405017Y-60060536D01*
X74121177Y-60250191D01*
X73879791Y-60491577D01*
X73690136Y-60775417D01*
X73559498Y-61090803D01*
X73492900Y-61425614D01*
X73492900Y-61766986D01*
X73559498Y-62101797D01*
X73690136Y-62417183D01*
X73847904Y-62653300D01*
X73809837Y-62653300D01*
X73523325Y-62710290D01*
X73253436Y-62822082D01*
X73010542Y-62984378D01*
X72803978Y-63190942D01*
X72641682Y-63433836D01*
X72529890Y-63703725D01*
X72472900Y-63990237D01*
X33359840Y-63990237D01*
X33359840Y-40595409D01*
X46267700Y-40595409D01*
X46267700Y-40887791D01*
X46324741Y-41174554D01*
X46436630Y-41444680D01*
X46599069Y-41687786D01*
X46805814Y-41894531D01*
X46981019Y-42011600D01*
X46805814Y-42128669D01*
X46599069Y-42335414D01*
X46436630Y-42578520D01*
X46324741Y-42848646D01*
X46267700Y-43135409D01*
X46267700Y-43427791D01*
X46324741Y-43714554D01*
X46436630Y-43984680D01*
X46599069Y-44227786D01*
X46805814Y-44434531D01*
X46981019Y-44551600D01*
X46805814Y-44668669D01*
X46599069Y-44875414D01*
X46436630Y-45118520D01*
X46324741Y-45388646D01*
X46267700Y-45675409D01*
X46267700Y-45967791D01*
X46324741Y-46254554D01*
X46436630Y-46524680D01*
X46599069Y-46767786D01*
X46805814Y-46974531D01*
X46981019Y-47091600D01*
X46805814Y-47208669D01*
X46599069Y-47415414D01*
X46436630Y-47658520D01*
X46324741Y-47928646D01*
X46267700Y-48215409D01*
X46267700Y-48507791D01*
X46324741Y-48794554D01*
X46436630Y-49064680D01*
X46599069Y-49307786D01*
X46805814Y-49514531D01*
X46981019Y-49631600D01*
X46805814Y-49748669D01*
X46599069Y-49955414D01*
X46436630Y-50198520D01*
X46324741Y-50468646D01*
X46267700Y-50755409D01*
X46267700Y-51047791D01*
X46324741Y-51334554D01*
X46436630Y-51604680D01*
X46599069Y-51847786D01*
X46805814Y-52054531D01*
X46981019Y-52171600D01*
X46805814Y-52288669D01*
X46599069Y-52495414D01*
X46436630Y-52738520D01*
X46324741Y-53008646D01*
X46267700Y-53295409D01*
X46267700Y-53587791D01*
X46324741Y-53874554D01*
X46436630Y-54144680D01*
X46599069Y-54387786D01*
X46805814Y-54594531D01*
X46981019Y-54711600D01*
X46805814Y-54828669D01*
X46599069Y-55035414D01*
X46436630Y-55278520D01*
X46324741Y-55548646D01*
X46267700Y-55835409D01*
X46267700Y-56127791D01*
X46324741Y-56414554D01*
X46436630Y-56684680D01*
X46599069Y-56927786D01*
X46805814Y-57134531D01*
X47048920Y-57296970D01*
X47106206Y-57320699D01*
X47034414Y-57368669D01*
X46827669Y-57575414D01*
X46665230Y-57818520D01*
X46553341Y-58088646D01*
X46496300Y-58375409D01*
X46496300Y-58667791D01*
X46553341Y-58954554D01*
X46665230Y-59224680D01*
X46827669Y-59467786D01*
X47034414Y-59674531D01*
X47277520Y-59836970D01*
X47547646Y-59948859D01*
X47834409Y-60005900D01*
X48126791Y-60005900D01*
X48413554Y-59948859D01*
X48683680Y-59836970D01*
X48926786Y-59674531D01*
X49133531Y-59467786D01*
X49136300Y-59463642D01*
X49139069Y-59467786D01*
X49345814Y-59674531D01*
X49588920Y-59836970D01*
X49859046Y-59948859D01*
X50145809Y-60005900D01*
X50438191Y-60005900D01*
X50724954Y-59948859D01*
X50995080Y-59836970D01*
X51238186Y-59674531D01*
X51444931Y-59467786D01*
X51562000Y-59292581D01*
X51679069Y-59467786D01*
X51885814Y-59674531D01*
X52128920Y-59836970D01*
X52399046Y-59948859D01*
X52685809Y-60005900D01*
X52978191Y-60005900D01*
X53264954Y-59948859D01*
X53535080Y-59836970D01*
X53778186Y-59674531D01*
X53984931Y-59467786D01*
X54102000Y-59292581D01*
X54219069Y-59467786D01*
X54425814Y-59674531D01*
X54668920Y-59836970D01*
X54939046Y-59948859D01*
X55225809Y-60005900D01*
X55518191Y-60005900D01*
X55804954Y-59948859D01*
X56075080Y-59836970D01*
X56318186Y-59674531D01*
X56524931Y-59467786D01*
X56642000Y-59292581D01*
X56759069Y-59467786D01*
X56965814Y-59674531D01*
X57208920Y-59836970D01*
X57479046Y-59948859D01*
X57765809Y-60005900D01*
X58058191Y-60005900D01*
X58344954Y-59948859D01*
X58615080Y-59836970D01*
X58858186Y-59674531D01*
X59064931Y-59467786D01*
X59182000Y-59292581D01*
X59299069Y-59467786D01*
X59505814Y-59674531D01*
X59748920Y-59836970D01*
X60019046Y-59948859D01*
X60305809Y-60005900D01*
X60598191Y-60005900D01*
X60884954Y-59948859D01*
X61155080Y-59836970D01*
X61398186Y-59674531D01*
X61604931Y-59467786D01*
X61722000Y-59292581D01*
X61839069Y-59467786D01*
X62045814Y-59674531D01*
X62288920Y-59836970D01*
X62559046Y-59948859D01*
X62845809Y-60005900D01*
X63138191Y-60005900D01*
X63424954Y-59948859D01*
X63695080Y-59836970D01*
X63938186Y-59674531D01*
X64144931Y-59467786D01*
X64307370Y-59224680D01*
X64419259Y-58954554D01*
X64432972Y-58885614D01*
X79842900Y-58885614D01*
X79842900Y-59226986D01*
X79909498Y-59561797D01*
X80040136Y-59877183D01*
X80229791Y-60161023D01*
X80471177Y-60402409D01*
X80755017Y-60592064D01*
X81070403Y-60722702D01*
X81405214Y-60789300D01*
X81746586Y-60789300D01*
X82081397Y-60722702D01*
X82396783Y-60592064D01*
X82680623Y-60402409D01*
X82922009Y-60161023D01*
X83111664Y-59877183D01*
X83242302Y-59561797D01*
X83308900Y-59226986D01*
X83308900Y-58885614D01*
X98892900Y-58885614D01*
X98892900Y-59226986D01*
X98959498Y-59561797D01*
X99090136Y-59877183D01*
X99279791Y-60161023D01*
X99521177Y-60402409D01*
X99805017Y-60592064D01*
X100120403Y-60722702D01*
X100455214Y-60789300D01*
X100796586Y-60789300D01*
X101131397Y-60722702D01*
X101446783Y-60592064D01*
X101730623Y-60402409D01*
X101972009Y-60161023D01*
X102161664Y-59877183D01*
X102292302Y-59561797D01*
X102358900Y-59226986D01*
X102358900Y-58885614D01*
X117942900Y-58885614D01*
X117942900Y-59226986D01*
X118009498Y-59561797D01*
X118140136Y-59877183D01*
X118329791Y-60161023D01*
X118571177Y-60402409D01*
X118855017Y-60592064D01*
X119170403Y-60722702D01*
X119505214Y-60789300D01*
X119846586Y-60789300D01*
X120181397Y-60722702D01*
X120496783Y-60592064D01*
X120780623Y-60402409D01*
X121022009Y-60161023D01*
X121211664Y-59877183D01*
X121342302Y-59561797D01*
X121408900Y-59226986D01*
X121408900Y-58885614D01*
X136992900Y-58885614D01*
X136992900Y-59226986D01*
X137059498Y-59561797D01*
X137190136Y-59877183D01*
X137379791Y-60161023D01*
X137621177Y-60402409D01*
X137905017Y-60592064D01*
X138220403Y-60722702D01*
X138555214Y-60789300D01*
X138896586Y-60789300D01*
X139231397Y-60722702D01*
X139546783Y-60592064D01*
X139830623Y-60402409D01*
X140072009Y-60161023D01*
X140261664Y-59877183D01*
X140392302Y-59561797D01*
X140458900Y-59226986D01*
X140458900Y-58885614D01*
X140392302Y-58550803D01*
X140261664Y-58235417D01*
X140072009Y-57951577D01*
X139830623Y-57710191D01*
X139546783Y-57520536D01*
X139231397Y-57389898D01*
X138896586Y-57323300D01*
X138555214Y-57323300D01*
X138220403Y-57389898D01*
X137905017Y-57520536D01*
X137621177Y-57710191D01*
X137379791Y-57951577D01*
X137190136Y-58235417D01*
X137059498Y-58550803D01*
X136992900Y-58885614D01*
X121408900Y-58885614D01*
X121342302Y-58550803D01*
X121211664Y-58235417D01*
X121022009Y-57951577D01*
X120780623Y-57710191D01*
X120496783Y-57520536D01*
X120181397Y-57389898D01*
X119846586Y-57323300D01*
X119505214Y-57323300D01*
X119170403Y-57389898D01*
X118855017Y-57520536D01*
X118571177Y-57710191D01*
X118329791Y-57951577D01*
X118140136Y-58235417D01*
X118009498Y-58550803D01*
X117942900Y-58885614D01*
X102358900Y-58885614D01*
X102292302Y-58550803D01*
X102161664Y-58235417D01*
X101972009Y-57951577D01*
X101730623Y-57710191D01*
X101446783Y-57520536D01*
X101131397Y-57389898D01*
X100796586Y-57323300D01*
X100455214Y-57323300D01*
X100120403Y-57389898D01*
X99805017Y-57520536D01*
X99521177Y-57710191D01*
X99279791Y-57951577D01*
X99090136Y-58235417D01*
X98959498Y-58550803D01*
X98892900Y-58885614D01*
X83308900Y-58885614D01*
X83242302Y-58550803D01*
X83111664Y-58235417D01*
X82922009Y-57951577D01*
X82680623Y-57710191D01*
X82396783Y-57520536D01*
X82081397Y-57389898D01*
X81746586Y-57323300D01*
X81405214Y-57323300D01*
X81070403Y-57389898D01*
X80755017Y-57520536D01*
X80471177Y-57710191D01*
X80229791Y-57951577D01*
X80040136Y-58235417D01*
X79909498Y-58550803D01*
X79842900Y-58885614D01*
X64432972Y-58885614D01*
X64476300Y-58667791D01*
X64476300Y-58375409D01*
X64419259Y-58088646D01*
X64307370Y-57818520D01*
X64144931Y-57575414D01*
X63938186Y-57368669D01*
X63762981Y-57251600D01*
X63938186Y-57134531D01*
X64144931Y-56927786D01*
X64307370Y-56684680D01*
X64419259Y-56414554D01*
X64476300Y-56127791D01*
X64476300Y-55835409D01*
X64419259Y-55548646D01*
X64307370Y-55278520D01*
X64144931Y-55035414D01*
X63938186Y-54828669D01*
X63762981Y-54711600D01*
X63938186Y-54594531D01*
X64144931Y-54387786D01*
X64307370Y-54144680D01*
X64419259Y-53874554D01*
X64476300Y-53587791D01*
X64476300Y-53295409D01*
X64419259Y-53008646D01*
X64307370Y-52738520D01*
X64144931Y-52495414D01*
X63938186Y-52288669D01*
X63762981Y-52171600D01*
X63938186Y-52054531D01*
X64144931Y-51847786D01*
X64307370Y-51604680D01*
X64419259Y-51334554D01*
X64476300Y-51047791D01*
X64476300Y-50755409D01*
X64419259Y-50468646D01*
X64307370Y-50198520D01*
X64144931Y-49955414D01*
X63938186Y-49748669D01*
X63762981Y-49631600D01*
X63938186Y-49514531D01*
X64144931Y-49307786D01*
X64307370Y-49064680D01*
X64419259Y-48794554D01*
X64476300Y-48507791D01*
X64476300Y-48215409D01*
X64419259Y-47928646D01*
X64307370Y-47658520D01*
X64144931Y-47415414D01*
X63938186Y-47208669D01*
X63762981Y-47091600D01*
X63938186Y-46974531D01*
X64144931Y-46767786D01*
X64307370Y-46524680D01*
X64419259Y-46254554D01*
X64476300Y-45967791D01*
X64476300Y-45675409D01*
X64419259Y-45388646D01*
X64307370Y-45118520D01*
X64188245Y-44940237D01*
X72472900Y-44940237D01*
X72472900Y-45232363D01*
X72529890Y-45518875D01*
X72641682Y-45788764D01*
X72803978Y-46031658D01*
X73010542Y-46238222D01*
X73253436Y-46400518D01*
X73523325Y-46512310D01*
X73809837Y-46569300D01*
X74101963Y-46569300D01*
X74388475Y-46512310D01*
X74658364Y-46400518D01*
X74901258Y-46238222D01*
X75107822Y-46031658D01*
X75270118Y-45788764D01*
X75381910Y-45518875D01*
X75438900Y-45232363D01*
X75438900Y-44940237D01*
X75416980Y-44830035D01*
X76434000Y-44830035D01*
X76434000Y-45342565D01*
X76533990Y-45845246D01*
X76730127Y-46318762D01*
X77014873Y-46744914D01*
X77377286Y-47107327D01*
X77803438Y-47392073D01*
X78276954Y-47588210D01*
X78779635Y-47688200D01*
X79292165Y-47688200D01*
X79794846Y-47588210D01*
X80268362Y-47392073D01*
X80694514Y-47107327D01*
X81056927Y-46744914D01*
X81341673Y-46318762D01*
X81537810Y-45845246D01*
X81637800Y-45342565D01*
X81637800Y-44940237D01*
X82632900Y-44940237D01*
X82632900Y-45232363D01*
X82689890Y-45518875D01*
X82801682Y-45788764D01*
X82963978Y-46031658D01*
X83170542Y-46238222D01*
X83413436Y-46400518D01*
X83683325Y-46512310D01*
X83969837Y-46569300D01*
X84261963Y-46569300D01*
X84548475Y-46512310D01*
X84818364Y-46400518D01*
X85061258Y-46238222D01*
X85267822Y-46031658D01*
X85430118Y-45788764D01*
X85541910Y-45518875D01*
X85598900Y-45232363D01*
X85598900Y-44940237D01*
X91522900Y-44940237D01*
X91522900Y-45232363D01*
X91579890Y-45518875D01*
X91691682Y-45788764D01*
X91853978Y-46031658D01*
X92060542Y-46238222D01*
X92303436Y-46400518D01*
X92573325Y-46512310D01*
X92859837Y-46569300D01*
X93151963Y-46569300D01*
X93438475Y-46512310D01*
X93708364Y-46400518D01*
X93951258Y-46238222D01*
X94157822Y-46031658D01*
X94320118Y-45788764D01*
X94431910Y-45518875D01*
X94488900Y-45232363D01*
X94488900Y-44940237D01*
X94466980Y-44830035D01*
X95484000Y-44830035D01*
X95484000Y-45342565D01*
X95583990Y-45845246D01*
X95780127Y-46318762D01*
X96064873Y-46744914D01*
X96427286Y-47107327D01*
X96853438Y-47392073D01*
X97326954Y-47588210D01*
X97829635Y-47688200D01*
X98342165Y-47688200D01*
X98844846Y-47588210D01*
X99318362Y-47392073D01*
X99744514Y-47107327D01*
X100106927Y-46744914D01*
X100391673Y-46318762D01*
X100587810Y-45845246D01*
X100687800Y-45342565D01*
X100687800Y-44940237D01*
X101682900Y-44940237D01*
X101682900Y-45232363D01*
X101739890Y-45518875D01*
X101851682Y-45788764D01*
X102013978Y-46031658D01*
X102220542Y-46238222D01*
X102463436Y-46400518D01*
X102733325Y-46512310D01*
X103019837Y-46569300D01*
X103311963Y-46569300D01*
X103598475Y-46512310D01*
X103868364Y-46400518D01*
X104111258Y-46238222D01*
X104317822Y-46031658D01*
X104480118Y-45788764D01*
X104591910Y-45518875D01*
X104648900Y-45232363D01*
X104648900Y-44940237D01*
X110572900Y-44940237D01*
X110572900Y-45232363D01*
X110629890Y-45518875D01*
X110741682Y-45788764D01*
X110903978Y-46031658D01*
X111110542Y-46238222D01*
X111353436Y-46400518D01*
X111623325Y-46512310D01*
X111909837Y-46569300D01*
X112201963Y-46569300D01*
X112488475Y-46512310D01*
X112758364Y-46400518D01*
X113001258Y-46238222D01*
X113207822Y-46031658D01*
X113370118Y-45788764D01*
X113481910Y-45518875D01*
X113538900Y-45232363D01*
X113538900Y-44940237D01*
X113516980Y-44830035D01*
X114534000Y-44830035D01*
X114534000Y-45342565D01*
X114633990Y-45845246D01*
X114830127Y-46318762D01*
X115114873Y-46744914D01*
X115477286Y-47107327D01*
X115903438Y-47392073D01*
X116376954Y-47588210D01*
X116879635Y-47688200D01*
X117392165Y-47688200D01*
X117894846Y-47588210D01*
X118368362Y-47392073D01*
X118794514Y-47107327D01*
X119156927Y-46744914D01*
X119441673Y-46318762D01*
X119637810Y-45845246D01*
X119737800Y-45342565D01*
X119737800Y-44940237D01*
X120732900Y-44940237D01*
X120732900Y-45232363D01*
X120789890Y-45518875D01*
X120901682Y-45788764D01*
X121063978Y-46031658D01*
X121270542Y-46238222D01*
X121513436Y-46400518D01*
X121783325Y-46512310D01*
X122069837Y-46569300D01*
X122361963Y-46569300D01*
X122648475Y-46512310D01*
X122918364Y-46400518D01*
X123161258Y-46238222D01*
X123367822Y-46031658D01*
X123530118Y-45788764D01*
X123641910Y-45518875D01*
X123698900Y-45232363D01*
X123698900Y-44940237D01*
X129622900Y-44940237D01*
X129622900Y-45232363D01*
X129679890Y-45518875D01*
X129791682Y-45788764D01*
X129953978Y-46031658D01*
X130160542Y-46238222D01*
X130403436Y-46400518D01*
X130673325Y-46512310D01*
X130959837Y-46569300D01*
X131251963Y-46569300D01*
X131538475Y-46512310D01*
X131808364Y-46400518D01*
X132051258Y-46238222D01*
X132257822Y-46031658D01*
X132420118Y-45788764D01*
X132531910Y-45518875D01*
X132588900Y-45232363D01*
X132588900Y-44940237D01*
X132566980Y-44830035D01*
X133584000Y-44830035D01*
X133584000Y-45342565D01*
X133683990Y-45845246D01*
X133880127Y-46318762D01*
X134164873Y-46744914D01*
X134527286Y-47107327D01*
X134953438Y-47392073D01*
X135426954Y-47588210D01*
X135929635Y-47688200D01*
X136442165Y-47688200D01*
X136944846Y-47588210D01*
X137418362Y-47392073D01*
X137844514Y-47107327D01*
X138206927Y-46744914D01*
X138491673Y-46318762D01*
X138687810Y-45845246D01*
X138787800Y-45342565D01*
X138787800Y-44940237D01*
X139782900Y-44940237D01*
X139782900Y-45232363D01*
X139839890Y-45518875D01*
X139951682Y-45788764D01*
X140113978Y-46031658D01*
X140320542Y-46238222D01*
X140563436Y-46400518D01*
X140833325Y-46512310D01*
X141119837Y-46569300D01*
X141411963Y-46569300D01*
X141698475Y-46512310D01*
X141968364Y-46400518D01*
X142211258Y-46238222D01*
X142417822Y-46031658D01*
X142580118Y-45788764D01*
X142691910Y-45518875D01*
X142748900Y-45232363D01*
X142748900Y-44940237D01*
X142691910Y-44653725D01*
X142580118Y-44383836D01*
X142417822Y-44140942D01*
X142211258Y-43934378D01*
X141968364Y-43772082D01*
X141698475Y-43660290D01*
X141411963Y-43603300D01*
X141119837Y-43603300D01*
X140833325Y-43660290D01*
X140563436Y-43772082D01*
X140320542Y-43934378D01*
X140113978Y-44140942D01*
X139951682Y-44383836D01*
X139839890Y-44653725D01*
X139782900Y-44940237D01*
X138787800Y-44940237D01*
X138787800Y-44830035D01*
X138687810Y-44327354D01*
X138491673Y-43853838D01*
X138206927Y-43427686D01*
X137844514Y-43065273D01*
X137418362Y-42780527D01*
X136944846Y-42584390D01*
X136442165Y-42484400D01*
X135929635Y-42484400D01*
X135426954Y-42584390D01*
X134953438Y-42780527D01*
X134527286Y-43065273D01*
X134164873Y-43427686D01*
X133880127Y-43853838D01*
X133683990Y-44327354D01*
X133584000Y-44830035D01*
X132566980Y-44830035D01*
X132531910Y-44653725D01*
X132420118Y-44383836D01*
X132350270Y-44279300D01*
X132546586Y-44279300D01*
X132881397Y-44212702D01*
X133196783Y-44082064D01*
X133480623Y-43892409D01*
X133722009Y-43651023D01*
X133911664Y-43367183D01*
X134042302Y-43051797D01*
X134108900Y-42716986D01*
X134108900Y-42375614D01*
X134042302Y-42040803D01*
X133911664Y-41725417D01*
X133722009Y-41441577D01*
X133480623Y-41200191D01*
X133196783Y-41010536D01*
X132881397Y-40879898D01*
X132546586Y-40813300D01*
X132205214Y-40813300D01*
X131870403Y-40879898D01*
X131555017Y-41010536D01*
X131271177Y-41200191D01*
X131029791Y-41441577D01*
X130840136Y-41725417D01*
X130709498Y-42040803D01*
X130642900Y-42375614D01*
X130642900Y-42716986D01*
X130709498Y-43051797D01*
X130840136Y-43367183D01*
X130997904Y-43603300D01*
X130959837Y-43603300D01*
X130673325Y-43660290D01*
X130403436Y-43772082D01*
X130160542Y-43934378D01*
X129953978Y-44140942D01*
X129791682Y-44383836D01*
X129679890Y-44653725D01*
X129622900Y-44940237D01*
X123698900Y-44940237D01*
X123641910Y-44653725D01*
X123530118Y-44383836D01*
X123367822Y-44140942D01*
X123161258Y-43934378D01*
X122918364Y-43772082D01*
X122648475Y-43660290D01*
X122361963Y-43603300D01*
X122069837Y-43603300D01*
X121783325Y-43660290D01*
X121513436Y-43772082D01*
X121270542Y-43934378D01*
X121063978Y-44140942D01*
X120901682Y-44383836D01*
X120789890Y-44653725D01*
X120732900Y-44940237D01*
X119737800Y-44940237D01*
X119737800Y-44830035D01*
X119637810Y-44327354D01*
X119441673Y-43853838D01*
X119156927Y-43427686D01*
X118794514Y-43065273D01*
X118368362Y-42780527D01*
X117894846Y-42584390D01*
X117392165Y-42484400D01*
X116879635Y-42484400D01*
X116376954Y-42584390D01*
X115903438Y-42780527D01*
X115477286Y-43065273D01*
X115114873Y-43427686D01*
X114830127Y-43853838D01*
X114633990Y-44327354D01*
X114534000Y-44830035D01*
X113516980Y-44830035D01*
X113481910Y-44653725D01*
X113370118Y-44383836D01*
X113300270Y-44279300D01*
X113496586Y-44279300D01*
X113831397Y-44212702D01*
X114146783Y-44082064D01*
X114430623Y-43892409D01*
X114672009Y-43651023D01*
X114861664Y-43367183D01*
X114992302Y-43051797D01*
X115058900Y-42716986D01*
X115058900Y-42375614D01*
X114992302Y-42040803D01*
X114861664Y-41725417D01*
X114672009Y-41441577D01*
X114430623Y-41200191D01*
X114146783Y-41010536D01*
X113831397Y-40879898D01*
X113496586Y-40813300D01*
X113155214Y-40813300D01*
X112820403Y-40879898D01*
X112505017Y-41010536D01*
X112221177Y-41200191D01*
X111979791Y-41441577D01*
X111790136Y-41725417D01*
X111659498Y-42040803D01*
X111592900Y-42375614D01*
X111592900Y-42716986D01*
X111659498Y-43051797D01*
X111790136Y-43367183D01*
X111947904Y-43603300D01*
X111909837Y-43603300D01*
X111623325Y-43660290D01*
X111353436Y-43772082D01*
X111110542Y-43934378D01*
X110903978Y-44140942D01*
X110741682Y-44383836D01*
X110629890Y-44653725D01*
X110572900Y-44940237D01*
X104648900Y-44940237D01*
X104591910Y-44653725D01*
X104480118Y-44383836D01*
X104317822Y-44140942D01*
X104111258Y-43934378D01*
X103868364Y-43772082D01*
X103598475Y-43660290D01*
X103311963Y-43603300D01*
X103019837Y-43603300D01*
X102733325Y-43660290D01*
X102463436Y-43772082D01*
X102220542Y-43934378D01*
X102013978Y-44140942D01*
X101851682Y-44383836D01*
X101739890Y-44653725D01*
X101682900Y-44940237D01*
X100687800Y-44940237D01*
X100687800Y-44830035D01*
X100587810Y-44327354D01*
X100391673Y-43853838D01*
X100106927Y-43427686D01*
X99744514Y-43065273D01*
X99318362Y-42780527D01*
X98844846Y-42584390D01*
X98342165Y-42484400D01*
X97829635Y-42484400D01*
X97326954Y-42584390D01*
X96853438Y-42780527D01*
X96427286Y-43065273D01*
X96064873Y-43427686D01*
X95780127Y-43853838D01*
X95583990Y-44327354D01*
X95484000Y-44830035D01*
X94466980Y-44830035D01*
X94431910Y-44653725D01*
X94320118Y-44383836D01*
X94250270Y-44279300D01*
X94446586Y-44279300D01*
X94781397Y-44212702D01*
X95096783Y-44082064D01*
X95380623Y-43892409D01*
X95622009Y-43651023D01*
X95811664Y-43367183D01*
X95942302Y-43051797D01*
X96008900Y-42716986D01*
X96008900Y-42375614D01*
X95942302Y-42040803D01*
X95811664Y-41725417D01*
X95622009Y-41441577D01*
X95380623Y-41200191D01*
X95096783Y-41010536D01*
X94781397Y-40879898D01*
X94446586Y-40813300D01*
X94105214Y-40813300D01*
X93770403Y-40879898D01*
X93455017Y-41010536D01*
X93171177Y-41200191D01*
X92929791Y-41441577D01*
X92740136Y-41725417D01*
X92609498Y-42040803D01*
X92542900Y-42375614D01*
X92542900Y-42716986D01*
X92609498Y-43051797D01*
X92740136Y-43367183D01*
X92897904Y-43603300D01*
X92859837Y-43603300D01*
X92573325Y-43660290D01*
X92303436Y-43772082D01*
X92060542Y-43934378D01*
X91853978Y-44140942D01*
X91691682Y-44383836D01*
X91579890Y-44653725D01*
X91522900Y-44940237D01*
X85598900Y-44940237D01*
X85541910Y-44653725D01*
X85430118Y-44383836D01*
X85267822Y-44140942D01*
X85061258Y-43934378D01*
X84818364Y-43772082D01*
X84548475Y-43660290D01*
X84261963Y-43603300D01*
X83969837Y-43603300D01*
X83683325Y-43660290D01*
X83413436Y-43772082D01*
X83170542Y-43934378D01*
X82963978Y-44140942D01*
X82801682Y-44383836D01*
X82689890Y-44653725D01*
X82632900Y-44940237D01*
X81637800Y-44940237D01*
X81637800Y-44830035D01*
X81537810Y-44327354D01*
X81341673Y-43853838D01*
X81056927Y-43427686D01*
X80694514Y-43065273D01*
X80268362Y-42780527D01*
X79794846Y-42584390D01*
X79292165Y-42484400D01*
X78779635Y-42484400D01*
X78276954Y-42584390D01*
X77803438Y-42780527D01*
X77377286Y-43065273D01*
X77014873Y-43427686D01*
X76730127Y-43853838D01*
X76533990Y-44327354D01*
X76434000Y-44830035D01*
X75416980Y-44830035D01*
X75381910Y-44653725D01*
X75270118Y-44383836D01*
X75200270Y-44279300D01*
X75396586Y-44279300D01*
X75731397Y-44212702D01*
X76046783Y-44082064D01*
X76330623Y-43892409D01*
X76572009Y-43651023D01*
X76761664Y-43367183D01*
X76892302Y-43051797D01*
X76958900Y-42716986D01*
X76958900Y-42375614D01*
X76892302Y-42040803D01*
X76761664Y-41725417D01*
X76572009Y-41441577D01*
X76330623Y-41200191D01*
X76046783Y-41010536D01*
X75731397Y-40879898D01*
X75396586Y-40813300D01*
X75055214Y-40813300D01*
X74720403Y-40879898D01*
X74405017Y-41010536D01*
X74121177Y-41200191D01*
X73879791Y-41441577D01*
X73690136Y-41725417D01*
X73559498Y-42040803D01*
X73492900Y-42375614D01*
X73492900Y-42716986D01*
X73559498Y-43051797D01*
X73690136Y-43367183D01*
X73847904Y-43603300D01*
X73809837Y-43603300D01*
X73523325Y-43660290D01*
X73253436Y-43772082D01*
X73010542Y-43934378D01*
X72803978Y-44140942D01*
X72641682Y-44383836D01*
X72529890Y-44653725D01*
X72472900Y-44940237D01*
X64188245Y-44940237D01*
X64144931Y-44875414D01*
X63938186Y-44668669D01*
X63762981Y-44551600D01*
X63938186Y-44434531D01*
X64144931Y-44227786D01*
X64307370Y-43984680D01*
X64419259Y-43714554D01*
X64476300Y-43427791D01*
X64476300Y-43135409D01*
X64419259Y-42848646D01*
X64307370Y-42578520D01*
X64144931Y-42335414D01*
X63938186Y-42128669D01*
X63762981Y-42011600D01*
X63938186Y-41894531D01*
X64144931Y-41687786D01*
X64307370Y-41444680D01*
X64419259Y-41174554D01*
X64476300Y-40887791D01*
X64476300Y-40595409D01*
X64419259Y-40308646D01*
X64307370Y-40038520D01*
X64171792Y-39835614D01*
X79842900Y-39835614D01*
X79842900Y-40176986D01*
X79909498Y-40511797D01*
X80040136Y-40827183D01*
X80229791Y-41111023D01*
X80471177Y-41352409D01*
X80755017Y-41542064D01*
X81070403Y-41672702D01*
X81405214Y-41739300D01*
X81746586Y-41739300D01*
X82081397Y-41672702D01*
X82396783Y-41542064D01*
X82680623Y-41352409D01*
X82922009Y-41111023D01*
X83111664Y-40827183D01*
X83242302Y-40511797D01*
X83308900Y-40176986D01*
X83308900Y-39835614D01*
X98892900Y-39835614D01*
X98892900Y-40176986D01*
X98959498Y-40511797D01*
X99090136Y-40827183D01*
X99279791Y-41111023D01*
X99521177Y-41352409D01*
X99805017Y-41542064D01*
X100120403Y-41672702D01*
X100455214Y-41739300D01*
X100796586Y-41739300D01*
X101131397Y-41672702D01*
X101446783Y-41542064D01*
X101730623Y-41352409D01*
X101972009Y-41111023D01*
X102161664Y-40827183D01*
X102292302Y-40511797D01*
X102358900Y-40176986D01*
X102358900Y-39835614D01*
X117942900Y-39835614D01*
X117942900Y-40176986D01*
X118009498Y-40511797D01*
X118140136Y-40827183D01*
X118329791Y-41111023D01*
X118571177Y-41352409D01*
X118855017Y-41542064D01*
X119170403Y-41672702D01*
X119505214Y-41739300D01*
X119846586Y-41739300D01*
X120181397Y-41672702D01*
X120496783Y-41542064D01*
X120780623Y-41352409D01*
X121022009Y-41111023D01*
X121211664Y-40827183D01*
X121342302Y-40511797D01*
X121408900Y-40176986D01*
X121408900Y-39835614D01*
X136992900Y-39835614D01*
X136992900Y-40176986D01*
X137059498Y-40511797D01*
X137190136Y-40827183D01*
X137379791Y-41111023D01*
X137621177Y-41352409D01*
X137905017Y-41542064D01*
X138220403Y-41672702D01*
X138555214Y-41739300D01*
X138896586Y-41739300D01*
X139231397Y-41672702D01*
X139546783Y-41542064D01*
X139830623Y-41352409D01*
X140072009Y-41111023D01*
X140261664Y-40827183D01*
X140392302Y-40511797D01*
X140458900Y-40176986D01*
X140458900Y-39835614D01*
X140392302Y-39500803D01*
X140261664Y-39185417D01*
X140072009Y-38901577D01*
X139830623Y-38660191D01*
X139546783Y-38470536D01*
X139231397Y-38339898D01*
X138896586Y-38273300D01*
X138555214Y-38273300D01*
X138220403Y-38339898D01*
X137905017Y-38470536D01*
X137621177Y-38660191D01*
X137379791Y-38901577D01*
X137190136Y-39185417D01*
X137059498Y-39500803D01*
X136992900Y-39835614D01*
X121408900Y-39835614D01*
X121342302Y-39500803D01*
X121211664Y-39185417D01*
X121022009Y-38901577D01*
X120780623Y-38660191D01*
X120496783Y-38470536D01*
X120181397Y-38339898D01*
X119846586Y-38273300D01*
X119505214Y-38273300D01*
X119170403Y-38339898D01*
X118855017Y-38470536D01*
X118571177Y-38660191D01*
X118329791Y-38901577D01*
X118140136Y-39185417D01*
X118009498Y-39500803D01*
X117942900Y-39835614D01*
X102358900Y-39835614D01*
X102292302Y-39500803D01*
X102161664Y-39185417D01*
X101972009Y-38901577D01*
X101730623Y-38660191D01*
X101446783Y-38470536D01*
X101131397Y-38339898D01*
X100796586Y-38273300D01*
X100455214Y-38273300D01*
X100120403Y-38339898D01*
X99805017Y-38470536D01*
X99521177Y-38660191D01*
X99279791Y-38901577D01*
X99090136Y-39185417D01*
X98959498Y-39500803D01*
X98892900Y-39835614D01*
X83308900Y-39835614D01*
X83242302Y-39500803D01*
X83111664Y-39185417D01*
X82922009Y-38901577D01*
X82680623Y-38660191D01*
X82396783Y-38470536D01*
X82081397Y-38339898D01*
X81746586Y-38273300D01*
X81405214Y-38273300D01*
X81070403Y-38339898D01*
X80755017Y-38470536D01*
X80471177Y-38660191D01*
X80229791Y-38901577D01*
X80040136Y-39185417D01*
X79909498Y-39500803D01*
X79842900Y-39835614D01*
X64171792Y-39835614D01*
X64144931Y-39795414D01*
X63938186Y-39588669D01*
X63762981Y-39471600D01*
X63938186Y-39354531D01*
X64144931Y-39147786D01*
X64307370Y-38904680D01*
X64419259Y-38634554D01*
X64476300Y-38347791D01*
X64476300Y-38055409D01*
X64419259Y-37768646D01*
X64307370Y-37498520D01*
X64144931Y-37255414D01*
X63938186Y-37048669D01*
X63762981Y-36931600D01*
X63938186Y-36814531D01*
X64144931Y-36607786D01*
X64307370Y-36364680D01*
X64419259Y-36094554D01*
X64476300Y-35807791D01*
X64476300Y-35515409D01*
X64419259Y-35228646D01*
X64307370Y-34958520D01*
X64144931Y-34715414D01*
X63938186Y-34508669D01*
X63749766Y-34382770D01*
X63823982Y-34171371D01*
X62992000Y-33339389D01*
X62160018Y-34171371D01*
X62234234Y-34382770D01*
X62045814Y-34508669D01*
X61839069Y-34715414D01*
X61676630Y-34958520D01*
X61564741Y-35228646D01*
X61507700Y-35515409D01*
X61507700Y-35807791D01*
X61564741Y-36094554D01*
X61676630Y-36364680D01*
X61839069Y-36607786D01*
X62045814Y-36814531D01*
X62221019Y-36931600D01*
X62045814Y-37048669D01*
X61839069Y-37255414D01*
X61676630Y-37498520D01*
X61564741Y-37768646D01*
X61507700Y-38055409D01*
X61507700Y-38347791D01*
X61564741Y-38634554D01*
X61676630Y-38904680D01*
X61839069Y-39147786D01*
X62045814Y-39354531D01*
X62221019Y-39471600D01*
X62045814Y-39588669D01*
X61839069Y-39795414D01*
X61676630Y-40038520D01*
X61564741Y-40308646D01*
X61507700Y-40595409D01*
X61507700Y-40887791D01*
X61564741Y-41174554D01*
X61676630Y-41444680D01*
X61839069Y-41687786D01*
X62045814Y-41894531D01*
X62221019Y-42011600D01*
X62045814Y-42128669D01*
X61839069Y-42335414D01*
X61676630Y-42578520D01*
X61564741Y-42848646D01*
X61507700Y-43135409D01*
X61507700Y-43427791D01*
X61564741Y-43714554D01*
X61676630Y-43984680D01*
X61839069Y-44227786D01*
X62045814Y-44434531D01*
X62221019Y-44551600D01*
X62045814Y-44668669D01*
X61839069Y-44875414D01*
X61676630Y-45118520D01*
X61564741Y-45388646D01*
X61507700Y-45675409D01*
X61507700Y-45967791D01*
X61564741Y-46254554D01*
X61676630Y-46524680D01*
X61839069Y-46767786D01*
X62045814Y-46974531D01*
X62221019Y-47091600D01*
X62045814Y-47208669D01*
X61839069Y-47415414D01*
X61676630Y-47658520D01*
X61564741Y-47928646D01*
X61507700Y-48215409D01*
X61507700Y-48507791D01*
X61564741Y-48794554D01*
X61676630Y-49064680D01*
X61839069Y-49307786D01*
X62045814Y-49514531D01*
X62221019Y-49631600D01*
X62045814Y-49748669D01*
X61839069Y-49955414D01*
X61676630Y-50198520D01*
X61564741Y-50468646D01*
X61507700Y-50755409D01*
X61507700Y-51047791D01*
X61564741Y-51334554D01*
X61676630Y-51604680D01*
X61839069Y-51847786D01*
X62045814Y-52054531D01*
X62221019Y-52171600D01*
X62045814Y-52288669D01*
X61839069Y-52495414D01*
X61676630Y-52738520D01*
X61564741Y-53008646D01*
X61507700Y-53295409D01*
X61507700Y-53587791D01*
X61564741Y-53874554D01*
X61676630Y-54144680D01*
X61839069Y-54387786D01*
X62045814Y-54594531D01*
X62221019Y-54711600D01*
X62045814Y-54828669D01*
X61839069Y-55035414D01*
X61676630Y-55278520D01*
X61564741Y-55548646D01*
X61507700Y-55835409D01*
X61507700Y-56127791D01*
X61564741Y-56414554D01*
X61676630Y-56684680D01*
X61839069Y-56927786D01*
X62045814Y-57134531D01*
X62221019Y-57251600D01*
X62045814Y-57368669D01*
X61839069Y-57575414D01*
X61722000Y-57750619D01*
X61604931Y-57575414D01*
X61398186Y-57368669D01*
X61155080Y-57206230D01*
X60884954Y-57094341D01*
X60598191Y-57037300D01*
X60305809Y-57037300D01*
X60019046Y-57094341D01*
X59748920Y-57206230D01*
X59505814Y-57368669D01*
X59299069Y-57575414D01*
X59182000Y-57750619D01*
X59064931Y-57575414D01*
X58858186Y-57368669D01*
X58615080Y-57206230D01*
X58344954Y-57094341D01*
X58058191Y-57037300D01*
X57765809Y-57037300D01*
X57479046Y-57094341D01*
X57208920Y-57206230D01*
X56965814Y-57368669D01*
X56759069Y-57575414D01*
X56642000Y-57750619D01*
X56524931Y-57575414D01*
X56318186Y-57368669D01*
X56075080Y-57206230D01*
X55804954Y-57094341D01*
X55518191Y-57037300D01*
X55225809Y-57037300D01*
X54939046Y-57094341D01*
X54668920Y-57206230D01*
X54425814Y-57368669D01*
X54219069Y-57575414D01*
X54102000Y-57750619D01*
X53984931Y-57575414D01*
X53778186Y-57368669D01*
X53535080Y-57206230D01*
X53264954Y-57094341D01*
X52978191Y-57037300D01*
X52685809Y-57037300D01*
X52399046Y-57094341D01*
X52128920Y-57206230D01*
X51885814Y-57368669D01*
X51679069Y-57575414D01*
X51562000Y-57750619D01*
X51444931Y-57575414D01*
X51238186Y-57368669D01*
X50995080Y-57206230D01*
X50724954Y-57094341D01*
X50438191Y-57037300D01*
X50145809Y-57037300D01*
X49859046Y-57094341D01*
X49588920Y-57206230D01*
X49345814Y-57368669D01*
X49139069Y-57575414D01*
X49136300Y-57579558D01*
X49133531Y-57575414D01*
X48926786Y-57368669D01*
X48683680Y-57206230D01*
X48626394Y-57182501D01*
X48698186Y-57134531D01*
X48904931Y-56927786D01*
X49067370Y-56684680D01*
X49179259Y-56414554D01*
X49236300Y-56127791D01*
X49236300Y-55835409D01*
X49179259Y-55548646D01*
X49067370Y-55278520D01*
X48904931Y-55035414D01*
X48698186Y-54828669D01*
X48522981Y-54711600D01*
X48698186Y-54594531D01*
X48904931Y-54387786D01*
X49067370Y-54144680D01*
X49179259Y-53874554D01*
X49236300Y-53587791D01*
X49236300Y-53295409D01*
X49179259Y-53008646D01*
X49067370Y-52738520D01*
X48904931Y-52495414D01*
X48698186Y-52288669D01*
X48522981Y-52171600D01*
X48698186Y-52054531D01*
X48904931Y-51847786D01*
X49067370Y-51604680D01*
X49179259Y-51334554D01*
X49236300Y-51047791D01*
X49236300Y-50755409D01*
X49179259Y-50468646D01*
X49067370Y-50198520D01*
X48904931Y-49955414D01*
X48698186Y-49748669D01*
X48522981Y-49631600D01*
X48698186Y-49514531D01*
X48904931Y-49307786D01*
X49067370Y-49064680D01*
X49179259Y-48794554D01*
X49236300Y-48507791D01*
X49236300Y-48215409D01*
X49179259Y-47928646D01*
X49067370Y-47658520D01*
X48904931Y-47415414D01*
X48698186Y-47208669D01*
X48522981Y-47091600D01*
X48698186Y-46974531D01*
X48904931Y-46767786D01*
X49067370Y-46524680D01*
X49179259Y-46254554D01*
X49236300Y-45967791D01*
X49236300Y-45675409D01*
X49179259Y-45388646D01*
X49067370Y-45118520D01*
X48904931Y-44875414D01*
X48698186Y-44668669D01*
X48522981Y-44551600D01*
X48698186Y-44434531D01*
X48904931Y-44227786D01*
X49067370Y-43984680D01*
X49179259Y-43714554D01*
X49236300Y-43427791D01*
X49236300Y-43135409D01*
X49179259Y-42848646D01*
X49067370Y-42578520D01*
X48904931Y-42335414D01*
X48698186Y-42128669D01*
X48522981Y-42011600D01*
X48698186Y-41894531D01*
X48904931Y-41687786D01*
X49067370Y-41444680D01*
X49179259Y-41174554D01*
X49236300Y-40887791D01*
X49236300Y-40595409D01*
X49179259Y-40308646D01*
X49067370Y-40038520D01*
X48904931Y-39795414D01*
X48698186Y-39588669D01*
X48509766Y-39462770D01*
X48583982Y-39251371D01*
X47752000Y-38419389D01*
X46920018Y-39251371D01*
X46994234Y-39462770D01*
X46805814Y-39588669D01*
X46599069Y-39795414D01*
X46436630Y-40038520D01*
X46324741Y-40308646D01*
X46267700Y-40595409D01*
X33359840Y-40595409D01*
X33359840Y-38297239D01*
X46263587Y-38297239D01*
X46310845Y-38585776D01*
X46413486Y-38859549D01*
X46461296Y-38948997D01*
X46702229Y-39033582D01*
X47534211Y-38201600D01*
X47969789Y-38201600D01*
X48801771Y-39033582D01*
X49042704Y-38948997D01*
X49163714Y-38682832D01*
X49230472Y-38398174D01*
X49240413Y-38105961D01*
X49193155Y-37817424D01*
X49090514Y-37543651D01*
X49042704Y-37454203D01*
X48801771Y-37369618D01*
X47969789Y-38201600D01*
X47534211Y-38201600D01*
X46702229Y-37369618D01*
X46461296Y-37454203D01*
X46340286Y-37720368D01*
X46273528Y-38005026D01*
X46263587Y-38297239D01*
X33359840Y-38297239D01*
X33359840Y-36711371D01*
X46920018Y-36711371D01*
X46997334Y-36931600D01*
X46920018Y-37151829D01*
X47752000Y-37983811D01*
X48583982Y-37151829D01*
X48506666Y-36931600D01*
X48583982Y-36711371D01*
X47752000Y-35879389D01*
X46920018Y-36711371D01*
X33359840Y-36711371D01*
X33359840Y-35757239D01*
X46263587Y-35757239D01*
X46310845Y-36045776D01*
X46413486Y-36319549D01*
X46461296Y-36408997D01*
X46702229Y-36493582D01*
X47534211Y-35661600D01*
X47969789Y-35661600D01*
X48801771Y-36493582D01*
X49042704Y-36408997D01*
X49163714Y-36142832D01*
X49230472Y-35858174D01*
X49240413Y-35565961D01*
X49193155Y-35277424D01*
X49090514Y-35003651D01*
X49042704Y-34914203D01*
X48801771Y-34829618D01*
X47969789Y-35661600D01*
X47534211Y-35661600D01*
X46702229Y-34829618D01*
X46461296Y-34914203D01*
X46340286Y-35180368D01*
X46273528Y-35465026D01*
X46263587Y-35757239D01*
X33359840Y-35757239D01*
X33359840Y-30101836D01*
X34580800Y-30101836D01*
X34580800Y-30654964D01*
X34688710Y-31197463D01*
X34900382Y-31708487D01*
X35207684Y-32168396D01*
X35598804Y-32559516D01*
X36058713Y-32866818D01*
X36569737Y-33078490D01*
X37112236Y-33186400D01*
X37665364Y-33186400D01*
X38207863Y-33078490D01*
X38718887Y-32866818D01*
X39178796Y-32559516D01*
X39569916Y-32168396D01*
X39877218Y-31708487D01*
X40088890Y-31197463D01*
X40196800Y-30654964D01*
X40196800Y-30101836D01*
X40117924Y-29705300D01*
X46264759Y-29705300D01*
X46264759Y-31457900D01*
X46276498Y-31577089D01*
X46311264Y-31691697D01*
X46367721Y-31797321D01*
X46443699Y-31889901D01*
X46536279Y-31965879D01*
X46641903Y-32022336D01*
X46726488Y-32047995D01*
X46599069Y-32175414D01*
X46436630Y-32418520D01*
X46324741Y-32688646D01*
X46267700Y-32975409D01*
X46267700Y-33267791D01*
X46324741Y-33554554D01*
X46436630Y-33824680D01*
X46599069Y-34067786D01*
X46805814Y-34274531D01*
X46994234Y-34400430D01*
X46920018Y-34611829D01*
X47752000Y-35443811D01*
X48583982Y-34611829D01*
X48509766Y-34400430D01*
X48698186Y-34274531D01*
X48904931Y-34067786D01*
X49067370Y-33824680D01*
X49179259Y-33554554D01*
X49236300Y-33267791D01*
X49236300Y-33217239D01*
X61503587Y-33217239D01*
X61550845Y-33505776D01*
X61653486Y-33779549D01*
X61701296Y-33868997D01*
X61942229Y-33953582D01*
X62774211Y-33121600D01*
X63209789Y-33121600D01*
X64041771Y-33953582D01*
X64282704Y-33868997D01*
X64403714Y-33602832D01*
X64470472Y-33318174D01*
X64480413Y-33025961D01*
X64433155Y-32737424D01*
X64330514Y-32463651D01*
X64282704Y-32374203D01*
X64041771Y-32289618D01*
X63209789Y-33121600D01*
X62774211Y-33121600D01*
X61942229Y-32289618D01*
X61701296Y-32374203D01*
X61580286Y-32640368D01*
X61513528Y-32925026D01*
X61503587Y-33217239D01*
X49236300Y-33217239D01*
X49236300Y-32975409D01*
X49179259Y-32688646D01*
X49067370Y-32418520D01*
X48904931Y-32175414D01*
X48777512Y-32047995D01*
X48862097Y-32022336D01*
X48967721Y-31965879D01*
X49060301Y-31889901D01*
X49136279Y-31797321D01*
X49192736Y-31691697D01*
X49227502Y-31577089D01*
X49239241Y-31457900D01*
X49239241Y-30435409D01*
X61507700Y-30435409D01*
X61507700Y-30727791D01*
X61564741Y-31014554D01*
X61676630Y-31284680D01*
X61839069Y-31527786D01*
X62045814Y-31734531D01*
X62234234Y-31860430D01*
X62160018Y-32071829D01*
X62992000Y-32903811D01*
X63823982Y-32071829D01*
X63749766Y-31860430D01*
X63938186Y-31734531D01*
X64144931Y-31527786D01*
X64307370Y-31284680D01*
X64419259Y-31014554D01*
X64476300Y-30727791D01*
X64476300Y-30435409D01*
X64419259Y-30148646D01*
X64307370Y-29878520D01*
X64144931Y-29635414D01*
X63938186Y-29428669D01*
X63695080Y-29266230D01*
X63424954Y-29154341D01*
X63141816Y-29098021D01*
X69362700Y-29098021D01*
X69362700Y-29296579D01*
X69401437Y-29491323D01*
X69477422Y-29674767D01*
X69587735Y-29839862D01*
X69728138Y-29980265D01*
X69893233Y-30090578D01*
X70076677Y-30166563D01*
X70271421Y-30205300D01*
X70469979Y-30205300D01*
X70664723Y-30166563D01*
X70848167Y-30090578D01*
X70878089Y-30070585D01*
X70903065Y-30058112D01*
X70912032Y-30053541D01*
X70986429Y-30014836D01*
X71045695Y-29984130D01*
X71086005Y-29964598D01*
X71110865Y-29954187D01*
X71127918Y-29948548D01*
X71148273Y-29943742D01*
X71182761Y-29938598D01*
X71239124Y-29934240D01*
X71327376Y-29932300D01*
X88375124Y-29932300D01*
X88463375Y-29934240D01*
X88519738Y-29938598D01*
X88554226Y-29943742D01*
X88574581Y-29948548D01*
X88591634Y-29954187D01*
X88616494Y-29964598D01*
X88656804Y-29984130D01*
X88716070Y-30014836D01*
X88790467Y-30053541D01*
X88799436Y-30058113D01*
X88824414Y-30070586D01*
X88854333Y-30090578D01*
X89037777Y-30166563D01*
X89232521Y-30205300D01*
X89431079Y-30205300D01*
X89625823Y-30166563D01*
X89809267Y-30090578D01*
X89839189Y-30070585D01*
X89864165Y-30058112D01*
X89873132Y-30053541D01*
X89947529Y-30014836D01*
X90006795Y-29984130D01*
X90047105Y-29964598D01*
X90071965Y-29954187D01*
X90089018Y-29948548D01*
X90109373Y-29943742D01*
X90143861Y-29938598D01*
X90200224Y-29934240D01*
X90288476Y-29932300D01*
X107475924Y-29932300D01*
X107564175Y-29934240D01*
X107620538Y-29938598D01*
X107655026Y-29943742D01*
X107675381Y-29948548D01*
X107692434Y-29954187D01*
X107717294Y-29964598D01*
X107757604Y-29984130D01*
X107816870Y-30014836D01*
X107891267Y-30053541D01*
X107900236Y-30058113D01*
X107925214Y-30070586D01*
X107955133Y-30090578D01*
X108138577Y-30166563D01*
X108333321Y-30205300D01*
X108531879Y-30205300D01*
X108726623Y-30166563D01*
X108910067Y-30090578D01*
X108939989Y-30070585D01*
X108964965Y-30058112D01*
X108973932Y-30053541D01*
X109048329Y-30014836D01*
X109107595Y-29984130D01*
X109147905Y-29964598D01*
X109172765Y-29954187D01*
X109189818Y-29948548D01*
X109210173Y-29943742D01*
X109244661Y-29938598D01*
X109301024Y-29934240D01*
X109389276Y-29932300D01*
X126437024Y-29932300D01*
X126525275Y-29934240D01*
X126581638Y-29938598D01*
X126616126Y-29943742D01*
X126636481Y-29948548D01*
X126653534Y-29954187D01*
X126678394Y-29964598D01*
X126718704Y-29984130D01*
X126777970Y-30014836D01*
X126852367Y-30053541D01*
X126861336Y-30058113D01*
X126886314Y-30070586D01*
X126916233Y-30090578D01*
X127099677Y-30166563D01*
X127294421Y-30205300D01*
X127492979Y-30205300D01*
X127687723Y-30166563D01*
X127843987Y-30101836D01*
X148093400Y-30101836D01*
X148093400Y-30654964D01*
X148201310Y-31197463D01*
X148412982Y-31708487D01*
X148720284Y-32168396D01*
X149111404Y-32559516D01*
X149571313Y-32866818D01*
X150082337Y-33078490D01*
X150624836Y-33186400D01*
X151177964Y-33186400D01*
X151720463Y-33078490D01*
X152231487Y-32866818D01*
X152691396Y-32559516D01*
X153082516Y-32168396D01*
X153389818Y-31708487D01*
X153601490Y-31197463D01*
X153709400Y-30654964D01*
X153709400Y-30101836D01*
X153601490Y-29559337D01*
X153389818Y-29048313D01*
X153082516Y-28588404D01*
X152691396Y-28197284D01*
X152231487Y-27889982D01*
X151720463Y-27678310D01*
X151177964Y-27570400D01*
X150624836Y-27570400D01*
X150082337Y-27678310D01*
X149571313Y-27889982D01*
X149111404Y-28197284D01*
X148720284Y-28588404D01*
X148412982Y-29048313D01*
X148201310Y-29559337D01*
X148093400Y-30101836D01*
X127843987Y-30101836D01*
X127871167Y-30090578D01*
X128036262Y-29980265D01*
X128176665Y-29839862D01*
X128286978Y-29674767D01*
X128362963Y-29491323D01*
X128401700Y-29296579D01*
X128401700Y-29098021D01*
X128362963Y-28903277D01*
X128286978Y-28719833D01*
X128176665Y-28554738D01*
X128036262Y-28414335D01*
X127871167Y-28304022D01*
X127687723Y-28228037D01*
X127492979Y-28189300D01*
X127294421Y-28189300D01*
X127099677Y-28228037D01*
X126916233Y-28304022D01*
X126886321Y-28324009D01*
X126861341Y-28336483D01*
X126852367Y-28341058D01*
X126777970Y-28379763D01*
X126718704Y-28410469D01*
X126678394Y-28430001D01*
X126653534Y-28440412D01*
X126636481Y-28446051D01*
X126616126Y-28450857D01*
X126581638Y-28456001D01*
X126525275Y-28460359D01*
X126437016Y-28462300D01*
X109389284Y-28462300D01*
X109301024Y-28460359D01*
X109244661Y-28456001D01*
X109210173Y-28450857D01*
X109189818Y-28446051D01*
X109172765Y-28440412D01*
X109147905Y-28430001D01*
X109107595Y-28410469D01*
X109048329Y-28379763D01*
X108973932Y-28341058D01*
X108964960Y-28336485D01*
X108939987Y-28324014D01*
X108910067Y-28304022D01*
X108726623Y-28228037D01*
X108531879Y-28189300D01*
X108333321Y-28189300D01*
X108138577Y-28228037D01*
X107955133Y-28304022D01*
X107925221Y-28324009D01*
X107900241Y-28336483D01*
X107891267Y-28341058D01*
X107816870Y-28379763D01*
X107757604Y-28410469D01*
X107717294Y-28430001D01*
X107692434Y-28440412D01*
X107675381Y-28446051D01*
X107655026Y-28450857D01*
X107620538Y-28456001D01*
X107564175Y-28460359D01*
X107475916Y-28462300D01*
X90288484Y-28462300D01*
X90200224Y-28460359D01*
X90143861Y-28456001D01*
X90109373Y-28450857D01*
X90089018Y-28446051D01*
X90071965Y-28440412D01*
X90047105Y-28430001D01*
X90006795Y-28410469D01*
X89947529Y-28379763D01*
X89873132Y-28341058D01*
X89864160Y-28336485D01*
X89839187Y-28324014D01*
X89809267Y-28304022D01*
X89625823Y-28228037D01*
X89431079Y-28189300D01*
X89232521Y-28189300D01*
X89037777Y-28228037D01*
X88854333Y-28304022D01*
X88824421Y-28324009D01*
X88799441Y-28336483D01*
X88790467Y-28341058D01*
X88716070Y-28379763D01*
X88656804Y-28410469D01*
X88616494Y-28430001D01*
X88591634Y-28440412D01*
X88574581Y-28446051D01*
X88554226Y-28450857D01*
X88519738Y-28456001D01*
X88463375Y-28460359D01*
X88375116Y-28462300D01*
X71327384Y-28462300D01*
X71239124Y-28460359D01*
X71182761Y-28456001D01*
X71148273Y-28450857D01*
X71127918Y-28446051D01*
X71110865Y-28440412D01*
X71086005Y-28430001D01*
X71045695Y-28410469D01*
X70986429Y-28379763D01*
X70912032Y-28341058D01*
X70903060Y-28336485D01*
X70878087Y-28324014D01*
X70848167Y-28304022D01*
X70664723Y-28228037D01*
X70469979Y-28189300D01*
X70271421Y-28189300D01*
X70076677Y-28228037D01*
X69893233Y-28304022D01*
X69728138Y-28414335D01*
X69587735Y-28554738D01*
X69477422Y-28719833D01*
X69401437Y-28903277D01*
X69362700Y-29098021D01*
X63141816Y-29098021D01*
X63138191Y-29097300D01*
X62845809Y-29097300D01*
X62559046Y-29154341D01*
X62288920Y-29266230D01*
X62045814Y-29428669D01*
X61839069Y-29635414D01*
X61676630Y-29878520D01*
X61564741Y-30148646D01*
X61507700Y-30435409D01*
X49239241Y-30435409D01*
X49239241Y-29705300D01*
X49227502Y-29586111D01*
X49192736Y-29471503D01*
X49136279Y-29365879D01*
X49060301Y-29273299D01*
X48967721Y-29197321D01*
X48862097Y-29140864D01*
X48747489Y-29106098D01*
X48628300Y-29094359D01*
X46875700Y-29094359D01*
X46756511Y-29106098D01*
X46641903Y-29140864D01*
X46536279Y-29197321D01*
X46443699Y-29273299D01*
X46367721Y-29365879D01*
X46311264Y-29471503D01*
X46276498Y-29586111D01*
X46264759Y-29705300D01*
X40117924Y-29705300D01*
X40088890Y-29559337D01*
X39877218Y-29048313D01*
X39569916Y-28588404D01*
X39178796Y-28197284D01*
X38718887Y-27889982D01*
X38207863Y-27678310D01*
X37665364Y-27570400D01*
X37112236Y-27570400D01*
X36569737Y-27678310D01*
X36058713Y-27889982D01*
X35598804Y-28197284D01*
X35207684Y-28588404D01*
X34900382Y-29048313D01*
X34688710Y-29559337D01*
X34580800Y-30101836D01*
X33359840Y-30101836D01*
X33359840Y-26346900D01*
X154920200Y-26346900D01*
X154920201Y-82819760D01*
G04 #@! TA.AperFunction,Conductor*
D18*
G36*
X154920201Y-82819760D02*
G01*
X33359840Y-82819760D01*
X33359840Y-78514236D01*
X34580800Y-78514236D01*
X34580800Y-79067364D01*
X34688710Y-79609863D01*
X34900382Y-80120887D01*
X35207684Y-80580796D01*
X35598804Y-80971916D01*
X36058713Y-81279218D01*
X36569737Y-81490890D01*
X37112236Y-81598800D01*
X37665364Y-81598800D01*
X38207863Y-81490890D01*
X38718887Y-81279218D01*
X39178796Y-80971916D01*
X39569916Y-80580796D01*
X39877218Y-80120887D01*
X40088890Y-79609863D01*
X40196800Y-79067364D01*
X40196800Y-78514236D01*
X148093400Y-78514236D01*
X148093400Y-79067364D01*
X148201310Y-79609863D01*
X148412982Y-80120887D01*
X148720284Y-80580796D01*
X149111404Y-80971916D01*
X149571313Y-81279218D01*
X150082337Y-81490890D01*
X150624836Y-81598800D01*
X151177964Y-81598800D01*
X151720463Y-81490890D01*
X152231487Y-81279218D01*
X152691396Y-80971916D01*
X153082516Y-80580796D01*
X153389818Y-80120887D01*
X153601490Y-79609863D01*
X153709400Y-79067364D01*
X153709400Y-78514236D01*
X153601490Y-77971737D01*
X153389818Y-77460713D01*
X153082516Y-77000804D01*
X152691396Y-76609684D01*
X152231487Y-76302382D01*
X151720463Y-76090710D01*
X151177964Y-75982800D01*
X150624836Y-75982800D01*
X150082337Y-76090710D01*
X149571313Y-76302382D01*
X149111404Y-76609684D01*
X148720284Y-77000804D01*
X148412982Y-77460713D01*
X148201310Y-77971737D01*
X148093400Y-78514236D01*
X40196800Y-78514236D01*
X40088890Y-77971737D01*
X39877218Y-77460713D01*
X39569916Y-77000804D01*
X39178796Y-76609684D01*
X38718887Y-76302382D01*
X38207863Y-76090710D01*
X37665364Y-75982800D01*
X37112236Y-75982800D01*
X36569737Y-76090710D01*
X36058713Y-76302382D01*
X35598804Y-76609684D01*
X35207684Y-77000804D01*
X34900382Y-77460713D01*
X34688710Y-77971737D01*
X34580800Y-78514236D01*
X33359840Y-78514236D01*
X33359840Y-63990237D01*
X72472900Y-63990237D01*
X72472900Y-64282363D01*
X72529890Y-64568875D01*
X72641682Y-64838764D01*
X72803978Y-65081658D01*
X73010542Y-65288222D01*
X73253436Y-65450518D01*
X73523325Y-65562310D01*
X73809837Y-65619300D01*
X74101963Y-65619300D01*
X74388475Y-65562310D01*
X74658364Y-65450518D01*
X74901258Y-65288222D01*
X75107822Y-65081658D01*
X75270118Y-64838764D01*
X75381910Y-64568875D01*
X75438900Y-64282363D01*
X75438900Y-63990237D01*
X75416980Y-63880035D01*
X76434000Y-63880035D01*
X76434000Y-64392565D01*
X76533990Y-64895246D01*
X76730127Y-65368762D01*
X77014873Y-65794914D01*
X77377286Y-66157327D01*
X77803438Y-66442073D01*
X78276954Y-66638210D01*
X78779635Y-66738200D01*
X79292165Y-66738200D01*
X79794846Y-66638210D01*
X80268362Y-66442073D01*
X80694514Y-66157327D01*
X81056927Y-65794914D01*
X81341673Y-65368762D01*
X81537810Y-64895246D01*
X81637800Y-64392565D01*
X81637800Y-63990237D01*
X82632900Y-63990237D01*
X82632900Y-64282363D01*
X82689890Y-64568875D01*
X82801682Y-64838764D01*
X82963978Y-65081658D01*
X83170542Y-65288222D01*
X83413436Y-65450518D01*
X83683325Y-65562310D01*
X83969837Y-65619300D01*
X84261963Y-65619300D01*
X84548475Y-65562310D01*
X84818364Y-65450518D01*
X85061258Y-65288222D01*
X85267822Y-65081658D01*
X85430118Y-64838764D01*
X85541910Y-64568875D01*
X85598900Y-64282363D01*
X85598900Y-63990237D01*
X91522900Y-63990237D01*
X91522900Y-64282363D01*
X91579890Y-64568875D01*
X91691682Y-64838764D01*
X91853978Y-65081658D01*
X92060542Y-65288222D01*
X92303436Y-65450518D01*
X92573325Y-65562310D01*
X92859837Y-65619300D01*
X93151963Y-65619300D01*
X93438475Y-65562310D01*
X93708364Y-65450518D01*
X93951258Y-65288222D01*
X94157822Y-65081658D01*
X94320118Y-64838764D01*
X94431910Y-64568875D01*
X94488900Y-64282363D01*
X94488900Y-63990237D01*
X94466980Y-63880035D01*
X95484000Y-63880035D01*
X95484000Y-64392565D01*
X95583990Y-64895246D01*
X95780127Y-65368762D01*
X96064873Y-65794914D01*
X96427286Y-66157327D01*
X96853438Y-66442073D01*
X97326954Y-66638210D01*
X97829635Y-66738200D01*
X98342165Y-66738200D01*
X98844846Y-66638210D01*
X99318362Y-66442073D01*
X99744514Y-66157327D01*
X100106927Y-65794914D01*
X100391673Y-65368762D01*
X100587810Y-64895246D01*
X100687800Y-64392565D01*
X100687800Y-63990237D01*
X101682900Y-63990237D01*
X101682900Y-64282363D01*
X101739890Y-64568875D01*
X101851682Y-64838764D01*
X102013978Y-65081658D01*
X102220542Y-65288222D01*
X102463436Y-65450518D01*
X102733325Y-65562310D01*
X103019837Y-65619300D01*
X103311963Y-65619300D01*
X103598475Y-65562310D01*
X103868364Y-65450518D01*
X104111258Y-65288222D01*
X104317822Y-65081658D01*
X104480118Y-64838764D01*
X104591910Y-64568875D01*
X104648900Y-64282363D01*
X104648900Y-63990237D01*
X110572900Y-63990237D01*
X110572900Y-64282363D01*
X110629890Y-64568875D01*
X110741682Y-64838764D01*
X110903978Y-65081658D01*
X111110542Y-65288222D01*
X111353436Y-65450518D01*
X111623325Y-65562310D01*
X111909837Y-65619300D01*
X112201963Y-65619300D01*
X112488475Y-65562310D01*
X112758364Y-65450518D01*
X113001258Y-65288222D01*
X113207822Y-65081658D01*
X113370118Y-64838764D01*
X113481910Y-64568875D01*
X113538900Y-64282363D01*
X113538900Y-63990237D01*
X113516980Y-63880035D01*
X114534000Y-63880035D01*
X114534000Y-64392565D01*
X114633990Y-64895246D01*
X114830127Y-65368762D01*
X115114873Y-65794914D01*
X115477286Y-66157327D01*
X115903438Y-66442073D01*
X116376954Y-66638210D01*
X116879635Y-66738200D01*
X117392165Y-66738200D01*
X117894846Y-66638210D01*
X118368362Y-66442073D01*
X118794514Y-66157327D01*
X119156927Y-65794914D01*
X119441673Y-65368762D01*
X119637810Y-64895246D01*
X119737800Y-64392565D01*
X119737800Y-63990237D01*
X120732900Y-63990237D01*
X120732900Y-64282363D01*
X120789890Y-64568875D01*
X120901682Y-64838764D01*
X121063978Y-65081658D01*
X121270542Y-65288222D01*
X121513436Y-65450518D01*
X121783325Y-65562310D01*
X122069837Y-65619300D01*
X122361963Y-65619300D01*
X122648475Y-65562310D01*
X122918364Y-65450518D01*
X123161258Y-65288222D01*
X123367822Y-65081658D01*
X123530118Y-64838764D01*
X123641910Y-64568875D01*
X123698900Y-64282363D01*
X123698900Y-63990237D01*
X129622900Y-63990237D01*
X129622900Y-64282363D01*
X129679890Y-64568875D01*
X129791682Y-64838764D01*
X129953978Y-65081658D01*
X130160542Y-65288222D01*
X130403436Y-65450518D01*
X130673325Y-65562310D01*
X130959837Y-65619300D01*
X131251963Y-65619300D01*
X131538475Y-65562310D01*
X131808364Y-65450518D01*
X132051258Y-65288222D01*
X132257822Y-65081658D01*
X132420118Y-64838764D01*
X132531910Y-64568875D01*
X132588900Y-64282363D01*
X132588900Y-63990237D01*
X132566980Y-63880035D01*
X133584000Y-63880035D01*
X133584000Y-64392565D01*
X133683990Y-64895246D01*
X133880127Y-65368762D01*
X134164873Y-65794914D01*
X134527286Y-66157327D01*
X134953438Y-66442073D01*
X135426954Y-66638210D01*
X135929635Y-66738200D01*
X136442165Y-66738200D01*
X136944846Y-66638210D01*
X137418362Y-66442073D01*
X137844514Y-66157327D01*
X138206927Y-65794914D01*
X138491673Y-65368762D01*
X138687810Y-64895246D01*
X138787800Y-64392565D01*
X138787800Y-63990237D01*
X139782900Y-63990237D01*
X139782900Y-64282363D01*
X139839890Y-64568875D01*
X139951682Y-64838764D01*
X140113978Y-65081658D01*
X140320542Y-65288222D01*
X140563436Y-65450518D01*
X140833325Y-65562310D01*
X141119837Y-65619300D01*
X141411963Y-65619300D01*
X141698475Y-65562310D01*
X141968364Y-65450518D01*
X142211258Y-65288222D01*
X142417822Y-65081658D01*
X142580118Y-64838764D01*
X142691910Y-64568875D01*
X142748900Y-64282363D01*
X142748900Y-63990237D01*
X142691910Y-63703725D01*
X142580118Y-63433836D01*
X142417822Y-63190942D01*
X142211258Y-62984378D01*
X141968364Y-62822082D01*
X141698475Y-62710290D01*
X141411963Y-62653300D01*
X141119837Y-62653300D01*
X140833325Y-62710290D01*
X140563436Y-62822082D01*
X140320542Y-62984378D01*
X140113978Y-63190942D01*
X139951682Y-63433836D01*
X139839890Y-63703725D01*
X139782900Y-63990237D01*
X138787800Y-63990237D01*
X138787800Y-63880035D01*
X138687810Y-63377354D01*
X138491673Y-62903838D01*
X138206927Y-62477686D01*
X137844514Y-62115273D01*
X137418362Y-61830527D01*
X136944846Y-61634390D01*
X136442165Y-61534400D01*
X135929635Y-61534400D01*
X135426954Y-61634390D01*
X134953438Y-61830527D01*
X134527286Y-62115273D01*
X134164873Y-62477686D01*
X133880127Y-62903838D01*
X133683990Y-63377354D01*
X133584000Y-63880035D01*
X132566980Y-63880035D01*
X132531910Y-63703725D01*
X132420118Y-63433836D01*
X132350270Y-63329300D01*
X132546586Y-63329300D01*
X132881397Y-63262702D01*
X133196783Y-63132064D01*
X133480623Y-62942409D01*
X133722009Y-62701023D01*
X133911664Y-62417183D01*
X134042302Y-62101797D01*
X134108900Y-61766986D01*
X134108900Y-61425614D01*
X134042302Y-61090803D01*
X133911664Y-60775417D01*
X133722009Y-60491577D01*
X133480623Y-60250191D01*
X133196783Y-60060536D01*
X132881397Y-59929898D01*
X132546586Y-59863300D01*
X132205214Y-59863300D01*
X131870403Y-59929898D01*
X131555017Y-60060536D01*
X131271177Y-60250191D01*
X131029791Y-60491577D01*
X130840136Y-60775417D01*
X130709498Y-61090803D01*
X130642900Y-61425614D01*
X130642900Y-61766986D01*
X130709498Y-62101797D01*
X130840136Y-62417183D01*
X130997904Y-62653300D01*
X130959837Y-62653300D01*
X130673325Y-62710290D01*
X130403436Y-62822082D01*
X130160542Y-62984378D01*
X129953978Y-63190942D01*
X129791682Y-63433836D01*
X129679890Y-63703725D01*
X129622900Y-63990237D01*
X123698900Y-63990237D01*
X123641910Y-63703725D01*
X123530118Y-63433836D01*
X123367822Y-63190942D01*
X123161258Y-62984378D01*
X122918364Y-62822082D01*
X122648475Y-62710290D01*
X122361963Y-62653300D01*
X122069837Y-62653300D01*
X121783325Y-62710290D01*
X121513436Y-62822082D01*
X121270542Y-62984378D01*
X121063978Y-63190942D01*
X120901682Y-63433836D01*
X120789890Y-63703725D01*
X120732900Y-63990237D01*
X119737800Y-63990237D01*
X119737800Y-63880035D01*
X119637810Y-63377354D01*
X119441673Y-62903838D01*
X119156927Y-62477686D01*
X118794514Y-62115273D01*
X118368362Y-61830527D01*
X117894846Y-61634390D01*
X117392165Y-61534400D01*
X116879635Y-61534400D01*
X116376954Y-61634390D01*
X115903438Y-61830527D01*
X115477286Y-62115273D01*
X115114873Y-62477686D01*
X114830127Y-62903838D01*
X114633990Y-63377354D01*
X114534000Y-63880035D01*
X113516980Y-63880035D01*
X113481910Y-63703725D01*
X113370118Y-63433836D01*
X113300270Y-63329300D01*
X113496586Y-63329300D01*
X113831397Y-63262702D01*
X114146783Y-63132064D01*
X114430623Y-62942409D01*
X114672009Y-62701023D01*
X114861664Y-62417183D01*
X114992302Y-62101797D01*
X115058900Y-61766986D01*
X115058900Y-61425614D01*
X114992302Y-61090803D01*
X114861664Y-60775417D01*
X114672009Y-60491577D01*
X114430623Y-60250191D01*
X114146783Y-60060536D01*
X113831397Y-59929898D01*
X113496586Y-59863300D01*
X113155214Y-59863300D01*
X112820403Y-59929898D01*
X112505017Y-60060536D01*
X112221177Y-60250191D01*
X111979791Y-60491577D01*
X111790136Y-60775417D01*
X111659498Y-61090803D01*
X111592900Y-61425614D01*
X111592900Y-61766986D01*
X111659498Y-62101797D01*
X111790136Y-62417183D01*
X111947904Y-62653300D01*
X111909837Y-62653300D01*
X111623325Y-62710290D01*
X111353436Y-62822082D01*
X111110542Y-62984378D01*
X110903978Y-63190942D01*
X110741682Y-63433836D01*
X110629890Y-63703725D01*
X110572900Y-63990237D01*
X104648900Y-63990237D01*
X104591910Y-63703725D01*
X104480118Y-63433836D01*
X104317822Y-63190942D01*
X104111258Y-62984378D01*
X103868364Y-62822082D01*
X103598475Y-62710290D01*
X103311963Y-62653300D01*
X103019837Y-62653300D01*
X102733325Y-62710290D01*
X102463436Y-62822082D01*
X102220542Y-62984378D01*
X102013978Y-63190942D01*
X101851682Y-63433836D01*
X101739890Y-63703725D01*
X101682900Y-63990237D01*
X100687800Y-63990237D01*
X100687800Y-63880035D01*
X100587810Y-63377354D01*
X100391673Y-62903838D01*
X100106927Y-62477686D01*
X99744514Y-62115273D01*
X99318362Y-61830527D01*
X98844846Y-61634390D01*
X98342165Y-61534400D01*
X97829635Y-61534400D01*
X97326954Y-61634390D01*
X96853438Y-61830527D01*
X96427286Y-62115273D01*
X96064873Y-62477686D01*
X95780127Y-62903838D01*
X95583990Y-63377354D01*
X95484000Y-63880035D01*
X94466980Y-63880035D01*
X94431910Y-63703725D01*
X94320118Y-63433836D01*
X94250270Y-63329300D01*
X94446586Y-63329300D01*
X94781397Y-63262702D01*
X95096783Y-63132064D01*
X95380623Y-62942409D01*
X95622009Y-62701023D01*
X95811664Y-62417183D01*
X95942302Y-62101797D01*
X96008900Y-61766986D01*
X96008900Y-61425614D01*
X95942302Y-61090803D01*
X95811664Y-60775417D01*
X95622009Y-60491577D01*
X95380623Y-60250191D01*
X95096783Y-60060536D01*
X94781397Y-59929898D01*
X94446586Y-59863300D01*
X94105214Y-59863300D01*
X93770403Y-59929898D01*
X93455017Y-60060536D01*
X93171177Y-60250191D01*
X92929791Y-60491577D01*
X92740136Y-60775417D01*
X92609498Y-61090803D01*
X92542900Y-61425614D01*
X92542900Y-61766986D01*
X92609498Y-62101797D01*
X92740136Y-62417183D01*
X92897904Y-62653300D01*
X92859837Y-62653300D01*
X92573325Y-62710290D01*
X92303436Y-62822082D01*
X92060542Y-62984378D01*
X91853978Y-63190942D01*
X91691682Y-63433836D01*
X91579890Y-63703725D01*
X91522900Y-63990237D01*
X85598900Y-63990237D01*
X85541910Y-63703725D01*
X85430118Y-63433836D01*
X85267822Y-63190942D01*
X85061258Y-62984378D01*
X84818364Y-62822082D01*
X84548475Y-62710290D01*
X84261963Y-62653300D01*
X83969837Y-62653300D01*
X83683325Y-62710290D01*
X83413436Y-62822082D01*
X83170542Y-62984378D01*
X82963978Y-63190942D01*
X82801682Y-63433836D01*
X82689890Y-63703725D01*
X82632900Y-63990237D01*
X81637800Y-63990237D01*
X81637800Y-63880035D01*
X81537810Y-63377354D01*
X81341673Y-62903838D01*
X81056927Y-62477686D01*
X80694514Y-62115273D01*
X80268362Y-61830527D01*
X79794846Y-61634390D01*
X79292165Y-61534400D01*
X78779635Y-61534400D01*
X78276954Y-61634390D01*
X77803438Y-61830527D01*
X77377286Y-62115273D01*
X77014873Y-62477686D01*
X76730127Y-62903838D01*
X76533990Y-63377354D01*
X76434000Y-63880035D01*
X75416980Y-63880035D01*
X75381910Y-63703725D01*
X75270118Y-63433836D01*
X75200270Y-63329300D01*
X75396586Y-63329300D01*
X75731397Y-63262702D01*
X76046783Y-63132064D01*
X76330623Y-62942409D01*
X76572009Y-62701023D01*
X76761664Y-62417183D01*
X76892302Y-62101797D01*
X76958900Y-61766986D01*
X76958900Y-61425614D01*
X76892302Y-61090803D01*
X76761664Y-60775417D01*
X76572009Y-60491577D01*
X76330623Y-60250191D01*
X76046783Y-60060536D01*
X75731397Y-59929898D01*
X75396586Y-59863300D01*
X75055214Y-59863300D01*
X74720403Y-59929898D01*
X74405017Y-60060536D01*
X74121177Y-60250191D01*
X73879791Y-60491577D01*
X73690136Y-60775417D01*
X73559498Y-61090803D01*
X73492900Y-61425614D01*
X73492900Y-61766986D01*
X73559498Y-62101797D01*
X73690136Y-62417183D01*
X73847904Y-62653300D01*
X73809837Y-62653300D01*
X73523325Y-62710290D01*
X73253436Y-62822082D01*
X73010542Y-62984378D01*
X72803978Y-63190942D01*
X72641682Y-63433836D01*
X72529890Y-63703725D01*
X72472900Y-63990237D01*
X33359840Y-63990237D01*
X33359840Y-40595409D01*
X46267700Y-40595409D01*
X46267700Y-40887791D01*
X46324741Y-41174554D01*
X46436630Y-41444680D01*
X46599069Y-41687786D01*
X46805814Y-41894531D01*
X46981019Y-42011600D01*
X46805814Y-42128669D01*
X46599069Y-42335414D01*
X46436630Y-42578520D01*
X46324741Y-42848646D01*
X46267700Y-43135409D01*
X46267700Y-43427791D01*
X46324741Y-43714554D01*
X46436630Y-43984680D01*
X46599069Y-44227786D01*
X46805814Y-44434531D01*
X46981019Y-44551600D01*
X46805814Y-44668669D01*
X46599069Y-44875414D01*
X46436630Y-45118520D01*
X46324741Y-45388646D01*
X46267700Y-45675409D01*
X46267700Y-45967791D01*
X46324741Y-46254554D01*
X46436630Y-46524680D01*
X46599069Y-46767786D01*
X46805814Y-46974531D01*
X46981019Y-47091600D01*
X46805814Y-47208669D01*
X46599069Y-47415414D01*
X46436630Y-47658520D01*
X46324741Y-47928646D01*
X46267700Y-48215409D01*
X46267700Y-48507791D01*
X46324741Y-48794554D01*
X46436630Y-49064680D01*
X46599069Y-49307786D01*
X46805814Y-49514531D01*
X46981019Y-49631600D01*
X46805814Y-49748669D01*
X46599069Y-49955414D01*
X46436630Y-50198520D01*
X46324741Y-50468646D01*
X46267700Y-50755409D01*
X46267700Y-51047791D01*
X46324741Y-51334554D01*
X46436630Y-51604680D01*
X46599069Y-51847786D01*
X46805814Y-52054531D01*
X46981019Y-52171600D01*
X46805814Y-52288669D01*
X46599069Y-52495414D01*
X46436630Y-52738520D01*
X46324741Y-53008646D01*
X46267700Y-53295409D01*
X46267700Y-53587791D01*
X46324741Y-53874554D01*
X46436630Y-54144680D01*
X46599069Y-54387786D01*
X46805814Y-54594531D01*
X46981019Y-54711600D01*
X46805814Y-54828669D01*
X46599069Y-55035414D01*
X46436630Y-55278520D01*
X46324741Y-55548646D01*
X46267700Y-55835409D01*
X46267700Y-56127791D01*
X46324741Y-56414554D01*
X46436630Y-56684680D01*
X46599069Y-56927786D01*
X46805814Y-57134531D01*
X47048920Y-57296970D01*
X47106206Y-57320699D01*
X47034414Y-57368669D01*
X46827669Y-57575414D01*
X46665230Y-57818520D01*
X46553341Y-58088646D01*
X46496300Y-58375409D01*
X46496300Y-58667791D01*
X46553341Y-58954554D01*
X46665230Y-59224680D01*
X46827669Y-59467786D01*
X47034414Y-59674531D01*
X47277520Y-59836970D01*
X47547646Y-59948859D01*
X47834409Y-60005900D01*
X48126791Y-60005900D01*
X48413554Y-59948859D01*
X48683680Y-59836970D01*
X48926786Y-59674531D01*
X49133531Y-59467786D01*
X49136300Y-59463642D01*
X49139069Y-59467786D01*
X49345814Y-59674531D01*
X49588920Y-59836970D01*
X49859046Y-59948859D01*
X50145809Y-60005900D01*
X50438191Y-60005900D01*
X50724954Y-59948859D01*
X50995080Y-59836970D01*
X51238186Y-59674531D01*
X51444931Y-59467786D01*
X51562000Y-59292581D01*
X51679069Y-59467786D01*
X51885814Y-59674531D01*
X52128920Y-59836970D01*
X52399046Y-59948859D01*
X52685809Y-60005900D01*
X52978191Y-60005900D01*
X53264954Y-59948859D01*
X53535080Y-59836970D01*
X53778186Y-59674531D01*
X53984931Y-59467786D01*
X54102000Y-59292581D01*
X54219069Y-59467786D01*
X54425814Y-59674531D01*
X54668920Y-59836970D01*
X54939046Y-59948859D01*
X55225809Y-60005900D01*
X55518191Y-60005900D01*
X55804954Y-59948859D01*
X56075080Y-59836970D01*
X56318186Y-59674531D01*
X56524931Y-59467786D01*
X56642000Y-59292581D01*
X56759069Y-59467786D01*
X56965814Y-59674531D01*
X57208920Y-59836970D01*
X57479046Y-59948859D01*
X57765809Y-60005900D01*
X58058191Y-60005900D01*
X58344954Y-59948859D01*
X58615080Y-59836970D01*
X58858186Y-59674531D01*
X59064931Y-59467786D01*
X59182000Y-59292581D01*
X59299069Y-59467786D01*
X59505814Y-59674531D01*
X59748920Y-59836970D01*
X60019046Y-59948859D01*
X60305809Y-60005900D01*
X60598191Y-60005900D01*
X60884954Y-59948859D01*
X61155080Y-59836970D01*
X61398186Y-59674531D01*
X61604931Y-59467786D01*
X61722000Y-59292581D01*
X61839069Y-59467786D01*
X62045814Y-59674531D01*
X62288920Y-59836970D01*
X62559046Y-59948859D01*
X62845809Y-60005900D01*
X63138191Y-60005900D01*
X63424954Y-59948859D01*
X63695080Y-59836970D01*
X63938186Y-59674531D01*
X64144931Y-59467786D01*
X64307370Y-59224680D01*
X64419259Y-58954554D01*
X64432972Y-58885614D01*
X79842900Y-58885614D01*
X79842900Y-59226986D01*
X79909498Y-59561797D01*
X80040136Y-59877183D01*
X80229791Y-60161023D01*
X80471177Y-60402409D01*
X80755017Y-60592064D01*
X81070403Y-60722702D01*
X81405214Y-60789300D01*
X81746586Y-60789300D01*
X82081397Y-60722702D01*
X82396783Y-60592064D01*
X82680623Y-60402409D01*
X82922009Y-60161023D01*
X83111664Y-59877183D01*
X83242302Y-59561797D01*
X83308900Y-59226986D01*
X83308900Y-58885614D01*
X98892900Y-58885614D01*
X98892900Y-59226986D01*
X98959498Y-59561797D01*
X99090136Y-59877183D01*
X99279791Y-60161023D01*
X99521177Y-60402409D01*
X99805017Y-60592064D01*
X100120403Y-60722702D01*
X100455214Y-60789300D01*
X100796586Y-60789300D01*
X101131397Y-60722702D01*
X101446783Y-60592064D01*
X101730623Y-60402409D01*
X101972009Y-60161023D01*
X102161664Y-59877183D01*
X102292302Y-59561797D01*
X102358900Y-59226986D01*
X102358900Y-58885614D01*
X117942900Y-58885614D01*
X117942900Y-59226986D01*
X118009498Y-59561797D01*
X118140136Y-59877183D01*
X118329791Y-60161023D01*
X118571177Y-60402409D01*
X118855017Y-60592064D01*
X119170403Y-60722702D01*
X119505214Y-60789300D01*
X119846586Y-60789300D01*
X120181397Y-60722702D01*
X120496783Y-60592064D01*
X120780623Y-60402409D01*
X121022009Y-60161023D01*
X121211664Y-59877183D01*
X121342302Y-59561797D01*
X121408900Y-59226986D01*
X121408900Y-58885614D01*
X136992900Y-58885614D01*
X136992900Y-59226986D01*
X137059498Y-59561797D01*
X137190136Y-59877183D01*
X137379791Y-60161023D01*
X137621177Y-60402409D01*
X137905017Y-60592064D01*
X138220403Y-60722702D01*
X138555214Y-60789300D01*
X138896586Y-60789300D01*
X139231397Y-60722702D01*
X139546783Y-60592064D01*
X139830623Y-60402409D01*
X140072009Y-60161023D01*
X140261664Y-59877183D01*
X140392302Y-59561797D01*
X140458900Y-59226986D01*
X140458900Y-58885614D01*
X140392302Y-58550803D01*
X140261664Y-58235417D01*
X140072009Y-57951577D01*
X139830623Y-57710191D01*
X139546783Y-57520536D01*
X139231397Y-57389898D01*
X138896586Y-57323300D01*
X138555214Y-57323300D01*
X138220403Y-57389898D01*
X137905017Y-57520536D01*
X137621177Y-57710191D01*
X137379791Y-57951577D01*
X137190136Y-58235417D01*
X137059498Y-58550803D01*
X136992900Y-58885614D01*
X121408900Y-58885614D01*
X121342302Y-58550803D01*
X121211664Y-58235417D01*
X121022009Y-57951577D01*
X120780623Y-57710191D01*
X120496783Y-57520536D01*
X120181397Y-57389898D01*
X119846586Y-57323300D01*
X119505214Y-57323300D01*
X119170403Y-57389898D01*
X118855017Y-57520536D01*
X118571177Y-57710191D01*
X118329791Y-57951577D01*
X118140136Y-58235417D01*
X118009498Y-58550803D01*
X117942900Y-58885614D01*
X102358900Y-58885614D01*
X102292302Y-58550803D01*
X102161664Y-58235417D01*
X101972009Y-57951577D01*
X101730623Y-57710191D01*
X101446783Y-57520536D01*
X101131397Y-57389898D01*
X100796586Y-57323300D01*
X100455214Y-57323300D01*
X100120403Y-57389898D01*
X99805017Y-57520536D01*
X99521177Y-57710191D01*
X99279791Y-57951577D01*
X99090136Y-58235417D01*
X98959498Y-58550803D01*
X98892900Y-58885614D01*
X83308900Y-58885614D01*
X83242302Y-58550803D01*
X83111664Y-58235417D01*
X82922009Y-57951577D01*
X82680623Y-57710191D01*
X82396783Y-57520536D01*
X82081397Y-57389898D01*
X81746586Y-57323300D01*
X81405214Y-57323300D01*
X81070403Y-57389898D01*
X80755017Y-57520536D01*
X80471177Y-57710191D01*
X80229791Y-57951577D01*
X80040136Y-58235417D01*
X79909498Y-58550803D01*
X79842900Y-58885614D01*
X64432972Y-58885614D01*
X64476300Y-58667791D01*
X64476300Y-58375409D01*
X64419259Y-58088646D01*
X64307370Y-57818520D01*
X64144931Y-57575414D01*
X63938186Y-57368669D01*
X63762981Y-57251600D01*
X63938186Y-57134531D01*
X64144931Y-56927786D01*
X64307370Y-56684680D01*
X64419259Y-56414554D01*
X64476300Y-56127791D01*
X64476300Y-55835409D01*
X64419259Y-55548646D01*
X64307370Y-55278520D01*
X64144931Y-55035414D01*
X63938186Y-54828669D01*
X63762981Y-54711600D01*
X63938186Y-54594531D01*
X64144931Y-54387786D01*
X64307370Y-54144680D01*
X64419259Y-53874554D01*
X64476300Y-53587791D01*
X64476300Y-53295409D01*
X64419259Y-53008646D01*
X64307370Y-52738520D01*
X64144931Y-52495414D01*
X63938186Y-52288669D01*
X63762981Y-52171600D01*
X63938186Y-52054531D01*
X64144931Y-51847786D01*
X64307370Y-51604680D01*
X64419259Y-51334554D01*
X64476300Y-51047791D01*
X64476300Y-50755409D01*
X64419259Y-50468646D01*
X64307370Y-50198520D01*
X64144931Y-49955414D01*
X63938186Y-49748669D01*
X63762981Y-49631600D01*
X63938186Y-49514531D01*
X64144931Y-49307786D01*
X64307370Y-49064680D01*
X64419259Y-48794554D01*
X64476300Y-48507791D01*
X64476300Y-48215409D01*
X64419259Y-47928646D01*
X64307370Y-47658520D01*
X64144931Y-47415414D01*
X63938186Y-47208669D01*
X63762981Y-47091600D01*
X63938186Y-46974531D01*
X64144931Y-46767786D01*
X64307370Y-46524680D01*
X64419259Y-46254554D01*
X64476300Y-45967791D01*
X64476300Y-45675409D01*
X64419259Y-45388646D01*
X64307370Y-45118520D01*
X64188245Y-44940237D01*
X72472900Y-44940237D01*
X72472900Y-45232363D01*
X72529890Y-45518875D01*
X72641682Y-45788764D01*
X72803978Y-46031658D01*
X73010542Y-46238222D01*
X73253436Y-46400518D01*
X73523325Y-46512310D01*
X73809837Y-46569300D01*
X74101963Y-46569300D01*
X74388475Y-46512310D01*
X74658364Y-46400518D01*
X74901258Y-46238222D01*
X75107822Y-46031658D01*
X75270118Y-45788764D01*
X75381910Y-45518875D01*
X75438900Y-45232363D01*
X75438900Y-44940237D01*
X75416980Y-44830035D01*
X76434000Y-44830035D01*
X76434000Y-45342565D01*
X76533990Y-45845246D01*
X76730127Y-46318762D01*
X77014873Y-46744914D01*
X77377286Y-47107327D01*
X77803438Y-47392073D01*
X78276954Y-47588210D01*
X78779635Y-47688200D01*
X79292165Y-47688200D01*
X79794846Y-47588210D01*
X80268362Y-47392073D01*
X80694514Y-47107327D01*
X81056927Y-46744914D01*
X81341673Y-46318762D01*
X81537810Y-45845246D01*
X81637800Y-45342565D01*
X81637800Y-44940237D01*
X82632900Y-44940237D01*
X82632900Y-45232363D01*
X82689890Y-45518875D01*
X82801682Y-45788764D01*
X82963978Y-46031658D01*
X83170542Y-46238222D01*
X83413436Y-46400518D01*
X83683325Y-46512310D01*
X83969837Y-46569300D01*
X84261963Y-46569300D01*
X84548475Y-46512310D01*
X84818364Y-46400518D01*
X85061258Y-46238222D01*
X85267822Y-46031658D01*
X85430118Y-45788764D01*
X85541910Y-45518875D01*
X85598900Y-45232363D01*
X85598900Y-44940237D01*
X91522900Y-44940237D01*
X91522900Y-45232363D01*
X91579890Y-45518875D01*
X91691682Y-45788764D01*
X91853978Y-46031658D01*
X92060542Y-46238222D01*
X92303436Y-46400518D01*
X92573325Y-46512310D01*
X92859837Y-46569300D01*
X93151963Y-46569300D01*
X93438475Y-46512310D01*
X93708364Y-46400518D01*
X93951258Y-46238222D01*
X94157822Y-46031658D01*
X94320118Y-45788764D01*
X94431910Y-45518875D01*
X94488900Y-45232363D01*
X94488900Y-44940237D01*
X94466980Y-44830035D01*
X95484000Y-44830035D01*
X95484000Y-45342565D01*
X95583990Y-45845246D01*
X95780127Y-46318762D01*
X96064873Y-46744914D01*
X96427286Y-47107327D01*
X96853438Y-47392073D01*
X97326954Y-47588210D01*
X97829635Y-47688200D01*
X98342165Y-47688200D01*
X98844846Y-47588210D01*
X99318362Y-47392073D01*
X99744514Y-47107327D01*
X100106927Y-46744914D01*
X100391673Y-46318762D01*
X100587810Y-45845246D01*
X100687800Y-45342565D01*
X100687800Y-44940237D01*
X101682900Y-44940237D01*
X101682900Y-45232363D01*
X101739890Y-45518875D01*
X101851682Y-45788764D01*
X102013978Y-46031658D01*
X102220542Y-46238222D01*
X102463436Y-46400518D01*
X102733325Y-46512310D01*
X103019837Y-46569300D01*
X103311963Y-46569300D01*
X103598475Y-46512310D01*
X103868364Y-46400518D01*
X104111258Y-46238222D01*
X104317822Y-46031658D01*
X104480118Y-45788764D01*
X104591910Y-45518875D01*
X104648900Y-45232363D01*
X104648900Y-44940237D01*
X110572900Y-44940237D01*
X110572900Y-45232363D01*
X110629890Y-45518875D01*
X110741682Y-45788764D01*
X110903978Y-46031658D01*
X111110542Y-46238222D01*
X111353436Y-46400518D01*
X111623325Y-46512310D01*
X111909837Y-46569300D01*
X112201963Y-46569300D01*
X112488475Y-46512310D01*
X112758364Y-46400518D01*
X113001258Y-46238222D01*
X113207822Y-46031658D01*
X113370118Y-45788764D01*
X113481910Y-45518875D01*
X113538900Y-45232363D01*
X113538900Y-44940237D01*
X113516980Y-44830035D01*
X114534000Y-44830035D01*
X114534000Y-45342565D01*
X114633990Y-45845246D01*
X114830127Y-46318762D01*
X115114873Y-46744914D01*
X115477286Y-47107327D01*
X115903438Y-47392073D01*
X116376954Y-47588210D01*
X116879635Y-47688200D01*
X117392165Y-47688200D01*
X117894846Y-47588210D01*
X118368362Y-47392073D01*
X118794514Y-47107327D01*
X119156927Y-46744914D01*
X119441673Y-46318762D01*
X119637810Y-45845246D01*
X119737800Y-45342565D01*
X119737800Y-44940237D01*
X120732900Y-44940237D01*
X120732900Y-45232363D01*
X120789890Y-45518875D01*
X120901682Y-45788764D01*
X121063978Y-46031658D01*
X121270542Y-46238222D01*
X121513436Y-46400518D01*
X121783325Y-46512310D01*
X122069837Y-46569300D01*
X122361963Y-46569300D01*
X122648475Y-46512310D01*
X122918364Y-46400518D01*
X123161258Y-46238222D01*
X123367822Y-46031658D01*
X123530118Y-45788764D01*
X123641910Y-45518875D01*
X123698900Y-45232363D01*
X123698900Y-44940237D01*
X129622900Y-44940237D01*
X129622900Y-45232363D01*
X129679890Y-45518875D01*
X129791682Y-45788764D01*
X129953978Y-46031658D01*
X130160542Y-46238222D01*
X130403436Y-46400518D01*
X130673325Y-46512310D01*
X130959837Y-46569300D01*
X131251963Y-46569300D01*
X131538475Y-46512310D01*
X131808364Y-46400518D01*
X132051258Y-46238222D01*
X132257822Y-46031658D01*
X132420118Y-45788764D01*
X132531910Y-45518875D01*
X132588900Y-45232363D01*
X132588900Y-44940237D01*
X132566980Y-44830035D01*
X133584000Y-44830035D01*
X133584000Y-45342565D01*
X133683990Y-45845246D01*
X133880127Y-46318762D01*
X134164873Y-46744914D01*
X134527286Y-47107327D01*
X134953438Y-47392073D01*
X135426954Y-47588210D01*
X135929635Y-47688200D01*
X136442165Y-47688200D01*
X136944846Y-47588210D01*
X137418362Y-47392073D01*
X137844514Y-47107327D01*
X138206927Y-46744914D01*
X138491673Y-46318762D01*
X138687810Y-45845246D01*
X138787800Y-45342565D01*
X138787800Y-44940237D01*
X139782900Y-44940237D01*
X139782900Y-45232363D01*
X139839890Y-45518875D01*
X139951682Y-45788764D01*
X140113978Y-46031658D01*
X140320542Y-46238222D01*
X140563436Y-46400518D01*
X140833325Y-46512310D01*
X141119837Y-46569300D01*
X141411963Y-46569300D01*
X141698475Y-46512310D01*
X141968364Y-46400518D01*
X142211258Y-46238222D01*
X142417822Y-46031658D01*
X142580118Y-45788764D01*
X142691910Y-45518875D01*
X142748900Y-45232363D01*
X142748900Y-44940237D01*
X142691910Y-44653725D01*
X142580118Y-44383836D01*
X142417822Y-44140942D01*
X142211258Y-43934378D01*
X141968364Y-43772082D01*
X141698475Y-43660290D01*
X141411963Y-43603300D01*
X141119837Y-43603300D01*
X140833325Y-43660290D01*
X140563436Y-43772082D01*
X140320542Y-43934378D01*
X140113978Y-44140942D01*
X139951682Y-44383836D01*
X139839890Y-44653725D01*
X139782900Y-44940237D01*
X138787800Y-44940237D01*
X138787800Y-44830035D01*
X138687810Y-44327354D01*
X138491673Y-43853838D01*
X138206927Y-43427686D01*
X137844514Y-43065273D01*
X137418362Y-42780527D01*
X136944846Y-42584390D01*
X136442165Y-42484400D01*
X135929635Y-42484400D01*
X135426954Y-42584390D01*
X134953438Y-42780527D01*
X134527286Y-43065273D01*
X134164873Y-43427686D01*
X133880127Y-43853838D01*
X133683990Y-44327354D01*
X133584000Y-44830035D01*
X132566980Y-44830035D01*
X132531910Y-44653725D01*
X132420118Y-44383836D01*
X132350270Y-44279300D01*
X132546586Y-44279300D01*
X132881397Y-44212702D01*
X133196783Y-44082064D01*
X133480623Y-43892409D01*
X133722009Y-43651023D01*
X133911664Y-43367183D01*
X134042302Y-43051797D01*
X134108900Y-42716986D01*
X134108900Y-42375614D01*
X134042302Y-42040803D01*
X133911664Y-41725417D01*
X133722009Y-41441577D01*
X133480623Y-41200191D01*
X133196783Y-41010536D01*
X132881397Y-40879898D01*
X132546586Y-40813300D01*
X132205214Y-40813300D01*
X131870403Y-40879898D01*
X131555017Y-41010536D01*
X131271177Y-41200191D01*
X131029791Y-41441577D01*
X130840136Y-41725417D01*
X130709498Y-42040803D01*
X130642900Y-42375614D01*
X130642900Y-42716986D01*
X130709498Y-43051797D01*
X130840136Y-43367183D01*
X130997904Y-43603300D01*
X130959837Y-43603300D01*
X130673325Y-43660290D01*
X130403436Y-43772082D01*
X130160542Y-43934378D01*
X129953978Y-44140942D01*
X129791682Y-44383836D01*
X129679890Y-44653725D01*
X129622900Y-44940237D01*
X123698900Y-44940237D01*
X123641910Y-44653725D01*
X123530118Y-44383836D01*
X123367822Y-44140942D01*
X123161258Y-43934378D01*
X122918364Y-43772082D01*
X122648475Y-43660290D01*
X122361963Y-43603300D01*
X122069837Y-43603300D01*
X121783325Y-43660290D01*
X121513436Y-43772082D01*
X121270542Y-43934378D01*
X121063978Y-44140942D01*
X120901682Y-44383836D01*
X120789890Y-44653725D01*
X120732900Y-44940237D01*
X119737800Y-44940237D01*
X119737800Y-44830035D01*
X119637810Y-44327354D01*
X119441673Y-43853838D01*
X119156927Y-43427686D01*
X118794514Y-43065273D01*
X118368362Y-42780527D01*
X117894846Y-42584390D01*
X117392165Y-42484400D01*
X116879635Y-42484400D01*
X116376954Y-42584390D01*
X115903438Y-42780527D01*
X115477286Y-43065273D01*
X115114873Y-43427686D01*
X114830127Y-43853838D01*
X114633990Y-44327354D01*
X114534000Y-44830035D01*
X113516980Y-44830035D01*
X113481910Y-44653725D01*
X113370118Y-44383836D01*
X113300270Y-44279300D01*
X113496586Y-44279300D01*
X113831397Y-44212702D01*
X114146783Y-44082064D01*
X114430623Y-43892409D01*
X114672009Y-43651023D01*
X114861664Y-43367183D01*
X114992302Y-43051797D01*
X115058900Y-42716986D01*
X115058900Y-42375614D01*
X114992302Y-42040803D01*
X114861664Y-41725417D01*
X114672009Y-41441577D01*
X114430623Y-41200191D01*
X114146783Y-41010536D01*
X113831397Y-40879898D01*
X113496586Y-40813300D01*
X113155214Y-40813300D01*
X112820403Y-40879898D01*
X112505017Y-41010536D01*
X112221177Y-41200191D01*
X111979791Y-41441577D01*
X111790136Y-41725417D01*
X111659498Y-42040803D01*
X111592900Y-42375614D01*
X111592900Y-42716986D01*
X111659498Y-43051797D01*
X111790136Y-43367183D01*
X111947904Y-43603300D01*
X111909837Y-43603300D01*
X111623325Y-43660290D01*
X111353436Y-43772082D01*
X111110542Y-43934378D01*
X110903978Y-44140942D01*
X110741682Y-44383836D01*
X110629890Y-44653725D01*
X110572900Y-44940237D01*
X104648900Y-44940237D01*
X104591910Y-44653725D01*
X104480118Y-44383836D01*
X104317822Y-44140942D01*
X104111258Y-43934378D01*
X103868364Y-43772082D01*
X103598475Y-43660290D01*
X103311963Y-43603300D01*
X103019837Y-43603300D01*
X102733325Y-43660290D01*
X102463436Y-43772082D01*
X102220542Y-43934378D01*
X102013978Y-44140942D01*
X101851682Y-44383836D01*
X101739890Y-44653725D01*
X101682900Y-44940237D01*
X100687800Y-44940237D01*
X100687800Y-44830035D01*
X100587810Y-44327354D01*
X100391673Y-43853838D01*
X100106927Y-43427686D01*
X99744514Y-43065273D01*
X99318362Y-42780527D01*
X98844846Y-42584390D01*
X98342165Y-42484400D01*
X97829635Y-42484400D01*
X97326954Y-42584390D01*
X96853438Y-42780527D01*
X96427286Y-43065273D01*
X96064873Y-43427686D01*
X95780127Y-43853838D01*
X95583990Y-44327354D01*
X95484000Y-44830035D01*
X94466980Y-44830035D01*
X94431910Y-44653725D01*
X94320118Y-44383836D01*
X94250270Y-44279300D01*
X94446586Y-44279300D01*
X94781397Y-44212702D01*
X95096783Y-44082064D01*
X95380623Y-43892409D01*
X95622009Y-43651023D01*
X95811664Y-43367183D01*
X95942302Y-43051797D01*
X96008900Y-42716986D01*
X96008900Y-42375614D01*
X95942302Y-42040803D01*
X95811664Y-41725417D01*
X95622009Y-41441577D01*
X95380623Y-41200191D01*
X95096783Y-41010536D01*
X94781397Y-40879898D01*
X94446586Y-40813300D01*
X94105214Y-40813300D01*
X93770403Y-40879898D01*
X93455017Y-41010536D01*
X93171177Y-41200191D01*
X92929791Y-41441577D01*
X92740136Y-41725417D01*
X92609498Y-42040803D01*
X92542900Y-42375614D01*
X92542900Y-42716986D01*
X92609498Y-43051797D01*
X92740136Y-43367183D01*
X92897904Y-43603300D01*
X92859837Y-43603300D01*
X92573325Y-43660290D01*
X92303436Y-43772082D01*
X92060542Y-43934378D01*
X91853978Y-44140942D01*
X91691682Y-44383836D01*
X91579890Y-44653725D01*
X91522900Y-44940237D01*
X85598900Y-44940237D01*
X85541910Y-44653725D01*
X85430118Y-44383836D01*
X85267822Y-44140942D01*
X85061258Y-43934378D01*
X84818364Y-43772082D01*
X84548475Y-43660290D01*
X84261963Y-43603300D01*
X83969837Y-43603300D01*
X83683325Y-43660290D01*
X83413436Y-43772082D01*
X83170542Y-43934378D01*
X82963978Y-44140942D01*
X82801682Y-44383836D01*
X82689890Y-44653725D01*
X82632900Y-44940237D01*
X81637800Y-44940237D01*
X81637800Y-44830035D01*
X81537810Y-44327354D01*
X81341673Y-43853838D01*
X81056927Y-43427686D01*
X80694514Y-43065273D01*
X80268362Y-42780527D01*
X79794846Y-42584390D01*
X79292165Y-42484400D01*
X78779635Y-42484400D01*
X78276954Y-42584390D01*
X77803438Y-42780527D01*
X77377286Y-43065273D01*
X77014873Y-43427686D01*
X76730127Y-43853838D01*
X76533990Y-44327354D01*
X76434000Y-44830035D01*
X75416980Y-44830035D01*
X75381910Y-44653725D01*
X75270118Y-44383836D01*
X75200270Y-44279300D01*
X75396586Y-44279300D01*
X75731397Y-44212702D01*
X76046783Y-44082064D01*
X76330623Y-43892409D01*
X76572009Y-43651023D01*
X76761664Y-43367183D01*
X76892302Y-43051797D01*
X76958900Y-42716986D01*
X76958900Y-42375614D01*
X76892302Y-42040803D01*
X76761664Y-41725417D01*
X76572009Y-41441577D01*
X76330623Y-41200191D01*
X76046783Y-41010536D01*
X75731397Y-40879898D01*
X75396586Y-40813300D01*
X75055214Y-40813300D01*
X74720403Y-40879898D01*
X74405017Y-41010536D01*
X74121177Y-41200191D01*
X73879791Y-41441577D01*
X73690136Y-41725417D01*
X73559498Y-42040803D01*
X73492900Y-42375614D01*
X73492900Y-42716986D01*
X73559498Y-43051797D01*
X73690136Y-43367183D01*
X73847904Y-43603300D01*
X73809837Y-43603300D01*
X73523325Y-43660290D01*
X73253436Y-43772082D01*
X73010542Y-43934378D01*
X72803978Y-44140942D01*
X72641682Y-44383836D01*
X72529890Y-44653725D01*
X72472900Y-44940237D01*
X64188245Y-44940237D01*
X64144931Y-44875414D01*
X63938186Y-44668669D01*
X63762981Y-44551600D01*
X63938186Y-44434531D01*
X64144931Y-44227786D01*
X64307370Y-43984680D01*
X64419259Y-43714554D01*
X64476300Y-43427791D01*
X64476300Y-43135409D01*
X64419259Y-42848646D01*
X64307370Y-42578520D01*
X64144931Y-42335414D01*
X63938186Y-42128669D01*
X63762981Y-42011600D01*
X63938186Y-41894531D01*
X64144931Y-41687786D01*
X64307370Y-41444680D01*
X64419259Y-41174554D01*
X64476300Y-40887791D01*
X64476300Y-40595409D01*
X64419259Y-40308646D01*
X64307370Y-40038520D01*
X64171792Y-39835614D01*
X79842900Y-39835614D01*
X79842900Y-40176986D01*
X79909498Y-40511797D01*
X80040136Y-40827183D01*
X80229791Y-41111023D01*
X80471177Y-41352409D01*
X80755017Y-41542064D01*
X81070403Y-41672702D01*
X81405214Y-41739300D01*
X81746586Y-41739300D01*
X82081397Y-41672702D01*
X82396783Y-41542064D01*
X82680623Y-41352409D01*
X82922009Y-41111023D01*
X83111664Y-40827183D01*
X83242302Y-40511797D01*
X83308900Y-40176986D01*
X83308900Y-39835614D01*
X98892900Y-39835614D01*
X98892900Y-40176986D01*
X98959498Y-40511797D01*
X99090136Y-40827183D01*
X99279791Y-41111023D01*
X99521177Y-41352409D01*
X99805017Y-41542064D01*
X100120403Y-41672702D01*
X100455214Y-41739300D01*
X100796586Y-41739300D01*
X101131397Y-41672702D01*
X101446783Y-41542064D01*
X101730623Y-41352409D01*
X101972009Y-41111023D01*
X102161664Y-40827183D01*
X102292302Y-40511797D01*
X102358900Y-40176986D01*
X102358900Y-39835614D01*
X117942900Y-39835614D01*
X117942900Y-40176986D01*
X118009498Y-40511797D01*
X118140136Y-40827183D01*
X118329791Y-41111023D01*
X118571177Y-41352409D01*
X118855017Y-41542064D01*
X119170403Y-41672702D01*
X119505214Y-41739300D01*
X119846586Y-41739300D01*
X120181397Y-41672702D01*
X120496783Y-41542064D01*
X120780623Y-41352409D01*
X121022009Y-41111023D01*
X121211664Y-40827183D01*
X121342302Y-40511797D01*
X121408900Y-40176986D01*
X121408900Y-39835614D01*
X136992900Y-39835614D01*
X136992900Y-40176986D01*
X137059498Y-40511797D01*
X137190136Y-40827183D01*
X137379791Y-41111023D01*
X137621177Y-41352409D01*
X137905017Y-41542064D01*
X138220403Y-41672702D01*
X138555214Y-41739300D01*
X138896586Y-41739300D01*
X139231397Y-41672702D01*
X139546783Y-41542064D01*
X139830623Y-41352409D01*
X140072009Y-41111023D01*
X140261664Y-40827183D01*
X140392302Y-40511797D01*
X140458900Y-40176986D01*
X140458900Y-39835614D01*
X140392302Y-39500803D01*
X140261664Y-39185417D01*
X140072009Y-38901577D01*
X139830623Y-38660191D01*
X139546783Y-38470536D01*
X139231397Y-38339898D01*
X138896586Y-38273300D01*
X138555214Y-38273300D01*
X138220403Y-38339898D01*
X137905017Y-38470536D01*
X137621177Y-38660191D01*
X137379791Y-38901577D01*
X137190136Y-39185417D01*
X137059498Y-39500803D01*
X136992900Y-39835614D01*
X121408900Y-39835614D01*
X121342302Y-39500803D01*
X121211664Y-39185417D01*
X121022009Y-38901577D01*
X120780623Y-38660191D01*
X120496783Y-38470536D01*
X120181397Y-38339898D01*
X119846586Y-38273300D01*
X119505214Y-38273300D01*
X119170403Y-38339898D01*
X118855017Y-38470536D01*
X118571177Y-38660191D01*
X118329791Y-38901577D01*
X118140136Y-39185417D01*
X118009498Y-39500803D01*
X117942900Y-39835614D01*
X102358900Y-39835614D01*
X102292302Y-39500803D01*
X102161664Y-39185417D01*
X101972009Y-38901577D01*
X101730623Y-38660191D01*
X101446783Y-38470536D01*
X101131397Y-38339898D01*
X100796586Y-38273300D01*
X100455214Y-38273300D01*
X100120403Y-38339898D01*
X99805017Y-38470536D01*
X99521177Y-38660191D01*
X99279791Y-38901577D01*
X99090136Y-39185417D01*
X98959498Y-39500803D01*
X98892900Y-39835614D01*
X83308900Y-39835614D01*
X83242302Y-39500803D01*
X83111664Y-39185417D01*
X82922009Y-38901577D01*
X82680623Y-38660191D01*
X82396783Y-38470536D01*
X82081397Y-38339898D01*
X81746586Y-38273300D01*
X81405214Y-38273300D01*
X81070403Y-38339898D01*
X80755017Y-38470536D01*
X80471177Y-38660191D01*
X80229791Y-38901577D01*
X80040136Y-39185417D01*
X79909498Y-39500803D01*
X79842900Y-39835614D01*
X64171792Y-39835614D01*
X64144931Y-39795414D01*
X63938186Y-39588669D01*
X63762981Y-39471600D01*
X63938186Y-39354531D01*
X64144931Y-39147786D01*
X64307370Y-38904680D01*
X64419259Y-38634554D01*
X64476300Y-38347791D01*
X64476300Y-38055409D01*
X64419259Y-37768646D01*
X64307370Y-37498520D01*
X64144931Y-37255414D01*
X63938186Y-37048669D01*
X63762981Y-36931600D01*
X63938186Y-36814531D01*
X64144931Y-36607786D01*
X64307370Y-36364680D01*
X64419259Y-36094554D01*
X64476300Y-35807791D01*
X64476300Y-35515409D01*
X64419259Y-35228646D01*
X64307370Y-34958520D01*
X64144931Y-34715414D01*
X63938186Y-34508669D01*
X63749766Y-34382770D01*
X63823982Y-34171371D01*
X62992000Y-33339389D01*
X62160018Y-34171371D01*
X62234234Y-34382770D01*
X62045814Y-34508669D01*
X61839069Y-34715414D01*
X61676630Y-34958520D01*
X61564741Y-35228646D01*
X61507700Y-35515409D01*
X61507700Y-35807791D01*
X61564741Y-36094554D01*
X61676630Y-36364680D01*
X61839069Y-36607786D01*
X62045814Y-36814531D01*
X62221019Y-36931600D01*
X62045814Y-37048669D01*
X61839069Y-37255414D01*
X61676630Y-37498520D01*
X61564741Y-37768646D01*
X61507700Y-38055409D01*
X61507700Y-38347791D01*
X61564741Y-38634554D01*
X61676630Y-38904680D01*
X61839069Y-39147786D01*
X62045814Y-39354531D01*
X62221019Y-39471600D01*
X62045814Y-39588669D01*
X61839069Y-39795414D01*
X61676630Y-40038520D01*
X61564741Y-40308646D01*
X61507700Y-40595409D01*
X61507700Y-40887791D01*
X61564741Y-41174554D01*
X61676630Y-41444680D01*
X61839069Y-41687786D01*
X62045814Y-41894531D01*
X62221019Y-42011600D01*
X62045814Y-42128669D01*
X61839069Y-42335414D01*
X61676630Y-42578520D01*
X61564741Y-42848646D01*
X61507700Y-43135409D01*
X61507700Y-43427791D01*
X61564741Y-43714554D01*
X61676630Y-43984680D01*
X61839069Y-44227786D01*
X62045814Y-44434531D01*
X62221019Y-44551600D01*
X62045814Y-44668669D01*
X61839069Y-44875414D01*
X61676630Y-45118520D01*
X61564741Y-45388646D01*
X61507700Y-45675409D01*
X61507700Y-45967791D01*
X61564741Y-46254554D01*
X61676630Y-46524680D01*
X61839069Y-46767786D01*
X62045814Y-46974531D01*
X62221019Y-47091600D01*
X62045814Y-47208669D01*
X61839069Y-47415414D01*
X61676630Y-47658520D01*
X61564741Y-47928646D01*
X61507700Y-48215409D01*
X61507700Y-48507791D01*
X61564741Y-48794554D01*
X61676630Y-49064680D01*
X61839069Y-49307786D01*
X62045814Y-49514531D01*
X62221019Y-49631600D01*
X62045814Y-49748669D01*
X61839069Y-49955414D01*
X61676630Y-50198520D01*
X61564741Y-50468646D01*
X61507700Y-50755409D01*
X61507700Y-51047791D01*
X61564741Y-51334554D01*
X61676630Y-51604680D01*
X61839069Y-51847786D01*
X62045814Y-52054531D01*
X62221019Y-52171600D01*
X62045814Y-52288669D01*
X61839069Y-52495414D01*
X61676630Y-52738520D01*
X61564741Y-53008646D01*
X61507700Y-53295409D01*
X61507700Y-53587791D01*
X61564741Y-53874554D01*
X61676630Y-54144680D01*
X61839069Y-54387786D01*
X62045814Y-54594531D01*
X62221019Y-54711600D01*
X62045814Y-54828669D01*
X61839069Y-55035414D01*
X61676630Y-55278520D01*
X61564741Y-55548646D01*
X61507700Y-55835409D01*
X61507700Y-56127791D01*
X61564741Y-56414554D01*
X61676630Y-56684680D01*
X61839069Y-56927786D01*
X62045814Y-57134531D01*
X62221019Y-57251600D01*
X62045814Y-57368669D01*
X61839069Y-57575414D01*
X61722000Y-57750619D01*
X61604931Y-57575414D01*
X61398186Y-57368669D01*
X61155080Y-57206230D01*
X60884954Y-57094341D01*
X60598191Y-57037300D01*
X60305809Y-57037300D01*
X60019046Y-57094341D01*
X59748920Y-57206230D01*
X59505814Y-57368669D01*
X59299069Y-57575414D01*
X59182000Y-57750619D01*
X59064931Y-57575414D01*
X58858186Y-57368669D01*
X58615080Y-57206230D01*
X58344954Y-57094341D01*
X58058191Y-57037300D01*
X57765809Y-57037300D01*
X57479046Y-57094341D01*
X57208920Y-57206230D01*
X56965814Y-57368669D01*
X56759069Y-57575414D01*
X56642000Y-57750619D01*
X56524931Y-57575414D01*
X56318186Y-57368669D01*
X56075080Y-57206230D01*
X55804954Y-57094341D01*
X55518191Y-57037300D01*
X55225809Y-57037300D01*
X54939046Y-57094341D01*
X54668920Y-57206230D01*
X54425814Y-57368669D01*
X54219069Y-57575414D01*
X54102000Y-57750619D01*
X53984931Y-57575414D01*
X53778186Y-57368669D01*
X53535080Y-57206230D01*
X53264954Y-57094341D01*
X52978191Y-57037300D01*
X52685809Y-57037300D01*
X52399046Y-57094341D01*
X52128920Y-57206230D01*
X51885814Y-57368669D01*
X51679069Y-57575414D01*
X51562000Y-57750619D01*
X51444931Y-57575414D01*
X51238186Y-57368669D01*
X50995080Y-57206230D01*
X50724954Y-57094341D01*
X50438191Y-57037300D01*
X50145809Y-57037300D01*
X49859046Y-57094341D01*
X49588920Y-57206230D01*
X49345814Y-57368669D01*
X49139069Y-57575414D01*
X49136300Y-57579558D01*
X49133531Y-57575414D01*
X48926786Y-57368669D01*
X48683680Y-57206230D01*
X48626394Y-57182501D01*
X48698186Y-57134531D01*
X48904931Y-56927786D01*
X49067370Y-56684680D01*
X49179259Y-56414554D01*
X49236300Y-56127791D01*
X49236300Y-55835409D01*
X49179259Y-55548646D01*
X49067370Y-55278520D01*
X48904931Y-55035414D01*
X48698186Y-54828669D01*
X48522981Y-54711600D01*
X48698186Y-54594531D01*
X48904931Y-54387786D01*
X49067370Y-54144680D01*
X49179259Y-53874554D01*
X49236300Y-53587791D01*
X49236300Y-53295409D01*
X49179259Y-53008646D01*
X49067370Y-52738520D01*
X48904931Y-52495414D01*
X48698186Y-52288669D01*
X48522981Y-52171600D01*
X48698186Y-52054531D01*
X48904931Y-51847786D01*
X49067370Y-51604680D01*
X49179259Y-51334554D01*
X49236300Y-51047791D01*
X49236300Y-50755409D01*
X49179259Y-50468646D01*
X49067370Y-50198520D01*
X48904931Y-49955414D01*
X48698186Y-49748669D01*
X48522981Y-49631600D01*
X48698186Y-49514531D01*
X48904931Y-49307786D01*
X49067370Y-49064680D01*
X49179259Y-48794554D01*
X49236300Y-48507791D01*
X49236300Y-48215409D01*
X49179259Y-47928646D01*
X49067370Y-47658520D01*
X48904931Y-47415414D01*
X48698186Y-47208669D01*
X48522981Y-47091600D01*
X48698186Y-46974531D01*
X48904931Y-46767786D01*
X49067370Y-46524680D01*
X49179259Y-46254554D01*
X49236300Y-45967791D01*
X49236300Y-45675409D01*
X49179259Y-45388646D01*
X49067370Y-45118520D01*
X48904931Y-44875414D01*
X48698186Y-44668669D01*
X48522981Y-44551600D01*
X48698186Y-44434531D01*
X48904931Y-44227786D01*
X49067370Y-43984680D01*
X49179259Y-43714554D01*
X49236300Y-43427791D01*
X49236300Y-43135409D01*
X49179259Y-42848646D01*
X49067370Y-42578520D01*
X48904931Y-42335414D01*
X48698186Y-42128669D01*
X48522981Y-42011600D01*
X48698186Y-41894531D01*
X48904931Y-41687786D01*
X49067370Y-41444680D01*
X49179259Y-41174554D01*
X49236300Y-40887791D01*
X49236300Y-40595409D01*
X49179259Y-40308646D01*
X49067370Y-40038520D01*
X48904931Y-39795414D01*
X48698186Y-39588669D01*
X48509766Y-39462770D01*
X48583982Y-39251371D01*
X47752000Y-38419389D01*
X46920018Y-39251371D01*
X46994234Y-39462770D01*
X46805814Y-39588669D01*
X46599069Y-39795414D01*
X46436630Y-40038520D01*
X46324741Y-40308646D01*
X46267700Y-40595409D01*
X33359840Y-40595409D01*
X33359840Y-38297239D01*
X46263587Y-38297239D01*
X46310845Y-38585776D01*
X46413486Y-38859549D01*
X46461296Y-38948997D01*
X46702229Y-39033582D01*
X47534211Y-38201600D01*
X47969789Y-38201600D01*
X48801771Y-39033582D01*
X49042704Y-38948997D01*
X49163714Y-38682832D01*
X49230472Y-38398174D01*
X49240413Y-38105961D01*
X49193155Y-37817424D01*
X49090514Y-37543651D01*
X49042704Y-37454203D01*
X48801771Y-37369618D01*
X47969789Y-38201600D01*
X47534211Y-38201600D01*
X46702229Y-37369618D01*
X46461296Y-37454203D01*
X46340286Y-37720368D01*
X46273528Y-38005026D01*
X46263587Y-38297239D01*
X33359840Y-38297239D01*
X33359840Y-36711371D01*
X46920018Y-36711371D01*
X46997334Y-36931600D01*
X46920018Y-37151829D01*
X47752000Y-37983811D01*
X48583982Y-37151829D01*
X48506666Y-36931600D01*
X48583982Y-36711371D01*
X47752000Y-35879389D01*
X46920018Y-36711371D01*
X33359840Y-36711371D01*
X33359840Y-35757239D01*
X46263587Y-35757239D01*
X46310845Y-36045776D01*
X46413486Y-36319549D01*
X46461296Y-36408997D01*
X46702229Y-36493582D01*
X47534211Y-35661600D01*
X47969789Y-35661600D01*
X48801771Y-36493582D01*
X49042704Y-36408997D01*
X49163714Y-36142832D01*
X49230472Y-35858174D01*
X49240413Y-35565961D01*
X49193155Y-35277424D01*
X49090514Y-35003651D01*
X49042704Y-34914203D01*
X48801771Y-34829618D01*
X47969789Y-35661600D01*
X47534211Y-35661600D01*
X46702229Y-34829618D01*
X46461296Y-34914203D01*
X46340286Y-35180368D01*
X46273528Y-35465026D01*
X46263587Y-35757239D01*
X33359840Y-35757239D01*
X33359840Y-30101836D01*
X34580800Y-30101836D01*
X34580800Y-30654964D01*
X34688710Y-31197463D01*
X34900382Y-31708487D01*
X35207684Y-32168396D01*
X35598804Y-32559516D01*
X36058713Y-32866818D01*
X36569737Y-33078490D01*
X37112236Y-33186400D01*
X37665364Y-33186400D01*
X38207863Y-33078490D01*
X38718887Y-32866818D01*
X39178796Y-32559516D01*
X39569916Y-32168396D01*
X39877218Y-31708487D01*
X40088890Y-31197463D01*
X40196800Y-30654964D01*
X40196800Y-30101836D01*
X40117924Y-29705300D01*
X46264759Y-29705300D01*
X46264759Y-31457900D01*
X46276498Y-31577089D01*
X46311264Y-31691697D01*
X46367721Y-31797321D01*
X46443699Y-31889901D01*
X46536279Y-31965879D01*
X46641903Y-32022336D01*
X46726488Y-32047995D01*
X46599069Y-32175414D01*
X46436630Y-32418520D01*
X46324741Y-32688646D01*
X46267700Y-32975409D01*
X46267700Y-33267791D01*
X46324741Y-33554554D01*
X46436630Y-33824680D01*
X46599069Y-34067786D01*
X46805814Y-34274531D01*
X46994234Y-34400430D01*
X46920018Y-34611829D01*
X47752000Y-35443811D01*
X48583982Y-34611829D01*
X48509766Y-34400430D01*
X48698186Y-34274531D01*
X48904931Y-34067786D01*
X49067370Y-33824680D01*
X49179259Y-33554554D01*
X49236300Y-33267791D01*
X49236300Y-33217239D01*
X61503587Y-33217239D01*
X61550845Y-33505776D01*
X61653486Y-33779549D01*
X61701296Y-33868997D01*
X61942229Y-33953582D01*
X62774211Y-33121600D01*
X63209789Y-33121600D01*
X64041771Y-33953582D01*
X64282704Y-33868997D01*
X64403714Y-33602832D01*
X64470472Y-33318174D01*
X64480413Y-33025961D01*
X64433155Y-32737424D01*
X64330514Y-32463651D01*
X64282704Y-32374203D01*
X64041771Y-32289618D01*
X63209789Y-33121600D01*
X62774211Y-33121600D01*
X61942229Y-32289618D01*
X61701296Y-32374203D01*
X61580286Y-32640368D01*
X61513528Y-32925026D01*
X61503587Y-33217239D01*
X49236300Y-33217239D01*
X49236300Y-32975409D01*
X49179259Y-32688646D01*
X49067370Y-32418520D01*
X48904931Y-32175414D01*
X48777512Y-32047995D01*
X48862097Y-32022336D01*
X48967721Y-31965879D01*
X49060301Y-31889901D01*
X49136279Y-31797321D01*
X49192736Y-31691697D01*
X49227502Y-31577089D01*
X49239241Y-31457900D01*
X49239241Y-30435409D01*
X61507700Y-30435409D01*
X61507700Y-30727791D01*
X61564741Y-31014554D01*
X61676630Y-31284680D01*
X61839069Y-31527786D01*
X62045814Y-31734531D01*
X62234234Y-31860430D01*
X62160018Y-32071829D01*
X62992000Y-32903811D01*
X63823982Y-32071829D01*
X63749766Y-31860430D01*
X63938186Y-31734531D01*
X64144931Y-31527786D01*
X64307370Y-31284680D01*
X64419259Y-31014554D01*
X64476300Y-30727791D01*
X64476300Y-30435409D01*
X64419259Y-30148646D01*
X64307370Y-29878520D01*
X64144931Y-29635414D01*
X63938186Y-29428669D01*
X63695080Y-29266230D01*
X63424954Y-29154341D01*
X63141816Y-29098021D01*
X69362700Y-29098021D01*
X69362700Y-29296579D01*
X69401437Y-29491323D01*
X69477422Y-29674767D01*
X69587735Y-29839862D01*
X69728138Y-29980265D01*
X69893233Y-30090578D01*
X70076677Y-30166563D01*
X70271421Y-30205300D01*
X70469979Y-30205300D01*
X70664723Y-30166563D01*
X70848167Y-30090578D01*
X70878089Y-30070585D01*
X70903065Y-30058112D01*
X70912032Y-30053541D01*
X70986429Y-30014836D01*
X71045695Y-29984130D01*
X71086005Y-29964598D01*
X71110865Y-29954187D01*
X71127918Y-29948548D01*
X71148273Y-29943742D01*
X71182761Y-29938598D01*
X71239124Y-29934240D01*
X71327376Y-29932300D01*
X88375124Y-29932300D01*
X88463375Y-29934240D01*
X88519738Y-29938598D01*
X88554226Y-29943742D01*
X88574581Y-29948548D01*
X88591634Y-29954187D01*
X88616494Y-29964598D01*
X88656804Y-29984130D01*
X88716070Y-30014836D01*
X88790467Y-30053541D01*
X88799436Y-30058113D01*
X88824414Y-30070586D01*
X88854333Y-30090578D01*
X89037777Y-30166563D01*
X89232521Y-30205300D01*
X89431079Y-30205300D01*
X89625823Y-30166563D01*
X89809267Y-30090578D01*
X89839189Y-30070585D01*
X89864165Y-30058112D01*
X89873132Y-30053541D01*
X89947529Y-30014836D01*
X90006795Y-29984130D01*
X90047105Y-29964598D01*
X90071965Y-29954187D01*
X90089018Y-29948548D01*
X90109373Y-29943742D01*
X90143861Y-29938598D01*
X90200224Y-29934240D01*
X90288476Y-29932300D01*
X107475924Y-29932300D01*
X107564175Y-29934240D01*
X107620538Y-29938598D01*
X107655026Y-29943742D01*
X107675381Y-29948548D01*
X107692434Y-29954187D01*
X107717294Y-29964598D01*
X107757604Y-29984130D01*
X107816870Y-30014836D01*
X107891267Y-30053541D01*
X107900236Y-30058113D01*
X107925214Y-30070586D01*
X107955133Y-30090578D01*
X108138577Y-30166563D01*
X108333321Y-30205300D01*
X108531879Y-30205300D01*
X108726623Y-30166563D01*
X108910067Y-30090578D01*
X108939989Y-30070585D01*
X108964965Y-30058112D01*
X108973932Y-30053541D01*
X109048329Y-30014836D01*
X109107595Y-29984130D01*
X109147905Y-29964598D01*
X109172765Y-29954187D01*
X109189818Y-29948548D01*
X109210173Y-29943742D01*
X109244661Y-29938598D01*
X109301024Y-29934240D01*
X109389276Y-29932300D01*
X126437024Y-29932300D01*
X126525275Y-29934240D01*
X126581638Y-29938598D01*
X126616126Y-29943742D01*
X126636481Y-29948548D01*
X126653534Y-29954187D01*
X126678394Y-29964598D01*
X126718704Y-29984130D01*
X126777970Y-30014836D01*
X126852367Y-30053541D01*
X126861336Y-30058113D01*
X126886314Y-30070586D01*
X126916233Y-30090578D01*
X127099677Y-30166563D01*
X127294421Y-30205300D01*
X127492979Y-30205300D01*
X127687723Y-30166563D01*
X127843987Y-30101836D01*
X148093400Y-30101836D01*
X148093400Y-30654964D01*
X148201310Y-31197463D01*
X148412982Y-31708487D01*
X148720284Y-32168396D01*
X149111404Y-32559516D01*
X149571313Y-32866818D01*
X150082337Y-33078490D01*
X150624836Y-33186400D01*
X151177964Y-33186400D01*
X151720463Y-33078490D01*
X152231487Y-32866818D01*
X152691396Y-32559516D01*
X153082516Y-32168396D01*
X153389818Y-31708487D01*
X153601490Y-31197463D01*
X153709400Y-30654964D01*
X153709400Y-30101836D01*
X153601490Y-29559337D01*
X153389818Y-29048313D01*
X153082516Y-28588404D01*
X152691396Y-28197284D01*
X152231487Y-27889982D01*
X151720463Y-27678310D01*
X151177964Y-27570400D01*
X150624836Y-27570400D01*
X150082337Y-27678310D01*
X149571313Y-27889982D01*
X149111404Y-28197284D01*
X148720284Y-28588404D01*
X148412982Y-29048313D01*
X148201310Y-29559337D01*
X148093400Y-30101836D01*
X127843987Y-30101836D01*
X127871167Y-30090578D01*
X128036262Y-29980265D01*
X128176665Y-29839862D01*
X128286978Y-29674767D01*
X128362963Y-29491323D01*
X128401700Y-29296579D01*
X128401700Y-29098021D01*
X128362963Y-28903277D01*
X128286978Y-28719833D01*
X128176665Y-28554738D01*
X128036262Y-28414335D01*
X127871167Y-28304022D01*
X127687723Y-28228037D01*
X127492979Y-28189300D01*
X127294421Y-28189300D01*
X127099677Y-28228037D01*
X126916233Y-28304022D01*
X126886321Y-28324009D01*
X126861341Y-28336483D01*
X126852367Y-28341058D01*
X126777970Y-28379763D01*
X126718704Y-28410469D01*
X126678394Y-28430001D01*
X126653534Y-28440412D01*
X126636481Y-28446051D01*
X126616126Y-28450857D01*
X126581638Y-28456001D01*
X126525275Y-28460359D01*
X126437016Y-28462300D01*
X109389284Y-28462300D01*
X109301024Y-28460359D01*
X109244661Y-28456001D01*
X109210173Y-28450857D01*
X109189818Y-28446051D01*
X109172765Y-28440412D01*
X109147905Y-28430001D01*
X109107595Y-28410469D01*
X109048329Y-28379763D01*
X108973932Y-28341058D01*
X108964960Y-28336485D01*
X108939987Y-28324014D01*
X108910067Y-28304022D01*
X108726623Y-28228037D01*
X108531879Y-28189300D01*
X108333321Y-28189300D01*
X108138577Y-28228037D01*
X107955133Y-28304022D01*
X107925221Y-28324009D01*
X107900241Y-28336483D01*
X107891267Y-28341058D01*
X107816870Y-28379763D01*
X107757604Y-28410469D01*
X107717294Y-28430001D01*
X107692434Y-28440412D01*
X107675381Y-28446051D01*
X107655026Y-28450857D01*
X107620538Y-28456001D01*
X107564175Y-28460359D01*
X107475916Y-28462300D01*
X90288484Y-28462300D01*
X90200224Y-28460359D01*
X90143861Y-28456001D01*
X90109373Y-28450857D01*
X90089018Y-28446051D01*
X90071965Y-28440412D01*
X90047105Y-28430001D01*
X90006795Y-28410469D01*
X89947529Y-28379763D01*
X89873132Y-28341058D01*
X89864160Y-28336485D01*
X89839187Y-28324014D01*
X89809267Y-28304022D01*
X89625823Y-28228037D01*
X89431079Y-28189300D01*
X89232521Y-28189300D01*
X89037777Y-28228037D01*
X88854333Y-28304022D01*
X88824421Y-28324009D01*
X88799441Y-28336483D01*
X88790467Y-28341058D01*
X88716070Y-28379763D01*
X88656804Y-28410469D01*
X88616494Y-28430001D01*
X88591634Y-28440412D01*
X88574581Y-28446051D01*
X88554226Y-28450857D01*
X88519738Y-28456001D01*
X88463375Y-28460359D01*
X88375116Y-28462300D01*
X71327384Y-28462300D01*
X71239124Y-28460359D01*
X71182761Y-28456001D01*
X71148273Y-28450857D01*
X71127918Y-28446051D01*
X71110865Y-28440412D01*
X71086005Y-28430001D01*
X71045695Y-28410469D01*
X70986429Y-28379763D01*
X70912032Y-28341058D01*
X70903060Y-28336485D01*
X70878087Y-28324014D01*
X70848167Y-28304022D01*
X70664723Y-28228037D01*
X70469979Y-28189300D01*
X70271421Y-28189300D01*
X70076677Y-28228037D01*
X69893233Y-28304022D01*
X69728138Y-28414335D01*
X69587735Y-28554738D01*
X69477422Y-28719833D01*
X69401437Y-28903277D01*
X69362700Y-29098021D01*
X63141816Y-29098021D01*
X63138191Y-29097300D01*
X62845809Y-29097300D01*
X62559046Y-29154341D01*
X62288920Y-29266230D01*
X62045814Y-29428669D01*
X61839069Y-29635414D01*
X61676630Y-29878520D01*
X61564741Y-30148646D01*
X61507700Y-30435409D01*
X49239241Y-30435409D01*
X49239241Y-29705300D01*
X49227502Y-29586111D01*
X49192736Y-29471503D01*
X49136279Y-29365879D01*
X49060301Y-29273299D01*
X48967721Y-29197321D01*
X48862097Y-29140864D01*
X48747489Y-29106098D01*
X48628300Y-29094359D01*
X46875700Y-29094359D01*
X46756511Y-29106098D01*
X46641903Y-29140864D01*
X46536279Y-29197321D01*
X46443699Y-29273299D01*
X46367721Y-29365879D01*
X46311264Y-29471503D01*
X46276498Y-29586111D01*
X46264759Y-29705300D01*
X40117924Y-29705300D01*
X40088890Y-29559337D01*
X39877218Y-29048313D01*
X39569916Y-28588404D01*
X39178796Y-28197284D01*
X38718887Y-27889982D01*
X38207863Y-27678310D01*
X37665364Y-27570400D01*
X37112236Y-27570400D01*
X36569737Y-27678310D01*
X36058713Y-27889982D01*
X35598804Y-28197284D01*
X35207684Y-28588404D01*
X34900382Y-29048313D01*
X34688710Y-29559337D01*
X34580800Y-30101836D01*
X33359840Y-30101836D01*
X33359840Y-26346900D01*
X154920200Y-26346900D01*
X154920201Y-82819760D01*
G37*
G04 #@! TD.AperFunction*
D19*
X108687540Y-28891738D02*
X108762329Y-28930647D01*
X108762348Y-28930656D01*
X108829290Y-28965339D01*
X108829594Y-28965492D01*
X108892193Y-28995824D01*
X108892825Y-28996109D01*
X108954661Y-29022006D01*
X108955580Y-29022350D01*
X109020232Y-29043728D01*
X109021301Y-29044030D01*
X109092351Y-29060804D01*
X109093395Y-29061005D01*
X109174421Y-29073091D01*
X109175316Y-29073192D01*
X109269900Y-29080505D01*
X109270600Y-29080540D01*
X109369900Y-29082724D01*
X109369900Y-29311876D01*
X109270600Y-29314059D01*
X109269900Y-29314094D01*
X109175316Y-29321407D01*
X109174421Y-29321508D01*
X109093395Y-29333594D01*
X109092351Y-29333795D01*
X109021301Y-29350569D01*
X109020232Y-29350871D01*
X108955580Y-29372249D01*
X108954661Y-29372593D01*
X108892825Y-29398490D01*
X108892193Y-29398775D01*
X108829594Y-29429107D01*
X108829290Y-29429260D01*
X108762348Y-29463943D01*
X108762329Y-29463952D01*
X108687540Y-29502861D01*
X108609298Y-29541934D01*
X108250922Y-29197300D01*
X108609299Y-28852666D01*
X108687540Y-28891738D01*
G04 #@! TA.AperFunction,Conductor*
D18*
G36*
X108687540Y-28891738D02*
G01*
X108762329Y-28930647D01*
X108762348Y-28930656D01*
X108829290Y-28965339D01*
X108829594Y-28965492D01*
X108892193Y-28995824D01*
X108892825Y-28996109D01*
X108954661Y-29022006D01*
X108955580Y-29022350D01*
X109020232Y-29043728D01*
X109021301Y-29044030D01*
X109092351Y-29060804D01*
X109093395Y-29061005D01*
X109174421Y-29073091D01*
X109175316Y-29073192D01*
X109269900Y-29080505D01*
X109270600Y-29080540D01*
X109369900Y-29082724D01*
X109369900Y-29311876D01*
X109270600Y-29314059D01*
X109269900Y-29314094D01*
X109175316Y-29321407D01*
X109174421Y-29321508D01*
X109093395Y-29333594D01*
X109092351Y-29333795D01*
X109021301Y-29350569D01*
X109020232Y-29350871D01*
X108955580Y-29372249D01*
X108954661Y-29372593D01*
X108892825Y-29398490D01*
X108892193Y-29398775D01*
X108829594Y-29429107D01*
X108829290Y-29429260D01*
X108762348Y-29463943D01*
X108762329Y-29463952D01*
X108687540Y-29502861D01*
X108609298Y-29541934D01*
X108250922Y-29197300D01*
X108609299Y-28852666D01*
X108687540Y-28891738D01*
G37*
G04 #@! TD.AperFunction*
D19*
X108614278Y-29197300D02*
X108255902Y-29541934D01*
X108177659Y-29502861D01*
X108102870Y-29463952D01*
X108102851Y-29463943D01*
X108035909Y-29429260D01*
X108035605Y-29429107D01*
X107973006Y-29398775D01*
X107972374Y-29398490D01*
X107910538Y-29372593D01*
X107909619Y-29372249D01*
X107844967Y-29350871D01*
X107843898Y-29350569D01*
X107772848Y-29333795D01*
X107771804Y-29333594D01*
X107690778Y-29321508D01*
X107689883Y-29321407D01*
X107595299Y-29314094D01*
X107594599Y-29314059D01*
X107495300Y-29311876D01*
X107495300Y-29082724D01*
X107594599Y-29080540D01*
X107595299Y-29080505D01*
X107689883Y-29073192D01*
X107690778Y-29073091D01*
X107771804Y-29061005D01*
X107772848Y-29060804D01*
X107843898Y-29044030D01*
X107844967Y-29043728D01*
X107909619Y-29022350D01*
X107910538Y-29022006D01*
X107972374Y-28996109D01*
X107973006Y-28995824D01*
X108035605Y-28965492D01*
X108035909Y-28965339D01*
X108102851Y-28930656D01*
X108102870Y-28930647D01*
X108177659Y-28891738D01*
X108255901Y-28852666D01*
X108614278Y-29197300D01*
G04 #@! TA.AperFunction,Conductor*
D18*
G36*
X108614278Y-29197300D02*
G01*
X108255902Y-29541934D01*
X108177659Y-29502861D01*
X108102870Y-29463952D01*
X108102851Y-29463943D01*
X108035909Y-29429260D01*
X108035605Y-29429107D01*
X107973006Y-29398775D01*
X107972374Y-29398490D01*
X107910538Y-29372593D01*
X107909619Y-29372249D01*
X107844967Y-29350871D01*
X107843898Y-29350569D01*
X107772848Y-29333795D01*
X107771804Y-29333594D01*
X107690778Y-29321508D01*
X107689883Y-29321407D01*
X107595299Y-29314094D01*
X107594599Y-29314059D01*
X107495300Y-29311876D01*
X107495300Y-29082724D01*
X107594599Y-29080540D01*
X107595299Y-29080505D01*
X107689883Y-29073192D01*
X107690778Y-29073091D01*
X107771804Y-29061005D01*
X107772848Y-29060804D01*
X107843898Y-29044030D01*
X107844967Y-29043728D01*
X107909619Y-29022350D01*
X107910538Y-29022006D01*
X107972374Y-28996109D01*
X107973006Y-28995824D01*
X108035605Y-28965492D01*
X108035909Y-28965339D01*
X108102851Y-28930656D01*
X108102870Y-28930647D01*
X108177659Y-28891738D01*
X108255901Y-28852666D01*
X108614278Y-29197300D01*
G37*
G04 #@! TD.AperFunction*
D19*
X89586740Y-28891738D02*
X89661529Y-28930647D01*
X89661548Y-28930656D01*
X89728490Y-28965339D01*
X89728794Y-28965492D01*
X89791393Y-28995824D01*
X89792025Y-28996109D01*
X89853861Y-29022006D01*
X89854780Y-29022350D01*
X89919432Y-29043728D01*
X89920501Y-29044030D01*
X89991551Y-29060804D01*
X89992595Y-29061005D01*
X90073621Y-29073091D01*
X90074516Y-29073192D01*
X90169100Y-29080505D01*
X90169800Y-29080540D01*
X90269100Y-29082724D01*
X90269100Y-29311876D01*
X90169800Y-29314059D01*
X90169100Y-29314094D01*
X90074516Y-29321407D01*
X90073621Y-29321508D01*
X89992595Y-29333594D01*
X89991551Y-29333795D01*
X89920501Y-29350569D01*
X89919432Y-29350871D01*
X89854780Y-29372249D01*
X89853861Y-29372593D01*
X89792025Y-29398490D01*
X89791393Y-29398775D01*
X89728794Y-29429107D01*
X89728490Y-29429260D01*
X89661548Y-29463943D01*
X89661529Y-29463952D01*
X89586740Y-29502861D01*
X89508498Y-29541934D01*
X89150122Y-29197300D01*
X89508499Y-28852666D01*
X89586740Y-28891738D01*
G04 #@! TA.AperFunction,Conductor*
D18*
G36*
X89586740Y-28891738D02*
G01*
X89661529Y-28930647D01*
X89661548Y-28930656D01*
X89728490Y-28965339D01*
X89728794Y-28965492D01*
X89791393Y-28995824D01*
X89792025Y-28996109D01*
X89853861Y-29022006D01*
X89854780Y-29022350D01*
X89919432Y-29043728D01*
X89920501Y-29044030D01*
X89991551Y-29060804D01*
X89992595Y-29061005D01*
X90073621Y-29073091D01*
X90074516Y-29073192D01*
X90169100Y-29080505D01*
X90169800Y-29080540D01*
X90269100Y-29082724D01*
X90269100Y-29311876D01*
X90169800Y-29314059D01*
X90169100Y-29314094D01*
X90074516Y-29321407D01*
X90073621Y-29321508D01*
X89992595Y-29333594D01*
X89991551Y-29333795D01*
X89920501Y-29350569D01*
X89919432Y-29350871D01*
X89854780Y-29372249D01*
X89853861Y-29372593D01*
X89792025Y-29398490D01*
X89791393Y-29398775D01*
X89728794Y-29429107D01*
X89728490Y-29429260D01*
X89661548Y-29463943D01*
X89661529Y-29463952D01*
X89586740Y-29502861D01*
X89508498Y-29541934D01*
X89150122Y-29197300D01*
X89508499Y-28852666D01*
X89586740Y-28891738D01*
G37*
G04 #@! TD.AperFunction*
D19*
X89513478Y-29197300D02*
X89155102Y-29541934D01*
X89076859Y-29502861D01*
X89002070Y-29463952D01*
X89002051Y-29463943D01*
X88935109Y-29429260D01*
X88934805Y-29429107D01*
X88872206Y-29398775D01*
X88871574Y-29398490D01*
X88809738Y-29372593D01*
X88808819Y-29372249D01*
X88744167Y-29350871D01*
X88743098Y-29350569D01*
X88672048Y-29333795D01*
X88671004Y-29333594D01*
X88589978Y-29321508D01*
X88589083Y-29321407D01*
X88494499Y-29314094D01*
X88493799Y-29314059D01*
X88394500Y-29311876D01*
X88394500Y-29082724D01*
X88493799Y-29080540D01*
X88494499Y-29080505D01*
X88589083Y-29073192D01*
X88589978Y-29073091D01*
X88671004Y-29061005D01*
X88672048Y-29060804D01*
X88743098Y-29044030D01*
X88744167Y-29043728D01*
X88808819Y-29022350D01*
X88809738Y-29022006D01*
X88871574Y-28996109D01*
X88872206Y-28995824D01*
X88934805Y-28965492D01*
X88935109Y-28965339D01*
X89002051Y-28930656D01*
X89002070Y-28930647D01*
X89076859Y-28891738D01*
X89155101Y-28852666D01*
X89513478Y-29197300D01*
G04 #@! TA.AperFunction,Conductor*
D18*
G36*
X89513478Y-29197300D02*
G01*
X89155102Y-29541934D01*
X89076859Y-29502861D01*
X89002070Y-29463952D01*
X89002051Y-29463943D01*
X88935109Y-29429260D01*
X88934805Y-29429107D01*
X88872206Y-29398775D01*
X88871574Y-29398490D01*
X88809738Y-29372593D01*
X88808819Y-29372249D01*
X88744167Y-29350871D01*
X88743098Y-29350569D01*
X88672048Y-29333795D01*
X88671004Y-29333594D01*
X88589978Y-29321508D01*
X88589083Y-29321407D01*
X88494499Y-29314094D01*
X88493799Y-29314059D01*
X88394500Y-29311876D01*
X88394500Y-29082724D01*
X88493799Y-29080540D01*
X88494499Y-29080505D01*
X88589083Y-29073192D01*
X88589978Y-29073091D01*
X88671004Y-29061005D01*
X88672048Y-29060804D01*
X88743098Y-29044030D01*
X88744167Y-29043728D01*
X88808819Y-29022350D01*
X88809738Y-29022006D01*
X88871574Y-28996109D01*
X88872206Y-28995824D01*
X88934805Y-28965492D01*
X88935109Y-28965339D01*
X89002051Y-28930656D01*
X89002070Y-28930647D01*
X89076859Y-28891738D01*
X89155101Y-28852666D01*
X89513478Y-29197300D01*
G37*
G04 #@! TD.AperFunction*
D19*
X70625640Y-28891738D02*
X70700429Y-28930647D01*
X70700448Y-28930656D01*
X70767390Y-28965339D01*
X70767694Y-28965492D01*
X70830293Y-28995824D01*
X70830925Y-28996109D01*
X70892761Y-29022006D01*
X70893680Y-29022350D01*
X70958332Y-29043728D01*
X70959401Y-29044030D01*
X71030451Y-29060804D01*
X71031495Y-29061005D01*
X71112521Y-29073091D01*
X71113416Y-29073192D01*
X71208000Y-29080505D01*
X71208700Y-29080540D01*
X71308000Y-29082724D01*
X71308000Y-29311876D01*
X71208700Y-29314059D01*
X71208000Y-29314094D01*
X71113416Y-29321407D01*
X71112521Y-29321508D01*
X71031495Y-29333594D01*
X71030451Y-29333795D01*
X70959401Y-29350569D01*
X70958332Y-29350871D01*
X70893680Y-29372249D01*
X70892761Y-29372593D01*
X70830925Y-29398490D01*
X70830293Y-29398775D01*
X70767694Y-29429107D01*
X70767390Y-29429260D01*
X70700448Y-29463943D01*
X70700429Y-29463952D01*
X70625640Y-29502861D01*
X70547398Y-29541934D01*
X70189022Y-29197300D01*
X70547399Y-28852666D01*
X70625640Y-28891738D01*
G04 #@! TA.AperFunction,Conductor*
D18*
G36*
X70625640Y-28891738D02*
G01*
X70700429Y-28930647D01*
X70700448Y-28930656D01*
X70767390Y-28965339D01*
X70767694Y-28965492D01*
X70830293Y-28995824D01*
X70830925Y-28996109D01*
X70892761Y-29022006D01*
X70893680Y-29022350D01*
X70958332Y-29043728D01*
X70959401Y-29044030D01*
X71030451Y-29060804D01*
X71031495Y-29061005D01*
X71112521Y-29073091D01*
X71113416Y-29073192D01*
X71208000Y-29080505D01*
X71208700Y-29080540D01*
X71308000Y-29082724D01*
X71308000Y-29311876D01*
X71208700Y-29314059D01*
X71208000Y-29314094D01*
X71113416Y-29321407D01*
X71112521Y-29321508D01*
X71031495Y-29333594D01*
X71030451Y-29333795D01*
X70959401Y-29350569D01*
X70958332Y-29350871D01*
X70893680Y-29372249D01*
X70892761Y-29372593D01*
X70830925Y-29398490D01*
X70830293Y-29398775D01*
X70767694Y-29429107D01*
X70767390Y-29429260D01*
X70700448Y-29463943D01*
X70700429Y-29463952D01*
X70625640Y-29502861D01*
X70547398Y-29541934D01*
X70189022Y-29197300D01*
X70547399Y-28852666D01*
X70625640Y-28891738D01*
G37*
G04 #@! TD.AperFunction*
D19*
X127575378Y-29197300D02*
X127217002Y-29541934D01*
X127138759Y-29502861D01*
X127063970Y-29463952D01*
X127063951Y-29463943D01*
X126997009Y-29429260D01*
X126996705Y-29429107D01*
X126934106Y-29398775D01*
X126933474Y-29398490D01*
X126871638Y-29372593D01*
X126870719Y-29372249D01*
X126806067Y-29350871D01*
X126804998Y-29350569D01*
X126733948Y-29333795D01*
X126732904Y-29333594D01*
X126651878Y-29321508D01*
X126650983Y-29321407D01*
X126556399Y-29314094D01*
X126555699Y-29314059D01*
X126456400Y-29311876D01*
X126456400Y-29082724D01*
X126555699Y-29080540D01*
X126556399Y-29080505D01*
X126650983Y-29073192D01*
X126651878Y-29073091D01*
X126732904Y-29061005D01*
X126733948Y-29060804D01*
X126804998Y-29044030D01*
X126806067Y-29043728D01*
X126870719Y-29022350D01*
X126871638Y-29022006D01*
X126933474Y-28996109D01*
X126934106Y-28995824D01*
X126996705Y-28965492D01*
X126997009Y-28965339D01*
X127063951Y-28930656D01*
X127063970Y-28930647D01*
X127138759Y-28891738D01*
X127217001Y-28852666D01*
X127575378Y-29197300D01*
G04 #@! TA.AperFunction,Conductor*
D18*
G36*
X127575378Y-29197300D02*
G01*
X127217002Y-29541934D01*
X127138759Y-29502861D01*
X127063970Y-29463952D01*
X127063951Y-29463943D01*
X126997009Y-29429260D01*
X126996705Y-29429107D01*
X126934106Y-29398775D01*
X126933474Y-29398490D01*
X126871638Y-29372593D01*
X126870719Y-29372249D01*
X126806067Y-29350871D01*
X126804998Y-29350569D01*
X126733948Y-29333795D01*
X126732904Y-29333594D01*
X126651878Y-29321508D01*
X126650983Y-29321407D01*
X126556399Y-29314094D01*
X126555699Y-29314059D01*
X126456400Y-29311876D01*
X126456400Y-29082724D01*
X126555699Y-29080540D01*
X126556399Y-29080505D01*
X126650983Y-29073192D01*
X126651878Y-29073091D01*
X126732904Y-29061005D01*
X126733948Y-29060804D01*
X126804998Y-29044030D01*
X126806067Y-29043728D01*
X126870719Y-29022350D01*
X126871638Y-29022006D01*
X126933474Y-28996109D01*
X126934106Y-28995824D01*
X126996705Y-28965492D01*
X126997009Y-28965339D01*
X127063951Y-28930656D01*
X127063970Y-28930647D01*
X127138759Y-28891738D01*
X127217001Y-28852666D01*
X127575378Y-29197300D01*
G37*
G04 #@! TD.AperFunction*
M02*
