G04 #@! TF.GenerationSoftware,KiCad,Pcbnew,(5.1.10-1-10_14)*
G04 #@! TF.CreationDate,2021-08-18T22:34:23+08:00*
G04 #@! TF.ProjectId,SMP v.2,534d5020-762e-4322-9e6b-696361645f70,rev?*
G04 #@! TF.SameCoordinates,Original*
G04 #@! TF.FileFunction,Soldermask,Top*
G04 #@! TF.FilePolarity,Negative*
%FSLAX46Y46*%
G04 Gerber Fmt 4.6, Leading zero omitted, Abs format (unit mm)*
G04 Created by KiCad (PCBNEW (5.1.10-1-10_14)) date 2021-08-18 22:34:23*
%MOMM*%
%LPD*%
G01*
G04 APERTURE LIST*
%ADD10C,0.300000*%
%ADD11C,0.500000*%
%ADD12C,1.752600*%
%ADD13R,1.752600X1.752600*%
%ADD14C,3.987800*%
%ADD15C,1.750000*%
%ADD16C,4.400000*%
%ADD17R,0.900000X1.200000*%
G04 APERTURE END LIST*
D10*
X136826371Y-79385242D02*
X137040657Y-79456671D01*
X137397800Y-79456671D01*
X137540657Y-79385242D01*
X137612085Y-79313814D01*
X137683514Y-79170957D01*
X137683514Y-79028100D01*
X137612085Y-78885242D01*
X137540657Y-78813814D01*
X137397800Y-78742385D01*
X137112085Y-78670957D01*
X136969228Y-78599528D01*
X136897800Y-78528100D01*
X136826371Y-78385242D01*
X136826371Y-78242385D01*
X136897800Y-78099528D01*
X136969228Y-78028100D01*
X137112085Y-77956671D01*
X137469228Y-77956671D01*
X137683514Y-78028100D01*
X138326371Y-79456671D02*
X138326371Y-77956671D01*
X138826371Y-79028100D01*
X139326371Y-77956671D01*
X139326371Y-79456671D01*
X140040657Y-79456671D02*
X140040657Y-77956671D01*
X140612085Y-77956671D01*
X140754942Y-78028100D01*
X140826371Y-78099528D01*
X140897800Y-78242385D01*
X140897800Y-78456671D01*
X140826371Y-78599528D01*
X140754942Y-78670957D01*
X140612085Y-78742385D01*
X140040657Y-78742385D01*
X142469228Y-77956671D02*
X142969228Y-79456671D01*
X143469228Y-77956671D01*
X143969228Y-79313814D02*
X144040657Y-79385242D01*
X143969228Y-79456671D01*
X143897800Y-79385242D01*
X143969228Y-79313814D01*
X143969228Y-79456671D01*
X144612085Y-78099528D02*
X144683514Y-78028100D01*
X144826371Y-77956671D01*
X145183514Y-77956671D01*
X145326371Y-78028100D01*
X145397800Y-78099528D01*
X145469228Y-78242385D01*
X145469228Y-78385242D01*
X145397800Y-78599528D01*
X144540657Y-79456671D01*
X145469228Y-79456671D01*
D11*
X155778200Y-83677760D02*
X155778200Y-25488900D01*
X32501840Y-25488900D02*
X155778200Y-25488900D01*
X32501840Y-83677760D02*
X155778200Y-83677760D01*
X32501840Y-83677760D02*
X32501840Y-25488900D01*
D12*
X50292000Y-58521600D03*
X52832000Y-58521600D03*
X55372000Y-58521600D03*
X57912000Y-58521600D03*
X60452000Y-58521600D03*
X62992000Y-30581600D03*
X47980600Y-58521600D03*
X62992000Y-33121600D03*
X62992000Y-35661600D03*
X62992000Y-38201600D03*
X62992000Y-40741600D03*
X62992000Y-43281600D03*
X62992000Y-45821600D03*
X62992000Y-48361600D03*
X62992000Y-50901600D03*
X62992000Y-53441600D03*
X62992000Y-55981600D03*
X62992000Y-58521600D03*
X47752000Y-55981600D03*
X47752000Y-53441600D03*
X47752000Y-50901600D03*
X47752000Y-48361600D03*
X47752000Y-45821600D03*
X47752000Y-43281600D03*
X47752000Y-40741600D03*
X47752000Y-38201600D03*
X47752000Y-35661600D03*
X47752000Y-33121600D03*
D13*
X47752000Y-30581600D03*
D14*
X136185900Y-64136300D03*
D15*
X131105900Y-64136300D03*
X141265900Y-64136300D03*
D14*
X117135900Y-64136300D03*
D15*
X112055900Y-64136300D03*
X122215900Y-64136300D03*
D14*
X98085900Y-64136300D03*
D15*
X93005900Y-64136300D03*
X103165900Y-64136300D03*
D14*
X79035900Y-64136300D03*
D15*
X73955900Y-64136300D03*
X84115900Y-64136300D03*
D14*
X136185900Y-45086300D03*
D15*
X131105900Y-45086300D03*
X141265900Y-45086300D03*
D14*
X117135900Y-45086300D03*
D15*
X112055900Y-45086300D03*
X122215900Y-45086300D03*
D14*
X98085900Y-45086300D03*
D15*
X93005900Y-45086300D03*
X103165900Y-45086300D03*
D14*
X79035900Y-45086300D03*
D15*
X73955900Y-45086300D03*
X84115900Y-45086300D03*
D16*
X150901400Y-30378400D03*
X37388800Y-30378400D03*
X150901400Y-78790800D03*
X37388800Y-78790800D03*
D17*
X142535900Y-31592550D03*
X139235900Y-31592550D03*
X123485900Y-31592550D03*
X120185900Y-31592550D03*
X104560900Y-31592550D03*
X101260900Y-31592550D03*
X85448400Y-31592550D03*
X82148400Y-31592550D03*
X133010900Y-31592550D03*
X129710900Y-31592550D03*
X114085900Y-31592550D03*
X110785900Y-31592550D03*
X95035900Y-31592550D03*
X91735900Y-31592550D03*
X75985900Y-31592550D03*
X72685900Y-31592550D03*
M02*
