G04 #@! TF.GenerationSoftware,KiCad,Pcbnew,(5.1.10-1-10_14)*
G04 #@! TF.CreationDate,2021-08-02T22:06:10+08:00*
G04 #@! TF.ProjectId,SMP v.2,534d5020-762e-4322-9e6b-696361645f70,rev?*
G04 #@! TF.SameCoordinates,Original*
G04 #@! TF.FileFunction,Soldermask,Bot*
G04 #@! TF.FilePolarity,Negative*
%FSLAX46Y46*%
G04 Gerber Fmt 4.6, Leading zero omitted, Abs format (unit mm)*
G04 Created by KiCad (PCBNEW (5.1.10-1-10_14)) date 2021-08-02 22:06:10*
%MOMM*%
%LPD*%
G01*
G04 APERTURE LIST*
%ADD10C,4.400000*%
%ADD11C,1.750000*%
%ADD12C,2.250000*%
%ADD13C,3.987800*%
%ADD14C,1.752600*%
%ADD15R,1.752600X1.752600*%
G04 APERTURE END LIST*
D10*
X150901400Y-30378400D03*
X37388800Y-30378400D03*
X150901400Y-78790800D03*
X37388800Y-78790800D03*
D11*
X103165900Y-64136300D03*
X93005900Y-64136300D03*
D12*
X95585900Y-60136300D03*
D13*
X98085900Y-64136300D03*
G36*
G01*
X93524588Y-62433650D02*
X93524583Y-62433645D01*
G75*
G02*
X93438555Y-60844983I751317J837345D01*
G01*
X94748557Y-59384983D01*
G75*
G02*
X96337219Y-59298955I837345J-751317D01*
G01*
X96337219Y-59298955D01*
G75*
G02*
X96423247Y-60887617I-751317J-837345D01*
G01*
X95113245Y-62347617D01*
G75*
G02*
X93524583Y-62433645I-837345J751317D01*
G01*
G37*
D12*
X100625900Y-59056300D03*
G36*
G01*
X100509383Y-60758695D02*
X100508497Y-60758634D01*
G75*
G02*
X99463566Y-59558897I77403J1122334D01*
G01*
X99503566Y-58978897D01*
G75*
G02*
X100703303Y-57933966I1122334J-77403D01*
G01*
X100703303Y-57933966D01*
G75*
G02*
X101748234Y-59133703I-77403J-1122334D01*
G01*
X101708234Y-59713703D01*
G75*
G02*
X100508497Y-60758634I-1122334J77403D01*
G01*
G37*
D11*
X122215900Y-45086300D03*
X112055900Y-45086300D03*
D12*
X114635900Y-41086300D03*
D13*
X117135900Y-45086300D03*
G36*
G01*
X112574588Y-43383650D02*
X112574583Y-43383645D01*
G75*
G02*
X112488555Y-41794983I751317J837345D01*
G01*
X113798557Y-40334983D01*
G75*
G02*
X115387219Y-40248955I837345J-751317D01*
G01*
X115387219Y-40248955D01*
G75*
G02*
X115473247Y-41837617I-751317J-837345D01*
G01*
X114163245Y-43297617D01*
G75*
G02*
X112574583Y-43383645I-837345J751317D01*
G01*
G37*
D12*
X119675900Y-40006300D03*
G36*
G01*
X119559383Y-41708695D02*
X119558497Y-41708634D01*
G75*
G02*
X118513566Y-40508897I77403J1122334D01*
G01*
X118553566Y-39928897D01*
G75*
G02*
X119753303Y-38883966I1122334J-77403D01*
G01*
X119753303Y-38883966D01*
G75*
G02*
X120798234Y-40083703I-77403J-1122334D01*
G01*
X120758234Y-40663703D01*
G75*
G02*
X119558497Y-41708634I-1122334J77403D01*
G01*
G37*
D14*
X50292000Y-58521600D03*
X52832000Y-58521600D03*
X55372000Y-58521600D03*
X57912000Y-58521600D03*
X60452000Y-58521600D03*
X62992000Y-30581600D03*
X47980600Y-58521600D03*
X62992000Y-33121600D03*
X62992000Y-35661600D03*
X62992000Y-38201600D03*
X62992000Y-40741600D03*
X62992000Y-43281600D03*
X62992000Y-45821600D03*
X62992000Y-48361600D03*
X62992000Y-50901600D03*
X62992000Y-53441600D03*
X62992000Y-55981600D03*
X62992000Y-58521600D03*
X47752000Y-55981600D03*
X47752000Y-53441600D03*
X47752000Y-50901600D03*
X47752000Y-48361600D03*
X47752000Y-45821600D03*
X47752000Y-43281600D03*
X47752000Y-40741600D03*
X47752000Y-38201600D03*
X47752000Y-35661600D03*
X47752000Y-33121600D03*
D15*
X47752000Y-30581600D03*
D11*
X141265900Y-64136300D03*
X131105900Y-64136300D03*
D12*
X133685900Y-60136300D03*
D13*
X136185900Y-64136300D03*
G36*
G01*
X131624588Y-62433650D02*
X131624583Y-62433645D01*
G75*
G02*
X131538555Y-60844983I751317J837345D01*
G01*
X132848557Y-59384983D01*
G75*
G02*
X134437219Y-59298955I837345J-751317D01*
G01*
X134437219Y-59298955D01*
G75*
G02*
X134523247Y-60887617I-751317J-837345D01*
G01*
X133213245Y-62347617D01*
G75*
G02*
X131624583Y-62433645I-837345J751317D01*
G01*
G37*
D12*
X138725900Y-59056300D03*
G36*
G01*
X138609383Y-60758695D02*
X138608497Y-60758634D01*
G75*
G02*
X137563566Y-59558897I77403J1122334D01*
G01*
X137603566Y-58978897D01*
G75*
G02*
X138803303Y-57933966I1122334J-77403D01*
G01*
X138803303Y-57933966D01*
G75*
G02*
X139848234Y-59133703I-77403J-1122334D01*
G01*
X139808234Y-59713703D01*
G75*
G02*
X138608497Y-60758634I-1122334J77403D01*
G01*
G37*
D11*
X122215900Y-64136300D03*
X112055900Y-64136300D03*
D12*
X114635900Y-60136300D03*
D13*
X117135900Y-64136300D03*
G36*
G01*
X112574588Y-62433650D02*
X112574583Y-62433645D01*
G75*
G02*
X112488555Y-60844983I751317J837345D01*
G01*
X113798557Y-59384983D01*
G75*
G02*
X115387219Y-59298955I837345J-751317D01*
G01*
X115387219Y-59298955D01*
G75*
G02*
X115473247Y-60887617I-751317J-837345D01*
G01*
X114163245Y-62347617D01*
G75*
G02*
X112574583Y-62433645I-837345J751317D01*
G01*
G37*
D12*
X119675900Y-59056300D03*
G36*
G01*
X119559383Y-60758695D02*
X119558497Y-60758634D01*
G75*
G02*
X118513566Y-59558897I77403J1122334D01*
G01*
X118553566Y-58978897D01*
G75*
G02*
X119753303Y-57933966I1122334J-77403D01*
G01*
X119753303Y-57933966D01*
G75*
G02*
X120798234Y-59133703I-77403J-1122334D01*
G01*
X120758234Y-59713703D01*
G75*
G02*
X119558497Y-60758634I-1122334J77403D01*
G01*
G37*
D11*
X84115900Y-64136300D03*
X73955900Y-64136300D03*
D12*
X76535900Y-60136300D03*
D13*
X79035900Y-64136300D03*
G36*
G01*
X74474588Y-62433650D02*
X74474583Y-62433645D01*
G75*
G02*
X74388555Y-60844983I751317J837345D01*
G01*
X75698557Y-59384983D01*
G75*
G02*
X77287219Y-59298955I837345J-751317D01*
G01*
X77287219Y-59298955D01*
G75*
G02*
X77373247Y-60887617I-751317J-837345D01*
G01*
X76063245Y-62347617D01*
G75*
G02*
X74474583Y-62433645I-837345J751317D01*
G01*
G37*
D12*
X81575900Y-59056300D03*
G36*
G01*
X81459383Y-60758695D02*
X81458497Y-60758634D01*
G75*
G02*
X80413566Y-59558897I77403J1122334D01*
G01*
X80453566Y-58978897D01*
G75*
G02*
X81653303Y-57933966I1122334J-77403D01*
G01*
X81653303Y-57933966D01*
G75*
G02*
X82698234Y-59133703I-77403J-1122334D01*
G01*
X82658234Y-59713703D01*
G75*
G02*
X81458497Y-60758634I-1122334J77403D01*
G01*
G37*
D11*
X141265900Y-45086300D03*
X131105900Y-45086300D03*
D12*
X133685900Y-41086300D03*
D13*
X136185900Y-45086300D03*
G36*
G01*
X131624588Y-43383650D02*
X131624583Y-43383645D01*
G75*
G02*
X131538555Y-41794983I751317J837345D01*
G01*
X132848557Y-40334983D01*
G75*
G02*
X134437219Y-40248955I837345J-751317D01*
G01*
X134437219Y-40248955D01*
G75*
G02*
X134523247Y-41837617I-751317J-837345D01*
G01*
X133213245Y-43297617D01*
G75*
G02*
X131624583Y-43383645I-837345J751317D01*
G01*
G37*
D12*
X138725900Y-40006300D03*
G36*
G01*
X138609383Y-41708695D02*
X138608497Y-41708634D01*
G75*
G02*
X137563566Y-40508897I77403J1122334D01*
G01*
X137603566Y-39928897D01*
G75*
G02*
X138803303Y-38883966I1122334J-77403D01*
G01*
X138803303Y-38883966D01*
G75*
G02*
X139848234Y-40083703I-77403J-1122334D01*
G01*
X139808234Y-40663703D01*
G75*
G02*
X138608497Y-41708634I-1122334J77403D01*
G01*
G37*
D11*
X103165900Y-45086300D03*
X93005900Y-45086300D03*
D12*
X95585900Y-41086300D03*
D13*
X98085900Y-45086300D03*
G36*
G01*
X93524588Y-43383650D02*
X93524583Y-43383645D01*
G75*
G02*
X93438555Y-41794983I751317J837345D01*
G01*
X94748557Y-40334983D01*
G75*
G02*
X96337219Y-40248955I837345J-751317D01*
G01*
X96337219Y-40248955D01*
G75*
G02*
X96423247Y-41837617I-751317J-837345D01*
G01*
X95113245Y-43297617D01*
G75*
G02*
X93524583Y-43383645I-837345J751317D01*
G01*
G37*
D12*
X100625900Y-40006300D03*
G36*
G01*
X100509383Y-41708695D02*
X100508497Y-41708634D01*
G75*
G02*
X99463566Y-40508897I77403J1122334D01*
G01*
X99503566Y-39928897D01*
G75*
G02*
X100703303Y-38883966I1122334J-77403D01*
G01*
X100703303Y-38883966D01*
G75*
G02*
X101748234Y-40083703I-77403J-1122334D01*
G01*
X101708234Y-40663703D01*
G75*
G02*
X100508497Y-41708634I-1122334J77403D01*
G01*
G37*
D11*
X84115900Y-45086300D03*
X73955900Y-45086300D03*
D12*
X76535900Y-41086300D03*
D13*
X79035900Y-45086300D03*
G36*
G01*
X74474588Y-43383650D02*
X74474583Y-43383645D01*
G75*
G02*
X74388555Y-41794983I751317J837345D01*
G01*
X75698557Y-40334983D01*
G75*
G02*
X77287219Y-40248955I837345J-751317D01*
G01*
X77287219Y-40248955D01*
G75*
G02*
X77373247Y-41837617I-751317J-837345D01*
G01*
X76063245Y-43297617D01*
G75*
G02*
X74474583Y-43383645I-837345J751317D01*
G01*
G37*
D12*
X81575900Y-40006300D03*
G36*
G01*
X81459383Y-41708695D02*
X81458497Y-41708634D01*
G75*
G02*
X80413566Y-40508897I77403J1122334D01*
G01*
X80453566Y-39928897D01*
G75*
G02*
X81653303Y-38883966I1122334J-77403D01*
G01*
X81653303Y-38883966D01*
G75*
G02*
X82698234Y-40083703I-77403J-1122334D01*
G01*
X82658234Y-40663703D01*
G75*
G02*
X81458497Y-41708634I-1122334J77403D01*
G01*
G37*
M02*
