M48
; DRILL file {KiCad (5.1.10-1-10_14)} date Wednesday, August 18, 2021 at 10:34:30 PM
; FORMAT={-:-/ absolute / inch / decimal}
; #@! TF.CreationDate,2021-08-18T22:34:30+08:00
; #@! TF.GenerationSoftware,Kicad,Pcbnew,(5.1.10-1-10_14)
; #@! TF.FileFunction,Plated,1,2,PTH
FMAT,2
INCH
T1C0.0157
T2C0.0430
T3C0.0579
T4C0.0866
%
G90
G05
T1
X2.7705Y-1.1495
X3.517Y-1.1495
X4.269Y-1.1495
X5.0485Y-1.1605
T2
X1.88Y-1.204
X1.88Y-1.304
X1.88Y-1.404
X1.88Y-1.504
X1.88Y-1.604
X1.88Y-1.704
X1.88Y-1.804
X1.88Y-1.904
X1.88Y-2.004
X1.88Y-2.104
X1.88Y-2.204
X1.889Y-2.304
X1.98Y-2.304
X2.08Y-2.304
X2.18Y-2.304
X2.28Y-2.304
X2.38Y-2.304
X2.48Y-1.204
X2.48Y-1.304
X2.48Y-1.404
X2.48Y-1.504
X2.48Y-1.604
X2.48Y-1.704
X2.48Y-1.804
X2.48Y-1.904
X2.48Y-2.004
X2.48Y-2.104
X2.48Y-2.204
X2.48Y-2.304
T3
X2.9616Y-1.6751
X2.9616Y-2.4251
X3.2116Y-1.5751
X3.2116Y-2.3251
X3.7116Y-1.6751
X3.7116Y-2.4251
X3.9616Y-1.5751
X3.9616Y-2.3251
X4.4616Y-1.6751
X4.4616Y-2.4251
X4.7116Y-1.5751
X4.7116Y-2.3251
X5.2116Y-1.6751
X5.2116Y-2.4251
X5.4616Y-1.5751
X5.4616Y-2.3251
T4
X1.472Y-1.196
X1.472Y-3.102
X5.941Y-1.196
X5.941Y-3.102
T0
M30
