<svg xmlns="http://www.w3.org/2000/svg" width="267.26" height="197.99" viewBox="0 0 267.26 197.99">
  <g id="Layer_2" data-name="Layer 2">
    <g id="Layer_1-2" data-name="Layer 1">
      <path d="M267,187.41V10.58A10.36,10.36,0,0,0,256.68.21H10.58A10.37,10.37,0,0,0,.21,10.58V187.41a10.37,10.37,0,0,0,10.37,10.37h246.1A10.36,10.36,0,0,0,267,187.41Z" style="fill-opacity: 0;stroke: #000;stroke-linecap: round;stroke-linejoin: round;stroke-width: 0.4251966815050068px"/>
      <g>
        <rect x="79.97" y="16.58" width="164.83" height="164.83" style="fill-opacity: 0"/>
        <path d="M244.8,183.06H79.53a1.42,1.42,0,0,1-1.42-1.42V16.37A1.43,1.43,0,0,1,79.53,15H244.8a1.42,1.42,0,0,1,1.42,1.42V181.64A1.41,1.41,0,0,1,244.8,183.06ZM81,180.22H243.38V17.79H81Z" style="fill: #283481"/>
      </g>
      <path d="M243.18,180V18h-162V180Z" style="fill-opacity: 0;stroke: #000;stroke-linecap: round;stroke-linejoin: round;stroke-width: 0.4251966815050068px"/>
      <path d="M256.68,197.56H10.58A10.16,10.16,0,0,1,.43,187.41V10.58A10.16,10.16,0,0,1,10.58.43h246.1a10.16,10.16,0,0,1,10.15,10.15V187.41A10.16,10.16,0,0,1,256.68,197.56ZM10.58,2.83a7.76,7.76,0,0,0-7.75,7.75V187.41a7.76,7.76,0,0,0,7.75,7.75h246.1a7.76,7.76,0,0,0,7.75-7.75V10.58a7.76,7.76,0,0,0-7.75-7.75Z" style="fill: #e95026"/>
    </g>
  </g>
</svg>
