G04 #@! TF.GenerationSoftware,KiCad,Pcbnew,(5.1.10-1-10_14)*
G04 #@! TF.CreationDate,2021-08-18T22:35:38+08:00*
G04 #@! TF.ProjectId,SMP top plate v.2 ,534d5020-746f-4702-9070-6c6174652076,rev?*
G04 #@! TF.SameCoordinates,Original*
G04 #@! TF.FileFunction,Copper,L2,Bot*
G04 #@! TF.FilePolarity,Positive*
%FSLAX46Y46*%
G04 Gerber Fmt 4.6, Leading zero omitted, Abs format (unit mm)*
G04 Created by KiCad (PCBNEW (5.1.10-1-10_14)) date 2021-08-18 22:35:38*
%MOMM*%
%LPD*%
G01*
G04 APERTURE LIST*
G04 #@! TA.AperFunction,NonConductor*
%ADD10C,0.500000*%
G04 #@! TD*
G04 #@! TA.AperFunction,ConnectorPad*
%ADD11C,4.400000*%
G04 #@! TD*
G04 #@! TA.AperFunction,ComponentPad*
%ADD12C,2.600000*%
G04 #@! TD*
G04 #@! TA.AperFunction,Conductor*
%ADD13C,0.254000*%
G04 #@! TD*
G04 #@! TA.AperFunction,Conductor*
%ADD14C,0.100000*%
G04 #@! TD*
G04 APERTURE END LIST*
D10*
X193929000Y-129654300D02*
X70650100Y-129654300D01*
X193929000Y-129654300D02*
X193929000Y-71462900D01*
X70650100Y-129654300D02*
X70650100Y-71462900D01*
X193929000Y-71462900D02*
X70650100Y-71462900D01*
X184251600Y-120015000D02*
X107264200Y-120015000D01*
X107264200Y-81153000D02*
X107264200Y-120015000D01*
X184251600Y-81153000D02*
X184251600Y-120015000D01*
X107264200Y-81153000D02*
X184251600Y-81153000D01*
D11*
X189052200Y-124764800D03*
D12*
X189052200Y-124764800D03*
D11*
X189052200Y-76352400D03*
D12*
X189052200Y-76352400D03*
D11*
X75539600Y-124764800D03*
D12*
X75539600Y-124764800D03*
D11*
X75539600Y-76352400D03*
D12*
X75539600Y-76352400D03*
D13*
X193044000Y-128769300D02*
X71535100Y-128769300D01*
X71535100Y-126754575D01*
X73729430Y-126754575D01*
X73969576Y-127141818D01*
X74463477Y-127402441D01*
X74998733Y-127561701D01*
X75554774Y-127613478D01*
X76110232Y-127555781D01*
X76643761Y-127390828D01*
X77109624Y-127141818D01*
X77349770Y-126754575D01*
X187242030Y-126754575D01*
X187482176Y-127141818D01*
X187976077Y-127402441D01*
X188511333Y-127561701D01*
X189067374Y-127613478D01*
X189622832Y-127555781D01*
X190156361Y-127390828D01*
X190622224Y-127141818D01*
X190862370Y-126754575D01*
X189052200Y-124944405D01*
X187242030Y-126754575D01*
X77349770Y-126754575D01*
X75539600Y-124944405D01*
X73729430Y-126754575D01*
X71535100Y-126754575D01*
X71535100Y-124779974D01*
X72690922Y-124779974D01*
X72748619Y-125335432D01*
X72913572Y-125868961D01*
X73162582Y-126334824D01*
X73549825Y-126574970D01*
X75359995Y-124764800D01*
X75719205Y-124764800D01*
X77529375Y-126574970D01*
X77916618Y-126334824D01*
X78177241Y-125840923D01*
X78336501Y-125305667D01*
X78385452Y-124779974D01*
X186203522Y-124779974D01*
X186261219Y-125335432D01*
X186426172Y-125868961D01*
X186675182Y-126334824D01*
X187062425Y-126574970D01*
X188872595Y-124764800D01*
X189231805Y-124764800D01*
X191041975Y-126574970D01*
X191429218Y-126334824D01*
X191689841Y-125840923D01*
X191849101Y-125305667D01*
X191900878Y-124749626D01*
X191843181Y-124194168D01*
X191678228Y-123660639D01*
X191429218Y-123194776D01*
X191041975Y-122954630D01*
X189231805Y-124764800D01*
X188872595Y-124764800D01*
X187062425Y-122954630D01*
X186675182Y-123194776D01*
X186414559Y-123688677D01*
X186255299Y-124223933D01*
X186203522Y-124779974D01*
X78385452Y-124779974D01*
X78388278Y-124749626D01*
X78330581Y-124194168D01*
X78165628Y-123660639D01*
X77916618Y-123194776D01*
X77529375Y-122954630D01*
X75719205Y-124764800D01*
X75359995Y-124764800D01*
X73549825Y-122954630D01*
X73162582Y-123194776D01*
X72901959Y-123688677D01*
X72742699Y-124223933D01*
X72690922Y-124779974D01*
X71535100Y-124779974D01*
X71535100Y-122775025D01*
X73729430Y-122775025D01*
X75539600Y-124585195D01*
X77349770Y-122775025D01*
X187242030Y-122775025D01*
X189052200Y-124585195D01*
X190862370Y-122775025D01*
X190622224Y-122387782D01*
X190128323Y-122127159D01*
X189593067Y-121967899D01*
X189037026Y-121916122D01*
X188481568Y-121973819D01*
X187948039Y-122138772D01*
X187482176Y-122387782D01*
X187242030Y-122775025D01*
X77349770Y-122775025D01*
X77109624Y-122387782D01*
X76615723Y-122127159D01*
X76080467Y-121967899D01*
X75524426Y-121916122D01*
X74968968Y-121973819D01*
X74435439Y-122138772D01*
X73969576Y-122387782D01*
X73729430Y-122775025D01*
X71535100Y-122775025D01*
X71535100Y-81153000D01*
X106374918Y-81153000D01*
X106379200Y-81196477D01*
X106379201Y-119971513D01*
X106374918Y-120015000D01*
X106392005Y-120188490D01*
X106442611Y-120355313D01*
X106524789Y-120509059D01*
X106635383Y-120643817D01*
X106770141Y-120754411D01*
X106923887Y-120836589D01*
X107090710Y-120887195D01*
X107220723Y-120900000D01*
X107220724Y-120900000D01*
X107264200Y-120904282D01*
X107307677Y-120900000D01*
X184208124Y-120900000D01*
X184251600Y-120904282D01*
X184425090Y-120887195D01*
X184591913Y-120836589D01*
X184745659Y-120754411D01*
X184880417Y-120643817D01*
X184991011Y-120509059D01*
X185073189Y-120355313D01*
X185123795Y-120188490D01*
X185136600Y-120058477D01*
X185140882Y-120015000D01*
X185136600Y-119971523D01*
X185136600Y-81196477D01*
X185140882Y-81153000D01*
X185132112Y-81063950D01*
X185123795Y-80979510D01*
X185073189Y-80812687D01*
X184991011Y-80658941D01*
X184880417Y-80524183D01*
X184745659Y-80413589D01*
X184591913Y-80331411D01*
X184425090Y-80280805D01*
X184295077Y-80268000D01*
X184295076Y-80268000D01*
X184251600Y-80263718D01*
X184208123Y-80268000D01*
X107307676Y-80268000D01*
X107264200Y-80263718D01*
X107220723Y-80268000D01*
X107090710Y-80280805D01*
X106923887Y-80331411D01*
X106770141Y-80413589D01*
X106635383Y-80524183D01*
X106524789Y-80658941D01*
X106442611Y-80812687D01*
X106392005Y-80979510D01*
X106374918Y-81153000D01*
X71535100Y-81153000D01*
X71535100Y-78342175D01*
X73729430Y-78342175D01*
X73969576Y-78729418D01*
X74463477Y-78990041D01*
X74998733Y-79149301D01*
X75554774Y-79201078D01*
X76110232Y-79143381D01*
X76643761Y-78978428D01*
X77109624Y-78729418D01*
X77349770Y-78342175D01*
X187242030Y-78342175D01*
X187482176Y-78729418D01*
X187976077Y-78990041D01*
X188511333Y-79149301D01*
X189067374Y-79201078D01*
X189622832Y-79143381D01*
X190156361Y-78978428D01*
X190622224Y-78729418D01*
X190862370Y-78342175D01*
X189052200Y-76532005D01*
X187242030Y-78342175D01*
X77349770Y-78342175D01*
X75539600Y-76532005D01*
X73729430Y-78342175D01*
X71535100Y-78342175D01*
X71535100Y-76367574D01*
X72690922Y-76367574D01*
X72748619Y-76923032D01*
X72913572Y-77456561D01*
X73162582Y-77922424D01*
X73549825Y-78162570D01*
X75359995Y-76352400D01*
X75719205Y-76352400D01*
X77529375Y-78162570D01*
X77916618Y-77922424D01*
X78177241Y-77428523D01*
X78336501Y-76893267D01*
X78385452Y-76367574D01*
X186203522Y-76367574D01*
X186261219Y-76923032D01*
X186426172Y-77456561D01*
X186675182Y-77922424D01*
X187062425Y-78162570D01*
X188872595Y-76352400D01*
X189231805Y-76352400D01*
X191041975Y-78162570D01*
X191429218Y-77922424D01*
X191689841Y-77428523D01*
X191849101Y-76893267D01*
X191900878Y-76337226D01*
X191843181Y-75781768D01*
X191678228Y-75248239D01*
X191429218Y-74782376D01*
X191041975Y-74542230D01*
X189231805Y-76352400D01*
X188872595Y-76352400D01*
X187062425Y-74542230D01*
X186675182Y-74782376D01*
X186414559Y-75276277D01*
X186255299Y-75811533D01*
X186203522Y-76367574D01*
X78385452Y-76367574D01*
X78388278Y-76337226D01*
X78330581Y-75781768D01*
X78165628Y-75248239D01*
X77916618Y-74782376D01*
X77529375Y-74542230D01*
X75719205Y-76352400D01*
X75359995Y-76352400D01*
X73549825Y-74542230D01*
X73162582Y-74782376D01*
X72901959Y-75276277D01*
X72742699Y-75811533D01*
X72690922Y-76367574D01*
X71535100Y-76367574D01*
X71535100Y-74362625D01*
X73729430Y-74362625D01*
X75539600Y-76172795D01*
X77349770Y-74362625D01*
X187242030Y-74362625D01*
X189052200Y-76172795D01*
X190862370Y-74362625D01*
X190622224Y-73975382D01*
X190128323Y-73714759D01*
X189593067Y-73555499D01*
X189037026Y-73503722D01*
X188481568Y-73561419D01*
X187948039Y-73726372D01*
X187482176Y-73975382D01*
X187242030Y-74362625D01*
X77349770Y-74362625D01*
X77109624Y-73975382D01*
X76615723Y-73714759D01*
X76080467Y-73555499D01*
X75524426Y-73503722D01*
X74968968Y-73561419D01*
X74435439Y-73726372D01*
X73969576Y-73975382D01*
X73729430Y-74362625D01*
X71535100Y-74362625D01*
X71535100Y-72347900D01*
X193044001Y-72347900D01*
X193044000Y-128769300D01*
G04 #@! TA.AperFunction,Conductor*
D14*
G36*
X193044000Y-128769300D02*
G01*
X71535100Y-128769300D01*
X71535100Y-126754575D01*
X73729430Y-126754575D01*
X73969576Y-127141818D01*
X74463477Y-127402441D01*
X74998733Y-127561701D01*
X75554774Y-127613478D01*
X76110232Y-127555781D01*
X76643761Y-127390828D01*
X77109624Y-127141818D01*
X77349770Y-126754575D01*
X187242030Y-126754575D01*
X187482176Y-127141818D01*
X187976077Y-127402441D01*
X188511333Y-127561701D01*
X189067374Y-127613478D01*
X189622832Y-127555781D01*
X190156361Y-127390828D01*
X190622224Y-127141818D01*
X190862370Y-126754575D01*
X189052200Y-124944405D01*
X187242030Y-126754575D01*
X77349770Y-126754575D01*
X75539600Y-124944405D01*
X73729430Y-126754575D01*
X71535100Y-126754575D01*
X71535100Y-124779974D01*
X72690922Y-124779974D01*
X72748619Y-125335432D01*
X72913572Y-125868961D01*
X73162582Y-126334824D01*
X73549825Y-126574970D01*
X75359995Y-124764800D01*
X75719205Y-124764800D01*
X77529375Y-126574970D01*
X77916618Y-126334824D01*
X78177241Y-125840923D01*
X78336501Y-125305667D01*
X78385452Y-124779974D01*
X186203522Y-124779974D01*
X186261219Y-125335432D01*
X186426172Y-125868961D01*
X186675182Y-126334824D01*
X187062425Y-126574970D01*
X188872595Y-124764800D01*
X189231805Y-124764800D01*
X191041975Y-126574970D01*
X191429218Y-126334824D01*
X191689841Y-125840923D01*
X191849101Y-125305667D01*
X191900878Y-124749626D01*
X191843181Y-124194168D01*
X191678228Y-123660639D01*
X191429218Y-123194776D01*
X191041975Y-122954630D01*
X189231805Y-124764800D01*
X188872595Y-124764800D01*
X187062425Y-122954630D01*
X186675182Y-123194776D01*
X186414559Y-123688677D01*
X186255299Y-124223933D01*
X186203522Y-124779974D01*
X78385452Y-124779974D01*
X78388278Y-124749626D01*
X78330581Y-124194168D01*
X78165628Y-123660639D01*
X77916618Y-123194776D01*
X77529375Y-122954630D01*
X75719205Y-124764800D01*
X75359995Y-124764800D01*
X73549825Y-122954630D01*
X73162582Y-123194776D01*
X72901959Y-123688677D01*
X72742699Y-124223933D01*
X72690922Y-124779974D01*
X71535100Y-124779974D01*
X71535100Y-122775025D01*
X73729430Y-122775025D01*
X75539600Y-124585195D01*
X77349770Y-122775025D01*
X187242030Y-122775025D01*
X189052200Y-124585195D01*
X190862370Y-122775025D01*
X190622224Y-122387782D01*
X190128323Y-122127159D01*
X189593067Y-121967899D01*
X189037026Y-121916122D01*
X188481568Y-121973819D01*
X187948039Y-122138772D01*
X187482176Y-122387782D01*
X187242030Y-122775025D01*
X77349770Y-122775025D01*
X77109624Y-122387782D01*
X76615723Y-122127159D01*
X76080467Y-121967899D01*
X75524426Y-121916122D01*
X74968968Y-121973819D01*
X74435439Y-122138772D01*
X73969576Y-122387782D01*
X73729430Y-122775025D01*
X71535100Y-122775025D01*
X71535100Y-81153000D01*
X106374918Y-81153000D01*
X106379200Y-81196477D01*
X106379201Y-119971513D01*
X106374918Y-120015000D01*
X106392005Y-120188490D01*
X106442611Y-120355313D01*
X106524789Y-120509059D01*
X106635383Y-120643817D01*
X106770141Y-120754411D01*
X106923887Y-120836589D01*
X107090710Y-120887195D01*
X107220723Y-120900000D01*
X107220724Y-120900000D01*
X107264200Y-120904282D01*
X107307677Y-120900000D01*
X184208124Y-120900000D01*
X184251600Y-120904282D01*
X184425090Y-120887195D01*
X184591913Y-120836589D01*
X184745659Y-120754411D01*
X184880417Y-120643817D01*
X184991011Y-120509059D01*
X185073189Y-120355313D01*
X185123795Y-120188490D01*
X185136600Y-120058477D01*
X185140882Y-120015000D01*
X185136600Y-119971523D01*
X185136600Y-81196477D01*
X185140882Y-81153000D01*
X185132112Y-81063950D01*
X185123795Y-80979510D01*
X185073189Y-80812687D01*
X184991011Y-80658941D01*
X184880417Y-80524183D01*
X184745659Y-80413589D01*
X184591913Y-80331411D01*
X184425090Y-80280805D01*
X184295077Y-80268000D01*
X184295076Y-80268000D01*
X184251600Y-80263718D01*
X184208123Y-80268000D01*
X107307676Y-80268000D01*
X107264200Y-80263718D01*
X107220723Y-80268000D01*
X107090710Y-80280805D01*
X106923887Y-80331411D01*
X106770141Y-80413589D01*
X106635383Y-80524183D01*
X106524789Y-80658941D01*
X106442611Y-80812687D01*
X106392005Y-80979510D01*
X106374918Y-81153000D01*
X71535100Y-81153000D01*
X71535100Y-78342175D01*
X73729430Y-78342175D01*
X73969576Y-78729418D01*
X74463477Y-78990041D01*
X74998733Y-79149301D01*
X75554774Y-79201078D01*
X76110232Y-79143381D01*
X76643761Y-78978428D01*
X77109624Y-78729418D01*
X77349770Y-78342175D01*
X187242030Y-78342175D01*
X187482176Y-78729418D01*
X187976077Y-78990041D01*
X188511333Y-79149301D01*
X189067374Y-79201078D01*
X189622832Y-79143381D01*
X190156361Y-78978428D01*
X190622224Y-78729418D01*
X190862370Y-78342175D01*
X189052200Y-76532005D01*
X187242030Y-78342175D01*
X77349770Y-78342175D01*
X75539600Y-76532005D01*
X73729430Y-78342175D01*
X71535100Y-78342175D01*
X71535100Y-76367574D01*
X72690922Y-76367574D01*
X72748619Y-76923032D01*
X72913572Y-77456561D01*
X73162582Y-77922424D01*
X73549825Y-78162570D01*
X75359995Y-76352400D01*
X75719205Y-76352400D01*
X77529375Y-78162570D01*
X77916618Y-77922424D01*
X78177241Y-77428523D01*
X78336501Y-76893267D01*
X78385452Y-76367574D01*
X186203522Y-76367574D01*
X186261219Y-76923032D01*
X186426172Y-77456561D01*
X186675182Y-77922424D01*
X187062425Y-78162570D01*
X188872595Y-76352400D01*
X189231805Y-76352400D01*
X191041975Y-78162570D01*
X191429218Y-77922424D01*
X191689841Y-77428523D01*
X191849101Y-76893267D01*
X191900878Y-76337226D01*
X191843181Y-75781768D01*
X191678228Y-75248239D01*
X191429218Y-74782376D01*
X191041975Y-74542230D01*
X189231805Y-76352400D01*
X188872595Y-76352400D01*
X187062425Y-74542230D01*
X186675182Y-74782376D01*
X186414559Y-75276277D01*
X186255299Y-75811533D01*
X186203522Y-76367574D01*
X78385452Y-76367574D01*
X78388278Y-76337226D01*
X78330581Y-75781768D01*
X78165628Y-75248239D01*
X77916618Y-74782376D01*
X77529375Y-74542230D01*
X75719205Y-76352400D01*
X75359995Y-76352400D01*
X73549825Y-74542230D01*
X73162582Y-74782376D01*
X72901959Y-75276277D01*
X72742699Y-75811533D01*
X72690922Y-76367574D01*
X71535100Y-76367574D01*
X71535100Y-74362625D01*
X73729430Y-74362625D01*
X75539600Y-76172795D01*
X77349770Y-74362625D01*
X187242030Y-74362625D01*
X189052200Y-76172795D01*
X190862370Y-74362625D01*
X190622224Y-73975382D01*
X190128323Y-73714759D01*
X189593067Y-73555499D01*
X189037026Y-73503722D01*
X188481568Y-73561419D01*
X187948039Y-73726372D01*
X187482176Y-73975382D01*
X187242030Y-74362625D01*
X77349770Y-74362625D01*
X77109624Y-73975382D01*
X76615723Y-73714759D01*
X76080467Y-73555499D01*
X75524426Y-73503722D01*
X74968968Y-73561419D01*
X74435439Y-73726372D01*
X73969576Y-73975382D01*
X73729430Y-74362625D01*
X71535100Y-74362625D01*
X71535100Y-72347900D01*
X193044001Y-72347900D01*
X193044000Y-128769300D01*
G37*
G04 #@! TD.AperFunction*
M02*
